<svg width="212" height="58" viewBox="0 0 212 58" fill="none" xmlns="http://www.w3.org/2000/svg">
<g id="Vector">
<path fill-rule="evenodd" clip-rule="evenodd" d="M1.36783 57.806C0.328851 57.806 -0.329713 56.692 0.171108 55.7817L22.8744 14.516C25.8703 9.22332 33.7193 1.81358 41.1491 14.516C48.0848 26.3737 58.2577 45.8548 63.3574 55.8262C63.8216 56.7337 63.1599 57.806 62.1406 57.806H50.1783C49.6814 57.806 49.2237 57.5361 48.9831 57.1012L31.9368 26.2814C31.4013 25.3132 29.997 25.3501 29.5132 26.3451L20.9831 43.8859C20.5419 44.7931 21.2026 45.8491 22.2114 45.8491H36.3059C36.7993 45.8491 37.2544 46.1153 37.4964 46.5455L42.6854 55.7705C43.1975 56.681 42.5396 57.806 41.4949 57.806H1.36783Z" fill="#FFC800"/>
<path d="M52.0169 28.8332L62.6708 47.0068C63.1403 47.8077 64.3669 47.4746 64.3669 46.5463V10.1986C64.3669 9.69564 63.9592 9.28797 63.4563 9.28797H52.8025C52.2996 9.28797 51.8919 9.69564 51.8919 10.1986V28.3727C51.8919 28.5346 51.935 28.6935 52.0169 28.8332Z" fill="#1C6DBE"/>
<path d="M63.9116 0H52.3472C52.0957 0 51.8919 0.203841 51.8919 0.455293V7.01151C51.8919 7.26296 52.0957 7.4668 52.3472 7.4668H63.9116C64.1631 7.4668 64.3669 7.26296 64.3669 7.01151V0.455293C64.3669 0.203841 64.1631 0 63.9116 0Z" fill="#FFC800"/>
<path d="M83.9785 36.3324H81.6665V33.2022H73.5388V36.3324H71.2267V29.9564C71.2267 29.0257 71.3868 28.1691 71.7069 27.3866C72.027 26.604 72.4717 25.9312 73.0408 25.368C73.6099 24.8048 74.2828 24.3661 75.0594 24.0519C75.836 23.7377 76.6838 23.5806 77.6026 23.5806H82.8135C82.9736 23.5806 83.1248 23.6102 83.2671 23.6696C83.4093 23.7288 83.5339 23.8118 83.6406 23.9185C83.7473 24.0252 83.8303 24.1497 83.8896 24.292C83.9489 24.4343 83.9785 24.5854 83.9785 24.7455V36.3324ZM73.5388 30.8901H81.6665V25.8927H77.6026C77.5315 25.8927 77.3803 25.9045 77.1491 25.9282C76.9238 25.946 76.66 25.9964 76.3577 26.0793C76.0613 26.1624 75.747 26.2899 75.415 26.4618C75.0831 26.6337 74.7778 26.8708 74.4992 27.1731C74.2205 27.4755 73.9893 27.8549 73.8056 28.3114C73.6277 28.7619 73.5388 29.3103 73.5388 29.9564V30.8901ZM99.2155 35.3453C99.2155 35.5113 99.1827 35.6654 99.118 35.8077C99.0579 35.95 98.9751 36.0745 98.8685 36.1812C98.7674 36.282 98.6463 36.362 98.5043 36.4213C98.3613 36.4806 98.2102 36.5102 98.0508 36.5102C97.9078 36.5102 97.7631 36.4835 97.6146 36.4301C97.4726 36.3768 97.3451 36.2908 97.2322 36.1723L88.7846 27.351V36.3324H86.4725V24.5677C86.4725 24.3306 86.5377 24.1171 86.6682 23.9274C86.8045 23.7318 86.9765 23.5865 87.184 23.4916C87.4033 23.4028 87.6286 23.382 87.8598 23.4294C88.091 23.471 88.2896 23.5776 88.4556 23.7495L96.9035 32.562V23.5806H99.2155V35.3453ZM114.221 36.3324H111.909V33.2022H103.781V36.3324H101.469V29.9564C101.469 29.0257 101.629 28.1691 101.95 27.3866C102.27 26.604 102.714 25.9312 103.283 25.368C103.852 24.8048 104.525 24.3661 105.302 24.0519C106.079 23.7377 106.926 23.5806 107.845 23.5806H113.056C113.217 23.5806 113.368 23.6102 113.51 23.6696C113.652 23.7288 113.777 23.8118 113.883 23.9185C113.99 24.0252 114.073 24.1497 114.133 24.292C114.192 24.4343 114.221 24.5854 114.221 24.7455V36.3324ZM103.781 30.8901H111.909V25.8927H107.845C107.774 25.8927 107.623 25.9045 107.392 25.9282C107.167 25.946 106.903 25.9964 106.6 26.0793C106.304 26.1624 105.989 26.2899 105.658 26.4618C105.325 26.6337 105.02 26.8708 104.742 27.1731C104.463 27.4755 104.232 27.8549 104.048 28.3114C103.87 28.7619 103.781 29.3103 103.781 29.9564V30.8901ZM129.458 27.8667C129.458 28.3944 129.393 28.8656 129.262 29.2807C129.132 29.6956 128.954 30.0632 128.729 30.3833C128.51 30.6975 128.255 30.9673 127.964 31.1926C127.674 31.4178 127.368 31.6045 127.048 31.7527C126.734 31.8951 126.414 31.9988 126.088 32.064C125.768 32.1292 125.466 32.1618 125.181 32.1618L130.01 36.3324H126.435L121.615 32.1618H119.952V29.8498H125.181C125.471 29.826 125.735 29.7668 125.972 29.6719C126.215 29.5712 126.423 29.4378 126.595 29.2718C126.772 29.1058 126.909 28.9072 127.004 28.676C127.098 28.4389 127.146 28.1691 127.146 27.8667V26.4084C127.146 26.2779 127.129 26.1801 127.093 26.1149C127.063 26.0438 127.022 25.9934 126.968 25.9638C126.921 25.9282 126.867 25.9074 126.808 25.9015C126.755 25.8956 126.704 25.8927 126.657 25.8927H119.027V36.3324H116.715V24.7455C116.715 24.5854 116.745 24.4343 116.804 24.292C116.864 24.1497 116.944 24.0252 117.044 23.9185C117.151 23.8118 117.275 23.7288 117.418 23.6696C117.56 23.6102 117.714 23.5806 117.88 23.5806H126.657C127.173 23.5806 127.608 23.6755 127.964 23.8652C128.32 24.0489 128.607 24.2831 128.827 24.5677C129.052 24.8463 129.212 25.1486 129.307 25.4747C129.408 25.8007 129.458 26.106 129.458 26.3906V27.8667ZM133.909 36.3324H131.597V23.5806H133.909V36.3324ZM148.666 32.5797C148.666 33.0362 148.606 33.4483 148.487 33.8158C148.375 34.1775 148.223 34.4975 148.034 34.7762C147.844 35.0548 147.622 35.2919 147.367 35.4876C147.112 35.6832 146.848 35.8433 146.576 35.9677C146.303 36.0922 146.024 36.1841 145.74 36.2434C145.461 36.3027 145.197 36.3324 144.948 36.3324H136.03V34.0203H144.948C145.393 34.0203 145.736 33.8899 145.979 33.629C146.229 33.3682 146.353 33.0185 146.353 32.5797C146.353 32.3663 146.321 32.1707 146.255 31.9929C146.19 31.815 146.095 31.6609 145.971 31.5305C145.852 31.4 145.704 31.2993 145.526 31.2281C145.354 31.1569 145.162 31.1213 144.948 31.1213H139.631C139.257 31.1213 138.854 31.0561 138.422 30.9258C137.988 30.7894 137.586 30.573 137.211 30.2766C136.844 29.9802 136.536 29.5919 136.287 29.1117C136.044 28.6315 135.922 28.0446 135.922 27.351C135.922 26.6574 136.044 26.0734 136.287 25.5992C136.536 25.1189 136.844 24.7307 137.211 24.4343C137.586 24.132 137.988 23.9155 138.422 23.7851C138.854 23.6488 139.257 23.5806 139.631 23.5806H147.5V25.8927H139.631C139.192 25.8927 138.848 26.026 138.599 26.2928C138.356 26.5596 138.234 26.9123 138.234 27.351C138.234 27.7956 138.356 28.1484 138.599 28.4092C138.848 28.6641 139.192 28.7916 139.631 28.7916H144.966C145.215 28.7975 145.479 28.833 145.757 28.8982C146.036 28.9575 146.312 29.0524 146.584 29.1828C146.863 29.3133 147.127 29.4793 147.376 29.6808C147.625 29.8765 147.844 30.1136 148.034 30.3922C148.23 30.6709 148.383 30.9909 148.496 31.3525C148.609 31.7142 148.666 32.1233 148.666 32.5797ZM152.715 28.7916H160.834V23.5806H163.147V36.3324H160.834V31.1213H152.715V36.3324H150.403V23.5806H152.715V28.7916Z" fill="#1C6DBE"/>
<path d="M73.7966 57.8222H71.4846V45.0704H73.7966V57.8222ZM89.0425 56.8351C89.0425 57.0011 89.0099 57.1552 88.9447 57.2975C88.8854 57.4398 88.8024 57.5643 88.6956 57.671C88.5949 57.7718 88.4734 57.8518 88.331 57.9111C88.1888 57.9704 88.0377 58 87.8776 58C87.7353 58 87.59 57.9733 87.4419 57.92C87.2995 57.8666 87.1721 57.7806 87.0595 57.6621L78.6116 48.8408V57.8222H76.2997V46.0575C76.2997 45.8204 76.3649 45.6069 76.4953 45.4173C76.6316 45.2216 76.8035 45.0763 77.011 44.9815C77.2304 44.8926 77.4557 44.8718 77.6869 44.9193C77.9181 44.9608 78.1166 45.0674 78.2826 45.2393L86.7304 54.0518V45.0704H89.0425V56.8351ZM104.279 56.8351C104.279 57.0011 104.246 57.1552 104.182 57.2975C104.123 57.4398 104.04 57.5643 103.932 57.671C103.832 57.7718 103.71 57.8518 103.568 57.9111C103.426 57.9704 103.275 58 103.115 58C102.973 58 102.827 57.9733 102.678 57.92C102.536 57.8666 102.409 57.7806 102.296 57.6621L93.8485 48.8408V57.8222H91.5365V46.0575C91.5365 45.8204 91.602 45.6069 91.7323 45.4173C91.8689 45.2216 92.04 45.0763 92.2477 44.9815C92.4671 44.8926 92.6929 44.8718 92.9242 44.9193C93.1546 44.9608 93.354 45.0674 93.5197 45.2393L101.967 54.0518V45.0704H104.279V56.8351ZM120.156 52.6645C120.156 53.4412 120.023 54.1555 119.756 54.8077C119.49 55.4597 119.119 56.0229 118.645 56.4972C118.17 56.9715 117.607 57.342 116.955 57.6087C116.309 57.8696 115.603 58 114.839 58H111.709C110.944 58 110.235 57.8696 109.583 57.6087C108.931 57.342 108.369 56.9715 107.894 56.4972C107.42 56.0229 107.046 55.4597 106.773 54.8077C106.507 54.1555 106.374 53.4412 106.374 52.6645V50.2281C106.374 49.4573 106.507 48.746 106.773 48.0938C107.046 47.4358 107.42 46.8726 107.894 46.4042C108.369 45.93 108.931 45.5595 109.583 45.2927C110.235 45.026 110.944 44.8926 111.709 44.8926H114.839C115.603 44.8926 116.309 45.026 116.955 45.2927C117.607 45.5595 118.17 45.93 118.645 46.4042C119.119 46.8726 119.49 47.4358 119.756 48.0938C120.023 48.746 120.156 49.4573 120.156 50.2281V52.6645ZM117.844 50.2281C117.844 49.7716 117.77 49.3595 117.622 48.9919C117.48 48.6185 117.275 48.3014 117.008 48.0405C116.748 47.7737 116.431 47.5692 116.058 47.4269C115.69 47.2787 115.284 47.2046 114.839 47.2046H111.709C111.258 47.2046 110.846 47.2787 110.473 47.4269C110.105 47.5692 109.788 47.7737 109.521 48.0405C109.255 48.3014 109.047 48.6185 108.899 48.9919C108.757 49.3595 108.686 49.7716 108.686 50.2281V52.6645C108.686 53.121 108.757 53.536 108.899 53.9095C109.047 54.2771 109.255 54.5942 109.521 54.8609C109.788 55.1218 110.105 55.3263 110.473 55.4746C110.846 55.6168 111.258 55.6879 111.709 55.6879H114.821C115.272 55.6879 115.681 55.6168 116.049 55.4746C116.422 55.3263 116.741 55.1218 117.008 54.8609C117.275 54.5942 117.48 54.2771 117.622 53.9095C117.77 53.536 117.844 53.121 117.844 52.6645V50.2281ZM134.736 45.0704L128.697 57.3687C128.603 57.5584 128.461 57.7095 128.27 57.8222C128.087 57.9407 127.882 58 127.658 58C127.438 58 127.233 57.9407 127.044 57.8222C126.86 57.7095 126.718 57.5584 126.617 57.3687L120.588 45.0704H123.176L127.658 54.2563L132.157 45.0704H134.736ZM148.016 57.8222H145.704V54.692H137.577V57.8222H135.265V51.4462C135.265 50.5155 135.424 49.6589 135.744 48.8764C136.065 48.0938 136.509 47.421 137.079 46.8578C137.648 46.2946 138.321 45.8559 139.097 45.5417C139.874 45.2275 140.722 45.0704 141.641 45.0704H146.851C147.011 45.0704 147.162 45.1 147.304 45.1594C147.447 45.2187 147.571 45.3016 147.679 45.4083C147.785 45.5151 147.868 45.6395 147.927 45.7818C147.986 45.9241 148.016 46.0752 148.016 46.2353V57.8222ZM137.577 52.38H145.704V47.3825H141.641C141.57 47.3825 141.418 47.3943 141.187 47.418C140.961 47.4358 140.698 47.4862 140.395 47.5692C140.099 47.6522 139.785 47.7797 139.452 47.9516C139.121 48.1235 138.815 48.3606 138.536 48.6629C138.258 48.9653 138.027 49.3447 137.843 49.8012C137.665 50.2517 137.577 50.8001 137.577 51.4462V52.38ZM162.035 47.3825H156.939V57.8222H154.627V47.3825H149.523V45.0704H162.035V47.3825ZM165.871 57.8222H163.559V45.0704H165.871V57.8222ZM181.757 52.6645C181.757 53.4412 181.624 54.1555 181.358 54.8077C181.091 55.4597 180.72 56.0229 180.246 56.4972C179.771 56.9715 179.209 57.342 178.557 57.6087C177.91 57.8696 177.204 58 176.44 58H173.31C172.545 58 171.836 57.8696 171.184 57.6087C170.532 57.342 169.97 56.9715 169.495 56.4972C169.021 56.0229 168.648 55.4597 168.374 54.8077C168.108 54.1555 167.975 53.4412 167.975 52.6645V50.2281C167.975 49.4573 168.108 48.746 168.374 48.0938C168.648 47.4358 169.021 46.8726 169.495 46.4042C169.97 45.93 170.532 45.5595 171.184 45.2927C171.836 45.026 172.545 44.8926 173.31 44.8926H176.44C177.204 44.8926 177.91 45.026 178.557 45.2927C179.209 45.5595 179.771 45.93 180.246 46.4042C180.72 46.8726 181.091 47.4358 181.358 48.0938C181.624 48.746 181.757 49.4573 181.757 50.2281V52.6645ZM179.445 50.2281C179.445 49.7716 179.372 49.3595 179.223 48.9919C179.081 48.6185 178.876 48.3014 178.609 48.0405C178.349 47.7737 178.032 47.5692 177.659 47.4269C177.291 47.2787 176.885 47.2046 176.44 47.2046H173.31C172.859 47.2046 172.447 47.2787 172.074 47.4269C171.706 47.5692 171.389 47.7737 171.123 48.0405C170.856 48.3014 170.648 48.6185 170.5 48.9919C170.358 49.3595 170.287 49.7716 170.287 50.2281V52.6645C170.287 53.121 170.358 53.536 170.5 53.9095C170.648 54.2771 170.856 54.5942 171.123 54.8609C171.389 55.1218 171.706 55.3263 172.074 55.4746C172.447 55.6168 172.859 55.6879 173.31 55.6879H176.422C176.873 55.6879 177.282 55.6168 177.65 55.4746C178.023 55.3263 178.343 55.1218 178.609 54.8609C178.876 54.5942 179.081 54.2771 179.223 53.9095C179.372 53.536 179.445 53.121 179.445 52.6645V50.2281ZM196.585 56.8351C196.585 57.0011 196.553 57.1552 196.488 57.2975C196.429 57.4398 196.346 57.5643 196.239 57.671C196.138 57.7718 196.016 57.8518 195.874 57.9111C195.732 57.9704 195.581 58 195.421 58C195.279 58 195.133 57.9733 194.985 57.92C194.842 57.8666 194.715 57.7806 194.603 57.6621L186.154 48.8408V57.8222H183.842V46.0575C183.842 45.8204 183.908 45.6069 184.038 45.4173C184.175 45.2216 184.347 45.0763 184.554 44.9815C184.773 44.8926 184.999 44.8718 185.23 44.9193C185.462 44.9608 185.66 45.0674 185.826 45.2393L194.273 54.0518V45.0704H196.585V56.8351ZM211.333 54.0695C211.333 54.526 211.274 54.9381 211.156 55.3056C211.043 55.6673 210.891 55.9873 210.702 56.266C210.513 56.5446 210.29 56.7817 210.036 56.9774C209.781 57.173 209.516 57.3331 209.243 57.4576C208.971 57.582 208.692 57.6739 208.407 57.7332C208.13 57.7925 207.866 57.8222 207.616 57.8222H198.697V55.5101H207.616C208.061 55.5101 208.405 55.3797 208.648 55.1188C208.897 54.858 209.021 54.5083 209.021 54.0695C209.021 53.8561 208.989 53.6605 208.924 53.4827C208.858 53.3048 208.763 53.1507 208.639 53.0203C208.52 52.8898 208.372 52.7891 208.194 52.7179C208.022 52.6468 207.83 52.6112 207.616 52.6112H202.299C201.925 52.6112 201.522 52.546 201.089 52.4156C200.656 52.2792 200.253 52.0628 199.88 51.7664C199.513 51.47 199.204 51.0817 198.956 50.6015C198.712 50.1213 198.59 49.5344 198.59 48.8408C198.59 48.1472 198.712 47.5632 198.956 47.089C199.204 46.6088 199.513 46.2205 199.88 45.9241C200.253 45.6218 200.656 45.4053 201.089 45.2749C201.522 45.1386 201.925 45.0704 202.299 45.0704H210.168V47.3825H202.299C201.86 47.3825 201.516 47.5158 201.267 47.7826C201.024 48.0494 200.902 48.4021 200.902 48.8408C200.902 49.2854 201.024 49.6382 201.267 49.899C201.516 50.1539 201.86 50.2814 202.299 50.2814H207.634C207.883 50.2873 208.147 50.3229 208.426 50.3881C208.704 50.4473 208.98 50.5422 209.252 50.6726C209.531 50.8031 209.795 50.9691 210.044 51.1706C210.293 51.3663 210.513 51.6034 210.702 51.882C210.898 52.1607 211.052 52.4808 211.165 52.8424C211.278 53.204 211.333 53.6131 211.333 54.0695Z" fill="#1C6DBE"/>
</g>
</svg>
