<svg width="166" height="47" viewBox="0 0 166 47" fill="none" xmlns="http://www.w3.org/2000/svg">
<path d="M60.3141 25.293H58.5877V22.9556H52.5186V25.293H50.7921V20.532C50.7921 19.837 50.9117 19.1973 51.1507 18.613C51.3897 18.0286 51.7218 17.5262 52.1467 17.1057C52.5717 16.6851 53.0741 16.3575 53.654 16.1229C54.2339 15.8883 54.867 15.771 55.5531 15.771H59.4443C59.5638 15.771 59.6767 15.7931 59.7829 15.8374C59.8891 15.8817 59.9821 15.9436 60.0618 16.0233C60.1415 16.103 60.2034 16.196 60.2477 16.3022C60.292 16.4084 60.3141 16.5213 60.3141 16.6408V25.293ZM52.5186 21.2292H58.5877V17.4974H55.5531C55.5 17.4974 55.3871 17.5063 55.2145 17.524C55.0463 17.5373 54.8493 17.5749 54.6235 17.6369C54.4022 17.6988 54.1675 17.794 53.9196 17.9224C53.6717 18.0508 53.4438 18.2278 53.2357 18.4536C53.0276 18.6794 52.855 18.9627 52.7178 19.3035C52.585 19.64 52.5186 20.0495 52.5186 20.532V21.2292ZM71.6918 24.5559C71.6918 24.6799 71.6675 24.795 71.6188 24.9012C71.5745 25.0074 71.5125 25.1004 71.4329 25.1801C71.3576 25.2553 71.2669 25.3151 71.1606 25.3594C71.0544 25.4036 70.9415 25.4258 70.822 25.4258C70.7157 25.4258 70.6073 25.4059 70.4966 25.366C70.3904 25.3262 70.2952 25.262 70.2111 25.1734L63.9029 18.5864V25.293H62.1765V16.508C62.1765 16.331 62.2252 16.1716 62.3226 16.03C62.4244 15.8839 62.5528 15.7754 62.7077 15.7046C62.8715 15.6382 63.0397 15.6227 63.2124 15.6581C63.385 15.6891 63.5333 15.7688 63.6572 15.8971L69.9654 22.4775V15.771H71.6918V24.5559ZM82.8969 25.293H81.1705V22.9556H75.1014V25.293H73.3749V20.532C73.3749 19.837 73.4944 19.1973 73.7335 18.613C73.9725 18.0286 74.3045 17.5262 74.7295 17.1057C75.1545 16.6851 75.6569 16.3575 76.2368 16.1229C76.8167 15.8883 77.4498 15.771 78.1359 15.771H82.027C82.1466 15.771 82.2595 15.7931 82.3657 15.8374C82.4719 15.8817 82.5649 15.9436 82.6446 16.0233C82.7243 16.103 82.7862 16.196 82.8305 16.3022C82.8748 16.4084 82.8969 16.5213 82.8969 16.6408V25.293ZM75.1014 21.2292H81.1705V17.4974H78.1359C78.0828 17.4974 77.9699 17.5063 77.7973 17.524C77.6291 17.5373 77.4321 17.5749 77.2063 17.6369C76.985 17.6988 76.7503 17.794 76.5024 17.9224C76.2545 18.0508 76.0266 18.2278 75.8185 18.4536C75.6104 18.6794 75.4378 18.9627 75.3006 19.3035C75.1678 19.64 75.1014 20.0495 75.1014 20.532V21.2292ZM94.2746 18.9715C94.2746 19.3655 94.2259 19.7175 94.1285 20.0273C94.0312 20.3372 93.8984 20.6117 93.7301 20.8507C93.5663 21.0853 93.376 21.2867 93.1591 21.455C92.9422 21.6232 92.7142 21.7626 92.4751 21.8733C92.2405 21.9795 92.0015 22.057 91.758 22.1057C91.519 22.1544 91.2932 22.1787 91.0807 22.1787L94.6863 25.293H92.017L88.418 22.1787H87.1763V20.4523H91.0807C91.2976 20.4346 91.4946 20.3903 91.6717 20.3195C91.8532 20.2442 92.0081 20.1446 92.1365 20.0207C92.2693 19.8967 92.3711 19.7484 92.4419 19.5758C92.5128 19.3987 92.5482 19.1973 92.5482 18.9715V17.8826C92.5482 17.7852 92.5349 17.7121 92.5083 17.6634C92.4862 17.6103 92.4552 17.5727 92.4154 17.5505C92.38 17.524 92.3401 17.5085 92.2959 17.5041C92.256 17.4996 92.2184 17.4974 92.183 17.4974H86.4857V25.293H84.7593V16.6408C84.7593 16.5213 84.7814 16.4084 84.8257 16.3022C84.87 16.196 84.9297 16.103 85.005 16.0233C85.0847 15.9436 85.1776 15.8817 85.2839 15.8374C85.3901 15.7931 85.5052 15.771 85.6291 15.771H92.183C92.5681 15.771 92.8935 15.8418 93.1591 15.9835C93.4247 16.1207 93.6394 16.2956 93.8032 16.508C93.9714 16.7161 94.0909 16.9419 94.1617 17.1853C94.237 17.4288 94.2746 17.6568 94.2746 17.8693V18.9715ZM97.5978 25.293H95.8714V15.771H97.5978V25.293ZM108.617 22.4908C108.617 22.8317 108.573 23.1393 108.484 23.4138C108.4 23.6838 108.287 23.9229 108.146 24.1309C108.004 24.339 107.838 24.5161 107.648 24.6622C107.457 24.8082 107.26 24.9278 107.057 25.0207C106.853 25.1137 106.645 25.1823 106.432 25.2266C106.224 25.2708 106.027 25.293 105.841 25.293H99.1813V23.5665H105.841C106.173 23.5665 106.43 23.4691 106.612 23.2744C106.798 23.0796 106.891 22.8184 106.891 22.4908C106.891 22.3315 106.866 22.1854 106.818 22.0526C106.769 21.9198 106.698 21.8047 106.605 21.7073C106.516 21.6099 106.406 21.5346 106.273 21.4815C106.145 21.4284 106.001 21.4018 105.841 21.4018H101.871C101.592 21.4018 101.291 21.3531 100.968 21.2558C100.644 21.1539 100.343 20.9924 100.064 20.771C99.79 20.5497 99.5598 20.2597 99.3739 19.9012C99.1924 19.5426 99.1017 19.1043 99.1017 18.5864C99.1017 18.0685 99.1924 17.6324 99.3739 17.2783C99.5598 16.9197 99.79 16.6298 100.064 16.4084C100.343 16.1827 100.644 16.0211 100.968 15.9237C101.291 15.8219 101.592 15.771 101.871 15.771H107.747V17.4974H101.871C101.543 17.4974 101.286 17.597 101.1 17.7962C100.919 17.9954 100.828 18.2588 100.828 18.5864C100.828 18.9184 100.919 19.1818 101.1 19.3766C101.286 19.5669 101.543 19.6621 101.871 19.6621H105.841H105.855C106.041 19.6665 106.238 19.6931 106.446 19.7418C106.654 19.7861 106.86 19.8569 107.063 19.9543C107.271 20.0517 107.468 20.1756 107.654 20.3261C107.84 20.4722 108.004 20.6493 108.146 20.8573C108.292 21.0654 108.407 21.3044 108.491 21.5745C108.575 21.8445 108.617 22.15 108.617 22.4908ZM111.641 19.6621H117.704V15.771H119.43V25.293H117.704V21.4018H111.641V25.293H109.915V15.771H111.641V19.6621Z" fill="#1C6DBE"/>
<path d="M52.818 41.541H51.0243V31.648H52.818V41.541ZM64.6459 40.7752C64.6459 40.904 64.6206 41.0236 64.57 41.134C64.524 41.2444 64.4596 41.3409 64.3768 41.4237C64.2986 41.5019 64.2044 41.564 64.094 41.61C63.9836 41.656 63.8663 41.679 63.7421 41.679C63.6318 41.679 63.5191 41.6583 63.4041 41.6169C63.2937 41.5755 63.1948 41.5088 63.1074 41.4168L56.5535 34.5732V41.541H54.7598V32.4138C54.7598 32.2299 54.8104 32.0643 54.9116 31.9171C55.0174 31.7653 55.1508 31.6526 55.3117 31.5791C55.4819 31.5101 55.6567 31.494 55.836 31.5308C56.0154 31.563 56.1695 31.6457 56.2983 31.7791L62.8522 38.6159V31.648H64.6459V40.7752ZM76.4669 40.7752C76.4669 40.904 76.4416 41.0236 76.391 41.134C76.345 41.2444 76.2806 41.3409 76.1978 41.4237C76.1197 41.5019 76.0254 41.564 75.915 41.61C75.8046 41.656 75.6873 41.679 75.5631 41.679C75.4528 41.679 75.3401 41.6583 75.2251 41.6169C75.1147 41.5755 75.0158 41.5088 74.9284 41.4168L68.3745 34.5732V41.541H66.5808V32.4138C66.5808 32.2299 66.6314 32.0643 66.7326 31.9171C66.8384 31.7653 66.9718 31.6526 67.1327 31.5791C67.3029 31.5101 67.4777 31.494 67.657 31.5308C67.8364 31.563 67.9905 31.6457 68.1193 31.7791L74.6732 38.6159V31.648H76.4669V40.7752ZM88.7846 37.5397C88.7846 38.1422 88.6811 38.6964 88.4742 39.2023C88.2672 39.7082 87.9798 40.1451 87.6118 40.5131C87.2439 40.881 86.8069 41.1685 86.301 41.3754C85.7997 41.5778 85.2524 41.679 84.6591 41.679H82.2307C81.6374 41.679 81.0878 41.5778 80.5819 41.3754C80.076 41.1685 79.639 40.881 79.2711 40.5131C78.9031 40.1451 78.6134 39.7082 78.4018 39.2023C78.1949 38.6964 78.0914 38.1422 78.0914 37.5397V35.6494C78.0914 35.0515 78.1949 34.4996 78.4018 33.9937C78.6134 33.4831 78.9031 33.0462 79.2711 32.6829C79.639 32.3149 80.076 32.0275 80.5819 31.8205C81.0878 31.6136 81.6374 31.5101 82.2307 31.5101H84.6591C85.2524 31.5101 85.7997 31.6136 86.301 31.8205C86.8069 32.0275 87.2439 32.3149 87.6118 32.6829C87.9798 33.0462 88.2672 33.4831 88.4742 33.9937C88.6811 34.4996 88.7846 35.0515 88.7846 35.6494V37.5397ZM86.9909 35.6494C86.9909 35.2952 86.9334 34.9756 86.8184 34.6904C86.7081 34.4007 86.5494 34.1546 86.3424 33.9523C86.1401 33.7453 85.894 33.5866 85.6042 33.4762C85.3191 33.3613 85.004 33.3038 84.6591 33.3038H82.2307C81.8812 33.3038 81.5615 33.3613 81.2718 33.4762C80.9866 33.5866 80.7405 33.7453 80.5336 33.9523C80.3266 34.1546 80.1656 34.4007 80.0507 34.6904C79.9403 34.9756 79.8851 35.2952 79.8851 35.6494V37.5397C79.8851 37.8938 79.9403 38.2158 80.0507 38.5055C80.1656 38.7907 80.3266 39.0367 80.5336 39.2437C80.7405 39.4461 80.9866 39.6047 81.2718 39.7197C81.5615 39.8301 81.8812 39.8853 82.2307 39.8853H84.6453C84.9948 39.8853 85.3122 39.8301 85.5973 39.7197C85.8871 39.6047 86.1355 39.4461 86.3424 39.2437C86.5494 39.0367 86.7081 38.7907 86.8184 38.5055C86.9334 38.2158 86.9909 37.8938 86.9909 37.5397V35.6494ZM100.095 31.648L95.4108 41.1892C95.3372 41.3363 95.2268 41.4536 95.0796 41.541C94.9371 41.633 94.7784 41.679 94.6036 41.679C94.4334 41.679 94.2748 41.633 94.1276 41.541C93.985 41.4536 93.8746 41.3363 93.7964 41.1892L89.119 31.648H91.1266L94.6036 38.7746L98.0944 31.648H100.095ZM110.398 41.541H108.605V39.1126H102.299V41.541H100.505V36.5945C100.505 35.8725 100.63 35.2079 100.878 34.6008C101.126 33.9937 101.471 33.4716 101.913 33.0347C102.354 32.5978 102.876 32.2574 103.479 32.0137C104.081 31.7699 104.739 31.648 105.452 31.648H109.495C109.619 31.648 109.736 31.671 109.846 31.717C109.957 31.763 110.053 31.8274 110.136 31.9102C110.219 31.993 110.283 32.0896 110.329 32.2C110.375 32.3103 110.398 32.4276 110.398 32.5518V41.541ZM102.299 37.3189H108.605V33.4418H105.452C105.397 33.4418 105.279 33.4509 105.1 33.4693C104.925 33.4831 104.721 33.5222 104.486 33.5866C104.256 33.651 104.012 33.7499 103.755 33.8833C103.497 34.0167 103.26 34.2006 103.044 34.4352C102.828 34.6697 102.649 34.9641 102.506 35.3182C102.368 35.6678 102.299 36.0932 102.299 36.5945V37.3189ZM121.274 33.4418H117.321V41.541H115.527V33.4418H111.568V31.648H121.274V33.4418ZM124.251 41.541H122.457V31.648H124.251V41.541ZM136.576 37.5397C136.576 38.1422 136.472 38.6964 136.265 39.2023C136.058 39.7082 135.771 40.1451 135.403 40.5131C135.035 40.881 134.598 41.1685 134.092 41.3754C133.591 41.5778 133.043 41.679 132.45 41.679H130.022C129.428 41.679 128.879 41.5778 128.373 41.3754C127.867 41.1685 127.43 40.881 127.062 40.5131C126.694 40.1451 126.404 39.7082 126.193 39.2023C125.986 38.6964 125.882 38.1422 125.882 37.5397V35.6494C125.882 35.0515 125.986 34.4996 126.193 33.9937C126.404 33.4831 126.694 33.0462 127.062 32.6829C127.43 32.3149 127.867 32.0275 128.373 31.8205C128.879 31.6136 129.428 31.5101 130.022 31.5101H132.45C133.043 31.5101 133.591 31.6136 134.092 31.8205C134.598 32.0275 135.035 32.3149 135.403 32.6829C135.771 33.0462 136.058 33.4831 136.265 33.9937C136.472 34.4996 136.576 35.0515 136.576 35.6494V37.5397ZM134.782 35.6494C134.782 35.2952 134.724 34.9756 134.609 34.6904C134.499 34.4007 134.34 34.1546 134.133 33.9523C133.931 33.7453 133.685 33.5866 133.395 33.4762C133.11 33.3613 132.795 33.3038 132.45 33.3038H130.022C129.672 33.3038 129.352 33.3613 129.063 33.4762C128.778 33.5866 128.531 33.7453 128.324 33.9523C128.118 34.1546 127.957 34.4007 127.842 34.6904C127.731 34.9756 127.676 35.2952 127.676 35.6494V37.5397C127.676 37.8938 127.731 38.2158 127.842 38.5055C127.957 38.7907 128.118 39.0367 128.324 39.2437C128.531 39.4461 128.778 39.6047 129.063 39.7197C129.352 39.8301 129.672 39.8853 130.022 39.8853H132.436C132.786 39.8853 133.103 39.8301 133.388 39.7197C133.678 39.6047 133.926 39.4461 134.133 39.2437C134.34 39.0367 134.499 38.7907 134.609 38.5055C134.724 38.2158 134.782 37.8938 134.782 37.5397V35.6494ZM148.079 40.7752C148.079 40.904 148.054 41.0236 148.003 41.134C147.957 41.2444 147.893 41.3409 147.81 41.4237C147.732 41.5019 147.638 41.564 147.527 41.61C147.417 41.656 147.3 41.679 147.175 41.679C147.065 41.679 146.952 41.6583 146.837 41.6169C146.727 41.5755 146.628 41.5088 146.541 41.4168L139.987 34.5732V41.541H138.193V32.4138C138.193 32.2299 138.244 32.0643 138.345 31.9171C138.451 31.7653 138.584 31.6526 138.745 31.5791C138.915 31.5101 139.09 31.494 139.269 31.5308C139.449 31.563 139.603 31.6457 139.732 31.7791L146.285 38.6159V31.648H148.079V40.7752ZM159.521 38.6297C159.521 38.9838 159.475 39.3035 159.383 39.5886C159.295 39.8692 159.178 40.1176 159.031 40.3337C158.884 40.5499 158.711 40.7338 158.514 40.8856C158.316 41.0374 158.111 41.1616 157.9 41.2582C157.688 41.3547 157.472 41.426 157.251 41.472C157.035 41.518 156.83 41.541 156.637 41.541H149.717V39.7473H156.637C156.982 39.7473 157.249 39.6461 157.437 39.4438C157.63 39.2414 157.727 38.97 157.727 38.6297C157.727 38.4641 157.702 38.3123 157.651 38.1744C157.601 38.0364 157.527 37.9168 157.43 37.8156C157.338 37.7144 157.223 37.6363 157.085 37.5811C156.952 37.5259 156.803 37.4983 156.637 37.4983H152.512C152.222 37.4983 151.909 37.4477 151.573 37.3465C151.238 37.2407 150.925 37.0729 150.635 36.8429C150.35 36.6129 150.111 36.3117 149.918 35.9391C149.729 35.5666 149.635 35.1113 149.635 34.5732C149.635 34.0351 149.729 33.582 149.918 33.2141C150.111 32.8416 150.35 32.5403 150.635 32.3103C150.925 32.0758 151.238 31.9079 151.573 31.8067C151.909 31.7009 152.222 31.648 152.512 31.648H158.617V33.4418H152.512C152.171 33.4418 151.904 33.5452 151.711 33.7522C151.523 33.9592 151.428 34.2328 151.428 34.5732C151.428 34.9181 151.523 35.1918 151.711 35.3941C151.904 35.5919 152.171 35.6908 152.512 35.6908H156.637H156.651C156.844 35.6954 157.049 35.723 157.265 35.7736C157.481 35.8196 157.695 35.8931 157.906 35.9943C158.123 36.0955 158.327 36.2243 158.52 36.3807C158.714 36.5324 158.884 36.7164 159.031 36.9326C159.183 37.1487 159.302 37.3971 159.39 37.6777C159.477 37.9582 159.521 38.2756 159.521 38.6297Z" fill="#1C6DBE"/>
<path fill-rule="evenodd" clip-rule="evenodd" d="M6.88431 42.4369C6.21261 42.4369 5.78684 41.7167 6.11062 41.1282L20.7885 14.4494C22.7254 11.0277 27.7999 6.2372 32.6033 14.4494C37.0873 22.1156 43.6642 34.7103 46.9612 41.1569C47.2613 41.7436 46.8336 42.4369 46.1746 42.4369H38.6075H38.4414C38.1201 42.4369 37.8242 42.2624 37.6687 41.9812L26.6481 22.0561C26.3019 21.4301 25.3941 21.454 25.0813 22.0973L19.5665 33.4376C19.2812 34.0241 19.7084 34.7069 20.3606 34.7069H29.4728C29.7918 34.7069 30.086 34.8789 30.2424 35.157L33.5972 41.1209C33.9283 41.7096 33.5029 42.4369 32.8275 42.4369H6.88431Z" fill="#FFC800"/>
<path d="M40.8197 24.1335L46.9087 34.5201C47.364 35.2969 48.5535 34.9739 48.5535 34.0736V11.9529C48.5535 11.4652 48.1582 11.0698 47.6705 11.0698H41.3713C40.8836 11.0698 40.4883 11.4652 40.4883 11.9529V22.9128C40.4883 23.3419 40.6027 23.7633 40.8197 24.1335Z" fill="#1C6DBE"/>
<path d="M40.4805 4.88305C40.4805 4.39536 40.8758 4 41.3635 4H47.6626C48.1503 4 48.5457 4.39536 48.5457 4.88305V7.94431C48.5457 8.43201 48.1503 8.82736 47.6626 8.82736H41.3635C40.8758 8.82736 40.4805 8.43201 40.4805 7.94431V4.88305Z" fill="#FFC800"/>
</svg>
