<svg width="24" height="25" viewBox="0 0 24 25" fill="none" xmlns="http://www.w3.org/2000/svg">
<g id="mingcute:facebook-line" clip-path="url(#clip0_2622_3698)">
<g id="Group">
<path id="Vector" fill-rule="evenodd" clip-rule="evenodd" d="M4 12.4346C4.00014 10.895 4.44451 9.38822 5.27979 8.09495C6.11506 6.80169 7.30576 5.77691 8.70901 5.14358C10.1123 4.51025 11.6684 4.29527 13.1908 4.52444C14.7132 4.75361 16.1372 5.41719 17.2918 6.43556C18.4464 7.45393 19.2826 8.78383 19.7002 10.2657C20.1177 11.7475 20.0988 13.3184 19.6457 14.7897C19.1926 16.2611 18.3246 17.5705 17.1458 18.5608C15.967 19.551 14.5275 20.1801 13 20.3726V14.4346H15C15.2652 14.4346 15.5196 14.3292 15.7071 14.1417C15.8946 13.9541 16 13.6998 16 13.4346C16 13.1694 15.8946 12.915 15.7071 12.7275C15.5196 12.5399 15.2652 12.4346 15 12.4346H13V10.4346C13 10.1694 13.1054 9.915 13.2929 9.72746C13.4804 9.53993 13.7348 9.43457 14 9.43457H14.5C14.7652 9.43457 15.0196 9.32921 15.2071 9.14168C15.3946 8.95414 15.5 8.69979 15.5 8.43457C15.5 8.16935 15.3946 7.915 15.2071 7.72746C15.0196 7.53993 14.7652 7.43457 14.5 7.43457H14C13.2044 7.43457 12.4413 7.75064 11.8787 8.31325C11.3161 8.87586 11 9.63892 11 10.4346V12.4346H9C8.73478 12.4346 8.48043 12.5399 8.29289 12.7275C8.10536 12.915 8 13.1694 8 13.4346C8 13.6998 8.10536 13.9541 8.29289 14.1417C8.48043 14.3292 8.73478 14.4346 9 14.4346H11V20.3726C9.06661 20.129 7.28861 19.1881 5.99975 17.7265C4.7109 16.265 3.99982 14.3832 4 12.4346ZM12 22.4346C17.523 22.4346 22 17.9576 22 12.4346C22 6.91157 17.523 2.43457 12 2.43457C6.477 2.43457 2 6.91157 2 12.4346C2 17.9576 6.477 22.4346 12 22.4346Z" fill="white"/>
</g>
</g>
<defs>
<clipPath id="clip0_2622_3698">
<rect width="24" height="24" fill="white" transform="translate(0 0.43457)"/>
</clipPath>
</defs>
</svg>
