<svg width="24" height="25" viewBox="0 0 24 25" fill="none" xmlns="http://www.w3.org/2000/svg">
<g id="mdi:instagram">
<path id="Vector" d="M7.8 2.67969H16.2C19.4 2.67969 22 5.27969 22 8.47969V16.8797C22 18.4179 21.3889 19.8932 20.3012 20.9809C19.2135 22.0686 17.7383 22.6797 16.2 22.6797H7.8C4.6 22.6797 2 20.0797 2 16.8797V8.47969C2 6.94143 2.61107 5.46618 3.69878 4.37847C4.78649 3.29076 6.26174 2.67969 7.8 2.67969ZM7.6 4.67969C6.64522 4.67969 5.72955 5.05897 5.05442 5.7341C4.37928 6.40923 4 7.32491 4 8.27969V17.0797C4 19.0697 5.61 20.6797 7.6 20.6797H16.4C17.3548 20.6797 18.2705 20.3004 18.9456 19.6253C19.6207 18.9501 20 18.0345 20 17.0797V8.27969C20 6.28969 18.39 4.67969 16.4 4.67969H7.6ZM17.25 6.17969C17.5815 6.17969 17.8995 6.31138 18.1339 6.5458C18.3683 6.78022 18.5 7.09817 18.5 7.42969C18.5 7.76121 18.3683 8.07915 18.1339 8.31357C17.8995 8.54799 17.5815 8.67969 17.25 8.67969C16.9185 8.67969 16.6005 8.54799 16.3661 8.31357C16.1317 8.07915 16 7.76121 16 7.42969C16 7.09817 16.1317 6.78022 16.3661 6.5458C16.6005 6.31138 16.9185 6.17969 17.25 6.17969ZM12 7.67969C13.3261 7.67969 14.5979 8.20647 15.5355 9.14415C16.4732 10.0818 17 11.3536 17 12.6797C17 14.0058 16.4732 15.2775 15.5355 16.2152C14.5979 17.1529 13.3261 17.6797 12 17.6797C10.6739 17.6797 9.40215 17.1529 8.46447 16.2152C7.52678 15.2775 7 14.0058 7 12.6797C7 11.3536 7.52678 10.0818 8.46447 9.14415C9.40215 8.20647 10.6739 7.67969 12 7.67969ZM12 9.67969C11.2044 9.67969 10.4413 9.99576 9.87868 10.5584C9.31607 11.121 9 11.884 9 12.6797C9 13.4753 9.31607 14.2384 9.87868 14.801C10.4413 15.3636 11.2044 15.6797 12 15.6797C12.7956 15.6797 13.5587 15.3636 14.1213 14.801C14.6839 14.2384 15 13.4753 15 12.6797C15 11.884 14.6839 11.121 14.1213 10.5584C13.5587 9.99576 12.7956 9.67969 12 9.67969Z" fill="#222222"/>
</g>
</svg>
