<svg width="24" height="25" viewBox="0 0 24 25" fill="none" xmlns="http://www.w3.org/2000/svg">
<g id="mdi:instagram">
<path id="Vector" d="M7.8 2.43457H16.2C19.4 2.43457 22 5.03457 22 8.23457V16.6346C22 18.1728 21.3889 19.6481 20.3012 20.7358C19.2135 21.8235 17.7383 22.4346 16.2 22.4346H7.8C4.6 22.4346 2 19.8346 2 16.6346V8.23457C2 6.69631 2.61107 5.22106 3.69878 4.13335C4.78649 3.04564 6.26174 2.43457 7.8 2.43457ZM7.6 4.43457C6.64522 4.43457 5.72955 4.81386 5.05442 5.48899C4.37928 6.16412 4 7.07979 4 8.03457V16.8346C4 18.8246 5.61 20.4346 7.6 20.4346H16.4C17.3548 20.4346 18.2705 20.0553 18.9456 19.3802C19.6207 18.705 20 17.7893 20 16.8346V8.03457C20 6.04457 18.39 4.43457 16.4 4.43457H7.6ZM17.25 5.93457C17.5815 5.93457 17.8995 6.06627 18.1339 6.30069C18.3683 6.53511 18.5 6.85305 18.5 7.18457C18.5 7.51609 18.3683 7.83403 18.1339 8.06845C17.8995 8.30287 17.5815 8.43457 17.25 8.43457C16.9185 8.43457 16.6005 8.30287 16.3661 8.06845C16.1317 7.83403 16 7.51609 16 7.18457C16 6.85305 16.1317 6.53511 16.3661 6.30069C16.6005 6.06627 16.9185 5.93457 17.25 5.93457ZM12 7.43457C13.3261 7.43457 14.5979 7.96135 15.5355 8.89904C16.4732 9.83672 17 11.1085 17 12.4346C17 13.7607 16.4732 15.0324 15.5355 15.9701C14.5979 16.9078 13.3261 17.4346 12 17.4346C10.6739 17.4346 9.40215 16.9078 8.46447 15.9701C7.52678 15.0324 7 13.7607 7 12.4346C7 11.1085 7.52678 9.83672 8.46447 8.89904C9.40215 7.96135 10.6739 7.43457 12 7.43457ZM12 9.43457C11.2044 9.43457 10.4413 9.75064 9.87868 10.3132C9.31607 10.8759 9 11.6389 9 12.4346C9 13.2302 9.31607 13.9933 9.87868 14.5559C10.4413 15.1185 11.2044 15.4346 12 15.4346C12.7956 15.4346 13.5587 15.1185 14.1213 14.5559C14.6839 13.9933 15 13.2302 15 12.4346C15 11.6389 14.6839 10.8759 14.1213 10.3132C13.5587 9.75064 12.7956 9.43457 12 9.43457Z" fill="white"/>
</g>
</svg>
