<svg width="24" height="25" viewBox="0 0 24 25" fill="none" xmlns="http://www.w3.org/2000/svg">
<g id="ant-design:linkedin-outlined">
<path id="Vector" d="M19.868 3.05957H4.13203C3.3 3.05957 2.625 3.73457 2.625 4.5666V20.3025C2.625 21.1346 3.3 21.8096 4.13203 21.8096H19.868C20.7 21.8096 21.375 21.1346 21.375 20.3025V4.5666C21.375 3.73457 20.7 3.05957 19.868 3.05957ZM19.868 20.3096C9.37266 20.3072 4.125 20.3049 4.125 20.3025C4.12734 9.80723 4.12969 4.55957 4.13203 4.55957C14.6273 4.56191 19.875 4.56426 19.875 4.5666C19.8727 15.0619 19.8703 20.3096 19.868 20.3096ZM5.40469 10.0885H8.18672V19.0369H5.40469V10.0885ZM6.79688 8.86504C7.68516 8.86504 8.40937 8.14316 8.40937 7.25254C8.40937 7.04078 8.36767 6.8311 8.28663 6.63546C8.2056 6.43982 8.08682 6.26206 7.93709 6.11233C7.78735 5.96259 7.60959 5.84382 7.41395 5.76278C7.21831 5.68175 7.00863 5.64004 6.79688 5.64004C6.58512 5.64004 6.37544 5.68175 6.1798 5.76278C5.98416 5.84382 5.8064 5.96259 5.65667 6.11233C5.50693 6.26206 5.38815 6.43982 5.30712 6.63546C5.22608 6.8311 5.18437 7.04078 5.18437 7.25254C5.18203 8.14316 5.90391 8.86504 6.79688 8.86504ZM12.7102 14.6096C12.7102 13.4424 12.9328 12.3127 14.3789 12.3127C15.8039 12.3127 15.825 13.6463 15.825 14.6846V19.0369H18.6047V14.1291C18.6047 11.7197 18.0844 9.86582 15.2695 9.86582C13.9172 9.86582 13.0102 10.6088 12.6375 11.3119H12.6V10.0885H9.93047V19.0369H12.7102V14.6096Z" fill="white"/>
</g>
</svg>
