<svg width="24" height="25" viewBox="0 0 24 25" fill="none" xmlns="http://www.w3.org/2000/svg">
<g id="ant-design:linkedin-outlined">
<path id="Vector" d="M19.868 3.30469H4.13203C3.3 3.30469 2.625 3.97969 2.625 4.81172V20.5477C2.625 21.3797 3.3 22.0547 4.13203 22.0547H19.868C20.7 22.0547 21.375 21.3797 21.375 20.5477V4.81172C21.375 3.97969 20.7 3.30469 19.868 3.30469ZM19.868 20.5547C9.37266 20.5523 4.125 20.55 4.125 20.5477C4.12734 10.0523 4.12969 4.80469 4.13203 4.80469C14.6273 4.80703 19.875 4.80938 19.875 4.81172C19.8727 15.307 19.8703 20.5547 19.868 20.5547ZM5.40469 10.3336H8.18672V19.282H5.40469V10.3336ZM6.79688 9.11016C7.68516 9.11016 8.40937 8.38828 8.40937 7.49766C8.40937 7.2859 8.36767 7.07622 8.28663 6.88058C8.2056 6.68494 8.08682 6.50718 7.93708 6.35745C7.78735 6.20771 7.60959 6.08894 7.41395 6.0079C7.21831 5.92686 7.00863 5.88516 6.79688 5.88516C6.58512 5.88516 6.37544 5.92686 6.1798 6.0079C5.98416 6.08894 5.8064 6.20771 5.65667 6.35745C5.50693 6.50718 5.38815 6.68494 5.30712 6.88058C5.22608 7.07622 5.18437 7.2859 5.18437 7.49766C5.18203 8.38828 5.90391 9.11016 6.79688 9.11016ZM12.7102 14.8547C12.7102 13.6875 12.9328 12.5578 14.3789 12.5578C15.8039 12.5578 15.825 13.8914 15.825 14.9297V19.282H18.6047V14.3742C18.6047 11.9648 18.0844 10.1109 15.2695 10.1109C13.9172 10.1109 13.0102 10.8539 12.6375 11.557H12.6V10.3336H9.93047V19.282H12.7102V14.8547Z" fill="#222222"/>
</g>
</svg>
