<svg width="48" height="48" viewBox="0 0 48 48" fill="none" xmlns="http://www.w3.org/2000/svg">
<path fill-rule="evenodd" clip-rule="evenodd" d="M7.07982 30.1812C7.07182 30.1552 7.06382 30.1312 7.05582 30.1052C6.99782 29.9032 6.96582 29.6952 6.96582 29.4852L6.96382 11.4819C6.96382 10.798 7.24181 10.178 7.69181 9.72798C8.14179 9.278 8.76174 9 9.44575 9H37.7224C38.4064 9 39.0264 9.27799 39.4764 9.72798C39.9264 10.178 40.2044 10.7979 40.2044 11.4819V14.7778C40.5063 14.5478 40.7943 14.2978 41.0663 14.0238C41.2623 13.8278 41.4963 13.7658 41.7363 13.7898C41.9403 13.8078 42.1363 13.8938 42.2863 13.9938C42.4423 14.0978 42.5643 14.2318 42.6483 14.3898C42.7343 14.5498 42.7783 14.7258 42.7783 14.9118V23.8033C42.7783 23.9893 42.7343 24.1653 42.6483 24.3253C42.5643 24.4833 42.4423 24.6173 42.2863 24.7213C42.1363 24.8213 41.9383 24.9073 41.7363 24.9253C41.4963 24.9473 41.2603 24.8873 41.0663 24.6913C40.7943 24.4173 40.5063 24.1673 40.2044 23.9373V29.4912C40.2044 29.7192 40.1684 29.9432 40.1024 30.1532C40.0924 30.1852 40.0804 30.2172 40.0684 30.2492L46.914 35.3571C47.068 35.4631 47.168 35.639 47.168 35.839C47.168 36.597 47.044 37.627 46.5301 38.385C46.1221 38.987 45.4981 39.4089 44.5601 39.4089L2.60793 39.4029C1.66998 39.4029 1.04598 38.9829 0.637979 38.379C0.124002 37.621 0 36.593 0 35.835C0 35.633 0.101997 35.4531 0.259989 35.3491L7.07982 30.1812ZM43.9322 21.8113L45.5241 23.4033C45.7521 23.6312 46.1221 23.6312 46.3521 23.4033C46.5801 23.1753 46.5801 22.8053 46.3521 22.5753L44.7601 20.9833C44.5322 20.7553 44.1602 20.7553 43.9322 20.9833C43.7042 21.2113 43.7042 21.5813 43.9322 21.8113ZM44.6542 17.6175L46.2461 16.0255C46.4741 15.7975 46.4741 15.4275 46.2461 15.1975C46.0181 14.9696 45.6461 14.9696 45.4181 15.1975L43.8262 16.7895C43.5982 17.0175 43.5982 17.3895 43.8262 17.6175C44.0542 17.8475 44.4242 17.8475 44.6542 17.6175ZM45.1621 19.8634H47.414C47.738 19.8634 48 19.6014 48 19.2774C48 18.9534 47.738 18.6915 47.414 18.6915H45.1621C44.8382 18.6915 44.5762 18.9534 44.5762 19.2774C44.5762 19.6014 44.8382 19.8634 45.1621 19.8634ZM39.9604 16.3435C39.9304 16.3655 39.8984 16.3835 39.8644 16.3995C39.6704 16.5115 39.4724 16.6155 39.2684 16.7155C38.9484 16.8715 38.6185 17.0135 38.2805 17.1415C38.2485 17.1575 38.2145 17.1695 38.1805 17.1795C37.6745 17.3635 37.1485 17.5155 36.6045 17.6375V21.0753C37.1485 21.1973 37.6745 21.3493 38.1805 21.5333C38.2145 21.5433 38.2485 21.5553 38.2805 21.5693C38.6185 21.6953 38.9484 21.8373 39.2684 21.9953C39.4704 22.0953 39.6704 22.1993 39.8644 22.3113C39.8984 22.3273 39.9304 22.3453 39.9604 22.3673C40.5504 22.7153 41.1024 23.1213 41.6124 23.5912V15.1174C41.1024 15.5894 40.5504 15.9955 39.9604 16.3435ZM39.0345 15.5255V11.4817C39.0345 11.1217 38.8865 10.7937 38.6485 10.5557C38.4105 10.3177 38.0825 10.1697 37.7225 10.1697H9.44736C9.08737 10.1697 8.75936 10.3177 8.52139 10.5557C8.2834 10.7937 8.1354 11.1217 8.1354 11.4817V29.485C8.1354 29.591 8.1494 29.689 8.1754 29.777H38.9941C39.0201 29.685 39.0341 29.587 39.0341 29.485V23.1815C38.9421 23.1315 38.8501 23.0855 38.7561 23.0395C38.7101 23.0175 38.6621 22.9935 38.6141 22.9715V28.615C38.6141 28.821 38.5241 29.009 38.3841 29.145C38.2521 29.271 38.0681 29.353 37.8701 29.353H9.29904C9.10105 29.353 8.91906 29.271 8.78507 29.145C8.64507 29.011 8.55507 28.8211 8.55507 28.615V11.5318C8.55507 11.2578 8.67307 11.0098 8.86106 10.8298C9.04106 10.6578 9.28705 10.5498 9.55505 10.5498H37.6141C37.8561 10.5498 38.0821 10.6398 38.2581 10.7878C38.2761 10.7998 38.2921 10.8158 38.3081 10.8298C38.4961 11.0098 38.6141 11.2578 38.6141 11.5318V15.7356C38.6621 15.7136 38.7081 15.6896 38.7561 15.6676C38.8501 15.6216 38.9425 15.5735 39.0345 15.5255ZM35.9726 16.5735C36.4825 16.4735 36.9745 16.3495 37.4445 16.1955V11.7197H9.72537V28.1809H37.4425L37.4445 22.5112C37.0145 22.3712 36.5685 22.2552 36.1065 22.1612V24.2351C36.1065 24.7351 35.9025 25.1891 35.5725 25.5191C35.2425 25.8491 34.7906 26.0531 34.2886 26.0531C33.7886 26.0531 33.3346 25.8491 33.0046 25.5191C32.6746 25.1891 32.4706 24.7351 32.4706 24.2351V22.0532C31.9706 21.9292 31.5246 21.6712 31.1726 21.3173C30.6687 20.8133 30.3566 20.1193 30.3566 19.3534C30.3566 18.5894 30.6686 17.8934 31.1726 17.3894C31.6766 16.8855 32.3706 16.5735 33.1365 16.5735L35.9725 16.5755L35.9726 16.5735ZM35.4346 17.7455H33.1386C32.6967 17.7455 32.2947 17.9275 32.0027 18.2194C31.7107 18.5114 31.5287 18.9134 31.5287 19.3554C31.5287 19.7974 31.7087 20.1994 32.0027 20.4914C32.2947 20.7834 32.6967 20.9654 33.1386 20.9654H35.4346V17.7455ZM34.9366 22.2653H33.6447V24.2352C33.6447 24.4132 33.7166 24.5732 33.8346 24.6912C33.9526 24.8092 34.1126 24.8812 34.2906 24.8812C34.4686 24.8812 34.6286 24.8072 34.7466 24.6912C34.8646 24.5732 34.9366 24.4132 34.9366 24.2352L34.9366 22.2653ZM26.003 20.4594C26.091 20.4094 26.167 20.3374 26.223 20.2434C26.385 19.9654 26.289 19.6074 26.011 19.4454L24.0671 18.3235V18.3254L22.1692 17.2295C22.0732 17.1615 21.9572 17.1215 21.8312 17.1215C21.5072 17.1215 21.2452 17.3835 21.2452 17.7075V22.1973H21.2472C21.2472 22.2973 21.2732 22.3973 21.3252 22.4893C21.4872 22.7673 21.8432 22.8633 22.1232 22.7013L26.003 20.4594ZM23.4811 20.5674L24.5491 19.9494L23.4811 19.3314V19.3294L22.4152 18.7135V21.1794L23.4811 20.5674ZM18.4553 15.8075C18.1313 15.8075 17.8694 16.0695 17.8694 16.3935V23.509C17.8694 23.833 18.1313 24.095 18.4553 24.095H28.7169C29.0409 24.095 29.3029 23.833 29.3029 23.509L29.3009 16.3915C29.3009 16.0675 29.0389 15.8055 28.7149 15.8055L18.4553 15.8075ZM28.1307 16.9775H19.041V22.9231H28.1307V16.9775ZM20.6251 33.0747H26.5211C26.743 33.0747 26.937 33.1987 27.037 33.3807L28.255 35.2486H44.8263L39.0583 30.9468H8.0036L2.32164 35.2506H18.8909L20.1348 33.3426C20.2468 33.1706 20.4328 33.0767 20.6248 33.0767L20.6251 33.0747ZM27.9628 36.4165H27.9388V36.4185H19.207C19.189 36.4185 19.173 36.4185 19.155 36.4165H1.19982C1.24782 36.8805 1.36182 37.3685 1.60381 37.7245C1.8058 38.0225 2.12178 38.2305 2.60974 38.2305H44.5619C45.0479 38.2305 45.3659 38.0225 45.5679 37.7245C45.8099 37.3665 45.9239 36.8786 45.9719 36.4165H27.9628ZM26.2069 34.2466H20.9411L20.2872 35.2486H26.861L26.2069 34.2466Z" fill="#9C56B8"/>
</svg>
