<svg width="24" height="25" viewBox="0 0 24 25" fill="none" xmlns="http://www.w3.org/2000/svg">
<g id="mingcute:youtube-line" clip-path="url(#clip0_805_4074)">
<g id="Group">
<path id="Vector" d="M12 4.67969C12.855 4.67969 13.732 4.70169 14.582 4.73769L15.586 4.78569L16.547 4.84269L17.447 4.90369L18.269 4.96769C19.161 5.03597 20.0004 5.41663 20.6395 6.04273C21.2786 6.66882 21.6764 7.50023 21.763 8.39069L21.803 8.81569L21.878 9.72569C21.948 10.6687 22 11.6967 22 12.6797C22 13.6627 21.948 14.6907 21.878 15.6337L21.803 16.5437C21.79 16.6897 21.777 16.8307 21.763 16.9687C21.6764 17.8593 21.2784 18.6908 20.6391 19.317C19.9999 19.9431 19.1602 20.3236 18.268 20.3917L17.448 20.4547L16.548 20.5167L15.586 20.5737L14.582 20.6217C13.7218 20.6591 12.861 20.6784 12 20.6797C11.139 20.6784 10.2782 20.6591 9.418 20.6217L8.414 20.5737L7.453 20.5167L6.553 20.4547L5.731 20.3917C4.83895 20.3234 3.99955 19.9427 3.36047 19.3166C2.72139 18.6906 2.32357 17.8591 2.237 16.9687L2.197 16.5437L2.122 15.6337C2.04554 14.6508 2.00484 13.6655 2 12.6797C2 11.6967 2.052 10.6687 2.122 9.72569L2.197 8.81569C2.21 8.66969 2.223 8.52869 2.237 8.39069C2.32354 7.50039 2.72122 6.6691 3.36009 6.04303C3.99897 5.41696 4.83813 5.03619 5.73 4.96769L6.551 4.90369L7.451 4.84269L8.413 4.78569L9.417 4.73769C10.2775 4.70032 11.1387 4.68098 12 4.67969ZM12 6.67969C11.175 6.67969 10.326 6.70169 9.5 6.73569L8.522 6.78269L7.583 6.83769L6.701 6.89769L5.893 6.96069C5.46833 6.99082 5.06804 7.17033 4.76309 7.46741C4.45814 7.76449 4.26822 8.15995 4.227 8.58369C4.11 9.79269 4 11.2977 4 12.6797C4 14.0617 4.11 15.5667 4.227 16.7757C4.312 17.6477 5.004 18.3257 5.893 18.3987L6.701 18.4607L7.583 18.5207L8.522 18.5767L9.5 18.6237C10.326 18.6577 11.175 18.6797 12 18.6797C12.825 18.6797 13.674 18.6577 14.5 18.6237L15.478 18.5767L16.417 18.5217L17.299 18.4617L18.107 18.3987C18.5317 18.3686 18.932 18.189 19.2369 17.892C19.5419 17.5949 19.7318 17.1994 19.773 16.7757C19.89 15.5667 20 14.0617 20 12.6797C20 11.2977 19.89 9.79269 19.773 8.58369C19.7318 8.15995 19.5419 7.76449 19.2369 7.46741C18.932 7.17033 18.5317 6.99082 18.107 6.96069L17.299 6.89869L16.417 6.83869L15.478 6.78269L14.5 6.73569C13.6671 6.69985 12.8336 6.68118 12 6.67969ZM10 10.2547C9.99994 10.157 10.0237 10.0607 10.0694 9.97424C10.115 9.8878 10.181 9.81382 10.2618 9.75872C10.3425 9.70362 10.4354 9.66908 10.5326 9.65809C10.6297 9.64711 10.728 9.66001 10.819 9.69569L10.9 9.73569L15.1 12.1597C15.1836 12.2079 15.2544 12.2757 15.3063 12.3571C15.3581 12.4386 15.3896 12.5313 15.3979 12.6275C15.4062 12.7237 15.3912 12.8205 15.3542 12.9097C15.3171 12.9989 15.2591 13.0778 15.185 13.1397L15.1 13.1997L10.9 15.6247C10.8154 15.6737 10.72 15.7013 10.6223 15.705C10.5246 15.7088 10.4274 15.6886 10.3393 15.6462C10.2511 15.6038 10.1747 15.5405 10.1166 15.4618C10.0585 15.3831 10.0205 15.2914 10.006 15.1947L10 15.1047V10.2547Z" fill="#222222"/>
</g>
</g>
<defs>
<clipPath id="clip0_805_4074">
<rect width="24" height="24" fill="white" transform="translate(0 0.679688)"/>
</clipPath>
</defs>
</svg>
