<svg width="27" height="27" viewBox="0 0 27 27" fill="none" xmlns="http://www.w3.org/2000/svg">
<rect width="27" height="27" rx="13.5" fill="#A6F4C5"/>
<path d="M20.8125 19.125C20.8125 19.2742 20.7532 19.4173 20.6477 19.5227C20.5423 19.6282 20.3992 19.6875 20.25 19.6875H6.75C6.60082 19.6875 6.45774 19.6282 6.35225 19.5227C6.24676 19.4173 6.1875 19.2742 6.1875 19.125C6.1875 18.9758 6.24676 18.8327 6.35225 18.7273C6.45774 18.6218 6.60082 18.5625 6.75 18.5625H7.3125V14.0625C7.3125 13.9133 7.37176 13.7702 7.47725 13.6648C7.58274 13.5593 7.72582 13.5 7.875 13.5H9.5625C9.71168 13.5 9.85476 13.5593 9.96025 13.6648C10.0657 13.7702 10.125 13.9133 10.125 14.0625V18.5625H11.25V10.6875C11.25 10.5383 11.3093 10.3952 11.4148 10.2898C11.5202 10.1843 11.6633 10.125 11.8125 10.125H14.0625C14.2117 10.125 14.3548 10.1843 14.4602 10.2898C14.5657 10.3952 14.625 10.5383 14.625 10.6875V18.5625H15.75V7.3125C15.75 7.16332 15.8093 7.02024 15.9148 6.91475C16.0202 6.80926 16.1633 6.75 16.3125 6.75H19.125C19.2742 6.75 19.4173 6.80926 19.5227 6.91475C19.6282 7.02024 19.6875 7.16332 19.6875 7.3125V18.5625H20.25C20.3992 18.5625 20.5423 18.6218 20.6477 18.7273C20.7532 18.8327 20.8125 18.9758 20.8125 19.125Z" fill="#343330"/>
</svg>
