<svg width="27" height="27" viewBox="0 0 27 27" fill="none" xmlns="http://www.w3.org/2000/svg">
<rect width="27" height="27" rx="13.5" fill="#FFEAD5"/>
<path d="M19.7777 12.7224L17.1199 15.0158L17.9296 18.4456C17.9743 18.6318 17.9628 18.827 17.8966 19.0067C17.8303 19.1863 17.7123 19.3423 17.5575 19.4549C17.4027 19.5676 17.2179 19.6318 17.0266 19.6394C16.8353 19.6471 16.646 19.5979 16.4826 19.4981L13.4999 17.6624L10.5155 19.4981C10.3522 19.5973 10.1631 19.6461 9.9721 19.6381C9.78112 19.6302 9.59675 19.5659 9.44223 19.4533C9.28771 19.3408 9.16994 19.1851 9.10375 19.0057C9.03756 18.8264 9.0259 18.6315 9.07026 18.4456L9.88296 15.0158L7.22514 12.7224C7.08062 12.5975 6.97609 12.4328 6.92462 12.2488C6.87315 12.0649 6.87702 11.8698 6.93575 11.688C6.99447 11.5063 7.10544 11.3458 7.25481 11.2267C7.40418 11.1077 7.58532 11.0352 7.77561 11.0185L11.2603 10.7373L12.6046 7.48417C12.6773 7.30687 12.8012 7.15522 12.9603 7.04849C13.1195 6.94175 13.3068 6.88477 13.4985 6.88477C13.6901 6.88477 13.8774 6.94175 14.0366 7.04849C14.1958 7.15522 14.3196 7.30687 14.3924 7.48417L15.736 10.7373L19.2207 11.0185C19.4114 11.0346 19.5931 11.1066 19.743 11.2255C19.8929 11.3445 20.0044 11.505 20.0635 11.687C20.1226 11.869 20.1266 12.0644 20.0752 12.2486C20.0237 12.4329 19.919 12.598 19.7742 12.723L19.7777 12.7224Z" fill="#121212"/>
</svg>
