<svg width="27" height="27" viewBox="0 0 27 27" fill="none" xmlns="http://www.w3.org/2000/svg">
<rect width="27" height="27" rx="13.5" fill="#E1F0FF"/>
<path d="M18.4139 10.6293C18.3579 10.656 18.3077 10.6935 18.2662 10.7397C18.2247 10.7858 18.1927 10.8397 18.172 10.8982C18.1514 10.9568 18.1424 11.0188 18.1457 11.0808C18.149 11.1427 18.1645 11.2035 18.1913 11.2595C18.7459 12.4165 18.8534 13.7378 18.4931 14.9693C18.1327 16.2008 17.3301 17.2557 16.2392 17.9314C15.1484 18.607 13.8464 18.8558 12.5833 18.6298C11.3202 18.4038 10.1852 17.7191 9.3963 16.7071C8.6074 15.6952 8.22027 14.4274 8.3093 13.1473C8.39832 11.8673 8.95722 10.6653 9.87861 9.77227C10.8 8.87925 12.0189 8.35822 13.3011 8.30927C14.5833 8.26032 15.8384 8.68691 16.8252 9.50707L15.4803 10.8519C14.8106 10.3529 13.9769 10.1258 13.1466 10.2161C12.3163 10.3064 11.5509 10.7074 11.0041 11.3387C10.4573 11.97 10.1696 12.7848 10.1987 13.6195C10.2278 14.4542 10.5716 15.2469 11.1611 15.8386C11.635 16.3123 12.2417 16.631 12.9008 16.7523C13.5599 16.8735 14.2402 16.7918 14.8518 16.5177C15.4634 16.2437 15.9773 15.7904 16.3254 15.2178C16.6736 14.6452 16.8396 13.9803 16.8015 13.3113C16.798 13.2492 16.7824 13.1885 16.7554 13.1325C16.7284 13.0765 16.6907 13.0264 16.6443 12.985C16.598 12.9436 16.544 12.9117 16.4853 12.8912C16.4266 12.8706 16.3645 12.8619 16.3024 12.8654C16.2404 12.8689 16.1796 12.8845 16.1237 12.9115C16.0677 12.9385 16.0175 12.9762 15.9761 13.0226C15.9347 13.0689 15.9028 13.1229 15.8823 13.1816C15.8618 13.2403 15.853 13.3024 15.8565 13.3644C15.8818 13.8022 15.7848 14.2383 15.5763 14.624C15.3678 15.0098 15.0561 15.3299 14.6761 15.5485C14.296 15.7672 13.8626 15.8757 13.4244 15.8621C12.9862 15.8484 12.5604 15.7131 12.1947 15.4712L13.6092 14.0567L15.8388 11.83L19.5042 8.16813C19.5481 8.12423 19.5829 8.07211 19.6067 8.01475C19.6305 7.95739 19.6427 7.89592 19.6427 7.83383C19.6427 7.77175 19.6305 7.71027 19.6067 7.65291C19.5829 7.59556 19.5481 7.54344 19.5042 7.49954C19.4603 7.45564 19.4082 7.42081 19.3509 7.39706C19.2935 7.3733 19.232 7.36107 19.1699 7.36107C19.1078 7.36107 19.0464 7.3733 18.989 7.39706C18.9317 7.42081 18.8795 7.45564 18.8356 7.49954L17.4967 8.83435C16.2912 7.79592 14.7298 7.26575 13.1413 7.35549C11.5527 7.44522 10.061 8.14785 8.98014 9.31544C7.89928 10.483 7.31364 12.0245 7.34653 13.6152C7.37942 15.2059 8.02828 16.7218 9.15648 17.8437C10.1808 18.8699 11.5352 19.5007 12.9798 19.6244C14.4245 19.748 15.8663 19.3567 17.0502 18.5195C18.2341 17.6824 19.0836 16.4534 19.4486 15.0501C19.8135 13.6469 19.6702 12.1597 19.0441 10.8519C19.0174 10.7959 18.9799 10.7457 18.9337 10.7042C18.8876 10.6627 18.8337 10.6307 18.7752 10.61C18.7166 10.5894 18.6546 10.5804 18.5926 10.5837C18.5307 10.587 18.4699 10.6025 18.4139 10.6293Z" fill="#121212"/>
</svg>
