<svg width="27" height="27" viewBox="0 0 27 27" fill="none" xmlns="http://www.w3.org/2000/svg">
<rect width="27" height="27" rx="13.5" fill="#EBDFFD"/>
<path d="M19.5792 18.9333C19.5378 19.0052 19.4781 19.0648 19.4062 19.1063C19.3344 19.1478 19.2529 19.1696 19.1699 19.1696H7.82993C7.74703 19.1695 7.66561 19.1476 7.59385 19.1061C7.52208 19.0646 7.46251 19.0049 7.42109 18.9331C7.37968 18.8613 7.35789 18.7799 7.35791 18.697C7.35793 18.6141 7.37976 18.5326 7.42121 18.4608C8.32074 16.9057 9.70693 15.7906 11.3247 15.262C10.5245 14.7856 9.90275 14.0598 9.55502 13.1959C9.20728 12.332 9.15274 11.3778 9.39977 10.4799C9.6468 9.58203 10.1817 8.79005 10.9225 8.2256C11.6632 7.66116 12.5687 7.35547 13.4999 7.35547C14.4312 7.35547 15.3367 7.66116 16.0774 8.2256C16.8181 8.79005 17.353 9.58203 17.6001 10.4799C17.8471 11.3778 17.7926 12.332 17.4448 13.1959C17.0971 14.0598 16.4754 14.7856 15.6752 15.262C17.2929 15.7906 18.6791 16.9057 19.5786 18.4608C19.6202 18.5326 19.6421 18.6141 19.6422 18.697C19.6423 18.7799 19.6206 18.8614 19.5792 18.9333Z" fill="#121212"/>
</svg>
