<svg width="27" height="27" viewBox="0 0 27 27" fill="none" xmlns="http://www.w3.org/2000/svg">
<rect width="27" height="27" rx="13.5" fill="#EBDFFD"/>
<path d="M19.0712 13.257C19.0677 13.2493 19.0641 13.2417 19.06 13.2346L17.2798 10.0688V7.82977C17.2798 7.57914 17.1803 7.33877 17.0031 7.16155C16.8258 6.98433 16.5855 6.88477 16.3348 6.88477H10.6648C10.4142 6.88477 10.1739 6.98433 9.99663 7.16155C9.81941 7.33877 9.71985 7.57914 9.71985 7.82977V10.0682L7.9397 13.2346C7.93557 13.2417 7.93202 13.2493 7.92789 13.257C7.85077 13.4123 7.81801 13.5858 7.83322 13.7585C7.84844 13.9312 7.91104 14.0963 8.01412 14.2357L8.02062 14.244L12.6045 20.198C12.6345 20.2368 12.6759 20.2652 12.7229 20.2794C12.7698 20.2936 12.82 20.2928 12.8665 20.2771C12.913 20.2615 12.9534 20.2318 12.9822 20.1921C13.0111 20.1524 13.0268 20.1047 13.0273 20.0557V15.0726C12.7121 14.9611 12.4464 14.7418 12.2772 14.4534C12.108 14.165 12.0462 13.826 12.1028 13.4965C12.1593 13.1669 12.3305 12.8679 12.5862 12.6524C12.8418 12.4369 13.1655 12.3187 13.4998 12.3187C13.8342 12.3187 14.1578 12.4369 14.4135 12.6524C14.6692 12.8679 14.8404 13.1669 14.8969 13.4965C14.9535 13.826 14.8917 14.165 14.7225 14.4534C14.5533 14.7418 14.2876 14.9611 13.9723 15.0726V20.0557C13.9725 20.1049 13.988 20.1528 14.0167 20.1928C14.0454 20.2327 14.0858 20.2627 14.1324 20.2786C14.179 20.2945 14.2293 20.2954 14.2764 20.2813C14.3235 20.2672 14.3651 20.2387 14.3952 20.1998L18.9785 14.2457L18.985 14.2375C19.0885 14.098 19.1514 13.9325 19.1666 13.7594C19.1818 13.5864 19.1488 13.4125 19.0712 13.257ZM16.3348 9.71977H10.6648V7.82977H16.3348V9.71977Z" fill="#121212"/>
</svg>
