<svg width="27" height="27" viewBox="0 0 27 27" fill="none" xmlns="http://www.w3.org/2000/svg">
<rect width="27" height="27" rx="13.5" fill="#E1F0FF"/>
<path d="M15.8624 12.5546C15.8624 13.2087 15.6685 13.8482 15.305 14.3921C14.9416 14.936 14.425 15.36 13.8207 15.6103C13.2163 15.8606 12.5513 15.9261 11.9097 15.7985C11.2681 15.6709 10.6787 15.3559 10.2162 14.8933C9.75362 14.4308 9.43861 13.8414 9.31099 13.1998C9.18337 12.5582 9.24887 11.8932 9.49921 11.2888C9.74955 10.6845 10.1735 10.1679 10.7174 9.80448C11.2613 9.44104 11.9008 9.24706 12.5549 9.24706C13.4321 9.24706 14.2734 9.59553 14.8937 10.2158C15.514 10.8361 15.8624 11.6774 15.8624 12.5546ZM19.5042 19.5039C19.4604 19.5478 19.4082 19.5826 19.3509 19.6064C19.2935 19.6302 19.232 19.6424 19.1699 19.6424C19.1078 19.6424 19.0464 19.6302 18.989 19.6064C18.9316 19.5826 18.8795 19.5478 18.8356 19.5039L15.879 16.5466C14.8508 17.402 13.5324 17.8281 12.198 17.7362C10.8636 17.6444 9.61606 17.0417 8.71475 16.0535C7.81344 15.0652 7.32779 13.7676 7.35882 12.4304C7.38985 11.0933 7.93518 9.81955 8.88136 8.87421C9.82754 7.92886 11.1017 7.38466 12.4389 7.35481C13.7761 7.32496 15.0733 7.81176 16.0608 8.71394C17.0482 9.61612 17.6498 10.8642 17.7405 12.1987C17.8311 13.5331 17.4039 14.8511 16.5476 15.8786L19.5042 18.8353C19.5482 18.8792 19.583 18.9313 19.6068 18.9886C19.6306 19.046 19.6428 19.1075 19.6428 19.1696C19.6428 19.2317 19.6306 19.2931 19.6068 19.3505C19.583 19.4079 19.5482 19.46 19.5042 19.5039ZM12.5549 16.8071C13.396 16.8071 14.2182 16.5577 14.9175 16.0904C15.6168 15.6231 16.1619 14.959 16.4837 14.1819C16.8056 13.4049 16.8898 12.5498 16.7257 11.7249C16.5616 10.9 16.1566 10.1423 15.5619 9.54759C14.9672 8.95287 14.2095 8.54786 13.3846 8.38377C12.5597 8.21969 11.7046 8.3039 10.9276 8.62577C10.1505 8.94763 9.48639 9.49268 9.01912 10.192C8.55184 10.8913 8.30244 11.7135 8.30244 12.5546C8.30369 13.682 8.75212 14.7629 9.54935 15.5602C10.3466 16.3574 11.4275 16.8058 12.5549 16.8071Z" fill="#121212"/>
</svg>
