<svg width="27" height="27" viewBox="0 0 27 27" fill="none" xmlns="http://www.w3.org/2000/svg">
<rect width="27" height="27" rx="13.5" fill="#EBDFFD"/>
<path d="M16.3348 19.6418C16.3348 19.7671 16.285 19.8873 16.1964 19.9759C16.1078 20.0645 15.9876 20.1143 15.8623 20.1143H11.1373C11.012 20.1143 10.8918 20.0645 10.8032 19.9759C10.7146 19.8873 10.6648 19.7671 10.6648 19.6418C10.6648 19.5165 10.7146 19.3963 10.8032 19.3077C10.8918 19.2191 11.012 19.1693 11.1373 19.1693H15.8623C15.9876 19.1693 16.1078 19.2191 16.1964 19.3077C16.285 19.3963 16.3348 19.5165 16.3348 19.6418ZM18.6973 12.0818C18.6994 12.8695 18.5214 13.6472 18.1771 14.3557C17.8327 15.0641 17.3311 15.6845 16.7105 16.1695C16.5944 16.2585 16.5002 16.3728 16.4351 16.5037C16.37 16.6347 16.3357 16.7787 16.3348 16.9249V17.2793C16.3348 17.53 16.2353 17.7703 16.058 17.9475C15.8808 18.1248 15.6405 18.2243 15.3898 18.2243H11.6098C11.3592 18.2243 11.1188 18.1248 10.9416 17.9475C10.7644 17.7703 10.6648 17.53 10.6648 17.2793V16.9249C10.6647 16.7805 10.6315 16.638 10.5677 16.5083C10.5039 16.3787 10.4113 16.2654 10.2969 16.1772C9.67777 15.6951 9.17648 15.0784 8.83092 14.3739C8.48536 13.6694 8.3046 12.8955 8.30232 12.1108C8.28697 9.29584 10.5621 6.95165 13.3746 6.88432C14.0676 6.86762 14.757 6.98972 15.4021 7.24343C16.0472 7.49714 16.635 7.87734 17.131 8.36165C17.627 8.84595 18.0211 9.42458 18.2901 10.0635C18.5591 10.7024 18.6975 11.3886 18.6973 12.0818ZM15.7241 12.22C15.6802 12.1761 15.6281 12.1412 15.5708 12.1175C15.5134 12.0937 15.4519 12.0814 15.3898 12.0814C15.3277 12.0814 15.2662 12.0937 15.2089 12.1175C15.1515 12.1412 15.0994 12.1761 15.0555 12.22L13.4998 13.7763L11.9441 12.22C11.8555 12.1314 11.7352 12.0816 11.6098 12.0816C11.4844 12.0816 11.3642 12.1314 11.2755 12.22C11.1869 12.3087 11.1371 12.4289 11.1371 12.5543C11.1371 12.6797 11.1869 12.8 11.2755 12.8886L13.0273 14.6398V16.8068C13.0273 16.9321 13.0771 17.0523 13.1657 17.1409C13.2543 17.2295 13.3745 17.2793 13.4998 17.2793C13.6251 17.2793 13.7453 17.2295 13.8339 17.1409C13.9225 17.0523 13.9723 16.9321 13.9723 16.8068V14.6398L15.7241 12.8886C15.768 12.8447 15.8029 12.7926 15.8267 12.7353C15.8505 12.6779 15.8627 12.6164 15.8627 12.5543C15.8627 12.4922 15.8505 12.4307 15.8267 12.3734C15.8029 12.316 15.768 12.2639 15.7241 12.22Z" fill="#121212"/>
</svg>
