<svg width="27" height="27" viewBox="0 0 27 27" fill="none" xmlns="http://www.w3.org/2000/svg">
<rect width="27" height="27" rx="13.5" fill="#FFEDA1"/>
<path d="M19.125 6.75H7.875C7.57663 6.75 7.29048 6.86853 7.0795 7.0795C6.86853 7.29048 6.75 7.57663 6.75 7.875V19.125C6.75 19.4234 6.86853 19.7095 7.0795 19.9205C7.29048 20.1315 7.57663 20.25 7.875 20.25H19.125C19.4234 20.25 19.7095 20.1315 19.9205 19.9205C20.1315 19.7095 20.25 19.4234 20.25 19.125V7.875C20.25 7.57663 20.1315 7.29048 19.9205 7.0795C19.7095 6.86853 19.4234 6.75 19.125 6.75ZM16.7105 12.2105L12.773 16.148C12.7207 16.2003 12.6587 16.2418 12.5904 16.2701C12.5221 16.2984 12.4489 16.3129 12.375 16.3129C12.3011 16.3129 12.2279 16.2984 12.1596 16.2701C12.0913 16.2418 12.0293 16.2003 11.977 16.148L10.2895 14.4605C10.184 14.3549 10.1247 14.2118 10.1247 14.0625C10.1247 13.9132 10.184 13.7701 10.2895 13.6645C10.3951 13.559 10.5382 13.4997 10.6875 13.4997C10.8368 13.4997 10.9799 13.559 11.0855 13.6645L12.375 14.9548L15.9145 11.4145C15.9668 11.3623 16.0288 11.3208 16.0971 11.2925C16.1654 11.2642 16.2386 11.2497 16.3125 11.2497C16.3864 11.2497 16.4596 11.2642 16.5279 11.2925C16.5962 11.3208 16.6582 11.3623 16.7105 11.4145C16.7627 11.4668 16.8042 11.5288 16.8325 11.5971C16.8608 11.6654 16.8753 11.7386 16.8753 11.8125C16.8753 11.8864 16.8608 11.9596 16.8325 12.0279C16.8042 12.0962 16.7627 12.1582 16.7105 12.2105Z" fill="#343330"/>
</svg>
