<svg width="27" height="27" viewBox="0 0 27 27" fill="none" xmlns="http://www.w3.org/2000/svg">
<rect width="27" height="27" rx="13.5" fill="#A6F4C5"/>
<path d="M19.6875 7.3125H7.3125C7.01413 7.3125 6.72798 7.43103 6.517 7.642C6.30603 7.85298 6.1875 8.13913 6.1875 8.4375V18.5625C6.1875 18.8609 6.30603 19.147 6.517 19.358C6.72798 19.569 7.01413 19.6875 7.3125 19.6875H19.6875C19.9859 19.6875 20.272 19.569 20.483 19.358C20.694 19.147 20.8125 18.8609 20.8125 18.5625V8.4375C20.8125 8.13913 20.694 7.85298 20.483 7.642C20.272 7.43103 19.9859 7.3125 19.6875 7.3125ZM18.5625 16.875C18.7117 16.875 18.8548 16.9343 18.9602 17.0398C19.0657 17.1452 19.125 17.2883 19.125 17.4375C19.125 17.5867 19.0657 17.7298 18.9602 17.8352C18.8548 17.9407 18.7117 18 18.5625 18H8.4375C8.28832 18 8.14524 17.9407 8.03975 17.8352C7.93426 17.7298 7.875 17.5867 7.875 17.4375V9.5625C7.875 9.41332 7.93426 9.27024 8.03975 9.16475C8.14524 9.05926 8.28832 9 8.4375 9C8.58668 9 8.72976 9.05926 8.83525 9.16475C8.94074 9.27024 9 9.41332 9 9.5625V13.9866L11.4525 11.9426C11.5457 11.8649 11.6615 11.8195 11.7826 11.813C11.9038 11.8065 12.0238 11.8394 12.1247 11.9067L15.1481 13.924L18.2004 11.3801C18.3151 11.2846 18.463 11.2386 18.6116 11.2522C18.7602 11.2658 18.8973 11.3378 18.9928 11.4525C19.0883 11.5672 19.1343 11.7151 19.1207 11.8637C19.1071 12.0123 19.0351 12.1494 18.9204 12.2449L15.5454 15.0574C15.4522 15.1351 15.3364 15.1805 15.2153 15.187C15.0941 15.1935 14.9741 15.1606 14.8732 15.0933L11.8498 13.076L9 15.4512V16.875H18.5625Z" fill="#343330"/>
</svg>
