<svg width="27" height="27" viewBox="0 0 27 27" fill="none" xmlns="http://www.w3.org/2000/svg">
<rect width="27" height="27" rx="13.5" fill="#EBDFFD"/>
<path d="M20.9595 12.3134L19.4523 9.29764C19.3967 9.18664 19.3199 9.08767 19.2261 9.00638C19.1323 8.92508 19.0235 8.86305 18.9057 8.82384C18.7879 8.78462 18.6636 8.76899 18.5398 8.77783C18.416 8.78666 18.2952 8.8198 18.1842 8.87535L16.7153 9.60949L13.621 8.79089C13.5416 8.77023 13.4583 8.77023 13.3789 8.79089L10.2846 9.60949L8.8157 8.87535C8.70471 8.8198 8.58386 8.78666 8.46007 8.77783C8.33627 8.76899 8.21194 8.78462 8.09419 8.82384C7.97643 8.86305 7.86756 8.92508 7.77378 9.00638C7.68 9.08767 7.60315 9.18664 7.54762 9.29764L6.04035 12.3128C5.9848 12.4238 5.95167 12.5446 5.94283 12.6684C5.93399 12.7922 5.94963 12.9165 5.98884 13.0343C6.02806 13.152 6.09008 13.2609 6.17138 13.3547C6.25267 13.4485 6.35165 13.5253 6.46265 13.5809L8.05733 14.3788L11.3347 16.7194C11.383 16.7538 11.4373 16.7788 11.4948 16.7933L15.2748 17.7383C15.3539 17.7581 15.4369 17.7571 15.5155 17.7354C15.5942 17.7137 15.6659 17.6719 15.7236 17.6142L18.0861 15.2517L18.9768 14.3611L20.5372 13.5809C20.7613 13.4687 20.9316 13.2722 21.0108 13.0345C21.09 12.7969 21.0715 12.5375 20.9595 12.3134ZM17.7176 14.2843L15.6853 12.6565C15.5942 12.5836 15.4794 12.547 15.363 12.5536C15.2465 12.5603 15.1366 12.6097 15.0545 12.6926C14.0026 13.7521 12.8302 13.6181 12.0824 13.1456L14.6363 10.6649H16.5151L18.1222 13.8785L17.7176 14.2843ZM15.2446 16.7566L11.8119 15.8985L8.90606 13.823L10.5598 10.5155L13.4999 9.73648L14.0788 9.88945L11.4209 12.4693L11.4162 12.4746C11.3162 12.5747 11.2399 12.6959 11.1929 12.8294C11.146 12.9629 11.1296 13.1052 11.1451 13.2458C11.1605 13.3865 11.2073 13.5219 11.282 13.642C11.3568 13.7621 11.4575 13.864 11.5769 13.94C12.7912 14.7154 14.2565 14.5896 15.4106 13.6446L17.0437 14.9564L15.2446 16.7566ZM13.7256 18.812C13.7 18.9141 13.6411 19.0048 13.5582 19.0697C13.4753 19.1345 13.3731 19.1698 13.2678 19.1699C13.229 19.1699 13.1903 19.1651 13.1527 19.1558L10.6892 18.5397C10.6316 18.5255 10.5773 18.5005 10.5291 18.4659L8.9728 17.3544C8.87711 17.2792 8.81409 17.1701 8.79686 17.0496C8.77963 16.9292 8.80952 16.8068 8.88031 16.7078C8.95109 16.6089 9.05732 16.541 9.17687 16.5184C9.29642 16.4958 9.42007 16.5202 9.52208 16.5865L11.0051 17.6461L13.3818 18.2391C13.5034 18.2695 13.6079 18.347 13.6723 18.4544C13.7368 18.5618 13.7559 18.6905 13.7256 18.812Z" fill="#121212"/>
</svg>
