<svg width="27" height="27" viewBox="0 0 27 27" fill="none" xmlns="http://www.w3.org/2000/svg">
<rect width="27" height="27" rx="13.5" fill="#FFEAD5"/>
<path d="M19.4605 8.87496C19.4039 8.83086 19.338 8.80023 19.2678 8.78539C19.1976 8.77055 19.1249 8.77189 19.0553 8.78932L15.4448 9.69179L11.8214 7.87976C11.7204 7.8294 11.6048 7.81683 11.4953 7.84432L7.71534 8.78932C7.61312 8.81487 7.52237 8.87385 7.45752 8.9569C7.39267 9.03994 7.35744 9.14228 7.35742 9.24764V17.7526C7.35743 17.8244 7.37381 17.8953 7.4053 17.9598C7.43679 18.0243 7.48257 18.0808 7.53916 18.125C7.59575 18.1692 7.66167 18.1999 7.73191 18.2148C7.80214 18.2297 7.87485 18.2284 7.9445 18.211L11.555 17.3085L15.1785 19.1205C15.2443 19.153 15.3166 19.1699 15.3899 19.1701C15.4286 19.1701 15.467 19.1654 15.5045 19.156L19.2845 18.211C19.3867 18.1854 19.4775 18.1264 19.5423 18.0434C19.6072 17.9603 19.6424 17.858 19.6424 17.7526V9.24764C19.6424 9.17578 19.6261 9.10486 19.5945 9.04028C19.563 8.9757 19.5172 8.91916 19.4605 8.87496ZM11.6099 16.3351C11.5713 16.3352 11.5328 16.3399 11.4953 16.3493L8.30242 17.1473V9.61678L11.555 8.80349L11.6099 8.83066V16.3351ZM18.6974 17.3835L15.4448 18.1968L15.3899 18.1696V10.6651C15.4285 10.6653 15.467 10.6608 15.5045 10.6516L18.6974 9.85303V17.3835Z" fill="#121212"/>
</svg>
