<svg width="27" height="27" viewBox="0 0 27 27" fill="none" xmlns="http://www.w3.org/2000/svg">
<rect width="27" height="27" rx="13.5" fill="#FFEAD5"/>
<path d="M14.4449 6.88477H12.5549C11.5527 6.88586 10.5919 7.28446 9.88325 7.99311C9.1746 8.70176 8.776 9.66258 8.7749 10.6648V16.3348C8.776 17.3369 9.1746 18.2978 9.88325 19.0064C10.5919 19.7151 11.5527 20.1137 12.5549 20.1148H14.4449C15.4471 20.1137 16.4079 19.7151 17.1166 19.0064C17.8252 18.2978 18.2238 17.3369 18.2249 16.3348V10.6648C18.2238 9.66258 17.8252 8.70176 17.1166 7.99311C16.4079 7.28446 15.4471 6.88586 14.4449 6.88477ZM13.9724 12.5548C13.9724 12.6801 13.9226 12.8003 13.834 12.8889C13.7454 12.9775 13.6252 13.0273 13.4999 13.0273C13.3746 13.0273 13.2544 12.9775 13.1658 12.8889C13.0772 12.8003 13.0274 12.6801 13.0274 12.5548V9.71977C13.0274 9.59445 13.0772 9.47427 13.1658 9.38566C13.2544 9.29705 13.3746 9.24727 13.4999 9.24727C13.6252 9.24727 13.7454 9.29705 13.834 9.38566C13.9226 9.47427 13.9724 9.59445 13.9724 9.71977V12.5548Z" fill="#121212"/>
</svg>
