<svg width="27" height="27" viewBox="0 0 27 27" fill="none" xmlns="http://www.w3.org/2000/svg">
<rect width="27" height="27" rx="13.5" fill="#FFEDA1"/>
<path d="M21.889 13.2722C21.8644 13.2166 21.2688 11.8955 19.9448 10.5715C18.1807 8.80734 15.9525 7.875 13.5 7.875C11.0475 7.875 8.81929 8.80734 7.05515 10.5715C5.73117 11.8955 5.13281 13.2188 5.11101 13.2722C5.07903 13.3441 5.0625 13.422 5.0625 13.5007C5.0625 13.5794 5.07903 13.6573 5.11101 13.7292C5.13562 13.7848 5.73117 15.1052 7.05515 16.4292C8.81929 18.1927 11.0475 19.125 13.5 19.125C15.9525 19.125 18.1807 18.1927 19.9448 16.4292C21.2688 15.1052 21.8644 13.7848 21.889 13.7292C21.921 13.6573 21.9375 13.5794 21.9375 13.5007C21.9375 13.422 21.921 13.3441 21.889 13.2722ZM13.5 16.3125C12.9437 16.3125 12.4 16.1475 11.9375 15.8385C11.4749 15.5295 11.1145 15.0902 10.9016 14.5763C10.6887 14.0624 10.633 13.4969 10.7415 12.9513C10.8501 12.4057 11.1179 11.9046 11.5113 11.5113C11.9046 11.1179 12.4057 10.8501 12.9513 10.7415C13.4969 10.633 14.0624 10.6887 14.5763 10.9016C15.0902 11.1145 15.5295 11.4749 15.8385 11.9375C16.1475 12.4 16.3125 12.9437 16.3125 13.5C16.3125 14.2459 16.0162 14.9613 15.4887 15.4887C14.9613 16.0162 14.2459 16.3125 13.5 16.3125Z" fill="#343330"/>
</svg>
