<svg width="27" height="27" viewBox="0 0 27 27" fill="none" xmlns="http://www.w3.org/2000/svg">
<rect width="27" height="27" rx="13.5" fill="#A6F4C5"/>
<path d="M11.5313 7.03125C11.5313 6.64187 11.6468 6.26123 11.8631 5.93747C12.0794 5.61371 12.3869 5.36137 12.7467 5.21236C13.1064 5.06335 13.5022 5.02437 13.8841 5.10033C14.266 5.17629 14.6168 5.3638 14.8922 5.63913C15.1675 5.91447 15.355 6.26527 15.431 6.64717C15.5069 7.02907 15.468 7.42492 15.3189 7.78466C15.1699 8.1444 14.9176 8.45188 14.5938 8.66821C14.2701 8.88454 13.8894 9 13.5001 9C12.9779 9 12.4772 8.79258 12.1079 8.42337C11.7387 8.05415 11.5313 7.5534 11.5313 7.03125ZM20.5032 11.0088C20.4519 10.7568 20.3143 10.5306 20.114 10.3692C19.9138 10.2079 19.6635 10.1215 19.4063 10.125H7.59381C7.33732 10.125 7.08853 10.2126 6.88867 10.3734C6.68881 10.5341 6.54988 10.7583 6.4949 11.0089C6.43992 11.2594 6.4722 11.5212 6.58638 11.7508C6.70056 11.9805 6.88979 12.1643 7.12271 12.2716H7.12693L10.9161 13.9402L9.37482 19.7972C9.2572 20.0663 9.24946 20.3707 9.35325 20.6454C9.45704 20.9201 9.66413 21.1433 9.93029 21.2674C10.0791 21.3381 10.2416 21.3748 10.4063 21.375C10.6184 21.3753 10.8262 21.3157 11.0059 21.203C11.1855 21.0903 11.3296 20.9291 11.4216 20.738L13.5001 17.1563L15.5799 20.7422C15.7093 21.0053 15.9363 21.2076 16.2125 21.3058C16.4888 21.4041 16.7925 21.3906 17.059 21.2682C17.3255 21.1459 17.5336 20.9243 17.6392 20.6507C17.7447 20.3771 17.7392 20.0731 17.6239 19.8035L16.0826 13.9465L19.8795 12.2759C20.1151 12.1708 20.3065 11.9866 20.4205 11.7551C20.5344 11.5237 20.5637 11.2596 20.5032 11.0088Z" fill="#343330"/>
</svg>
