<svg width="27" height="27" viewBox="0 0 27 27" fill="none" xmlns="http://www.w3.org/2000/svg">
<rect width="27" height="27" rx="13.5" fill="#E1F0FF"/>
<path d="M15.7315 19.1698H18.2251C18.4757 19.1698 18.7161 19.0702 18.8933 18.893C19.0705 18.7158 19.1701 18.4754 19.1701 18.2248V16.0011C19.1697 15.9236 19.1502 15.8474 19.1134 15.7792C19.0767 15.711 19.0237 15.6529 18.9591 15.61C18.8946 15.5671 18.8205 15.5407 18.7434 15.5332C18.6662 15.5257 18.5885 15.5373 18.5169 15.567C18.3494 15.6361 18.17 15.6716 17.9888 15.6715C17.2074 15.6715 16.5713 15.0159 16.5713 14.2109C16.5713 13.4059 17.2074 12.7503 17.9888 12.7503C18.17 12.7501 18.3494 12.7856 18.5169 12.8548C18.5888 12.8846 18.667 12.8961 18.7445 12.8884C18.822 12.8807 18.8964 12.8539 18.9611 12.8104C19.0257 12.767 19.0787 12.7083 19.1151 12.6395C19.1516 12.5706 19.1705 12.4939 19.1701 12.416V10.1923C19.1701 9.94164 19.0705 9.70127 18.8933 9.52405C18.7161 9.34683 18.4757 9.24727 18.2251 9.24727H16.0859C16.0946 9.16882 16.099 9.08995 16.0988 9.01102C16.0988 8.4471 15.8748 7.90628 15.4761 7.50753C15.0773 7.10878 14.5365 6.88477 13.9726 6.88477C13.4087 6.88477 12.8679 7.10878 12.4691 7.50753C12.0704 7.90628 11.8463 8.4471 11.8463 9.01102C11.8462 9.08995 11.8505 9.16882 11.8593 9.24727H9.7201C9.46947 9.24727 9.2291 9.34683 9.05188 9.52405C8.87466 9.70127 8.7751 9.94164 8.7751 10.1923V12.0953C8.69666 12.0865 8.61778 12.0821 8.53885 12.0823C7.97493 12.0823 7.43411 12.3063 7.03536 12.705C6.63661 13.1038 6.4126 13.6446 6.4126 14.2085C6.4126 14.7724 6.63661 15.3133 7.03536 15.712C7.43411 16.1108 7.97493 16.3348 8.53885 16.3348C8.61778 16.3349 8.69666 16.3306 8.7751 16.3218V18.2248C8.7751 18.4754 8.87466 18.7158 9.05188 18.893C9.2291 19.0702 9.46947 19.1698 9.7201 19.1698H12.2137" fill="#121212"/>
</svg>
