<svg width="27" height="27" viewBox="0 0 27 27" fill="none" xmlns="http://www.w3.org/2000/svg">
<rect width="27" height="27" rx="13.5" fill="#EBDFFD"/>
<path d="M20.5891 18.2194C20.5891 18.3447 20.5393 18.4649 20.4507 18.5535C20.3621 18.6421 20.2419 18.6919 20.1166 18.6919H6.88656C6.76125 18.6919 6.64107 18.6421 6.55245 18.5535C6.46384 18.4649 6.41406 18.3447 6.41406 18.2194C6.41406 18.094 6.46384 17.9739 6.55245 17.8853C6.64107 17.7966 6.76125 17.7469 6.88656 17.7469H20.1166C20.2419 17.7469 20.3621 17.7966 20.4507 17.8853C20.5393 17.9739 20.5891 18.094 20.5891 18.2194ZM6.90428 11.7331C6.87618 11.634 6.88122 11.5285 6.91865 11.4325C6.95607 11.3366 7.02382 11.2555 7.11159 11.2016L13.2541 7.42155C13.3285 7.37579 13.4142 7.35156 13.5016 7.35156C13.5889 7.35156 13.6746 7.37579 13.749 7.42155L19.8915 11.2016C19.9793 11.2554 20.0471 11.3364 20.0846 11.4323C20.1221 11.5283 20.1272 11.6338 20.0992 11.7329C20.0712 11.832 20.0116 11.9192 19.9294 11.9813C19.8472 12.0434 19.747 12.077 19.6441 12.0769H18.2266V15.8569H19.1716C19.2969 15.8569 19.4171 15.9066 19.5057 15.9953C19.5943 16.0839 19.6441 16.204 19.6441 16.3294C19.6441 16.4547 19.5943 16.5749 19.5057 16.6635C19.4171 16.7521 19.2969 16.8019 19.1716 16.8019H7.83156C7.70625 16.8019 7.58607 16.7521 7.49745 16.6635C7.40884 16.5749 7.35906 16.4547 7.35906 16.3294C7.35906 16.204 7.40884 16.0839 7.49745 15.9953C7.58607 15.9066 7.70625 15.8569 7.83156 15.8569H8.77656V12.0769H7.35906C7.25617 12.0769 7.15608 12.0433 7.07399 11.9813C6.99191 11.9193 6.93232 11.8321 6.90428 11.7331ZM14.4466 15.3844C14.4466 15.5097 14.4963 15.6299 14.585 15.7185C14.6736 15.8071 14.7937 15.8569 14.9191 15.8569C15.0444 15.8569 15.1646 15.8071 15.2532 15.7185C15.3418 15.6299 15.3916 15.5097 15.3916 15.3844V12.5494C15.3916 12.424 15.3418 12.3039 15.2532 12.2153C15.1646 12.1266 15.0444 12.0769 14.9191 12.0769C14.7937 12.0769 14.6736 12.1266 14.585 12.2153C14.4963 12.3039 14.4466 12.424 14.4466 12.5494V15.3844ZM11.6116 15.3844C11.6116 15.5097 11.6613 15.6299 11.75 15.7185C11.8386 15.8071 11.9587 15.8569 12.0841 15.8569C12.2094 15.8569 12.3296 15.8071 12.4182 15.7185C12.5068 15.6299 12.5566 15.5097 12.5566 15.3844V12.5494C12.5566 12.424 12.5068 12.3039 12.4182 12.2153C12.3296 12.1266 12.2094 12.0769 12.0841 12.0769C11.9587 12.0769 11.8386 12.1266 11.75 12.2153C11.6613 12.3039 11.6116 12.424 11.6116 12.5494V15.3844Z" fill="#121212"/>
</svg>
