<svg width="27" height="27" viewBox="0 0 27 27" fill="none" xmlns="http://www.w3.org/2000/svg">
<rect width="27" height="27" rx="13.5" fill="#A6F4C5"/>
<path d="M11.6606 17.9401C11.3435 18.6333 10.2853 20.2505 7.31181 20.2505C7.16262 20.2505 7.01955 20.1913 6.91406 20.0858C6.80857 19.9803 6.74931 19.8372 6.74931 19.688C6.74931 16.7145 8.36649 15.6563 9.05978 15.3392C9.127 15.3085 9.1996 15.2914 9.27343 15.2888C9.34727 15.2862 9.42089 15.2982 9.4901 15.3241C9.55931 15.3499 9.62275 15.3891 9.67679 15.4395C9.73084 15.4899 9.77443 15.5504 9.80509 15.6176C9.83574 15.6849 9.85286 15.7575 9.85546 15.8313C9.85805 15.9051 9.84608 15.9787 9.82023 16.048C9.79437 16.1172 9.75514 16.1806 9.70477 16.2346C9.6544 16.2887 9.59387 16.3323 9.52665 16.3629C9.07454 16.569 8.07681 17.232 7.90103 19.0988C9.76782 18.923 10.4323 17.9253 10.6369 17.4732C10.6675 17.406 10.7111 17.3454 10.7652 17.2951C10.8192 17.2447 10.8827 17.2055 10.9519 17.1796C11.0211 17.1537 11.0947 17.1418 11.1685 17.1444C11.2424 17.147 11.315 17.1641 11.3822 17.1947C11.4494 17.2254 11.5099 17.269 11.5603 17.323C11.6107 17.3771 11.6499 17.4405 11.6758 17.5097C11.7016 17.5789 11.7136 17.6526 11.711 17.7264C11.7084 17.8002 11.6913 17.8728 11.6606 17.9401ZM20.2388 7.81505C20.2221 7.54078 20.1056 7.2821 19.9113 7.0878C19.717 6.8935 19.4583 6.77703 19.1841 6.76037C18.2995 6.70763 16.039 6.78849 14.1638 8.66373L10.6868 12.1435C10.6346 12.1958 10.5726 12.2373 10.5043 12.2657C10.4361 12.294 10.3629 12.3086 10.289 12.3087C10.1397 12.3088 9.99651 12.2497 9.89087 12.1442C9.78523 12.0387 9.72581 11.8956 9.72567 11.7464C9.72554 11.5971 9.78471 11.4539 9.89017 11.3483L11.7577 9.48005C11.7968 9.44073 11.8234 9.39072 11.8341 9.33632C11.8449 9.28192 11.8393 9.22555 11.8181 9.1743C11.7969 9.12306 11.7611 9.07922 11.715 9.0483C11.669 9.01738 11.6148 9.00076 11.5594 9.00052H9.72704C9.57885 8.99974 9.43198 9.02843 9.29498 9.08492C9.15797 9.14141 9.03357 9.22458 8.92899 9.32959L6.51728 11.7427C6.36937 11.8905 6.26559 12.0766 6.21757 12.2801C6.16955 12.4836 6.1792 12.6965 6.24543 12.8948C6.31166 13.0932 6.43185 13.2691 6.59252 13.4029C6.75319 13.5367 6.94797 13.6231 7.15501 13.6524L9.85993 14.03L12.9684 17.1385L13.346 19.8448C13.3751 20.0519 13.4614 20.2467 13.5954 20.4072C13.7293 20.5677 13.9055 20.6876 14.104 20.7533C14.2196 20.7919 14.3407 20.8116 14.4626 20.8116C14.6102 20.8119 14.7564 20.783 14.8927 20.7265C15.0291 20.67 15.1529 20.5871 15.2571 20.4826L17.6702 18.0708C17.7749 17.966 17.8579 17.8416 17.9144 17.7046C17.9708 17.5677 17.9997 17.4209 17.9993 17.2728V15.4404C17.9992 15.3848 17.9826 15.3305 17.9517 15.2843C17.9207 15.2382 17.8768 15.2022 17.8254 15.181C17.774 15.1597 17.7175 15.1542 17.663 15.1651C17.6084 15.176 17.5584 15.2028 17.5191 15.2422L15.6509 17.1097C15.5962 17.1644 15.5309 17.2072 15.459 17.2355C15.387 17.2638 15.31 17.277 15.2328 17.2743C15.1555 17.2715 15.0796 17.2528 15.0099 17.2194C14.9402 17.186 14.8781 17.1386 14.8275 17.0801C14.7352 16.9685 14.6884 16.8263 14.6962 16.6817C14.704 16.5371 14.7659 16.4007 14.8697 16.2997L18.334 12.8354C20.2106 10.9594 20.2915 8.69888 20.2388 7.81365V7.81505Z" fill="#343330"/>
</svg>
