<svg width="27" height="27" viewBox="0 0 27 27" fill="none" xmlns="http://www.w3.org/2000/svg">
<rect width="27" height="27" rx="13.5" fill="#FFEAD5"/>
<path d="M18.6982 13.6283C18.7005 13.5432 18.7005 13.4582 18.6982 13.3731L19.5794 12.2722C19.6256 12.2144 19.6576 12.1465 19.6728 12.0741C19.6879 12.0017 19.6859 11.9267 19.6668 11.8552C19.5221 11.3123 19.306 10.7909 19.0242 10.3048C18.9873 10.2412 18.936 10.1871 18.8745 10.1468C18.813 10.1065 18.7429 10.0811 18.6698 10.0727L17.2689 9.91676C17.2106 9.85534 17.1515 9.79628 17.0917 9.73958L16.9263 8.33507C16.9178 8.26196 16.8923 8.19184 16.8519 8.13032C16.8115 8.06879 16.7573 8.01756 16.6936 7.9807C16.2075 7.69911 15.6861 7.48342 15.1432 7.33928C15.0717 7.32018 14.9967 7.31813 14.9243 7.33332C14.8519 7.3485 14.784 7.38048 14.7262 7.42669L13.6283 8.30318C13.5432 8.30318 13.4582 8.30318 13.3731 8.30318L12.2722 7.42374C12.2144 7.37753 12.1465 7.34555 12.0741 7.33036C12.0017 7.31518 11.9267 7.31722 11.8552 7.33632C11.3123 7.48104 10.7909 7.69713 10.3048 7.97892C10.2412 8.01585 10.1871 8.06712 10.1468 8.12864C10.1065 8.19016 10.0811 8.26024 10.0727 8.3333L9.91676 9.73662C9.85534 9.79529 9.79628 9.85435 9.73958 9.91381L8.33507 10.0751C8.26196 10.0836 8.19184 10.109 8.13032 10.1494C8.06879 10.1898 8.01756 10.244 7.9807 10.3078C7.69917 10.7939 7.48329 11.3153 7.33869 11.8581C7.31967 11.9297 7.31772 12.0047 7.33301 12.0771C7.34829 12.1496 7.38038 12.2174 7.42669 12.2751L8.30318 13.3731C8.30318 13.4582 8.30318 13.5432 8.30318 13.6283L7.42374 14.7292C7.37753 14.787 7.34555 14.8548 7.33036 14.9273C7.31518 14.9997 7.31722 15.0747 7.33632 15.1462C7.48104 15.6891 7.69713 16.2104 7.97892 16.6965C8.01585 16.7601 8.06712 16.8142 8.12864 16.8545C8.19016 16.8948 8.26024 16.9202 8.3333 16.9287L9.73426 17.0846C9.79293 17.146 9.85199 17.2051 9.91145 17.2618L10.0751 18.6663C10.0836 18.7394 10.109 18.8095 10.1494 18.871C10.1898 18.9326 10.244 18.9838 10.3078 19.0207C10.7939 19.3022 11.3153 19.5181 11.8581 19.6627C11.9297 19.6817 12.0047 19.6836 12.0771 19.6683C12.1496 19.6531 12.2174 19.621 12.2751 19.5747L13.3731 18.6982C13.4582 18.7005 13.5432 18.7005 13.6283 18.6982L14.7292 19.5794C14.787 19.6256 14.8548 19.6576 14.9273 19.6728C14.9997 19.6879 15.0747 19.6859 15.1462 19.6668C15.6892 19.5223 16.2106 19.3062 16.6965 19.0242C16.7601 18.9873 16.8142 18.936 16.8545 18.8745C16.8948 18.813 16.9202 18.7429 16.9287 18.6698L17.0846 17.2689C17.146 17.2106 17.2051 17.1515 17.2618 17.0917L18.6663 16.9263C18.7394 16.9178 18.8095 16.8923 18.871 16.8519C18.9326 16.8115 18.9838 16.7573 19.0207 16.6936C19.3022 16.2074 19.5181 15.6861 19.6627 15.1432C19.6817 15.0717 19.6836 14.9967 19.6683 14.9242C19.6531 14.8518 19.621 14.784 19.5747 14.7262L18.6982 13.6283ZM13.5007 15.8632C13.0334 15.8632 12.5767 15.7246 12.1881 15.465C11.7996 15.2054 11.4968 14.8365 11.318 14.4048C11.1392 13.9731 11.0924 13.4981 11.1836 13.0398C11.2747 12.5815 11.4997 12.1605 11.8301 11.8301C12.1605 11.4997 12.5815 11.2747 13.0398 11.1836C13.4981 11.0924 13.9731 11.1392 14.4048 11.318C14.8365 11.4968 15.2054 11.7996 15.465 12.1881C15.7246 12.5767 15.8632 13.0334 15.8632 13.5007C15.8632 14.1273 15.6143 14.7282 15.1712 15.1712C14.7282 15.6143 14.1273 15.8632 13.5007 15.8632Z" fill="#121212"/>
</svg>
