<svg width="27" height="27" viewBox="0 0 27 27" fill="none" xmlns="http://www.w3.org/2000/svg">
<rect width="27" height="27" rx="13.5" fill="#E1F0FF"/>
<path d="M20.1017 18.2211H19.1726V11.6062C19.1726 11.3555 19.073 11.1152 18.8958 10.9379C18.7186 10.7607 18.4782 10.6611 18.2276 10.6611H15.6288C15.5662 10.6611 15.5061 10.686 15.4618 10.7303C15.4175 10.7747 15.3926 10.8347 15.3926 10.8974V18.2211H14.4476V7.85037C14.4492 7.70317 14.4172 7.55755 14.3542 7.42452C14.2912 7.2915 14.1987 7.17456 14.0838 7.08255C13.9271 6.96043 13.736 6.89077 13.5375 6.88345C13.3391 6.87614 13.1433 6.93154 12.9781 7.0418L8.25313 10.1886C8.12351 10.2751 8.01728 10.3923 7.94391 10.5298C7.87054 10.6672 7.8323 10.8207 7.8326 10.9765V18.2211H6.90355C6.78145 18.2193 6.66319 18.2638 6.57257 18.3457C6.48195 18.4276 6.42569 18.5407 6.4151 18.6623C6.41081 18.727 6.41985 18.7918 6.44167 18.8528C6.46349 18.9138 6.49761 18.9696 6.54192 19.0169C6.58623 19.0641 6.63978 19.1018 6.69925 19.1274C6.75872 19.1531 6.82283 19.1663 6.8876 19.1661H20.1176C20.1824 19.1663 20.2465 19.1531 20.306 19.1274C20.3654 19.1018 20.419 19.0641 20.4633 19.0169C20.5076 18.9696 20.5417 18.9138 20.5635 18.8528C20.5853 18.7918 20.5944 18.727 20.5901 18.6623C20.5795 18.5407 20.5233 18.4276 20.4326 18.3457C20.342 18.2638 20.2238 18.2193 20.1017 18.2211ZM10.4314 16.8036C10.4315 16.8684 10.4183 16.9325 10.3926 16.992C10.367 17.0515 10.3293 17.105 10.2821 17.1493C10.2348 17.1936 10.179 17.2278 10.118 17.2496C10.057 17.2714 9.99218 17.2804 9.92755 17.2761C9.80579 17.2656 9.69257 17.2092 9.6107 17.1185C9.52883 17.0277 9.4844 16.9093 9.48635 16.7871V15.8746C9.48469 15.7525 9.52924 15.6344 9.61106 15.5438C9.69289 15.4532 9.80594 15.3969 9.92755 15.3861C9.99218 15.3819 10.057 15.3909 10.118 15.4127C10.179 15.4345 10.2348 15.4687 10.2821 15.513C10.3293 15.5573 10.367 15.6108 10.3926 15.6703C10.4183 15.7298 10.4315 15.7939 10.4314 15.8586V16.8036ZM10.4314 13.4961C10.4315 13.5609 10.4183 13.625 10.3926 13.6845C10.367 13.744 10.3293 13.7975 10.2821 13.8418C10.2348 13.8861 10.179 13.9203 10.118 13.9421C10.057 13.9639 9.99218 13.9729 9.92755 13.9686C9.80584 13.9579 9.6927 13.9015 9.61086 13.8108C9.52902 13.7201 9.48454 13.6018 9.48635 13.4796V12.5671C9.48469 12.445 9.52924 12.3269 9.61106 12.2363C9.69289 12.1457 9.80594 12.0894 9.92755 12.0786C9.99218 12.0744 10.057 12.0834 10.118 12.1052C10.179 12.127 10.2348 12.1612 10.2821 12.2055C10.3293 12.2498 10.367 12.3033 10.3926 12.3628C10.4183 12.4223 10.4315 12.4864 10.4314 12.5511V13.4961ZM12.7939 16.8036C12.794 16.8684 12.7808 16.9325 12.7551 16.992C12.7295 17.0515 12.6918 17.105 12.6446 17.1493C12.5973 17.1936 12.5415 17.2278 12.4805 17.2496C12.4195 17.2714 12.3547 17.2804 12.29 17.2761C12.1685 17.2656 12.0554 17.2094 11.9736 17.1189C11.8918 17.0284 11.8472 16.9103 11.8489 16.7883V15.8746C11.8473 15.7526 11.892 15.6346 11.9738 15.5441C12.0556 15.4537 12.1685 15.3975 12.29 15.3867C12.3547 15.3824 12.4195 15.3915 12.4805 15.4133C12.5415 15.4351 12.5973 15.4692 12.6446 15.5136C12.6918 15.5579 12.7295 15.6114 12.7551 15.6709C12.7808 15.7304 12.794 15.7945 12.7939 15.8592V16.8036ZM12.7939 13.4961C12.794 13.5609 12.7808 13.625 12.7551 13.6845C12.7295 13.744 12.6918 13.7975 12.6446 13.8418C12.5973 13.8861 12.5415 13.9203 12.4805 13.9421C12.4195 13.9639 12.3547 13.9729 12.29 13.9686C12.1685 13.9579 12.0556 13.9017 11.9738 13.8113C11.892 13.7208 11.8473 13.6028 11.8489 13.4808V12.5671C11.8473 12.4451 11.892 12.3271 11.9738 12.2366C12.0556 12.1462 12.1685 12.09 12.29 12.0792C12.3547 12.0749 12.4195 12.084 12.4805 12.1058C12.5415 12.1276 12.5973 12.1617 12.6446 12.2061C12.6918 12.2504 12.7295 12.3039 12.7551 12.3634C12.7808 12.4229 12.794 12.487 12.7939 12.5517V13.4961Z" fill="#121212"/>
</svg>
