<svg width="48" height="48" viewBox="0 0 48 48" fill="none" xmlns="http://www.w3.org/2000/svg">
<g clip-path="url(#clip0_9900_26604)">
<rect width="48" height="48" fill="white"/>
<path opacity="0.58" d="M48 0H0V48H48V0Z" fill="white"/>
<path d="M34 6H14C10.68 6 8 8.68 8 12V13.68C8 15.22 7.76 16.74 7.26 18.2C6.5 20.46 4.38 22 2 22V26C4.38 26 6.5 27.52 7.26 29.8C7.74 31.26 8 32.8 8 34.32V36C8 39.32 10.68 42 14 42H34C37.32 42 40 39.32 40 36V34.32C40 32.78 40.24 31.26 40.74 29.8C41.5 27.54 43.62 26 46 26V22C43.62 22 41.5 20.48 40.74 18.2C40.26 16.74 40 15.2 40 13.68V12C40 8.68 37.32 6 34 6Z" fill="#8A13FB"/>
<path d="M25.34 33.8318H19.5C18.68 33.8318 18 33.1518 18 32.3318V15.6719C18 14.8519 18.68 14.1719 19.5 14.1719H25.34C28.46 14.1719 31 16.7119 31 19.8319C31 21.4718 30.3 22.9718 29.16 23.9918C30.28 25.0318 31 26.5118 31 28.1518C31 31.2918 28.46 33.8318 25.34 33.8318ZM21 30.8318H25.34C26.82 30.8318 28 29.6318 28 28.1718C28 26.7118 26.8 25.5118 25.34 25.5118H21V30.8318ZM21 22.4918H25.34C26.82 22.4918 28 21.2918 28 19.8319C28 18.3719 26.8 17.1719 25.34 17.1719H21V22.4918Z" fill="white"/>
</g>
<defs>
<clipPath id="clip0_9900_26604">
<rect width="48" height="48" fill="white"/>
</clipPath>
</defs>
</svg>
