<svg width="48" height="48" viewBox="0 0 48 48" fill="none" xmlns="http://www.w3.org/2000/svg">
<path d="M7.05541 42.7969L3.28516 0.507812H44.7152L40.9412 42.7906L23.975 47.4942L7.05541 42.7969Z" fill="#1572B6"/>
<path d="M24 43.9025L37.7096 40.1015L40.935 3.96875H24V43.9025Z" fill="#33A9DC"/>
<path d="M24 19.2868H30.8633L31.3373 13.9757H24V8.78906H37.0057L36.8812 10.1807L35.6062 24.4734H24V19.2868Z" fill="white"/>
<path d="M24.0304 32.752L24.0075 32.7587L18.2314 31.1991L17.862 27.0625H12.6562L13.3826 35.2064L24.0067 38.155L24.0304 38.1482V32.752Z" fill="#EBEBEB"/>
<path d="M30.4232 24.25L29.7984 31.1957L24.0137 32.7572V38.1535L34.6464 35.2067L34.7244 34.3304L35.6267 24.25H30.4232Z" fill="white"/>
<path d="M24.0176 8.78906V13.9757H11.4896L11.3858 12.8102L11.1495 10.1807L11.0254 8.78906H24.0176ZM24 19.2876V24.4742H18.2966L18.1928 23.3087L17.9561 20.6792L17.8324 19.2876H24Z" fill="#EBEBEB"/>
</svg>
