<svg width="48" height="48" viewBox="0 0 48 48" fill="none" xmlns="http://www.w3.org/2000/svg">
<path d="M8.85292 40.8015L5.48242 3H42.5174L39.1424 40.7955L23.9774 45L8.85292 40.8015Z" fill="#E44F26"/>
<path d="M24 41.7893L36.255 38.3918L39.138 6.09375H24V41.7893Z" fill="#F1662A"/>
<path d="M24 20.1027H17.865L17.442 15.3552H24V10.7188H23.9835H12.375L12.486 11.9637L13.6245 24.7392H24V20.1027Z" fill="#EBEBEB"/>
<path d="M24.0005 32.1553L23.9795 32.1613L18.8165 30.7678L18.4865 27.0703H15.977H13.832L14.4815 34.3483L23.9795 36.9853L24.0005 36.9793V32.1553Z" fill="#EBEBEB"/>
<path d="M23.9844 20.1094V24.7459H29.6934L29.1564 30.7594L23.9844 32.1544V36.9784L33.4899 34.3429L33.5589 33.5599L34.6479 21.3544L34.7619 20.1094H33.5124H23.9844Z" fill="white"/>
<path d="M23.9844 10.7266V13.6066V15.3526V15.3631H35.1684H35.1834L35.2764 14.3221L35.4879 11.9716L35.5989 10.7266H23.9844Z" fill="white"/>
</svg>
