<svg width="48" height="48" viewBox="0 0 48 48" fill="none" xmlns="http://www.w3.org/2000/svg">
<g clip-path="url(#clip0_9900_26600)">
<path d="M0 0H48V48H0V0Z" fill="#F7DF1E"/>
<path d="M12.6212 40.1147L16.2945 37.8917C17.0031 39.1482 17.6478 40.2113 19.194 40.2113C20.6763 40.2113 21.6107 39.6314 21.6107 37.3762V22.0391H26.1215V37.44C26.1215 42.112 23.3829 44.2385 19.3874 44.2385C15.779 44.2385 13.6843 42.3697 12.6211 40.1143" fill="black"/>
<path d="M28.5723 39.6315L32.2451 37.5049C33.212 39.0839 34.4686 40.2437 36.6917 40.2437C38.5607 40.2437 39.7525 39.3093 39.7525 38.0204C39.7525 36.4738 38.5282 35.926 36.4661 35.0241L35.3387 34.5405C32.0842 33.1553 29.9253 31.4154 29.9253 27.7422C29.9253 24.359 32.5029 21.7812 36.5307 21.7812C39.3983 21.7812 41.4604 22.7802 42.9424 25.3901L39.4303 27.6454C38.657 26.26 37.8195 25.7124 36.5307 25.7124C35.2097 25.7124 34.3719 26.5501 34.3719 27.6454C34.3719 28.9987 35.2097 29.5466 37.1427 30.3844L38.2703 30.8676C42.1046 32.511 44.2635 34.1863 44.2635 37.956C44.2635 42.016 41.0737 44.239 36.7884 44.239C32.5998 44.239 29.8931 42.2414 28.5723 39.6315Z" fill="black"/>
</g>
<defs>
<clipPath id="clip0_9900_26600">
<rect width="48" height="48" fill="white"/>
</clipPath>
</defs>
</svg>
