<svg width="48" height="48" viewBox="0 0 48 48" fill="none" xmlns="http://www.w3.org/2000/svg">
<g clip-path="url(#clip0_9900_26574)">
<path d="M40.8 0H7.2C3.22355 0 0 3.22355 0 7.2V40.8C0 44.7765 3.22355 48 7.2 48H40.8C44.7765 48 48 44.7765 48 40.8V7.2C48 3.22355 44.7765 0 40.8 0Z" fill="white"/>
<path d="M24 27.375C25.864 27.375 27.375 25.864 27.375 24C27.375 22.136 25.864 20.625 24 20.625C22.136 20.625 20.625 22.136 20.625 24C20.625 25.864 22.136 27.375 24 27.375Z" fill="#61DAFB"/>
<path d="M29.7628 27.3218C31.9702 23.3475 33.4419 19.2526 33.8541 15.9379C34.2664 12.6231 33.5855 10.3599 31.9612 9.64612C30.3369 8.93231 27.9023 9.82635 25.1927 12.1316C22.4832 14.4368 19.7207 17.9644 17.5129 21.9385C15.305 25.9126 13.8327 30.0077 13.4196 33.3231C13.0066 36.6385 13.6867 38.9027 15.3104 39.6176C16.9341 40.3325 19.3683 39.4397 22.0777 37.1354C24.7872 34.8311 27.5498 31.3041 29.7581 27.3302L29.7628 27.3218ZM18.2419 27.3302C20.4502 31.3041 23.2128 34.8311 25.9223 37.1354C28.6317 39.4397 31.0659 40.3325 32.6896 39.6176C34.3133 38.9027 34.9934 36.6385 34.5804 33.3231C34.1673 30.0077 32.695 25.9126 30.4871 21.9385C28.2793 17.9644 25.5168 14.4368 22.8073 12.1316C20.0977 9.82635 17.6631 8.93231 16.0388 9.64612C14.4145 10.3599 13.7336 12.6231 14.1459 15.9379C14.5581 19.2526 16.0298 23.3475 18.2372 27.3218L18.2419 27.3302ZM24.0047 30.6518C28.5544 30.6513 32.9173 29.9497 36.1338 28.7012C39.3503 27.4528 41.1569 25.7598 41.1562 23.9946C41.1556 22.2294 39.3478 20.5366 36.1305 19.2885C32.9131 18.0404 28.5497 17.3393 24 17.3393C19.4503 17.3393 15.0869 18.0404 11.8695 19.2885C8.65217 20.5366 6.84437 22.2294 6.84375 23.9946C6.84313 25.7598 8.64974 27.4528 11.8662 28.7012C15.0827 29.9497 19.4456 30.6513 23.9953 30.6518H24.0047Z" stroke="#61DAFB" stroke-width="1.6875"/>
</g>
<defs>
<clipPath id="clip0_9900_26574">
<rect width="48" height="48" fill="white"/>
</clipPath>
</defs>
</svg>
