<svg width="48" height="48" viewBox="0 0 48 48" fill="none" xmlns="http://www.w3.org/2000/svg">
<path d="M24 9.60156C17.6 9.60156 13.6 12.8016 12 19.2016C14.4 16.0016 17.2 14.8016 20.4 15.6016C22.2258 16.058 23.5308 17.3825 24.9752 18.8488C27.3283 21.2372 30.0516 24.0016 36 24.0016C42.4 24.0016 46.4 20.8016 48 14.4016C45.6 17.6016 42.8 18.8016 39.6 18.0016C37.7742 17.5451 36.4692 16.2206 35.0248 14.7544C32.6717 12.3659 29.9484 9.60156 24 9.60156ZM12 24.0016C5.6 24.0016 1.6 27.2016 0 33.6016C2.4 30.4016 5.2 29.2016 8.4 30.0016C10.2258 30.458 11.5308 31.7825 12.9752 33.2488C15.3283 35.6372 18.0516 38.4016 24 38.4016C30.4 38.4016 34.4 35.2016 36 28.8016C33.6 32.0016 30.8 33.2016 27.6 32.4016C25.7742 31.9451 24.4692 30.6206 23.0248 29.1544C20.6717 26.7659 17.9484 24.0016 12 24.0016Z" fill="url(#paint0_linear_9900_26583)"/>
<defs>
<linearGradient id="paint0_linear_9900_26583" x1="-341.333" y1="1428.87" x2="11420" y2="5508.26" gradientUnits="userSpaceOnUse">
<stop stop-color="#2298BD"/>
<stop offset="1" stop-color="#0ED7B5"/>
</linearGradient>
</defs>
</svg>
