<svg width="33" height="32" viewBox="0 0 33 32" fill="none" xmlns="http://www.w3.org/2000/svg">
<g id="Group 1000002841">
<path id="Vector" d="M30.3757 8.82031H29.498V10.7657H30.3757V8.82031Z" fill="#080808"/>
<g id="Group 1000002840">
<g id="Group">
<path id="Vector_2" d="M27.3473 23.7104C26.3729 25.0944 25.4197 26.449 24.4672 27.8036C23.7496 28.8242 23.039 29.8505 22.3131 30.8653C21.7106 31.7074 20.5534 31.6581 20.0978 30.7802C19.8828 30.3669 19.9008 29.9535 20.1325 29.5511C20.2014 29.4314 20.2838 29.3201 20.3726 29.1851C20.2426 29.1089 20.1126 29.1383 19.9922 29.1383C16.8688 29.1364 13.7448 29.1371 10.6213 29.1358C10.492 29.1358 10.3613 29.1345 10.2339 29.1147C10.0209 29.0814 9.9108 28.9355 9.91016 28.7327C9.90952 28.5266 10.0369 28.3916 10.2371 28.3468C10.3407 28.3238 10.4521 28.3328 10.5602 28.3328C13.9108 28.3328 17.2614 28.3296 20.612 28.3379C20.8759 28.3385 21.0362 28.2688 21.1925 28.0455C23.1948 25.1802 25.2074 22.3219 27.2231 19.4656C27.3576 19.2749 27.4239 19.1009 27.413 18.8533C27.3821 18.1347 27.402 17.4142 27.402 16.6944C27.402 14.3736 27.402 12.0529 27.402 9.73209C27.402 9.63547 27.3943 9.53693 27.4098 9.44287C27.4471 9.2138 27.5848 9.06216 27.8223 9.06855C28.0424 9.07495 28.1731 9.22276 28.2046 9.43903C28.2201 9.54461 28.2143 9.65339 28.2143 9.76088C28.2143 12.3715 28.2143 14.9828 28.2162 17.5934C28.2162 17.7054 28.1821 17.8244 28.2696 17.9683C28.4466 17.7182 28.621 17.4916 28.7742 17.2517C29.1771 16.6189 29.7074 16.1332 30.3832 15.7979C30.6819 15.6495 30.9657 15.4703 31.256 15.3065C31.4188 15.2144 31.5855 15.1939 31.7412 15.3136C31.8828 15.4223 31.9176 15.5708 31.8835 15.7455C31.7805 16.2714 31.6968 16.8012 31.5829 17.3253C31.4909 17.7495 31.2791 18.1245 31.0288 18.4796C30.1412 19.7363 29.2601 20.9974 28.37 22.2522C28.258 22.4096 28.2104 22.5664 28.2117 22.7583C28.2175 24.2946 28.2156 25.8309 28.2143 27.3679C28.2136 28.5228 27.5971 29.1339 26.4328 29.1383C26.1084 29.1396 25.784 29.1435 25.4603 29.1351C25.2048 29.1287 25.0168 29.0187 24.9969 28.7416C24.9802 28.5062 25.1784 28.3411 25.479 28.336C25.8786 28.3289 26.279 28.3411 26.6786 28.3302C27.0873 28.3187 27.3892 28.0448 27.393 27.6468C27.4046 26.3684 27.3982 25.09 27.3969 23.8115C27.3969 23.7936 27.3802 23.7763 27.348 23.7123L27.3473 23.7104Z" fill="#080808"/>
<path id="Vector_3" d="M14.0868 22.3496C14.0868 21.9094 14.0777 21.4686 14.09 21.0283C14.0971 20.7737 13.9979 20.6118 13.7817 20.4768C12.0343 19.3826 11.0451 17.8022 10.8018 15.7719C10.4472 12.8062 12.4835 9.88585 15.4197 9.11546C19.0721 8.15696 22.7677 10.5308 23.2723 14.2446C23.6269 16.852 22.6242 18.9245 20.4378 20.4166C20.2396 20.5516 20.0517 20.6611 20.0221 20.9445C19.9995 21.1608 19.8142 21.2638 19.5876 21.2325C19.3547 21.2005 19.2543 21.0431 19.2568 20.8255C19.2633 20.361 19.5168 20.0506 19.9017 19.8164C21.1136 19.0774 21.9265 18.0268 22.3281 16.6728C23.2858 13.4435 21.0853 10.1399 17.7173 9.73933C14.4414 9.34965 11.4982 11.9616 11.5728 15.237C11.616 17.1201 12.4372 18.6398 14.0256 19.6789C14.6396 20.0807 14.9395 20.5331 14.8771 21.2651C14.8314 21.8038 14.8681 21.8115 15.4074 21.8058C15.9468 21.8006 15.8779 21.8902 15.885 21.3246C15.8869 21.1525 15.8818 20.981 15.8856 20.8089C15.8966 20.3661 15.7228 20.0263 15.354 19.7691C14.8282 19.4025 14.3867 18.9469 14.0121 18.4273C13.8538 18.2085 13.8029 17.9961 14.0282 17.8009C14.2245 17.6313 14.453 17.6915 14.6551 17.9653C14.9962 18.4292 15.3978 18.8304 15.8663 19.1664C16.4256 19.5669 16.6927 20.1121 16.6818 20.7954C16.6792 20.9458 16.6818 21.0962 16.6818 21.2465C16.6818 21.8198 16.8201 21.9222 17.4 21.8096C17.5474 21.7808 17.5281 21.6919 17.5288 21.5991C17.5307 21.2984 17.53 20.9976 17.53 20.6963C17.53 20.0858 17.7765 19.5938 18.2631 19.2252C18.7902 18.8259 19.2749 18.387 19.6391 17.8284C20.1315 17.0734 20.2055 16.2633 19.9352 15.4232C19.6507 14.537 18.7246 14.1761 17.8982 14.6048C17.5809 14.7692 17.3775 14.7449 17.2494 14.5261C17.1175 14.3002 17.2147 14.0814 17.5268 13.9054C18.8082 13.183 20.3902 13.9106 20.7661 15.3938C21.1426 16.8801 20.6322 18.0927 19.5876 19.1331C19.3521 19.3679 19.0934 19.5835 18.8256 19.7819C18.4768 20.041 18.2991 20.3712 18.3146 20.8012C18.3262 21.1211 18.1814 21.5332 18.3693 21.7367C18.5611 21.9446 18.9814 21.7827 19.3012 21.8045C19.4197 21.8122 19.5387 21.8045 19.6578 21.8077C19.8927 21.8134 20.0388 21.9561 20.0401 22.1666C20.0446 22.8302 20.1276 23.5008 19.9584 24.1553C19.6694 25.27 18.7246 26.0397 17.5429 26.1088C17.0164 26.1395 16.4855 26.1549 15.9667 26.0039C14.8707 25.6852 14.1125 24.7101 14.0913 23.5731C14.0835 23.1648 14.09 22.7566 14.09 22.3484C14.0887 22.3484 14.088 22.3484 14.0868 22.3484V22.3496Z" fill="#080808"/>
<path id="Vector_4" d="M32.4989 6.83982C32.4989 7.22629 32.5028 7.61277 32.4976 7.9986C32.4937 8.34413 32.3625 8.48042 32.0188 8.52329C31.0984 8.63718 30.1781 8.75236 29.2577 8.86753C28.878 8.91552 28.7055 8.78883 28.6913 8.40683C28.6823 8.15985 28.6238 8.07603 28.3489 8.12593C27.6815 8.24751 27.007 8.33325 26.3338 8.42539C26.16 8.44906 26.0815 8.50153 26.0751 8.70117C26.0616 9.11835 26.012 9.53554 25.9657 9.95145C25.8833 10.6918 25.3948 11.2171 24.6649 11.3585C24.4004 11.4097 24.1353 11.4558 23.8701 11.5025C23.4962 11.5684 23.343 11.482 23.2677 11.116C23.0707 10.153 22.7007 9.25336 22.2817 8.36908C22.0307 7.83928 21.6464 7.46176 21.1052 7.23077C19.9435 6.7336 18.7361 6.37656 17.5126 6.07327C16.961 5.93698 16.5336 5.69063 16.3998 5.09301C16.3348 4.80187 16.3914 4.53377 16.5433 4.2919C16.6366 4.14346 16.5974 4.08907 16.4693 3.99245C15.9151 3.57654 15.8591 2.90917 16.3296 2.39153C16.7274 1.95322 17.1367 1.52452 17.539 1.08941C17.9406 0.655591 18.4336 0.514822 19.0077 0.628717C19.0501 0.637035 19.0926 0.645993 19.1338 0.65815C19.6423 0.807877 20.0793 0.818115 20.4686 0.331183C20.7325 0.00165588 21.1908 -0.0488929 21.6117 0.0368481C22.9246 0.304309 24.1616 0.777164 25.2583 1.54563C25.7391 1.8822 26.2141 2.0492 26.7946 1.95386C27.1345 1.89756 27.4814 1.88092 27.8257 1.85532C27.9814 1.84381 28.0548 1.79326 28.0406 1.6205C28.0188 1.34984 28.1604 1.20267 28.4339 1.17324C29.3884 1.07086 30.3422 0.959523 31.2973 0.863545C31.7066 0.822594 31.8296 0.927531 31.9171 1.33896C32.2518 2.91877 32.367 4.52289 32.441 6.1315C32.4519 6.36696 32.4423 6.60371 32.4423 6.83982C32.4603 6.83982 32.4789 6.83982 32.497 6.83982H32.4989Z" fill="#080808"/>
<path id="Vector_5" d="M9.63734 25.7454C9.5511 25.7454 9.46421 25.7466 9.37797 25.7454C8.91801 25.739 8.63182 25.9512 8.5194 26.382C8.38167 26.9105 8.25295 27.4423 8.10235 27.967C8.05279 28.1397 8.06759 28.2159 8.25745 28.2594C8.80259 28.3848 8.85665 28.484 8.72793 29.0138C8.52326 29.8571 8.32182 30.7011 8.11779 31.545C8.02769 31.9168 7.90733 32.0345 7.56815 31.9917C5.33163 31.7127 3.10218 31.3902 0.948036 30.6927C0.500731 30.5481 0.442163 30.44 0.541278 29.9812C0.733073 29.0912 0.93259 28.2024 1.12567 27.3124C1.18874 27.0225 1.32648 26.835 1.65922 26.8977C1.83171 26.9304 1.87869 26.8542 1.90636 26.6962C1.99454 26.2003 2.09816 25.7076 2.20371 25.2149C2.26678 24.9174 2.15029 24.6678 2.01385 24.4209C1.33549 23.193 0.924223 21.8851 0.778769 20.4896C0.715695 19.883 0.910707 19.4037 1.40435 19.0684C1.6811 18.881 1.74675 18.6685 1.68947 18.3633C1.64828 18.1432 1.64828 17.9148 1.63862 17.6896C1.61803 17.2161 1.80081 16.8257 2.17217 16.5378C2.64007 16.1744 3.11441 15.818 3.60226 15.4814C4.14482 15.1071 4.80516 15.2203 5.20934 15.7508C5.31682 15.8922 5.38247 15.9107 5.54337 15.8327C6.39679 15.4193 7.0906 15.8167 7.21481 16.7541C7.38601 18.0511 7.61964 19.3365 7.99229 20.5945C8.16864 21.1896 8.51618 21.6362 9.05037 21.9606C9.88191 22.4648 10.736 22.9159 11.6628 23.223C12.0032 23.3357 12.0875 23.4975 11.9929 23.8354C11.9176 24.1035 11.8327 24.369 11.7451 24.6339C11.5096 25.3474 10.9477 25.7511 10.187 25.7575C10.0036 25.7594 9.81948 25.7575 9.63606 25.7575C9.63606 25.753 9.63606 25.7486 9.63606 25.7441L9.63734 25.7454Z" fill="#080808"/>
<path id="Vector_6" d="M6.19533 11.0413C6.19533 10.0419 6.20048 9.04306 6.19147 8.0436C6.18889 7.78894 6.26741 7.5957 6.45084 7.41526C7.93371 5.95703 9.41142 4.49303 10.8853 3.02584C11.0494 2.86267 11.22 2.78461 11.4562 2.78717C12.4718 2.79741 13.488 2.79293 14.5043 2.79037C14.7057 2.79037 14.8608 2.84988 14.9522 3.03991C15.0224 3.1858 14.9825 3.31121 14.8956 3.43087C14.7842 3.58315 14.6175 3.57548 14.4547 3.57548C13.6335 3.57548 12.8116 3.58443 11.9903 3.57036C11.749 3.56588 11.6776 3.63178 11.6814 3.87557C11.6956 4.82064 11.6898 5.76635 11.6866 6.71206C11.6833 7.6117 11.0957 8.20741 10.1908 8.21637C9.25052 8.22532 8.31021 8.233 7.36991 8.21061C7.05583 8.20293 7.00048 8.31106 7.00241 8.5926C7.01399 10.3976 7.0082 12.2027 7.0082 14.0077C7.0082 14.0832 7.01078 14.1581 7.00756 14.2336C6.9934 14.5426 6.84666 14.716 6.60209 14.716C6.35752 14.716 6.20048 14.5433 6.19855 14.233C6.19275 13.1695 6.19662 12.1054 6.19597 11.042L6.19533 11.0413Z" fill="#080808"/>
<path id="Vector_7" d="M15.1301 16.5277C15.1121 16.0939 15.2505 15.7016 15.477 15.3414C15.5897 15.1622 15.5665 15.1085 15.3515 15.1002C14.6938 15.0739 14.2368 15.4515 14.1564 16.1105C14.1345 16.2916 14.1377 16.4759 14.11 16.6557C14.0778 16.8623 13.9459 16.9762 13.7309 16.9807C13.5134 16.9852 13.3892 16.863 13.337 16.6665C13.0712 15.662 13.9491 14.4315 14.9982 14.3355C16.4309 14.2044 17.5597 15.47 17.31 16.9308C17.283 17.0888 17.2521 17.2488 17.198 17.3992C17.059 17.7857 16.7848 18.025 16.3678 18.0672C15.9276 18.1113 15.5839 17.9399 15.3734 17.5489C15.2029 17.2328 15.1128 16.8918 15.1301 16.5283V16.5277Z" fill="#080808"/>
<path id="Vector_8" d="M30.9024 16.6253C30.8387 17.1826 30.6572 17.6305 30.365 18.0445C27.64 21.9099 24.9201 25.7791 22.1983 29.647C22.0625 29.8403 21.9273 30.0341 21.7909 30.228C21.4871 30.6606 21.2342 30.77 20.9587 30.5876C20.6852 30.4065 20.6961 30.1154 20.9941 29.6918C22.4667 27.5995 23.9392 25.5071 25.4111 23.4142C26.7904 21.4536 28.1729 19.495 29.545 17.5294C29.8424 17.1032 30.215 16.7814 30.672 16.5389C30.8676 16.4352 30.9243 16.473 30.9017 16.6246L30.9024 16.6253Z" fill="white"/>
<path id="Vector_9" d="M17.0412 22.5823C17.6778 22.5823 18.3149 22.59 18.9514 22.5778C19.1671 22.5733 19.2694 22.6213 19.2501 22.8574C19.2295 23.1134 19.2514 23.3725 19.2327 23.6291C19.1645 24.5844 18.4385 25.2767 17.4782 25.3068C17.1976 25.3158 16.917 25.3158 16.6364 25.3068C15.6781 25.2748 14.9244 24.5447 14.8749 23.5907C14.8581 23.2714 14.7654 22.8664 14.9199 22.6527C15.0718 22.4422 15.5024 22.5957 15.8107 22.5861C16.2206 22.5733 16.6306 22.5829 17.0412 22.5829V22.5823Z" fill="#9FCDFE"/>
<path id="Vector_10" d="M17.9106 1.89747C18.1815 1.49436 18.4776 1.3184 18.9661 1.41821C20.1535 1.66136 21.321 1.94482 22.3862 2.54756C22.6552 2.69985 22.8799 2.64866 22.997 2.42983C23.1148 2.20972 23.035 2.01392 22.755 1.85332C22.1661 1.51547 21.5386 1.26401 20.8589 1.0471C21.0533 0.825705 21.2528 0.773237 21.5051 0.825065C22.6585 1.06309 23.7738 1.43933 24.7077 2.14445C25.5173 2.75616 26.3605 2.85661 27.2982 2.70177C27.5537 2.65954 27.8523 2.56356 28.0596 2.68001C28.2842 2.80671 28.1658 3.13431 28.1915 3.37042C28.3254 4.58615 28.4309 5.80508 28.559 7.02145C28.5828 7.24924 28.496 7.31387 28.29 7.34202C27.4778 7.45272 26.6681 7.57941 25.8565 7.6933C25.4112 7.75537 25.3249 7.84431 25.2979 8.27813C25.2657 8.80282 25.229 9.3275 25.1814 9.85154C25.1363 10.3449 24.5519 10.7582 24.0705 10.6584C23.9334 10.6296 23.9547 10.5208 23.9309 10.4357C23.6966 9.59688 23.3651 8.79514 22.9893 8.01003C22.6597 7.32154 22.1513 6.82629 21.4478 6.51916C20.2494 5.9964 18.9989 5.6368 17.7375 5.30791C17.2721 5.18634 17.1357 5.06221 17.1962 4.77939C17.2741 4.41403 17.4967 4.2963 17.9415 4.40187C18.7692 4.59959 19.591 4.82034 20.3891 5.11787C20.5346 5.17226 20.6794 5.21577 20.8293 5.16138C20.987 5.10444 21.0739 4.97071 21.0745 4.8133C21.0758 4.59319 20.9317 4.47418 20.7302 4.39931C19.8807 4.08386 19.0105 3.84008 18.1288 3.63404C17.7935 3.55534 17.4536 3.49519 17.1183 3.41457C16.7811 3.33331 16.7296 3.14903 16.9478 2.88541C17.1067 2.69345 17.2605 2.59299 17.5469 2.64674C18.8226 2.88477 20.0789 3.17398 21.2348 3.78889C21.4807 3.91942 21.6931 3.9239 21.8514 3.67435C21.984 3.46512 21.8823 3.23477 21.5914 3.08056C20.505 2.50533 19.3349 2.18348 18.1339 1.95314C18.0721 1.94098 18.0116 1.9237 17.9099 1.89875L17.9106 1.89747Z" fill="#FFC800"/>
<path id="Vector_11" d="M31.6787 6.31808C31.6787 6.71479 31.6626 7.11278 31.6851 7.50821C31.6973 7.72833 31.5976 7.78591 31.4148 7.80767C30.8697 7.87357 30.3239 7.9382 29.78 8.01626C29.5451 8.05017 29.4312 7.99643 29.4087 7.73664C29.3057 6.54139 29.1873 5.34677 29.0727 4.15216C29.0122 3.52318 28.9582 2.89292 28.8829 2.26522C28.8507 1.99584 28.9092 1.88962 29.2098 1.8749C29.7575 1.84803 30.3033 1.77061 30.8484 1.70278C31.0705 1.67527 31.187 1.69254 31.2352 1.9696C31.4862 3.40928 31.577 4.8624 31.678 6.31744L31.6787 6.31808Z" fill="#9FCDFE"/>
<path id="Vector_12" d="M3.04271 16.899C3.10643 17.8473 3.22872 18.7373 3.45784 19.6094C3.55824 19.9933 3.67538 20.3715 3.8337 20.7369C3.93861 20.9794 4.11367 21.108 4.37047 21.0018C4.62212 20.8975 4.66846 20.6908 4.56806 20.4393C4.07248 19.1974 3.8897 17.8959 3.83242 16.5714C3.81955 16.2694 3.97015 16.0819 4.23789 16.0691C4.53459 16.055 4.62341 16.2451 4.6498 16.4972C4.77079 17.6489 4.92783 18.7955 5.20844 19.9223C5.26766 20.1603 5.36291 20.3568 5.63837 20.3677C5.90418 20.3779 6.07088 20.1194 5.99879 19.8161C5.77739 18.8864 5.60684 17.949 5.51416 16.9982C5.49227 16.7723 5.78511 16.4895 6.0889 16.4594C6.39654 16.4293 6.40104 16.677 6.42743 16.8696C6.59477 18.1026 6.83033 19.3209 7.14119 20.5276C7.3967 21.5207 7.93218 22.2655 8.84288 22.7633C9.51416 23.1306 10.1745 23.5164 10.8947 23.7826C11.0865 23.8536 11.138 23.9234 11.0723 24.1319C10.8496 24.8403 10.6887 24.9798 9.94537 24.9682C9.47039 24.9612 8.99541 24.9343 8.52172 24.9023C8.22373 24.8825 8.06219 24.999 7.98882 25.2907C7.78222 26.111 7.54923 26.9256 7.34843 27.7471C7.28729 27.9973 7.17401 28.0332 6.94489 27.9845C5.61713 27.703 4.28873 27.4259 2.95712 27.1642C2.6868 27.1111 2.6366 27.0055 2.69903 26.7534C2.80973 26.3068 2.89662 25.8532 2.97771 25.3995C3.05559 24.965 3.00281 24.5479 2.77691 24.1556C2.14875 23.0627 1.75808 21.8886 1.59654 20.6409C1.565 20.3977 1.51222 20.1495 1.65639 19.9191C1.69629 19.8551 1.73942 19.7681 1.81472 19.7713C1.91448 19.7764 1.89066 19.8826 1.90482 19.9518C2.03032 20.5398 2.20539 21.1131 2.44352 21.6666C2.5761 21.9743 2.77433 22.0882 3.01053 21.9961C3.24288 21.9052 3.31174 21.6711 3.17916 21.3703C2.66299 20.2013 2.52011 18.9561 2.42807 17.7027C2.39847 17.2963 2.69002 17.1005 3.04465 16.8977L3.04271 16.899Z" fill="#FFC800"/>
<path id="Vector_13" d="M7.24626 31.1571C5.32252 30.8967 3.43676 30.6094 1.59992 30.0726C1.44996 30.0284 1.34312 29.9894 1.3901 29.793C1.53684 29.178 1.67586 28.5612 1.80587 27.9425C1.83934 27.7844 1.8786 27.7384 2.05752 27.7761C3.91303 28.1658 5.77112 28.5478 7.63049 28.9195C7.87056 28.9675 7.91561 29.0565 7.85511 29.2785C7.70386 29.8371 7.57128 30.4002 7.43355 30.962C7.40458 31.081 7.39751 31.216 7.24562 31.1571H7.24626Z" fill="#9FCDFE"/>
<path id="Vector_14" d="M10.8937 4.23047C10.8937 4.544 10.8937 4.85113 10.8937 5.15762C10.8937 5.67271 10.9014 6.18779 10.8911 6.70224C10.8808 7.20133 10.6414 7.43168 10.1497 7.4336C9.32006 7.43616 8.4911 7.43424 7.7207 7.43424C8.75691 6.38871 9.81306 5.32207 10.8943 4.23047H10.8937Z" fill="#9FCDFE"/>
<path id="Vector_15" d="M16.5384 16.6607C16.5159 16.7745 16.5005 16.9582 16.4406 17.1271C16.3698 17.3274 16.2018 17.3434 16.077 17.1809C15.844 16.8782 15.8948 16.0381 16.1529 15.7482C16.261 15.6273 16.29 15.7188 16.3312 15.793C16.4689 16.0419 16.5159 16.3145 16.5378 16.6607H16.5384Z" fill="#9FCDFE"/>
<path id="Vector_16" d="M30.6322 7.04143C30.4385 7.01583 30.293 6.89362 30.2949 6.65303C30.2969 6.41629 30.4288 6.27808 30.6734 6.26976C30.9038 6.26208 31.0879 6.44892 31.0769 6.66967C31.0666 6.87762 30.8838 7.04591 30.6322 7.04143Z" fill="#0B0B0B"/>
<path id="Vector_17" d="M6.37151 29.666C6.61608 29.6763 6.76282 29.7946 6.77312 30.0359C6.78342 30.2758 6.64633 30.4159 6.41206 30.4441C6.19388 30.4703 5.98406 30.2764 5.99243 30.0563C6.00144 29.8196 6.1366 29.6891 6.37151 29.666Z" fill="#0C0C0C"/>
</g>
<path id="Vector_18" d="M10.8515 28.334H8.42773V29.1376H10.8515V28.334Z" fill="#080808"/>
<path id="Vector_19" d="M16.3144 2.79688H13.8906V3.5743H16.3144V2.79688Z" fill="#080808"/>
<path id="Vector_20" d="M26.0493 28.334H23.4491C23.2259 28.334 23.0449 28.5139 23.0449 28.7358C23.0449 28.9577 23.2259 29.1376 23.4491 29.1376H26.0493C26.2725 29.1376 26.4535 28.9577 26.4535 28.7358C26.4535 28.5139 26.2725 28.334 26.0493 28.334Z" fill="#080808"/>
<path id="Vector_21" d="M7.00752 13.6348H6.19336V16.2281H7.00752V13.6348Z" fill="#080808"/>
</g>
</g>
</svg>
