<svg width="22" height="22" viewBox="0 0 22 22" fill="none" xmlns="http://www.w3.org/2000/svg">
<g id="coding_2010990 1" clip-path="url(#clip0_6815_19344)">
<path id="Vector" d="M5.36719 7.96289C7.92539 6.88937 10.8229 8.57636 11.2354 11.2812L11.2676 11.5459C11.3606 12.5802 11.1887 13.5001 10.5596 14.2705L10.4277 14.4229C9.87177 15.0262 9.54948 15.7342 9.30664 16.4541L9.20703 16.7637L8.79102 18.0986H8.79004C8.76727 18.1714 8.75113 18.2126 8.73828 18.2373C8.73707 18.2396 8.73537 18.2414 8.73438 18.2432C8.73296 18.2435 8.73123 18.2448 8.72949 18.2451C8.70359 18.2499 8.66119 18.2528 8.58691 18.2529H5.37012L5.2373 18.2451L5.23535 18.2441L5.18848 18.123V18.1221L4.58496 16.2422C4.40648 15.6772 4.14316 15.1511 3.76367 14.6885L3.59375 14.4941C2.83866 13.683 2.59596 12.719 2.69727 11.6416L2.72168 11.4238C2.92971 9.87158 3.72496 8.75368 5.08691 8.08984L5.36719 7.96289Z" fill="black" stroke="black" stroke-width="0.589023"/>
<path id="Vector_2" d="M11.6462 20.0806C11.6462 19.5787 11.6491 19.0768 11.6446 18.5744C11.6433 18.411 11.6821 18.2657 11.7643 18.1241C13.7839 14.6345 15.8024 11.1441 17.8204 7.65375C18.0957 7.17742 18.383 7.00529 18.8036 7.06514C18.9147 7.08083 19.0154 7.12087 19.1112 7.17659C19.7353 7.53776 20.3614 7.89605 20.9835 8.26135C21.4627 8.54327 21.5853 9.01177 21.3054 9.49636C19.2565 13.0482 17.205 16.5989 15.156 20.1512C15.092 20.2622 15.0099 20.3452 14.8988 20.4092C13.9998 20.9264 13.1029 21.4473 12.2043 21.9649C11.8757 22.154 11.6499 22.026 11.6474 21.6487C11.6441 21.1262 11.6466 20.6036 11.6466 20.0806H11.6462Z" fill="black"/>
<path id="Vector_3" d="M16.4391 5.8441C16.4214 5.57374 16.4961 5.29512 16.3656 5.12134C16.2377 4.95087 15.9471 4.99916 15.7291 4.98802C15.415 4.97233 15.2578 4.82951 15.1901 4.53191C15.1319 4.27723 15.0105 4.04236 14.8834 3.8141C14.7876 3.64239 14.7996 3.49296 14.9263 3.34024C15.0621 3.17637 15.1806 2.99805 15.3155 2.83336C15.3878 2.74502 15.3989 2.68682 15.3184 2.589C15.0646 2.27901 14.7831 1.99997 14.4747 1.74447C14.379 1.66522 14.3208 1.671 14.2316 1.7453C14.0628 1.88605 13.8812 2.01112 13.7111 2.15064C13.5778 2.26002 13.4403 2.27818 13.2917 2.19728C12.9892 2.03217 12.6767 1.89348 12.3428 1.80515C12.1987 1.76717 12.1318 1.66068 12.112 1.51992C12.0782 1.28175 12.0406 1.04441 12.0142 0.805418C12.0039 0.712957 11.9721 0.67911 11.8776 0.667965C11.4656 0.620084 11.0558 0.620497 10.6434 0.665489C10.5245 0.678284 10.4956 0.732357 10.4841 0.83266C10.4581 1.05803 10.425 1.28217 10.3966 1.50713C10.3763 1.66728 10.2942 1.77625 10.1361 1.81547C9.82033 1.89431 9.52685 2.02598 9.24369 2.18283C9.08271 2.27199 8.93577 2.27034 8.788 2.14609C8.61959 2.00493 8.43755 1.88027 8.26791 1.74034C8.187 1.67347 8.1321 1.66109 8.04171 1.73456C7.72553 1.99172 7.43865 2.27529 7.18149 2.59189C7.11256 2.67692 7.10926 2.73347 7.17943 2.81891C7.32349 2.99392 7.45268 3.18091 7.59303 3.35881C7.69828 3.49214 7.7181 3.63 7.63802 3.77984C7.4791 4.07745 7.34702 4.38579 7.2529 4.71064C7.20832 4.86501 7.0977 4.9455 6.93631 4.96325C6.71094 4.98802 6.4868 5.02517 6.26143 5.0458C6.15039 5.05612 6.11366 5.1007 6.10169 5.21091C6.0505 5.67817 6.0505 6.14336 6.13595 6.60649C6.17475 6.81659 6.0988 6.95528 5.91264 7.0044C5.7335 7.05145 5.58077 6.96312 5.53454 6.75261C5.433 6.29278 5.41731 5.82388 5.46602 5.35786C5.54981 4.55874 5.62494 4.4832 6.42943 4.39652C6.63375 4.37464 6.71135 4.28631 6.81041 4.11047C7.02299 3.73402 6.94333 3.46407 6.67048 3.15903C6.36958 2.82262 6.39888 2.58033 6.68576 2.22328C6.98419 1.8522 7.31275 1.51125 7.69127 1.22108C8.01199 0.975479 8.29226 0.949474 8.58698 1.21695C8.90151 1.50259 9.1888 1.59794 9.57721 1.35729C9.72292 1.26731 9.83561 1.21984 9.83437 1.02708C9.83354 0.877652 9.87234 0.727817 9.89711 0.578807C9.9421 0.308442 10.1221 0.110313 10.3916 0.0677975C10.9658 -0.0225992 11.5424 -0.0225992 12.1166 0.0677975C12.3973 0.111964 12.5739 0.322889 12.623 0.620909C12.6585 0.836788 12.6045 1.10385 12.7436 1.25534C12.8736 1.39733 13.125 1.42333 13.3161 1.51579C13.4131 1.56285 13.4795 1.54758 13.5567 1.48525C13.6905 1.37752 13.8271 1.27309 13.967 1.17361C14.2304 0.986624 14.5111 0.990339 14.7678 1.18682C15.1963 1.51414 15.5731 1.89472 15.8996 2.32359C16.0812 2.56217 16.0845 2.82262 15.9174 3.06905C15.9095 3.08061 15.9029 3.09299 15.8926 3.10207C15.5157 3.42733 15.4831 3.79098 15.7419 4.21036C15.8026 4.30901 15.8484 4.37051 15.964 4.38248C16.1481 4.40188 16.3334 4.42252 16.5146 4.4605C16.8044 4.52117 16.9629 4.70403 17.0034 4.99834C17.0777 5.53948 17.0781 6.08062 17.0034 6.62217C16.9629 6.91441 16.8056 7.0981 16.5146 7.1596C16.3338 7.19799 16.1485 7.21821 15.9644 7.23803C15.8493 7.25041 15.7679 7.28921 15.7481 7.41428C15.7428 7.44771 15.7316 7.48321 15.7122 7.51045C15.4493 7.87699 15.5686 8.168 15.8493 8.47469C16.1262 8.77683 16.0982 9.04142 15.8484 9.36173C15.538 9.76005 15.1802 10.1093 14.7839 10.4209C14.4987 10.645 14.2081 10.6785 13.9435 10.4296C13.612 10.1175 13.302 10.0378 12.8975 10.2834C12.7654 10.3635 12.6883 10.4258 12.673 10.5769C12.6548 10.761 12.6325 10.9464 12.5904 11.1263C12.5397 11.3426 12.3791 11.4388 12.1971 11.3872C12.0196 11.3368 11.9527 11.194 11.9882 10.981C12.0295 10.7305 12.0666 10.4787 12.0897 10.2257C12.1116 9.9846 12.2111 9.83394 12.4612 9.77739C12.737 9.71506 12.9929 9.59164 13.2368 9.45006C13.4156 9.34646 13.5675 9.35843 13.7268 9.49134C13.8952 9.63209 14.0805 9.75303 14.251 9.89172C14.3307 9.95653 14.3831 9.95116 14.4623 9.88842C14.7818 9.63498 15.0621 9.34398 15.3238 9.03234C15.3936 8.94896 15.3973 8.88787 15.3271 8.80242C15.1835 8.627 15.0538 8.44043 14.9119 8.26376C14.8045 8.13043 14.7843 7.99628 14.8685 7.84521C15.0291 7.55586 15.1562 7.25247 15.2478 6.93464C15.2957 6.76871 15.4084 6.6878 15.5752 6.66634C15.7931 6.63827 16.0098 6.59699 16.2286 6.57966C16.3516 6.56975 16.3982 6.51981 16.404 6.40423C16.4139 6.20528 16.4288 6.00632 16.4391 5.84451V5.8441Z" fill="black"/>
<path id="Vector_4" d="M14.0371 5.82217C14.04 7.34323 12.7773 8.60218 11.25 8.60053C9.71042 8.59888 8.46715 7.35107 8.46096 5.80112C8.45477 4.28543 9.71867 3.02648 11.2488 3.02442C12.7851 3.02194 14.0342 4.27511 14.0371 5.82217Z" fill="black"/>
<path id="Vector_5" d="M7.01441 20.2329C7.5572 20.2329 8.09999 20.2316 8.64278 20.2333C8.89499 20.2341 9.03904 20.3526 9.03657 20.5511C9.03409 20.7381 8.88962 20.8623 8.64939 20.8479C8.46571 20.8367 8.40833 20.8867 8.41122 21.0799C8.41989 21.6635 8.03436 22.0458 7.45029 22.0544C7.13411 22.059 6.81793 22.0598 6.50216 22.0544C5.93584 22.0441 5.55939 21.6726 5.56641 21.1046C5.56889 20.8945 5.5144 20.831 5.30595 20.8475C5.07851 20.8656 4.94436 20.7431 4.93776 20.5557C4.93074 20.3592 5.06613 20.2353 5.30347 20.2341C5.87392 20.2312 6.44396 20.2333 7.01441 20.2333V20.2329Z" fill="black"/>
<path id="Vector_6" d="M6.9997 19.6965C6.43586 19.6965 5.87243 19.6973 5.30858 19.6965C5.06917 19.696 4.93502 19.5792 4.93956 19.3803C4.94369 19.1937 5.0766 19.079 5.30528 19.0785C6.42595 19.0765 7.54621 19.0769 8.66688 19.0785C8.90216 19.0785 9.04167 19.204 9.03796 19.3976C9.03424 19.5809 8.89555 19.6956 8.67018 19.696C8.11335 19.6973 7.55653 19.696 6.9997 19.696V19.6965Z" fill="black"/>
<path id="Vector_7" d="M1.29519 9.96044C1.23079 9.96374 1.17301 9.94434 1.11852 9.91338C0.857236 9.76396 0.593476 9.61907 0.33632 9.46305C0.167084 9.36068 0.125807 9.19846 0.210838 9.04161C0.298758 8.8798 0.472534 8.82697 0.651264 8.92603C0.92039 9.07463 1.1858 9.23107 1.44832 9.39164C1.57669 9.47048 1.63696 9.59348 1.58743 9.74373C1.54243 9.87953 1.44172 9.95466 1.29519 9.96002V9.96044Z" fill="#FFC800"/>
<path id="Vector_8" d="M3.23457 6.12891C3.35387 6.13592 3.44839 6.19866 3.51113 6.30598C3.66344 6.56686 3.81782 6.8269 3.96105 7.09272C4.05434 7.26526 4.00274 7.43326 3.84919 7.51994C3.70389 7.60208 3.53259 7.56824 3.43601 7.41097C3.26636 7.13648 3.10249 6.85745 2.95637 6.57057C2.85029 6.36212 3.00177 6.13262 3.23499 6.12891H3.23457Z" fill="#FFC800"/>
<path id="Vector_9" d="M7.89732 15.7769C7.89732 15.1305 7.90268 14.4841 7.8936 13.8377C7.89113 13.6714 7.94479 13.6276 8.10412 13.6326C8.35013 13.6396 8.5982 13.6565 8.84215 13.5893C9.46873 13.4163 9.84972 12.8145 9.7358 12.1598C9.63797 11.5964 9.09683 11.0775 8.36292 11.1518C7.78092 11.2109 7.28477 11.7417 7.27073 12.3592C7.26702 12.5309 7.26413 12.7034 7.27156 12.8747C7.27651 12.9862 7.23193 13.0097 7.12791 13.013C6.64085 13.0287 6.63713 13.032 6.64126 12.5408C6.64539 12.0414 6.49349 11.6232 6.05512 11.3413C5.61511 11.0586 5.07645 11.0788 4.64717 11.3962C4.22697 11.707 4.0536 12.2263 4.19931 12.7344C4.34213 13.2322 4.7809 13.595 5.29274 13.6285C5.47766 13.6404 5.66423 13.64 5.84956 13.6338C5.97092 13.6297 6.0188 13.6636 6.01839 13.7944C6.01426 15.1215 6.01509 16.4489 6.01756 17.776C6.01756 17.8775 5.99403 17.9192 5.88094 17.9238C5.48179 17.9398 5.48509 17.9436 5.3625 17.5646C5.18955 17.0289 5.00958 16.4956 4.83621 15.9602C4.64056 15.3559 4.34873 14.7966 3.90212 14.3512C2.69352 13.1455 2.85946 11.1341 3.5203 9.9932C4.35823 8.54644 5.88919 7.808 7.45565 7.99416C9.17278 8.19806 10.5333 9.47517 10.8767 11.1432C11.0042 11.7636 10.996 12.3869 10.847 13.0044C10.7586 13.3709 10.6039 13.7151 10.3475 13.9872C9.54716 14.8383 9.10838 15.871 8.79096 16.9707C8.71295 17.241 8.62173 17.5077 8.5466 17.7789C8.51812 17.8812 8.47643 17.9213 8.36499 17.9233C7.89732 17.9324 7.89732 17.9365 7.89732 17.4681C7.89732 16.9042 7.89732 16.3404 7.89732 15.7761V15.7769Z" fill="#FEFEFE"/>
<path id="Vector_10" d="M6.63964 15.7861C6.63964 15.127 6.64335 14.4678 6.63675 13.8086C6.63551 13.674 6.6739 13.634 6.80929 13.6331C7.2687 13.6311 7.2687 13.6257 7.2687 14.0765C7.2687 15.2916 7.2654 16.5073 7.27283 17.7225C7.27365 17.8867 7.22701 17.9284 7.06685 17.9251C6.63964 17.916 6.63922 17.9235 6.63964 17.4958C6.63964 16.9258 6.63964 16.3562 6.63964 15.7861Z" fill="#FEFEFE"/>
<path id="Vector_11" d="M5.62185 13.0116C5.465 13.0075 5.30691 13.0277 5.15542 12.9616C4.88795 12.8456 4.73687 12.5679 4.78682 12.2727C4.83181 12.0057 5.0869 11.7869 5.36635 11.7749C5.64538 11.7634 5.90873 11.9512 5.98344 12.224C6.04618 12.4531 6.00779 12.6884 6.01564 12.9212C6.01811 12.9959 5.97353 13.0124 5.91038 13.0116C5.8142 13.0103 5.71803 13.0116 5.62185 13.0116Z" fill="#9FCDFE"/>
<path id="Vector_12" d="M8.28426 13.0099C8.02559 13.011 7.89639 12.883 7.89667 12.626C7.89667 12.5232 7.89419 12.4196 7.9074 12.3181C7.94992 11.9845 8.24051 11.7497 8.56825 11.7765C8.88525 11.8025 9.13374 12.0786 9.13126 12.4018C9.12837 12.7242 8.8803 12.9863 8.55174 13.009C8.46299 13.0152 8.37342 13.0099 8.28426 13.0099Z" fill="#9FCDFE"/>
<path id="Vector_13" d="M19.6914 11.0365C19.6675 11.0794 19.6448 11.1215 19.6209 11.1632C18.0164 13.9411 16.4107 16.7182 14.8113 19.4987C14.7304 19.639 14.6722 19.6341 14.5487 19.5618C13.8854 19.1726 13.2192 18.7875 12.5485 18.4106C12.4122 18.3338 12.4032 18.2769 12.4799 18.1444C14.0881 15.3689 15.6917 12.5905 17.2928 9.81096C17.3609 9.69249 17.4063 9.66277 17.5376 9.73996C18.2117 10.1383 18.8936 10.5238 19.5709 10.9159C19.6184 10.9436 19.6939 10.9531 19.6914 11.0365Z" fill="#FEFEFE"/>
<path id="Vector_14" d="M18.7061 7.67525C18.7474 7.69465 18.8048 7.71694 18.8576 7.74749C19.4516 8.09009 20.0455 8.4331 20.6387 8.77776C20.8562 8.90407 20.8781 8.99158 20.7514 9.21241C20.5363 9.58721 20.3163 9.95911 20.1062 10.3364C20.0505 10.4363 20.0084 10.4548 19.9052 10.3942C19.2138 9.98718 18.5195 9.58473 17.8228 9.18682C17.7196 9.12779 17.7126 9.08321 17.7716 8.98456C17.997 8.60811 18.2145 8.22672 18.4324 7.84573C18.4906 7.74419 18.5604 7.66824 18.7069 7.67525H18.7061Z" fill="#FEFEFE"/>
<path id="Vector_15" d="M14.21 20.0873C13.5595 20.4621 12.937 20.8208 12.291 21.1931V18.9844C12.9292 19.3513 13.5529 19.7096 14.21 20.0873Z" fill="#FFC800"/>
<path id="Vector_16" d="M13.4131 5.82661C13.4131 7.00094 12.4357 7.97467 11.2548 7.97714C10.0581 7.97962 9.08896 7.00548 9.084 5.79441C9.07905 4.62132 10.0751 3.63975 11.2647 3.64553C12.451 3.65131 13.4135 4.62834 13.4131 5.82661Z" fill="#FFC800"/>
<path id="Vector_17" d="M7.00023 20.852C7.21322 20.852 7.42621 20.8565 7.6392 20.8499C7.74776 20.8466 7.79647 20.8689 7.79771 20.9944C7.80101 21.3229 7.70731 21.4282 7.37709 21.4294C7.10219 21.4303 6.82728 21.4315 6.55279 21.4294C6.25106 21.4266 6.08884 21.1909 6.18666 20.9102C6.21391 20.8317 6.27128 20.854 6.3204 20.8536C6.54701 20.8507 6.77404 20.8524 7.00065 20.8524L7.00023 20.852Z" fill="#9FCDFE"/>
<path id="Vector_18" d="M14.3634 17.884C14.1236 17.8782 13.9919 17.6318 14.1062 17.4097C14.2098 17.2083 14.3291 17.0151 14.4422 16.8186C15.4032 15.1531 16.3645 13.4876 17.3263 11.8225C17.3671 11.7515 17.408 11.6776 17.4633 11.6181C17.5698 11.5034 17.7027 11.4852 17.8381 11.5624C17.9747 11.64 18.0193 11.7667 17.9801 11.9153C17.9632 11.9801 17.9256 12.0408 17.8913 12.1002C16.8293 13.9375 15.766 15.7739 14.7047 17.6116C14.6222 17.7544 14.5335 17.879 14.3634 17.884Z" fill="#9FCDFE"/>
</g>
<defs>
<clipPath id="clip0_6815_19344">
<rect width="21.5" height="22" fill="white"/>
</clipPath>
</defs>
</svg>
