<svg width="22" height="21" viewBox="0 0 22 21" fill="none" xmlns="http://www.w3.org/2000/svg">
<g id="Untitled-9 1" clip-path="url(#clip0_6815_19366)">
<path id="Vector" d="M20.291 0.203125C20.8488 0.201712 21.2115 0.328886 21.4375 0.553711C21.6634 0.778597 21.7917 1.13965 21.792 1.69336L21.7959 15.6826L21.791 15.8184C21.7709 16.124 21.6822 16.347 21.5439 16.4971C21.408 16.6446 21.2027 16.7446 20.9062 16.7686L20.7725 16.7744C17.3302 16.7923 13.8879 16.7829 10.3555 16.7822C10.5285 16.4825 10.6488 16.182 10.7051 15.8496C10.722 15.8509 10.7427 15.8529 10.7695 15.8564L10.9141 15.8691C12.7577 15.863 14.601 15.8643 16.4453 15.8643C17.0741 15.8643 17.7014 15.8618 18.3281 15.8613L20.207 15.8721C20.3802 15.8746 20.563 15.8529 20.6885 15.7207C20.8103 15.5921 20.8275 15.4106 20.8271 15.25L20.8193 9.84863L20.8271 4.44727V4.44629C20.8274 4.28275 20.808 4.10289 20.6836 3.97559C20.5894 3.87925 20.4644 3.84212 20.3359 3.83008L20.207 3.8252C17.6583 3.82983 15.1094 3.83188 12.5605 3.83203L4.91406 3.82617H4.91309C4.75458 3.82619 4.58001 3.84633 4.45801 3.96973C4.36654 4.06225 4.33427 4.18344 4.32422 4.30371L4.32031 4.42285C4.32721 5.24459 4.3271 6.05612 4.32715 6.86816L4.33301 9.31641C4.33395 9.46452 4.31898 9.5144 4.30566 9.53418C4.30437 9.53607 4.29277 9.55691 4.22461 9.57129L4.13672 9.58203C3.84253 9.60349 3.58895 9.73838 3.34668 9.91113V3.33203L3.34863 1.44043C3.35228 0.925354 3.44256 0.645096 3.60547 0.484375C3.74864 0.343292 3.98516 0.257029 4.39355 0.237305L4.5791 0.232422L16.7119 0.229492C17.3033 0.228877 17.9034 0.22291 18.5029 0.216797L20.291 0.203125Z" fill="white" stroke="black" stroke-width="0.406055"/>
<path id="Vector_2" d="M4.8125 11.0967C4.88971 11.1009 4.96599 11.0997 5.03516 11.0986L5.23242 11.0977C5.40003 11.1021 5.4916 11.1435 5.53711 11.1865C5.56541 11.2134 5.59474 11.2592 5.60156 11.3467L5.60059 11.4482C5.58403 11.6242 5.60501 11.799 5.71191 11.9434C5.79099 12.0498 5.89988 12.1164 6.01855 12.1602L6.13965 12.1973C6.31111 12.2395 6.4853 12.3148 6.64746 12.4082V12.4092C6.77125 12.481 6.91323 12.5305 7.06641 12.5049C7.22017 12.479 7.33783 12.3852 7.42969 12.2773L7.42871 12.2764C7.57321 12.1082 7.67676 12.0865 7.74023 12.0928C7.79854 12.0986 7.87564 12.1331 7.96973 12.2197L8.06934 12.3242C8.12551 12.3908 8.18775 12.4491 8.24121 12.498C8.29792 12.55 8.34455 12.5914 8.38672 12.6367C8.45493 12.71 8.49717 12.7805 8.51367 12.873C8.51283 12.8756 8.51253 12.8784 8.51172 12.8809C8.50496 12.9017 8.49892 12.9209 8.49219 12.9404L8.45117 13.0391C8.44591 13.0486 8.43294 13.066 8.39941 13.0967C8.38296 13.1117 8.3654 13.1269 8.34375 13.1455C8.32341 13.163 8.29885 13.1839 8.27539 13.2061C8.23009 13.2488 8.17091 13.311 8.13281 13.3945C8.1015 13.4633 8.08771 13.5391 8.0957 13.6191L8.11133 13.7012C8.16179 13.881 8.2322 14.0595 8.30566 14.2314L8.51953 14.7236H8.52051C8.55246 14.8001 8.6003 14.8669 8.66797 14.915C8.73448 14.9623 8.80494 14.9812 8.86426 14.9883C8.92145 14.9951 8.97592 14.9918 9.01367 14.9883L9.10156 14.9795H9.10254C9.29874 14.9696 9.38352 15.0178 9.4248 15.0625C9.46007 15.1009 9.49173 15.1672 9.50488 15.2783L9.51172 15.4053C9.51101 15.5096 9.51102 15.6104 9.50879 15.709L9.49316 15.999C9.48416 16.0969 9.4497 16.1643 9.41406 16.2002C9.39127 16.2231 9.36392 16.2385 9.32715 16.2412L9.28613 16.2393L9.16699 16.2275C9.05119 16.2227 8.94498 16.2374 8.84863 16.2744C8.71729 16.325 8.62368 16.4101 8.55566 16.5039C8.49076 16.5935 8.44737 16.6944 8.41309 16.7793L8.31445 17.0176C8.2359 17.1825 8.14057 17.3854 8.1377 17.5957C8.13492 17.8045 8.22008 17.99 8.39551 18.1562L8.47656 18.2266C8.52289 18.2637 8.53423 18.3009 8.53223 18.3389C8.53032 18.3735 8.51606 18.421 8.47949 18.4736L8.43457 18.5273L7.96875 19.002C7.85912 19.1151 7.77278 19.1473 7.71875 19.1494C7.68544 19.1507 7.63805 19.1416 7.57812 19.0908L7.51367 19.0244C7.37514 18.8571 7.21162 18.7488 7.01367 18.7354C6.87409 18.7259 6.74356 18.7662 6.62598 18.8232L6.5127 18.8848C6.42431 18.9374 6.33339 18.9809 6.24512 19.0088L6.1582 19.0312C5.98882 19.0645 5.82463 19.1321 5.71484 19.2754C5.63168 19.384 5.59861 19.511 5.59473 19.6426L5.59961 19.7754C5.61557 19.9393 5.57446 20.0038 5.54199 20.0332C5.50035 20.0709 5.411 20.1085 5.23828 20.1064L4.66406 20.1025C4.50593 20.1054 4.42533 20.0662 4.3877 20.0303C4.36297 20.0065 4.3365 19.9643 4.3291 19.8848V19.791C4.34348 19.5996 4.31506 19.4157 4.19727 19.2686C4.11044 19.1603 3.99314 19.0947 3.86719 19.0537L3.73926 19.0205C3.64994 19.0019 3.55787 18.9683 3.47461 18.9238L3.39453 18.876C3.24715 18.7777 3.0774 18.7033 2.8916 18.7256C2.74927 18.7428 2.63025 18.8127 2.52832 18.9102L2.43164 19.0156C2.33836 19.1321 2.26913 19.1492 2.22852 19.1484C2.19075 19.1476 2.13394 19.1312 2.06055 19.0752L1.98145 19.0049C1.89107 18.9144 1.80477 18.8322 1.72168 18.751L1.48145 18.5039V18.5029L1.42188 18.417C1.40802 18.3885 1.39998 18.3612 1.39746 18.3389C1.39518 18.3183 1.39839 18.3061 1.40039 18.3008L1.41309 18.2861C1.57148 18.1668 1.68261 18.0346 1.74316 17.8857C1.80439 17.7351 1.80493 17.5886 1.7793 17.4561C1.75449 17.3281 1.70426 17.2068 1.6582 17.1045L1.53223 16.8164C1.49908 16.7247 1.45225 16.5664 1.35645 16.4502C1.26825 16.3433 1.15186 16.2786 1.00684 16.2529L0.851562 16.2402L0.672852 16.2324C0.533757 16.2187 0.502995 16.1898 0.490234 16.1729C0.476891 16.1551 0.456489 16.1152 0.442383 16.0215C0.428322 15.9278 0.422852 15.8013 0.422852 15.6279C0.422857 15.4464 0.427654 15.3172 0.441406 15.2217C0.455227 15.1258 0.475996 15.0881 0.488281 15.0723C0.496506 15.0617 0.513154 15.044 0.573242 15.0273C0.606249 15.0182 0.647114 15.0109 0.698242 15.0049L0.886719 14.9902C1.02227 14.9841 1.15955 14.9572 1.27637 14.873C1.36648 14.8081 1.42658 14.7227 1.46777 14.6279L1.50293 14.5303C1.55762 14.3485 1.60852 14.1899 1.68555 14.0566C1.76704 13.9163 1.83707 13.7518 1.82324 13.5732C1.81216 13.4311 1.75104 13.3085 1.65527 13.2012L1.54785 13.0986C1.42241 12.9943 1.40744 12.9196 1.41016 12.876C1.41279 12.8338 1.43475 12.7729 1.49805 12.6953L1.57617 12.6123L1.57715 12.6113L1.94922 12.2432C2.06692 12.1226 2.15801 12.0872 2.21777 12.085C2.25642 12.0836 2.31053 12.0949 2.37891 12.1514L2.45215 12.2236C2.56176 12.3501 2.6958 12.4627 2.87012 12.4941C3.00408 12.5182 3.13074 12.4892 3.24902 12.4326L3.36426 12.3682C3.42631 12.3284 3.49656 12.2959 3.57422 12.2666L3.82715 12.1855C3.94479 12.1515 4.08687 12.0983 4.19043 11.9854C4.2763 11.8915 4.31769 11.7775 4.32617 11.6523L4.32422 11.5234C4.30498 11.3079 4.35983 11.2192 4.41016 11.1768C4.45636 11.1378 4.5365 11.1054 4.66602 11.0967H4.8125Z" fill="#FFC800" stroke="black" stroke-width="0.459887"/>
<path id="Vector_3" d="M12.9287 5.77441L13.6748 12.6953C13.6857 12.795 13.6836 12.8542 13.6748 12.8896C13.6713 12.9038 13.6673 12.9132 13.6621 12.9199L13.6436 12.9346L13.6416 12.9355C13.628 12.9429 13.6162 12.9516 13.6094 12.957C13.6005 12.9642 13.5972 12.9665 13.5928 12.9697C13.5238 13.0173 13.4733 13.0304 13.4375 13.0273C13.4043 13.0244 13.3674 13.0063 13.3281 12.9541C13.2877 12.9002 13.2485 12.8158 13.2148 12.6943C13.1981 12.634 13.1834 12.5654 13.1699 12.4893L13.1348 12.2363L12.4902 6.25195C12.4727 6.09374 12.4709 5.99391 12.4854 5.92871C12.4922 5.89785 12.5021 5.87785 12.5127 5.86426L12.5605 5.8291C12.6781 5.77579 12.7986 5.69612 12.9062 5.63086L12.9287 5.77441Z" fill="#9FCDFE" stroke="black" stroke-width="0.174024"/>
<path id="Vector_4" d="M15.4092 7.16699L15.5029 7.19727C16.4019 7.5651 17.2943 7.94466 18.1436 8.40332L18.5049 8.60547C18.7441 8.74371 18.8442 8.91697 18.8428 9.07324C18.8415 9.21019 18.7622 9.35971 18.5811 9.48633L18.4971 9.53906C17.7864 9.94144 17.0448 10.2872 16.291 10.6094L15.5342 10.9248C15.3946 10.9818 15.2722 10.9882 15.1719 10.9521C15.0972 10.9252 15.0268 10.8718 14.9668 10.7852L14.9102 10.6875C14.8401 10.5407 14.8371 10.4188 14.874 10.3203C14.9021 10.2454 14.9562 10.176 15.0361 10.1162L15.125 10.0596C15.3464 9.93804 15.573 9.82695 15.8018 9.71875L16.4922 9.39355C16.6421 9.32097 16.7921 9.24437 16.999 9.1416L16.9736 9.0918L16.998 8.98535L15.5156 8.28809C15.4012 8.23335 15.2899 8.1783 15.1865 8.11523L15.0859 8.04883C14.9682 7.96461 14.8968 7.87275 14.8682 7.77637C14.8471 7.70515 14.8472 7.62448 14.877 7.53223L14.917 7.43652C14.9846 7.30288 15.0719 7.22101 15.167 7.18262C15.2378 7.15404 15.3189 7.14656 15.4092 7.16699Z" fill="#9FCDFE" stroke="black" stroke-width="0.174024"/>
<path id="Vector_5" d="M10.2568 7.17188C10.3399 7.19642 10.4177 7.25072 10.4844 7.3457L10.5479 7.45508C10.6217 7.61118 10.6168 7.73524 10.5703 7.83496C10.5341 7.91255 10.469 7.98376 10.3789 8.04492L10.2803 8.10254C9.70785 8.39733 9.12286 8.66353 8.44727 8.9873L8.33594 9.04004L8.43457 9.13867L8.44727 9.14453L10.2432 10.0029C10.3928 10.0745 10.4994 10.1637 10.5557 10.2656C10.5963 10.3394 10.6139 10.4252 10.5957 10.5273L10.5654 10.6348C10.504 10.7955 10.4095 10.8986 10.2998 10.9463C10.218 10.9818 10.1197 10.9903 10.0078 10.9619L9.8916 10.9209C9.16303 10.5941 8.43399 10.2702 7.7168 9.9248L7.00391 9.57129C6.72834 9.4301 6.6106 9.23724 6.61035 9.06348C6.61017 8.91149 6.69996 8.74611 6.90527 8.61426L7 8.55957C7.46607 8.32268 7.93876 8.09839 8.41406 7.87891L9.8457 7.22754C10.0046 7.15522 10.1437 7.13845 10.2568 7.17188Z" fill="#9FCDFE" stroke="black" stroke-width="0.174024"/>
<path id="Vector_6" d="M11.6242 1.77432C11.6279 2.19481 11.4777 2.35334 11.079 2.35022C10.7143 2.3471 10.5396 2.16727 10.5391 1.79511C10.5391 1.38554 10.6709 1.24104 11.0555 1.23377C11.4824 1.22545 11.6206 1.35695 11.6242 1.77484V1.77432Z" fill="white"/>
<path id="Vector_7" d="M9.9827 1.75619C9.98688 2.19643 9.86131 2.34197 9.4668 2.35184C9.08118 2.36172 8.92474 2.19591 8.92579 1.77906C8.92683 1.37364 9.05293 1.24214 9.44744 1.23383C9.84928 1.22499 9.97904 1.35129 9.98322 1.75619H9.9827Z" fill="white"/>
<path id="Vector_8" d="M8.34644 1.765C8.34906 2.20524 8.21982 2.35078 7.82374 2.35338C7.44126 2.35597 7.31412 2.22084 7.30889 1.80346C7.30261 1.33567 7.39417 1.23432 7.82165 1.23536C8.23395 1.2364 8.34435 1.34763 8.34644 1.765Z" fill="white"/>
<path id="Vector_9" d="M4.98633 13.7373C5.98888 13.7415 6.7665 14.4658 6.85254 15.4365L6.86035 15.6338C6.85164 16.6813 6.01187 17.5032 4.94336 17.4971L4.74805 17.4863C3.85267 17.3925 3.16567 16.6946 3.08203 15.7881L3.07324 15.5908C3.07805 14.5995 3.79664 13.8342 4.78516 13.7461L4.98633 13.7373Z" fill="white" stroke="black" stroke-width="0.459887"/>
</g>
<defs>
<clipPath id="clip0_6815_19366">
<rect width="22" height="20.5806" fill="white"/>
</clipPath>
</defs>
</svg>
