<svg width="33" height="32" viewBox="0 0 33 32" fill="none" xmlns="http://www.w3.org/2000/svg">
<g id="Group 1000002898">
<g id="Group 1000002897">
<g id="Group 1000002896">
<g id="Group 1000002895">
<path id="Vector 1011" d="M2.45825 22.085C1.92399 22.3818 0.855469 23.0111 0.855469 23.1536L1.38973 24.5784C1.38973 25.4333 2.57697 26.2407 3.17059 26.5376L4.77337 25.8251L2.45825 22.085Z" fill="#9FCDFE"/>
<path id="Vector 1010" d="M15.459 14.4252C17.0618 14.3065 19.7331 14.8883 17.596 18.1654L15.459 14.4252Z" fill="white"/>
<path id="Vector 1009" d="M8.69153 31.3457L5.84215 26.715L5.66406 26.5369L8.69153 24.7559L11.5409 30.099L10.2943 31.5238L8.69153 31.3457Z" fill="#9FCDFE"/>
<path id="Vector 1008" d="M2.45703 20.838L5.66259 18.8789L9.22431 24.5782L6.37493 26.3593L4.77215 25.825L2.45703 21.7286V20.838Z" fill="#FFC800"/>
<path id="Vector 1007" d="M10.8282 12.2881L6.19797 18.5217L5.8418 18.8779L9.22544 24.3991L17.5955 23.5086L10.8282 12.2881Z" fill="#FFC800"/>
<path id="Vector 1006" d="M21.1602 16.5638V9.79591V9.43997H26.5027L27.3932 8.90539H30.0645C31.3467 8.47794 31.9047 9.32097 32.0234 9.79591C32.0828 11.9332 32.1303 16.3145 31.8453 16.742C31.5604 17.1694 30.4206 17.1575 29.8864 17.0982L29.7083 19.9478L26.6808 17.0982H21.6944L21.1602 16.5638Z" fill="#FFC800"/>
<path id="Vector 1005" d="M15.8203 0.888803V3.20415L15.459 8.49413L16.3623 9.00828L17.9883 9.43778V12.4655L21.421 9.08157H26.9863L27.925 8.54726V1.06691L27.2024 0.354492H16.7237L15.8203 0.888803Z" fill="#9FCDFE"/>
<path id="Vector" fill-rule="evenodd" clip-rule="evenodd" d="M4.66955 26.2721L4.01284 26.6506C3.66084 26.8538 3.24344 26.9094 2.85111 26.8037C2.45875 26.6979 2.12484 26.4419 1.92172 26.0913L0.666778 23.9164C0.323128 23.3209 0.52765 22.5584 1.12311 22.2147L2.02746 21.693C1.86329 21.0459 2.14016 20.3432 2.74676 19.9926L5.56415 18.3647L10.4252 11.8667L10.2847 11.6232C10.0815 11.2712 10.0259 10.8537 10.1316 10.4614C10.2374 10.069 10.4934 9.73504 10.844 9.53189C11.196 9.32874 11.6134 9.27448 12.0057 9.37883C12.3981 9.48319 12.732 9.7406 12.9351 10.0912L15.2474 14.0957C16.4398 13.6394 17.8228 14.1027 18.4808 15.2437C19.1389 16.3847 18.8509 17.8136 17.8575 18.6179L20.1699 22.6224C20.373 22.973 20.4273 23.3919 20.3229 23.7829C20.2172 24.1753 19.9612 24.5092 19.6092 24.7123C19.2586 24.9155 18.8398 24.9712 18.4488 24.8654C18.0565 24.7597 17.7226 24.5036 17.5194 24.153L17.3789 23.9095L9.32051 24.871L9.2732 24.8974L11.5716 28.8784C11.8471 29.357 11.9222 29.9247 11.7803 30.4577C11.637 30.9906 11.2878 31.4456 10.8106 31.7211C10.3319 31.9966 9.76431 32.0717 9.23144 31.9298C8.69857 31.7865 8.24363 31.4372 7.96813 30.96L5.49857 26.6826C5.19109 26.6339 4.90031 26.492 4.67214 26.2694L4.66955 26.2721ZM17.4319 17.8831C18.0288 17.321 18.1846 16.4026 17.7575 15.6624C17.3304 14.9221 16.458 14.5979 15.6719 14.8331L17.4319 17.8817L17.4319 17.8831ZM10.8791 12.654L6.34606 18.7152L9.40971 24.022L16.9257 23.1259L10.8804 12.6541L10.8791 12.654ZM19.4468 23.0424L12.2122 10.5096C12.1204 10.3496 11.9674 10.2327 11.7893 10.1854C11.6112 10.1381 11.4206 10.1631 11.2606 10.255C11.1006 10.3468 10.9851 10.4999 10.9364 10.678C10.8891 10.8561 10.9141 11.0467 11.006 11.2067L18.2405 23.7395C18.3324 23.8995 18.4854 24.015 18.6635 24.0637C18.8416 24.111 19.0308 24.086 19.1908 23.9942C19.3508 23.9023 19.4677 23.7493 19.515 23.5712C19.5623 23.3931 19.5372 23.2038 19.4454 23.0438L19.4468 23.0424ZM2.39361 22.4455L1.53937 22.938C1.34319 23.0521 1.27502 23.3026 1.3891 23.4988L2.64404 25.6736C2.73587 25.8336 2.88891 25.9491 3.067 25.9978C3.24508 26.0451 3.43571 26.0201 3.5957 25.9282L4.2023 25.5776L2.39362 22.4441L2.39361 22.4455ZM8.55006 25.3174L6.39076 26.5641L8.68918 30.5451C8.85474 30.8317 9.12745 31.0404 9.44604 31.1267C9.76604 31.2116 10.1055 31.1671 10.3921 31.0015C10.6787 30.8359 10.8874 30.5646 10.9737 30.2445C11.0599 29.9245 11.014 29.585 10.8485 29.2984L8.55006 25.3174ZM5.69234 19.2547L3.16294 20.7158C2.83042 20.9078 2.71634 21.3336 2.90834 21.6661L5.13442 25.5217C5.32641 25.8543 5.75216 25.9684 6.08468 25.7764L8.49441 24.3849L8.61406 24.3154L7.91842 23.1104L6.35183 24.0148C6.15148 24.1303 5.89689 24.0621 5.78138 23.8618C5.6659 23.6628 5.73408 23.4068 5.93443 23.2913L7.50102 22.3868L6.80538 21.1818L5.23879 22.0863C5.03844 22.2018 4.78385 22.1336 4.66834 21.9332C4.55286 21.7343 4.62104 21.4783 4.82138 21.3627L6.38797 20.4583L5.69233 19.2533L5.69234 19.2547ZM20.5348 10.3314L17.908 12.9584C17.7883 13.0781 17.6089 13.1143 17.4531 13.0489C17.2972 12.9849 17.1957 12.8318 17.1957 12.6635V9.74006H16.5014C16.0952 9.74006 15.7056 9.57866 15.419 9.29202C15.1324 9.00539 14.971 8.6158 14.971 8.20948L14.9696 1.53059C14.9696 1.1243 15.131 0.734678 15.4176 0.448038C15.7042 0.161401 16.0937 0 16.5 0H26.5174C26.9236 0 27.3132 0.161405 27.5998 0.448038C27.8864 0.734674 28.0478 1.12426 28.0478 1.53059V8.20948C28.0478 8.25678 28.045 8.3027 28.0422 8.34862H30.9696C31.3758 8.34862 31.7654 8.51002 32.052 8.79665C32.3386 9.08329 32.5 9.47288 32.5 9.8792V16.0003C32.5 16.4066 32.3386 16.7962 32.052 17.0828C31.764 17.3695 31.3745 17.5309 30.9696 17.5309H30.2753V19.8977C30.2753 20.066 30.1737 20.2191 30.0179 20.2831C29.8621 20.3471 29.6826 20.3123 29.563 20.1927L26.9028 17.5322H22.0667C21.6604 17.5322 21.2709 17.3708 20.9842 17.0842C20.6976 16.7975 20.5362 16.4079 20.5362 16.0016V10.3301L20.5348 10.3314ZM27.6985 9.18484C27.6679 9.22241 27.6345 9.25858 27.5997 9.29337C27.3131 9.58001 26.9235 9.74141 26.5172 9.74141H21.3834C21.375 9.78733 21.3695 9.83324 21.3695 9.88055V16.003C21.3695 16.1867 21.4432 16.3648 21.5726 16.4956C21.7034 16.6264 21.8801 16.6988 22.0651 16.6988H27.0736C27.1849 16.6988 27.2906 16.7433 27.3686 16.8212L29.4388 18.8917V17.1148C29.4388 17.0035 29.4833 16.8977 29.5612 16.8198C29.6392 16.7419 29.7463 16.6974 29.8562 16.6974H30.9678C31.1529 16.6974 31.3296 16.625 31.4604 16.4942C31.5911 16.3634 31.6635 16.1867 31.6635 16.0016V9.88058C31.6635 9.69552 31.5898 9.51882 31.4604 9.38802C31.3296 9.25722 31.1529 9.18487 30.9678 9.18487H27.6969L27.6985 9.18484ZM26.5173 11.0021C27.1851 10.3996 28.1437 10.4942 28.664 10.9422C29.2539 11.4501 29.343 12.4645 28.7558 13.4802C28.3955 14.1398 27.4898 14.8132 26.7246 15.2515C26.5966 15.3253 26.4379 15.3253 26.3099 15.2515C25.5447 14.8118 24.639 14.1384 24.2786 13.4802C23.6901 12.4645 23.7806 11.4501 24.3705 10.9422C24.8908 10.4942 25.8508 10.3996 26.5173 11.0021ZM26.1555 11.8717C25.8439 11.3346 25.2261 11.3068 24.9145 11.5753C24.7684 11.7006 24.7086 11.8954 24.7086 12.1166C24.7086 12.406 24.8115 12.7358 25.0035 13.067C25.0063 13.0697 25.0077 13.0739 25.0091 13.0781C25.2748 13.5693 25.9259 14.0493 26.5173 14.4069C27.1086 14.0493 27.7583 13.5693 28.0254 13.0781C28.0282 13.0753 28.0296 13.0711 28.031 13.067C28.223 12.7358 28.326 12.406 28.326 12.1166C28.326 11.8954 28.2661 11.7019 28.1201 11.5753C27.8084 11.3068 27.1907 11.3346 26.879 11.8717C26.8039 11.9997 26.6661 12.079 26.5173 12.079C26.3684 12.079 26.2306 11.9997 26.1555 11.8717ZM27.2129 1.53208C27.2129 1.34702 27.1392 1.17032 27.0098 1.03952C26.879 0.908721 26.7023 0.836368 26.5173 0.836368H16.4999C16.3149 0.836368 16.1382 0.910113 16.0074 1.03952C15.8766 1.17031 15.8043 1.34702 15.8043 1.53208V8.21097C15.8043 8.39464 15.878 8.57273 16.0074 8.70353C16.1382 8.83433 16.3149 8.90668 16.4999 8.90668L17.6116 8.90529C17.7229 8.90529 17.8286 8.94981 17.9065 9.02773C17.9844 9.10566 18.029 9.2128 18.029 9.32272V11.6562L20.6557 9.02913C20.7337 8.95121 20.8394 8.90669 20.9507 8.90669H26.5159C26.7009 8.90669 26.8776 8.83433 27.0084 8.70354C27.1392 8.57274 27.2115 8.39603 27.2115 8.21097L27.2129 1.53066V1.53208ZM17.613 4.17582C17.3821 4.17582 17.1956 3.98936 17.1956 3.75838C17.1956 3.5274 17.382 3.34094 17.613 3.34094H25.4043C25.6352 3.34094 25.8217 3.52739 25.8217 3.75838C25.8217 3.98936 25.6353 4.17582 25.4043 4.17582H17.613ZM17.613 6.40211C17.3821 6.40211 17.1956 6.21566 17.1956 5.98467C17.1956 5.75369 17.382 5.56723 17.613 5.56723H25.4043C25.6352 5.56723 25.8217 5.75369 25.8217 5.98467C25.8217 6.21565 25.6353 6.40211 25.4043 6.40211H17.613Z" fill="black"/>
<rect id="Rectangle 3463339" width="15.8639" height="1.41442" rx="0.70721" transform="matrix(0.499963 0.866047 -0.866004 0.500036 11.8633 9.90723)" fill="#FFC800"/>
</g>
</g>
</g>
<g id="Group 1000002898_2">
<g id="Group 1000002897_2">
<g id="Group 1000002896_2">
<path id="Vector_2" d="M24.706 12.6272C24.8969 13.2553 25.4853 13.8836 26.4502 14.4806C26.4658 14.491 26.4863 14.4962 26.5071 14.4962H26.5123C26.5329 14.4962 26.5537 14.491 26.5692 14.4806C27.539 13.8836 28.1274 13.2552 28.3183 12.6272C28.4629 12.1599 28.2978 11.6564 27.9055 11.3708C27.3584 10.9711 26.796 11.3292 26.5122 11.6357C26.2283 11.3294 25.666 10.9711 25.1188 11.3708C24.7266 11.6564 24.5614 12.1599 24.706 12.6272Z" fill="white"/>
</g>
</g>
</g>
</g>
</svg>
