<svg width="31" height="32" viewBox="0 0 31 32" fill="none" xmlns="http://www.w3.org/2000/svg">
<g id="Group">
<path id="Vector" d="M11.2913 27.0767H10.949C8.20103 27.0767 5.45306 27.0767 2.70607 27.0767C1.33404 27.0767 0.321833 26.2605 0.0400155 24.9246C0.0117362 24.79 0.0136865 24.6486 0.0136865 24.5101C0.0127113 18.7792 0.030264 13.0492 3.44033e-05 7.31927C-0.00679163 5.97454 1.00249 4.59373 2.73435 4.59958C6.42138 4.61128 10.1084 4.60348 13.7945 4.60348C13.8637 4.60348 13.9339 4.5986 14.0032 4.60348C14.1563 4.61616 14.2157 4.58885 14.1748 4.40357C14.1036 4.0808 14.1085 3.75413 14.1875 3.42355C14.4469 2.34796 15.6707 2.2485 16.2538 2.87747C16.5961 3.24705 16.9608 3.59713 17.3157 3.95501C17.5507 4.19294 17.6395 4.20172 17.8638 3.95403C18.4216 3.33676 18.3952 3.55227 17.8579 2.99156C17.581 2.70292 17.2992 2.41915 17.0095 2.14318C16.6244 1.77653 16.4839 1.33088 16.6643 0.840383C16.8594 0.312828 17.2953 0.0358864 17.8511 0.00468163C18.8136 -0.0499267 19.6054 0.379138 20.3055 0.980805C21.151 1.70729 21.5732 2.63758 21.5196 3.76583C21.5118 3.93063 21.5069 4.0964 21.5069 4.2612C21.5069 4.64834 21.4621 4.60055 21.8307 4.60153C22.8653 4.60445 23.8999 4.60153 24.9346 4.60153C26.0648 4.60153 27.195 4.5947 28.3261 4.60348C29.628 4.61323 30.645 5.4226 30.9239 6.66397C30.9815 6.91848 30.9951 7.17885 30.9951 7.44116C30.9932 13.0239 30.9883 18.6056 31 24.1884C31.0019 25.0192 30.8059 25.7476 30.2023 26.3366C29.7089 26.8183 29.1111 27.0719 28.4227 27.0738C25.6142 27.0797 22.8058 27.0787 19.9964 27.0719C19.7624 27.0719 19.7 27.104 19.7741 27.3537C20.0559 28.3093 20.3182 29.2708 20.5757 30.2343C20.6244 30.4176 20.6995 30.48 20.8926 30.4771C21.8492 30.4664 22.8058 30.4742 23.7624 30.4712C23.9594 30.4712 24.1154 30.5132 24.1135 30.7491C24.1125 30.8857 24.0482 30.9822 23.896 30.989C23.8356 30.992 23.7741 30.99 23.7137 30.99C18.2616 30.99 12.8096 30.99 7.35752 30.99C7.31364 30.99 7.27074 30.9881 7.22686 30.99C7.04548 30.9998 6.90701 30.9403 6.90603 30.7394C6.90603 30.5258 7.0523 30.4664 7.24246 30.4712C7.37313 30.4751 7.50282 30.4712 7.63349 30.4712C8.46822 30.4712 9.30295 30.4703 10.1377 30.4722C10.2566 30.4722 10.3522 30.4722 10.3922 30.322C10.6828 29.2523 10.9812 28.1845 11.2883 27.0748L11.2913 27.0767Z" fill="#080808"/>
<path id="Vector_2" d="M4.30861 31.9131C4.30764 31.9063 4.34957 31.881 4.37004 31.8829C4.40808 31.8858 4.42855 31.918 4.42855 31.9551" fill="#1B1B1B"/>
<path id="Vector_3" d="M0.203125 31.8497C0.383527 31.7931 0.548327 31.838 0.668271 31.9901L0.203125 31.8497Z" fill="#161616"/>
<path id="Vector_4" d="M4.85352 31.9325C4.85352 31.913 4.87887 31.8945 4.90617 31.8555L4.85352 31.9325Z" fill="#101010"/>
<path id="Vector_5" d="M16.0293 6.96507C16.824 7.38829 17.6763 7.49068 18.5569 7.37659C18.7402 7.35318 18.864 7.37366 18.9869 7.51896C19.3604 7.9607 19.7475 8.39074 20.16 8.85979C19.8684 8.90074 19.6276 8.87734 19.3896 8.91342C18.592 9.03434 17.9679 9.68574 17.9523 10.4893C17.9328 11.5327 17.9298 12.5761 17.9523 13.6195C17.9737 14.5927 18.7148 15.2831 19.6919 15.285C21.1352 15.287 22.5784 15.288 24.0216 15.2821C24.1942 15.2821 24.3005 15.3338 24.4117 15.4703C25.1879 16.4289 26.1815 16.9311 27.4327 16.854C27.93 16.8238 28.2537 16.5352 28.4302 16.0944C28.6048 15.6595 28.559 15.2382 28.2206 14.8852C27.8227 14.4718 27.4229 14.0603 27.0114 13.6604C26.8349 13.4898 26.83 13.3708 27.0026 13.1875C27.615 12.5361 27.5321 12.6356 28.0519 13.1777C28.3522 13.4917 28.635 13.8233 28.9831 14.0876C29.4853 14.4679 29.8744 14.502 30.4732 14.1899V14.4776C30.4732 17.6254 30.4702 20.7732 30.478 23.92C30.478 24.1579 30.4186 24.2242 30.1777 24.2242C20.3872 24.2184 10.5967 24.2184 0.806247 24.2242C0.56441 24.2242 0.52638 24.1491 0.52638 23.9307C0.53223 18.3743 0.543932 12.8189 0.519554 7.26249C0.514678 6.23371 1.30942 5.09571 2.67463 5.10644C3.88284 5.11619 5.09202 5.10839 6.30023 5.10839C8.91753 5.10839 11.5348 5.11034 14.1521 5.10352C14.3345 5.10352 14.4271 5.15812 14.5022 5.32195C14.7372 5.8339 15.2911 6.36048 15.7192 6.73494" fill="white"/>
<path id="Vector_6" d="M24.1115 12.961C24.1261 12.686 24.1329 12.4861 24.1485 12.2871C24.1709 12.0014 24.0588 11.7879 23.8345 11.6133C22.6468 10.685 21.5683 9.63767 20.5366 8.54453C20.2274 8.21688 19.9729 7.8395 19.6921 7.48552C19.5673 7.32852 19.4259 7.18615 19.265 7.06621C19.0378 6.89653 18.8115 6.81267 18.4966 6.87313C16.8593 7.18615 15.2103 6.16224 14.7481 4.57275C14.6525 4.24315 14.6418 3.90185 14.6828 3.56445C14.7374 3.10613 15.2444 2.86332 15.653 3.08565C16.0616 3.30701 16.3317 3.67659 16.6389 4.00619C16.8115 4.1905 16.9792 4.3787 17.184 4.52887C17.4668 4.73658 17.7779 4.72683 18.0353 4.48499C18.2313 4.30069 18.4205 4.10663 18.5989 3.90575C18.8613 3.60931 18.871 3.31579 18.6038 3.01934C18.3308 2.71607 18.0285 2.4401 17.7389 2.15146C17.5604 1.97398 17.3761 1.80041 17.2396 1.58588C16.988 1.19387 17.1752 0.703366 17.6228 0.568796C17.9076 0.482983 18.1904 0.512237 18.4722 0.577572C19.9651 0.922774 20.9705 2.13488 21.0378 3.66489C21.0485 3.91063 21.0095 4.15051 20.9637 4.38943C20.8993 4.72293 20.9705 4.98817 21.2465 5.22025C22.7706 6.50452 24.2333 7.85315 25.4854 9.41339C25.5722 9.52163 25.659 9.63085 25.7458 9.73811C25.9837 10.0326 26.2821 10.1106 26.6517 10.0326C28.5318 9.63377 30.37 11.0614 30.4548 12.9854C30.4616 13.1307 30.4499 13.2837 30.4099 13.4232C30.3066 13.7899 29.9545 13.9605 29.5869 13.8445C29.3109 13.7567 29.113 13.5656 28.9189 13.3637C28.6127 13.0448 28.3651 12.6704 27.9964 12.411C27.62 12.1458 27.3782 12.1399 27.0398 12.4412C26.8458 12.6138 26.6624 12.802 26.4908 12.9971C26.2558 13.2652 26.2646 13.6065 26.5288 13.8922C26.7999 14.1858 27.0993 14.453 27.3792 14.7377C27.544 14.9044 27.7 15.08 27.8521 15.2584C28.0286 15.4642 28.0481 15.6953 27.9389 15.9391C27.8248 16.1916 27.6288 16.3252 27.3509 16.3418C25.581 16.4491 24.0237 14.8274 24.1115 13.2789C24.1193 13.1492 24.1124 13.0185 24.1124 12.9629L24.1115 12.961Z" fill="#9FCDFE"/>
<path id="Vector_7" d="M15.5372 24.7461C20.3964 24.7461 25.2555 24.7461 30.1147 24.7461C30.3546 24.7461 30.4401 24.8592 30.3712 25.0854C30.1098 25.9446 29.3014 26.5316 28.3448 26.5569C28.3009 26.5579 28.258 26.5569 28.2141 26.5569C19.7391 26.5569 11.2641 26.5569 2.78911 26.5569C1.69792 26.5569 0.913903 26.0177 0.625259 25.0728C0.531645 24.7656 0.544322 24.7461 0.856369 24.7461C5.75064 24.7461 10.6439 24.7461 15.5382 24.7461H15.5372Z" fill="#FFC800"/>
<path id="Vector_8" d="M20.0872 30.4687H19.8542C16.958 30.4687 14.0628 30.4668 11.1666 30.4726C10.9521 30.4726 10.8809 30.4502 10.953 30.2054C11.2368 29.241 11.4991 28.2697 11.7604 27.2995C11.8063 27.1288 11.8775 27.0723 12.0608 27.0723C14.3563 27.0801 16.6518 27.0781 18.9483 27.0762C19.077 27.0762 19.1725 27.0762 19.2174 27.24C19.5012 28.2853 19.7966 29.3278 20.0872 30.3722C20.0941 30.3956 20.0872 30.4229 20.0872 30.4697V30.4687Z" fill="#9FCDFE"/>
<path id="Vector_9" d="M21.9199 5.11219C22.9848 5.11219 23.9755 5.11219 24.9653 5.11219C26.0692 5.11219 27.173 5.11024 28.2769 5.11219C29.5622 5.11512 30.4476 5.96642 30.4671 7.25557C30.4866 8.54179 30.472 9.82899 30.471 11.1152C30.471 11.1464 30.4651 11.1766 30.4573 11.2595C30.2448 10.9806 30.0848 10.7242 29.8703 10.5135C29.0209 9.68076 27.9961 9.33946 26.8278 9.48866C26.467 9.53449 26.2271 9.45063 25.9921 9.19709C25.5894 8.76412 25.1876 8.33116 24.8112 7.87479C24.0838 6.9913 23.2256 6.24337 22.3646 5.49738C22.2349 5.38426 22.1042 5.27309 21.918 5.11219H21.9199Z" fill="white"/>
<path id="Vector_10" d="M23.9526 14.7674C22.958 14.7674 22.0033 14.7674 21.0486 14.7674C20.5971 14.7674 20.1456 14.7703 19.6941 14.7674C18.9706 14.7615 18.4781 14.2837 18.4723 13.566C18.4645 12.5762 18.4655 11.5855 18.4723 10.5957C18.4762 9.9609 18.8721 9.51721 19.4972 9.42652C19.6083 9.41091 19.7215 9.40311 19.8336 9.38946C20.3641 9.32608 20.7795 9.4665 21.152 9.90141C21.8258 10.6864 22.6742 11.2949 23.4426 11.9853C23.5811 12.1101 23.6484 12.2164 23.6084 12.4212C23.4524 13.2218 23.6142 13.9873 23.9536 14.7664L23.9526 14.7674Z" fill="white"/>
<path id="Vector_11" d="M15.9025 16.1734C15.9025 16.3206 15.9025 16.4689 15.9025 16.6161C15.9044 17.169 15.5553 17.5298 15.0014 17.5454C14.7674 17.5522 14.5324 17.5327 14.2993 17.5766C13.9298 17.6449 13.683 18.2973 13.9288 18.58C14.077 18.7507 14.2506 18.8979 14.3988 19.0676C14.7499 19.4665 14.7645 19.8643 14.4154 20.2593C14.1345 20.5771 13.8293 20.8765 13.5182 21.1652C13.253 21.4109 12.9205 21.4333 12.6006 21.2568C12.3383 21.1125 12.1189 20.9145 11.9288 20.6864C11.7952 20.5255 11.6508 20.4884 11.447 20.5479C10.9546 20.6912 10.8424 20.8053 10.8619 21.3095C10.9029 22.3665 10.4855 22.6874 9.44993 22.6035C9.26855 22.5889 9.08522 22.5908 8.90287 22.5957C8.34996 22.6123 7.98038 22.2788 7.95112 21.72C7.9404 21.5035 7.9482 21.2861 7.94722 21.0686C7.94722 20.7341 7.67126 20.6825 7.44405 20.5908C7.24317 20.5108 7.05009 20.4806 6.88041 20.6844C6.67953 20.9243 6.45037 21.1379 6.16173 21.2783C5.87698 21.4168 5.59419 21.4089 5.35138 21.2149C4.95742 20.8999 4.58394 20.5576 4.307 20.1305C4.05053 19.7356 4.08369 19.4177 4.40061 19.0657C4.5342 18.9174 4.67755 18.777 4.8248 18.6425C5.07249 18.4162 4.974 18.1793 4.87356 17.9286C4.77994 17.6966 4.6522 17.5454 4.37428 17.5659C4.13244 17.5834 3.88866 17.5659 3.64682 17.5327C3.27334 17.482 3.01005 17.2499 2.93789 16.8755C2.8433 16.383 2.87938 15.8867 2.92911 15.3952C2.97104 14.97 3.28797 14.7029 3.72386 14.6697C3.94912 14.6522 4.17633 14.6541 4.40158 14.6609C4.68438 14.6707 4.8014 14.4747 4.89306 14.266C4.98765 14.0505 5.06078 13.8203 4.86088 13.6117C4.69315 13.4361 4.51178 13.2713 4.36063 13.0822C4.05541 12.6999 4.06613 12.3215 4.37526 11.9451C4.64635 11.6146 4.96912 11.3337 5.28604 11.0509C5.62442 10.7486 6.03398 10.7808 6.44452 11.1124C6.60639 11.243 6.75267 11.3942 6.89309 11.5473C7.10665 11.7803 7.3397 11.6838 7.56301 11.5912C7.77365 11.5034 7.96673 11.3903 7.9521 11.1026C7.93747 10.8257 7.92382 10.5468 7.99988 10.2737C8.09545 9.92658 8.2895 9.66427 8.66493 9.63404C9.17396 9.59211 9.68689 9.55018 10.1949 9.64672C10.5401 9.71205 10.7303 9.94414 10.8132 10.2737C10.8824 10.5478 10.8678 10.8266 10.8571 11.1046C10.8473 11.3444 10.9663 11.4693 11.175 11.5502C11.4158 11.6438 11.6499 11.8028 11.8946 11.5648C12.0321 11.4312 12.1657 11.2947 12.3003 11.1601C12.6767 10.7847 13.0258 10.7399 13.4675 11.0363C13.8673 11.3054 14.1882 11.6662 14.4914 12.0329C14.7508 12.3469 14.7167 12.774 14.4485 13.089C14.3023 13.2596 14.1316 13.4098 13.9727 13.5697C13.8225 13.7199 13.7708 13.8954 13.8634 14.0914C13.9736 14.3226 13.9951 14.6395 14.3598 14.6453C14.586 14.6492 14.8113 14.6541 15.0365 14.6629C15.5212 14.6814 15.804 14.9427 15.881 15.4196C15.922 15.6712 15.922 15.9218 15.9035 16.1734H15.9025Z" fill="#080808"/>
<path id="Vector_12" d="M21.1605 16.9023C22.1074 16.9023 23.0543 16.9053 24.0012 16.9004C24.1972 16.9004 24.3698 16.9345 24.362 17.1647C24.3551 17.3675 24.1962 17.4221 24.008 17.4221C22.1055 17.4201 20.203 17.4201 18.2995 17.4221C18.1152 17.4221 17.963 17.3792 17.9572 17.1598C17.9513 16.9306 18.1083 16.9023 18.2926 16.9023C19.2483 16.9053 20.2039 16.9033 21.1596 16.9033L21.1605 16.9023Z" fill="#090909"/>
<path id="Vector_13" d="M20.7266 21.1436C21.5262 21.1436 22.3258 21.1455 23.1254 21.1426C23.3117 21.1426 23.4706 21.1884 23.4784 21.3981C23.4872 21.6106 23.3331 21.6682 23.1449 21.6682C22.4672 21.6662 21.7885 21.6682 21.1108 21.6682C20.1893 21.6682 19.2678 21.6682 18.3462 21.6682C18.2185 21.6682 18.08 21.6877 17.9942 21.5531C17.8665 21.3522 17.9991 21.1504 18.2751 21.1465C18.7441 21.1406 19.2141 21.1445 19.6832 21.1445C20.0313 21.1445 20.3784 21.1445 20.7266 21.1445V21.1436Z" fill="#090909"/>
<path id="Vector_14" d="M24.1663 19.0273C24.8782 19.0273 25.589 19.0283 26.3009 19.0273C26.4881 19.0273 26.6705 19.0439 26.6666 19.2848C26.6627 19.5149 26.4842 19.552 26.297 19.552C24.8743 19.552 23.4515 19.552 22.0288 19.552C21.8415 19.552 21.667 19.5178 21.666 19.2809C21.665 19.0322 21.8503 19.0273 22.0327 19.0273C22.7445 19.0273 23.4554 19.0273 24.1673 19.0273H24.1663Z" fill="#090909"/>
<path id="Vector_15" d="M19.0883 19.0273C19.375 19.0273 19.6616 19.0273 19.9483 19.0273C20.12 19.0273 20.2399 19.0995 20.2497 19.2789C20.2584 19.4535 20.1268 19.5383 19.9825 19.5412C19.3925 19.5529 18.8016 19.552 18.2106 19.5432C18.0546 19.5412 17.9522 19.4447 17.9551 19.2731C17.959 19.0976 18.0673 19.0293 18.2282 19.0283C18.5149 19.0264 18.8016 19.0283 19.0883 19.0283V19.0273Z" fill="#0A0A0A"/>
<path id="Vector_16" d="M25.8235 21.6622C25.6323 21.6622 25.4412 21.6661 25.2501 21.6612C25.097 21.6564 25.0102 21.5735 25.0024 21.4165C24.9946 21.2565 25.0892 21.1473 25.2296 21.1532C25.6284 21.1688 26.0273 21.083 26.4242 21.1649C26.5587 21.1932 26.6797 21.24 26.6719 21.4116C26.6641 21.5861 26.5519 21.6554 26.3969 21.6612C26.2057 21.669 26.0146 21.6632 25.8235 21.6632V21.6622Z" fill="#0A0A0A"/>
<path id="Vector_17" d="M9.4629 10.1215C9.59357 10.1215 9.72327 10.1205 9.85394 10.1215C10.1884 10.1244 10.2869 10.2053 10.3288 10.5398C10.3474 10.6851 10.3327 10.8343 10.3366 10.9825C10.3396 11.1122 10.3259 11.2478 10.3571 11.3716C10.4829 11.8758 10.91 12.0308 11.3352 12.1664C11.6843 12.2775 12.0022 12.2093 12.2645 11.9333C12.4137 11.7763 12.5648 11.6183 12.7296 11.4779C12.9052 11.3277 13.0875 11.3258 13.2601 11.5033C13.502 11.7529 13.7467 12.0006 13.9993 12.2395C14.168 12.4004 14.1768 12.5632 14.0539 12.7495C13.9515 12.9036 13.8179 13.0284 13.6775 13.1435C13.3079 13.4458 13.2289 13.8241 13.3693 14.2668C13.5995 14.9933 13.8784 15.1913 14.6478 15.1698C15.3128 15.1513 15.3957 15.2293 15.3986 15.9031C15.3996 16.1547 15.3889 16.4073 15.382 16.6589C15.3762 16.8793 15.2504 16.9972 15.0417 17.0128C14.835 17.0284 14.6263 17.0197 14.4186 17.0226C13.9574 17.0304 13.6492 17.243 13.4786 17.672C13.4366 17.7764 13.3947 17.8817 13.3567 17.987C13.224 18.3576 13.2826 18.6852 13.5741 18.9622C13.7126 19.0938 13.854 19.2235 13.9798 19.3669C14.1865 19.6028 14.1797 19.7823 13.9622 20.0056C13.7321 20.2425 13.4903 20.4678 13.2621 20.7067C13.0973 20.8783 12.9286 20.8657 12.7491 20.7477C12.5951 20.6462 12.479 20.5049 12.3542 20.3713C11.8237 19.7998 10.7364 19.9822 10.4029 20.694C10.3454 20.8169 10.3386 20.9446 10.3386 21.0753C10.3376 21.2489 10.3503 21.4234 10.3405 21.597C10.3181 21.9764 10.2011 22.0846 9.82273 22.0719C9.50191 22.0622 9.18401 22.147 8.86123 22.0817C8.56479 22.0212 8.47215 21.9276 8.46825 21.6311C8.46435 21.4137 8.47313 21.1962 8.46337 20.9797C8.44875 20.6706 8.30735 20.4317 8.02846 20.2874C7.85878 20.1996 7.68716 20.1148 7.5087 20.0495C7.09719 19.8973 6.76467 20.0436 6.47505 20.342C6.34243 20.4785 6.21078 20.6199 6.06158 20.7379C5.88313 20.8793 5.70858 20.8822 5.53501 20.694C5.3351 20.4775 5.10496 20.2893 4.89921 20.0768C4.60179 19.7686 4.60959 19.5872 4.91189 19.2888C4.95479 19.2459 4.99867 19.203 5.04158 19.1601C5.58571 18.6179 5.63349 18.3712 5.33022 17.6789C5.10691 17.1698 4.78804 16.9836 4.21368 17.0245C3.5067 17.0753 3.40528 16.9826 3.40626 16.2786C3.40626 16.0357 3.41796 15.792 3.42088 15.5492C3.42381 15.3132 3.55545 15.1971 3.77486 15.1825C3.98257 15.1688 4.19125 15.1786 4.39993 15.1786C4.82607 15.1786 5.13129 14.9933 5.29609 14.5935C5.34583 14.4736 5.39751 14.3536 5.43847 14.2308C5.58084 13.8056 5.4804 13.4497 5.14007 13.1532C4.5228 12.6149 4.52183 12.5262 5.09131 11.9587C5.24539 11.8056 5.40043 11.6534 5.55256 11.4974C5.70468 11.3404 5.85973 11.3336 6.04013 11.4574C6.21468 11.5774 6.34438 11.7412 6.49358 11.8855C6.8534 12.2336 7.25322 12.3039 7.73786 12.0981C8.24104 11.8855 8.47313 11.551 8.46923 11.044C8.46825 10.8957 8.46142 10.7485 8.46532 10.6003C8.47313 10.2629 8.57844 10.1478 8.91584 10.1234C9.09722 10.1108 9.28055 10.1215 9.4629 10.1205V10.1215Z" fill="#FFC800"/>
<path id="Vector_18" d="M6.57617 16.0809C6.57422 14.4436 7.76 13.2481 9.39435 13.2403C11.0306 13.2325 12.2281 14.4436 12.2428 16.1209C12.2564 17.7279 10.9975 18.9927 9.3924 18.9858C7.74538 18.979 6.5791 17.7747 6.57715 16.0809H6.57617Z" fill="#080808"/>
<path id="Vector_19" d="M7.03915 16.1412C7.02745 14.893 8.15375 13.754 9.41071 13.7404C10.6589 13.7267 11.752 14.814 11.7618 16.0768C11.7715 17.3133 10.6609 18.463 9.44777 18.4718C8.14107 18.4815 7.05085 17.4274 7.03915 16.1412Z" fill="white"/>
</g>
</svg>
