<svg width="28" height="29" viewBox="0 0 28 29" fill="none" xmlns="http://www.w3.org/2000/svg">
<g id="ii 1" clip-path="url(#clip0_6815_18592)">
<path id="Vector" d="M15.2685 17.6117C18.6972 17.6117 22.1259 17.6097 25.5546 17.6173C25.7826 17.6173 25.8381 17.5591 25.8374 17.3331C25.8298 13.7641 25.8325 10.1944 25.8318 6.6254C25.8318 6.07584 25.6495 5.89427 25.1027 5.89358C24.578 5.89358 24.0534 5.89635 23.5294 5.8915C23.2861 5.88942 23.0851 5.79101 22.9715 5.56717C22.8682 5.36411 22.8807 5.15898 23.0047 4.96563C23.1101 4.80208 23.2695 4.70783 23.4552 4.70506C24.1199 4.69674 24.7887 4.64754 25.4492 4.72308C26.3946 4.83119 27.0198 5.55954 27.0274 6.5159C27.035 7.44731 27.0295 8.37872 27.0295 9.31013C27.0295 13.0205 27.0295 16.7309 27.0295 20.4406C27.0295 21.3533 26.5277 22.0408 25.7036 22.2639C25.5061 22.3173 25.3037 22.3319 25.0999 22.3312C23.0727 22.3305 21.0447 22.3339 19.0174 22.3256C18.8053 22.3249 18.7485 22.3811 18.7707 22.5876C18.8712 23.5121 19.2246 24.3194 19.8567 25.002C20.1076 25.273 20.4008 25.4968 20.6732 25.7436C20.7494 25.8129 20.8312 25.8323 20.9296 25.8309C21.1722 25.8274 21.4148 25.8267 21.6574 25.8309C22.0531 25.8364 22.3324 26.088 22.3304 26.431C22.3283 26.7748 22.0497 27.0249 21.6518 27.0256C20.1097 27.0284 18.5676 27.027 17.0255 27.027C14.3557 27.027 11.6866 27.027 9.01688 27.027C8.51578 27.027 8.2233 26.808 8.22122 26.431C8.21914 26.054 8.51578 25.7935 9.01065 25.8406C9.55264 25.8926 9.91443 25.6937 10.2832 25.3035C10.9277 24.6216 11.4316 23.8884 11.6153 22.9549C11.7386 22.3291 11.7469 22.3305 11.1273 22.3305C9.20956 22.3305 7.2911 22.3325 5.37334 22.3291C4.4952 22.3277 3.81251 21.8183 3.59003 21.0131C3.54636 20.8537 3.5228 20.6915 3.5228 20.5266C3.52141 19.196 3.52072 17.8654 3.5228 16.5348C3.5228 16.1627 3.71617 15.9097 4.01905 15.8653C4.39816 15.8092 4.70035 16.067 4.71629 16.4738C4.72738 16.7628 4.73154 17.0539 4.7149 17.3422C4.70243 17.5528 4.76273 17.6166 4.98313 17.6166C8.20805 17.609 11.4337 17.6117 14.6586 17.6117C14.8624 17.6117 15.0654 17.6117 15.2692 17.6117H15.2685Z" fill="#080808"/>
<path id="Vector_2" d="M11.1705 0C14.622 0 18.0736 0 21.5258 0C22.1302 0 22.334 0.200281 22.334 0.796965C22.334 5.35977 22.334 9.92256 22.334 14.4847C22.334 15.0834 22.1302 15.2865 21.53 15.2865C14.6186 15.2865 7.7078 15.2865 0.796355 15.2865C0.208619 15.2865 0.000693085 15.0814 0.000693085 14.5013C0 9.93088 0 5.35977 0 0.789342C0 0.205825 0.206539 0 0.792197 0C4.25139 0 7.71127 0 11.1705 0Z" fill="#080808"/>
<path id="Vector_3" d="M15.2865 18.809C18.7062 18.809 22.1259 18.8117 25.5455 18.8027C25.7874 18.8027 25.8484 18.8672 25.8387 19.1007C25.82 19.554 25.8346 20.0079 25.8325 20.4618C25.8304 20.9303 25.6294 21.1333 25.1609 21.1333C22.1092 21.134 19.0569 21.1333 16.0052 21.1333C12.4837 21.1333 8.96209 21.1333 5.44052 21.1333C5.25894 21.1333 5.07873 21.1361 4.92903 21.0093C4.78209 20.8845 4.71694 20.7272 4.71833 20.5339C4.72179 20.0411 4.7315 19.5477 4.71348 19.055C4.70516 18.836 4.78487 18.8027 4.98032 18.8027C7.80533 18.8083 10.6303 18.8069 13.4554 18.8069C14.066 18.8069 14.6759 18.8069 15.2865 18.8069V18.809Z" fill="#9FCDFE"/>
<path id="Vector_4" d="M11.4492 25.8126C11.6384 25.5631 11.8249 25.342 11.9843 25.1043C12.5041 24.3296 12.807 23.4771 12.8562 22.5416C12.8645 22.385 12.9109 22.3274 13.0766 22.3281C14.5092 22.3337 15.9411 22.3323 17.3737 22.3302C17.4853 22.3302 17.5608 22.3337 17.5705 22.4841C17.6496 23.7287 18.1077 24.8181 18.9304 25.7544C18.9394 25.7641 18.9401 25.7807 18.9512 25.8126H11.4492Z" fill="#FFC800"/>
<path id="Vector_5" d="M11.1408 14.0898C7.92416 14.0898 4.70686 14.0877 1.49025 14.0946C1.26223 14.0946 1.18945 14.051 1.18945 13.8043C1.19846 9.69538 1.19777 5.5872 1.19084 1.47832C1.19084 1.25794 1.23728 1.19072 1.47015 1.19141C7.93525 1.19834 14.3997 1.19765 20.8648 1.1928C21.0706 1.1928 21.1413 1.23507 21.1406 1.45891C21.1337 5.58304 21.133 9.70716 21.1406 13.832C21.1406 14.0627 21.0595 14.0939 20.8606 14.0939C17.6204 14.0891 14.3803 14.0905 11.1401 14.0905L11.1408 14.0898Z" fill="#FFC800"/>
<path id="Vector_6" d="M12.3418 8.81164C12.3418 7.66124 12.3418 6.51153 12.3418 5.36113C12.3418 4.93977 12.5677 4.6986 12.9878 4.69791C15.2964 4.69445 17.6044 4.69445 19.9131 4.69791C20.3324 4.69791 20.5611 4.93977 20.5611 5.35905C20.5618 7.66747 20.5618 9.97521 20.5611 12.2836C20.5611 12.6877 20.3324 12.9344 19.9269 12.9351C17.6106 12.9399 15.2943 12.9399 12.978 12.9351C12.5712 12.9344 12.3432 12.689 12.3425 12.2857C12.3411 11.1277 12.3425 9.96967 12.3425 8.81164H12.3418Z" fill="#080808"/>
<path id="Vector_7" d="M5.87723 5.89325C4.74265 5.89325 3.60877 5.89325 2.47419 5.89325C2.21774 5.89325 1.99318 5.83365 1.85179 5.59664C1.65149 5.26053 1.81506 4.83641 2.19071 4.73176C2.28705 4.70474 2.39101 4.69711 2.49151 4.69711C4.75236 4.69503 7.0132 4.69503 9.27335 4.69573C9.69128 4.69573 9.95396 4.89116 9.98723 5.22034C10.0274 5.61882 9.75435 5.89048 9.30246 5.89118C8.16026 5.89395 7.01805 5.89187 5.87654 5.89187L5.87723 5.89325Z" fill="#080808"/>
<path id="Vector_8" d="M5.87014 8.8185C4.70507 8.8185 3.53999 8.81988 2.37422 8.8178C2.06441 8.8178 1.81629 8.61129 1.7747 8.332C1.73173 8.04371 1.88629 7.78106 2.15382 7.67641C2.23768 7.64384 2.32155 7.64453 2.40749 7.64453C4.72239 7.64453 7.0373 7.64453 9.35221 7.64453C9.73687 7.64453 9.99331 7.88431 9.99054 8.23567C9.98846 8.58495 9.73202 8.8178 9.3425 8.8178C8.18505 8.8185 7.0276 8.8178 5.87014 8.8178V8.8185Z" fill="#080808"/>
<path id="Vector_9" d="M4.10789 11.7633C3.5451 11.7633 2.98163 11.7696 2.41884 11.7612C1.89764 11.7536 1.60446 11.2761 1.85398 10.8589C1.97457 10.658 2.16101 10.5693 2.38349 10.5686C3.54095 10.5644 4.69771 10.5616 5.85516 10.5693C6.22527 10.572 6.47062 10.8284 6.46785 11.1701C6.46577 11.509 6.21764 11.7543 5.84338 11.7605C5.26465 11.7696 4.68592 11.7626 4.1072 11.7633H4.10789Z" fill="#080808"/>
<path id="Vector_10" d="M13.5159 3.54501C13.3281 3.54501 13.1402 3.55194 12.9538 3.54362C12.583 3.52699 12.3397 3.28374 12.3418 2.94139C12.3439 2.60043 12.5899 2.35926 12.9642 2.35025C13.3308 2.34124 13.6989 2.34193 14.0655 2.35025C14.4384 2.35857 14.6872 2.60112 14.69 2.93931C14.6928 3.28928 14.4419 3.53114 14.0551 3.54362C13.8756 3.54916 13.6961 3.54431 13.5159 3.54431V3.54501Z" fill="#080808"/>
<path id="Vector_11" d="M19.3884 3.54501C19.2005 3.54501 19.0134 3.55194 18.8263 3.54362C18.4548 3.52699 18.2115 3.28443 18.2129 2.94278C18.2143 2.60181 18.4596 2.35995 18.8339 2.35025C19.2005 2.34124 19.5686 2.34193 19.9352 2.35025C20.3088 2.35857 20.5576 2.59973 20.5611 2.93793C20.5645 3.2879 20.3136 3.53045 19.9283 3.54362C19.7488 3.54986 19.5693 3.54431 19.3891 3.54431L19.3884 3.54501Z" fill="#080808"/>
<path id="Vector_12" d="M2.94273 3.54483C2.75559 3.54483 2.56707 3.55315 2.38063 3.54344C2.01053 3.52473 1.76933 3.27871 1.77349 2.93706C1.77765 2.60788 2.01815 2.36394 2.37786 2.35285C2.76044 2.34107 3.14372 2.34037 3.52561 2.35285C3.88324 2.36532 4.12097 2.61342 4.12097 2.94537C4.12097 3.27733 3.88601 3.52127 3.52838 3.54206C3.33363 3.55384 3.13818 3.54414 2.94273 3.54414V3.54483Z" fill="#080808"/>
<path id="Vector_13" d="M16.4508 2.34841C16.6387 2.34841 16.8258 2.34148 17.0129 2.3498C17.3733 2.36504 17.6381 2.627 17.6325 2.95272C17.6277 3.27081 17.3713 3.53 17.0219 3.54109C16.6394 3.55356 16.2561 3.55356 15.8735 3.54109C15.5249 3.53 15.2691 3.26873 15.2657 2.95064C15.2622 2.62354 15.5263 2.36435 15.8874 2.3498C16.0745 2.34217 16.2623 2.34841 16.4494 2.34841H16.4508Z" fill="#090909"/>
<path id="Vector_14" d="M16.4498 11.7431C15.5495 11.7431 14.6492 11.739 13.7496 11.7466C13.5756 11.748 13.5091 11.7147 13.5098 11.5193C13.5181 9.71884 13.5181 7.91908 13.5098 6.11863C13.5091 5.92251 13.577 5.89132 13.7496 5.89202C15.5502 5.89756 17.3502 5.89895 19.1508 5.89063C19.3553 5.88994 19.3906 5.95577 19.3899 6.14289C19.383 7.9274 19.3809 9.71191 19.392 11.4964C19.3934 11.7161 19.3213 11.7494 19.1272 11.7473C18.2352 11.7383 17.3425 11.7431 16.4498 11.7431Z" fill="white"/>
</g>
<defs>
<clipPath id="clip0_6815_18592">
<rect width="27.0331" height="28.9991" fill="white"/>
</clipPath>
</defs>
</svg>
