<svg width="32" height="32" viewBox="0 0 32 32" fill="none" xmlns="http://www.w3.org/2000/svg">
<g id="Frame 2018779876">
<g id="Group 2018775917">
<path id="Vector" d="M9.5 1.34961H30C30.9067 1.34961 31.6504 2.09321 31.6504 3V18C31.6504 18.9068 30.9067 19.6504 30 19.6504H24.3398C24.3912 18.7949 24.1246 17.9337 23.5273 17.291L23.3828 17.1455C22.8162 16.6151 22.0712 16.3253 21.2881 16.3252C20.3553 16.3252 19.492 16.7349 18.8604 17.4639L18.8486 17.4775L18.2373 18.2627C18.1805 18.2704 18.1116 18.28 18.042 18.2832C17.9605 18.2869 17.8939 18.2825 17.8486 18.2744C17.1728 17.1933 16.4328 16.1347 15.7617 15.5459L15.626 15.4326C15.1835 15.0827 14.6731 14.7955 14.1396 14.5615C14.4364 13.9356 14.6074 13.2377 14.6074 12.499C14.6072 9.82495 12.4321 7.65039 9.75781 7.65039C9.07943 7.65039 8.43498 7.79287 7.84961 8.0459V3C7.84961 2.09321 8.59331 1.34961 9.5 1.34961Z" fill="#9FCDFE" stroke="black" stroke-width="0.7"/>
<path id="Vector_2" d="M6.35059 15.9414C7.22576 16.8091 8.42802 17.3506 9.75781 17.3506C11.0669 17.3506 12.2522 16.8254 13.124 15.9814C13.5998 16.1639 14.0368 16.3836 14.3994 16.6387L14.5713 16.7666C14.805 16.9514 15.0958 17.2824 15.4131 17.7051C15.7261 18.1221 16.0501 18.6072 16.3496 19.082C16.9555 20.0425 17.4337 20.91 17.5645 21.126L17.8281 21.5615L18.1406 21.1592L20.1455 18.5771C20.4846 18.1862 20.9004 18.0244 21.2881 18.0244C21.5966 18.0245 21.8922 18.1267 22.125 18.3057L22.2207 18.3867C22.7313 18.8651 22.8574 19.8698 22.2061 20.627L22.1992 20.6357L22.1924 20.6436L18.6797 25.2559C18.3397 25.6885 17.8834 25.8964 17.4492 25.8965C17.1115 25.8965 16.7747 25.7703 16.4951 25.5049L15.4551 23.7441V23.7432L15.3877 23.6289L14.7363 22.5293V27.8701C14.7362 28.8556 13.9437 29.6502 12.9707 29.6504H6.48926C5.56791 29.6503 4.83456 28.9721 4.75586 28.1191L4.74902 27.9463V27.9424L4.75781 24.8779L4.08496 24.7412L3.24902 26.7373C2.92435 27.462 2.27535 27.874 1.68359 27.874C1.5131 27.874 1.34545 27.8398 1.18652 27.7695H1.18555C0.532941 27.4798 0.166195 26.5957 0.439453 25.6904L0.50293 25.5098L3.03223 19.1445C3.85531 17.4774 5.02929 16.4905 6.35059 15.9414Z" fill="#FFC800" stroke="black" stroke-width="0.7"/>
<path id="Vector_3" d="M9.75781 9.34961C11.4975 9.34961 12.9082 10.7603 12.9082 12.5C12.9082 14.2397 11.4975 15.6504 9.75781 15.6504C8.01812 15.6504 6.60742 14.2397 6.60742 12.5C6.60742 10.7603 8.01812 9.34961 9.75781 9.34961Z" fill="#FFC800" stroke="black" stroke-width="0.7"/>
<g id="Group 2018775915">
<circle id="Ellipse 2607" cx="20" cy="10" r="2.72727" fill="white" stroke="black" stroke-width="0.545455"/>
<path id="Polygon 4" d="M19.3076 10.9072L19.3076 8.87891L21.0635 9.89258L19.3076 10.9072Z" fill="#FFC800" stroke="black" stroke-width="0.436364"/>
</g>
</g>
</g>
</svg>
