<svg width="33" height="32" viewBox="0 0 33 32" fill="none" xmlns="http://www.w3.org/2000/svg">
<g id="mobile app 1" clip-path="url(#clip0_4597_18195)">
<path id="Vector" d="M25.0421 27.2056C25.0396 27.8937 25.038 28.5826 25.033 29.2707C25.0223 30.8325 23.8746 31.9942 22.3193 31.9967C18.4439 32.0016 14.5677 32.0016 10.6923 31.9967C9.118 31.995 7.97031 30.8334 7.96866 29.2484C7.96536 26.0398 7.96288 22.8303 7.97443 19.6216C7.97526 19.3015 7.91668 19.1315 7.56272 19.1992C7.50909 19.2091 7.45216 19.2008 7.39605 19.2008C6.70711 19.2008 6.63203 19.1406 6.48269 18.4657C6.25166 17.4179 6.25001 17.422 5.25001 17.0491C5.11965 17.0004 5.03962 17.0449 4.94638 17.1043C4.65595 17.2892 4.36882 17.4781 4.07592 17.6588C3.72691 17.8741 3.52889 17.856 3.24424 17.5771C2.86387 17.2042 2.48599 16.8279 2.11305 16.4468C1.84655 16.1745 1.83252 15.9765 2.03384 15.6415C2.06849 15.5846 2.10645 15.5301 2.14028 15.4724C2.31932 15.1671 2.65183 14.894 2.66008 14.5623C2.6675 14.248 2.41915 13.9312 2.29787 13.6102C2.24259 13.4633 2.14688 13.4114 2.00414 13.3825C1.65595 13.3124 1.31107 13.229 0.965359 13.149C0.647702 13.0764 0.499187 12.8743 0.500012 12.5517C0.502487 12.0079 0.502487 11.4634 0.500012 10.9197C0.498362 10.5789 0.664204 10.3817 0.994237 10.3116C1.26569 10.2539 1.53549 10.192 1.80612 10.1318C1.89275 10.1128 1.98021 10.0963 2.06519 10.0699C2.31519 9.99397 2.72361 8.92221 2.585 8.70192C2.39605 8.40077 2.20216 8.10293 2.01074 7.80425C1.83665 7.53198 1.86387 7.27951 2.09077 7.05015C2.48186 6.65577 2.8746 6.26304 3.26486 5.86866C3.50496 5.62609 3.76321 5.60794 4.04539 5.7911C4.31519 5.96602 4.58747 6.13846 4.85892 6.31089C4.91503 6.34637 4.96866 6.38845 5.02972 6.41485C5.22939 6.50313 6.25744 5.99654 6.30612 5.7845C6.38615 5.4388 6.45876 5.09145 6.53632 4.74493C6.59572 4.48008 6.74671 4.29774 7.02724 4.27712C7.30364 4.25732 7.49094 4.39675 7.57839 4.66242C7.76074 4.96769 7.68813 5.28039 7.6081 5.59474C7.53054 5.89589 7.48434 6.20364 7.4109 6.50643C7.33582 6.81501 7.1444 7.01962 6.84902 7.10955C6.37955 7.25311 5.93071 7.4338 5.49919 7.67059C5.22361 7.82158 4.92328 7.81003 4.64523 7.62934C4.47774 7.52043 4.31272 7.4074 4.13863 7.30922C3.93648 7.19453 3.74589 7.16401 3.56354 7.34965C3.39028 7.52621 3.42658 7.70607 3.53467 7.89584C3.6279 8.06085 3.73186 8.21843 3.83747 8.37437C4.05364 8.69367 4.05199 9.02287 3.86552 9.34629C3.65843 9.70519 3.49424 10.0798 3.3911 10.4799C3.28137 10.9024 3.02064 11.1482 2.58995 11.2175C2.39275 11.2497 2.19721 11.2934 2.00744 11.3586C1.82674 11.4213 1.74341 11.5517 1.74424 11.739C1.74506 11.9287 1.83582 12.0517 2.01569 12.1135C2.24754 12.1928 2.49011 12.2299 2.72773 12.286C3.05034 12.3619 3.25826 12.5632 3.34985 12.871C3.48681 13.3313 3.66585 13.7686 3.8977 14.1902C4.04952 14.4666 4.04374 14.7653 3.86635 15.0458C3.75331 15.224 3.63285 15.3973 3.52889 15.5813C3.41668 15.7785 3.35397 15.9699 3.54292 16.158C3.74671 16.361 3.94556 16.2785 4.1444 16.1481C4.30199 16.0441 4.47031 15.9575 4.62708 15.8519C4.93731 15.644 5.25909 15.6539 5.57014 15.8313C5.93978 16.0425 6.32509 16.2075 6.73516 16.3172C7.12707 16.422 7.36882 16.6638 7.44061 17.0697C7.47361 17.2553 7.50826 17.4418 7.56024 17.6233C7.58087 17.6951 7.6081 17.7875 7.71041 17.7652C7.78632 17.7487 7.79209 17.6654 7.79622 17.6002C7.81189 17.3453 7.80282 17.0895 7.80364 16.8337C7.80447 16.4228 7.80694 16.012 7.80282 15.6003C7.79869 15.1952 7.73434 15.1184 7.3482 15.0293C5.83665 14.682 4.86717 13.644 4.62625 12.1127C4.44968 10.9882 5.11222 9.55338 6.07509 8.97749C6.49094 8.72832 6.8581 8.82073 7.08087 9.22996C7.24919 9.4816 7.19391 9.71427 7.01734 9.93209C6.89853 10.0789 6.74919 10.1969 6.6147 10.3289C5.6114 11.3132 5.93483 13.0178 7.22031 13.5277C7.64358 13.6952 7.79787 13.597 7.80199 13.1424C7.81519 11.7555 7.78384 10.3694 7.82014 8.98162C7.78384 7.72752 7.80612 6.47343 7.80777 5.21934C7.80777 5.06093 7.8317 4.90911 7.95876 4.79443C7.96123 4.09478 7.96206 3.39513 7.96783 2.6963C7.98021 1.17736 9.13368 0.00742555 10.6469 0.00495037C14.5446 -0.00165012 18.4431 -0.00165012 22.3408 0.00495037C23.8721 0.00742555 25.0289 1.17571 25.0314 2.71775C25.0371 5.92724 25.0322 9.1359 25.0338 12.3454C25.0338 12.8586 24.9769 12.7942 25.5033 12.8008C25.5256 12.8008 25.5479 12.8008 25.5701 12.8008C26.3078 12.8008 26.3647 12.847 26.5256 13.5673C26.7517 14.5788 26.7533 14.5747 27.75 14.9509C27.8787 14.9996 27.9588 14.9608 28.0536 14.8998C28.3424 14.7133 28.632 14.526 28.9233 14.3437C29.2682 14.1283 29.472 14.1448 29.7558 14.4229C30.137 14.7958 30.5132 15.1729 30.8862 15.5541C31.1518 15.8255 31.1675 16.0276 30.9687 16.3593C30.9348 16.4162 30.8952 16.4707 30.8614 16.5285C30.6832 16.8345 30.349 17.106 30.3408 17.4377C30.3325 17.7512 30.5784 18.0697 30.703 18.3898C30.7525 18.5168 30.8251 18.5829 30.9621 18.6101C31.321 18.6819 31.6766 18.7701 32.033 18.8518C32.3498 18.9244 32.5 19.1257 32.4992 19.4483C32.4975 19.9921 32.4967 20.5366 32.4992 21.0803C32.5008 21.4211 32.3342 21.6174 32.005 21.69C31.6799 21.7618 31.3589 21.855 31.0314 21.9079C30.8226 21.9417 30.7154 22.0374 30.6749 22.2354C30.6617 22.2998 30.6419 22.3691 30.604 22.421C30.2393 22.9227 30.3432 23.3748 30.736 23.8047C30.8028 23.8773 30.8465 23.9705 30.9002 24.0555C31.1964 24.5216 31.1799 24.6776 30.7921 25.0695C30.472 25.3929 30.151 25.7163 29.8292 26.0381C29.4612 26.4061 29.2904 26.4226 28.8416 26.1363C28.5982 25.9812 28.3556 25.8252 28.1122 25.6701C28.0652 25.6404 28.0206 25.6049 27.9703 25.5835C27.755 25.4911 26.7393 26.0183 26.6873 26.2501C26.6139 26.5744 26.5454 26.9003 26.4736 27.2254C26.4134 27.4993 26.2698 27.7023 25.972 27.7254C25.6947 27.7468 25.5083 27.6057 25.4208 27.3392C25.2508 27.0463 25.3028 26.7452 25.382 26.4399C25.4555 26.161 25.5083 25.8764 25.5619 25.5934C25.6353 25.204 25.863 24.9631 26.2418 24.8583C26.6609 24.7428 27.0578 24.5769 27.4365 24.3608C27.7475 24.1834 28.0685 24.1825 28.3796 24.388C28.5644 24.5101 28.7467 24.638 28.9472 24.7353C29.1304 24.8244 29.2888 24.798 29.4324 24.6553C29.5784 24.5093 29.5916 24.3509 29.4984 24.1702C29.4018 23.9821 29.2838 23.8071 29.1659 23.6322C28.9414 23.3006 28.9513 22.9656 29.1469 22.6314C29.3498 22.2841 29.5066 21.9169 29.6073 21.5291C29.7162 21.1084 29.9695 20.8551 30.4027 20.7858C30.5784 20.7577 30.75 20.714 30.9216 20.667C31.1246 20.6117 31.255 20.497 31.2566 20.2709C31.2583 20.0465 31.1362 19.9269 30.9307 19.8683C30.7277 19.8105 30.5206 19.7685 30.3144 19.7256C29.9654 19.6538 29.7393 19.4442 29.6419 19.1084C29.5116 18.6579 29.3342 18.2322 29.1064 17.8213C28.9472 17.5334 28.9555 17.2265 29.1428 16.9377C29.2756 16.7331 29.4167 16.5334 29.5248 16.3131C29.6155 16.1299 29.5908 15.9699 29.4423 15.8304C29.3028 15.6993 29.1494 15.6918 28.9827 15.776C28.7731 15.8808 28.58 16.012 28.387 16.1407C28.066 16.3552 27.7385 16.3486 27.415 16.1621C27.0569 15.955 26.6807 15.7933 26.2822 15.6885C25.8763 15.5821 25.6262 15.3362 25.5561 14.9171C25.5289 14.7529 25.4926 14.5904 25.4538 14.4287C25.434 14.3453 25.4175 14.2274 25.3078 14.2348C25.1931 14.243 25.203 14.3627 25.2005 14.4468C25.1906 14.8131 25.1972 15.1795 25.1964 15.5458C25.1964 15.8346 25.1931 16.1233 25.1972 16.4113C25.2038 16.8081 25.2665 16.889 25.6626 16.9715C26.7863 17.205 27.5833 17.8584 28.0833 18.8741C28.7797 20.2899 28.2475 22.1999 26.9497 23.0068C26.5149 23.2766 26.1477 23.1875 25.9241 22.756C25.7459 22.4887 25.8177 22.2527 26.014 22.0333C26.1254 21.9095 26.2533 21.8022 26.3721 21.6867C27.3829 20.7033 27.0866 19.0408 25.802 18.4772C25.3696 18.2875 25.203 18.3906 25.1989 18.8625C25.1865 20.2478 25.2178 21.6339 25.1807 23.0192C25.217 24.2733 25.1947 25.5274 25.1931 26.7807C25.1931 26.9391 25.1692 27.0909 25.0421 27.2056Z" fill="black"/>
<path id="Vector_2" d="M25.0426 27.2062C25.0426 25.7796 25.0426 24.3531 25.0426 22.9266C25.3413 22.7022 25.6647 22.6089 26.0319 22.7335C26.4106 23.0792 26.6193 23.1007 27.0145 22.7632C28.031 21.8953 28.4543 20.8021 28.1144 19.4894C27.7802 18.2006 26.9213 17.4176 25.6193 17.1396C25.0376 17.015 25.0343 17.0323 25.0343 16.4457C25.0343 15.7023 25.0327 14.9581 25.036 14.2148C25.036 14.0679 24.9939 13.8889 25.2373 13.8707C25.4493 13.855 25.5352 13.9573 25.5715 14.1512C25.6243 14.4342 25.6977 14.7139 25.7538 14.9969C25.8041 15.2519 25.9502 15.4152 26.1985 15.4829C26.6828 15.6157 27.1408 15.808 27.5764 16.0579C27.8066 16.19 28.0426 16.1702 28.2678 16.0208C28.5178 15.8558 28.7777 15.7056 29.0236 15.5349C29.1787 15.4268 29.286 15.4392 29.4262 15.5712C29.9106 16.0307 29.9163 16.0249 29.5649 16.5885C29.4708 16.7394 29.3759 16.8888 29.2769 17.0365C29.1185 17.2741 29.1177 17.5175 29.2579 17.7584C29.5005 18.1734 29.682 18.6123 29.8058 19.076C29.8751 19.3351 30.036 19.496 30.3058 19.5496C30.5888 19.6057 30.8677 19.6816 31.1507 19.7344C31.3462 19.7707 31.4469 19.864 31.4328 20.0702C31.4246 20.1915 31.4246 20.3153 31.4328 20.4365C31.4485 20.6511 31.3619 20.7641 31.1441 20.8012C30.871 20.8483 30.6036 20.9258 30.3314 20.977C30.0492 21.0298 29.8743 21.189 29.8025 21.4629C29.6804 21.9274 29.4939 22.3639 29.2538 22.7797C29.1144 23.0215 29.1201 23.264 29.2786 23.5017C29.4386 23.7417 29.5822 23.9934 29.7497 24.2277C29.871 24.3977 29.8404 24.5107 29.6985 24.6551C29.2365 25.1254 29.2414 25.132 28.6804 24.7797C28.5393 24.6914 28.399 24.6015 28.2604 24.509C28.0352 24.3589 27.7984 24.3449 27.5682 24.4777C27.1325 24.7293 26.6738 24.9199 26.1894 25.0519C25.9824 25.1089 25.8206 25.2343 25.7761 25.4455C25.6449 26.0742 25.4485 26.6905 25.4188 27.3382C25.3289 27.1905 25.1861 27.1913 25.0393 27.2054L25.0426 27.2062Z" fill="#FFC800"/>
<path id="Vector_3" d="M6.97449 9.26678C6.62136 8.9186 6.39033 8.89467 5.99347 9.2313C4.97284 10.0968 4.54793 11.19 4.88373 12.5027C5.21377 13.7922 6.0735 14.5769 7.37301 14.8607C7.96294 14.9894 7.96707 14.9712 7.96707 15.5801C7.96707 16.3243 7.96789 17.0677 7.96542 17.8119C7.96542 17.9514 7.99182 18.1114 7.77152 18.1304C7.56443 18.1477 7.46707 18.057 7.43076 17.8581C7.37796 17.5751 7.3037 17.2954 7.24925 17.0124C7.19727 16.7418 7.03968 16.5785 6.77977 16.5092C6.30535 16.3821 5.85898 16.1899 5.43241 15.9456C5.20222 15.8136 4.96624 15.8268 4.74017 15.9753C4.49842 16.1329 4.2476 16.2765 4.01245 16.444C3.84001 16.5661 3.71872 16.5735 3.55535 16.4118C3.09991 15.9588 3.09166 15.9663 3.43324 15.4176C3.52152 15.2765 3.60898 15.1346 3.70387 14.9977C3.88208 14.7419 3.88621 14.4828 3.73027 14.2171C3.49842 13.8228 3.3202 13.4053 3.20717 12.9614C3.13456 12.6768 2.96624 12.4985 2.66674 12.4433C2.40519 12.3946 2.14941 12.3129 1.88703 12.2733C1.63703 12.2353 1.54215 12.1099 1.56608 11.8674C1.57598 11.7684 1.57598 11.6669 1.56608 11.5679C1.54298 11.3278 1.66509 11.2329 1.88621 11.1958C2.14859 11.1512 2.40436 11.0737 2.66591 11.0242C2.94727 10.9705 3.12301 10.8129 3.19562 10.5382C3.31773 10.0737 3.50255 9.6364 3.7443 9.22057C3.88456 8.97965 3.87796 8.73626 3.72037 8.49864C3.5603 8.25855 3.41674 8.00691 3.24925 7.77259C3.12713 7.60263 3.15849 7.48959 3.3004 7.34521C3.76327 6.87492 3.7575 6.86832 4.31938 7.2198C4.46047 7.30808 4.60073 7.39801 4.73935 7.49042C4.97697 7.64801 5.22119 7.64801 5.46129 7.50775C5.87631 7.26518 6.31525 7.08366 6.77895 6.9599C7.03802 6.8906 7.20057 6.72889 7.25007 6.45827C7.35816 5.85927 7.5603 5.2776 7.58093 4.66211C7.67086 4.81062 7.8136 4.80897 7.95964 4.79494C7.95964 6.22148 7.95964 7.64801 7.95964 9.07454C7.66426 9.30473 7.33918 9.38311 6.97614 9.26678H6.97449Z" fill="#FFC800"/>
<path id="Vector_4" d="M27.7012 4.32129H27.7021C27.9311 4.32215 28.1226 4.48453 28.1699 4.70215L28.1807 4.79883C28.1843 5.08423 27.9416 5.34123 27.6816 5.33984L27.582 5.33105C27.4881 5.31289 27.4095 5.2689 27.3496 5.20703C27.2695 5.12428 27.2198 5.00544 27.2178 4.86035V4.85938L27.2266 4.74414C27.2615 4.52521 27.4045 4.37014 27.5996 4.33105L27.7012 4.32129Z" fill="#FFC800" stroke="black" stroke-width="0.1"/>
<path id="Vector_5" d="M27.6914 6.4541C27.9199 6.44953 28.116 6.6081 28.168 6.82422L28.1807 6.91992C28.1913 7.20405 27.9536 7.46725 27.6924 7.47266L27.5938 7.46484C27.4994 7.44887 27.4184 7.40764 27.3564 7.34668C27.2945 7.28567 27.2496 7.20376 27.2295 7.10645L27.2178 7.00391C27.2104 6.72334 27.3631 6.51786 27.5898 6.4668L27.6914 6.4541Z" fill="#FFC800" stroke="black" stroke-width="0.1"/>
<path id="Vector_6" d="M27.7119 8.58691C27.973 8.59288 28.1822 8.80981 28.1807 9.07422L28.1689 9.17969C28.1169 9.42026 27.8984 9.61289 27.6709 9.60645L27.5723 9.59473C27.4782 9.57476 27.4002 9.52979 27.3418 9.4668C27.2834 9.40375 27.2431 9.32035 27.2266 9.2207L27.2178 9.11621V9.11523L27.2275 9.00098C27.2656 8.78369 27.4126 8.63044 27.6094 8.59473L27.7119 8.58691Z" fill="#FFC800" stroke="black" stroke-width="0.1"/>
<path id="Vector_7" d="M5.29492 22.3428C5.51869 22.3396 5.71639 22.5035 5.76758 22.7188L5.78027 22.8145C5.78932 23.1044 5.56016 23.3498 5.28809 23.3535L5.18652 23.3467C5.08939 23.3311 5.00928 23.2904 4.94922 23.2314C4.88917 23.1725 4.84673 23.0924 4.82812 22.9941L4.81738 22.8906C4.812 22.6147 4.97076 22.4048 5.19531 22.3545L5.29492 22.3428Z" fill="#9FCDFE" stroke="black" stroke-width="0.1"/>
<path id="Vector_8" d="M5.31934 24.4766C5.54358 24.4865 5.73307 24.66 5.77344 24.877L5.78125 24.9727C5.77501 25.2651 5.53892 25.4961 5.26367 25.4873C5.12112 25.4827 5.00969 25.4325 4.93457 25.3506C4.87814 25.289 4.83924 25.2063 4.82422 25.1055L4.81738 24.998C4.82141 24.7249 4.99183 24.5208 5.21875 24.4824L5.31934 24.4766Z" fill="#9FCDFE" stroke="black" stroke-width="0.1"/>
<path id="Vector_9" d="M5.2959 26.6084C5.51963 26.606 5.71662 26.7701 5.76758 26.9854L5.78027 27.0811C5.7884 27.371 5.55977 27.616 5.28809 27.6191L5.18555 27.6113C5.08863 27.5954 5.00907 27.5551 4.94922 27.4961C4.88926 27.437 4.84666 27.3572 4.82812 27.2588L4.81738 27.1553C4.81267 26.8787 4.97071 26.67 5.19531 26.6201L5.2959 26.6084Z" fill="#9FCDFE" stroke="black" stroke-width="0.1"/>
<path id="Vector_10" d="M23.9571 3.19537C23.9604 3.32821 23.9661 3.46187 23.9661 3.5947C23.9661 11.8643 23.9661 20.1339 23.9661 28.4035C23.9661 28.5363 23.9604 28.67 23.9571 28.8028C23.8754 28.9068 23.764 28.9447 23.6361 28.9513C23.547 28.9554 23.4587 28.9604 23.3696 28.9612C19.1402 28.9637 14.91 28.9637 10.6807 28.9612C10.4711 28.9612 10.2557 28.9761 10.0726 28.8391C9.97274 28.7228 9.94798 28.5833 9.94138 28.4365C9.93478 28.2921 9.93478 28.1477 9.93478 28.0033C9.93478 20.001 9.93478 11.9979 9.93561 3.99568C9.93561 3.74239 9.90591 3.48332 10.009 3.2391C10.0264 3.19785 10.0528 3.16319 10.0891 3.13679C10.2821 3.02706 10.4958 3.03613 10.7054 3.03779C11.9142 3.04686 13.1229 3.00643 14.3308 3.06171C14.4595 3.06749 14.561 2.97756 14.6856 2.99736C15.896 3.05511 17.1064 3.07161 18.3168 2.98828C18.4769 3.03366 18.6386 3.04604 18.8069 3.04439C20.3614 3.03036 21.915 3.03448 23.4694 3.04109C23.6452 3.04109 23.8308 3.03036 23.9562 3.1962L23.9571 3.19537Z" fill="white"/>
<path id="Vector_11" d="M10.0999 28.7871C11.1436 28.7904 12.1874 28.7962 13.2311 28.797C16.8062 28.8003 20.3821 28.8011 23.9572 28.8028C23.9539 29.0693 23.9827 29.3399 23.9407 29.6006C23.8185 30.3679 23.161 30.9273 22.3755 30.9281C18.4539 30.9331 14.5314 30.9306 10.6098 30.9298C10.4085 30.9298 10.2113 30.9034 10.0339 30.797C9.89032 30.1377 9.85897 29.4785 10.0471 28.8218C10.0644 28.8102 10.0826 28.7987 10.0999 28.7871Z" fill="#F5F5F5"/>
<path id="Vector_12" d="M10.1045 3.20744C10.1036 10.746 10.102 18.2846 10.1012 25.824C10.1012 26.8124 10.1012 27.8 10.1012 28.7885L10.1028 28.8099C9.79011 29.0211 9.33136 29.0178 9.04506 28.8025C9.04176 28.6696 9.03516 28.536 9.03516 28.4032C9.03516 20.1344 9.03516 11.8656 9.03516 3.59686C9.03516 3.46403 9.04176 3.33037 9.04506 3.19753C9.34704 2.97477 9.82724 2.97889 10.1053 3.20744H10.1045Z" fill="white"/>
<path id="Vector_13" d="M10.1038 3.20785L9.04354 3.19795C9.04601 2.93228 9.01631 2.66166 9.05591 2.40177C9.17307 1.63859 9.83562 1.07259 10.6153 1.07177C14.5427 1.06682 18.4709 1.06764 22.3983 1.07177C23.0534 1.07177 23.5922 1.4612 23.8323 2.06927C23.815 2.29534 23.6343 2.27966 23.4866 2.28874C23.1219 2.31266 22.7556 2.30276 22.3909 2.29946C21.1508 2.28874 19.9107 2.32999 18.6714 2.27471C18.5229 2.26811 18.3983 2.37124 18.2506 2.33494C17.1046 2.27718 15.9586 2.28461 14.8125 2.32999C13.7226 2.25656 12.6318 2.32834 11.5411 2.29864C10.9874 2.28296 10.5336 2.42322 10.2919 2.97436C10.2515 3.06677 10.1714 3.13195 10.098 3.19878L10.1038 3.20868V3.20785Z" fill="white"/>
<path id="Vector_14" d="M26.031 22.7322C25.7133 22.8601 25.3866 22.936 25.0417 22.9253C25.0392 21.4171 25.04 19.9097 25.0293 18.4015C25.0277 18.1721 25.1028 18.1119 25.3214 18.1523C26.2108 18.3157 26.8239 18.8132 27.0731 19.6811C27.3272 20.5648 27.0656 21.3271 26.3635 21.9179C26.097 22.1423 25.8915 22.3585 26.031 22.733V22.7322Z" fill="white"/>
<path id="Vector_15" d="M6.97551 9.26736C7.28986 9.137 7.61659 9.06522 7.959 9.07512C7.96148 10.5833 7.96065 12.0915 7.97138 13.6006C7.97303 13.8333 7.89382 13.8877 7.67765 13.8473C6.78904 13.6823 6.17435 13.1848 5.926 12.3168C5.67353 11.4331 5.9359 10.67 6.6397 10.0809C6.90537 9.85811 7.11742 9.64442 6.97551 9.26819V9.26736Z" fill="white"/>
<path id="Vector_16" d="M18.2316 2.13714C19.9477 2.13714 21.6639 2.13714 23.3801 2.13549C23.5336 2.13549 23.692 2.15529 23.8339 2.07031C24.0286 2.42921 23.9593 2.81699 23.9585 3.19735C22.1837 3.199 20.409 3.20065 18.6342 3.2023C18.5237 3.2023 18.4114 3.20807 18.31 3.15114C18.3034 3.09834 18.2778 3.04141 18.3091 2.99273C18.4684 2.73861 18.4543 2.50594 18.2373 2.28895C18.1977 2.24935 18.2027 2.18912 18.2332 2.13797L18.2316 2.13714Z" fill="white"/>
<path id="Vector_17" d="M9.04433 28.8027C9.39664 28.8052 9.74978 28.8077 10.1021 28.8102C10.1021 29.3431 10.1021 29.877 10.1004 30.41C10.1004 30.5428 10.1087 30.6781 10.0344 30.7986C9.41397 30.5543 9.09961 30.0816 9.03938 29.4331C9.01958 29.2252 9.04186 29.0131 9.04433 28.8027Z" fill="white"/>
<path id="Vector_18" d="M13.7344 13.4072C13.8156 13.3874 13.9025 13.3916 13.9971 13.4336L14.0938 13.4883C14.2324 13.583 14.301 13.7062 14.3047 13.8379C14.3074 13.9378 14.2733 14.0483 14.1953 14.1602L14.1025 14.2725C13.7568 14.6324 13.4077 14.9894 13.0508 15.3379L12.6914 15.6826C12.5815 15.7863 12.508 15.8842 12.5039 15.9922C12.501 16.0745 12.5381 16.1526 12.6064 16.2324L12.6846 16.3125C12.9272 16.5395 13.1654 16.7721 13.4004 17.0078L14.0967 17.7227C14.2579 17.8914 14.3148 18.0754 14.2891 18.2285C14.2666 18.3612 14.1812 18.4788 14.0332 18.5498L13.9658 18.5771C13.9213 18.5927 13.8781 18.5985 13.8379 18.6074C13.6984 18.5883 13.5874 18.5364 13.4893 18.46L13.3936 18.375L11.4648 16.4434C11.2974 16.2731 11.2226 16.1332 11.2217 16.002C11.2211 15.9039 11.2616 15.8014 11.3516 15.6855L11.459 15.5645C11.7814 15.2359 12.1058 14.9093 12.4316 14.584L13.4131 13.6104C13.5167 13.508 13.6235 13.4343 13.7344 13.4072Z" fill="#9FCDFE" stroke="black" stroke-width="0.1"/>
<path id="Vector_19" d="M19.0781 13.4043C19.1382 13.391 19.203 13.3924 19.2725 13.4131L19.3438 13.4404C19.4018 13.4675 19.4549 13.5008 19.5049 13.5391L19.6484 13.667L21.5088 15.5283C21.6499 15.6695 21.7565 15.8145 21.7725 16.0059C21.7583 16.1242 21.7154 16.2278 21.6475 16.3193L21.5703 16.4082C21.241 16.7387 20.9132 17.0704 20.584 17.4004L19.5918 18.3857C19.4478 18.5273 19.3109 18.5966 19.1875 18.6064C19.0963 18.6137 19.0075 18.5888 18.9229 18.5303L18.8389 18.46C18.7301 18.351 18.6843 18.2349 18.6943 18.1143C18.702 18.0223 18.7427 17.9228 18.8223 17.8174L18.915 17.71C19.151 17.467 19.3879 17.2249 19.627 16.9854L20.3506 16.2754C20.4504 16.1802 20.5089 16.0896 20.5049 15.9912C20.5018 15.9186 20.4649 15.8518 20.4072 15.7852L20.3438 15.7188C19.8871 15.2819 19.4469 14.8288 18.998 14.3809H18.999C18.9221 14.304 18.85 14.2295 18.7939 14.1445L18.7432 14.0557V14.0547L18.7139 13.9805C18.6912 13.907 18.6898 13.8385 18.7041 13.7754C18.7185 13.7121 18.7497 13.6514 18.7969 13.5938L18.8496 13.5371C18.921 13.468 18.9974 13.4222 19.0781 13.4043Z" fill="#9FCDFE" stroke="black" stroke-width="0.1"/>
<path id="Vector_20" d="M17.1455 13.4141C17.2819 13.4544 17.3816 13.5347 17.4385 13.6396C17.4811 13.7184 17.501 13.8139 17.4922 13.9219L17.4736 14.0342L16.4463 18.1621C16.4133 18.2941 16.3585 18.3968 16.2842 18.4697C16.2105 18.542 16.1148 18.5873 15.9951 18.6035C15.7168 18.6028 15.5012 18.3867 15.499 18.1377L15.5117 18.0293C15.685 17.319 15.8606 16.6087 16.0381 15.8994L16.5771 13.7734V13.7725C16.6431 13.5161 16.8467 13.3805 17.0557 13.3975L17.1455 13.4141Z" fill="#9FCDFE" stroke="black" stroke-width="0.1"/>
<path id="Vector_21" d="M10.0977 3.19772C10.1892 2.48817 10.5828 2.13752 11.3031 2.13587C12.4582 2.13339 13.6142 2.13587 14.7693 2.13587C14.7874 2.16474 14.8056 2.21012 14.7866 2.2291C14.5011 2.51127 14.5919 2.82974 14.6917 3.14987C14.5902 3.20597 14.4788 3.20102 14.3683 3.20102C12.945 3.20019 11.5209 3.19854 10.0977 3.19772Z" fill="white"/>
<path id="Vector_22" d="M14.6915 3.15072C14.2328 2.82977 14.2625 2.44612 14.7691 2.13672C15.9226 2.13672 17.0768 2.13672 18.2303 2.13672C18.7361 2.44612 18.765 2.82647 18.3079 3.14989C18.0587 3.22827 17.8021 3.20022 17.548 3.20105C16.7386 3.20352 15.9283 3.20435 15.1189 3.1994C14.9762 3.19857 14.8343 3.16722 14.6915 3.14989V3.15072Z" fill="black"/>
</g>
<defs>
<clipPath id="clip0_4597_18195">
<rect width="32" height="32" fill="white" transform="translate(0.5)"/>
</clipPath>
</defs>
</svg>
