<svg width="37" height="35" viewBox="0 0 37 35" fill="none" xmlns="http://www.w3.org/2000/svg">
<g id="Group 2018775905">
<path id="Vector" d="M35.8594 17.998L35.9219 18.0039C35.9731 18.0127 35.9931 18.0285 35.9951 18.0303L35.9961 18.0312V18.0303L36 18.0586V18.0625C36.0005 18.0811 35.997 18.092 35.9951 18.0967C35.9932 18.1012 35.9903 18.1056 35.9854 18.1104C35.9786 18.1168 35.9575 18.1331 35.9131 18.1416L35.8594 18.1465C35.6748 18.1506 35.4908 18.154 35.3076 18.1543L34.7617 18.1465C34.6541 18.1433 34.4062 18.1446 34.21 18.3271C34.0488 18.4771 34.0081 18.6643 34.0029 18.8057L34.0068 18.9287C34.0142 19.0275 34.0084 19.1344 34 19.2803C33.988 19.4747 33.9156 19.6116 33.8213 19.7002C33.7263 19.7893 33.5814 19.8548 33.3799 19.8574C33.3346 19.8578 33.2814 19.8557 33.21 19.8506C33.1443 19.8459 33.0567 19.8394 32.9727 19.8369C32.8411 19.8331 32.6191 19.8334 32.4082 19.9336L32.3193 19.9834L32.3154 19.9854C32.0094 20.1834 31.9634 20.5327 31.9473 20.6621C31.9372 20.7428 31.9306 20.8389 31.9258 20.8936C31.9199 20.9605 31.9141 20.9993 31.9082 21.0244C31.803 21.4596 31.6987 21.8755 31.5664 22.2764L31.4238 22.6729L31.4229 22.6748C31.3856 22.7703 31.3097 22.9779 31.3711 23.208C31.4256 23.412 31.5578 23.542 31.6904 23.625L31.8203 23.6934L31.8262 23.6963C31.9004 23.7277 31.9707 23.7653 32.0479 23.8115L32.3125 23.9766C32.6011 24.1593 32.6801 24.4822 32.5381 24.7432C32.3367 25.1119 32.1306 25.4789 31.9199 25.8438L31.2744 26.9326V26.9336C31.1087 27.2078 30.8135 27.2956 30.498 27.1348H30.499C30.3966 27.0821 30.3019 27.0345 30.2139 26.9863L29.9668 26.8379L29.9639 26.8359L29.8545 26.7725C29.7313 26.712 29.5677 26.6673 29.3799 26.7119C29.211 26.752 29.0907 26.8511 29.0127 26.9326L28.9492 27.0049C28.5219 27.527 28.0556 28.0082 27.5459 28.4414L27.3252 28.624C27.2164 28.7104 27.0631 28.863 27.0264 29.1025C26.9905 29.3365 27.0869 29.5249 27.1504 29.6289V29.6299L27.1533 29.6338C27.2105 29.7252 27.2653 29.8171 27.3164 29.9102L27.46 30.1934L27.4609 30.1953C27.5414 30.365 27.5472 30.5122 27.5166 30.624C27.4942 30.7056 27.4474 30.7883 27.3633 30.8623L27.2656 30.9336L27.2646 30.9346C26.8984 31.1584 26.5274 31.3764 26.1533 31.5908L25.0225 32.2256C24.8215 32.3357 24.5519 32.2934 24.376 32.1172L24.3066 32.0332L24.3057 32.0322L24.126 31.7441L23.9531 31.4258C23.9108 31.3435 23.8129 31.1675 23.6074 31.0752C23.4386 30.9995 23.277 31.0132 23.1572 31.0439L23.0518 31.0781C22.5038 31.2862 21.9382 31.4467 21.3594 31.5713L20.7764 31.6846C20.6645 31.7038 20.4571 31.7505 20.2988 31.9219C20.1643 32.0678 20.1219 32.2379 20.1172 32.3857L20.123 32.5244C20.1299 32.5852 20.1311 32.6473 20.1299 32.7178L20.1201 32.9609V32.9648C20.1063 33.3036 19.862 33.5414 19.5127 33.543H17.1133C16.8322 33.5429 16.6755 33.4653 16.5869 33.3789C16.5197 33.3134 16.4556 33.2074 16.4229 33.0371L16.4014 32.8438V32.8428L16.3906 32.6182C16.3859 32.5452 16.379 32.4753 16.3691 32.4121C16.3484 32.2795 16.3029 32.1029 16.1641 31.9502C16.0294 31.8021 15.8619 31.738 15.7402 31.7012C15.6804 31.6831 15.6128 31.6655 15.541 31.6494L15.3174 31.6025L14.8555 31.501C14.4752 31.4119 14.1074 31.3098 13.7529 31.1787L13.542 31.0967L13.54 31.0957L13.4365 31.0586C13.3158 31.0224 13.1484 30.9972 12.9697 31.0625C12.7834 31.1308 12.6704 31.2649 12.6016 31.3818L12.5459 31.4893C12.5128 31.5631 12.4747 31.6366 12.4307 31.7129L12.2832 31.9551C12.1681 32.1382 12.0276 32.2305 11.8975 32.2646C11.8007 32.2899 11.6854 32.2891 11.5566 32.2441L11.4229 32.1836C11.0672 31.9839 10.7124 31.7817 10.3584 31.5781L9.2998 30.9629C9.02214 30.7996 8.92687 30.5141 9.07031 30.1973C9.08232 30.1733 9.09206 30.1501 9.09766 30.1377L9.1084 30.1143L9.10938 30.1123C9.12275 30.0853 9.14584 30.0489 9.18555 29.9912C9.21792 29.9442 9.27474 29.8638 9.31934 29.7939C9.38519 29.6908 9.53115 29.4565 9.50488 29.1699L9.48242 29.0439L9.48145 29.043L9.44727 28.9424C9.35365 28.7183 9.17675 28.5701 9.07715 28.4902C9.01337 28.4391 8.9398 28.3855 8.89062 28.3486L8.76562 28.2471L8.7627 28.2441L8.45312 27.9551C8.15085 27.6657 7.86983 27.372 7.62402 27.0557H7.62305C7.51706 26.9185 7.34436 26.7489 7.0791 26.7168C6.89083 26.6941 6.73041 26.7512 6.61426 26.8115L6.51367 26.8691L6.51074 26.8711C6.43203 26.922 6.35083 26.9708 6.26758 27.0166L6.01074 27.1465C5.833 27.2299 5.68023 27.2346 5.5625 27.2002C5.47529 27.1747 5.38554 27.1223 5.30566 27.0293L5.22949 26.9219C5.01755 26.5677 4.80745 26.2123 4.59961 25.8555L3.98242 24.7803C3.83408 24.5169 3.87705 24.2365 4.1084 24.04L4.21875 23.9619L4.21973 23.9609C4.25537 23.9396 4.30108 23.9171 4.36523 23.8867C4.42214 23.8598 4.5036 23.8222 4.57715 23.7842C4.69175 23.7248 4.89265 23.6143 5.02832 23.415L5.08203 23.3242C5.24876 22.995 5.11512 22.6699 5.05957 22.54C5.02672 22.4632 4.98295 22.3739 4.95898 22.3232L4.90625 22.1973C4.78252 21.7745 4.66758 21.3689 4.58301 20.9639L4.50879 20.5586C4.48955 20.4311 4.44173 20.2093 4.25977 20.042C4.10723 19.9019 3.92843 19.8581 3.77051 19.8545L3.62207 19.8623H3.62109C3.48286 19.8793 3.38028 19.8645 3.14062 19.8643H3.1416C2.91852 19.8615 2.76992 19.7906 2.67676 19.7012C2.60689 19.6341 2.54685 19.536 2.5166 19.3984L2.49707 19.248C2.48302 18.9631 2.39611 18.6677 2.16406 18.4473C1.93199 18.2269 1.63211 18.1553 1.34668 18.1553C1.06913 18.1553 0.825059 18.1605 0.568359 18.1553C0.546986 18.1547 0.53381 18.1502 0.527344 18.1475C0.521286 18.1449 0.517693 18.1427 0.515625 18.1406C0.514555 18.1395 0.510299 18.1354 0.506836 18.127L0.5 18.0859C0.499293 18.0449 0.51178 18.0295 0.514648 18.0264C0.51607 18.0248 0.520209 18.0215 0.52832 18.0176L0.569336 18.0078H0.571289C0.646131 18.0018 0.697529 18.0058 0.834961 18.0059H18.6201L18.623 17.998H35.8594Z" fill="#FFC800" stroke="black"/>
<path id="Vector_2" d="M18.249 1.70996H18.374C20.0548 1.77328 21.4056 3.10277 21.5 4.78906L21.5049 4.95703C21.5133 6.71651 20.0051 8.22257 18.2197 8.21387L18.0557 8.20898C16.3717 8.11279 14.9949 6.67498 14.9922 4.95801C14.9922 3.18077 16.4636 1.70996 18.249 1.70996Z" stroke="black" stroke-width="1.5"/>
<path id="Vector_3" d="M27.9502 2.26758H27.9512C29.1211 2.27974 30.0474 3.21759 30.0449 4.39746C30.0409 5.54198 29.0835 6.48734 27.9482 6.47949C26.8388 6.46951 25.9548 5.65108 25.8438 4.58496L25.832 4.36914C25.8264 3.31457 26.7015 2.37763 27.7402 2.27637L27.9502 2.26758Z" stroke="black" stroke-width="1.5"/>
<path id="Vector_4" d="M8.57129 2.11621C9.75962 2.14294 10.7135 3.05753 10.8105 4.17773L10.8184 4.4043C10.7966 5.63904 9.75615 6.64514 8.54688 6.62793C7.35083 6.60892 6.40373 5.70943 6.30762 4.5918L6.2998 4.36523V4.30957C6.34758 3.14369 7.25517 2.21365 8.34766 2.12305L8.57129 2.11621Z" stroke="#010000" stroke-width="1.2"/>
<path id="Vector_5" d="M14.8203 8.83594L14.8213 8.83691C15.0833 9.08853 15.394 9.27386 15.7168 9.46973C15.0151 9.83374 14.4932 10.2938 14.1475 10.8574C13.7889 11.4419 13.6219 12.1336 13.6357 12.9365V12.9375C13.655 13.9791 13.6353 15.0198 13.6436 16.0635L13.6357 16.1943C13.63 16.23 13.6208 16.2545 13.6084 16.2715C13.5924 16.2935 13.5636 16.3126 13.5 16.3145L13.4248 16.3105C13.3496 16.3017 13.2704 16.3049 13.1934 16.3115C13.1548 16.3149 13.1159 16.3192 13.0781 16.3232C13.0402 16.3273 13.0029 16.3312 12.9668 16.334C12.8557 16.3425 12.7641 16.3391 12.6943 16.3076L12.6318 16.2656C12.5578 16.196 12.541 16.0832 12.5498 15.9365C12.5542 15.8645 12.5643 15.789 12.5732 15.7119L12.5898 15.4854C12.5837 14.7407 12.5683 13.9962 12.5771 13.2539L12.5947 12.5117C12.6509 11.0538 13.2682 9.89644 14.4121 9.04004L14.6475 8.87207H14.6484C14.658 8.86547 14.667 8.85798 14.6758 8.85156C14.6848 8.84494 14.6938 8.83871 14.7021 8.83301C14.7189 8.82159 14.7334 8.81388 14.7461 8.80957C14.7579 8.80563 14.7677 8.80513 14.7773 8.80762L14.8203 8.83594Z" fill="#FFC800" stroke="black" stroke-width="0.1"/>
<path id="Vector_6" d="M21.7539 8.82617L21.8018 8.85742L21.8027 8.8584C22.8948 9.57288 23.5921 10.5509 23.8115 11.8096L23.8496 12.0645C23.9303 12.7412 23.9382 13.4221 23.9307 14.1055C23.925 14.617 23.9105 15.1313 23.9111 15.6455L23.918 16.1602C23.9192 16.237 23.9028 16.267 23.8848 16.2822C23.8741 16.2912 23.8593 16.2984 23.8379 16.3037L23.751 16.3145C23.5148 16.3269 23.3417 16.3362 23.2129 16.3291C23.0833 16.322 23.0102 16.2988 22.9648 16.2568C22.9199 16.215 22.8923 16.1456 22.8779 16.0195C22.8636 15.8939 22.8633 15.7239 22.8633 15.4912V12.9385L22.8574 12.6494C22.8241 11.9864 22.6643 11.3974 22.3652 10.8906C22.0661 10.3837 21.6285 9.96194 21.043 9.63086L20.7832 9.49414L20.7812 9.49316L20.7588 9.47852C20.9045 9.38046 21.0487 9.29031 21.1943 9.19336C21.3153 9.11282 21.434 9.02912 21.5449 8.93457L21.6533 8.83594C21.6699 8.81998 21.6823 8.8125 21.6914 8.80957C21.7 8.80683 21.7086 8.80734 21.7178 8.80957C21.7292 8.81239 21.7405 8.81803 21.7539 8.82617Z" fill="#FFC800" stroke="black" stroke-width="0.1"/>
<path id="Vector_7" d="M30.8887 7.19336C30.9014 7.20086 30.9151 7.21402 30.9316 7.23145L30.9844 7.28613H30.9854C31.7295 7.94398 32.1091 8.77283 32.1738 9.7373L32.1826 9.93164C32.2018 10.8018 32.191 11.6724 32.1855 12.5439L32.1748 12.6875C32.1537 12.8233 32.1019 12.9346 32.0293 13.0166C31.9331 13.1251 31.7965 13.1861 31.6318 13.1836L31.5225 13.1699C31.31 13.1204 31.148 12.9425 31.1045 12.6865L31.0928 12.5518C31.09 12.1463 31.087 11.741 31.0859 11.3359L31.0928 10.1211C31.1094 9.19559 30.8044 8.42872 30.0273 7.87891H30.0283C30.0238 7.87543 30.0185 7.86958 30.0098 7.85742C30.0087 7.856 30.008 7.85421 30.0068 7.85254C30.2117 7.70999 30.4209 7.57152 30.6123 7.4082L30.8096 7.22266C30.8344 7.19663 30.8518 7.18945 30.8613 7.1875C30.8693 7.18588 30.8774 7.18684 30.8887 7.19336Z" fill="#FFC800" stroke="black" stroke-width="0.1"/>
<path id="Vector_8" d="M5.6582 7.19727L5.72266 7.25293C5.86213 7.41132 6.02449 7.54433 6.19922 7.6582L6.37793 7.76562C6.40658 7.7819 6.42603 7.79646 6.43848 7.80859C6.45095 7.82075 6.4529 7.82741 6.45312 7.8291C6.45325 7.83047 6.45314 7.8359 6.44531 7.84668L6.39062 7.89551L6.38965 7.89648C5.71143 8.38567 5.42179 9.04956 5.37305 9.82129L5.36621 10.1582C5.38267 10.9569 5.37171 11.7556 5.36621 12.5557L5.35645 12.6953C5.33647 12.8269 5.28743 12.9352 5.21875 13.0156C5.15044 13.0956 5.06062 13.1494 4.9541 13.1709L4.84277 13.1816H4.8418C4.68927 13.1816 4.5601 13.1183 4.46777 13.0088C4.39814 12.9261 4.34877 12.8158 4.32715 12.6846L4.31445 12.5469C4.31171 12.0725 4.31445 11.5984 4.31445 11.0195C4.32208 10.8503 4.32093 10.6739 4.31836 10.4941C4.31578 10.3139 4.31201 10.1299 4.31543 9.94336C4.32141 9.61714 4.34868 9.28519 4.43945 8.95801L4.48242 8.81836C4.66286 8.28415 4.93891 7.8193 5.32617 7.42285L5.49902 7.25684C5.55244 7.2089 5.58731 7.18864 5.61523 7.18652C5.6268 7.18567 5.64092 7.18795 5.6582 7.19727Z" fill="#FFC800" stroke="black" stroke-width="0.1"/>
<path id="Vector_9" d="M21.1094 13.2842C21.2666 13.2867 21.3885 13.3402 21.4736 13.4336C21.5379 13.5043 21.5841 13.6015 21.6064 13.7236L21.6211 13.8545V15.0547L21.626 15.0518V16.1562C21.6273 16.2317 21.613 16.2641 21.5947 16.2812C21.5847 16.2907 21.5703 16.2986 21.5488 16.3047L21.4619 16.3174C21.2237 16.3298 21.0489 16.3393 20.9189 16.332C20.7887 16.3247 20.7157 16.3 20.6699 16.2568C20.6242 16.2136 20.5956 16.142 20.5811 16.0117C20.5666 15.882 20.5664 15.7061 20.5664 15.4658C20.5664 15.1975 20.5642 14.9296 20.5635 14.6621L20.5693 13.8594C20.5733 13.6712 20.6304 13.5268 20.7227 13.4307C20.7917 13.3589 20.8833 13.3113 20.9932 13.293L21.1094 13.2842Z" fill="#9FCDFE" stroke="black" stroke-width="0.1"/>
<path id="Vector_10" d="M15.3936 13.2842C15.5459 13.2829 15.6742 13.3318 15.7666 13.4189C15.8359 13.4843 15.887 13.5733 15.9121 13.6846L15.9287 13.8027C15.9459 14.1646 15.9366 14.5252 15.9346 14.8916H15.9336V15.0127L15.9365 16.1377C15.9392 16.2192 15.9252 16.2606 15.9043 16.2822C15.8839 16.3032 15.8445 16.3184 15.7637 16.3145L15.3975 16.3057C15.2752 16.3057 15.1529 16.3089 15.0312 16.3145L14.9463 16.3066C14.9266 16.3011 14.9139 16.2933 14.9053 16.2842C14.8869 16.2646 14.8741 16.2273 14.874 16.1533C14.8795 15.374 14.8718 14.5953 14.8828 13.8174L14.8936 13.6963C14.9138 13.5822 14.9601 13.4913 15.0254 13.4248C15.0906 13.3585 15.1775 13.3129 15.2822 13.2939L15.3936 13.2842Z" fill="#9FCDFE" stroke="black" stroke-width="0.1"/>
<path id="Vector_11" d="M25.001 7.22168C25.0176 7.22231 25.0366 7.22834 25.0586 7.24219L25.1348 7.31055C25.3338 7.5332 25.5924 7.68992 25.8584 7.86328C25.3489 8.20881 25.0544 8.63575 24.8955 9.11719C24.7529 9.54945 24.7212 10.0232 24.7354 10.5146C24.5222 10.0815 24.2931 9.66606 24.0078 9.28418L23.8613 9.09766C23.8292 9.05889 23.8194 9.02247 23.8193 8.98633C23.8193 8.94786 23.8306 8.90748 23.8457 8.85938C24.0213 8.32556 24.3028 7.86208 24.6885 7.46387L24.8594 7.29785C24.9244 7.23942 24.9673 7.22058 25.001 7.22168Z" fill="#FFC800" stroke="black" stroke-width="0.1"/>
<path id="Vector_12" d="M11.5195 7.22656L11.5801 7.27344C12.0059 7.66593 12.339 8.11817 12.5498 8.64941L12.6328 8.88184C12.6472 8.92635 12.6541 8.96255 12.6523 8.99512C12.6515 9.01058 12.6487 9.02632 12.6426 9.04199L12.6143 9.09082C12.2616 9.53108 11.983 10.0146 11.7529 10.5332C11.7366 10.3302 11.7386 10.126 11.7324 9.91797C11.7265 9.71707 11.7138 9.51399 11.6689 9.3125L11.6123 9.11133C11.4322 8.58718 11.1113 8.17589 10.6406 7.83301C10.851 7.70812 11.0382 7.58216 11.2021 7.43652L11.373 7.26855C11.4187 7.21918 11.4506 7.20851 11.4736 7.20996C11.4869 7.21088 11.5021 7.2164 11.5195 7.22656Z" fill="#FFC800" stroke="black" stroke-width="0.1"/>
<path id="Vector_13" d="M10.5371 10.4209C10.798 10.4165 11.0081 10.571 11.0615 10.8223L11.0742 10.9355C11.0824 11.2236 11.0869 11.5121 11.0869 11.7998L11.0742 12.6611V12.6621C11.0664 12.9719 10.8178 13.1916 10.5352 13.1816L10.4316 13.1689C10.2323 13.1238 10.0847 12.9683 10.041 12.7451L10.0283 12.6279V10.9629C10.0323 10.7959 10.0857 10.6631 10.1729 10.5713C10.238 10.5026 10.3242 10.4549 10.4277 10.4336L10.5371 10.4209Z" fill="#9FCDFE" stroke="black" stroke-width="0.1"/>
<path id="Vector_14" d="M25.9336 10.4209C26.092 10.4183 26.2219 10.471 26.3135 10.5635C26.3824 10.6331 26.4324 10.7277 26.4551 10.8447L26.4688 10.9688C26.477 11.2509 26.4678 11.5314 26.4678 11.8164V11.9375L26.4707 11.9346V12.6016C26.4668 12.7786 26.4126 12.9215 26.3242 13.0205C26.2361 13.1191 26.1109 13.1778 25.959 13.1816L25.8506 13.1738C25.6052 13.1294 25.4275 12.911 25.4229 12.5967L25.417 11.7773L25.4229 10.96C25.4254 10.7951 25.4804 10.6624 25.5693 10.5703C25.636 10.5013 25.7233 10.4533 25.8262 10.4326L25.9336 10.4209Z" fill="#9FCDFE" stroke="black" stroke-width="0.1"/>
<path id="Vector_15" d="M29.9365 10.4209C30.0963 10.4209 30.2251 10.4754 30.3164 10.5723C30.3853 10.6454 30.436 10.7452 30.46 10.8711L30.4746 11.0049C30.4856 11.2757 30.4746 11.5474 30.4746 11.8223V11.8721H30.4775V12.5488C30.4723 12.7447 30.4147 12.903 30.3223 13.0117C30.2304 13.1197 30.1011 13.1821 29.9463 13.1846L29.834 13.1748C29.7274 13.1546 29.6385 13.1019 29.5713 13.0234C29.5036 12.9441 29.4554 12.8359 29.4346 12.7021L29.4229 12.5605C29.4201 12.3026 29.4189 12.0453 29.4189 11.7881L29.4229 11.0146C29.4255 10.8194 29.4772 10.6722 29.5635 10.5742C29.6277 10.5013 29.7143 10.4521 29.8223 10.4316L29.9365 10.4209Z" fill="#9FCDFE" stroke="black" stroke-width="0.1"/>
<path id="Vector_16" d="M6.59961 10.4219H6.60059C6.73849 10.4295 6.8506 10.4825 6.93164 10.5684C6.99269 10.6331 7.03793 10.7187 7.06152 10.8232L7.07812 10.9336C7.07826 10.9441 7.0785 10.9549 7.0791 10.9639C7.0798 10.9743 7.08006 10.9827 7.08008 10.9902V11.7598H7.0752V11.8096C7.0752 11.9524 7.07772 12.0936 7.0791 12.2344L7.0752 12.6562C7.05987 12.97 6.85334 13.1707 6.57324 13.1807L6.47656 13.1748C6.28425 13.146 6.11414 13.0111 6.06152 12.8174L6.0459 12.7168C6.02329 12.2563 6.01719 11.7941 6.02734 11.334L6.04297 10.875C6.04923 10.7248 6.11415 10.6084 6.21289 10.5312C6.28767 10.473 6.38365 10.4359 6.49023 10.4248L6.59961 10.4219Z" fill="#9FCDFE" stroke="black" stroke-width="0.1"/>
<path id="Vector_17" d="M26.4756 19.5C26.2664 21.8569 25.1791 23.7181 23.1543 25.0879L22.7207 25.3652C21.3311 26.204 19.8022 26.581 18.167 26.4854L17.8379 26.46C14.713 26.1605 12.536 24.6783 11.2158 22.0791L11.0908 21.8242C10.7455 21.095 10.5684 20.3152 10.5146 19.5C13.184 19.5056 15.8554 19.5039 18.5234 19.5039C21.1724 19.5039 23.8252 19.5056 26.4756 19.5Z" fill="#9FCDFE" stroke="black"/>
<path id="Vector_18" d="M4.85131 18.6492C5.31844 18.6492 5.78283 18.6602 6.24996 18.6437C6.47529 18.6354 6.56322 18.6849 6.56871 18.9377C6.62917 21.6691 7.54695 24.0872 9.30008 26.1728C11.1219 28.3381 13.4493 29.6681 16.2357 30.1489C19.5386 30.7205 22.564 29.9951 25.2431 28.0001C27.8041 26.0931 29.3072 23.5129 29.81 20.3556C29.887 19.8637 29.9364 19.3719 29.9309 18.8745C29.9309 18.7096 29.9777 18.6437 30.1535 18.6437C31.1455 18.6519 32.1402 18.6547 33.1322 18.6437C33.3575 18.6437 33.3493 18.7591 33.3438 18.9102C33.3383 19.0531 33.396 19.2235 33.1349 19.2097C32.7915 19.1932 32.4452 19.2042 32.1017 19.2042C31.7253 19.2042 31.5027 19.3801 31.4587 19.7456C31.3186 20.8777 31.0136 21.9631 30.5932 23.021C30.4338 23.4249 30.5217 23.6722 30.8927 23.8893C31.173 24.0542 31.4533 24.2163 31.7363 24.3702C31.8599 24.4389 31.9231 24.4939 31.8297 24.6477C31.4862 25.2193 31.1537 25.7991 30.8212 26.3789C30.7553 26.4943 30.6948 26.508 30.5849 26.4393C30.2909 26.2635 29.9914 26.0931 29.6919 25.9255C29.3099 25.7112 29.0764 25.7441 28.8126 26.0766C28.1036 26.9697 27.315 27.7803 26.4109 28.4782C26.0647 28.7475 26.0345 28.9729 26.2433 29.3521C26.4054 29.6433 26.5703 29.9346 26.7434 30.2204C26.8176 30.3413 26.8451 30.4182 26.6885 30.5062C26.0977 30.8359 25.5096 31.1766 24.9271 31.5201C24.8117 31.5888 24.754 31.5641 24.6935 31.4542C24.5314 31.1629 24.3638 30.8716 24.1962 30.5858C23.9681 30.1984 23.7235 30.1077 23.3059 30.2781C22.3359 30.6738 21.3357 30.9431 20.3025 31.1024C20.2613 31.1079 20.2228 31.1134 20.1816 31.1217C19.9947 31.1574 19.7392 31.053 19.6292 31.1904C19.5056 31.347 19.5935 31.5998 19.588 31.8114C19.5798 32.0944 19.5798 32.3802 19.588 32.6632C19.5935 32.8253 19.5578 32.8968 19.3737 32.894C18.6757 32.883 17.975 32.8858 17.2743 32.894C17.0985 32.894 17.0463 32.8336 17.0518 32.666C17.06 32.3115 17.0518 31.957 17.0545 31.6025C17.0545 31.4679 17.0435 31.3745 16.8622 31.3717C15.6201 31.3442 14.4523 30.9953 13.3037 30.5556C12.7184 30.3303 12.548 30.3798 12.2375 30.9156C12.0946 31.1601 11.949 31.4047 11.8171 31.6548C11.7457 31.7894 11.6825 31.8279 11.5396 31.7399C10.9653 31.3992 10.3882 31.064 9.80568 30.737C9.6518 30.6518 9.67379 30.5749 9.74798 30.4512C9.92109 30.1654 10.086 29.8769 10.2481 29.5829C10.4514 29.2147 10.4239 29.0058 10.1025 28.7283C9.19291 27.9424 8.36856 27.0823 7.6761 26.0986C7.4755 25.8156 7.18148 25.7551 6.87098 25.92C6.55772 26.0876 6.24996 26.2635 5.95045 26.4476C5.80481 26.5383 5.73062 26.519 5.64544 26.3651C5.33218 25.7991 5.00793 25.2358 4.67544 24.6807C4.57377 24.5131 4.61774 24.4389 4.77711 24.3565C5.06564 24.2081 5.34317 24.0432 5.6207 23.8756C5.95869 23.675 6.05212 23.4194 5.90373 23.054C5.47507 21.9878 5.17281 20.8914 5.02992 19.7511C4.9832 19.3856 4.75788 19.2042 4.38692 19.2015C4.04344 19.1987 3.69721 19.1878 3.35373 19.2042C3.12566 19.2152 3.1394 19.0861 3.14489 18.9377C3.15039 18.7921 3.09818 18.6327 3.35648 18.6409C3.85384 18.6602 4.34845 18.6464 4.84581 18.6464L4.85131 18.6492Z" fill="#FFC800"/>
<path id="Vector_19" d="M18.2664 7.77703C16.9392 7.86222 15.4059 6.74384 15.4004 4.88355C15.3949 3.39421 16.7166 2.10547 18.2472 2.10547C19.8052 2.10547 21.0995 3.39421 21.094 4.94125C21.0885 6.52676 19.8464 7.77429 18.2664 7.77703Z" fill="#FFC800"/>
<path id="Vector_20" d="M29.6394 4.40809C29.6366 5.34236 28.8974 6.07604 27.9632 6.07604C26.9959 6.07604 26.2348 5.32038 26.2403 4.37512C26.2485 3.45184 27.0289 2.67695 27.9494 2.67969C28.9084 2.68519 29.6421 3.4381 29.6366 4.40809H29.6394Z" fill="#FFC800"/>
<path id="Vector_21" d="M6.86134 4.37183C6.86408 3.43206 7.64172 2.66541 8.5705 2.6819C9.51851 2.69839 10.2632 3.45954 10.2522 4.39931C10.2384 5.35556 9.52126 6.0755 8.57874 6.07825C7.60051 6.07825 6.85859 5.34457 6.86134 4.37458V4.37183Z" fill="#FFC800"/>
</g>
</svg>
