<svg width="22" height="22" viewBox="0 0 22 22" fill="none" xmlns="http://www.w3.org/2000/svg">
<g id="Frame 2018779883" clip-path="url(#clip0_6815_19330)">
<g id="Group 2018775923">
<path id="Vector" d="M0.000626764 6.60669C0.0112983 3.96568 1.83466 1.38685 4.61882 0.403233C7.41696 -0.585538 10.4797 0.281062 12.3788 2.59752C12.5665 2.8264 12.6883 3.15133 13.1152 2.94305C13.3352 2.8356 13.4684 2.7414 13.4651 2.48639C13.4626 2.27222 13.4898 2.05769 13.5016 1.84352C13.5406 1.14729 13.857 0.867627 14.5529 0.916201C14.9227 0.94196 15.2925 0.967351 15.662 0.997526C16.2294 1.04389 16.49 1.33533 16.4782 1.91638C16.4727 2.18942 16.4771 2.46651 16.4329 2.73441C16.3792 3.06191 16.6316 3.09429 16.8138 3.22603C17.0375 3.38794 17.1575 3.25915 17.3135 3.1333C18.1645 2.44836 18.9608 2.52318 19.7024 3.35777C20.4189 4.16365 20.3913 4.40431 19.5814 5.13145C19.3668 5.3239 18.9573 5.424 19.1324 5.89501C19.234 6.16806 19.3477 6.2814 19.6531 6.309C21.1928 6.44883 21.1917 6.4606 21.1288 8.03999C21.0817 9.22158 20.9216 9.35626 19.7234 9.32683C19.4669 9.32057 19.1464 9.1237 18.9518 9.51229C18.8193 9.7765 18.7604 9.94835 19.0029 10.2207C20.0289 11.3735 20.0086 11.4644 18.8314 12.4826C18.6839 12.6103 18.5356 12.7377 18.3829 12.8587C17.9961 13.1645 17.623 13.1182 17.2855 12.784C17.078 12.5787 16.8863 12.355 16.7049 12.1257C16.5669 11.9509 16.4462 11.8784 16.2147 11.9907C16.02 12.0852 15.7978 12.108 15.7867 12.3903C15.7768 12.6438 15.7584 12.897 15.7418 13.1505C15.701 13.7706 15.4287 14.04 14.823 14.0256C14.3939 14.0153 13.9652 13.9829 13.5376 13.9443C12.9967 13.8953 12.7384 13.5899 12.7671 13.0449C12.7814 12.7719 12.7704 12.4948 12.8142 12.2269C12.8738 11.8644 12.5919 11.8129 12.3796 11.7062C12.1036 11.5671 12.0543 11.8332 11.9638 11.9818C11.4412 12.84 11.0913 13.7673 10.947 14.7612C10.9069 15.0387 10.8098 15.1104 10.5459 15.1097C8.16323 15.1012 5.78054 15.1005 3.39785 15.1089C3.11561 15.11 2.99454 15.046 2.94964 14.7354C2.75866 13.4166 2.22472 12.2398 1.41147 11.1826C0.450302 9.93363 -0.0196123 8.51505 0.000626764 6.60669Z" fill="#121212"/>
<path id="Vector_2" d="M6.76236 21.3387C6.17616 21.3387 5.58959 21.3553 5.00413 21.3339C4.44112 21.3133 4.06394 20.9358 4.04738 20.4261C4.03119 19.9319 4.40837 19.4841 4.95961 19.4697C6.18941 19.4377 7.42105 19.4381 8.65122 19.4657C9.21607 19.4785 9.56602 19.8881 9.56492 20.4095C9.56381 20.938 9.21607 21.3089 8.6376 21.3328C8.0135 21.3586 7.38756 21.3387 6.76236 21.3387Z" fill="#121212"/>
<path id="Vector_3" d="M6.85138 16.8436C5.83759 16.8443 4.82416 16.8436 3.81037 16.8447C3.59215 16.8447 3.3353 16.8612 3.33015 16.5646C3.32537 16.285 3.5583 16.2496 3.7916 16.25C5.85783 16.2526 7.92405 16.2526 9.99065 16.2507C10.2262 16.2507 10.4547 16.2949 10.4411 16.5753C10.4267 16.8726 10.1636 16.8425 9.95054 16.8425C8.91724 16.8432 7.88431 16.8425 6.85101 16.8436H6.85138Z" fill="#121212"/>
<path id="Vector_4" d="M6.79546 18.4913C5.99768 18.4916 5.19989 18.492 4.40173 18.4913C4.1872 18.4913 3.92372 18.5126 3.92188 18.2149C3.92041 17.9437 4.15114 17.8981 4.38628 17.8984C6.02086 17.901 7.65544 17.8999 9.29002 17.8999C9.52111 17.8999 9.74779 17.9441 9.7408 18.2282C9.73418 18.4938 9.50308 18.4902 9.30584 18.4905C8.46905 18.4916 7.63226 18.4909 6.79546 18.4913Z" fill="#121212"/>
<path id="Vector_5" d="M6.96215 14.5179C5.96602 14.5183 4.96952 14.5072 3.97376 14.5245C3.64956 14.53 3.4928 14.4568 3.42178 14.1021C3.18112 12.8977 2.63577 11.8294 1.89686 10.8495C0.267798 8.68794 0.131644 5.86808 1.52998 3.60425C2.886 1.40886 5.50236 0.226898 8.01679 0.67363C10.6574 1.14281 12.7656 3.20572 13.2337 5.86845C13.5365 7.59208 13.198 9.22004 12.1555 10.6456C11.3625 11.7301 10.7233 12.8756 10.4591 14.2C10.391 14.5403 10.1901 14.5194 9.95091 14.5186C8.95478 14.5164 7.95828 14.5172 6.96215 14.5179Z" fill="white"/>
<path id="Vector_6" d="M13.4032 12.2112C13.4706 11.8505 13.5037 11.3784 12.82 11.2614C12.6974 11.2404 12.4675 11.1495 12.6757 10.9519C12.8527 10.7837 12.8321 10.3392 13.3002 10.5515C13.9133 10.8301 14.5628 10.9129 15.2409 10.7709C17.1121 10.3782 18.3118 8.61228 17.9129 6.81063C17.4956 4.92361 15.6509 3.73392 13.7926 4.21267C13.397 4.3146 13.3363 4.14569 13.1983 3.89841C13.0551 3.64266 13.0923 3.47486 13.3863 3.46861C14.0314 3.45499 14.0071 3.00568 14.0487 2.55785C14.1466 1.50578 14.1561 1.55583 15.1909 1.55178C15.8187 1.5492 15.9975 1.763 15.8687 2.33301C15.8603 2.37054 15.8632 2.41065 15.8614 2.44966C15.822 3.37072 16.123 3.77698 17.0102 4.02132C17.1217 4.05223 17.196 4.02757 17.2722 3.96023C17.3451 3.89547 17.4157 3.82813 17.489 3.76373C18.5454 2.83678 18.5377 2.84303 19.4279 3.92895C19.6181 4.16078 19.6531 4.32012 19.4043 4.50337C19.3418 4.54974 19.2832 4.60199 19.2244 4.65314C18.2654 5.48368 18.2713 5.48147 18.7486 6.64541C18.8111 6.79812 18.87 6.86951 19.0297 6.86251C19.1268 6.8581 19.2247 6.86914 19.3222 6.87355C20.7176 6.9409 20.7647 7.00529 20.5373 8.41393C20.4998 8.64723 20.413 8.76977 20.1631 8.74622C20.0078 8.7315 19.8433 8.76278 19.6961 8.72377C18.9686 8.53132 18.5664 8.75726 18.2654 9.49544C18.0748 9.96351 18.176 10.1718 18.4505 10.4761C19.2372 11.3482 19.2104 11.3342 18.3622 12.1265C17.967 12.4956 17.6983 12.5044 17.4198 12.0452C17.39 11.9959 17.344 11.9561 17.3057 11.912C16.6952 11.2135 16.215 11.1414 15.4047 11.6106C15.2822 11.6816 15.2542 11.7699 15.2479 11.8928C15.2387 12.068 15.2439 12.2494 15.1986 12.4161C15.1092 12.7451 15.3455 13.2485 15.0084 13.3832C14.5723 13.5576 14.0476 13.4203 13.5648 13.3526C13.3646 13.3247 13.344 13.1661 13.3569 12.9968C13.3731 12.7826 13.383 12.5685 13.4043 12.21L13.4032 12.2112Z" fill="#FFC800"/>
<path id="Vector_7" d="M14.8233 4.71277C15.7849 4.74073 16.6721 5.28645 17.1571 6.3985C17.6138 7.44578 17.4386 8.43823 16.6945 9.2879C15.9324 10.1582 14.9565 10.4246 13.8301 10.1306C13.4364 10.0279 13.2583 9.91863 13.4618 9.42626C13.9656 8.20861 14.0336 6.92398 13.7819 5.62978C13.6178 4.78563 13.6903 4.69179 14.8233 4.7124V4.71277Z" fill="white"/>
<path id="Vector_8" d="M6.81251 20.7701C6.24619 20.7697 5.67949 20.7708 5.11317 20.769C4.87655 20.7683 4.66055 20.6884 4.64546 20.4297C4.62817 20.1328 4.85484 20.0356 5.1139 20.0345C6.24692 20.0305 7.37958 20.0305 8.5126 20.033C8.77497 20.0338 8.99061 20.1305 8.97552 20.4312C8.96154 20.7013 8.74553 20.7683 8.51223 20.7694C7.9459 20.7719 7.37921 20.7701 6.81288 20.7697L6.81251 20.7701Z" fill="#9FCDFE"/>
<path id="Vector_9" d="M3.71334 7.18887C3.83036 7.18887 3.94848 7.1782 4.06439 7.19071C4.54388 7.24223 4.87653 7.17525 5.03366 6.59237C5.19189 6.0058 5.68794 5.62421 6.28076 5.46119C6.61856 5.36809 6.69547 5.20066 6.67744 4.88088C6.65021 4.39441 6.66751 3.90572 6.66898 3.41815C6.66971 3.21465 6.68701 2.99681 6.95785 3.00306C7.2158 3.00932 7.25113 3.22017 7.25223 3.42587C7.25554 3.93295 7.26658 4.44077 7.24855 4.94748C7.23898 5.22053 7.31148 5.36919 7.59556 5.45125C8.30172 5.65475 8.77458 6.13239 8.97623 6.83377C9.06713 7.14913 9.22646 7.20837 9.51607 7.19513C10.0029 7.17305 10.4912 7.18666 10.9792 7.18961C11.1738 7.19071 11.4016 7.17194 11.4104 7.45455C11.42 7.76145 11.1871 7.7758 10.9633 7.77691C10.4758 7.77912 9.98672 7.79678 9.50061 7.76992C9.1996 7.75336 9.05461 7.84351 8.96593 8.14158C8.7628 8.82272 8.29178 9.28159 7.62058 9.4895C7.31773 9.58334 7.23163 9.71875 7.24671 10.0179C7.27137 10.5044 7.25738 10.9931 7.2526 11.481C7.25039 11.6992 7.24414 11.9403 6.93319 11.9303C6.64727 11.9211 6.67707 11.6889 6.67192 11.4968C6.6664 11.3018 6.65647 11.1053 6.67303 10.9118C6.73632 10.164 6.76061 9.49318 5.78987 9.23191C5.35233 9.11416 5.06236 8.6413 4.94718 8.16918C4.86365 7.82769 4.68702 7.75372 4.36871 7.77028C3.88224 7.79531 3.39356 7.77728 2.90598 7.7758C2.69881 7.77507 2.4931 7.74048 2.48464 7.48179C2.47581 7.20874 2.6885 7.19034 2.89384 7.18924C3.16688 7.18777 3.44029 7.18924 3.71334 7.18924V7.18887Z" fill="#121212"/>
<path id="Vector_10" d="M8.48595 7.49146C8.48264 8.33119 7.80334 9.01159 6.96139 9.01859C6.10105 9.02558 5.40372 8.32052 5.41219 7.45171C5.42028 6.61161 6.10215 5.93194 6.94263 5.92679C7.81144 5.92127 8.48963 6.60903 8.48632 7.49146H8.48595Z" fill="#9FCDFE"/>
</g>
</g>
<defs>
<clipPath id="clip0_6815_19330">
<rect width="22" height="22" fill="white"/>
</clipPath>
</defs>
</svg>
