<svg width="22" height="22" viewBox="0 0 22 22" fill="none" xmlns="http://www.w3.org/2000/svg">
<path d="M10.9987 1.83594C5.94786 1.83594 1.83203 5.95177 1.83203 11.0026C1.83203 16.0534 5.94786 20.1693 10.9987 20.1693C16.0495 20.1693 20.1654 16.0534 20.1654 11.0026C20.1654 5.95177 16.0495 1.83594 10.9987 1.83594ZM15.3804 8.89427L10.1829 14.0918C10.0545 14.2201 9.88036 14.2934 9.69703 14.2934C9.5137 14.2934 9.33953 14.2201 9.2112 14.0918L6.61703 11.4976C6.3512 11.2318 6.3512 10.7918 6.61703 10.5259C6.88286 10.2601 7.32286 10.2601 7.5887 10.5259L9.69703 12.6343L14.4087 7.9226C14.6745 7.65677 15.1145 7.65677 15.3804 7.9226C15.6462 8.18844 15.6462 8.61927 15.3804 8.89427Z" fill="#292D32"/>
</svg>
