<svg width="48" height="48" viewBox="0 0 48 48" fill="none" xmlns="http://www.w3.org/2000/svg">
<rect width="48" height="48" rx="24" fill="#D1E9FF"/>
<path d="M32.985 16.4201C32.9628 16.0544 32.8075 15.7095 32.5484 15.4504C32.2894 15.1913 31.9445 15.036 31.5788 15.0138C30.3994 14.9435 27.3853 15.0513 24.8841 17.5516L24.4388 18.0026H18.9703C18.7726 18.0015 18.5766 18.0397 18.3938 18.115C18.2109 18.1903 18.0449 18.3012 17.9053 18.4413L14.6897 21.6588C14.4925 21.8559 14.3541 22.104 14.2901 22.3754C14.2261 22.6467 14.2389 22.9305 14.3272 23.195C14.4155 23.4594 14.5758 23.694 14.79 23.8724C15.0043 24.0509 15.264 24.166 15.54 24.2051L19.1466 24.7085L23.2913 28.8532L23.7947 32.4616C23.8334 32.7377 23.9486 32.9974 24.1272 33.2115C24.3058 33.4255 24.5407 33.5853 24.8053 33.6729C24.9595 33.7244 25.1209 33.7507 25.2835 33.7507C25.4802 33.7511 25.6752 33.7125 25.857 33.6372C26.0388 33.5619 26.2039 33.4514 26.3428 33.312L29.5603 30.0963C29.7004 29.9568 29.8113 29.7907 29.8867 29.6079C29.962 29.4251 30.0002 29.2291 29.9991 29.0313V23.5629L30.4463 23.1157C32.9475 20.6144 33.0553 17.6004 32.985 16.4201ZM18.9703 19.5026H22.9388L19.2328 23.2076L15.7491 22.7219L18.9703 19.5026ZM25.9463 18.6166C26.6669 17.8915 27.5341 17.3285 28.4897 16.9652C29.4453 16.602 30.4674 16.4468 31.4878 16.5101C31.5535 17.531 31.4 18.5542 31.0374 19.5108C30.6749 20.4674 30.1118 21.3354 29.386 22.0563L23.9991 27.4413L20.5603 24.0026L25.9463 18.6166ZM28.4991 29.0313L25.2806 32.2526L24.7941 28.7679L28.4991 25.0629V29.0313ZM21.5466 29.9219C21.1247 30.8463 19.7138 33.0026 15.7491 33.0026C15.5502 33.0026 15.3594 32.9236 15.2187 32.7829C15.0781 32.6423 14.9991 32.4515 14.9991 32.2526C14.9991 28.2879 17.1553 26.8769 18.0797 26.4541C18.1693 26.4133 18.2661 26.3904 18.3646 26.387C18.463 26.3835 18.5612 26.3995 18.6535 26.4339C18.7457 26.4684 18.8303 26.5207 18.9024 26.5879C18.9744 26.6551 19.0326 26.7358 19.0735 26.8254C19.1143 26.915 19.1371 27.0118 19.1406 27.1103C19.1441 27.2087 19.1281 27.3069 19.0936 27.3992C19.0592 27.4914 19.0069 27.576 18.9397 27.6481C18.8725 27.7201 18.7918 27.7783 18.7022 27.8191C18.0994 28.0938 16.7691 28.9779 16.5347 31.4669C19.0238 31.2326 19.9097 29.9023 20.1825 29.2994C20.2234 29.2098 20.2815 29.1291 20.3536 29.062C20.4256 28.9948 20.5102 28.9425 20.6025 28.908C20.6948 28.8735 20.7929 28.8576 20.8914 28.861C20.9898 28.8645 21.0866 28.8873 21.1763 28.9282C21.2659 28.9691 21.3466 29.0272 21.4138 29.0993C21.4809 29.1713 21.5332 29.2559 21.5677 29.3482C21.6022 29.4405 21.6181 29.5386 21.6147 29.6371C21.6112 29.7355 21.5884 29.8323 21.5475 29.9219H21.5466Z" fill="#1C6DBE"/>
</svg>
