<svg width="49" height="48" viewBox="0 0 49 48" fill="none" xmlns="http://www.w3.org/2000/svg">
<path d="M0.25 24C0.25 10.7452 10.9952 0 24.25 0V0C37.5048 0 48.25 10.7452 48.25 24V24C48.25 37.2548 37.5048 48 24.25 48V48C10.9952 48 0.25 37.2548 0.25 24V24Z" fill="#D1E9FF"/>
<path d="M35.1475 17.6288C35.0395 17.5614 34.9162 17.5226 34.7891 17.516C34.662 17.5095 34.5353 17.5354 34.4209 17.5913C30.3963 19.56 27.5219 18.6375 24.4834 17.6644C21.2959 16.6435 17.9913 15.5888 13.4256 17.8182C13.2981 17.8793 13.1904 17.9754 13.1151 18.0951C13.0398 18.2149 12.9999 18.3535 13 18.495V29.7385C13 29.8657 13.0323 29.9909 13.094 30.1022C13.1557 30.2135 13.2447 30.3072 13.3527 30.3747C13.4606 30.4421 13.5839 30.4809 13.711 30.4876C13.838 30.4942 13.9647 30.4684 14.0791 30.4125C18.1038 28.4438 20.9781 29.3663 24.0212 30.3394C25.825 30.916 27.6625 31.5038 29.74 31.5038C31.3422 31.5038 33.0897 31.155 35.0753 30.1857C35.2014 30.1241 35.3077 30.0283 35.3822 29.9094C35.4566 29.7904 35.4961 29.6529 35.4963 29.5125V18.2691C35.4974 18.1415 35.4659 18.0157 35.4049 17.9037C35.3439 17.7917 35.2553 17.697 35.1475 17.6288ZM34 29.0353C30.1938 30.7388 27.4141 29.85 24.4788 28.9116C22.675 28.335 20.8375 27.7472 18.76 27.7472C17.3004 27.7543 15.8557 28.0407 14.5038 28.591V18.9722C18.31 17.2688 21.0897 18.1575 24.025 19.096C26.9603 20.0344 29.9819 21.0038 34 19.4185V29.0353ZM24.25 21.0038C23.6567 21.0038 23.0766 21.1797 22.5833 21.5094C22.0899 21.839 21.7054 22.3075 21.4784 22.8557C21.2513 23.4039 21.1919 24.0071 21.3076 24.589C21.4234 25.171 21.7091 25.7055 22.1287 26.1251C22.5482 26.5447 23.0828 26.8304 23.6647 26.9461C24.2467 27.0619 24.8499 27.0025 25.398 26.7754C25.9462 26.5484 26.4148 26.1638 26.7444 25.6705C27.0741 25.1771 27.25 24.5971 27.25 24.0038C27.25 23.2081 26.9339 22.4451 26.3713 21.8825C25.8087 21.3198 25.0456 21.0038 24.25 21.0038ZM24.25 25.5038C23.9533 25.5038 23.6633 25.4158 23.4166 25.251C23.17 25.0862 22.9777 24.8519 22.8642 24.5778C22.7506 24.3037 22.7209 24.0021 22.7788 23.7111C22.8367 23.4202 22.9796 23.1529 23.1893 22.9431C23.3991 22.7333 23.6664 22.5905 23.9574 22.5326C24.2483 22.4747 24.5499 22.5044 24.824 22.618C25.0981 22.7315 25.3324 22.9237 25.4972 23.1704C25.662 23.4171 25.75 23.7071 25.75 24.0038C25.75 24.4016 25.592 24.7831 25.3107 25.0644C25.0294 25.3457 24.6478 25.5038 24.25 25.5038ZM17.5 21.0038V25.5038C17.5 25.7027 17.421 25.8935 17.2803 26.0341C17.1397 26.1748 16.9489 26.2538 16.75 26.2538C16.5511 26.2538 16.3603 26.1748 16.2197 26.0341C16.079 25.8935 16 25.7027 16 25.5038V21.0038C16 20.8049 16.079 20.6141 16.2197 20.4734C16.3603 20.3328 16.5511 20.2538 16.75 20.2538C16.9489 20.2538 17.1397 20.3328 17.2803 20.4734C17.421 20.6141 17.5 20.8049 17.5 21.0038ZM31 27.0038V22.5038C31 22.3049 31.079 22.1141 31.2197 21.9734C31.3603 21.8328 31.5511 21.7538 31.75 21.7538C31.9489 21.7538 32.1397 21.8328 32.2803 21.9734C32.421 22.1141 32.5 22.3049 32.5 22.5038V27.0038C32.5 27.2027 32.421 27.3935 32.2803 27.5341C32.1397 27.6748 31.9489 27.7538 31.75 27.7538C31.5511 27.7538 31.3603 27.6748 31.2197 27.5341C31.079 27.3935 31 27.2027 31 27.0038Z" fill="#1C6DBE"/>
</svg>
