<svg width="49" height="48" viewBox="0 0 49 48" fill="none" xmlns="http://www.w3.org/2000/svg">
<g clip-path="url(#clip0_10200_41054)">
<path d="M0.75 24C0.75 10.7452 11.4952 0 24.75 0V0C38.0048 0 48.75 10.7452 48.75 24V24C48.75 37.2548 38.0048 48 24.75 48V48C11.4952 48 0.75 37.2548 0.75 24V24Z" fill="#D1E9FF"/>
<path d="M0.75 24C0.75 10.7452 11.4952 0 24.75 0V0C38.0048 0 48.75 10.7452 48.75 24V24C48.75 37.2548 38.0048 48 24.75 48V48C11.4952 48 0.75 37.2548 0.75 24V24Z" fill="#D1E9FF"/>
<path d="M18.22 21.531L15.22 18.531C15.1502 18.4614 15.0949 18.3787 15.0572 18.2876C15.0194 18.1966 15 18.099 15 18.0004C15 17.9019 15.0194 17.8043 15.0572 17.7132C15.0949 17.6222 15.1502 17.5394 15.22 17.4698L18.22 14.4698C18.3607 14.3291 18.5516 14.25 18.7506 14.25C18.9496 14.25 19.1405 14.3291 19.2812 14.4698C19.4219 14.6105 19.501 14.8014 19.501 15.0004C19.501 15.1994 19.4219 15.3903 19.2812 15.531L16.8109 18.0004L19.2812 20.4698C19.4219 20.6105 19.501 20.8014 19.501 21.0004C19.501 21.1994 19.4219 21.3903 19.2812 21.531C19.1405 21.6718 18.9496 21.7508 18.7506 21.7508C18.5516 21.7508 18.3607 21.6718 18.22 21.531ZM21.97 21.531C22.0396 21.6008 22.1223 21.6561 22.2134 21.6938C22.3044 21.7316 22.402 21.751 22.5006 21.751C22.5992 21.751 22.6967 21.7316 22.7878 21.6938C22.8788 21.6561 22.9616 21.6008 23.0312 21.531L26.0312 18.531C26.1009 18.4614 26.1563 18.3787 26.194 18.2876C26.2318 18.1966 26.2512 18.099 26.2512 18.0004C26.2512 17.9019 26.2318 17.8043 26.194 17.7132C26.1563 17.6222 26.1009 17.5394 26.0312 17.4698L23.0312 14.4698C22.8905 14.3291 22.6996 14.25 22.5006 14.25C22.3016 14.25 22.1107 14.3291 21.97 14.4698C21.8292 14.6105 21.7502 14.8014 21.7502 15.0004C21.7502 15.1994 21.8292 15.3903 21.97 15.531L24.4403 18.0004L21.97 20.4698C21.9002 20.5394 21.8449 20.6222 21.8072 20.7132C21.7694 20.8043 21.75 20.9019 21.75 21.0004C21.75 21.099 21.7694 21.1966 21.8072 21.2876C21.8449 21.3787 21.9002 21.4614 21.97 21.531ZM31.5006 15.7504H29.2506C29.0517 15.7504 28.8609 15.8294 28.7203 15.9701C28.5796 16.1107 28.5006 16.3015 28.5006 16.5004C28.5006 16.6993 28.5796 16.8901 28.7203 17.0307C28.8609 17.1714 29.0517 17.2504 29.2506 17.2504H31.5006V30.7504H18.0006V24.7504C18.0006 24.5515 17.9216 24.3607 17.7809 24.2201C17.6403 24.0794 17.4495 24.0004 17.2506 24.0004C17.0517 24.0004 16.8609 24.0794 16.7203 24.2201C16.5796 24.3607 16.5006 24.5515 16.5006 24.7504V30.7504C16.5006 31.1482 16.6586 31.5298 16.9399 31.8111C17.2212 32.0924 17.6028 32.2504 18.0006 32.2504H31.5006C31.8984 32.2504 32.2799 32.0924 32.5612 31.8111C32.8426 31.5298 33.0006 31.1482 33.0006 30.7504V17.2504C33.0006 16.8526 32.8426 16.4711 32.5612 16.1898C32.2799 15.9085 31.8984 15.7504 31.5006 15.7504Z" fill="#1C6DBE"/>
</g>
<defs>
<clipPath id="clip0_10200_41054">
<path d="M0.75 24C0.75 10.7452 11.4952 0 24.75 0V0C38.0048 0 48.75 10.7452 48.75 24V24C48.75 37.2548 38.0048 48 24.75 48V48C11.4952 48 0.75 37.2548 0.75 24V24Z" fill="white"/>
</clipPath>
</defs>
</svg>
