<svg width="49" height="48" viewBox="0 0 49 48" fill="none" xmlns="http://www.w3.org/2000/svg">
<rect x="0.25" width="48" height="48" rx="24" fill="#D1E9FF"/>
<path d="M32.4808 23.0747C32.4524 22.9545 32.3948 22.8431 32.313 22.7506C32.2312 22.658 32.1279 22.5871 32.0121 22.5441L26.6111 20.5181L27.9855 13.6434C28.0166 13.4837 27.995 13.3182 27.9238 13.1719C27.8526 13.0255 27.7357 12.9063 27.5908 12.8322C27.4459 12.7581 27.2809 12.7332 27.1205 12.7611C26.9602 12.7891 26.8134 12.8684 26.7021 12.9872L16.2021 24.2372C16.1168 24.327 16.0551 24.4366 16.0225 24.5561C15.9899 24.6757 15.9874 24.8014 16.0153 24.9221C16.0432 25.0428 16.1005 25.1548 16.1822 25.2479C16.2638 25.3411 16.3673 25.4125 16.4833 25.4559L21.8861 27.4819L20.5155 34.3491C20.4844 34.5088 20.5061 34.6743 20.5773 34.8206C20.6485 34.967 20.7653 35.0862 20.9102 35.1603C21.0551 35.2343 21.2202 35.2593 21.3805 35.2313C21.5408 35.2034 21.6877 35.1241 21.799 35.0053L32.299 23.7553C32.3827 23.6654 32.4431 23.5564 32.4748 23.4377C32.5065 23.319 32.5086 23.1943 32.4808 23.0747ZM22.504 32.0587L23.4855 27.1481C23.5206 26.974 23.4928 26.793 23.407 26.6374C23.3211 26.4819 23.1828 26.3619 23.0168 26.2987L18.063 24.4378L25.9961 15.9384L25.0155 20.8491C24.9804 21.0232 25.0082 21.2042 25.0941 21.3597C25.1799 21.5153 25.3182 21.6353 25.4843 21.6984L30.4343 23.5547L22.504 32.0587Z" fill="#1C6DBE"/>
</svg>
