<svg width="49" height="48" viewBox="0 0 49 48" fill="none" xmlns="http://www.w3.org/2000/svg">
<rect x="0.5" width="48" height="48" rx="24" fill="#D1E9FF"/>
<path d="M33.485 16.4201C33.4628 16.0544 33.3075 15.7095 33.0484 15.4504C32.7894 15.1913 32.4445 15.036 32.0788 15.0138C30.8994 14.9435 27.8853 15.0513 25.3841 17.5516L24.9388 18.0026H19.4703C19.2726 18.0015 19.0766 18.0397 18.8938 18.115C18.7109 18.1903 18.5449 18.3012 18.4053 18.4413L15.1897 21.6588C14.9925 21.8559 14.8541 22.104 14.7901 22.3754C14.7261 22.6467 14.7389 22.9305 14.8272 23.195C14.9155 23.4594 15.0758 23.694 15.29 23.8724C15.5043 24.0509 15.764 24.166 16.04 24.2051L19.6466 24.7085L23.7913 28.8532L24.2947 32.4616C24.3334 32.7377 24.4486 32.9974 24.6272 33.2115C24.8058 33.4255 25.0407 33.5853 25.3053 33.6729C25.4595 33.7244 25.6209 33.7507 25.7835 33.7507C25.9802 33.7511 26.1752 33.7125 26.357 33.6372C26.5388 33.5619 26.7039 33.4514 26.8428 33.312L30.0603 30.0963C30.2004 29.9568 30.3113 29.7907 30.3867 29.6079C30.462 29.4251 30.5002 29.2291 30.4991 29.0313V23.5629L30.9463 23.1157C33.4475 20.6144 33.5553 17.6004 33.485 16.4201ZM19.4703 19.5026H23.4388L19.7328 23.2076L16.2491 22.7219L19.4703 19.5026ZM26.4463 18.6166C27.1669 17.8915 28.0341 17.3285 28.9897 16.9652C29.9453 16.602 30.9674 16.4468 31.9878 16.5101C32.0535 17.531 31.9 18.5542 31.5374 19.5108C31.1749 20.4674 30.6118 21.3354 29.886 22.0563L24.4991 27.4413L21.0603 24.0026L26.4463 18.6166ZM28.9991 29.0313L25.7806 32.2526L25.2941 28.7679L28.9991 25.0629V29.0313ZM22.0466 29.9219C21.6247 30.8463 20.2138 33.0026 16.2491 33.0026C16.0502 33.0026 15.8594 32.9236 15.7187 32.7829C15.5781 32.6423 15.4991 32.4515 15.4991 32.2526C15.4991 28.2879 17.6553 26.8769 18.5797 26.4541C18.6693 26.4133 18.7661 26.3904 18.8646 26.387C18.963 26.3835 19.0612 26.3995 19.1535 26.4339C19.2457 26.4684 19.3303 26.5207 19.4024 26.5879C19.4744 26.6551 19.5326 26.7358 19.5735 26.8254C19.6143 26.915 19.6371 27.0118 19.6406 27.1103C19.6441 27.2087 19.6281 27.3069 19.5936 27.3992C19.5592 27.4914 19.5069 27.576 19.4397 27.6481C19.3725 27.7201 19.2918 27.7783 19.2022 27.8191C18.5994 28.0938 17.2691 28.9779 17.0347 31.4669C19.5238 31.2326 20.4097 29.9023 20.6825 29.2994C20.7234 29.2098 20.7815 29.1291 20.8536 29.062C20.9256 28.9948 21.0102 28.9425 21.1025 28.908C21.1948 28.8735 21.2929 28.8576 21.3914 28.861C21.4898 28.8645 21.5866 28.8873 21.6763 28.9282C21.7659 28.9691 21.8466 29.0272 21.9138 29.0993C21.9809 29.1713 22.0332 29.2559 22.0677 29.3482C22.1022 29.4405 22.1181 29.5386 22.1147 29.6371C22.1112 29.7355 22.0884 29.8323 22.0475 29.9219H22.0466Z" fill="#1C6DBE"/>
</svg>
