<svg width="49" height="48" viewBox="0 0 49 48" fill="none" xmlns="http://www.w3.org/2000/svg">
<path d="M0.75 24C0.75 10.7452 11.4952 0 24.75 0V0C38.0048 0 48.75 10.7452 48.75 24V24C48.75 37.2548 38.0048 48 24.75 48V48C11.4952 48 0.75 37.2548 0.75 24V24Z" fill="#D1E9FF"/>
<path d="M29.25 13.5H20.25C19.6533 13.5 19.081 13.7371 18.659 14.159C18.2371 14.581 18 15.1533 18 15.75V32.25C18 32.8467 18.2371 33.419 18.659 33.841C19.081 34.2629 19.6533 34.5 20.25 34.5H29.25C29.8467 34.5 30.419 34.2629 30.841 33.841C31.2629 33.419 31.5 32.8467 31.5 32.25V15.75C31.5 15.1533 31.2629 14.581 30.841 14.159C30.419 13.7371 29.8467 13.5 29.25 13.5ZM30 32.25C30 32.4489 29.921 32.6397 29.7803 32.7803C29.6397 32.921 29.4489 33 29.25 33H20.25C20.0511 33 19.8603 32.921 19.7197 32.7803C19.579 32.6397 19.5 32.4489 19.5 32.25V15.75C19.5 15.5511 19.579 15.3603 19.7197 15.2197C19.8603 15.079 20.0511 15 20.25 15H29.25C29.4489 15 29.6397 15.079 29.7803 15.2197C29.921 15.3603 30 15.5511 30 15.75V32.25ZM25.875 17.625C25.875 17.8475 25.809 18.065 25.6854 18.25C25.5618 18.435 25.3861 18.5792 25.1805 18.6644C24.975 18.7495 24.7488 18.7718 24.5305 18.7284C24.3123 18.685 24.1118 18.5778 23.9545 18.4205C23.7972 18.2632 23.69 18.0627 23.6466 17.8445C23.6032 17.6262 23.6255 17.4 23.7106 17.1945C23.7958 16.9889 23.94 16.8132 24.125 16.6896C24.31 16.566 24.5275 16.5 24.75 16.5C25.0484 16.5 25.3345 16.6185 25.5455 16.8295C25.7565 17.0405 25.875 17.3266 25.875 17.625Z" fill="#1C6DBE"/>
</svg>
