<svg width="48" height="48" viewBox="0 0 48 48" fill="none" xmlns="http://www.w3.org/2000/svg">
<g clip-path="url(#clip0_10200_41067)">
<path d="M0 24C0 10.7452 10.7452 0 24 0V0C37.2548 0 48 10.7452 48 24V24C48 37.2548 37.2548 48 24 48V48C10.7452 48 0 37.2548 0 24V24Z" fill="#D1E9FF"/>
<path d="M0 24C0 10.7452 10.7452 0 24 0V0C37.2548 0 48 10.7452 48 24V24C48 37.2548 37.2548 48 24 48V48C10.7452 48 0 37.2548 0 24V24Z" fill="#D1E9FF"/>
<path d="M32.6497 26.863C32.5428 26.7956 32.4205 26.7562 32.2943 26.7487C32.1681 26.7412 32.0421 26.7657 31.9279 26.8199C31.6421 26.9551 31.3268 27.0158 31.0112 26.9964C30.6957 26.977 30.3902 26.8781 30.1231 26.709C29.856 26.5399 29.636 26.3059 29.4836 26.029C29.3312 25.752 29.2512 25.441 29.2512 25.1249C29.2512 24.8088 29.3312 24.4978 29.4836 24.2208C29.636 23.9439 29.856 23.7099 30.1231 23.5408C30.3902 23.3717 30.6957 23.2728 31.0112 23.2534C31.3268 23.234 31.6421 23.2947 31.9279 23.4299C32.0422 23.4842 32.1684 23.5086 32.2947 23.501C32.4211 23.4933 32.5434 23.4538 32.6504 23.3862C32.7573 23.3185 32.8454 23.2249 32.9064 23.114C32.9675 23.0032 32.9995 22.8786 32.9994 22.7521V18.7499C32.9994 18.3521 32.8414 17.9705 32.5601 17.6892C32.2788 17.4079 31.8972 17.2499 31.4994 17.2499H28.1038C28.1178 17.1254 28.1246 17.0002 28.1244 16.8749C28.1237 16.4139 28.0289 15.958 27.8458 15.535C27.6627 15.112 27.3951 14.7308 27.0594 14.4149C26.5947 13.9784 26.0158 13.6825 25.3898 13.5614C24.7638 13.4403 24.1164 13.4991 23.5224 13.7308C22.9284 13.9625 22.4122 14.3577 22.0335 14.8707C21.6549 15.3836 21.4293 15.9934 21.3829 16.6293C21.3685 16.8361 21.3728 17.0438 21.396 17.2499H17.9994C17.6016 17.2499 17.2201 17.4079 16.9388 17.6892C16.6575 17.9705 16.4994 18.3521 16.4994 18.7499V21.7705C16.3749 21.7566 16.2497 21.7497 16.1244 21.7499C15.6635 21.7506 15.2075 21.8455 14.7845 22.0286C14.3615 22.2117 13.9804 22.4793 13.6644 22.8149C13.3462 23.1511 13.1011 23.5496 12.9448 23.9853C12.7884 24.421 12.7241 24.8843 12.756 25.3461C12.8097 26.1593 13.1552 26.9257 13.729 27.5045C14.3027 28.0832 15.0661 28.4354 15.8788 28.4961C16.0856 28.511 16.2934 28.5066 16.4994 28.483V31.4999C16.4994 31.8977 16.6575 32.2793 16.9388 32.5606C17.2201 32.8419 17.6016 32.9999 17.9994 32.9999H31.4994C31.8972 32.9999 32.2788 32.8419 32.5601 32.5606C32.8414 32.2793 32.9994 31.8977 32.9994 31.4999V27.4977C32.9995 27.371 32.9675 27.2463 32.9063 27.1353C32.8452 27.0243 32.7569 26.9307 32.6497 26.863ZM31.4994 31.4999H17.9994V27.4977C17.9995 27.3711 17.9675 27.2466 17.9064 27.1358C17.8454 27.0249 17.7573 26.9313 17.6504 26.8636C17.5434 26.796 17.4211 26.7565 17.2947 26.7488C17.1684 26.7412 17.0422 26.7656 16.9279 26.8199C16.6421 26.9551 16.3268 27.0158 16.0112 26.9964C15.6957 26.977 15.3902 26.8781 15.1231 26.709C14.856 26.5399 14.636 26.3059 14.4836 26.029C14.3312 25.752 14.2512 25.441 14.2512 25.1249C14.2512 24.8088 14.3312 24.4978 14.4836 24.2208C14.636 23.9439 14.856 23.7099 15.1231 23.5408C15.3902 23.3717 15.6957 23.2728 16.0112 23.2534C16.3268 23.234 16.6421 23.2947 16.9279 23.4299C17.0422 23.4842 17.1684 23.5086 17.2947 23.501C17.4211 23.4933 17.5434 23.4538 17.6504 23.3862C17.7573 23.3185 17.8454 23.2249 17.9064 23.114C17.9675 23.0032 17.9995 22.8786 17.9994 22.7521V18.7499H22.3766C22.5032 18.7499 22.6277 18.718 22.7385 18.6569C22.8494 18.5959 22.943 18.5078 23.0107 18.4008C23.0783 18.2939 23.1178 18.1715 23.1255 18.0452C23.1331 17.9189 23.1087 17.7927 23.0544 17.6783C22.9193 17.3925 22.8586 17.0772 22.8779 16.7617C22.8973 16.4462 22.9962 16.1407 23.1653 15.8736C23.3345 15.6065 23.5684 15.3865 23.8453 15.2341C24.1223 15.0816 24.4333 15.0017 24.7494 15.0017C25.0656 15.0017 25.3766 15.0816 25.6535 15.2341C25.9305 15.3865 26.1644 15.6065 26.3335 15.8736C26.5026 16.1407 26.6015 16.4462 26.6209 16.7617C26.6403 17.0772 26.5796 17.3925 26.4444 17.6783C26.3902 17.7927 26.3657 17.9189 26.3734 18.0452C26.381 18.1715 26.4205 18.2939 26.4881 18.4008C26.5558 18.5078 26.6494 18.5959 26.7603 18.6569C26.8712 18.718 26.9957 18.7499 27.1222 18.7499H31.4994V21.7715C31.2934 21.7479 31.0856 21.7435 30.8788 21.7583C30.0059 21.8201 29.1911 22.2186 28.6064 22.8696C28.0216 23.5206 27.7126 24.3733 27.7444 25.2478C27.7763 26.1223 28.1466 26.9502 28.7772 27.557C29.4077 28.1637 30.2493 28.5018 31.1244 28.4999C31.2497 28.5001 31.3749 28.4932 31.4994 28.4793V31.4999Z" fill="#1C6DBE"/>
</g>
<defs>
<clipPath id="clip0_10200_41067">
<path d="M0 24C0 10.7452 10.7452 0 24 0V0C37.2548 0 48 10.7452 48 24V24C48 37.2548 37.2548 48 24 48V48C10.7452 48 0 37.2548 0 24V24Z" fill="white"/>
</clipPath>
</defs>
</svg>
