<svg width="49" height="48" viewBox="0 0 49 48" fill="none" xmlns="http://www.w3.org/2000/svg">
<rect x="0.25" width="48" height="48" rx="24" fill="#D1E9FF"/>
<path d="M31.75 19.5H28.75V17.25C28.75 16.0565 28.2759 14.9119 27.432 14.068C26.5881 13.2241 25.4435 12.75 24.25 12.75C23.0565 12.75 21.9119 13.2241 21.068 14.068C20.2241 14.9119 19.75 16.0565 19.75 17.25V19.5H16.75C16.3522 19.5 15.9706 19.658 15.6893 19.9393C15.408 20.2206 15.25 20.6022 15.25 21V31.5C15.25 31.8978 15.408 32.2794 15.6893 32.5607C15.9706 32.842 16.3522 33 16.75 33H31.75C32.1478 33 32.5294 32.842 32.8107 32.5607C33.092 32.2794 33.25 31.8978 33.25 31.5V21C33.25 20.6022 33.092 20.2206 32.8107 19.9393C32.5294 19.658 32.1478 19.5 31.75 19.5ZM21.25 17.25C21.25 16.4544 21.5661 15.6913 22.1287 15.1287C22.6913 14.5661 23.4544 14.25 24.25 14.25C25.0456 14.25 25.8087 14.5661 26.3713 15.1287C26.9339 15.6913 27.25 16.4544 27.25 17.25V19.5H21.25V17.25ZM31.75 31.5H16.75V21H31.75V31.5ZM25.375 26.25C25.375 26.4725 25.309 26.69 25.1854 26.875C25.0618 27.06 24.8861 27.2042 24.6805 27.2894C24.475 27.3745 24.2488 27.3968 24.0305 27.3534C23.8123 27.31 23.6118 27.2028 23.4545 27.0455C23.2972 26.8882 23.19 26.6877 23.1466 26.4695C23.1032 26.2512 23.1255 26.025 23.2106 25.8195C23.2958 25.6139 23.44 25.4382 23.625 25.3146C23.81 25.191 24.0275 25.125 24.25 25.125C24.5484 25.125 24.8345 25.2435 25.0455 25.4545C25.2565 25.6655 25.375 25.9516 25.375 26.25Z" fill="#1C6DBE"/>
</svg>
