<svg width="49" height="48" viewBox="0 0 49 48" fill="none" xmlns="http://www.w3.org/2000/svg">
<rect x="0.5" width="48" height="48" rx="24" fill="#D1E9FF"/>
<path d="M29 26.25H32C32.3978 26.25 32.7794 26.092 33.0607 25.8107C33.342 25.5294 33.5 25.1478 33.5 24.75V21.75C33.5 21.3522 33.342 20.9706 33.0607 20.6893C32.7794 20.408 32.3978 20.25 32 20.25H29C28.6022 20.25 28.2206 20.408 27.9393 20.6893C27.658 20.9706 27.5 21.3522 27.5 21.75V22.5H20.75V19.5H21.5C21.8978 19.5 22.2794 19.342 22.5607 19.0607C22.842 18.7794 23 18.3978 23 18V15C23 14.6022 22.842 14.2206 22.5607 13.9393C22.2794 13.658 21.8978 13.5 21.5 13.5H18.5C18.1022 13.5 17.7206 13.658 17.4393 13.9393C17.158 14.2206 17 14.6022 17 15V18C17 18.3978 17.158 18.7794 17.4393 19.0607C17.7206 19.342 18.1022 19.5 18.5 19.5H19.25V30C19.25 30.5967 19.4871 31.169 19.909 31.591C20.331 32.0129 20.9033 32.25 21.5 32.25H27.5V33C27.5 33.3978 27.658 33.7794 27.9393 34.0607C28.2206 34.342 28.6022 34.5 29 34.5H32C32.3978 34.5 32.7794 34.342 33.0607 34.0607C33.342 33.7794 33.5 33.3978 33.5 33V30C33.5 29.6022 33.342 29.2206 33.0607 28.9393C32.7794 28.658 32.3978 28.5 32 28.5H29C28.6022 28.5 28.2206 28.658 27.9393 28.9393C27.658 29.2206 27.5 29.6022 27.5 30V30.75H21.5C21.3011 30.75 21.1103 30.671 20.9697 30.5303C20.829 30.3897 20.75 30.1989 20.75 30V24H27.5V24.75C27.5 25.1478 27.658 25.5294 27.9393 25.8107C28.2206 26.092 28.6022 26.25 29 26.25ZM18.5 15H21.5V18H18.5V15ZM29 30H32V33H29V30ZM29 21.75H32V24.75H29V21.75Z" fill="#1C6DBE"/>
</svg>
