<svg width="49" height="48" viewBox="0 0 49 48" fill="none" xmlns="http://www.w3.org/2000/svg">
<path d="M0.75 24C0.75 10.7452 11.4952 0 24.75 0V0C38.0048 0 48.75 10.7452 48.75 24V24C48.75 37.2548 38.0048 48 24.75 48V48C11.4952 48 0.75 37.2548 0.75 24V24Z" fill="#D1E9FF"/>
<path d="M29.4533 28.4974H23.1871C23.0736 29.1692 22.809 29.8064 22.4134 30.361C22.0177 30.9156 21.5013 31.3732 20.903 31.6991C20.3048 32.0251 19.6403 32.211 18.9598 32.2427C18.2793 32.2745 17.6004 32.1513 16.9744 31.8825C16.3484 31.6137 15.7916 31.2062 15.346 30.6909C14.9004 30.1755 14.5776 29.5657 14.402 28.9075C14.2264 28.2492 14.2026 27.5597 14.3323 26.8909C14.462 26.222 14.7419 25.5914 15.1508 25.0465C15.2703 24.8874 15.4481 24.7822 15.6451 24.7542C15.8421 24.7261 16.0422 24.7775 16.2013 24.897C16.3604 25.0164 16.4656 25.1942 16.4936 25.3912C16.5217 25.5882 16.4703 25.7883 16.3508 25.9474C15.9595 26.4657 15.7487 27.098 15.7508 27.7474C15.7508 28.5431 16.0669 29.3062 16.6295 29.8688C17.1921 30.4314 17.9552 30.7474 18.7508 30.7474C19.5465 30.7474 20.3096 30.4314 20.8722 29.8688C21.4348 29.3062 21.7508 28.5431 21.7508 27.7474C21.7508 27.5485 21.8299 27.3578 21.9705 27.2171C22.1112 27.0765 22.3019 26.9974 22.5008 26.9974H29.4533C29.6184 26.7115 29.8733 26.488 30.1784 26.3616C30.4834 26.2353 30.8217 26.2131 31.1406 26.2986C31.4596 26.384 31.7414 26.5723 31.9424 26.8343C32.1434 27.0963 32.2524 27.4172 32.2524 27.7474C32.2524 28.0776 32.1434 28.3986 31.9424 28.6606C31.7414 28.9226 31.4596 29.1109 31.1406 29.1963C30.8217 29.2818 30.4834 29.2596 30.1784 29.1333C29.8733 29.0069 29.6184 28.7834 29.4533 28.4974ZM18.7508 29.2474C19.0106 29.2475 19.266 29.1801 19.4919 29.0519C19.7179 28.9236 19.9066 28.7389 20.0397 28.5157C20.1727 28.2926 20.2456 28.0387 20.251 27.779C20.2565 27.5192 20.1944 27.2625 20.0708 27.034L23.4243 21.5834C23.5284 21.414 23.5609 21.2103 23.5149 21.0169C23.4688 20.8236 23.3479 20.6564 23.1787 20.5521C22.7778 20.3053 22.4406 19.9677 22.1944 19.5665C21.9482 19.1652 21.7999 18.7117 21.7614 18.2425C21.723 17.7734 21.7954 17.3017 21.973 16.8658C22.1506 16.4298 22.4283 16.0417 22.7836 15.733C23.1389 15.4242 23.5619 15.2034 24.0184 15.0883C24.4749 14.9733 24.952 14.9674 25.4112 15.0709C25.8705 15.1744 26.2989 15.3846 26.6618 15.6844C27.0248 15.9841 27.3121 16.3651 27.5005 16.7965C27.5801 16.9789 27.7288 17.1222 27.9141 17.1949C28.0993 17.2676 28.3058 17.2637 28.4882 17.1842C28.6706 17.1046 28.8139 16.9558 28.8866 16.7706C28.9593 16.5854 28.9554 16.3789 28.8758 16.1965C28.6057 15.5789 28.2002 15.0299 27.6894 14.59C27.1786 14.1502 26.5755 13.8307 25.9246 13.6552C25.2737 13.4797 24.5918 13.4526 23.9291 13.5761C23.2663 13.6995 22.6398 13.9703 22.0958 14.3683C21.5518 14.7664 21.1041 15.2816 20.7859 15.8759C20.4677 16.4701 20.2871 17.1283 20.2574 17.8018C20.2277 18.4752 20.3497 19.1467 20.6144 19.7667C20.879 20.3867 21.2796 20.9393 21.7865 21.3837L18.7921 26.2474C18.778 26.2474 18.7649 26.2474 18.7508 26.2474C18.353 26.2474 17.9715 26.4055 17.6902 26.6868C17.4089 26.9681 17.2508 27.3496 17.2508 27.7474C17.2508 28.1453 17.4089 28.5268 17.6902 28.8081C17.9715 29.0894 18.353 29.2474 18.7508 29.2474ZM30.7508 23.2474C30.1726 23.2475 29.5997 23.3586 29.0633 23.5746L26.0708 18.7099C26.2268 18.421 26.2837 18.0888 26.2327 17.7645C26.1817 17.4401 26.0256 17.1414 25.7885 16.9143C25.5514 16.6871 25.2463 16.544 24.92 16.507C24.5937 16.47 24.2643 16.541 23.9824 16.7093C23.7004 16.8775 23.4814 17.1336 23.359 17.4383C23.2366 17.743 23.2175 18.0795 23.3048 18.396C23.392 18.7126 23.5808 18.9918 23.842 19.1907C24.1032 19.3897 24.4225 19.4974 24.7508 19.4974H24.7921L28.1465 24.949C28.2509 25.1181 28.4181 25.2388 28.6115 25.2847C28.8048 25.3306 29.0085 25.2979 29.1777 25.1937C29.5726 24.9503 30.0185 24.8017 30.4805 24.7598C30.9424 24.7178 31.4078 24.7835 31.8401 24.9517C32.2724 25.12 32.6598 25.3862 32.9718 25.7294C33.2838 26.0726 33.512 26.4835 33.6384 26.9298C33.7649 27.3762 33.7861 27.8457 33.7004 28.3016C33.6147 28.7575 33.4245 29.1873 33.1446 29.5572C32.8648 29.9272 32.503 30.2272 32.0876 30.4337C31.6723 30.6402 31.2147 30.7476 30.7508 30.7474C30.5519 30.7474 30.3612 30.8265 30.2205 30.9671C30.0799 31.1078 30.0008 31.2985 30.0008 31.4974C30.0008 31.6964 30.0799 31.8871 30.2205 32.0278C30.3612 32.1684 30.5519 32.2474 30.7508 32.2474C31.9443 32.2474 33.0889 31.7733 33.9328 30.9294C34.7767 30.0855 35.2508 28.9409 35.2508 27.7474C35.2508 26.554 34.7767 25.4094 33.9328 24.5655C33.0889 23.7215 31.9443 23.2474 30.7508 23.2474Z" fill="#1C6DBE"/>
</svg>
