<svg width="48" height="48" viewBox="0 0 48 48" fill="none" xmlns="http://www.w3.org/2000/svg">
<rect width="48" height="48" rx="24" fill="#D1E9FF"/>
<path d="M32.2308 23.0747C32.2024 22.9545 32.1448 22.8431 32.063 22.7506C31.9812 22.658 31.8779 22.5871 31.7621 22.5441L26.3611 20.5181L27.7355 13.6434C27.7666 13.4837 27.745 13.3182 27.6738 13.1719C27.6026 13.0255 27.4857 12.9063 27.3408 12.8322C27.1959 12.7581 27.0309 12.7332 26.8705 12.7611C26.7102 12.7891 26.5634 12.8684 26.4521 12.9872L15.9521 24.2372C15.8668 24.327 15.8051 24.4366 15.7725 24.5561C15.7399 24.6757 15.7374 24.8014 15.7653 24.9221C15.7932 25.0428 15.8505 25.1548 15.9322 25.2479C16.0138 25.3411 16.1173 25.4125 16.2333 25.4559L21.6361 27.4819L20.2655 34.3491C20.2344 34.5088 20.2561 34.6743 20.3273 34.8206C20.3985 34.967 20.5153 35.0862 20.6602 35.1603C20.8051 35.2343 20.9702 35.2593 21.1305 35.2313C21.2908 35.2034 21.4377 35.1241 21.549 35.0053L32.049 23.7553C32.1327 23.6654 32.1931 23.5564 32.2248 23.4377C32.2565 23.319 32.2586 23.1943 32.2308 23.0747ZM22.254 32.0587L23.2355 27.1481C23.2706 26.974 23.2428 26.793 23.157 26.6374C23.0711 26.4819 22.9328 26.3619 22.7668 26.2987L17.813 24.4378L25.7461 15.9384L24.7655 20.8491C24.7304 21.0232 24.7582 21.2042 24.8441 21.3597C24.9299 21.5153 25.0682 21.6353 25.2343 21.6984L30.1843 23.5547L22.254 32.0587Z" fill="#1C6DBE"/>
</svg>
