<svg width="49" height="48" viewBox="0 0 49 48" fill="none" xmlns="http://www.w3.org/2000/svg">
<path d="M0.25 24C0.25 10.7452 10.9952 0 24.25 0C37.5048 0 48.25 10.7452 48.25 24C48.25 37.2548 37.5048 48 24.25 48C10.9952 48 0.25 37.2548 0.25 24Z" fill="#D1E9FF"/>
<path d="M34 16.5H27.25C26.6678 16.5 26.0937 16.6355 25.5729 16.8959C25.0522 17.1563 24.5993 17.5343 24.25 18C23.9007 17.5343 23.4478 17.1563 22.9271 16.8959C22.4063 16.6355 21.8322 16.5 21.25 16.5H14.5C14.3011 16.5 14.1103 16.579 13.9697 16.7197C13.829 16.8603 13.75 17.0511 13.75 17.25V30.75C13.75 30.9489 13.829 31.1397 13.9697 31.2803C14.1103 31.421 14.3011 31.5 14.5 31.5H21.25C21.8467 31.5 22.419 31.7371 22.841 32.159C23.2629 32.581 23.5 33.1533 23.5 33.75C23.5 33.9489 23.579 34.1397 23.7197 34.2803C23.8603 34.421 24.0511 34.5 24.25 34.5C24.4489 34.5 24.6397 34.421 24.7803 34.2803C24.921 34.1397 25 33.9489 25 33.75C25 33.1533 25.2371 32.581 25.659 32.159C26.081 31.7371 26.6533 31.5 27.25 31.5H34C34.1989 31.5 34.3897 31.421 34.5303 31.2803C34.671 31.1397 34.75 30.9489 34.75 30.75V17.25C34.75 17.0511 34.671 16.8603 34.5303 16.7197C34.3897 16.579 34.1989 16.5 34 16.5ZM21.25 30H15.25V18H21.25C21.8467 18 22.419 18.2371 22.841 18.659C23.2629 19.081 23.5 19.6533 23.5 20.25V30.75C22.8515 30.262 22.0616 29.9987 21.25 30ZM33.25 30H27.25C26.4384 29.9987 25.6485 30.262 25 30.75V20.25C25 19.6533 25.2371 19.081 25.659 18.659C26.081 18.2371 26.6533 18 27.25 18H33.25V30Z" fill="#1C6DBE"/>
</svg>
