<svg width="49" height="48" viewBox="0 0 49 48" fill="none" xmlns="http://www.w3.org/2000/svg">
<path d="M0.5 24C0.5 10.7452 11.2452 0 24.5 0C37.7548 0 48.5 10.7452 48.5 24C48.5 37.2548 37.7548 48 24.5 48C11.2452 48 0.5 37.2548 0.5 24Z" fill="#D1E9FF"/>
<path d="M34.25 31.5C34.25 31.6989 34.171 31.8897 34.0303 32.0303C33.8897 32.171 33.6989 32.25 33.5 32.25H15.5C15.3011 32.25 15.1103 32.171 14.9697 32.0303C14.829 31.8897 14.75 31.6989 14.75 31.5V16.5C14.75 16.3011 14.829 16.1103 14.9697 15.9697C15.1103 15.829 15.3011 15.75 15.5 15.75C15.6989 15.75 15.8897 15.829 16.0303 15.9697C16.171 16.1103 16.25 16.3011 16.25 16.5V26.6897L20.9694 21.9694C21.039 21.8996 21.1217 21.8443 21.2128 21.8066C21.3038 21.7688 21.4014 21.7494 21.5 21.7494C21.5986 21.7494 21.6962 21.7688 21.7872 21.8066C21.8783 21.8443 21.961 21.8996 22.0306 21.9694L24.5 24.4397L29.4397 19.5H27.5C27.3011 19.5 27.1103 19.421 26.9697 19.2803C26.829 19.1397 26.75 18.9489 26.75 18.75C26.75 18.5511 26.829 18.3603 26.9697 18.2197C27.1103 18.079 27.3011 18 27.5 18H31.25C31.4489 18 31.6397 18.079 31.7803 18.2197C31.921 18.3603 32 18.5511 32 18.75V22.5C32 22.6989 31.921 22.8897 31.7803 23.0303C31.6397 23.171 31.4489 23.25 31.25 23.25C31.0511 23.25 30.8603 23.171 30.7197 23.0303C30.579 22.8897 30.5 22.6989 30.5 22.5V20.5603L25.0306 26.0306C24.961 26.1004 24.8783 26.1557 24.7872 26.1934C24.6962 26.2312 24.5986 26.2506 24.5 26.2506C24.4014 26.2506 24.3038 26.2312 24.2128 26.1934C24.1217 26.1557 24.039 26.1004 23.9694 26.0306L21.5 23.5603L16.25 28.8103V30.75H33.5C33.6989 30.75 33.8897 30.829 34.0303 30.9697C34.171 31.1103 34.25 31.3011 34.25 31.5Z" fill="#1C6DBE"/>
</svg>
