<svg width="49" height="48" viewBox="0 0 49 48" fill="none" xmlns="http://www.w3.org/2000/svg">
<rect x="0.75" width="48" height="48" rx="24" fill="#D1E9FF"/>
<path d="M33.735 16.4201C33.7128 16.0544 33.5575 15.7095 33.2984 15.4504C33.0394 15.1913 32.6945 15.036 32.3288 15.0138C31.1494 14.9435 28.1353 15.0513 25.6341 17.5516L25.1888 18.0026H19.7203C19.5226 18.0015 19.3266 18.0397 19.1438 18.115C18.9609 18.1903 18.7949 18.3012 18.6553 18.4413L15.4397 21.6588C15.2425 21.8559 15.1041 22.104 15.0401 22.3754C14.9761 22.6467 14.9889 22.9305 15.0772 23.195C15.1655 23.4594 15.3258 23.694 15.54 23.8724C15.7543 24.0509 16.014 24.166 16.29 24.2051L19.8966 24.7085L24.0413 28.8532L24.5447 32.4616C24.5834 32.7377 24.6986 32.9974 24.8772 33.2115C25.0558 33.4255 25.2907 33.5853 25.5553 33.6729C25.7095 33.7244 25.8709 33.7507 26.0335 33.7507C26.2302 33.7511 26.4252 33.7125 26.607 33.6372C26.7888 33.5619 26.9539 33.4514 27.0928 33.312L30.3103 30.0963C30.4504 29.9568 30.5613 29.7907 30.6367 29.6079C30.712 29.4251 30.7502 29.2291 30.7491 29.0313V23.5629L31.1963 23.1157C33.6975 20.6144 33.8053 17.6004 33.735 16.4201ZM19.7203 19.5026H23.6888L19.9828 23.2076L16.4991 22.7219L19.7203 19.5026ZM26.6963 18.6166C27.4169 17.8915 28.2841 17.3285 29.2397 16.9652C30.1953 16.602 31.2174 16.4468 32.2378 16.5101C32.3035 17.531 32.15 18.5542 31.7874 19.5108C31.4249 20.4674 30.8618 21.3354 30.136 22.0563L24.7491 27.4413L21.3103 24.0026L26.6963 18.6166ZM29.2491 29.0313L26.0306 32.2526L25.5441 28.7679L29.2491 25.0629V29.0313ZM22.2966 29.9219C21.8747 30.8463 20.4638 33.0026 16.4991 33.0026C16.3002 33.0026 16.1094 32.9236 15.9687 32.7829C15.8281 32.6423 15.7491 32.4515 15.7491 32.2526C15.7491 28.2879 17.9053 26.8769 18.8297 26.4541C18.9193 26.4133 19.0161 26.3904 19.1146 26.387C19.213 26.3835 19.3112 26.3995 19.4035 26.4339C19.4957 26.4684 19.5803 26.5207 19.6524 26.5879C19.7245 26.6551 19.7826 26.7358 19.8235 26.8254C19.8643 26.915 19.8871 27.0118 19.8906 27.1103C19.8941 27.2087 19.8781 27.3069 19.8436 27.3992C19.8092 27.4914 19.7569 27.576 19.6897 27.6481C19.6225 27.7201 19.5418 27.7783 19.4522 27.8191C18.8494 28.0938 17.5191 28.9779 17.2847 31.4669C19.7738 31.2326 20.6597 29.9023 20.9325 29.2994C20.9734 29.2098 21.0315 29.1291 21.1036 29.062C21.1756 28.9948 21.2602 28.9425 21.3525 28.908C21.4448 28.8735 21.5429 28.8576 21.6414 28.861C21.7398 28.8645 21.8366 28.8873 21.9263 28.9282C22.0159 28.9691 22.0966 29.0272 22.1638 29.0993C22.2309 29.1713 22.2832 29.2559 22.3177 29.3482C22.3522 29.4405 22.3681 29.5386 22.3647 29.6371C22.3612 29.7355 22.3384 29.8323 22.2975 29.9219H22.2966Z" fill="#1C6DBE"/>
</svg>
