<svg width="48" height="48" viewBox="0 0 48 48" fill="none" xmlns="http://www.w3.org/2000/svg">
<rect width="48" height="48" rx="24" fill="#D1E9FF"/>
<path d="M32.7985 19.7996C33.8392 21.9762 34.0368 24.4613 33.3531 26.7751C32.6693 29.0889 31.1527 31.0674 29.096 32.3288C27.0393 33.5901 24.5883 34.045 22.2159 33.6055C19.8436 33.1659 17.7182 31.8633 16.2498 29.9488C14.7815 28.0344 14.0743 25.6439 14.2649 23.2387C14.4554 20.8335 15.5301 18.5842 17.2815 16.9248C19.033 15.2654 21.337 14.3136 23.7489 14.2531C26.1609 14.1925 28.5098 15.0276 30.3422 16.5971L32.4675 14.4708C32.6083 14.3301 32.7991 14.251 32.9982 14.251C33.1972 14.251 33.3881 14.3301 33.5288 14.4708C33.6695 14.6115 33.7486 14.8024 33.7486 15.0014C33.7486 15.2005 33.6695 15.3913 33.5288 15.5321L24.5288 24.5321C24.3881 24.6728 24.1972 24.7518 23.9982 24.7518C23.7991 24.7518 23.6083 24.6728 23.4675 24.5321C23.3268 24.3913 23.2477 24.2005 23.2477 24.0014C23.2477 23.8024 23.3268 23.6115 23.4675 23.4708L26.0663 20.8721C25.362 20.4063 24.5211 20.1918 23.6798 20.2634C22.8384 20.335 22.0458 20.6884 21.4304 21.2665C20.8149 21.8446 20.4125 22.6134 20.2884 23.4487C20.1643 24.2839 20.3257 25.1365 20.7465 25.8686C21.1672 26.6007 21.8228 27.1693 22.607 27.4825C23.3911 27.7956 24.258 27.8349 25.0674 27.5941C25.8767 27.3532 26.581 26.8463 27.0663 26.1553C27.5517 25.4643 27.7896 24.6298 27.7416 23.7867C27.7361 23.6882 27.75 23.5896 27.7825 23.4965C27.8151 23.4034 27.8657 23.3176 27.9314 23.2441C27.9972 23.1705 28.0767 23.1106 28.1656 23.0678C28.2545 23.025 28.3509 23.0001 28.4494 22.9946C28.6483 22.9834 28.8435 23.0517 28.9921 23.1844C29.0657 23.2501 29.1256 23.3297 29.1684 23.4186C29.2112 23.5074 29.2361 23.6039 29.2416 23.7024C29.31 24.8956 28.9692 26.0764 28.2755 27.0497C27.5818 28.023 26.5768 28.7305 25.4266 29.0552C24.2764 29.38 23.0498 29.3025 21.9495 28.8356C20.8493 28.3688 19.9413 27.5405 19.3755 26.4877C18.8098 25.4349 18.6203 24.2205 18.8382 23.0454C19.0562 21.8702 19.6685 20.8046 20.5742 20.0247C21.4798 19.2447 22.6244 18.7971 23.8189 18.7558C25.0134 18.7146 26.1862 19.0821 27.1435 19.7977L29.2763 17.6649C27.7133 16.3672 25.7259 15.6927 23.696 15.771C21.666 15.8493 19.7365 16.6748 18.2781 18.0891C16.8197 19.5033 15.9352 21.4065 15.7945 23.4331C15.6538 25.4597 16.2669 27.4668 17.5159 29.069C18.7649 30.6712 20.5618 31.7554 22.5615 32.1134C24.5612 32.4714 26.6227 32.078 28.35 31.0088C30.0773 29.9395 31.3486 28.2697 31.9198 26.3202C32.4911 24.3706 32.3218 22.2788 31.4447 20.4464C31.3589 20.2669 31.348 20.0607 31.4143 19.8731C31.4805 19.6855 31.6186 19.5319 31.7982 19.4461C31.9777 19.3603 32.1839 19.3494 32.3715 19.4157C32.5591 19.4819 32.7127 19.62 32.7985 19.7996Z" fill="#1C6DBE"/>
</svg>
