<svg width="39" height="38" viewBox="0 0 39 38" fill="none" xmlns="http://www.w3.org/2000/svg">
<rect x="0.975586" width="37.5921" height="37.5921" rx="18.7961" fill="#C7E2FE"/>
<path d="M12.2516 22.0321C11.1668 22.349 10.3743 23.351 10.3743 24.5383C10.3743 25.98 11.543 27.1486 12.9847 27.1486C13.8385 27.1486 14.5966 26.7387 15.0728 26.105M12.2516 22.0321C12.4842 21.9642 12.7302 21.9278 12.9847 21.9278C14.4264 21.9278 15.5951 23.0966 15.5951 24.5383C15.5951 25.1261 15.4008 25.6686 15.0728 26.105M12.2516 22.0321C12.0491 21.3364 11.9405 20.6007 11.9405 19.8395C11.9405 16.4293 14.1203 13.5282 17.1625 12.4535M15.0728 26.105C16.3817 27.0881 18.0087 27.6708 19.7718 27.6708C21.5348 27.6708 23.1618 27.0881 24.4707 26.105M17.1625 12.4535C17.1617 12.479 17.1613 12.5046 17.1613 12.5303C17.1613 13.972 18.3301 15.1408 19.7718 15.1408C21.2134 15.1408 22.3822 13.972 22.3822 12.5303C22.3822 12.5046 22.3818 12.479 22.3811 12.4535M17.1625 12.4535C17.2031 11.0473 18.3558 9.91992 19.7718 9.91992C21.1877 9.91992 22.3404 11.0473 22.3811 12.4535M24.4707 26.105C24.1428 25.6686 23.9484 25.1261 23.9484 24.5383C23.9484 23.0966 25.1171 21.9278 26.5588 21.9278C26.8133 21.9278 27.0594 21.9642 27.2919 22.0321M24.4707 26.105C24.9469 26.7387 25.705 27.1486 26.5588 27.1486C28.0006 27.1486 29.1693 25.98 29.1693 24.5383C29.1693 23.351 28.3768 22.349 27.2919 22.0321M22.3811 12.4535C25.4233 13.5282 27.603 16.4293 27.603 19.8395C27.603 20.6007 27.4944 21.3364 27.2919 22.0321" stroke="#343330" stroke-width="2" stroke-linecap="round" stroke-linejoin="round"/>
</svg>
