<svg width="39" height="39" viewBox="0 0 39 39" fill="none" xmlns="http://www.w3.org/2000/svg">
<rect x="0.975586" y="0.697266" width="37.5921" height="37.5921" rx="18.7961" fill="#C7E2FE"/>
<path d="M10.7717 13.4922C10.7717 12.9399 11.2194 12.4922 11.7717 12.4922H27.7717C28.324 12.4922 28.7717 12.9399 28.7717 13.4922C28.7717 14.0445 28.324 14.4922 27.7717 14.4922H11.7717C11.2194 14.4922 10.7717 14.0445 10.7717 13.4922Z" fill="#343330"/>
<path d="M15.7717 17.4922C15.7717 16.9399 16.2194 16.4922 16.7717 16.4922H27.7717C28.324 16.4922 28.7717 16.9399 28.7717 17.4922C28.7717 18.0445 28.324 18.4922 27.7717 18.4922H16.7717C16.2194 18.4922 15.7717 18.0445 15.7717 17.4922Z" fill="#343330"/>
<path d="M15.7717 21.4922C15.7717 20.9399 16.2194 20.4922 16.7717 20.4922H27.7717C28.324 20.4922 28.7717 20.9399 28.7717 21.4922C28.7717 22.0445 28.324 22.4922 27.7717 22.4922H16.7717C16.2194 22.4922 15.7717 22.0445 15.7717 21.4922Z" fill="#343330"/>
<path d="M27.7717 26.4922H11.7717C11.2194 26.4922 10.7717 26.0445 10.7717 25.4922C10.7717 24.9399 11.2194 24.4922 11.7717 24.4922H27.7717C28.324 24.4922 28.7717 24.9399 28.7717 25.4922C28.7717 26.0445 28.324 26.4922 27.7717 26.4922Z" fill="#343330"/>
<path d="M11.0646 18.6993C10.6741 18.3088 10.6741 17.6756 11.0646 17.2851C11.4551 16.8946 12.0883 16.8946 12.4788 17.2851L13.9788 18.7851C14.3694 19.1756 14.3694 19.8088 13.9788 20.1993L12.4788 21.6993C12.0883 22.0898 11.4551 22.0898 11.0646 21.6993C10.6741 21.3088 10.6741 20.6756 11.0646 20.2851L11.8575 19.4922L11.0646 18.6993Z" fill="#343330"/>
</svg>
