<svg width="38" height="38" viewBox="0 0 38 38" fill="none" xmlns="http://www.w3.org/2000/svg">
<rect width="37.5964" height="37.5964" rx="18.7982" fill="#C7E2FE"/>
<path d="M16.2381 24.9801C15.7965 25.9455 14.323 28.1974 10.1825 28.1974C9.97476 28.1974 9.77554 28.1148 9.62865 27.968C9.48176 27.8211 9.39924 27.6218 9.39924 27.4141C9.39924 23.2736 11.6511 21.8001 12.6165 21.3585C12.7101 21.3159 12.8112 21.292 12.914 21.2884C13.0168 21.2848 13.1193 21.3015 13.2157 21.3375C13.312 21.3735 13.4004 21.4281 13.4756 21.4982C13.5509 21.5684 13.6116 21.6527 13.6543 21.7463C13.697 21.8399 13.7208 21.9409 13.7244 22.0438C13.728 22.1466 13.7114 22.2491 13.6754 22.3455C13.6394 22.4418 13.5847 22.5302 13.5146 22.6054C13.4445 22.6807 13.3602 22.7414 13.2666 22.7841C12.637 23.0709 11.2477 23.9942 11.003 26.5936C13.6024 26.3489 14.5276 24.9596 14.8125 24.33C14.8552 24.2364 14.9159 24.1521 14.9912 24.082C15.0664 24.0119 15.1548 23.9572 15.2511 23.9212C15.3475 23.8852 15.45 23.8686 15.5528 23.8722C15.6557 23.8758 15.7567 23.8996 15.8503 23.9423C15.9439 23.985 16.0282 24.0457 16.0984 24.121C16.1685 24.1962 16.2231 24.2846 16.2591 24.3809C16.2951 24.4773 16.3118 24.5798 16.3082 24.6826C16.3046 24.7854 16.2807 24.8865 16.2381 24.9801ZM28.1827 10.8815C28.1595 10.4996 27.9974 10.1394 27.7268 9.86881C27.4563 9.59826 27.0961 9.43608 26.7141 9.41287C25.4825 9.33944 22.3347 9.45204 19.7236 12.0632L14.882 16.9087C14.8093 16.9815 14.723 17.0393 14.6279 17.0788C14.5329 17.1182 14.431 17.1386 14.3281 17.1387C14.1202 17.1389 13.9208 17.0565 13.7737 16.9096C13.6266 16.7628 13.5439 16.5635 13.5437 16.3557C13.5435 16.1478 13.6259 15.9484 13.7728 15.8013L16.3732 13.1999C16.4276 13.1452 16.4646 13.0755 16.4796 12.9998C16.4946 12.924 16.4868 12.8455 16.4573 12.7742C16.4278 12.7028 16.3779 12.6418 16.3138 12.5987C16.2497 12.5557 16.1743 12.5325 16.0971 12.5322H13.5456C13.3393 12.5311 13.1348 12.5711 12.944 12.6497C12.7532 12.7284 12.58 12.8442 12.4344 12.9904L9.07614 16.3506C8.87019 16.5564 8.72568 16.8155 8.65881 17.0989C8.59195 17.3823 8.60538 17.6787 8.69761 17.9549C8.78983 18.231 8.9572 18.476 9.18092 18.6624C9.40464 18.8487 9.67587 18.969 9.96416 19.0097L13.7307 19.5355L18.0591 23.864L18.5849 27.6324C18.6253 27.9207 18.7456 28.192 18.9321 28.4155C19.1186 28.6391 19.3639 28.806 19.6403 28.8974C19.8013 28.9512 19.9699 28.9786 20.1397 28.9787C20.3452 28.979 20.5488 28.9388 20.7386 28.8601C20.9285 28.7815 21.101 28.666 21.246 28.5205L24.6062 25.1622C24.752 25.0163 24.8675 24.843 24.9461 24.6523C25.0248 24.4616 25.065 24.2573 25.0644 24.051V21.4995C25.0643 21.4221 25.0412 21.3465 24.9981 21.2822C24.955 21.2178 24.8938 21.1678 24.8222 21.1382C24.7507 21.1087 24.672 21.101 24.596 21.1162C24.5201 21.1313 24.4504 21.1687 24.3957 21.2234L21.7943 23.8238C21.7182 23.9 21.6272 23.9597 21.5271 23.9991C21.4269 24.0385 21.3197 24.0569 21.2121 24.053C21.1045 24.0492 20.9989 24.0232 20.9018 23.9767C20.8047 23.9302 20.7182 23.8641 20.6478 23.7827C20.5193 23.6273 20.454 23.4292 20.4649 23.2279C20.4758 23.0265 20.5621 22.8366 20.7065 22.696L25.5304 17.8721C28.1436 15.2599 28.2562 12.1122 28.1827 10.8795V10.8815Z" fill="#343330"/>
</svg>
