<svg width="805" height="519" viewBox="0 0 805 519" fill="none" xmlns="http://www.w3.org/2000/svg">
<path d="M0 518.5L197 409V2.04019e-05L387.819 0H804.5V518.5H0Z" fill="#FFE9B5"/>
<path d="M519.031 452.665L484.834 451.957L481.829 427.301L470.32 332.769L464.956 417.48L437.07 419.391L438.489 266.065L496.321 269.238L515.891 427.301L519.031 452.665Z" fill="#C9835B"/>
<path d="M498.621 264.805C498.621 264.904 502.73 298.857 502.73 298.857L492.964 299.077C490.25 299.14 487.611 298.23 485.581 296.531C483.551 294.831 482.28 292.469 482.026 289.921L479.637 266.058L498.621 264.805Z" fill="#4B764A"/>
<path d="M504.321 274.187C500.564 274.187 499.347 270.229 500.174 266.915C501 263.601 507.318 265.499 507.318 265.499L504.321 274.187Z" fill="black"/>
<path d="M467.775 189.174C470.412 197.515 477.89 195.448 482.825 193.09C486.063 191.539 476.8 178.017 467.274 171.063L467.775 189.174Z" fill="black"/>
<path d="M523.547 271.121C514.532 273.054 504.323 274.18 504.323 274.18C504.894 266.738 504.999 253.603 501.874 250.176L507.2 249.822L500.777 238.832L480.193 239.172L451.142 239.646L426.268 240.05C426.268 240.05 431.106 214.119 432.278 208.093C433.45 202.067 438.866 195.347 447.108 194.016C450.173 193.506 452.659 193.209 454.567 193.024C455.552 192.939 456.385 192.876 457.062 192.84C458.113 192.791 458.812 192.784 459.15 192.784H459.39L471.703 191.445C472.59 191.544 473.454 191.637 474.295 191.714L477.218 192.005C494.233 193.64 500.078 193.421 506.344 199.737C513.233 206.719 515.178 212.483 519.175 221.313C523.172 230.143 529.963 244.943 532.111 251.294C534.26 257.646 532.592 269.195 523.547 271.121Z" fill="#4B764A"/>
<path d="M480.47 241.444C480.47 241.444 451.103 242.33 450.901 242.11C450.901 242.11 450.968 241.189 451.141 239.653C451.176 239.346 451.214 239.013 451.254 238.654L453.432 238.86L459.179 192.79H459.42L471.733 191.452L473.235 191.608L477.27 236.629C477.27 236.629 478.825 236.551 479.884 236.523L480.214 239.171L480.47 241.444Z" fill="#B7AD7A"/>
<path d="M481.634 233.506H481.589C481.552 233.499 481.518 233.485 481.488 233.464C481.457 233.444 481.432 233.418 481.412 233.389C481.393 233.359 481.379 233.326 481.374 233.291C481.368 233.257 481.369 233.222 481.378 233.188C482.655 227.99 485.007 218.317 485.352 216.901L479.463 213.056C479.425 213.032 479.395 213 479.374 212.962C479.353 212.925 479.342 212.883 479.342 212.84C479.342 212.798 479.353 212.756 479.374 212.718C479.395 212.681 479.425 212.648 479.463 212.624L484.811 209.013L478.734 195.878C478.716 195.815 478.722 195.749 478.752 195.69C478.781 195.632 478.832 195.585 478.895 195.559C478.958 195.534 479.029 195.53 479.095 195.549C479.16 195.569 479.216 195.61 479.252 195.665L485.42 208.999C485.445 209.054 485.449 209.116 485.431 209.175C485.414 209.233 485.375 209.283 485.322 209.317L480.109 212.858L485.811 216.597C485.857 216.627 485.892 216.669 485.912 216.718C485.932 216.768 485.936 216.822 485.923 216.873C485.923 216.873 483.279 227.686 481.904 233.308C481.889 233.365 481.854 233.415 481.805 233.451C481.756 233.487 481.696 233.506 481.634 233.506Z" fill="black"/>
<path d="M449.902 234.214C449.837 234.214 449.774 234.193 449.723 234.154C449.672 234.115 449.637 234.062 449.624 234.002L446.093 217.496C446.083 217.447 446.088 217.397 446.106 217.351C446.125 217.305 446.157 217.264 446.198 217.234L451.314 213.58L446.183 209.19C446.138 209.151 446.107 209.1 446.095 209.044C446.083 208.988 446.09 208.93 446.115 208.878L452.937 195.644C452.977 195.594 453.034 195.558 453.099 195.544C453.163 195.529 453.231 195.536 453.291 195.564C453.351 195.592 453.398 195.638 453.426 195.695C453.453 195.753 453.458 195.817 453.44 195.877L446.679 208.935L451.938 213.403C451.969 213.428 451.995 213.46 452.012 213.495C452.029 213.531 452.039 213.569 452.039 213.608C452.039 213.647 452.029 213.686 452.012 213.721C451.995 213.757 451.969 213.788 451.938 213.814L446.679 217.56L450.172 233.903C450.186 233.971 450.17 234.042 450.13 234.1C450.089 234.158 450.026 234.199 449.954 234.214H449.902Z" fill="black"/>
<path d="M471.734 191.466C471.336 192.089 464.266 204.347 464.266 204.347C463.184 203.158 460.601 193.137 460.601 193.137C460.601 192.818 460.278 190.786 459.94 188.98C459.654 187.437 459.384 186.063 459.384 186.063C454.298 186.403 450.744 183.684 450.865 173.94C450.917 169.38 451.668 165.585 453.118 162.866C454.794 159.771 457.423 158.05 461.029 158.15C467.79 158.334 470.713 165.372 470.48 172.22C471.171 173.041 470.938 175.76 469.082 176.511C469.157 176.504 470.089 186.686 471.734 191.466Z" fill="#FF9C8B"/>
<path d="M453.453 172.293C453.527 171.848 453.367 171.456 453.097 171.416C452.826 171.376 452.547 171.703 452.473 172.148C452.399 172.592 452.558 172.985 452.829 173.025C453.099 173.065 453.379 172.737 453.453 172.293Z" fill="black"/>
<path d="M459.781 172.149C459.8 171.699 459.594 171.326 459.32 171.316C459.046 171.306 458.809 171.662 458.789 172.111C458.77 172.561 458.977 172.934 459.251 172.944C459.525 172.955 459.762 172.599 459.781 172.149Z" fill="black"/>
<path d="M470.555 172.213C469.052 170.627 467.662 171.455 467.662 171.455C466.16 170.4 464.079 167.674 464.297 167.44C467.302 164.19 466.272 165.189 466.272 165.189C461.629 167.243 455.89 164.261 453.193 162.859C454.869 159.764 457.498 158.044 461.104 158.143C467.888 158.327 470.788 165.365 470.555 172.213Z" fill="black"/>
<path d="M461.758 170.514C461.689 170.513 461.624 170.488 461.573 170.445C461.522 170.403 461.489 170.344 461.48 170.28C461.427 170.128 461.343 169.986 461.232 169.865C461.121 169.743 460.986 169.644 460.833 169.572C460.526 169.395 460.179 169.285 459.82 169.252C459.461 169.219 459.099 169.263 458.76 169.381C458.724 169.398 458.684 169.409 458.643 169.41C458.602 169.412 458.562 169.406 458.524 169.392C458.486 169.378 458.452 169.356 458.423 169.328C458.395 169.3 458.373 169.267 458.36 169.231C458.346 169.195 458.341 169.156 458.345 169.118C458.348 169.079 458.361 169.042 458.381 169.009C458.401 168.975 458.428 168.946 458.461 168.924C458.494 168.901 458.532 168.886 458.572 168.878C458.991 168.735 459.44 168.683 459.883 168.726C460.327 168.768 460.754 168.905 461.134 169.126C461.361 169.236 461.56 169.39 461.719 169.578C461.878 169.766 461.994 169.984 462.058 170.216C462.067 170.287 462.045 170.357 461.999 170.413C461.952 170.469 461.885 170.505 461.81 170.514H461.758Z" fill="black"/>
<path d="M467.893 174.245C467.829 174.249 467.766 174.232 467.713 174.196C467.661 174.161 467.623 174.11 467.607 174.052C467.59 173.993 467.595 173.931 467.621 173.876C467.647 173.821 467.693 173.776 467.75 173.749C468.306 173.444 469.118 172.899 469.125 172.892C469.186 172.851 469.262 172.834 469.336 172.845C469.41 172.857 469.476 172.895 469.52 172.952C469.563 173.01 469.581 173.081 469.569 173.151C469.557 173.22 469.516 173.283 469.456 173.324C469.456 173.324 468.614 173.891 468.036 174.209C467.993 174.233 467.943 174.245 467.893 174.245Z" fill="black"/>
<path d="M455.695 176.334H455.635C454.799 176.18 453.984 175.942 453.201 175.626C453.098 175.569 453.009 175.491 452.941 175.398C452.874 175.305 452.829 175.199 452.81 175.088C452.72 174.549 453.164 173.77 454.313 172.489C454.636 171.235 454.471 170.138 453.885 169.656C453.725 169.521 453.529 169.43 453.318 169.395C453.106 169.36 452.889 169.382 452.69 169.458C452.619 169.48 452.543 169.474 452.476 169.442C452.41 169.41 452.36 169.355 452.337 169.288C452.314 169.222 452.32 169.149 452.354 169.087C452.388 169.024 452.447 168.977 452.517 168.955C452.812 168.849 453.132 168.823 453.441 168.879C453.75 168.936 454.037 169.072 454.268 169.274C455.019 169.94 455.237 171.221 454.839 172.715C454.828 172.755 454.807 172.791 454.779 172.822C453.539 174.238 453.329 174.797 453.374 175.045C453.381 175.081 453.396 175.116 453.42 175.145C453.443 175.175 453.474 175.199 453.509 175.215C454.236 175.5 454.991 175.716 455.763 175.859C455.837 175.867 455.904 175.902 455.951 175.956C455.997 176.011 456.019 176.08 456.011 176.15C456.003 176.219 455.966 176.283 455.908 176.327C455.85 176.371 455.776 176.391 455.703 176.383L455.695 176.334Z" fill="black"/>
<path d="M456.537 178.869C456.47 178.859 456.409 178.827 456.366 178.778C456.322 178.729 456.298 178.667 456.298 178.604C456.298 178.54 456.322 178.478 456.366 178.429C456.409 178.381 456.47 178.348 456.537 178.338C458.152 178.338 458.513 177.779 458.558 176.922C458.563 176.852 458.597 176.788 458.651 176.74C458.706 176.693 458.777 176.667 458.851 176.667C458.888 176.668 458.925 176.676 458.958 176.69C458.992 176.705 459.023 176.725 459.048 176.751C459.073 176.777 459.093 176.807 459.105 176.84C459.118 176.873 459.123 176.908 459.121 176.943C459.054 178.671 457.604 178.869 456.537 178.869Z" fill="black"/>
<path d="M464.717 183.663C464.509 184.879 463.95 186.018 463.102 186.956C462.255 187.893 461.15 188.594 459.909 188.981C459.662 187.628 459.421 186.064 459.421 186.064C461.408 185.8 463.259 184.961 464.717 183.663Z" fill="black"/>
<path d="M331.425 154.688C216.987 154.688 244.565 249.184 240.974 452.162H421.875C418.284 249.17 445.863 154.688 331.425 154.688Z" fill="white"/>
<path d="M331.432 452.516C331.333 452.516 331.237 452.479 331.167 452.412C331.096 452.346 331.057 452.256 331.057 452.162V154.687C331.057 154.593 331.096 154.503 331.167 154.437C331.237 154.37 331.333 154.333 331.432 154.333C331.532 154.333 331.627 154.37 331.698 154.437C331.768 154.503 331.808 154.593 331.808 154.687V452.162C331.808 452.256 331.768 452.346 331.698 452.412C331.627 452.479 331.532 452.516 331.432 452.516Z" fill="#F6EEE8"/>
<path d="M331.432 224.832H245.106C245.006 224.832 244.911 224.795 244.84 224.728C244.77 224.662 244.73 224.572 244.73 224.478C244.73 224.384 244.77 224.294 244.84 224.228C244.911 224.161 245.006 224.124 245.106 224.124H331.432C331.532 224.124 331.627 224.161 331.698 224.228C331.768 224.294 331.808 224.384 331.808 224.478C331.808 224.572 331.768 224.662 331.698 224.728C331.627 224.795 331.532 224.832 331.432 224.832Z" fill="#F6EEE8"/>
<path d="M331.428 335.466H240.677C240.577 335.466 240.482 335.429 240.411 335.362C240.341 335.296 240.301 335.206 240.301 335.112C240.301 335.018 240.341 334.928 240.411 334.862C240.482 334.795 240.577 334.758 240.677 334.758H331.428C331.528 334.758 331.623 334.795 331.693 334.862C331.764 334.928 331.804 335.018 331.804 335.112C331.804 335.206 331.764 335.296 331.693 335.362C331.623 335.429 331.528 335.466 331.428 335.466Z" fill="#F6EEE8"/>
<path d="M417.736 224.832H331.432C331.333 224.832 331.237 224.795 331.167 224.728C331.096 224.662 331.057 224.572 331.057 224.478C331.057 224.384 331.096 224.294 331.167 224.228C331.237 224.161 331.333 224.124 331.432 224.124H417.736C417.835 224.124 417.931 224.161 418.001 224.228C418.072 224.294 418.111 224.384 418.111 224.478C418.111 224.572 418.072 224.662 418.001 224.728C417.931 224.795 417.835 224.832 417.736 224.832Z" fill="#F6EEE8"/>
<path d="M422.176 335.466H331.432C331.333 335.466 331.237 335.429 331.167 335.362C331.096 335.296 331.057 335.206 331.057 335.112C331.057 335.018 331.096 334.928 331.167 334.862C331.237 334.795 331.333 334.758 331.432 334.758H422.183C422.283 334.758 422.378 334.795 422.449 334.862C422.519 334.928 422.559 335.018 422.559 335.112C422.559 335.206 422.519 335.296 422.449 335.362C422.378 335.429 422.283 335.466 422.183 335.466H422.176Z" fill="#F6EEE8"/>
<path d="M435.357 265.513V299.084H441.863C443.756 299.084 445.582 298.418 446.981 297.216C448.381 296.013 449.253 294.361 449.428 292.584L452.095 265.513H435.357Z" fill="#4B764A"/>
<path d="M519.034 452.665L484.837 451.957L483.89 444.203L483.755 443.063L481.832 427.301H515.893L517.847 443.063L518.598 449.16L519.034 452.665Z" fill="#F88D7A"/>
<path d="M519.033 452.665L484.836 451.957L483.889 444.203L518.597 449.16L519.033 452.665Z" fill="black"/>
<path d="M501.558 275.596L474.077 275.695L399.703 275.965L399.538 235.772L409.47 235.716L420.378 235.673H429.145L440.053 235.631H448.828L459.736 235.595H468.428H473.889H479.336L501.37 235.518L501.43 250.331C498.032 250.512 494.626 250.512 491.228 250.331C487.976 250.133 484.714 250.133 481.462 250.331C479.381 250.508 478.457 250.855 478.802 252.13C479.148 253.404 484.955 253.652 486.413 254.537C487.87 255.422 489.095 256.768 486.202 258.517C484.309 259.664 479.358 260.974 473.972 261.717C473.093 261.845 472.207 261.951 471.32 262.043C468.315 262.348 467.707 264.536 472.357 264.932C470.944 265.64 471.29 267.63 474.002 267.991C474.167 267.991 474.34 268.034 474.52 268.041C474.289 268.151 474.106 268.334 474.002 268.558C473.931 268.716 473.895 268.885 473.895 269.057C473.895 269.228 473.931 269.398 474.002 269.556C474.303 270.264 475.287 271.015 477.135 271.036C476.436 271.567 478.104 273.16 481.109 272.948C486.303 272.39 491.399 271.2 496.269 269.408C497.451 269.109 498.661 268.919 499.883 268.841C499.803 269.663 499.905 270.491 500.183 271.274C500.461 272.057 500.909 272.776 501.498 273.387L501.558 275.596Z" fill="#E4D0C0"/>
<path d="M417.933 230.685L411.923 230.707C410.57 230.712 409.478 231.749 409.483 233.024L409.503 237.896C409.508 239.171 410.609 240.2 411.962 240.196L417.972 240.174C419.324 240.169 420.416 239.131 420.411 237.856L420.391 232.985C420.386 231.71 419.285 230.68 417.933 230.685Z" fill="#E4D0C0"/>
<path d="M437.608 230.614L431.598 230.636C430.245 230.641 429.153 231.678 429.158 232.953L429.178 237.825C429.183 239.1 430.284 240.129 431.636 240.124L437.646 240.102C438.999 240.098 440.091 239.06 440.086 237.785L440.066 232.913C440.061 231.639 438.96 230.609 437.608 230.614Z" fill="#E4D0C0"/>
<path d="M457.283 230.544L451.273 230.565C449.92 230.57 448.828 231.608 448.833 232.883L448.853 237.754C448.858 239.029 449.959 240.059 451.311 240.054L457.321 240.032C458.674 240.027 459.766 238.99 459.761 237.715L459.741 232.843C459.736 231.568 458.635 230.539 457.283 230.544Z" fill="#E4D0C0"/>
<path d="M476.887 230.472L470.877 230.494C469.524 230.499 468.432 231.536 468.437 232.811L468.457 237.683C468.462 238.958 469.563 239.988 470.915 239.983L476.925 239.961C478.278 239.956 479.37 238.918 479.365 237.644L479.345 232.772C479.34 231.497 478.239 230.467 476.887 230.472Z" fill="#E4D0C0"/>
<path d="M399.531 236.034C399.464 236.024 399.403 235.992 399.359 235.943C399.316 235.894 399.292 235.833 399.292 235.769C399.292 235.705 399.316 235.643 399.359 235.595C399.403 235.546 399.464 235.514 399.531 235.503L501.393 235.128C501.46 235.138 501.52 235.171 501.564 235.219C501.608 235.268 501.632 235.33 501.632 235.393C501.632 235.457 501.608 235.519 501.564 235.568C501.52 235.616 501.46 235.649 501.393 235.659L399.531 236.034Z" fill="#F6EEE8"/>
<path d="M474.02 275.688C473.946 275.686 473.877 275.658 473.825 275.609C473.773 275.561 473.744 275.495 473.742 275.426L473.636 235.496C473.636 235.426 473.666 235.359 473.717 235.308C473.769 235.258 473.84 235.229 473.914 235.227L501.395 235.128C501.462 235.138 501.523 235.171 501.567 235.219C501.61 235.268 501.635 235.33 501.635 235.393C501.635 235.457 501.61 235.519 501.567 235.568C501.523 235.616 501.462 235.649 501.395 235.659L474.192 235.758L474.298 275.412C474.298 275.482 474.269 275.55 474.217 275.6C474.165 275.65 474.094 275.679 474.02 275.681V275.688Z" fill="#F6EEE8"/>
<path d="M396.706 406.942H390.696C389.343 406.942 388.247 407.976 388.247 409.251V414.123C388.247 415.397 389.343 416.431 390.696 416.431H396.706C398.058 416.431 399.155 415.397 399.155 414.123V409.251C399.155 407.976 398.058 406.942 396.706 406.942Z" fill="#E4D0C0"/>
<path d="M416.381 406.942H410.371C409.018 406.942 407.922 407.976 407.922 409.251V414.123C407.922 415.397 409.018 416.431 410.371 416.431H416.381C417.733 416.431 418.83 415.397 418.83 414.123V409.251C418.83 407.976 417.733 406.942 416.381 406.942Z" fill="#E4D0C0"/>
<path d="M436.056 406.942H430.046C428.693 406.942 427.597 407.976 427.597 409.251V414.123C427.597 415.397 428.693 416.431 430.046 416.431H436.056C437.408 416.431 438.505 415.397 438.505 414.123V409.251C438.505 407.976 437.408 406.942 436.056 406.942Z" fill="#E4D0C0"/>
<path d="M480.138 411.963H378.276V452.162H480.138V411.963Z" fill="#E4D0C0"/>
<path d="M480.146 412.225H378.276C378.21 412.215 378.149 412.183 378.105 412.134C378.061 412.085 378.037 412.024 378.037 411.96C378.037 411.896 378.061 411.834 378.105 411.786C378.149 411.737 378.21 411.705 378.276 411.694H480.146C480.221 411.694 480.292 411.722 480.345 411.772C480.398 411.822 480.428 411.889 480.428 411.96C480.428 412.03 480.398 412.098 480.345 412.148C480.292 412.197 480.221 412.225 480.146 412.225Z" fill="#F6EEE8"/>
<path d="M480.149 411.963H452.668V452.162H480.149V411.963Z" fill="#E4D0C0"/>
<path d="M452.668 452.396C452.595 452.394 452.525 452.366 452.473 452.317C452.422 452.268 452.392 452.203 452.39 452.134V411.963C452.401 411.9 452.435 411.843 452.487 411.801C452.538 411.76 452.604 411.737 452.671 411.737C452.739 411.737 452.804 411.76 452.856 411.801C452.907 411.843 452.942 411.9 452.952 411.963V452.162C452.943 452.227 452.909 452.287 452.857 452.33C452.804 452.373 452.737 452.396 452.668 452.396Z" fill="#F6EEE8"/>
<path d="M205.129 452.155C205.129 452.155 216.653 447.574 215.15 426.33C214.719 420.509 213.211 414.803 210.696 409.47C210.29 408.599 209.877 407.764 209.448 406.971C208.535 405.272 207.532 403.618 206.443 402.014C204.912 399.704 203.152 397.537 201.185 395.542H174.605C172.885 397.279 171.332 399.155 169.963 401.15C168.306 403.489 166.842 405.944 165.583 408.493C163.569 412.547 162.127 416.832 161.293 421.239C160.979 422.919 160.76 424.614 160.64 426.316C159.137 447.559 170.661 452.141 170.661 452.141L205.129 452.155Z" fill="white"/>
<path d="M183.449 411.113C177.37 411.199 171.311 410.419 165.479 408.798C165.38 408.769 165.296 408.705 165.247 408.619C165.197 408.533 165.186 408.431 165.216 408.337C165.246 408.243 165.314 408.165 165.406 408.118C165.498 408.072 165.605 408.061 165.705 408.09C171.249 409.754 178.123 410.532 185.59 410.348C187.093 410.348 188.595 410.235 190.173 410.115C196.68 409.603 203.107 408.415 209.337 406.574C209.437 406.546 209.544 406.556 209.636 406.603C209.727 406.649 209.796 406.728 209.825 406.822C209.855 406.916 209.844 407.017 209.795 407.103C209.746 407.19 209.662 407.254 209.563 407.282C203.277 409.129 196.795 410.316 190.233 410.823C188.67 410.943 187.115 411.021 185.605 411.056C184.879 411.094 184.16 411.113 183.449 411.113Z" fill="#F6EEE8"/>
<path d="M163.812 421.636C162.971 421.636 162.124 421.636 161.273 421.636C161.223 421.635 161.175 421.625 161.13 421.606C161.084 421.587 161.044 421.56 161.009 421.527C160.975 421.493 160.948 421.454 160.93 421.41C160.912 421.367 160.904 421.321 160.905 421.274C160.902 421.227 160.911 421.18 160.929 421.136C160.948 421.092 160.976 421.052 161.013 421.019C161.049 420.986 161.092 420.961 161.14 420.945C161.187 420.929 161.238 420.923 161.288 420.927C169.417 421.133 177.544 420.419 185.493 418.803C187.086 418.477 188.633 418.095 190.076 417.741C197.971 415.702 205.018 412.784 210.457 409.244C210.539 409.196 210.637 409.179 210.731 409.198C210.826 409.216 210.909 409.268 210.964 409.342C211.019 409.417 211.041 409.508 211.026 409.598C211.012 409.688 210.961 409.769 210.885 409.824C205.379 413.4 198.249 416.381 190.279 418.442C188.821 418.824 187.274 419.15 185.651 419.518C178.473 420.963 171.151 421.673 163.812 421.636Z" fill="#F6EEE8"/>
<path d="M217.638 364.35C219.141 365.766 227.314 360.944 223.874 358.154C220.433 355.364 215.647 362.538 217.638 364.35Z" fill="#4B764A"/>
<path d="M215.053 368.669C216.653 366.545 215.654 359.676 211.928 361.333C207.818 363.175 213.453 370.808 215.053 368.669Z" fill="#4B764A"/>
<path d="M209.109 376.629C211.258 374.144 208.523 367.084 205.706 367.742C201.304 368.79 207.179 378.867 209.109 376.629Z" fill="#4B764A"/>
<path d="M182.549 349.621C183.059 348.098 177.057 341.747 175.149 343.538C171.603 346.888 180.513 355.633 182.549 349.621Z" fill="#4B764A"/>
<path d="M214.962 368.839C216.202 366.071 221.491 363.472 222.971 366.97C224.496 370.574 213.911 371.176 214.962 368.839Z" fill="#4B764A"/>
<path d="M209.989 375.665C211.296 373.35 219.462 372.38 218.252 375.85C217.313 378.583 208.035 379.135 209.989 375.665Z" fill="#4B764A"/>
<path d="M205.128 381.649C206.368 379.298 215.728 379.525 214.459 382.98C212.896 387.172 203.693 384.34 205.128 381.649Z" fill="#4B764A"/>
<path d="M201.481 386.662C203.524 384.885 210.751 389.042 208.242 391.839C205.237 395.237 199.122 388.666 201.481 386.662Z" fill="#4B764A"/>
<path d="M197.97 394.076C199.254 391.102 209.719 394.629 207.383 397.971C204.791 401.681 196.768 396.845 197.97 394.076Z" fill="#4B764A"/>
<path d="M181.982 335.7C182.14 332.868 177.61 327.529 174.845 329.058C169.556 332.018 181.749 339.991 181.982 335.7Z" fill="#4B764A"/>
<path d="M181.571 325.929C182.645 323.408 176.853 315.003 174.659 317.658C171.902 320.986 180.482 328.478 181.571 325.929Z" fill="#4B764A"/>
<path d="M184.005 360.803C184.05 358.544 177.596 354.501 175.899 355.69C170.858 359.231 183.884 366.248 184.005 360.803Z" fill="#4B764A"/>
<path d="M185.8 369.547C185.805 369.563 185.805 369.58 185.8 369.597C185.674 369.917 185.456 370.197 185.171 370.408C184.886 370.62 184.545 370.753 184.185 370.793C181.008 371.551 174.554 369.554 176.793 366.233C177.935 364.541 181.3 365.405 183.554 366.807C184.404 367.273 185.121 367.926 185.643 368.712C185.801 368.963 185.857 369.26 185.8 369.547Z" fill="#4B764A"/>
<path d="M189.759 352.057C189.432 352.559 189.06 353.033 188.647 353.474C187.918 354.26 187.076 354.947 186.145 355.513C184.793 356.32 183.561 356.547 183.223 355.64C182.539 353.813 184.891 348.262 187.663 347.674C188.076 347.599 188.503 347.629 188.899 347.763C189.296 347.896 189.647 348.127 189.916 348.432C190.893 349.352 190.608 350.719 189.759 352.057Z" fill="#4B764A"/>
<path d="M193.357 364.725C193.098 365.838 192.472 366.844 191.569 367.6C189.533 369.534 186.43 370.872 185.799 369.555C185.799 369.505 185.799 369.456 185.747 369.399C185.686 369.167 185.646 368.93 185.626 368.691C185.557 367.552 185.817 366.416 186.378 365.405C186.746 364.692 187.233 364.04 187.82 363.472C187.978 363.323 188.136 363.182 188.301 363.054C189.758 361.907 191.539 361.638 192.906 363.139C193.12 363.372 193.268 363.652 193.334 363.954C193.395 364.207 193.402 364.469 193.357 364.725Z" fill="#4B764A"/>
<path d="M182.279 346.4C181.813 341.443 185.787 335.332 187.763 337.973C190.768 341.988 182.527 349.048 182.279 346.4Z" fill="#4B764A"/>
<path d="M203.387 383.823C202.155 384.786 200.044 383.377 198.94 381.521C197.978 379.921 197.768 377.981 199.488 376.954C199.728 376.797 200.005 376.699 200.294 376.668C200.584 376.637 200.878 376.674 201.148 376.777C203.44 377.605 205.01 382.548 203.387 383.823Z" fill="#4B764A"/>
<path d="M189.061 379.574C188.693 382.938 178.371 381.614 179.58 376.742C180.069 374.788 182.42 374.717 184.666 375.503C186.687 376.211 188.625 377.627 189.001 378.944C189.062 379.149 189.083 379.363 189.061 379.574Z" fill="#4B764A"/>
<path d="M198.09 393.474C197.151 394.182 195.656 393.425 194.604 392.157C193.32 390.607 192.696 388.348 194.552 387.201C195.829 386.429 197.076 387.399 197.857 388.808C198.774 390.486 199.067 392.71 198.09 393.474Z" fill="#4B764A"/>
<path d="M182.224 294.227C183.689 291.012 178.881 282.897 176.251 284.717C171.669 287.953 180.954 297.002 182.224 294.227Z" fill="#4B764A"/>
<path d="M181.302 312.467C182.496 309.075 175.713 303.559 173.737 305.556C170.063 309.274 180.641 314.315 181.302 312.467Z" fill="#4B764A"/>
<path d="M181.607 302.519C182.2 299.155 179.045 293.398 176.528 294.729C172.427 296.946 181.088 305.358 181.607 302.519Z" fill="#4B764A"/>
<path d="M182.225 294.226C181.827 291.649 186.68 285.97 188.828 288.519C190.977 291.068 182.728 297.498 182.225 294.226Z" fill="#4B764A"/>
<path d="M181.609 311.851C181.113 309.217 186.117 300.939 188.663 303.708C191.21 306.476 182.593 316.963 181.609 311.851Z" fill="#4B764A"/>
<path d="M181.61 302.518C181.61 299.686 185.486 293.362 187.748 296.025C190.61 299.403 181.647 306.108 181.61 302.518Z" fill="#4B764A"/>
<path d="M181.746 321.92C180.845 318.932 188.507 311.78 190.573 315.944C192.504 319.839 182.79 325.348 181.746 321.92Z" fill="#4B764A"/>
<path d="M182.074 333.661C180.842 331.346 184.282 322.501 187.648 325.872C189.992 328.28 183.433 336.225 182.074 333.661Z" fill="#4B764A"/>
<path d="M197.857 388.851C197.238 390.293 196.081 391.471 194.604 392.165C193.32 390.614 192.696 388.355 194.552 387.208C195.829 386.464 197.076 387.435 197.857 388.851Z" fill="black"/>
<path d="M198.94 381.521C197.978 379.921 197.768 377.981 199.488 376.954C199.728 376.797 200.005 376.699 200.294 376.668C200.584 376.637 200.878 376.674 201.148 376.777C201.622 378.951 200.074 380.622 198.94 381.521Z" fill="black"/>
<path d="M189.002 378.951L186.29 380.877C186.29 380.877 181.782 378.604 184.667 375.51C186.688 376.218 188.604 377.62 189.002 378.951Z" fill="black"/>
<path d="M193.358 364.725C191.415 364.939 189.454 364.505 187.814 363.5C187.972 363.352 188.13 363.21 188.295 363.083C189.752 361.936 191.533 361.666 192.9 363.168C193.115 363.4 193.262 363.68 193.328 363.982C193.387 364.226 193.398 364.478 193.358 364.725Z" fill="black"/>
<path d="M188.647 353.473C187.739 351.671 187.397 349.661 187.663 347.681C188.076 347.606 188.503 347.636 188.9 347.769C189.296 347.903 189.647 348.134 189.917 348.439C191.239 349.678 190.24 351.767 188.647 353.473Z" fill="black"/>
<path d="M188.828 379.553C188.771 379.552 188.716 379.536 188.669 379.506C188.622 379.475 188.586 379.433 188.565 379.383C184.058 368.166 181.669 349.996 181.669 337.838C181.669 334.539 181.563 330.531 181.458 326.296C181.18 315.42 180.865 303.085 181.947 294.205C181.963 294.14 182.003 294.084 182.061 294.046C182.118 294.008 182.189 293.991 182.259 293.999C182.328 294.007 182.393 294.039 182.439 294.088C182.485 294.138 182.511 294.202 182.51 294.269C181.428 303.113 181.759 315.427 182.022 326.289C182.134 330.538 182.232 334.539 182.232 337.845C182.232 349.954 184.591 368.046 189.091 379.199C189.116 379.265 189.112 379.337 189.081 379.4C189.05 379.464 188.995 379.513 188.926 379.539L188.828 379.553Z" fill="black"/>
<path d="M191.511 391.237C190.602 393.135 188.506 392.696 186.68 391.463C184.855 390.231 183.472 388.411 183.487 387.13C183.483 386.812 183.602 386.504 183.822 386.264C184.042 386.024 184.348 385.869 184.682 385.827C184.906 385.775 185.135 385.749 185.366 385.749C186.717 385.806 188.022 386.231 189.122 386.974C190.91 388.086 192.209 389.785 191.511 391.237Z" fill="#8EBF8C"/>
<path d="M192.216 381.769C192.228 381.885 192.228 382.001 192.216 382.116C192.174 382.47 192.056 382.812 191.871 383.122C191.748 383.328 191.568 383.498 191.349 383.613C191.13 383.728 190.882 383.784 190.631 383.773C189.647 383.699 188.709 383.346 187.942 382.761C187.349 382.366 186.805 381.91 186.319 381.401C185.842 380.914 185.44 380.365 185.125 379.772C184.373 378.356 184.501 376.997 186.274 376.274C188.64 375.304 192.254 378.944 192.216 381.769Z" fill="#8EBF8C"/>
<path d="M195.494 352.298C196.418 350.04 192.204 343.936 189.604 345.975C186.351 348.545 194.375 355.046 195.494 352.298Z" fill="#8EBF8C"/>
<path d="M192.772 378.321C193.876 375.743 202.245 373.711 201.381 377.485C200.69 380.452 191.119 382.18 192.772 378.321Z" fill="#8EBF8C"/>
<path d="M191.606 388.878C192.05 385.897 200.779 381.493 200.914 385.671C201.042 388.956 190.96 393.339 191.606 388.878Z" fill="#8EBF8C"/>
<path d="M201.23 319.357C203.334 319.605 205.881 311.391 202.853 310.959C198.533 310.335 198.736 319.066 201.23 319.357Z" fill="#8EBF8C"/>
<path d="M199.276 326.891C200.779 324.838 198.893 318.316 196.129 319.364C192.357 320.802 197.744 328.938 199.276 326.891Z" fill="#8EBF8C"/>
<path d="M196.917 336.89C199.066 334.404 196.331 327.345 193.514 328.003C189.104 329.051 194.979 339.099 196.917 336.89Z" fill="#8EBF8C"/>
<path d="M196.235 343.914C197.309 341.393 193.267 336.125 191.134 337.392C187.167 339.701 195.146 346.477 196.235 343.914Z" fill="#8EBF8C"/>
<path d="M194.357 363.118C195.267 360.35 190.323 355.804 187.859 357C183.419 359.153 193.231 366.56 194.357 363.118Z" fill="#8EBF8C"/>
<path d="M193.11 373.796C194.019 371.028 189.256 365.681 186.702 367.147C181.946 369.881 191.99 377.245 193.11 373.796Z" fill="#8EBF8C"/>
<path d="M200.504 322.217C200.917 319.647 206.281 316.51 207.558 319.541C208.835 322.572 199.978 325.489 200.504 322.217Z" fill="#8EBF8C"/>
<path d="M198.241 332.181C198.691 329.256 204.183 324.937 205.46 327.932C206.737 330.927 197.685 335.735 198.241 332.181Z" fill="#8EBF8C"/>
<path d="M195.582 350.96C194.718 348.644 200.991 342.873 202.613 345.925C204.589 349.643 196.573 353.615 195.582 350.96Z" fill="#8EBF8C"/>
<path d="M196.97 339.326C196.76 337.01 203.957 333.123 204.678 336.288C205.557 340.133 197.211 341.981 196.97 339.326Z" fill="#8EBF8C"/>
<path d="M194.949 359.315C193.732 356.957 200.05 351.639 202.168 354.691C204.753 358.416 196.346 362.02 194.949 359.315Z" fill="#8EBF8C"/>
<path d="M193.731 371.431C192.597 369.229 198.494 364.251 200.492 367.112C202.874 370.589 195.031 373.959 193.731 371.431Z" fill="#8EBF8C"/>
<path d="M192.187 382.109C192.144 382.463 192.027 382.805 191.841 383.115C191.719 383.321 191.538 383.491 191.319 383.606C191.101 383.721 190.852 383.777 190.602 383.766C189.617 383.692 188.68 383.339 187.912 382.754C187.319 382.359 186.775 381.903 186.29 381.394C187.439 380.396 189.858 379.673 192.187 382.109Z" fill="black"/>
<path d="M189.144 386.967C189.002 388.553 187.747 390.267 186.68 391.457C184.952 390.288 183.472 388.405 183.487 387.123C184.079 386.622 184.706 386.161 185.366 385.742C186.725 385.795 188.038 386.22 189.144 386.967Z" fill="black"/>
<path d="M176.584 380.997C174.143 377.535 163.67 376.246 162.311 379.942C160.508 384.899 178.312 383.398 176.584 380.997Z" fill="#8EBF8C"/>
<path d="M161.773 364.229C160.571 362.105 151.316 362.813 150.504 367.253C149.648 372.125 163.974 368.131 161.773 364.229Z" fill="#8EBF8C"/>
<path d="M182.855 394.926C184.508 391.039 195.303 391.591 193.59 395.712C191.877 399.833 181.991 396.951 182.855 394.926Z" fill="#8EBF8C"/>
<path d="M168.867 371.835C167.477 369.002 156.246 369.76 154.045 374.002C150.236 381.331 169.964 374.058 168.867 371.835Z" fill="#8EBF8C"/>
<path d="M155.067 356.589C154.383 353.573 145.871 354.259 144.046 357.488C140.38 363.96 155.728 359.542 155.067 356.589Z" fill="#8EBF8C"/>
<path d="M163.197 365.78C160.388 362.679 164.985 349.727 169.613 352.956C174.241 356.185 164.61 367.338 163.197 365.78Z" fill="#8EBF8C"/>
<path d="M169.251 372.253C167.673 368.004 174.231 359.896 177.206 363.409C179.588 366.241 170.242 374.908 169.251 372.253Z" fill="#8EBF8C"/>
<path d="M177.98 383.002C175.644 380.672 178.198 370.447 181.894 372.026C185.913 373.719 180.031 385.02 177.98 383.002Z" fill="#8EBF8C"/>
<path d="M149.784 348.029C148.95 345.593 142.098 345.402 140.228 347.448C136.644 351.378 150.948 351.406 149.784 348.029Z" fill="#8EBF8C"/>
<path d="M146.346 340.515C146.234 338.752 140.922 333.83 139.285 334.722C135.266 336.974 146.7 346.059 146.346 340.515Z" fill="#8EBF8C"/>
<path d="M145.3 334.709C147.388 333.604 147.253 323.995 144.038 324.533C139.628 325.27 141.792 336.564 145.3 334.709Z" fill="#8EBF8C"/>
<path d="M150.975 350.089C149.172 347.901 153.228 338.327 156.399 341.096C159.389 343.688 153.491 353.155 150.975 350.089Z" fill="#8EBF8C"/>
<path d="M147.232 342.349C145.031 339.956 148.149 332.591 150.425 334.142C154.046 336.656 148.998 344.268 147.232 342.349Z" fill="#8EBF8C"/>
<path d="M155.48 356.71C153.873 353.24 159.747 345.557 162.106 348.262C164.953 351.527 156.554 359.033 155.48 356.71Z" fill="#8EBF8C"/>
<path d="M181.844 390.868C180.386 384.417 190.197 379.262 191.407 382.952C192.579 386.499 182.234 392.546 181.844 390.868Z" fill="#8EBF8C"/>
<path d="M182.489 393.113C182.143 390.011 173.97 385.734 171.806 388.156C167.787 392.73 182.804 395.91 182.489 393.113Z" fill="#8EBF8C"/>
<path d="M197.543 395.748H197.475C197.403 395.729 197.341 395.685 197.303 395.624C197.265 395.563 197.254 395.491 197.272 395.422C199.196 388.341 202.922 383.816 207.241 378.576C210.607 374.49 214.423 369.867 217.894 363.26C217.934 363.21 217.991 363.174 218.056 363.16C218.121 363.145 218.189 363.152 218.249 363.18C218.308 363.208 218.356 363.254 218.383 363.311C218.41 363.369 218.415 363.433 218.398 363.494C214.897 370.15 211.065 374.823 207.685 378.902C203.403 384.092 199.714 388.582 197.813 395.55C197.798 395.606 197.763 395.657 197.714 395.693C197.665 395.729 197.605 395.748 197.543 395.748Z" fill="black"/>
<path d="M191.463 392.915C191.388 392.913 191.318 392.884 191.266 392.834C191.214 392.783 191.185 392.716 191.185 392.646C191.365 386.379 192.161 379.695 193.093 371.962C193.912 365.122 194.843 357.375 195.55 348.234C196.594 334.666 201.785 316.086 201.838 315.901C201.856 315.834 201.903 315.776 201.967 315.741C202.031 315.706 202.108 315.696 202.179 315.714C202.251 315.732 202.312 315.776 202.35 315.836C202.387 315.896 202.397 315.968 202.378 316.036C202.326 316.22 197.12 334.758 196.113 348.276C195.407 357.425 194.475 365.186 193.656 372.026C192.732 379.751 191.929 386.422 191.756 392.667C191.75 392.736 191.716 392.8 191.662 392.846C191.607 392.892 191.536 392.917 191.463 392.915Z" fill="black"/>
<path d="M182.945 395.747C182.878 395.746 182.813 395.723 182.762 395.682C182.711 395.64 182.678 395.583 182.667 395.521C181.165 385.267 173.908 377.542 166.2 369.363C156.877 359.45 146.307 348.241 143.76 330.205C143.755 330.171 143.757 330.136 143.767 330.102C143.776 330.069 143.792 330.037 143.815 330.009C143.837 329.982 143.865 329.959 143.897 329.941C143.929 329.924 143.964 329.912 144 329.908C144.037 329.903 144.074 329.905 144.109 329.914C144.145 329.923 144.179 329.938 144.208 329.959C144.237 329.98 144.262 330.007 144.28 330.037C144.299 330.067 144.311 330.1 144.316 330.134C146.832 348.014 157.342 359.167 166.613 369.016C174.373 377.259 181.705 385.041 183.216 395.457C183.221 395.491 183.219 395.527 183.209 395.56C183.2 395.594 183.184 395.626 183.161 395.653C183.139 395.681 183.111 395.704 183.079 395.721C183.047 395.739 183.012 395.75 182.975 395.754L182.945 395.747Z" fill="black"/>
<path d="M198.015 452.155C195.01 452.155 193.995 449.903 194.491 445.98C194.987 442.057 195.303 436.775 194.987 435.5C194.671 434.226 205.655 434.438 205.655 434.438C205.655 434.438 207.383 452.155 198.015 452.155Z" fill="black"/>
<path d="M527.888 306.781C528.204 310.711 533.508 310.633 534.101 308.02C535.776 310.499 539.563 308.998 539.412 306.236C540.96 307.305 543.83 305.67 541.809 303.722C547.068 301.258 542.913 292.343 538.158 294C538.496 289.327 529.308 289.093 529.804 294.149C529.053 290.665 523.561 292.768 525.559 295.891L527.888 306.781Z" fill="black"/>
<path d="M428.809 394.798C428.103 394.989 424.159 398.133 421.747 400.229C417.315 404.081 416.068 401.78 417.653 399.868C421.514 395.202 426.75 388.744 434.796 382.874C437.185 381.125 444.562 377.166 451.444 374.376C480.465 362.763 481.727 362.225 487.647 357.778C491.343 355.003 503.836 343.475 503.836 343.475L505.88 343.191L520.056 353.891L511.792 364.64L490.381 379.907C490.381 379.907 475.642 384.977 466.98 388.907C458.318 392.837 455.027 394.097 455.027 394.097C455.027 394.097 448.386 398.87 445.351 400.775C442.316 402.679 438.124 403.55 437.328 403.04C433.106 400.343 431.273 398.976 431.273 398.976C429.177 399.011 427.742 397.942 428.809 394.798Z" fill="#C15D31"/>
<path d="M434.665 400.98C433.869 403.183 435.544 404.195 437.625 403.353C440.247 402.29 442.531 398.799 442.133 397.631C441.734 396.463 439.526 396.619 437.28 397.78C436.03 398.518 435.103 399.653 434.665 400.98Z" fill="#C15D31"/>
<path d="M436.238 403.912C435.701 403.932 435.177 403.757 434.773 403.424C434.142 402.871 434.022 402.007 434.397 400.896C434.857 399.508 435.827 398.321 437.132 397.546C438.845 396.661 440.528 396.343 441.519 396.704C441.722 396.772 441.905 396.883 442.056 397.028C442.207 397.173 442.321 397.347 442.391 397.539C442.879 398.955 440.362 402.496 437.74 403.586C437.268 403.79 436.757 403.901 436.238 403.912ZM434.931 401.08C434.615 401.944 434.698 402.645 435.156 403.048C435.503 403.266 435.908 403.388 436.324 403.402C436.74 403.415 437.153 403.32 437.515 403.126C440.122 402.071 442.188 398.679 441.857 397.73C441.814 397.611 441.742 397.503 441.647 397.415C441.552 397.326 441.436 397.26 441.309 397.221C440.483 396.916 438.95 397.221 437.402 398.035C436.221 398.744 435.345 399.825 434.931 401.087V401.08Z" fill="black"/>
<path d="M443.126 433.022C443.216 433.858 444.629 434.375 446.297 432.895C450.098 429.609 455.229 427.131 457.618 426.047C460.007 424.964 463.628 423.923 469.337 421.395C475.047 418.867 503.324 406.142 503.632 406.142C503.94 406.142 496.382 386.315 496.382 386.315C490.372 389.856 477.443 396.817 456.183 406.419C453.689 407.544 441.797 409.378 437.702 409.959C435.268 410.32 434.968 411.021 435.035 411.85L444.531 411.935C441.471 413.931 438.648 416.231 436.11 418.796C431.151 423.604 429.183 427.456 430.1 428.32C431.016 429.184 433.563 426.507 436.162 424.242C438.761 421.976 440.67 420.701 440.955 420.793C441.083 420.843 439.828 422.698 439.31 423.739C437.988 426.373 436.883 428.37 436.613 431.316C436.342 434.261 438.649 433.666 439.272 432.682C439.64 434.127 441.458 434.913 443.126 433.022Z" fill="#C15D31"/>
<path d="M590.581 449.967C590.386 450.136 590.178 450.29 589.957 450.428C587.704 451.844 583.669 452.29 577.231 451.688C577.88 450.521 578.875 449.557 580.093 448.912L580.634 448.615C582.392 447.687 583.722 444.366 584.255 442.242C584.371 441.797 584.453 441.345 584.503 440.889C584.631 439.232 585.119 434.878 583.038 432.392C582.077 431.245 578.426 431.103 578.426 431.103L577.449 414.937L587.396 412.855C588.838 412.919 590.581 413.068 592.369 413.294C597.132 413.889 602.233 415.044 602.886 416.736C603.968 419.752 592.669 448.197 590.581 449.967Z" fill="#C15D31"/>
<path d="M590.58 449.967C590.385 450.136 590.177 450.289 589.957 450.427C587.703 451.893 583.624 452.552 577.118 451.95C577.15 451.861 577.187 451.773 577.23 451.688C577.88 450.521 578.874 449.557 580.093 448.912L580.634 448.615C582.391 447.687 583.721 444.366 584.255 442.242C586.178 441.93 588.762 441.406 590.167 440.641C590.167 440.641 593.593 430.551 593.593 429.517C593.593 428.682 592.421 417.727 592.368 413.309C597.131 413.903 602.232 415.058 602.886 416.75C603.967 419.752 592.669 448.197 590.58 449.967Z" fill="#F09400"/>
<path d="M581.152 415.949C581.58 420.354 582.174 428.532 581.58 431.407C580.987 434.282 576.141 441.732 550.238 446.653C524.335 451.574 514.013 452.162 514.013 452.162C514.013 452.162 497.996 455.136 492.399 446.653C486.585 437.83 487.944 427.06 512.841 414.923C536.761 403.267 555.504 398.82 555.504 398.82L581.152 415.949Z" fill="#5B77C9"/>
<path d="M565.212 452.155H514.127C514.442 451.384 515.832 449.875 521.542 448.254L522.233 448.063C526.74 446.852 529.85 445.938 531.999 445.096C534.478 444.147 535.658 443.332 536.101 442.362C536.401 441.704 532.067 437.802 526.335 433.992L555.964 431.953L558.638 437.129C559.937 438.303 561.041 439.654 561.914 441.137C562.207 441.626 562.47 442.122 562.718 442.617C564.142 445.632 564.986 448.862 565.212 452.155Z" fill="#C15D31"/>
<path d="M521.896 351.321L542.63 369.477L529.228 381.416C529.228 381.416 505.428 362.467 505.767 362.467C506.105 362.467 521.896 351.321 521.896 351.321Z" fill="#C15D31"/>
<path d="M511.826 364.91C511.774 364.908 511.724 364.894 511.68 364.868C511.636 364.842 511.601 364.805 511.578 364.761C511.555 364.717 511.545 364.669 511.549 364.62C511.553 364.571 511.571 364.525 511.601 364.485L518.805 355.159C518.853 355.113 518.917 355.084 518.985 355.078C519.053 355.072 519.122 355.09 519.177 355.128C519.233 355.166 519.272 355.221 519.288 355.284C519.304 355.347 519.295 355.413 519.263 355.471L512.059 364.796C512.033 364.831 511.998 364.86 511.957 364.88C511.917 364.899 511.872 364.91 511.826 364.91Z" fill="black"/>
<path d="M594.858 412.544C582.221 427.959 545.666 410.363 541.376 407.998C546.583 412.665 551.045 418.02 554.621 423.895C560.142 433.199 558.85 436.555 558.61 437.129L532.053 437.837C532.053 437.837 525.855 437.087 517.945 427.725C510.034 418.364 491.568 393.899 488.135 388.298C487.729 387.632 487.263 386.761 486.753 385.742C485.321 382.87 484.683 379.703 484.898 376.537C485.114 373.37 486.175 370.306 487.984 367.63C489.793 364.954 492.291 362.752 495.245 361.231C498.199 359.709 501.514 358.916 504.88 358.926C512.339 358.901 519.77 359.782 526.99 361.546L503.791 343.475C503.791 343.475 519.064 330.021 527.343 319.399H532.819C536.974 322.119 550.466 331.133 560.097 339.347C568.361 346.428 580.974 358.466 589.148 369.448C590.222 370.864 591.229 372.337 592.153 373.739C592.378 374.084 592.596 374.431 592.807 374.78C594.127 376.913 595.323 379.111 596.39 381.366C601.348 391.874 602.678 403.012 594.858 412.544Z" fill="#8EBF8C"/>
<path d="M524.638 340.565C524.841 337.683 526.584 326.551 526.584 326.551L520.852 321.382L517.651 318.493L517.493 318.352L525.179 311.271C527.432 315.385 532.864 319.463 532.864 319.463L524.638 340.565Z" fill="#C15D31"/>
<path d="M523.165 314.429C522.731 316.832 521.952 319.169 520.851 321.375L517.65 318.493L523.165 314.429Z" fill="black"/>
<path d="M528.541 307.17C527.732 308.951 526.724 310.645 525.536 312.226C525.318 312.524 525.101 312.807 524.875 313.09C523.297 315.136 521.455 316.989 519.391 318.606C514.884 321.722 507.371 318.847 508.355 310.605C508.949 305.704 511.21 300.132 514.651 296.874C516.814 294.828 519.436 293.695 522.404 294.198C523.69 294.439 524.916 294.908 526.017 295.579C530.637 298.418 530.48 302.879 528.541 307.17Z" fill="#C15D31"/>
<path d="M596.41 381.394L587.515 385.706L580.521 382.102L570.988 377.443C570.988 377.443 581.055 372.274 589.168 369.477C590.242 370.893 591.249 372.366 592.173 373.768C592.398 374.112 592.616 374.459 592.827 374.809C594.147 376.941 595.343 379.139 596.41 381.394Z" fill="#4B764A"/>
<path d="M594.858 412.544C582.221 427.959 545.666 410.363 541.376 407.998C546.583 412.665 551.045 418.02 554.621 423.895C560.142 433.199 558.85 436.556 558.61 437.129L532.053 437.838C532.053 437.838 525.855 437.087 517.945 427.726C510.034 418.365 491.568 393.9 488.135 388.299C487.729 387.633 487.263 386.762 486.753 385.742C485.321 382.87 484.683 379.704 484.898 376.537C485.114 373.37 486.175 370.306 487.984 367.63C489.793 364.954 492.291 362.753 495.245 361.231C498.199 359.709 501.514 358.916 504.88 358.926C512.339 358.902 519.77 359.782 526.99 361.546H527.035C566.483 370.348 583.01 377.082 583.01 377.082L592.176 373.796C592.401 374.141 592.619 374.488 592.829 374.837C600.372 387.066 604.338 400.974 594.858 412.544Z" fill="#5B77C9"/>
<path d="M322.512 435.458C321.678 437.583 316.277 438.503 305.985 433.235L312.145 426.281C312.145 426.281 324.488 430.374 322.512 435.458Z" fill="black"/>
<path d="M291.735 416.063C291.735 416.24 263.42 452.177 263.42 452.177C255.765 452.623 223.371 452.29 212.636 452.403C201.9 452.517 198.016 452.177 198.016 452.177C203.681 450.215 202.681 438.595 202.681 438.595C194.328 437.328 185.313 437.384 184.373 437.71L184.126 437.809C183.029 438.305 181.962 439.558 181.226 441.711C180.648 443.311 180.312 444.98 180.227 446.668C180.144 448.424 180.031 448.877 181.985 449.989C183.938 451.1 184.396 452.212 184.396 452.212H172.879C171.692 452.212 168.935 448.757 168.695 447.659C168.454 446.561 169.394 436.039 170.288 426.671C171.039 419.236 171.52 412.431 172.444 411.723C173.743 410.731 177.274 411.68 183.367 413.068C188.993 414.384 194.691 415.412 200.435 416.148L201.186 416.24C217.323 418.181 252.452 420.22 252.452 420.22C252.452 420.22 255.66 383.675 256.02 365.958C256.516 341.613 258.447 334.978 260.092 328.018L292.831 360.463C293.523 367.544 291.735 415.886 291.735 416.063Z" fill="#F09400"/>
<path d="M318.616 452.155H263.421C265.555 447.793 268.012 443.431 270.498 439.332C275.222 431.631 280.378 424.174 285.944 416.991C297.476 408.111 315.475 424.376 315.475 424.376C315.273 424.66 304.455 436.365 300.804 441.328C298.437 444.522 311.163 449.288 314.814 449.564C317.256 449.748 318.623 450.024 318.616 452.155Z" fill="#FFDCAE"/>
<path d="M299.088 327.365C299.088 327.365 301.89 331.529 302.927 332.138C303.4 332.421 344.666 340.6 361.269 344.353C380.11 348.601 388.111 362.764 367.369 384.226C358.407 393.488 335.817 416.438 322.512 435.458C321.851 433.05 317.494 431.244 312.197 427.987C303.934 422.924 292.665 416.296 285.949 416.962C285.949 416.962 299.727 398.665 326.426 371.778C326.426 371.778 293.303 366.934 282.102 365.447C269.211 363.734 257.574 357.099 258.708 338.539C259.128 331.884 260.389 325.299 262.465 318.925L299.088 327.365Z" fill="#F09400"/>
<path d="M282.109 365.71H282.072C276.933 365.001 259.955 361.312 257.138 342.2C257.132 342.166 257.134 342.131 257.144 342.097C257.153 342.064 257.169 342.032 257.192 342.004C257.214 341.977 257.242 341.953 257.274 341.936C257.306 341.919 257.341 341.907 257.378 341.903C257.415 341.898 257.452 341.9 257.488 341.909C257.523 341.918 257.557 341.933 257.586 341.954C257.616 341.975 257.64 342.001 257.659 342.032C257.677 342.062 257.689 342.095 257.694 342.13C260.458 360.873 277.113 364.52 282.154 365.186C282.229 365.19 282.299 365.223 282.348 365.276C282.397 365.329 282.422 365.398 282.417 365.469C282.412 365.539 282.378 365.605 282.321 365.651C282.265 365.698 282.191 365.721 282.117 365.717L282.109 365.71Z" fill="black"/>
<path d="M316.923 269.562C316.923 269.562 323.835 280.51 332.444 288.264C341.054 296.017 354.982 307.05 359.579 309.648L358.032 317.296C358.032 317.296 332.264 298.885 314.662 278.35C314.662 278.336 315.03 270.108 316.923 269.562Z" fill="#EA4338"/>
<path d="M374.682 303.879L368.723 303.143C367.382 302.978 366.153 303.869 365.977 305.133L365.306 309.963C365.13 311.227 366.075 312.386 367.416 312.552L373.375 313.287C374.717 313.453 375.946 312.562 376.122 311.298L376.793 306.468C376.968 305.203 376.024 304.044 374.682 303.879Z" fill="#E4D0C0"/>
<path d="M394.197 306.288L388.237 305.553C386.896 305.387 385.667 306.278 385.491 307.542L384.82 312.372C384.644 313.636 385.589 314.795 386.93 314.961L392.89 315.696C394.231 315.862 395.46 314.971 395.636 313.707L396.307 308.877C396.483 307.613 395.538 306.454 394.197 306.288Z" fill="#E4D0C0"/>
<path d="M413.707 308.698L407.748 307.963C406.407 307.797 405.177 308.688 405.001 309.952L404.33 314.783C404.155 316.047 405.1 317.206 406.441 317.371L412.4 318.107C413.741 318.272 414.971 317.382 415.146 316.117L415.817 311.287C415.993 310.023 415.048 308.864 413.707 308.698Z" fill="#E4D0C0"/>
<path d="M433.143 311.099L427.183 310.363C425.842 310.198 424.613 311.088 424.437 312.352L423.766 317.183C423.59 318.447 424.535 319.606 425.876 319.771L431.836 320.507C433.177 320.672 434.406 319.782 434.582 318.518L435.253 313.687C435.429 312.423 434.484 311.264 433.143 311.099Z" fill="#E4D0C0"/>
<path d="M456.724 319.07L355.725 306.604L350.187 346.463L451.187 358.929L456.724 319.07Z" fill="#E4D0C0"/>
<path d="M456.732 319.336L355.689 306.866C355.626 306.846 355.572 306.806 355.537 306.753C355.501 306.7 355.487 306.637 355.496 306.574C355.505 306.512 355.537 306.455 355.585 306.413C355.634 306.37 355.697 306.345 355.764 306.342L456.799 318.812C456.866 318.822 456.927 318.854 456.971 318.903C457.015 318.952 457.039 319.013 457.039 319.077C457.039 319.141 457.015 319.203 456.971 319.251C456.927 319.3 456.866 319.332 456.799 319.343L456.732 319.336Z" fill="#F6EEE8"/>
<path d="M389.479 353.41C391.185 354.684 393.04 354.543 393.709 353.339C393.881 353.027 395.159 354.5 396.571 354.203C398.381 353.827 395.519 349.954 396.135 349.749C397.217 349.338 399.764 354.486 401.702 354.125C403.843 353.728 400.515 347.44 400.515 347.44C400.747 346.281 400.7 345.087 400.376 343.947C400.052 342.807 399.46 341.75 398.644 340.855C394.956 336.606 385.122 331.848 381.193 330.687L373.808 346.725C377.232 348.032 380.386 349.897 383.124 352.234C387.856 356.207 389.186 353.969 389.479 353.41Z" fill="#FFAEAE"/>
<path d="M346.702 251.719C346.552 256.98 341.594 264.465 336.057 266.972C330.347 269.571 326.208 265.499 326.208 262.447C325.362 262.721 324.536 263.047 323.736 263.424C321.024 264.649 317.997 266.384 317.997 266.384L312.475 259.53C317.636 257.363 327.2 252.753 327.2 252.753C327.297 251.202 328.357 249.765 329.821 249.666C329.821 249.666 333.127 243.958 340.061 244.645C346.995 245.332 346.702 251.719 346.702 251.719Z" fill="#FFAEAE"/>
<path d="M262.457 318.904C269.677 289.956 287.654 273.266 297.803 266.66C305.406 261.703 315.383 257.646 315.383 257.646L320.949 266.794C320.949 266.794 317.238 269.223 316.923 269.57C316.607 269.917 316.607 276.793 316.818 277.359C317.028 277.926 329.356 291.004 338.957 299.07C348.558 307.135 368.256 320.837 374.055 323.301C378.51 325.192 382.447 328.258 383.919 331.359C383.919 331.359 379.877 341.648 375.475 347.823C375.475 347.823 371.065 349.451 366.032 346.145C360.999 342.838 341.992 330.885 334.87 325.871C326.479 319.952 317.711 311.263 310.537 305.174C310.537 305.174 300.455 325.376 298.93 327.606C297.683 327.344 262.457 318.904 262.457 318.904Z" fill="#EA4338"/>
<path d="M396.564 354.472C396.49 354.48 396.416 354.459 396.358 354.416C396.301 354.372 396.264 354.308 396.256 354.239C396.248 354.169 396.269 354.099 396.316 354.045C396.362 353.991 396.43 353.956 396.504 353.948C396.57 353.94 396.633 353.917 396.688 353.881C396.742 353.846 396.787 353.798 396.819 353.743C397.082 353.268 396.579 352.107 396.211 351.265C395.842 350.422 395.67 349.997 395.797 349.714C395.819 349.667 395.849 349.625 395.888 349.59C395.927 349.555 395.973 349.527 396.023 349.508C396.699 349.246 397.443 350.139 398.472 351.364C399.501 352.589 400.726 354.04 401.642 353.87C401.723 353.858 401.8 353.828 401.866 353.781C401.932 353.734 401.984 353.672 402.018 353.601C402.604 352.475 400.951 348.864 400.26 347.568C400.236 347.509 400.236 347.443 400.26 347.384C400.479 346.261 400.429 345.107 400.114 344.004C399.8 342.902 399.229 341.879 398.442 341.011C395.572 337.718 388.796 333.93 383.717 331.877C383.65 331.85 383.596 331.799 383.568 331.736C383.54 331.672 383.54 331.601 383.567 331.537L383.635 331.367C382.215 328.464 378.519 325.475 373.959 323.542C367.858 320.951 348.093 307.079 338.792 299.268C329.492 291.458 316.856 278.238 316.571 277.445C316.56 277.382 316.573 277.317 316.608 277.263C316.643 277.208 316.697 277.167 316.761 277.147C316.825 277.127 316.894 277.128 316.957 277.152C317.02 277.175 317.072 277.219 317.104 277.275C317.487 277.983 329.695 290.92 339.161 298.872C349.025 307.157 368.67 320.717 374.184 323.061C378.917 325.065 382.748 328.209 384.191 331.253C384.217 331.317 384.217 331.388 384.191 331.452V331.487C389.299 333.611 395.993 337.364 398.877 340.693C399.711 341.606 400.319 342.683 400.657 343.845C400.994 345.007 401.054 346.226 400.831 347.412C401.244 348.206 403.325 352.369 402.544 353.835C402.474 353.977 402.369 354.102 402.239 354.199C402.108 354.296 401.955 354.363 401.792 354.394C400.553 354.621 399.231 353.07 398.036 351.696C397.488 351.045 396.691 350.096 396.331 350.004C396.437 350.37 396.573 350.727 396.736 351.073C397.187 352.121 397.706 353.304 397.322 353.998C397.251 354.121 397.152 354.228 397.031 354.31C396.91 354.392 396.771 354.448 396.624 354.472H396.564Z" fill="black"/>
<path d="M355.965 312.191C355.906 312.191 355.848 312.174 355.8 312.142C349.137 307.461 342.931 302.773 338.777 299.282C329.484 291.493 316.84 278.252 316.555 277.459C316.387 275.785 316.339 274.103 316.412 272.424C316.405 272.385 316.408 272.346 316.419 272.308C316.43 272.271 316.45 272.236 316.476 272.206C316.503 272.176 316.536 272.153 316.574 272.136C316.612 272.12 316.652 272.111 316.694 272.111C316.735 272.111 316.776 272.12 316.814 272.136C316.851 272.153 316.885 272.176 316.911 272.206C316.938 272.236 316.958 272.271 316.969 272.308C316.98 272.346 316.982 272.385 316.976 272.424C316.908 274.044 316.948 275.666 317.096 277.282C317.479 277.99 329.687 290.927 339.152 298.879C343.292 302.356 349.49 307.036 356.138 311.71C356.185 311.744 356.219 311.79 356.236 311.843C356.253 311.896 356.253 311.952 356.235 312.005C356.217 312.058 356.182 312.104 356.135 312.137C356.088 312.17 356.032 312.189 355.973 312.191H355.965Z" fill="black"/>
<path d="M354.23 252.823C351.225 250.791 349.272 245.742 348.468 242.909C347.717 240.24 343.42 239.553 341.594 241.309C334.225 237.662 330.288 245.891 329.822 249.629C331.791 249.481 333.008 250.734 332.609 252.611C336.366 252.334 338.792 250.323 340.7 246.478C340.7 246.478 340.903 249.849 342.601 251.994C344.727 254.714 348.821 254.289 354.23 252.823Z" fill="#C15D31"/>
<path d="M528.544 307.17C527.734 308.95 526.727 310.645 525.539 312.226C527.792 308.813 524.885 306.894 523.338 307.878C521.302 306.724 521.144 303.07 522.984 301.689C520.731 302.135 519.228 300.408 520.603 297.965C517.921 299.083 515.57 298.758 514.593 296.938C516.757 294.891 519.378 293.758 522.346 294.261C523.632 294.503 524.858 294.971 525.959 295.642C530.64 298.418 530.482 302.879 528.544 307.17Z" fill="black"/>
<path d="M522.683 310.718C522.646 310.723 522.609 310.72 522.574 310.711C522.539 310.701 522.505 310.686 522.477 310.664C522.448 310.643 522.423 310.616 522.405 310.586C522.387 310.556 522.376 310.523 522.371 310.488C522.367 310.454 522.37 310.419 522.379 310.386C522.389 310.352 522.406 310.321 522.429 310.294C522.451 310.266 522.48 310.244 522.512 310.227C522.544 310.21 522.579 310.199 522.615 310.194L524.869 309.649C524.942 309.631 525.019 309.642 525.084 309.677C525.149 309.713 525.196 309.772 525.215 309.84C525.234 309.909 525.223 309.982 525.185 310.043C525.147 310.104 525.085 310.148 525.012 310.166L522.758 310.711L522.683 310.718Z" fill="black"/>
<path d="M528.542 307.17C529.293 300.089 526.574 296.053 522.314 294.262C523.6 294.503 524.826 294.972 525.928 295.643C530.638 298.418 530.48 302.879 528.542 307.17Z" fill="#F09400"/>
<path d="M519.535 305.939C519.474 305.939 519.415 305.921 519.366 305.886C519.317 305.852 519.281 305.803 519.265 305.748C519.042 305.375 518.693 305.084 518.273 304.922C517.853 304.76 517.387 304.737 516.951 304.855C516.882 304.859 516.814 304.838 516.76 304.798C516.706 304.758 516.668 304.701 516.656 304.637C516.643 304.573 516.655 304.506 516.69 304.45C516.725 304.394 516.78 304.352 516.846 304.331C517.418 304.188 518.025 304.235 518.564 304.465C519.103 304.694 519.542 305.093 519.806 305.592C519.827 305.659 519.819 305.732 519.784 305.794C519.749 305.857 519.689 305.903 519.618 305.925L519.535 305.939Z" fill="black"/>
<path d="M511.211 310.541C511.14 310.539 511.073 310.513 511.022 310.467C510.97 310.421 510.939 310.359 510.933 310.293C510.884 309.871 510.695 309.475 510.392 309.16C510.169 308.932 509.998 308.662 509.891 308.368C509.783 308.075 509.742 307.763 509.769 307.453C509.859 306.639 510.768 306.264 511.647 305.903C512.412 305.699 513.079 305.251 513.533 304.635C513.634 304.423 513.663 304.187 513.616 303.959C513.569 303.73 513.448 303.521 513.27 303.361C513.021 303.098 512.703 302.902 512.348 302.793C511.993 302.683 511.614 302.664 511.249 302.737C511.178 302.761 511.1 302.757 511.033 302.726C510.965 302.696 510.913 302.641 510.888 302.575C510.863 302.508 510.867 302.435 510.9 302.371C510.932 302.307 510.99 302.258 511.061 302.235C511.53 302.128 512.022 302.142 512.483 302.277C512.945 302.412 513.359 302.661 513.683 302.999C513.937 303.237 514.108 303.542 514.172 303.874C514.237 304.205 514.192 304.548 514.043 304.855C513.66 305.655 512.706 306.044 511.872 306.391C511.038 306.738 510.37 307.007 510.325 307.51C510.306 307.753 510.342 307.998 510.43 308.227C510.518 308.456 510.656 308.666 510.836 308.841C511.206 309.237 511.434 309.733 511.489 310.258C511.492 310.293 511.488 310.328 511.476 310.361C511.464 310.394 511.446 310.425 511.421 310.452C511.397 310.478 511.367 310.5 511.333 310.515C511.3 310.53 511.263 310.539 511.226 310.541H511.211Z" fill="black"/>
<path d="M516.837 306.557C517.048 306.154 517.02 305.735 516.775 305.62C516.529 305.506 516.159 305.741 515.948 306.144C515.736 306.547 515.764 306.967 516.01 307.081C516.255 307.195 516.626 306.961 516.837 306.557Z" fill="black"/>
<path d="M338.559 257.295C338.818 256.918 338.842 256.498 338.612 256.358C338.382 256.217 337.986 256.41 337.726 256.787C337.467 257.165 337.443 257.584 337.673 257.725C337.903 257.865 338.299 257.673 338.559 257.295Z" fill="black"/>
<path d="M342.786 260.323C343.071 259.962 343.124 259.545 342.905 259.39C342.686 259.236 342.276 259.403 341.991 259.763C341.706 260.124 341.652 260.541 341.871 260.696C342.091 260.85 342.5 260.683 342.786 260.323Z" fill="black"/>
<path d="M512.62 304.592C512.831 304.188 512.803 303.769 512.557 303.655C512.312 303.54 511.941 303.775 511.73 304.178C511.519 304.581 511.547 305.001 511.793 305.115C512.038 305.229 512.408 304.995 512.62 304.592Z" fill="black"/>
<path d="M511.572 313.033C513.035 313.134 514.506 313.046 515.944 312.771C515.35 315.073 512.097 316.687 511.572 313.033Z" fill="white"/>
<path d="M541.373 408.266C541.307 408.266 541.243 408.243 541.193 408.203C541.125 408.146 534.191 402.672 531.336 400.052C531.31 400.028 531.288 399.999 531.274 399.967C531.259 399.935 531.251 399.901 531.25 399.866C531.249 399.831 531.256 399.797 531.269 399.764C531.283 399.732 531.303 399.702 531.329 399.677C531.354 399.652 531.385 399.632 531.419 399.618C531.453 399.604 531.489 399.596 531.526 399.596C531.563 399.595 531.6 399.601 531.634 399.614C531.669 399.627 531.7 399.646 531.727 399.67C534.567 402.276 541.493 407.735 541.553 407.792C541.599 407.826 541.632 407.873 541.648 407.926C541.664 407.979 541.662 408.035 541.642 408.087C541.622 408.139 541.585 408.183 541.537 408.214C541.489 408.245 541.431 408.261 541.373 408.259V408.266Z" fill="black"/>
<path d="M555.962 437.469C555.914 437.47 555.867 437.458 555.824 437.436C555.782 437.413 555.747 437.381 555.722 437.342L551.297 430.445C551.259 430.385 551.248 430.313 551.267 430.245C551.285 430.178 551.331 430.119 551.395 430.084C551.459 430.048 551.535 430.038 551.607 430.055C551.679 430.072 551.74 430.116 551.778 430.176L556.173 437.087C556.198 437.127 556.211 437.173 556.211 437.22C556.211 437.267 556.199 437.313 556.175 437.353C556.15 437.394 556.115 437.428 556.073 437.452C556.03 437.476 555.982 437.489 555.932 437.491L555.962 437.469Z" fill="black"/>
<path d="M549.238 437.646C549.19 437.646 549.143 437.634 549.101 437.612C549.059 437.589 549.023 437.558 548.998 437.519L544.693 430.756C544.655 430.696 544.644 430.625 544.663 430.557C544.681 430.489 544.727 430.431 544.791 430.395C544.855 430.36 544.931 430.349 545.003 430.367C545.075 430.384 545.136 430.427 545.174 430.487L549.464 437.25C549.488 437.29 549.502 437.336 549.502 437.383C549.502 437.429 549.49 437.475 549.465 437.516C549.441 437.557 549.406 437.591 549.364 437.615C549.321 437.639 549.273 437.652 549.223 437.653L549.238 437.646Z" fill="black"/>
<path d="M541.951 437.83C541.908 437.83 541.865 437.82 541.826 437.801C541.787 437.783 541.753 437.756 541.726 437.724L536.467 431.28C536.436 431.254 536.412 431.221 536.395 431.185C536.379 431.149 536.371 431.11 536.373 431.07C536.374 431.031 536.385 430.992 536.404 430.957C536.423 430.922 536.45 430.892 536.483 430.867C536.515 430.843 536.554 430.826 536.594 430.817C536.635 430.809 536.677 430.808 536.718 430.817C536.759 430.825 536.797 430.841 536.83 430.865C536.864 430.889 536.891 430.919 536.911 430.954L542.169 437.398C542.202 437.437 542.223 437.484 542.228 437.534C542.234 437.583 542.224 437.633 542.2 437.678C542.177 437.723 542.14 437.76 542.095 437.786C542.049 437.811 541.997 437.824 541.944 437.823L541.951 437.83Z" fill="black"/>
<path d="M535.829 437.993C535.789 437.992 535.749 437.984 535.713 437.968C535.677 437.952 535.645 437.929 535.618 437.901L529.871 431.577C529.84 431.552 529.815 431.521 529.798 431.485C529.781 431.45 529.772 431.412 529.772 431.373C529.773 431.335 529.781 431.296 529.799 431.261C529.816 431.226 529.841 431.195 529.872 431.17C529.903 431.144 529.939 431.126 529.979 431.115C530.018 431.104 530.06 431.102 530.1 431.107C530.141 431.113 530.18 431.127 530.214 431.148C530.249 431.17 530.278 431.197 530.3 431.23L536.047 437.554C536.083 437.591 536.108 437.639 536.116 437.689C536.125 437.74 536.117 437.792 536.095 437.839C536.073 437.885 536.036 437.925 535.99 437.952C535.944 437.98 535.891 437.994 535.836 437.993H535.829Z" fill="black"/>
<path d="M519.031 355.583C518.975 355.585 518.92 355.57 518.873 355.541C518.813 355.501 518.771 355.44 518.757 355.371C518.743 355.302 518.758 355.231 518.798 355.173C518.873 355.074 526.115 345.011 527.28 343.071C527.294 343.034 527.316 343 527.345 342.972C527.375 342.944 527.41 342.922 527.449 342.909C527.488 342.895 527.53 342.889 527.572 342.892C527.614 342.896 527.654 342.907 527.69 342.927C527.727 342.946 527.758 342.973 527.782 343.005C527.806 343.037 527.823 343.074 527.83 343.113C527.837 343.152 527.836 343.191 527.825 343.229C527.814 343.268 527.795 343.303 527.768 343.333C526.589 345.295 519.557 355.059 519.257 355.47C519.231 355.505 519.198 355.533 519.158 355.553C519.119 355.572 519.076 355.583 519.031 355.583Z" fill="black"/>
<path d="M531.045 336.472C530.989 336.473 530.934 336.459 530.887 336.43C530.825 336.391 530.782 336.33 530.766 336.262C530.751 336.193 530.765 336.121 530.805 336.062C533.907 331.608 537.205 329.611 540.571 330.128C540.608 330.133 540.643 330.145 540.675 330.163C540.706 330.181 540.734 330.205 540.756 330.234C540.777 330.262 540.793 330.294 540.801 330.328C540.809 330.362 540.81 330.398 540.804 330.432C540.791 330.501 540.75 330.563 540.69 330.604C540.629 330.645 540.554 330.662 540.481 330.652C537.326 330.17 534.223 332.068 531.248 336.352C531.225 336.385 531.196 336.412 531.161 336.433C531.126 336.454 531.086 336.467 531.045 336.472Z" fill="black"/>
<path d="M544.289 364.279C544.236 364.281 544.184 364.268 544.139 364.242C544.093 364.216 544.056 364.179 544.033 364.135C544.009 364.09 543.999 364.04 544.005 363.99C544.01 363.941 544.031 363.893 544.064 363.854C544.109 363.798 548.714 357.857 550.389 355.18C550.432 355.129 550.493 355.094 550.56 355.082C550.628 355.07 550.698 355.081 550.758 355.114C550.817 355.147 550.862 355.199 550.884 355.26C550.906 355.322 550.904 355.389 550.878 355.449C549.187 358.147 544.567 364.102 544.522 364.166C544.496 364.201 544.461 364.23 544.421 364.25C544.38 364.27 544.335 364.28 544.289 364.279Z" fill="black"/>
<path d="M523.162 349.799C523.125 349.797 523.088 349.788 523.055 349.773C523.021 349.758 522.991 349.736 522.967 349.71C522.942 349.683 522.924 349.653 522.912 349.619C522.9 349.586 522.896 349.551 522.899 349.516C523.088 346.47 523.591 343.448 524.401 340.494C524.427 340.435 524.475 340.386 524.536 340.356C524.597 340.327 524.667 340.32 524.734 340.335C524.8 340.35 524.859 340.388 524.898 340.441C524.938 340.493 524.956 340.558 524.95 340.622C524.155 343.544 523.665 346.532 523.485 349.544C523.484 349.582 523.475 349.619 523.458 349.653C523.441 349.687 523.416 349.717 523.385 349.741C523.355 349.765 523.319 349.783 523.28 349.793C523.242 349.803 523.201 349.805 523.162 349.799Z" fill="black"/>
<path d="M565.211 452.7H514.013C513.971 452.516 513.997 452.323 514.088 452.155C514.404 451.383 515.793 449.875 521.503 448.253L522.194 448.062C526.702 446.851 529.812 445.938 531.96 445.095C533.778 446.187 535.301 447.664 536.408 449.407C536.408 449.407 548.585 448.607 549.239 448.494C549.742 448.409 558.081 443.424 561.883 441.137C562.176 441.625 562.439 442.121 562.686 442.617C564.07 445.644 564.911 448.868 565.173 452.155C565.203 452.502 565.211 452.7 565.211 452.7Z" fill="#F09400"/>
<path d="M573.941 425.098C573.878 425.094 573.819 425.07 573.772 425.031C573.725 424.992 573.693 424.939 573.682 424.881C573.67 424.823 573.678 424.763 573.706 424.71C573.734 424.657 573.78 424.614 573.836 424.588L581.529 421.756C581.595 421.743 581.664 421.752 581.724 421.783C581.783 421.813 581.829 421.863 581.854 421.922C581.878 421.982 581.879 422.048 581.857 422.108C581.834 422.168 581.79 422.219 581.731 422.251L574.039 425.084L573.941 425.098Z" fill="black"/>
<path d="M573.942 431.393C573.881 431.389 573.822 431.366 573.776 431.329C573.729 431.291 573.697 431.24 573.683 431.184C573.67 431.127 573.676 431.068 573.701 431.016C573.726 430.963 573.768 430.919 573.822 430.89L581.71 427.3C581.776 427.278 581.849 427.279 581.914 427.304C581.98 427.329 582.033 427.376 582.064 427.436C582.095 427.496 582.101 427.564 582.081 427.628C582.062 427.692 582.018 427.747 581.958 427.782L574.07 431.372C574.029 431.388 573.986 431.396 573.942 431.393Z" fill="black"/>
<path d="M441.602 420.446C441.549 420.447 441.496 420.434 441.45 420.407C441.405 420.381 441.368 420.342 441.345 420.297C441.322 420.251 441.313 420.2 441.321 420.15C441.328 420.1 441.35 420.052 441.385 420.014C442.256 418.99 443.252 418.065 444.352 417.259C444.415 417.236 444.484 417.234 444.548 417.254C444.612 417.274 444.667 417.315 444.702 417.369C444.737 417.424 444.751 417.488 444.74 417.551C444.73 417.614 444.696 417.671 444.645 417.713C443.602 418.489 442.655 419.372 441.82 420.347C441.794 420.378 441.761 420.403 441.723 420.42C441.686 420.437 441.644 420.446 441.602 420.446Z" fill="black"/>
<path d="M439.272 432.973H439.189C439.118 432.951 439.058 432.905 439.023 432.842C438.988 432.78 438.98 432.707 439.001 432.64C440.309 428.561 443.817 422.797 447.205 420.602C447.266 420.576 447.336 420.571 447.4 420.588C447.465 420.606 447.521 420.644 447.559 420.696C447.597 420.749 447.613 420.812 447.606 420.875C447.599 420.938 447.569 420.997 447.521 421.041C444.591 422.939 441.022 428.207 439.52 432.781C439.504 432.833 439.472 432.88 439.428 432.914C439.384 432.948 439.329 432.969 439.272 432.973Z" fill="black"/>
<path d="M443.125 433.277C443.053 433.275 442.985 433.248 442.933 433.201C442.882 433.154 442.851 433.09 442.847 433.022C442.795 431.245 445.176 427.407 452.05 422.464C452.08 422.443 452.113 422.427 452.15 422.418C452.186 422.409 452.223 422.407 452.26 422.411C452.297 422.416 452.333 422.427 452.365 422.445C452.397 422.463 452.426 422.486 452.448 422.514C452.471 422.542 452.488 422.574 452.497 422.608C452.507 422.642 452.509 422.677 452.504 422.712C452.5 422.747 452.487 422.78 452.469 422.811C452.45 422.841 452.425 422.868 452.396 422.889C445.221 428.044 443.381 431.677 443.381 433.008C443.383 433.078 443.356 433.146 443.305 433.198C443.255 433.25 443.185 433.281 443.11 433.284L443.125 433.277Z" fill="black"/>
<path d="M601.13 165.833H547.1V238.839H601.13V165.833Z" fill="#E4D0C0"/>
<path d="M594.804 171.434H553.426V233.237H594.804V171.434Z" fill="#F6EEE8"/>
<path d="M632.425 251.889H577.118V280.447H632.425V251.889Z" fill="#E4D0C0"/>
<path d="M627.203 256.683H582.338V275.66H627.203V256.683Z" fill="#F6EEE8"/>
<path d="M334.002 263.466C333.649 263.247 332.62 262.595 332.86 260.521C332.864 260.486 332.875 260.453 332.892 260.422C332.91 260.392 332.934 260.365 332.962 260.343C332.991 260.321 333.024 260.305 333.059 260.296C333.095 260.286 333.132 260.283 333.168 260.287C333.205 260.29 333.24 260.301 333.273 260.317C333.305 260.334 333.333 260.356 333.357 260.383C333.38 260.41 333.397 260.441 333.407 260.475C333.417 260.508 333.42 260.543 333.416 260.577C333.213 262.333 334.002 262.829 334.303 263.013L334.002 263.466Z" fill="black"/>
<path d="M340.06 255.131C339.987 255.13 339.918 255.102 339.866 255.053C339.814 255.004 339.784 254.938 339.782 254.87C339.792 254.682 339.75 254.496 339.66 254.328C339.571 254.161 339.437 254.018 339.272 253.914C338.971 253.771 338.639 253.697 338.303 253.697C337.966 253.697 337.634 253.771 337.333 253.914C337.299 253.927 337.263 253.934 337.226 253.934C337.189 253.934 337.152 253.928 337.118 253.915C337.084 253.901 337.053 253.882 337.027 253.858C337 253.833 336.98 253.804 336.965 253.772C336.951 253.74 336.944 253.705 336.943 253.671C336.943 253.636 336.95 253.601 336.964 253.569C336.978 253.537 336.999 253.508 337.025 253.483C337.051 253.458 337.082 253.438 337.116 253.425C337.503 253.252 337.929 253.169 338.358 253.182C338.786 253.196 339.205 253.306 339.58 253.503C339.824 253.657 340.022 253.869 340.154 254.117C340.286 254.366 340.347 254.642 340.331 254.919C340.331 254.989 340.302 255.057 340.25 255.107C340.198 255.157 340.127 255.186 340.053 255.188L340.06 255.131Z" fill="black"/>
<path d="M338.491 262.892C338.001 262.838 337.538 262.648 337.162 262.347C336.947 262.205 336.723 262.075 336.493 261.957C336.427 261.925 336.378 261.868 336.356 261.801C336.334 261.734 336.342 261.662 336.376 261.6C336.411 261.538 336.471 261.492 336.542 261.471C336.613 261.45 336.69 261.457 336.756 261.49C337.015 261.615 337.266 261.755 337.507 261.908C337.958 262.198 338.318 262.425 338.672 262.347C339.025 262.269 339.49 261.802 339.986 260.931C341.564 258.212 342.09 257.659 342.766 257.454C343.163 257.324 343.596 257.334 343.986 257.483C344.376 257.631 344.695 257.908 344.884 258.261C344.904 258.291 344.917 258.324 344.924 258.359C344.93 258.393 344.929 258.429 344.92 258.463C344.912 258.497 344.896 258.529 344.875 258.558C344.853 258.587 344.826 258.611 344.794 258.629C344.763 258.648 344.727 258.661 344.691 258.666C344.654 258.672 344.616 258.671 344.58 258.663C344.544 258.655 344.51 258.641 344.479 258.62C344.449 258.6 344.423 258.574 344.404 258.544C344.278 258.286 344.053 258.082 343.774 257.974C343.495 257.866 343.183 257.863 342.901 257.964C342.428 258.105 341.939 258.622 340.444 261.193C339.851 262.219 339.333 262.729 338.769 262.857C338.678 262.879 338.585 262.891 338.491 262.892Z" fill="black"/>
<path d="M330.341 253.319C330.274 253.318 330.21 253.296 330.16 253.256C330.109 253.216 330.075 253.161 330.063 253.099L329.664 250.975C329.651 250.938 329.647 250.899 329.651 250.861C329.655 250.822 329.668 250.785 329.689 250.752C329.71 250.718 329.739 250.69 329.773 250.668C329.807 250.646 329.845 250.631 329.886 250.624C329.926 250.617 329.968 250.619 330.007 250.629C330.047 250.639 330.084 250.657 330.116 250.681C330.148 250.706 330.174 250.737 330.192 250.771C330.21 250.806 330.219 250.844 330.22 250.883L330.618 253.007C330.629 253.077 330.611 253.147 330.568 253.204C330.524 253.261 330.459 253.3 330.386 253.312L330.341 253.319Z" fill="black"/>
<path d="M326.665 258.85C326.353 260.023 326.199 261.23 326.207 262.44C325.361 262.713 324.535 263.04 323.735 263.417C323.6 261.498 325.268 259.253 326.665 258.85Z" fill="black"/>
<path d="M400.516 347.709C400.462 347.71 400.409 347.695 400.364 347.667C400.319 347.64 400.283 347.6 400.261 347.554C399.014 345.299 397.408 343.238 395.498 341.443C395.446 341.392 395.418 341.324 395.419 341.254C395.421 341.183 395.452 341.116 395.505 341.067C395.559 341.019 395.631 340.992 395.706 340.993C395.781 340.995 395.852 341.024 395.904 341.074C397.857 342.911 399.499 345.02 400.772 347.327C400.788 347.359 400.798 347.393 400.8 347.428C400.802 347.463 400.796 347.498 400.784 347.531C400.771 347.564 400.752 347.594 400.726 347.62C400.701 347.646 400.67 347.667 400.636 347.681C400.599 347.699 400.558 347.709 400.516 347.709Z" fill="black"/>
<path d="M318.616 452.155H263.421C265.555 447.793 268.012 443.431 270.498 439.331C272.409 441.492 274.165 443.77 275.757 446.15L290.647 446.702C290.647 446.702 293.321 443.127 294.08 442.128C294.839 441.13 295.913 441.293 300.789 441.293C298.437 444.521 311.163 449.287 314.814 449.563C317.256 449.747 318.623 450.023 318.616 452.155Z" fill="#C15D31"/>
<path d="M202.681 438.573C194.328 437.306 185.313 437.362 184.373 437.688L184.126 437.787C183.029 438.283 181.962 439.536 181.226 441.689C180.648 443.289 180.312 444.957 180.227 446.646C180.144 448.402 180.031 448.855 181.985 449.967C183.938 451.078 184.396 452.19 184.396 452.19H172.879C171.692 452.19 168.935 448.735 168.695 447.637C168.454 446.539 169.394 436.017 170.288 426.649C171.039 419.214 171.52 412.409 172.444 411.701C173.743 410.709 177.274 411.658 183.367 413.046C188.993 414.362 194.691 415.39 200.435 416.126L201.186 416.218C203.44 422.882 202.719 434.438 202.681 438.573Z" fill="#FFDCAE"/>
<path d="M184.396 452.155H172.879C171.692 452.155 168.935 448.699 168.695 447.602C168.454 446.504 169.394 435.982 170.288 426.614C171.039 419.178 171.52 412.374 172.444 411.665C173.743 410.674 177.274 411.623 183.367 413.011C181.571 415.029 178.063 419.03 177.868 419.575C177.612 420.283 177.379 425.24 177.116 428.497C176.823 432.533 177.259 432.038 178.078 432.887C178.897 433.737 182.503 431.995 182.743 433.426C183.056 434.915 183.511 436.375 184.103 437.787C183.006 438.283 181.939 439.536 181.203 441.689C180.625 443.289 180.289 444.958 180.204 446.646C180.121 448.402 180.009 448.855 181.962 449.967C183.915 451.079 184.396 452.155 184.396 452.155Z" fill="#C15D31"/>
<path d="M531.464 437.992H531.359C526.852 436.343 521.51 432.377 517.717 427.895C516.169 426.068 514.186 423.646 511.804 420.608C511.759 420.552 511.74 420.481 511.751 420.412C511.761 420.342 511.801 420.279 511.86 420.237C511.92 420.194 511.995 420.176 512.069 420.186C512.143 420.196 512.21 420.233 512.255 420.29C514.629 423.292 516.612 425.742 518.152 427.569C521.908 431.981 527.167 435.882 531.555 437.483C531.611 437.509 531.656 437.551 531.684 437.604C531.712 437.657 531.721 437.717 531.709 437.775C531.697 437.833 531.665 437.886 531.618 437.925C531.571 437.965 531.512 437.988 531.449 437.992H531.464Z" fill="black"/>
<path d="M558.609 437.399C558.571 437.397 558.535 437.388 558.501 437.373C558.468 437.357 558.438 437.336 558.414 437.309C558.389 437.283 558.37 437.252 558.359 437.219C558.347 437.186 558.343 437.15 558.346 437.115C558.699 432.378 557.016 428.455 554.394 424.03C550.827 418.186 546.386 412.856 541.21 408.203C541.15 408.162 541.11 408.1 541.099 408.031C541.087 407.962 541.106 407.892 541.15 407.835C541.193 407.779 541.259 407.741 541.332 407.731C541.406 407.72 541.48 407.737 541.54 407.779C547.175 410.887 566.594 419.526 581.394 418.45C581.463 418.454 581.527 418.481 581.576 418.526C581.626 418.572 581.655 418.632 581.661 418.697C581.666 418.761 581.647 418.826 581.606 418.878C581.566 418.93 581.506 418.967 581.439 418.981C566.587 420.05 548.707 411.949 543.058 409.159C547.656 413.528 551.633 418.441 554.89 423.775C557.564 428.285 559.277 432.272 558.917 437.158C558.909 437.228 558.872 437.293 558.815 437.338C558.757 437.383 558.683 437.405 558.609 437.399Z" fill="black"/>
<path d="M434.644 401.299C432.563 402.141 430.692 400.591 431.263 398.969C431.391 398.618 431.555 398.278 431.752 397.956C431.766 398.168 431.83 398.373 431.939 398.558C432.563 399.38 434.028 399.125 435.034 396.646C435.312 395.938 435.553 395.301 435.786 394.706C437.416 394.175 438.716 394.352 438.926 395.308C439.046 396.002 437.266 400.237 434.644 401.299Z" fill="#C15D31"/>
<path d="M433.472 401.802C432.796 401.811 432.141 401.578 431.639 401.15C431.31 400.874 431.074 400.512 430.961 400.111C430.847 399.709 430.861 399.285 431.001 398.891C431.135 398.523 431.306 398.167 431.512 397.829C431.541 397.78 431.586 397.742 431.64 397.719C431.694 397.696 431.754 397.69 431.812 397.702C431.87 397.712 431.924 397.739 431.964 397.78C432.005 397.821 432.03 397.873 432.037 397.928C432.044 398.093 432.088 398.255 432.165 398.403C432.242 398.512 432.349 398.598 432.475 398.653C432.601 398.708 432.741 398.73 432.879 398.714C433.555 398.629 434.261 397.829 434.78 396.59C435.02 396.009 435.253 395.379 435.531 394.664C435.544 394.625 435.566 394.59 435.596 394.56C435.626 394.531 435.663 394.508 435.704 394.494C436.147 394.301 436.628 394.196 437.116 394.184C437.604 394.172 438.09 394.253 438.543 394.423C438.715 394.514 438.864 394.638 438.98 394.789C439.095 394.939 439.175 395.112 439.212 395.294C439.407 396.193 437.469 400.499 434.795 401.582C434.375 401.741 433.924 401.815 433.472 401.802ZM431.692 398.679C431.637 398.806 431.587 398.931 431.542 399.054C431.436 399.351 431.426 399.671 431.513 399.974C431.6 400.276 431.78 400.547 432.03 400.754C432.373 401.03 432.794 401.205 433.241 401.258C433.688 401.31 434.142 401.239 434.547 401.051C437.093 400.017 438.746 395.882 438.633 395.386C438.615 395.277 438.569 395.173 438.5 395.083C438.431 394.993 438.34 394.92 438.235 394.869C437.503 394.616 436.695 394.642 435.982 394.94C435.749 395.613 435.523 396.208 435.298 396.767C434.697 398.24 433.84 399.153 432.946 399.259C432.71 399.289 432.469 399.255 432.251 399.163C432.034 399.07 431.848 398.922 431.714 398.735L431.692 398.679Z" fill="black"/>
<path d="M432.761 399.245C432.552 399.245 432.346 399.196 432.162 399.103C431.977 399.011 431.819 398.877 431.702 398.714C431.562 398.5 431.48 398.257 431.461 398.006C431.266 396.661 431.379 393.58 431.649 388.716C431.651 388.681 431.66 388.648 431.676 388.616C431.692 388.585 431.714 388.557 431.741 388.534C431.768 388.511 431.8 388.494 431.835 388.482C431.869 388.471 431.906 388.466 431.942 388.468C431.979 388.47 432.015 388.478 432.047 388.493C432.08 388.508 432.11 388.529 432.134 388.554C432.159 388.58 432.178 388.61 432.19 388.643C432.202 388.675 432.207 388.71 432.205 388.744C431.942 393.58 431.822 396.632 432.017 397.949C432.024 398.114 432.068 398.276 432.145 398.424C432.222 398.533 432.329 398.62 432.455 398.675C432.581 398.73 432.721 398.751 432.859 398.735C433.535 398.65 434.241 397.85 434.759 396.611C435 396.03 435.233 395.4 435.511 394.685C436.044 393.134 436.322 392.001 436.322 391.987C436.34 391.919 436.386 391.861 436.45 391.824C436.517 391.799 436.592 391.799 436.66 391.824C438.058 392.042 439.493 391.823 440.747 391.201C442.301 390.381 443.755 389.403 445.082 388.284C445.136 388.236 445.209 388.21 445.284 388.213C445.358 388.216 445.429 388.246 445.48 388.298C445.531 388.35 445.557 388.418 445.555 388.488C445.552 388.559 445.519 388.625 445.465 388.673C444.104 389.829 442.61 390.836 441.01 391.676C439.72 392.311 438.254 392.558 436.81 392.384C436.698 392.801 436.442 393.729 436.059 394.876C435.811 395.584 435.578 396.236 435.308 396.831C434.707 398.303 433.85 399.217 432.956 399.323L432.761 399.245Z" fill="black"/>
<path d="M423.939 355.831C423.866 355.821 423.8 355.784 423.755 355.728C423.711 355.673 423.69 355.603 423.699 355.534L429.236 315.675C429.247 315.606 429.286 315.544 429.345 315.501C429.404 315.459 429.478 315.44 429.551 315.448L456.799 318.812C456.862 318.831 456.916 318.871 456.951 318.925C456.986 318.978 457.001 319.041 456.992 319.103C456.983 319.165 456.951 319.222 456.902 319.265C456.853 319.307 456.79 319.332 456.724 319.336L429.754 316.008L424.255 355.605C424.25 355.639 424.238 355.673 424.22 355.703C424.202 355.733 424.177 355.759 424.148 355.78C424.118 355.802 424.085 355.817 424.049 355.826C424.013 355.834 423.976 355.836 423.939 355.831Z" fill="#F6EEE8"/>
<path d="M474.079 268.408V267.842C474.244 267.842 474.417 267.884 474.597 267.891C474.366 268.001 474.183 268.184 474.079 268.408Z" fill="#E4D0C0"/>
<path d="M399.607 253.418V255.089C402.026 256.102 407.743 257.829 406.436 259.925C407.991 260.166 409.163 262.276 406.721 263.416C407.127 264.833 405.406 266.213 403.881 266.086C404.017 267.29 402.567 268.522 400.358 268.295C397.916 268.04 397.593 265.654 398.728 265.35C398.323 265.225 397.96 265.002 397.675 264.703C397.391 264.404 397.196 264.04 397.109 263.647C397.022 263.254 397.047 262.846 397.181 262.465C397.314 262.084 397.553 261.743 397.871 261.476C396.669 261.391 396.459 258.573 398.172 257.829C396.699 257.029 396.632 253.63 399.607 253.418Z" fill="#FF9C8B"/>
<path d="M312.16 262.362C312.099 262.363 312.04 262.346 311.991 262.313C311.942 262.279 311.906 262.232 311.888 262.177C311.87 262.123 311.872 262.064 311.892 262.011C311.913 261.957 311.951 261.912 312.002 261.88C313.431 260.936 314.959 260.132 316.562 259.48C316.633 259.456 316.71 259.46 316.778 259.491C316.846 259.522 316.898 259.576 316.922 259.643C316.947 259.71 316.943 259.783 316.911 259.847C316.878 259.91 316.82 259.959 316.75 259.983C315.196 260.622 313.714 261.404 312.325 262.319C312.276 262.35 312.218 262.365 312.16 262.362Z" fill="black"/>
<path d="M314.01 264.677C313.954 264.675 313.9 264.657 313.854 264.626C313.808 264.594 313.774 264.551 313.754 264.501C313.735 264.45 313.732 264.396 313.746 264.344C313.759 264.293 313.788 264.246 313.83 264.21C315.025 263.247 317.902 261.923 318.232 261.987C318.273 261.995 318.312 262.011 318.345 262.034C318.379 262.057 318.407 262.087 318.428 262.121C318.463 262.182 318.472 262.254 318.453 262.322C318.433 262.389 318.386 262.447 318.323 262.482C318.283 262.491 318.242 262.491 318.202 262.482C316.773 263.024 315.425 263.738 314.191 264.607C314.142 264.65 314.078 264.675 314.01 264.677Z" fill="black"/>
<path d="M316.099 267.262C316.043 267.26 315.99 267.242 315.945 267.211C315.9 267.181 315.865 267.139 315.845 267.09C315.825 267.041 315.821 266.988 315.833 266.936C315.844 266.885 315.872 266.838 315.911 266.802C317.102 265.986 318.358 265.257 319.667 264.621C319.733 264.588 319.81 264.581 319.881 264.601C319.952 264.622 320.012 264.668 320.047 264.73C320.082 264.792 320.089 264.865 320.067 264.932C320.045 264.999 319.996 265.055 319.93 265.088C318.67 265.713 317.46 266.423 316.309 267.212C316.279 267.233 316.246 267.249 316.209 267.257C316.173 267.266 316.136 267.267 316.099 267.262Z" fill="black"/>
<path d="M311.056 272.212C310.982 272.211 310.912 272.183 310.861 272.134C309.43 270.85 307.556 270.095 305.583 270.008C303.61 269.921 301.67 270.507 300.118 271.659C300.09 271.689 300.056 271.712 300.017 271.727C299.979 271.743 299.937 271.75 299.895 271.748C299.854 271.747 299.813 271.737 299.776 271.719C299.738 271.701 299.706 271.676 299.68 271.645C299.655 271.614 299.636 271.578 299.627 271.54C299.618 271.501 299.617 271.461 299.626 271.423C299.635 271.385 299.653 271.348 299.678 271.317C299.703 271.286 299.735 271.26 299.772 271.242C301.432 270.01 303.508 269.384 305.618 269.479C307.728 269.574 309.731 270.383 311.259 271.758C311.3 271.795 311.328 271.842 311.34 271.893C311.352 271.945 311.347 271.999 311.326 272.048C311.305 272.097 311.269 272.139 311.222 272.168C311.175 272.198 311.12 272.213 311.063 272.212H311.056Z" fill="black"/>
<path d="M310.541 305.449C310.471 305.449 310.404 305.424 310.353 305.379C302.938 298.942 297.229 292.286 296.372 290.671C296.339 290.608 296.334 290.536 296.358 290.469C296.382 290.403 296.433 290.348 296.5 290.317C296.567 290.286 296.644 290.282 296.714 290.304C296.785 290.327 296.843 290.375 296.875 290.438C297.559 291.719 302.885 298.142 310.736 304.989C310.779 305.024 310.81 305.071 310.824 305.124C310.838 305.176 310.834 305.231 310.814 305.282C310.793 305.332 310.757 305.375 310.709 305.405C310.662 305.435 310.605 305.451 310.548 305.449H310.541Z" fill="black"/>
<path d="M382.576 334.85C382.526 334.85 382.477 334.838 382.433 334.815C380.179 333.519 375.672 330.509 375.597 330.481C375.551 330.436 375.523 330.377 375.518 330.315C375.513 330.253 375.531 330.191 375.569 330.139C375.607 330.088 375.663 330.051 375.727 330.035C375.791 330.018 375.859 330.023 375.92 330.049C375.965 330.049 380.427 333.073 382.726 334.362C382.777 334.392 382.817 334.438 382.839 334.491C382.861 334.545 382.864 334.604 382.848 334.659C382.832 334.714 382.798 334.763 382.75 334.799C382.703 334.835 382.644 334.855 382.583 334.857L382.576 334.85Z" fill="black"/>
<path d="M380.112 340.118C380.07 340.128 380.026 340.128 379.984 340.118C377.425 338.86 374.958 337.44 372.6 335.87C372.555 335.823 372.529 335.762 372.527 335.699C372.524 335.636 372.546 335.574 372.587 335.525C372.628 335.475 372.687 335.44 372.752 335.427C372.818 335.414 372.886 335.423 372.945 335.452C375.28 336.993 377.719 338.389 380.247 339.63C380.308 339.654 380.358 339.698 380.387 339.753C380.417 339.808 380.425 339.872 380.41 339.932C380.394 339.993 380.357 340.046 380.304 340.083C380.251 340.119 380.185 340.137 380.12 340.133L380.112 340.118Z" fill="black"/>
<path d="M377.541 344.884H377.443C375.94 344.388 372.289 343.05 369.93 341.301C369.872 341.258 369.834 341.194 369.824 341.125C369.815 341.055 369.836 340.985 369.882 340.929C369.927 340.874 369.995 340.838 370.069 340.829C370.143 340.821 370.217 340.84 370.276 340.883C372.555 342.37 375.043 343.55 377.668 344.388C377.728 344.412 377.778 344.454 377.809 344.508C377.84 344.561 377.85 344.623 377.839 344.684C377.828 344.744 377.795 344.798 377.746 344.839C377.697 344.879 377.635 344.902 377.571 344.905L377.541 344.884Z" fill="black"/>
<path d="M298.766 446.419C298.705 446.417 298.647 446.397 298.599 446.361C298.551 446.325 298.517 446.276 298.501 446.221C298.485 446.166 298.488 446.107 298.51 446.053C298.532 446 298.572 445.954 298.623 445.924C299.975 445.293 301.445 444.92 302.95 444.826C302.987 444.823 303.025 444.827 303.06 444.838C303.095 444.849 303.128 444.867 303.156 444.89C303.184 444.913 303.207 444.941 303.223 444.973C303.24 445.005 303.249 445.039 303.251 445.074C303.254 445.109 303.249 445.144 303.238 445.177C303.226 445.211 303.207 445.242 303.183 445.268C303.158 445.294 303.128 445.316 303.095 445.331C303.061 445.347 303.025 445.355 302.988 445.357C301.571 445.45 300.186 445.799 298.909 446.384C298.865 446.407 298.816 446.42 298.766 446.419Z" fill="black"/>
<path d="M302.23 448.076C302.164 448.081 302.099 448.063 302.046 448.026C301.993 447.99 301.955 447.936 301.94 447.876C301.924 447.816 301.932 447.752 301.962 447.697C301.992 447.641 302.041 447.598 302.102 447.573C303.315 447.088 304.572 446.709 305.858 446.441C305.931 446.425 306.008 446.436 306.071 446.474C306.134 446.511 306.179 446.57 306.196 446.639C306.213 446.707 306.201 446.779 306.161 446.839C306.122 446.899 306.059 446.941 305.986 446.957C304.755 447.221 303.551 447.586 302.388 448.048C302.339 448.072 302.284 448.082 302.23 448.076Z" fill="black"/>
<path d="M181.51 441.214C181.471 441.222 181.43 441.222 181.39 441.214C180.384 440.759 179.332 440.401 178.25 440.145C178.208 440.147 178.166 440.141 178.127 440.126C178.088 440.111 178.053 440.088 178.025 440.059C177.996 440.03 177.975 439.995 177.962 439.957C177.95 439.92 177.946 439.88 177.952 439.84C177.957 439.801 177.972 439.764 177.995 439.73C178.018 439.697 178.048 439.669 178.084 439.648C178.119 439.627 178.159 439.614 178.201 439.609C178.243 439.605 178.285 439.609 178.325 439.621C179.465 439.881 180.573 440.253 181.63 440.733C181.69 440.757 181.739 440.8 181.769 440.855C181.798 440.909 181.807 440.972 181.792 441.031C181.778 441.091 181.742 441.144 181.691 441.182C181.639 441.219 181.575 441.238 181.51 441.236V441.214Z" fill="black"/>
<path d="M180.624 444.047H180.526C179.6 443.712 178.638 443.475 177.657 443.339C177.62 443.337 177.583 443.329 177.55 443.313C177.516 443.298 177.486 443.276 177.462 443.25C177.437 443.224 177.418 443.193 177.407 443.159C177.395 443.126 177.391 443.091 177.394 443.056C177.4 442.986 177.434 442.921 177.49 442.874C177.547 442.828 177.62 442.804 177.694 442.808C178.721 442.936 179.729 443.174 180.699 443.516C180.772 443.528 180.837 443.567 180.879 443.624C180.921 443.681 180.938 443.752 180.925 443.821C180.912 443.889 180.87 443.95 180.81 443.99C180.749 444.03 180.674 444.045 180.602 444.033L180.624 444.047Z" fill="black"/>
<path d="M496.006 209.26C495.969 209.258 495.933 209.248 495.899 209.232C495.866 209.216 495.837 209.193 495.813 209.166C495.789 209.139 495.771 209.108 495.761 209.074C495.75 209.04 495.747 209.005 495.751 208.97V208.609C495.893 206.853 496.322 201.528 498.681 197.931C498.724 197.879 498.787 197.845 498.856 197.834C498.924 197.823 498.995 197.836 499.055 197.871C499.114 197.906 499.157 197.96 499.177 198.023C499.197 198.087 499.191 198.154 499.161 198.214C496.908 201.698 496.457 206.931 496.314 208.651V209.02C496.307 209.09 496.27 209.154 496.212 209.199C496.155 209.244 496.081 209.266 496.006 209.26Z" fill="black"/>
<path d="M507.201 250.097C507.126 250.097 507.055 250.069 507.002 250.02C506.949 249.97 506.919 249.902 506.919 249.832C506.919 249.761 506.949 249.694 507.002 249.644C507.055 249.594 507.126 249.566 507.201 249.566C507.314 249.566 518.665 248.858 523.773 249.361C523.847 249.37 523.913 249.405 523.959 249.459C524.006 249.513 524.028 249.582 524.021 249.651C524.01 249.719 523.972 249.781 523.915 249.825C523.858 249.868 523.786 249.889 523.713 249.885C518.65 249.368 507.351 250.083 507.238 250.09L507.201 250.097Z" fill="black"/>
<path d="M470.381 333.527C470.312 333.525 470.247 333.501 470.196 333.458C470.145 333.415 470.112 333.357 470.103 333.293L465.663 298.235L460.607 296.705C460.536 296.683 460.477 296.636 460.444 296.574C460.41 296.511 460.404 296.439 460.426 296.372C460.449 296.306 460.499 296.25 460.566 296.218C460.632 296.186 460.709 296.181 460.78 296.202L466.038 297.781C466.09 297.796 466.136 297.825 466.171 297.864C466.205 297.903 466.227 297.95 466.234 298.001L470.696 333.229C470.705 333.299 470.683 333.37 470.637 333.426C470.591 333.481 470.523 333.518 470.448 333.527H470.381Z" fill="black"/>
<path d="M404.739 260.28C402.289 260.218 399.923 259.427 397.978 258.021C397.941 258.002 397.909 257.977 397.884 257.945C397.858 257.914 397.841 257.878 397.832 257.839C397.823 257.801 397.824 257.761 397.833 257.723C397.842 257.684 397.86 257.648 397.886 257.617C397.912 257.586 397.944 257.561 397.981 257.543C398.019 257.525 398.06 257.515 398.101 257.514C398.143 257.512 398.184 257.52 398.223 257.535C398.261 257.551 398.296 257.574 398.324 257.603C400.173 258.927 402.417 259.67 404.739 259.727C404.806 259.738 404.867 259.77 404.911 259.819C404.954 259.867 404.979 259.929 404.979 259.993C404.979 260.057 404.954 260.118 404.911 260.167C404.867 260.216 404.806 260.248 404.739 260.258V260.28Z" fill="black"/>
<path d="M404.775 263.374C402.31 263.453 399.871 262.871 397.743 261.696C397.71 261.681 397.68 261.659 397.656 261.633C397.632 261.607 397.613 261.577 397.601 261.544C397.59 261.511 397.585 261.476 397.587 261.442C397.589 261.407 397.599 261.373 397.615 261.342C397.632 261.311 397.654 261.283 397.682 261.26C397.71 261.237 397.742 261.22 397.777 261.208C397.812 261.197 397.848 261.193 397.885 261.195C397.922 261.197 397.958 261.206 397.991 261.222C400.12 262.39 402.562 262.953 405.023 262.843C405.165 262.843 405.308 262.956 405.308 263.105C405.309 263.14 405.303 263.175 405.289 263.208C405.276 263.24 405.255 263.27 405.229 263.295C405.203 263.32 405.173 263.34 405.138 263.354C405.104 263.367 405.067 263.374 405.03 263.374H404.775Z" fill="black"/>
<path d="M403.886 266.334C402.123 266.281 400.373 266.031 398.673 265.591C398.601 265.573 398.54 265.529 398.502 265.469C398.465 265.408 398.455 265.336 398.474 265.269C398.493 265.201 398.539 265.143 398.603 265.108C398.667 265.073 398.744 265.063 398.815 265.081C400.48 265.506 402.192 265.743 403.916 265.789C403.983 265.799 404.044 265.832 404.088 265.88C404.132 265.929 404.156 265.991 404.156 266.055C404.156 266.118 404.132 266.18 404.088 266.229C404.044 266.277 403.983 266.31 403.916 266.32L403.886 266.334Z" fill="black"/>
<path d="M504.61 268.288C502.206 268.437 497.556 268.777 496.346 269.223C491.476 271.016 486.38 272.206 481.186 272.764C478.181 272.997 476.513 271.347 477.212 270.852H476.889C473.801 270.668 473.388 268.444 474.59 267.871C471.405 267.701 470.931 265.534 472.426 264.762C467.776 264.366 468.355 262.177 471.39 261.873C477.738 261.236 484.071 259.678 486.272 258.332C489.164 256.583 487.94 255.238 486.482 254.353C485.025 253.468 479.24 253.22 478.872 251.945C478.504 250.671 479.451 250.324 481.532 250.147C484.784 249.948 488.046 249.948 491.298 250.147C494.836 250.342 498.383 250.342 501.92 250.147C504.279 252.816 504.768 261.207 504.61 268.288Z" fill="#FF9C8B"/>
<path d="M473.034 265.074C472.793 265.074 472.575 265.074 472.38 265.074C472.343 265.071 472.308 265.062 472.275 265.046C472.242 265.03 472.213 265.009 472.19 264.982C472.166 264.956 472.148 264.926 472.137 264.893C472.126 264.86 472.121 264.825 472.125 264.791C472.132 264.722 472.168 264.658 472.224 264.614C472.28 264.569 472.352 264.546 472.425 264.55C474.574 264.72 479.186 263.92 484.791 262.426C484.862 262.406 484.939 262.414 485.005 262.448C485.07 262.482 485.119 262.539 485.14 262.606C485.161 262.674 485.152 262.747 485.116 262.808C485.081 262.87 485.02 262.916 484.948 262.935C479.795 264.281 475.438 265.074 473.034 265.074Z" fill="black"/>
<path d="M474.987 268.168H474.558C474.484 268.162 474.415 268.129 474.366 268.076C474.316 268.024 474.291 267.955 474.295 267.884C474.297 267.849 474.307 267.815 474.323 267.783C474.339 267.752 474.362 267.724 474.39 267.7C474.418 267.677 474.451 267.66 474.486 267.649C474.521 267.638 474.559 267.634 474.596 267.636C476.376 267.736 483.468 267.056 486.578 265.293C486.61 265.275 486.645 265.262 486.681 265.257C486.718 265.252 486.755 265.253 486.791 265.261C486.827 265.27 486.861 265.284 486.891 265.305C486.921 265.326 486.946 265.351 486.965 265.381C486.984 265.411 486.997 265.444 487.003 265.478C487.009 265.513 487.007 265.548 486.998 265.582C486.99 265.616 486.974 265.648 486.952 265.676C486.93 265.704 486.903 265.728 486.871 265.746C483.844 267.467 477.353 268.168 474.987 268.168Z" fill="black"/>
<path d="M476.866 271.121C476.799 271.111 476.739 271.078 476.695 271.03C476.651 270.981 476.627 270.919 476.627 270.856C476.627 270.792 476.651 270.73 476.695 270.681C476.739 270.633 476.799 270.6 476.866 270.59C481.051 270.59 486.828 268.961 487.534 268.529C487.597 268.491 487.673 268.477 487.746 268.492C487.82 268.507 487.884 268.548 487.925 268.607C487.966 268.666 487.98 268.738 487.964 268.808C487.949 268.877 487.905 268.937 487.842 268.976C487.016 269.5 481.141 271.121 476.866 271.121Z" fill="black"/>
</svg>
