<svg width="44" height="44" viewBox="0 0 44 44" fill="none" xmlns="http://www.w3.org/2000/svg">
<rect x="0.5" y="0.0410156" width="43.0423" height="43.0423" rx="21.5211" fill="#C7E2FE"/>
<path d="M36.1782 19.3101L33.3177 13.5868C33.2123 13.3762 33.0665 13.1884 32.8885 13.0341C32.7105 12.8798 32.5039 12.7621 32.2804 12.6876C32.0569 12.6132 31.821 12.5836 31.586 12.6003C31.3511 12.6171 31.1218 12.68 30.9111 12.7854L28.1235 14.1787L22.2511 12.6251C22.1004 12.5859 21.9422 12.5859 21.7915 12.6251L15.9192 14.1787L13.1315 12.7854C12.9209 12.68 12.6915 12.6171 12.4566 12.6003C12.2216 12.5836 11.9857 12.6132 11.7622 12.6876C11.5388 12.7621 11.3321 12.8798 11.1541 13.0341C10.9762 13.1884 10.8303 13.3762 10.725 13.5868L7.86443 19.309C7.75902 19.5196 7.69613 19.749 7.67936 19.9839C7.66258 20.2189 7.69226 20.4548 7.76668 20.6783C7.8411 20.9018 7.95882 21.1084 8.1131 21.2864C8.26738 21.4643 8.45522 21.6102 8.66587 21.7156L11.6923 23.2299L17.9121 27.672C18.0038 27.7372 18.1068 27.7847 18.2159 27.8121L25.3896 29.6055C25.5398 29.6432 25.6973 29.6413 25.8465 29.6001C25.9958 29.5588 26.1319 29.4796 26.2415 29.3701L30.725 24.8866L32.4154 23.1963L35.3768 21.7156C35.8019 21.5027 36.1251 21.1298 36.2754 20.6787C36.4257 20.2277 36.3907 19.7354 36.1782 19.3101ZM30.0256 23.0505L26.1686 19.9614C25.9958 19.823 25.778 19.7534 25.5569 19.766C25.3359 19.7787 25.1274 19.8726 24.9715 20.0297C22.9752 22.0406 20.7502 21.7862 19.3312 20.8895L24.1779 16.1817H27.7435L30.7934 22.2805L30.0256 23.0505ZM25.3324 27.7426L18.8178 26.1139L13.303 22.1751L16.4415 15.8981L22.0213 14.4197L23.1198 14.71L18.0758 19.606L18.0668 19.6161C17.8769 19.806 17.7321 20.0361 17.643 20.2894C17.554 20.5427 17.5229 20.8128 17.5522 21.0797C17.5815 21.3466 17.6703 21.6036 17.8121 21.8316C17.954 22.0596 18.1452 22.2528 18.3717 22.3971C20.6762 23.8688 23.4572 23.63 25.6474 21.8366L28.7467 24.3261L25.3324 27.7426ZM22.4495 31.6433C22.401 31.8371 22.2893 32.0092 22.1319 32.1323C21.9745 32.2553 21.7806 32.3223 21.5808 32.3226C21.5071 32.3225 21.4337 32.3134 21.3622 32.2957L16.687 31.1266C16.5777 31.0996 16.4746 31.0521 16.3832 30.9865L13.4297 28.8769C13.2481 28.7344 13.1285 28.5272 13.0958 28.2986C13.0631 28.0701 13.1198 27.8377 13.2541 27.6499C13.3885 27.4621 13.5901 27.3334 13.8169 27.2905C14.0438 27.2477 14.2785 27.294 14.4721 27.4198L17.2867 29.4307L21.7971 30.556C22.0278 30.6137 22.2261 30.7607 22.3484 30.9646C22.4708 31.1685 22.5071 31.4126 22.4495 31.6433Z" fill="#343330"/>
</svg>
