<svg width="38" height="38" viewBox="0 0 38 38" fill="none" xmlns="http://www.w3.org/2000/svg">
<rect x="0.0244141" width="37.5921" height="37.5921" rx="18.7961" fill="#C7E2FE"/>
<path d="M18.8206 18.7958C20.8889 18.7958 22.5652 17.1195 22.5652 15.0512C22.5652 12.9829 20.8889 11.3066 18.8206 11.3066C16.7523 11.3066 15.076 12.9829 15.076 15.0512C15.076 17.1195 16.7523 18.7958 18.8206 18.7958ZM21.4418 19.7319H20.9532C20.3038 20.0303 19.5812 20.2 18.8206 20.2C18.06 20.2 17.3403 20.0303 16.6879 19.7319H16.1994C14.0287 19.7319 12.2676 21.4931 12.2676 23.6638V24.8807C12.2676 25.656 12.8966 26.285 13.6718 26.285H23.9694C24.7446 26.285 25.3736 25.656 25.3736 24.8807V23.6638C25.3736 21.4931 23.6125 19.7319 21.4418 19.7319Z" fill="#343330"/>
</svg>
