<svg width="38" height="39" viewBox="0 0 38 39" fill="none" xmlns="http://www.w3.org/2000/svg">
<rect y="0.697266" width="37.5921" height="37.5921" rx="18.7961" fill="#C7E2FE"/>
<path d="M18.7959 22.9252C20.7114 22.9252 22.2643 21.3723 22.2643 19.4567C22.2643 17.5412 20.7114 15.9883 18.7959 15.9883C16.8803 15.9883 15.3274 17.5412 15.3274 19.4567C15.3274 21.3723 16.8803 22.9252 18.7959 22.9252Z" stroke="black" stroke-width="1.5663"/>
<path d="M20.9723 22.746C20.8131 22.5827 20.7246 22.3632 20.7261 22.1351C20.7276 21.9071 20.8188 21.6887 20.9801 21.5275C21.1414 21.3662 21.3597 21.2749 21.5878 21.2735C21.8159 21.272 22.0353 21.3604 22.1987 21.5197L25.1258 24.4469C25.2862 24.61 25.3757 24.8298 25.3748 25.0585C25.3738 25.2873 25.2825 25.5064 25.1208 25.6682C24.959 25.8299 24.7399 25.9212 24.5112 25.9221C24.2824 25.9231 24.0626 25.8336 23.8995 25.6731L20.9723 22.746Z" fill="black"/>
<path fill-rule="evenodd" clip-rule="evenodd" d="M19.1708 9.10534C18.9773 9.03325 18.7644 9.03258 18.5705 9.10346L10.6942 11.9829C10.5272 12.0439 10.383 12.1548 10.2812 12.3005C10.1793 12.4462 10.1247 12.6197 10.1248 12.7975V19.4201C10.1248 19.4565 10.1271 19.4931 10.1317 19.5292L10.9919 19.4201C10.7051 19.4563 10.4184 19.4926 10.1317 19.5292V19.5299L10.132 19.5314L10.1326 19.536L10.1346 19.5523C10.1467 19.6447 10.1598 19.737 10.1736 19.8291C10.2003 20.0116 10.2401 20.266 10.2917 20.5542C10.3925 21.1175 10.5468 21.8584 10.7517 22.4427C11.1685 23.6302 11.5306 24.2917 12.2274 25.3091C13.013 26.456 13.5681 27.1445 14.73 28.0287C15.2493 28.4238 15.8532 28.816 16.7001 29.2045C17.0494 29.3646 17.5136 29.5379 17.8717 29.6655C18.0841 29.7411 18.2973 29.8145 18.5112 29.8858L18.5215 29.8892L18.5244 29.8901L18.5252 29.8904H18.5255C18.6992 29.9474 18.8866 29.9481 19.0607 29.8923L19.0614 29.8921L19.0625 29.8917L19.0665 29.8902L19.0806 29.8859L19.1319 29.869C19.4014 29.7796 19.6692 29.6853 19.9352 29.586C20.4138 29.4074 21.0419 29.1545 21.5273 28.8863C22.0612 28.5914 22.3152 28.4313 22.856 28.0267C23.0355 27.8923 23.2173 27.7391 23.3965 27.5763L22.1686 26.3485C22.0555 26.4499 21.9382 26.5466 21.8169 26.6381C21.3422 26.9934 21.1553 27.1106 20.6888 27.3682C20.321 27.5714 19.7929 27.7881 19.3289 27.9613C19.1225 28.0382 18.9372 28.1037 18.7968 28.152C18.6995 28.1186 18.582 28.0777 18.4543 28.032C18.1014 27.9063 17.6984 27.7544 17.423 27.6281C16.7062 27.2994 16.211 26.9763 15.7801 26.6485C14.8151 25.9144 14.3811 25.3847 13.6581 24.329C13.0319 23.4148 12.746 22.8886 12.3879 21.8684C12.2314 21.4223 12.0966 20.7955 11.9987 20.2486C11.9471 19.9595 11.9011 19.6693 11.8609 19.3783L11.859 19.363V13.4035L18.8653 10.842L25.7327 13.3996V19.3552L25.7311 19.3652C25.6838 19.6667 25.6308 19.9673 25.5723 20.2668C25.4608 20.8334 25.3084 21.4942 25.1334 21.9808C25.1165 22.0282 25.0982 22.0769 25.0787 22.1268L26.3986 23.4468C26.5364 23.148 26.6661 22.8439 26.7656 22.5674C26.9864 21.9525 27.1589 21.1861 27.274 20.6011C27.3372 20.2785 27.3943 19.9547 27.4451 19.63L27.4543 19.5684L27.4569 19.5516L27.4577 19.5469L27.4578 19.5454V19.545L27.458 19.5448C27.4639 19.5036 27.4669 19.4618 27.4669 19.4201V12.7974C27.4669 12.6205 27.4129 12.4479 27.312 12.3026C27.2111 12.1574 27.0682 12.0465 26.9024 11.9847L19.1708 9.10534Z" fill="#343330"/>
</svg>
