<svg width="38" height="39" viewBox="0 0 38 39" fill="none" xmlns="http://www.w3.org/2000/svg">
<rect x="0.0244141" y="0.697266" width="37.5921" height="37.5921" rx="18.7961" fill="#C7E2FE"/>
<path d="M27.2006 16.4465C27.2006 11.7992 23.4293 8.06641 18.8205 8.06641C14.2117 8.06641 10.4404 11.8367 10.4404 16.4465C10.4404 19.6466 12.3828 22.4649 15.0118 23.8746L14.2492 30.921L18.8205 27.8737L23.3918 30.921L22.6303 23.8736C25.2957 22.4649 27.2006 19.6456 27.2006 16.4465ZM18.8205 24.064C17.8199 24.0644 16.829 23.8676 15.9045 23.4849C14.98 23.1022 14.14 22.541 13.4325 21.8335C12.7249 21.1259 12.1638 20.2859 11.7811 19.3614C11.3983 18.4369 11.2016 17.446 11.202 16.4454C11.202 12.2174 14.6299 8.82691 18.8205 8.82691C23.0111 8.82691 26.439 12.2549 26.439 16.4454C26.4426 17.4469 26.248 18.4392 25.8664 19.3651C25.4848 20.2911 24.9237 21.1324 24.2156 21.8405C23.5074 22.5487 22.6661 23.1097 21.7402 23.4913C20.8143 23.8729 19.822 24.0675 18.8205 24.064ZM22.2485 13.3223L23.3908 14.4646L18.2483 19.6071L15.3925 16.7503L16.5348 15.6079L18.2493 17.3225L22.2485 13.3223Z" fill="#343330"/>
</svg>
