<svg width="44" height="44" viewBox="0 0 44 44" fill="none" xmlns="http://www.w3.org/2000/svg">
<rect width="43.0423" height="43.0423" rx="21.5211" fill="#C7E2FE"/>
<path d="M30.4885 11.6582H12.5542C12.0785 11.6582 11.6224 11.8472 11.286 12.1835C10.9497 12.5198 10.7607 12.976 10.7607 13.4516V19.7286C10.7607 25.638 13.6213 29.2192 16.0211 31.183C18.6059 33.297 21.1772 34.0144 21.2893 34.0447C21.4434 34.0866 21.6059 34.0866 21.7601 34.0447C21.8722 34.0144 24.4401 33.297 27.0283 31.183C29.4214 29.2192 32.2819 25.638 32.2819 19.7286V13.4516C32.2819 12.976 32.0929 12.5198 31.7566 12.1835C31.4203 11.8472 30.9641 11.6582 30.4885 11.6582ZM26.6416 19.4663L20.3646 25.7433C20.2813 25.8267 20.1824 25.8929 20.0735 25.938C19.9647 25.9831 19.848 26.0063 19.7301 26.0063C19.6123 26.0063 19.4956 25.9831 19.3867 25.938C19.2779 25.8929 19.179 25.8267 19.0957 25.7433L16.4056 23.0532C16.2373 22.8849 16.1428 22.6567 16.1428 22.4188C16.1428 22.1808 16.2373 21.9526 16.4056 21.7844C16.5738 21.6161 16.802 21.5216 17.04 21.5216C17.2779 21.5216 17.5062 21.6161 17.6744 21.7844L19.7279 23.8412L25.3705 18.1975C25.4538 18.1142 25.5527 18.0481 25.6615 18.003C25.7704 17.9579 25.8871 17.9347 26.0049 17.9347C26.1227 17.9347 26.2394 17.9579 26.3482 18.003C26.4571 18.0481 26.556 18.1142 26.6393 18.1975C26.7226 18.2808 26.7887 18.3797 26.8338 18.4886C26.8789 18.5974 26.9021 18.7141 26.9021 18.8319C26.9021 18.9497 26.8789 19.0664 26.8338 19.1753C26.7887 19.2841 26.7226 19.383 26.6393 19.4663H26.6416Z" fill="#343330"/>
</svg>
