<svg width="44" height="44" viewBox="0 0 44 44" fill="none" xmlns="http://www.w3.org/2000/svg">
<rect x="0.5" y="0.957031" width="43.0423" height="43.0423" rx="21.5211" fill="#C7E2FE"/>
<path d="M35.2096 17.7337L31.6228 21.3206C31.4545 21.4888 31.2263 21.5834 30.9883 21.5834C30.7504 21.5834 30.5222 21.4888 30.3539 21.3206C30.1856 21.1523 30.0911 20.9241 30.0911 20.6862C30.0911 20.4482 30.1856 20.22 30.3539 20.0517L32.4107 17.996H30.9883C26.6538 17.996 25.7661 20.1257 24.6418 22.8248C23.484 25.6046 22.1703 28.7566 16.6409 28.7566H16.5288C16.3106 29.6019 15.7915 30.3386 15.069 30.8285C14.3464 31.3185 13.47 31.5282 12.6039 31.4181C11.7378 31.3081 10.9416 30.8861 10.3645 30.231C9.78739 29.5759 9.46899 28.7329 9.46899 27.8599C9.46899 26.9869 9.78739 26.1438 10.3645 25.4888C10.9416 24.8337 11.7378 24.4116 12.6039 24.3016C13.47 24.1916 14.3464 24.4012 15.069 24.8912C15.7915 25.3812 16.3106 26.1179 16.5288 26.9632H16.6409C20.9754 26.9632 21.8631 24.8335 22.9874 22.1344C24.1509 19.3545 25.459 16.2026 30.9883 16.2026H32.4107L30.3539 14.1469C30.1856 13.9786 30.0911 13.7504 30.0911 13.5124C30.0911 13.2745 30.1856 13.0463 30.3539 12.878C30.5222 12.7098 30.7504 12.6152 30.9883 12.6152C31.2263 12.6152 31.4545 12.7098 31.6228 12.878L35.2096 16.4649C35.293 16.5482 35.3591 16.6471 35.4043 16.7559C35.4494 16.8648 35.4726 16.9815 35.4726 17.0993C35.4726 17.2171 35.4494 17.3338 35.4043 17.4427C35.3591 17.5516 35.293 17.6505 35.2096 17.7337Z" fill="#343330"/>
</svg>
