<svg width="44" height="44" viewBox="0 0 44 44" fill="none" xmlns="http://www.w3.org/2000/svg">
<rect x="0.5" width="43.0423" height="43.0423" rx="21.5211" fill="#C7E2FE"/>
<path d="M36.1062 22.1553L32.5194 25.7422C32.4361 25.8256 32.3372 25.8917 32.2284 25.9368C32.1195 25.982 32.0028 26.0052 31.885 26.0052C31.7671 26.0052 31.6504 25.982 31.5416 25.9368C31.4327 25.8917 31.3338 25.8256 31.2505 25.7422L29.4571 23.9488C29.2888 23.7805 29.1943 23.5523 29.1943 23.3143C29.1943 23.0764 29.2888 22.8482 29.4571 22.6799C29.6254 22.5117 29.8536 22.4171 30.0915 22.4171C30.3295 22.4171 30.5577 22.5117 30.726 22.6799L31.885 23.84L34.8374 20.8865C35.0057 20.7182 35.2339 20.6237 35.4718 20.6237C35.7098 20.6237 35.938 20.7182 36.1062 20.8865C36.2745 21.0548 36.369 21.283 36.369 21.5209C36.369 21.7589 36.2745 21.9871 36.1062 22.1553ZM23.8145 24.8477C25.2202 23.9722 26.3026 22.6627 26.8977 21.1173C27.4929 19.5718 27.5686 17.8746 27.1133 16.2824C26.658 14.6901 25.6965 13.2895 24.3742 12.2924C23.052 11.2952 21.441 10.7559 19.7849 10.7559C18.1289 10.7559 16.5178 11.2952 15.1956 12.2924C13.8734 13.2895 12.9119 14.6901 12.4566 16.2824C12.0013 17.8746 12.0769 19.5718 12.6721 21.1173C13.2673 22.6627 14.3496 23.9722 15.7553 24.8477C13.4407 25.6055 11.358 27.0211 9.68343 29.0141C9.5738 29.1444 9.50354 29.3032 9.48088 29.472C9.45821 29.6408 9.48408 29.8126 9.55545 29.9672C9.62683 30.1218 9.74075 30.2529 9.88391 30.3451C10.0271 30.4374 10.1935 30.487 10.3638 30.4881H29.1948C29.3657 30.4882 29.533 30.4396 29.6772 30.3478C29.8213 30.2561 29.9363 30.1251 30.0085 29.9702C30.0807 29.8153 30.1071 29.6431 30.0847 29.4737C30.0623 29.3043 29.9919 29.1448 29.8819 29.0141C28.2062 27.0211 26.1236 25.6055 23.8145 24.8477Z" fill="#343330"/>
</svg>
