<svg width="58" height="33" viewBox="0 0 58 33" fill="none" xmlns="http://www.w3.org/2000/svg">
<path d="M7.19844 23.5C7.49844 23.1 7.69844 22.7 7.99844 22.4C8.19844 22.1 8.49844 21.8 8.69844 21.5C8.89844 21.2 9.09844 20.9 9.29844 20.7C9.59844 20.4 9.89844 20 10.1984 19.7C10.3984 19.4 10.6984 19.1 10.8984 18.8C10.9984 18.7 10.9984 18.7 11.0984 18.6C11.2984 18.4 11.4984 18.2 11.5984 18C12.0984 17.5 12.5984 17 13.0984 16.5C13.4984 16.1 13.8984 15.7 14.2984 15.4C14.4984 15.2 14.6984 15 14.9984 14.8C15.6984 14.2 16.3984 13.7 17.0984 13.1C17.6984 12.6 18.3984 12.1 19.0984 11.6C19.6984 11.2 20.3984 10.8 20.9984 10.4C21.1984 10.2 21.4984 10.1 21.6984 9.90001C22.0984 9.70001 22.4984 9.40002 22.8984 9.20002C23.1984 9.00002 23.5984 8.80002 23.8984 8.60002C24.1984 8.40002 24.4984 8.30002 24.7984 8.10002C25.1984 7.90002 25.5984 7.70001 26.0984 7.40001C26.2984 7.30001 26.5984 7.20002 26.7984 7.10002C27.4984 6.80002 28.1984 6.40001 28.9984 6.10001C29.4984 5.90001 29.9984 5.70001 30.4984 5.50001C30.7984 5.40001 31.0984 5.30002 31.3984 5.20002C32.2984 4.90002 33.0984 4.60001 33.9984 4.30001C34.1984 4.20001 34.3984 4.20002 34.5984 4.10002C35.0984 4.00002 35.6984 3.80002 36.1984 3.70002C36.6984 3.60002 37.1984 3.50001 37.6984 3.30001C38.7984 3.10001 39.8984 2.90001 40.9984 2.80001C42.0984 2.70001 43.0984 2.70002 44.1984 2.60002C45.6984 2.50002 47.0984 2.60002 48.5984 2.70002C49.4984 2.80002 50.4984 2.90001 51.3984 3.00001C52.2984 3.20001 53.1984 3.40002 54.0984 3.70002H54.1984C54.3984 3.80002 54.4984 4.00001 54.3984 4.20001C54.3984 4.40001 54.0984 4.60001 53.8984 4.50001C52.4984 4.10001 51.1984 3.80002 49.7984 3.70002C47.8984 3.50002 45.9984 3.50002 43.9984 3.70002C43.3984 3.70002 42.7984 3.80001 42.2984 3.80001C41.4984 3.90001 40.6984 4.00002 39.8984 4.10002C39.3984 4.20002 38.8984 4.30001 38.2984 4.40001C37.8984 4.50001 37.4984 4.60002 37.1984 4.70002C36.7984 4.80002 36.2984 5.00001 35.8984 5.10001C35.4984 5.20001 35.0984 5.30001 34.6984 5.50001C34.3984 5.60001 34.1984 5.70001 33.8984 5.80001C33.3984 6.00001 32.8984 6.20001 32.2984 6.40001C32.0984 6.50001 31.8984 6.50002 31.6984 6.60002C30.8984 6.90002 30.1984 7.30002 29.3984 7.60002C28.6984 8.00002 27.8984 8.30002 27.1984 8.70002C26.9984 8.80002 26.6984 8.90002 26.4984 9.10002C25.9984 9.40002 25.5984 9.60001 25.0984 9.90001C24.3984 10.3 23.7984 10.7 23.0984 11.1C22.4984 11.5 21.7984 11.9 21.1984 12.3C20.9984 12.5 20.6984 12.6 20.4984 12.8C20.2984 12.9 20.1984 13 19.9984 13.2C19.4984 13.6 18.9984 14 18.3984 14.3C17.7984 14.8 17.0984 15.4 16.4984 15.9C15.8984 16.4 15.3984 16.9 14.8984 17.4C14.5984 17.6 14.3984 17.9 14.0984 18.1C13.9984 18 13.9984 18.1 13.8984 18.2C13.6984 18.4 13.5984 18.6 13.3984 18.7C12.8984 19.2 12.3984 19.8 11.8984 20.3C11.5984 20.6 11.2984 21 10.9984 21.3C10.8984 21.5 10.6984 21.6 10.5984 21.8C10.1984 22.3 9.79844 22.9 9.39844 23.4C9.09844 23.9 8.69844 24.3 8.39844 24.8C7.99844 25.4 7.59844 26 7.19844 26.7C7.09844 26.9 6.89844 27.2 6.79844 27.4C7.29844 27.1 7.79844 26.8 8.29844 26.5C8.89844 26.1 9.59844 25.8 10.2984 25.4C10.6984 25.2 11.0984 25 11.3984 24.8C11.7984 24.6 12.2984 24.4 12.6984 24.2C13.1984 24 13.7984 23.8 14.2984 23.6C14.4984 23.5 14.6984 23.5 14.8984 23.4C15.1984 23.3 15.4984 23.2 15.6984 23.1C16.2984 22.9 16.8984 22.8 17.4984 22.6C17.7984 22.5 17.9984 22.5 18.2984 22.4C18.6984 22.3 19.0984 22.3 19.4984 22.2C19.6984 22.2 19.9984 22.2 20.1984 22.3C20.2984 22.3 20.2984 22.3 20.3984 22.4C20.5984 22.5 20.6984 22.5 20.7984 22.6C20.8984 22.7 20.9984 22.8 21.0984 22.9C21.1984 23.1 21.2984 23.3 21.1984 23.5C21.0984 24 20.5984 24.2 20.1984 24.1H20.0984C19.7984 24.1 19.4984 24.1 19.0984 24.2C18.4984 24.3 17.7984 24.5 17.1984 24.6C16.8984 24.7 16.4984 24.8 16.1984 24.9C15.8984 25 15.4984 25.1 15.1984 25.2C14.5984 25.4 13.9984 25.6 13.3984 25.9C13.0984 26 12.8984 26.1 12.5984 26.2C12.3984 26.3 12.0984 26.4 11.8984 26.5C11.3984 26.8 10.7984 27 10.2984 27.4C9.59844 27.8 8.99844 28.1 8.39844 28.5C7.89844 28.8 7.29844 29.2 6.79844 29.5C6.49844 29.7 6.19844 29.9 5.89844 30.1C5.49844 30.4 5.09844 30.7 4.59844 30.8C4.29844 30.9 3.89844 30.8 3.69844 30.6C3.49844 30.4 3.39844 30.1 3.39844 29.9C3.29844 29.9 3.29844 29.8 3.19844 29.8C2.99844 29.6 2.89844 29.4 2.89844 29.2C2.99844 26.8 3.09844 24.4 3.19844 21.9C3.29844 19.9 3.19844 18 3.09844 16C2.99844 15.1 2.99844 14.1 2.89844 13.2C2.89844 12.7 3.29844 12.3 3.69844 12.3C3.89844 12.3 3.99844 12.3 4.19844 12.4C4.29844 12.4 4.29844 12.5 4.39844 12.5C4.59844 12.7 4.59844 12.9 4.69844 13.1C4.79844 13.7 4.89844 14.2 4.99844 14.8C5.09844 15.3 5.09844 15.8 5.09844 16.3C5.19844 17.4 5.19844 18.4 5.19844 19.5C5.19844 20.4 5.19844 21.3 5.09844 22.2C5.09844 23.2 4.99844 24.3 4.99844 25.3C4.99844 25.7 4.99844 26.2 4.89844 26.6C5.19844 26.2 5.39844 25.7 5.69844 25.3C6.29844 24.7 6.69844 24.1 7.19844 23.5Z" fill="black"/>
</svg>
