<svg width="160" height="160" viewBox="0 0 160 160" fill="none" xmlns="http://www.w3.org/2000/svg">
<path d="M64.6771 18.6205C72.6158 8.97396 87.3862 8.97396 95.3249 18.6205C99.5246 23.7237 105.989 26.4014 112.567 25.7625C125.002 24.5549 135.446 34.9991 134.238 47.4338C133.6 54.0119 136.277 60.4764 141.38 64.6761C151.027 72.6148 151.027 87.3852 141.38 95.3239C136.277 99.5236 133.6 105.988 134.238 112.566C135.446 125.001 125.002 135.445 112.567 134.237C105.989 133.599 99.5246 136.276 95.3249 141.379C87.3862 151.026 72.6158 151.026 64.6771 141.379C60.4774 136.276 54.0129 133.599 47.4348 134.237C35.0001 135.445 24.5559 125.001 25.7635 112.566C26.4023 105.988 23.7247 99.5236 18.6215 95.3239C8.97494 87.3852 8.97494 72.6148 18.6215 64.6761C23.7247 60.4764 26.4023 54.0119 25.7635 47.4338C24.5559 34.9991 35.0001 24.5549 47.4348 25.7625C54.0129 26.4014 60.4774 23.7237 64.6771 18.6205Z" fill="#F1F6FF"/>
<path opacity="0.2" d="M79.001 93.001C79.001 91.7081 79.5146 90.4681 80.4288 89.5538C81.3431 88.6396 82.583 88.126 83.876 88.126H93.2624C94.3666 88.1262 95.4381 87.7515 96.3016 87.0633C97.1651 86.3751 97.7694 85.4141 98.0155 84.3377C98.351 82.8598 98.5139 81.3479 98.501 79.8324C98.4096 69.1033 89.531 60.3933 78.7979 60.501C73.6614 60.5545 68.7535 62.6326 65.1404 66.2837C61.5272 69.9349 59.5007 74.8643 59.501 80.001C59.501 88.4936 64.9305 94.9185 72.501 97.5936C73.236 97.8535 74.0226 97.9333 74.7949 97.8263C75.5671 97.7194 76.3024 97.4288 76.9391 96.9789C77.5758 96.529 78.0954 95.933 78.4541 95.2408C78.8129 94.5487 79.0004 93.7806 79.001 93.001Z" fill="#C7D0E0"/>
<path d="M79.001 93.001C79.001 91.7081 79.5146 90.4681 80.4288 89.5538C81.3431 88.6396 82.583 88.126 83.876 88.126H93.2624C94.3666 88.1262 95.4381 87.7515 96.3016 87.0633C97.1651 86.3751 97.7694 85.4141 98.0155 84.3377C98.351 82.8598 98.5139 81.3479 98.501 79.8324C98.4096 69.1033 89.531 60.3933 78.7979 60.501C73.6614 60.5545 68.7535 62.6326 65.1404 66.2837C61.5272 69.9349 59.5007 74.8643 59.501 80.001C59.501 88.4936 64.9305 94.9185 72.501 97.5936C73.236 97.8535 74.0226 97.9333 74.7949 97.8263C75.5671 97.7194 76.3024 97.4288 76.9391 96.9789C77.5758 96.529 78.0954 95.933 78.4541 95.2408C78.8129 94.5487 79.0004 93.7806 79.001 93.001Z" fill="#C7D0E0" stroke="#1E3966" stroke-width="3.25" stroke-linecap="round" stroke-linejoin="round"/>
<path d="M79.001 67.1016C80.2911 67.1016 81.3369 68.1474 81.3369 69.4375C81.3369 70.7276 80.2911 71.7734 79.001 71.7734C77.7109 71.7734 76.665 70.7276 76.665 69.4375C76.665 68.1474 77.7109 67.1016 79.001 67.1016Z" fill="#1E3966" stroke="#C7D0E0" stroke-width="0.203125"/>
<path d="M70.0635 71.9766C71.3536 71.9766 72.3994 73.0224 72.3994 74.3125C72.3994 75.6026 71.3536 76.6484 70.0635 76.6484C68.7734 76.6484 67.7275 75.6026 67.7275 74.3125C67.7275 73.0224 68.7734 71.9766 70.0635 71.9766Z" fill="#1E3966" stroke="#C7D0E0" stroke-width="0.203125"/>
<path d="M70.0635 88.125C71.4097 88.125 72.501 87.0337 72.501 85.6875C72.501 84.3413 71.4097 83.25 70.0635 83.25C68.7173 83.25 67.626 84.3413 67.626 85.6875C67.626 87.0337 68.7173 88.125 70.0635 88.125Z" fill="#1E3966"/>
<path d="M87.9385 76.75C89.2847 76.75 90.376 75.6587 90.376 74.3125C90.376 72.9663 89.2847 71.875 87.9385 71.875C86.5923 71.875 85.501 72.9663 85.501 74.3125C85.501 75.6587 86.5923 76.75 87.9385 76.75Z" fill="#1E3966"/>
</svg>
