<svg width="161" height="160" viewBox="0 0 161 160" fill="none" xmlns="http://www.w3.org/2000/svg">
<path d="M65.011 18.6205C72.9498 8.97396 87.7202 8.97396 95.6589 18.6205C99.8586 23.7237 106.323 26.4014 112.901 25.7625C125.336 24.5549 135.78 34.9991 134.572 47.4338C133.934 54.0119 136.611 60.4764 141.714 64.6761C151.361 72.6148 151.361 87.3852 141.714 95.3239C136.611 99.5236 133.934 105.988 134.572 112.566C135.78 125.001 125.336 135.445 112.901 134.237C106.323 133.599 99.8586 136.276 95.6589 141.379C87.7202 151.026 72.9498 151.026 65.011 141.379C60.8114 136.276 54.3469 133.599 47.7688 134.237C35.3341 135.445 24.8898 125.001 26.0975 112.566C26.7363 105.988 24.0586 99.5236 18.9555 95.3239C9.30892 87.3852 9.30892 72.6148 18.9555 64.6761C24.0586 60.4764 26.7363 54.0119 26.0975 47.4338C24.8898 34.9991 35.3341 24.5549 47.7688 25.7625C54.3469 26.4014 60.8114 23.7237 65.011 18.6205Z" fill="#F1F6FF"/>
<path opacity="0.2" d="M79.335 67C82.0273 67 84.21 64.8174 84.21 62.125C84.21 59.4326 82.0273 57.25 79.335 57.25C76.6426 57.25 74.46 59.4326 74.46 62.125C74.46 64.8174 76.6426 67 79.335 67Z" fill="#1E3966"/>
<path opacity="0.2" d="M61.2561 74.9016C58.8816 73.8047 59.6616 70.25 62.2717 70.25H96.3967C99.011 70.25 99.791 73.8047 97.4124 74.9016L85.8342 80L90.4797 97.6577C90.742 98.2419 90.7638 98.9059 90.5404 99.5061C90.317 100.106 89.8664 100.594 89.2859 100.865C88.7055 101.136 88.0419 101.167 87.4385 100.952C86.8352 100.737 86.3406 100.294 86.0617 99.7173L79.3342 88.125L72.6067 99.7173C72.3279 100.294 71.8333 100.737 71.2299 100.952C70.6266 101.167 69.963 101.136 69.3825 100.865C68.8021 100.594 68.3515 100.106 68.1281 99.5061C67.9047 98.9059 67.9265 98.2419 68.1888 97.6577L72.8342 80L61.2561 74.9016Z" fill="#1E3966"/>
<path d="M79.335 67C82.0273 67 84.21 64.8174 84.21 62.125C84.21 59.4326 82.0273 57.25 79.335 57.25C76.6426 57.25 74.46 59.4326 74.46 62.125C74.46 64.8174 76.6426 67 79.335 67Z" stroke="#1E3966" stroke-width="3.25" stroke-linecap="round" stroke-linejoin="round"/>
<path d="M61.2561 74.9016C58.8816 73.8047 59.6616 70.25 62.2717 70.25H96.3967C99.011 70.25 99.791 73.8047 97.4124 74.9016L85.8342 80L90.4797 97.6577C90.742 98.2419 90.7638 98.9059 90.5404 99.5061C90.317 100.106 89.8664 100.594 89.2859 100.865C88.7055 101.136 88.0419 101.167 87.4385 100.952C86.8352 100.737 86.3406 100.294 86.0617 99.7173L79.3342 88.125L72.6067 99.7173C72.3279 100.294 71.8333 100.737 71.2299 100.952C70.6266 101.167 69.963 101.136 69.3825 100.865C68.8021 100.594 68.3515 100.106 68.1281 99.5061C67.9047 98.9059 67.9265 98.2419 68.1888 97.6577L72.8342 80L61.2561 74.9016Z" stroke="#1E3966" stroke-width="3.25" stroke-linecap="round" stroke-linejoin="round"/>
</svg>
