<svg width="161" height="160" viewBox="0 0 161 160" fill="none" xmlns="http://www.w3.org/2000/svg">
<path d="M65.3431 18.6205C73.2818 8.97396 88.0522 8.97396 95.9909 18.6205C100.191 23.7237 106.655 26.4014 113.233 25.7625C125.668 24.5549 136.112 34.9991 134.904 47.4338C134.266 54.0119 136.943 60.4764 142.046 64.6761C151.693 72.6148 151.693 87.3852 142.046 95.3239C136.943 99.5236 134.266 105.988 134.904 112.566C136.112 125.001 125.668 135.445 113.233 134.237C106.655 133.599 100.191 136.276 95.9909 141.379C88.0522 151.026 73.2818 151.026 65.3431 141.379C61.1434 136.276 54.6789 133.599 48.1008 134.237C35.6661 135.445 25.2219 125.001 26.4295 112.566C27.0684 105.988 24.3907 99.5236 19.2875 95.3239C9.64095 87.3852 9.64095 72.6148 19.2875 64.6761C24.3907 60.4764 27.0684 54.0119 26.4295 47.4338C25.2219 34.9991 35.6661 24.5549 48.1008 25.7625C54.6789 26.4014 61.1434 23.7237 65.3431 18.6205Z" fill="#F1F6FF"/>
<path opacity="0.2" d="M79.667 86.5H73.167V80L87.792 65.375L94.292 71.875L79.667 86.5Z" fill="#1E3966"/>
<path d="M79.667 86.5H73.167V80L92.667 60.5L99.167 67L79.667 86.5Z" stroke="#1E3966" stroke-width="3.25" stroke-linecap="round" stroke-linejoin="round"/>
<path d="M87.792 65.375L94.292 71.875" stroke="#1E3966" stroke-width="3.25" stroke-linecap="round" stroke-linejoin="round"/>
<path d="M97.542 80V96.25C97.542 96.681 97.3708 97.0943 97.066 97.399C96.7613 97.7038 96.348 97.875 95.917 97.875H63.417C62.986 97.875 62.5727 97.7038 62.2679 97.399C61.9632 97.0943 61.792 96.681 61.792 96.25V63.75C61.792 63.319 61.9632 62.9057 62.2679 62.601C62.5727 62.2962 62.986 62.125 63.417 62.125H79.667" stroke="#1E3966" stroke-width="3.25" stroke-linecap="round" stroke-linejoin="round"/>
</svg>
