<svg width="161" height="160" viewBox="0 0 161 160" fill="none" xmlns="http://www.w3.org/2000/svg">
<path d="M65.0081 18.6205C72.9468 8.97396 87.7172 8.97396 95.656 18.6205C99.8556 23.7237 106.32 26.4014 112.898 25.7625C125.333 24.5549 135.777 34.9991 134.57 47.4338C133.931 54.0119 136.608 60.4764 141.712 64.6761C151.358 72.6148 151.358 87.3852 141.712 95.3239C136.608 99.5236 133.931 105.988 134.57 112.566C135.777 125.001 125.333 135.445 112.898 134.237C106.32 133.599 99.8556 136.276 95.656 141.379C87.7172 151.026 72.9468 151.026 65.0081 141.379C60.8084 136.276 54.3439 133.599 47.7658 134.237C35.3312 135.445 24.8869 125.001 26.0945 112.566C26.7334 105.988 24.0557 99.5236 18.9526 95.3239C9.30599 87.3852 9.30599 72.6148 18.9526 64.6761C24.0557 60.4764 26.7334 54.0119 26.0945 47.4338C24.8869 34.9991 35.3312 24.5549 47.7658 25.7625C54.3439 26.4014 60.8084 23.7237 65.0081 18.6205Z" fill="#F1F6FF"/>
<path opacity="0.2" d="M85.2039 84.8736L101.931 80.2017C102.259 80.1012 102.547 79.8996 102.753 79.6257C102.959 79.3518 103.074 79.0197 103.08 78.6768C103.086 78.334 102.984 77.998 102.787 77.7169C102.591 77.4359 102.31 77.2242 101.986 77.1122L66.2361 63.8522C65.9493 63.7546 65.641 63.7392 65.3459 63.8076C65.0508 63.876 64.7807 64.0255 64.5661 64.2393C64.3515 64.4531 64.2009 64.7226 64.1313 65.0174C64.0618 65.3122 64.076 65.6206 64.1724 65.9078L77.4324 101.658C77.5444 101.982 77.7561 102.262 78.0372 102.459C78.3182 102.655 78.6542 102.758 78.9971 102.752C79.3399 102.746 79.6721 102.631 79.946 102.425C80.2199 102.219 80.4215 101.931 80.5219 101.603L85.2039 84.8736Z" fill="#1E3966"/>
<path d="M85.2039 84.8736L101.931 80.2017C102.259 80.1012 102.547 79.8996 102.753 79.6257C102.959 79.3518 103.074 79.0197 103.08 78.6768C103.086 78.334 102.984 77.998 102.787 77.7169C102.591 77.4359 102.31 77.2242 101.986 77.1122L66.2361 63.8522C65.9493 63.7546 65.641 63.7392 65.3459 63.8076C65.0508 63.876 64.7807 64.0255 64.5661 64.2393C64.3515 64.4531 64.2009 64.7226 64.1313 65.0174C64.0618 65.3122 64.076 65.6206 64.1724 65.9078L77.4324 101.658C77.5444 101.982 77.7561 102.262 78.0372 102.459C78.3182 102.655 78.6542 102.758 78.9971 102.752C79.3399 102.746 79.6721 102.631 79.946 102.425C80.2199 102.219 80.4215 101.931 80.5219 101.603L85.2039 84.8736Z" stroke="#1E3966" stroke-width="3.25" stroke-linecap="round" stroke-linejoin="round"/>
</svg>
