<svg width="160" height="160" viewBox="0 0 160 160" fill="none" xmlns="http://www.w3.org/2000/svg">
<path d="M64.6761 18.6205C72.6148 8.97396 87.3852 8.97396 95.3239 18.6205C99.5236 23.7237 105.988 26.4014 112.566 25.7625C125.001 24.5549 135.445 34.9991 134.237 47.4338C133.599 54.0119 136.276 60.4764 141.379 64.6761C151.026 72.6148 151.026 87.3852 141.379 95.3239C136.276 99.5236 133.599 105.988 134.237 112.566C135.445 125.001 125.001 135.445 112.566 134.237C105.988 133.599 99.5236 136.276 95.3239 141.379C87.3852 151.026 72.6148 151.026 64.6761 141.379C60.4764 136.276 54.0119 133.599 47.4338 134.237C34.9991 135.445 24.5549 125.001 25.7625 112.566C26.4014 105.988 23.7237 99.5236 18.6205 95.3239C8.97396 87.3852 8.97396 72.6148 18.6205 64.6761C23.7237 60.4764 26.4014 54.0119 25.7625 47.4338C24.5549 34.9991 34.9991 24.5549 47.4338 25.7625C54.0119 26.4014 60.4764 23.7237 64.6761 18.6205Z" fill="#F1F6FF"/>
<path opacity="0.2" d="M84.875 65.375L84.875 58.875C84.875 57.9775 84.1475 57.25 83.25 57.25L76.75 57.25C75.8525 57.25 75.125 57.9775 75.125 58.875L75.125 65.375C75.125 66.2725 75.8525 67 76.75 67L83.25 67C84.1475 67 84.875 66.2725 84.875 65.375Z" fill="#1E3966"/>
<path opacity="0.2" d="M97.7734 86.5L97.7734 96.25C97.7734 97.0914 97.0914 97.7734 96.25 97.7734L86.5 97.7734C85.6586 97.7734 84.9766 97.0914 84.9766 96.25L84.9766 86.5C84.9766 85.6586 85.6586 84.9766 86.5 84.9766L96.25 84.9766C97.0914 84.9766 97.7734 85.6586 97.7734 86.5Z" fill="#1E3966" stroke="#1E3966" stroke-width="0.203125"/>
<path opacity="0.2" d="M75.125 96.25L75.125 86.5C75.125 85.6025 74.3975 84.875 73.5 84.875L63.75 84.875C62.8525 84.875 62.125 85.6025 62.125 86.5L62.125 96.25C62.125 97.1475 62.8525 97.875 63.75 97.875L73.5 97.875C74.3975 97.875 75.125 97.1475 75.125 96.25Z" fill="#1E3966"/>
<path d="M84.875 65.375L84.875 58.875C84.875 57.9775 84.1475 57.25 83.25 57.25L76.75 57.25C75.8525 57.25 75.125 57.9775 75.125 58.875L75.125 65.375C75.125 66.2725 75.8525 67 76.75 67L83.25 67C84.1475 67 84.875 66.2725 84.875 65.375Z" stroke="#1E3966" stroke-width="3.25" stroke-linecap="round" stroke-linejoin="round"/>
<path d="M97.875 96.25L97.875 86.5C97.875 85.6025 97.1475 84.875 96.25 84.875L86.5 84.875C85.6025 84.875 84.875 85.6025 84.875 86.5L84.875 96.25C84.875 97.1475 85.6025 97.875 86.5 97.875L96.25 97.875C97.1475 97.875 97.875 97.1475 97.875 96.25Z" stroke="#1E3966" stroke-width="3.25" stroke-linecap="round" stroke-linejoin="round"/>
<path d="M75.125 96.25L75.125 86.5C75.125 85.6025 74.3975 84.875 73.5 84.875L63.75 84.875C62.8525 84.875 62.125 85.6025 62.125 86.5L62.125 96.25C62.125 97.1475 62.8525 97.875 63.75 97.875L73.5 97.875C74.3975 97.875 75.125 97.1475 75.125 96.25Z" stroke="#1E3966" stroke-width="3.25" stroke-linecap="round" stroke-linejoin="round"/>
<path d="M80 67L80 76.75" stroke="#1E3966" stroke-width="3.25" stroke-linecap="round" stroke-linejoin="round"/>
<path d="M68.625 84.875L68.625 80C68.625 79.138 68.9674 78.3114 69.5769 77.7019C70.1864 77.0924 71.013 76.75 71.875 76.75L88.125 76.75C88.987 76.75 89.8136 77.0924 90.4231 77.7019C91.0326 78.3114 91.375 79.138 91.375 80L91.375 84.875" stroke="#1E3966" stroke-width="3.25" stroke-linecap="round" stroke-linejoin="round"/>
</svg>
