<svg width="160" height="160" viewBox="0 0 160 160" fill="none" xmlns="http://www.w3.org/2000/svg">
<path d="M64.6771 18.6205C72.6158 8.97396 87.3862 8.97396 95.3249 18.6205C99.5246 23.7237 105.989 26.4014 112.567 25.7625C125.002 24.5549 135.446 34.9991 134.238 47.4338C133.6 54.0119 136.277 60.4764 141.38 64.6761C151.027 72.6148 151.027 87.3852 141.38 95.3239C136.277 99.5236 133.6 105.988 134.238 112.566C135.446 125.001 125.002 135.445 112.567 134.237C105.989 133.599 99.5246 136.276 95.3249 141.379C87.3862 151.026 72.6158 151.026 64.6771 141.379C60.4774 136.276 54.0129 133.599 47.4348 134.237C35.0001 135.445 24.5559 125.001 25.7635 112.566C26.4023 105.988 23.7247 99.5236 18.6215 95.3239C8.97494 87.3852 8.97494 72.6148 18.6215 64.6761C23.7247 60.4764 26.4023 54.0119 25.7635 47.4338C24.5559 34.9991 35.0001 24.5549 47.4348 25.7625C54.0129 26.4014 60.4774 23.7237 64.6771 18.6205Z" fill="#F1F6FF"/>
<path opacity="0.2" d="M85.501 73.5C85.501 72.638 85.8434 71.8114 86.4529 71.2019C87.0624 70.5924 87.889 70.25 88.751 70.25H93.626V67C93.626 66.138 93.2836 65.3114 92.6741 64.7019C92.0646 64.0924 91.2379 63.75 90.376 63.75H61.126C60.264 63.75 59.4374 64.0924 58.8279 64.7019C58.2184 65.3114 57.876 66.138 57.876 67V86.5C57.876 87.362 58.2184 88.1886 58.8279 88.7981C59.4374 89.4076 60.264 89.75 61.126 89.75H85.501V73.5Z" fill="#1E3966"/>
<path d="M101.751 93V73.5C101.751 71.7051 100.296 70.25 98.501 70.25H88.751C86.9561 70.25 85.501 71.7051 85.501 73.5V93C85.501 94.7949 86.9561 96.25 88.751 96.25H98.501C100.296 96.25 101.751 94.7949 101.751 93Z" stroke="#1E3966" stroke-width="3.25" stroke-linecap="round" stroke-linejoin="round"/>
<path d="M79.001 96.25H70.876" stroke="#1E3966" stroke-width="3.25" stroke-linecap="round" stroke-linejoin="round"/>
<path d="M85.501 89.75H61.126C60.264 89.75 59.4374 89.4076 58.8279 88.7981C58.2184 88.1886 57.876 87.362 57.876 86.5V67C57.876 66.138 58.2184 65.3114 58.8279 64.7019C59.4374 64.0924 60.264 63.75 61.126 63.75H90.376C91.2379 63.75 92.0646 64.0924 92.6741 64.7019C93.2836 65.3114 93.626 66.138 93.626 67V70.25" stroke="#1E3966" stroke-width="3.25" stroke-linecap="round" stroke-linejoin="round"/>
<path d="M92.001 76.75H95.251" stroke="#1E3966" stroke-width="3.25" stroke-linecap="round" stroke-linejoin="round"/>
</svg>
