<svg width="54" height="48" viewBox="0 0 54 48" fill="none" xmlns="http://www.w3.org/2000/svg">
<path d="M15.5812 0C14.1228 0.00308668 12.6951 0.829329 11.9609 2.08979L0.542061 21.887C-0.180687 23.1508 -0.180687 24.8028 0.542061 26.0666L11.9609 45.8638C12.6952 47.1243 14.1228 47.9507 15.5812 47.9536H38.4189C39.8773 47.9505 41.3048 47.1243 42.0391 45.8638L53.458 26.0666C54.1807 24.8028 54.1806 23.1508 53.458 21.887L42.0391 2.08979C41.3048 0.829329 39.8773 0.00285519 38.4189 0L15.5812 0ZM15.7884 11.5816C15.8198 11.5785 15.8527 11.5785 15.8842 11.5816H19.8233C19.9977 11.5852 20.1668 11.6858 20.2539 11.8368L26.9362 23.7216C26.9699 23.7803 26.9915 23.8458 26.9998 23.913C27.008 23.8458 27.0296 23.7803 27.0633 23.7216L33.7296 11.8368C33.8194 11.6812 33.9965 11.5801 34.1761 11.5816H38.1153C38.4641 11.5847 38.7253 12.0232 38.5618 12.3314L32.0391 23.9768L38.5618 35.6063C38.7408 35.9162 38.4731 36.375 38.1153 36.372H34.1761C33.9934 36.3704 33.8152 36.2623 33.7296 36.1008L27.0633 24.2161C27.0296 24.1573 27.008 24.0918 26.9998 24.0247C26.9915 24.0919 26.9699 24.1573 26.9362 24.2161L20.2539 36.1008C20.1708 36.2577 20.0008 36.3648 19.8233 36.372H15.8842C15.5263 36.3751 15.2587 35.9162 15.4377 35.6063L21.9604 23.9768L15.4377 12.3314C15.2813 12.0502 15.4721 11.6416 15.7884 11.5816Z" fill="#3498DB"/>
</svg>
