<svg width="48" height="48" viewBox="0 0 48 48" fill="none" xmlns="http://www.w3.org/2000/svg">
<path d="M47.9994 13.3023V11.8546C47.9541 10.8141 47.9089 9.72831 47.7279 8.68778C47.547 7.64725 47.2303 6.65196 46.7326 5.70192C46.235 4.75187 45.6469 3.8923 44.8778 3.16846C44.1087 2.39937 43.2491 1.81124 42.3443 1.3136C41.3943 0.815955 40.399 0.499281 39.3585 0.31832C38.3179 0.137358 37.2774 0.046875 36.1916 0.046875H11.8976C11.6261 0.046875 11.3547 0.0468778 11.1285 0.0921181C10.3594 0.137358 9.54507 0.182599 8.77599 0.31832C8.0069 0.454041 7.23782 0.68024 6.51397 0.951682C6.28777 1.04216 6.01633 1.17789 5.79013 1.26837C5.06628 1.63029 4.43291 2.08269 3.79955 2.58034C3.61859 2.7613 3.39239 2.94225 3.21143 3.12321C2.44235 3.8923 1.85422 4.75187 1.35657 5.65667C0.858931 6.60672 0.54225 7.60201 0.361289 8.64254C0.180327 9.68307 0.135084 10.7236 0.0898438 11.8094V36.1034C0.135084 37.144 0.180327 38.2297 0.361289 39.2703C0.54225 40.3108 0.858931 41.3061 1.35657 42.2561C1.85422 43.2062 2.44235 44.0657 3.21143 44.7896C3.98052 45.5587 4.84008 46.1468 5.74489 46.6444C6.69493 47.1421 7.69022 47.4588 8.73075 47.6397C9.77128 47.8207 10.8118 47.9111 11.8976 47.9111H36.1916C37.2322 47.8659 38.3179 47.8207 39.3585 47.6397C40.399 47.4588 41.3943 47.1421 42.3443 46.6444C43.2944 46.1468 44.1539 45.5587 44.8778 44.7896C45.6469 44.0205 46.235 43.1609 46.7326 42.2561C47.2303 41.3061 47.547 40.3108 47.7279 39.2703C47.9089 38.2297 47.9994 37.1892 47.9994 36.1034V13.3023Z" fill="#F05138"/>
<path d="M38.0017 29.6293L38.1374 29.0864C40.1279 21.1693 35.2872 11.7593 27.0535 6.82812C30.6727 11.7141 32.2561 17.6406 30.8537 22.798C30.718 23.2504 30.5822 23.7028 30.4013 24.1552C30.2203 24.0194 29.9941 23.8837 29.6774 23.748C29.6774 23.748 21.4889 18.6811 12.6218 9.76875C12.3956 9.54255 17.3721 16.8715 22.9819 22.798C20.3127 21.305 12.9385 15.9214 8.23351 11.6688C8.82163 12.6189 9.50024 13.5689 10.2241 14.4285C14.1148 19.4049 19.2269 25.5124 25.3344 30.2174C21.0365 32.8413 14.9743 33.0675 8.95735 30.2174C7.46442 29.5388 6.06197 28.6792 4.75 27.7292C7.28346 31.8008 11.2194 35.3295 16.0148 37.4106C21.7151 39.8536 27.4154 39.7179 31.6228 37.4558C31.6228 37.4558 31.668 37.4558 31.668 37.4106C31.849 37.3201 32.0299 37.1844 32.2109 37.0939C34.2467 36.0534 38.2279 35.0129 40.3994 39.175C41.0328 40.125 42.1638 34.6962 38.0017 29.6293Z" fill="white"/>
</svg>
