<svg width="48" height="48" viewBox="0 0 48 48" fill="none" xmlns="http://www.w3.org/2000/svg">
<path d="M44.4841 3.51594C46.7416 5.7735 47.9136 8.60146 47.9992 11.9998V36.0002C47.9136 39.3977 46.7416 42.2265 44.4841 44.4841C42.2265 46.7416 39.3977 47.9136 35.9994 48H11.9998C8.60146 47.9136 5.7735 46.7416 3.51594 44.4841C1.25838 42.2265 0.0863986 39.3977 0 36.0002V11.9998C0.0863986 8.60146 1.25838 5.7735 3.51594 3.51594C5.7735 1.25838 8.60146 0.0863986 11.9998 0H35.9994C39.3977 0.0863986 42.2265 1.25838 44.4841 3.51594ZM41.1737 22.8284C40.4193 22.078 40.0273 21.1364 39.9961 20.0037V11.9998C39.9721 10.867 39.5833 9.92383 38.8298 9.17025C38.0762 8.41586 37.1322 8.02787 35.9994 8.00387H32.0035V27.9963L15.9965 8.00387H11.9998C10.867 8.02787 9.92383 8.41586 9.17025 9.17025C8.41586 9.92383 8.02787 10.867 8.00387 11.9998V20.0037C7.97267 21.1364 7.58067 22.078 6.82629 22.8284C6.0727 23.578 5.12951 23.9684 3.99673 23.9996C5.12951 24.0316 6.0727 24.422 6.82629 25.1716C7.58067 25.922 7.97267 26.8636 8.00387 27.9963V36.0002C8.02787 37.1322 8.41586 38.0762 9.17025 38.8298C9.92383 39.5833 10.867 39.9721 11.9998 39.9961H15.9965V20.0037L32.0035 39.9961H35.9994C37.1322 39.9721 38.0762 39.5833 38.8298 38.8298C39.5833 38.0762 39.9721 37.1322 39.9961 36.0002V27.9963C40.0273 26.8636 40.4193 25.922 41.1737 25.1716C41.9273 24.422 42.8705 24.0316 44.0033 23.9996C42.8705 23.9684 41.9273 23.578 41.1737 22.8284Z" fill="#3C5AFD"/>
</svg>
