<svg width="43" height="43" viewBox="0 0 43 43" fill="none" xmlns="http://www.w3.org/2000/svg">
<path d="M21.0349 30.4605C25.7702 30.4605 29.6089 26.6218 29.6089 21.8865C29.6089 17.1512 25.7702 13.3125 21.0349 13.3125C16.2996 13.3125 12.4609 17.1512 12.4609 21.8865C12.4609 26.6218 16.2996 30.4605 21.0349 30.4605Z" fill="#4E8EF7"/>
<path d="M38.5332 7.34156C38.5336 6.77632 38.3714 6.2229 38.0659 5.74733C37.7604 5.27176 37.3245 4.89411 36.8103 4.65945C36.296 4.42479 35.7251 4.34302 35.1657 4.42389C34.6063 4.50477 34.0819 4.74487 33.6552 5.11556C29.4047 1.91661 24.0993 0.448345 18.8089 1.00683C13.5185 1.56532 8.63667 4.10901 5.14779 8.12498C1.65891 12.1409 -0.177446 17.3304 0.00902198 22.647C0.19549 27.9635 2.39091 33.0115 6.15257 36.7732C9.91424 40.5349 14.9623 42.7303 20.2788 42.9168C25.5954 43.1032 30.7848 41.2669 34.8008 37.778C38.8168 34.2891 41.3605 29.4073 41.919 24.1169C42.4774 18.8265 41.0092 13.5211 37.8102 9.27056C38.2766 8.73615 38.5334 8.05083 38.5332 7.34156ZM21.0357 42.1836C17.8209 42.1846 14.6519 41.4218 11.7897 39.9582C8.92742 38.4945 6.45386 36.3717 4.57274 33.7648C2.69161 31.1578 1.45674 28.1413 0.969852 24.9636C0.482962 21.7859 0.75798 18.538 1.77225 15.4874C2.78653 12.4368 4.51103 9.67084 6.80372 7.41731C9.09642 5.16378 11.8917 3.48718 14.9593 2.52561C18.0269 1.56404 21.2791 1.34502 24.4479 1.88658C27.6167 2.42815 30.6116 3.7148 33.1857 5.64056C32.7836 6.20799 32.5952 6.89939 32.6539 7.59239C32.7125 8.28538 33.0145 8.93528 33.5062 9.42706C33.998 9.91883 34.6479 10.2208 35.3409 10.2794C36.0339 10.3381 36.7253 10.1497 37.2927 9.74756C39.549 12.7633 40.921 16.3476 41.2552 20.0991C41.5894 23.8505 40.8726 27.6209 39.185 30.988C37.4974 34.3551 34.9058 37.1858 31.7003 39.1632C28.4948 41.1405 24.802 42.1863 21.0357 42.1836Z" fill="#4E8EF7"/>
</svg>
