<svg width="36" height="48" viewBox="0 0 36 48" fill="none" xmlns="http://www.w3.org/2000/svg">
<path d="M11.4517 37.1094C11.4517 37.1094 9.62068 38.1742 12.7547 38.5345C16.5516 38.9676 18.4921 38.9055 22.6762 38.1136C22.6762 38.1136 23.7762 38.8033 25.3125 39.4008C15.9328 43.4207 4.08443 39.1679 11.4517 37.1094Z" fill="#5382A1"/>
<path d="M10.3053 31.8594C10.3053 31.8594 8.2517 33.3795 11.3881 33.7039C15.444 34.1224 18.647 34.1566 24.1894 33.0893C24.1894 33.0893 24.956 33.8665 26.1614 34.2915C14.8208 37.6077 2.18945 34.553 10.3053 31.8594Z" fill="#5382A1"/>
<path d="M19.9714 22.9598C22.2825 25.6206 19.3641 28.0151 19.3641 28.0151C19.3641 28.0151 25.2326 24.9856 22.5375 21.192C20.0203 17.6543 18.09 15.8965 28.5399 9.83594C28.5399 9.83594 12.137 13.9326 19.9714 22.9598Z" fill="#E76F00"/>
<path d="M32.3728 40.9834C32.3728 40.9834 33.7278 42.0998 30.8806 42.9635C25.4665 44.6037 8.34657 45.0989 3.59073 43.0289C1.88113 42.2851 5.08712 41.253 6.0956 41.0365C7.14734 40.8084 7.74838 40.8509 7.74838 40.8509C5.84713 39.5115 -4.54053 43.4808 2.47196 44.6175C21.596 47.7189 37.3333 43.2209 32.3728 40.9834Z" fill="#5382A1"/>
<path d="M12.3314 26.4219C12.3314 26.4219 3.62316 28.4902 9.24761 29.2413C11.6224 29.5593 16.3566 29.4873 20.7663 29.1179C24.3702 28.8139 27.9889 28.1675 27.9889 28.1675C27.9889 28.1675 26.7181 28.7117 25.7988 29.3395C16.9557 31.6652 -0.127556 30.5833 4.79048 28.2043C8.94968 26.1938 12.3314 26.4219 12.3314 26.4219Z" fill="#5382A1"/>
<path d="M27.9541 35.1557C36.9435 30.4845 32.7872 25.9955 29.8861 26.6003C29.175 26.7482 28.858 26.8765 28.858 26.8765C28.858 26.8765 29.122 26.463 29.6261 26.284C35.3654 24.2662 39.7793 32.235 27.7734 35.3912C27.7734 35.3913 27.9125 35.2669 27.9541 35.1557Z" fill="#5382A1"/>
<path d="M22.5367 0.0546875C22.5367 0.0546875 27.5152 5.03485 17.8148 12.6929C10.0361 18.836 16.041 22.3386 17.8116 26.3405C13.271 22.2439 9.93888 18.6375 12.1743 15.2811C15.4555 10.3541 24.5454 7.96537 22.5367 0.0546875Z" fill="#E76F00"/>
<path d="M13.2193 47.8112C21.848 48.3635 35.0984 47.5047 35.4122 43.4219C35.4122 43.4219 34.809 44.9697 28.281 46.1988C20.9162 47.5848 11.8328 47.423 6.44531 46.5347C6.44544 46.5346 7.5482 47.4475 13.2193 47.8112Z" fill="#5382A1"/>
</svg>
