<svg width="48" height="48" viewBox="0 0 48 48" fill="none" xmlns="http://www.w3.org/2000/svg">
<path d="M33 27.7486C33 28.1937 32.868 28.6287 32.6208 28.9987C32.3736 29.3687 32.0222 29.6571 31.611 29.8274C31.1999 29.9977 30.7475 30.0422 30.3111 29.9554C29.8746 29.8686 29.4737 29.6543 29.159 29.3396C28.8444 29.025 28.6301 28.6241 28.5432 28.1876C28.4564 27.7511 28.501 27.2987 28.6713 26.8876C28.8416 26.4765 29.13 26.1251 29.5 25.8778C29.87 25.6306 30.305 25.4986 30.75 25.4986C31.3467 25.4986 31.919 25.7357 32.341 26.1577C32.763 26.5796 33 27.1519 33 27.7486ZM17.25 25.4986C16.805 25.4986 16.37 25.6306 16 25.8778C15.63 26.1251 15.3416 26.4765 15.1713 26.8876C15.001 27.2987 14.9564 27.7511 15.0432 28.1876C15.1301 28.6241 15.3443 29.025 15.659 29.3396C15.9737 29.6543 16.3746 29.8686 16.8111 29.9554C17.2475 30.0422 17.6999 29.9977 18.111 29.8274C18.5222 29.6571 18.8736 29.3687 19.1208 28.9987C19.368 28.6287 19.5 28.1937 19.5 27.7486C19.5 27.1519 19.263 26.5796 18.841 26.1577C18.419 25.7357 17.8467 25.4986 17.25 25.4986ZM45 29.9986V34.4986C45 35.2943 44.6839 36.0574 44.1213 36.62C43.5587 37.1826 42.7957 37.4986 42 37.4986H6.00001C5.20436 37.4986 4.4413 37.1826 3.87869 36.62C3.31608 36.0574 3.00001 35.2943 3.00001 34.4986V30.2105C2.99734 27.3189 3.5846 24.4572 4.72587 21.8003C5.86714 19.1435 7.53843 16.7474 9.63751 14.7586L4.93876 10.0599C4.6573 9.77844 4.49918 9.39669 4.49918 8.99865C4.49918 8.6006 4.6573 8.21886 4.93876 7.9374C5.22022 7.65594 5.60196 7.49781 6.00001 7.49781C6.39805 7.49781 6.7798 7.65594 7.06126 7.9374L11.9663 12.8424C15.4882 10.3477 19.6962 9.00483 24.0122 8.99845C28.3281 8.99208 32.5401 10.3225 36.0694 12.8068L40.9444 7.93177C41.2258 7.65031 41.6076 7.49219 42.0056 7.49219C42.4037 7.49219 42.7854 7.65031 43.0669 7.93177C43.3483 8.21323 43.5065 8.59498 43.5065 8.99302C43.5065 9.39107 43.3483 9.77281 43.0669 10.0543L38.4038 14.7174C38.5444 14.8505 38.685 14.9855 38.8238 15.1243C40.7877 17.0705 42.3451 19.3878 43.4053 21.9413C44.4657 24.4949 45.0077 27.2337 45 29.9986ZM42 29.9986C42 25.2247 40.1036 20.6464 36.7279 17.2707C33.3523 13.8951 28.7739 11.9986 24 11.9986H23.9363C14.0456 12.0324 6.00001 20.2018 6.00001 30.2105V34.4986H42V29.9986Z" fill="#1C6DBE"/>
</svg>
