<svg width="49" height="48" viewBox="0 0 49 48" fill="none" xmlns="http://www.w3.org/2000/svg">
<path d="M12.3977 36.7633L10.6259 39.7633C10.5256 39.9329 10.393 40.0812 10.2355 40.1995C10.078 40.3179 9.89869 40.4041 9.70787 40.4532C9.32248 40.5524 8.91349 40.4944 8.57086 40.292C8.22823 40.0896 7.98004 39.7594 7.88088 39.374C7.78172 38.9886 7.83972 38.5796 8.04211 38.237L9.81586 35.237C9.91367 35.0628 10.0453 34.9099 10.203 34.7872C10.3607 34.6645 10.5414 34.5746 10.7343 34.5228C10.9273 34.4709 11.1286 34.4581 11.3266 34.4851C11.5246 34.5121 11.7152 34.5784 11.8871 34.68C12.0591 34.7817 12.2091 34.9167 12.3282 35.0772C12.4473 35.2376 12.5331 35.4202 12.5807 35.6142C12.6283 35.8083 12.6366 36.0099 12.6052 36.2072C12.5737 36.4045 12.5032 36.5936 12.3977 36.7633ZM43.834 28.5001H34.8715L29.1096 18.7501C29.0118 18.5759 28.8802 18.423 28.7224 18.3003C28.5647 18.1777 28.3841 18.0878 28.1911 18.0359C27.9982 17.984 27.7968 17.9712 27.5989 17.9982C27.4009 18.0252 27.2103 18.0915 27.0383 18.1932C26.8663 18.2948 26.7164 18.4299 26.5973 18.5903C26.4782 18.7507 26.3923 18.9333 26.3448 19.1274C26.2972 19.3214 26.2889 19.523 26.3203 19.7203C26.3517 19.9176 26.4222 20.1067 26.5277 20.2764L38.0421 39.7633C38.2445 40.1059 38.5747 40.3541 38.9601 40.4532C39.3455 40.5524 39.7545 40.4944 40.0971 40.292C40.4397 40.0896 40.6879 39.7594 40.7871 39.374C40.8862 38.9886 40.8283 38.5796 40.6259 38.237L36.6452 31.5001H43.834C44.2318 31.5001 44.6133 31.3421 44.8946 31.0608C45.1759 30.7795 45.334 30.3979 45.334 30.0001C45.334 29.6023 45.1759 29.2208 44.8946 28.9395C44.6133 28.6582 44.2318 28.5001 43.834 28.5001ZM27.0471 28.5001H17.2802L30.1259 6.76325C30.3283 6.42062 30.3862 6.01163 30.2871 5.62624C30.1879 5.24086 29.9397 4.91064 29.5971 4.70825C29.2545 4.50586 28.8455 4.44786 28.4601 4.54702C28.0747 4.64618 27.7445 4.89437 27.5421 5.237L24.334 10.667L21.1259 5.2295C21.0256 5.05985 20.893 4.9116 20.7355 4.79321C20.578 4.67482 20.3987 4.58862 20.2079 4.53952C19.8225 4.44036 19.4135 4.49836 19.0709 4.70075C18.7282 4.90314 18.48 5.23336 18.3809 5.61874C18.2817 6.00413 18.3397 6.41312 18.5421 6.75575L22.5921 13.6089L13.7965 28.5001H4.83398C4.43616 28.5001 4.05463 28.6582 3.77332 28.9395C3.49202 29.2208 3.33398 29.6023 3.33398 30.0001C3.33398 30.3979 3.49202 30.7795 3.77332 31.0608C4.05463 31.3421 4.43616 31.5001 4.83398 31.5001H27.0471C27.4449 31.5001 27.8265 31.3421 28.1078 31.0608C28.3891 30.7795 28.5471 30.3979 28.5471 30.0001C28.5471 29.6023 28.3891 29.2208 28.1078 28.9395C27.8265 28.6582 27.4449 28.5001 27.0471 28.5001Z" fill="#1C6DBE"/>
</svg>
