<svg width="49" height="48" viewBox="0 0 49 48" fill="none" xmlns="http://www.w3.org/2000/svg">
<path d="M42.666 13.5H39.666V12C39.666 10.8065 39.1919 9.66193 38.348 8.81802C37.5041 7.97411 36.3595 7.5 35.166 7.5H8.16602C6.97254 7.5 5.82795 7.97411 4.98404 8.81802C4.14012 9.66193 3.66602 10.8065 3.66602 12V30C3.66602 31.1935 4.14012 32.3381 4.98404 33.182C5.82795 34.0259 6.97254 34.5 8.16602 34.5H29.166V36C29.166 37.1935 29.6401 38.3381 30.484 39.182C31.3279 40.0259 32.4725 40.5 33.666 40.5H42.666C43.8595 40.5 45.0041 40.0259 45.848 39.182C46.6919 38.3381 47.166 37.1935 47.166 36V18C47.166 16.8065 46.6919 15.6619 45.848 14.818C45.0041 13.9741 43.8595 13.5 42.666 13.5ZM8.16602 31.5C7.76819 31.5 7.38666 31.342 7.10536 31.0607C6.82405 30.7794 6.66602 30.3978 6.66602 30V12C6.66602 11.6022 6.82405 11.2206 7.10536 10.9393C7.38666 10.658 7.76819 10.5 8.16602 10.5H35.166C35.5638 10.5 35.9454 10.658 36.2267 10.9393C36.508 11.2206 36.666 11.6022 36.666 12V13.5H33.666C32.4725 13.5 31.3279 13.9741 30.484 14.818C29.6401 15.6619 29.166 16.8065 29.166 18V31.5H8.16602ZM44.166 36C44.166 36.3978 44.008 36.7794 43.7267 37.0607C43.4454 37.342 43.0638 37.5 42.666 37.5H33.666C33.2682 37.5 32.8867 37.342 32.6054 37.0607C32.324 36.7794 32.166 36.3978 32.166 36V18C32.166 17.6022 32.324 17.2206 32.6054 16.9393C32.8867 16.658 33.2682 16.5 33.666 16.5H42.666C43.0638 16.5 43.4454 16.658 43.7267 16.9393C44.008 17.2206 44.166 17.6022 44.166 18V36ZM26.166 39C26.166 39.3978 26.008 39.7794 25.7267 40.0607C25.4454 40.342 25.0638 40.5 24.666 40.5H17.166C16.7682 40.5 16.3867 40.342 16.1054 40.0607C15.8241 39.7794 15.666 39.3978 15.666 39C15.666 38.6022 15.8241 38.2206 16.1054 37.9393C16.3867 37.658 16.7682 37.5 17.166 37.5H24.666C25.0638 37.5 25.4454 37.658 25.7267 37.9393C26.008 38.2206 26.166 38.6022 26.166 39ZM41.166 21C41.166 21.3978 41.008 21.7794 40.7267 22.0607C40.4454 22.342 40.0638 22.5 39.666 22.5H36.666C36.2682 22.5 35.8867 22.342 35.6054 22.0607C35.324 21.7794 35.166 21.3978 35.166 21C35.166 20.6022 35.324 20.2206 35.6054 19.9393C35.8867 19.658 36.2682 19.5 36.666 19.5H39.666C40.0638 19.5 40.4454 19.658 40.7267 19.9393C41.008 20.2206 41.166 20.6022 41.166 21Z" fill="#1C6DBE"/>
</svg>
