<svg width="48" height="48" viewBox="0 0 48 48" fill="none" xmlns="http://www.w3.org/2000/svg">
<mask id="mask0_10200_41083" style="mask-type:luminance" maskUnits="userSpaceOnUse" x="1" y="1" width="46" height="46">
<path d="M22.8232 2.03148L3.17553 12.0955C2.81448 12.2795 2.51445 12.5447 2.30568 12.8644C2.0969 13.184 1.98675 13.5469 1.98633 13.9163V34.061C1.98633 34.81 2.43869 35.5094 3.17553 35.8818L22.8232 45.9541C23.1847 46.1394 23.5949 46.2369 24.0124 46.2369C24.4299 46.2369 24.84 46.1394 25.2016 45.9541L44.8446 35.8818C45.2041 35.6966 45.5027 35.4311 45.7106 35.1116C45.9184 34.7921 46.0282 34.4299 46.0291 34.061V13.9205C46.0291 13.1673 45.5768 12.4721 44.8399 12.0997L25.1969 2.03148C24.8351 1.84705 24.425 1.75 24.0077 1.75C23.5904 1.75 23.1804 1.84705 22.8185 2.03148" fill="white"/>
</mask>
<g mask="url(#mask0_10200_41083)">
<path d="M65.8813 10.3967L10.52 -13.6875L-17.8672 37.7004L37.4941 61.7805L65.8813 10.3967Z" fill="url(#paint0_linear_10200_41083)"/>
</g>
<mask id="mask1_10200_41083" style="mask-type:luminance" maskUnits="userSpaceOnUse" x="2" y="1" width="44" height="46">
<path d="M2.47656 35.3479C2.66733 35.5676 2.90504 35.7518 3.1761 35.89L20.0303 44.5305L22.8377 45.9623C23.1129 46.1021 23.4168 46.1918 23.7315 46.2259C24.0463 46.26 24.3655 46.2379 24.6705 46.1609L45.3954 12.4927C45.2336 12.3389 45.0465 12.2078 44.8405 12.1037L31.9783 5.51157L25.1742 2.03549C24.9807 1.9397 24.7737 1.86733 24.5586 1.82031L2.47656 35.3479Z" fill="white"/>
</mask>
<g mask="url(#mask1_10200_41083)">
<path d="M-21.4609 17.5089L17.6338 64.4607L69.3295 30.569L30.2348 -16.3828L-21.4609 17.5089Z" fill="url(#paint1_linear_10200_41083)"/>
</g>
<mask id="mask2_10200_41083" style="mask-type:luminance" maskUnits="userSpaceOnUse" x="3" y="1" width="43" height="46">
<path d="M23.7747 1.75828C23.4395 1.78896 23.1153 1.88203 22.8233 2.0314L3.23633 12.0624L24.3623 46.2065C24.6515 46.1692 24.9406 46.0823 25.2018 45.9499L44.8494 35.8776C45.1458 35.7256 45.4018 35.5186 45.5998 35.2708C45.7978 35.023 45.9332 34.7402 45.9966 34.4416L24.4603 1.79139C24.302 1.76369 24.1412 1.74983 23.9799 1.75L23.784 1.75828" fill="white"/>
</mask>
<g mask="url(#mask2_10200_41083)">
<path d="M3.23242 1.75V46.2065H45.9881V1.75H3.23242Z" fill="url(#paint2_linear_10200_41083)"/>
</g>
<defs>
<linearGradient id="paint0_linear_10200_41083" x1="38.1843" y1="-1.68263" x2="14.8725" y2="51.9049" gradientUnits="userSpaceOnUse">
<stop offset="0.3" stop-color="#3E863D"/>
<stop offset="0.5" stop-color="#55934F"/>
<stop offset="0.8" stop-color="#5AAD45"/>
</linearGradient>
<linearGradient id="paint1_linear_10200_41083" x1="-1.68272" y1="41.2538" x2="45.5214" y2="1.95202" gradientUnits="userSpaceOnUse">
<stop offset="0.57" stop-color="#3E863D"/>
<stop offset="0.72" stop-color="#619857"/>
<stop offset="1" stop-color="#76AC64"/>
</linearGradient>
<linearGradient id="paint2_linear_10200_41083" x1="3.24641" y1="23.9803" x2="45.9974" y2="23.9803" gradientUnits="userSpaceOnUse">
<stop offset="0.16" stop-color="#6BBF47"/>
<stop offset="0.38" stop-color="#79B461"/>
<stop offset="0.47" stop-color="#75AC64"/>
<stop offset="0.7" stop-color="#659E5A"/>
<stop offset="0.9" stop-color="#3E863D"/>
</linearGradient>
</defs>
</svg>
