<svg width="38" height="48" viewBox="0 0 38 48" fill="none" xmlns="http://www.w3.org/2000/svg">
<g clip-path="url(#clip0_10200_41100)">
<path d="M16.9008 0H24.7454V35.9545C20.7271 36.7146 17.769 37.0136 14.5686 37.0136C4.98744 37.0036 0 32.7232 0 24.5024C0 16.5816 5.29032 11.4411 13.4883 11.4411C14.7604 11.4411 15.7296 11.5411 16.9008 11.8412V0ZM17.1757 18.3205C16.2569 18.0205 15.4997 17.9204 14.5305 17.9204C10.5628 17.9204 8.27098 20.3407 8.27098 24.5821C8.27098 28.7115 10.4618 30.9917 14.48 30.9917C15.3483 30.9917 16.055 30.9427 17.1757 30.7927V18.3205Z" fill="#2BA977"/>
<path d="M37.5742 12.4062V30.408C37.5742 36.6076 37.1098 39.5889 35.7469 42.1592C34.4748 44.6304 32.7988 46.1886 29.3359 47.9097L22.0566 44.4794C25.5196 42.8702 27.1955 41.4481 28.2657 39.2779C29.3864 37.0587 29.7397 34.4884 29.7397 27.7277V12.4062H37.5742Z" fill="#2BA977"/>
<path d="M28.9492 0H36.7938V7.97078H28.9492V0Z" fill="#2BA977"/>
</g>
<defs>
<clipPath id="clip0_10200_41100">
<rect width="37.6933" height="48" fill="white"/>
</clipPath>
</defs>
</svg>
