<svg width="48" height="48" viewBox="0 0 48 48" fill="none" xmlns="http://www.w3.org/2000/svg">
<path d="M24.0001 12.3906C11.3476 12.3906 1.08984 17.5889 1.08984 24.001C1.08984 30.4131 11.3476 35.6114 24.0001 35.6114C36.6526 35.6114 46.9103 30.4131 46.9103 24.001C46.9103 17.5889 36.6526 12.3906 24.0001 12.3906ZM18.0387 26.263C17.492 26.7745 16.8848 26.9856 16.2162 27.2031C15.5476 27.421 14.6967 27.376 13.6621 27.376H11.3172L10.6673 31.126H7.92947L10.3726 18.376H15.6376C17.2216 18.376 18.377 18.8316 19.1033 19.663C19.8297 20.4944 20.048 21.6745 19.7585 23.1644C19.6388 23.7782 19.4375 24.349 19.1532 24.8575C18.8686 25.3664 18.497 25.8415 18.0387 26.263ZM26.0303 27.376L27.1107 21.9685C27.2337 21.3355 27.1887 20.8653 26.9753 20.6354C26.7616 20.4051 26.3071 20.251 25.6122 20.251H23.441L22.0418 27.376H19.3253L21.7685 15.001H24.485L23.8355 18.376H26.2553C27.7782 18.376 28.8282 18.6816 29.4061 19.2126C29.984 19.7436 30.1572 20.4711 29.9262 21.6606L28.7896 27.376H26.0303ZM41.1275 23.1842C41.0082 23.7981 40.8065 24.3591 40.5226 24.8672C40.2383 25.3761 39.8671 25.8415 39.4085 26.263C38.8617 26.7745 38.2542 26.9856 37.586 27.2031C36.9177 27.421 36.0661 27.376 35.0315 27.376H32.6866L32.0371 31.126H29.2992L31.742 18.376H37.0073C38.5913 18.376 39.7467 18.8316 40.4727 19.663C41.1983 20.4944 41.417 21.6947 41.1275 23.1842ZM35.9697 20.251H34.0943L33.0717 25.501H34.7375C35.8407 25.501 36.6635 25.3922 37.2035 24.976C37.7442 24.5605 38.1083 23.9155 38.2977 22.9431C38.4792 22.009 38.3967 21.2804 38.0502 20.8964C37.7033 20.5124 37.01 20.251 35.9697 20.251ZM14.6003 20.251H12.7246L11.702 25.501H13.3673C14.471 25.501 15.2933 25.3922 15.8337 24.976C16.3741 24.5605 16.7386 23.9155 16.9276 22.9431C17.1091 22.009 17.0266 21.2804 16.6801 20.8964C16.3336 20.5124 15.6406 20.251 14.6003 20.251Z" fill="#6181B6"/>
</svg>
