<svg width="50" height="48" viewBox="0 0 50 48" fill="none" xmlns="http://www.w3.org/2000/svg">
<path d="M43.3538 3H6.19248C4.48218 3 3.0957 4.34315 3.0957 6V42C3.0957 43.6569 4.48218 45 6.19248 45H43.3538C45.0641 45 46.4505 43.6569 46.4505 42V6C46.4505 4.34315 45.0641 3 43.3538 3Z" fill="url(#paint0_linear_10200_41107)"/>
<path opacity="0.35" d="M6.19248 3C4.47686 3 3.0957 4.338 3.0957 6V7V41V42C3.0957 42.1674 3.11705 42.3254 3.14409 42.4844C3.16923 42.6322 3.19418 42.7828 3.24086 42.9219C3.24596 42.9371 3.25165 42.9537 3.25699 42.9688C3.30802 43.1126 3.37822 43.2425 3.45054 43.375C3.52517 43.5118 3.61344 43.6428 3.70861 43.7656C3.80377 43.8884 3.90152 44.0024 4.01506 44.1094C4.24213 44.3234 4.50172 44.5166 4.78925 44.6562C4.93302 44.7261 5.08524 44.7797 5.24086 44.8281C5.10863 44.778 4.98966 44.71 4.8699 44.6406C4.86607 44.6384 4.85758 44.6429 4.85377 44.6406C4.83729 44.631 4.82162 44.6194 4.80538 44.6094C4.74324 44.571 4.68614 44.5276 4.62796 44.4844C4.57316 44.444 4.51788 44.4038 4.46667 44.3594C4.37484 44.2787 4.28734 44.1867 4.20861 44.0938C4.15308 44.0286 4.09589 43.9611 4.04732 43.8906C4.03437 43.8714 4.02747 43.8477 4.01506 43.8281C3.98163 43.7766 3.94784 43.7259 3.91828 43.6719C3.86615 43.5745 3.81213 43.464 3.77312 43.3594C3.76901 43.3485 3.76095 43.3391 3.75699 43.3281C3.74057 43.2822 3.73851 43.2347 3.72474 43.1875C3.70908 43.1342 3.68841 43.086 3.67635 43.0312C3.63873 42.8605 3.61183 42.6821 3.61183 42.5V41.5V7.5V6.5C3.61183 5.10908 4.75668 4 6.19248 4H7.22474H42.3215H43.3538C44.7896 4 45.9344 5.10908 45.9344 6.5V7.5V41.5V42.5C45.9344 42.6821 45.9075 42.8605 45.8699 43.0312C45.8471 43.1347 45.8243 43.2301 45.7893 43.3281C45.7853 43.3391 45.7772 43.3485 45.7731 43.3594C45.7407 43.4462 45.7017 43.5431 45.6602 43.625C45.6388 43.6664 45.6194 43.71 45.5957 43.75C45.5675 43.7986 45.5303 43.8442 45.4989 43.8906C45.4504 43.9611 45.3932 44.0286 45.3376 44.0938C45.2637 44.181 45.1812 44.2672 45.0957 44.3438C45.0899 44.3489 45.0854 44.3543 45.0796 44.3594C45.0081 44.4222 44.9324 44.4766 44.8538 44.5312C44.8008 44.5678 44.7483 44.6079 44.6925 44.6406C44.6887 44.6429 44.6802 44.6384 44.6763 44.6406C44.5566 44.71 44.4376 44.778 44.3054 44.8281C44.461 44.7797 44.6132 44.7261 44.757 44.6562C45.0445 44.5166 45.3041 44.3234 45.5312 44.1094C45.6447 44.0024 45.7425 43.8884 45.8376 43.7656C45.9328 43.6428 46.0211 43.5118 46.0957 43.375C46.168 43.2425 46.2382 43.1126 46.2893 42.9688C46.2946 42.9534 46.3003 42.9374 46.3054 42.9219C46.3521 42.7828 46.377 42.6322 46.4022 42.4844C46.4292 42.3254 46.4505 42.1674 46.4505 42V41V7V6C46.4505 4.338 45.0694 3 43.3538 3H6.19248Z" fill="url(#paint1_linear_10200_41107)"/>
<path opacity="0.213" d="M6.19248 45C4.47686 45 3.0957 43.662 3.0957 42V41V7V6C3.0957 5.83264 3.11705 5.67465 3.14409 5.51562C3.16923 5.36783 3.19418 5.21717 3.24086 5.07812C3.24596 5.06294 3.25165 5.04633 3.25699 5.03125C3.30802 4.88736 3.37822 4.75752 3.45054 4.625C3.52517 4.48825 3.61344 4.35719 3.70861 4.23438C3.80377 4.11156 3.90152 3.99764 4.01506 3.89062C4.24213 3.6766 4.50172 3.48336 4.78925 3.34375C4.93302 3.27394 5.08524 3.22028 5.24086 3.17188C5.10863 3.22199 4.98966 3.29001 4.8699 3.35938C4.86607 3.36157 4.85758 3.35713 4.85377 3.35938C4.83729 3.36903 4.82162 3.38063 4.80538 3.39062C4.74324 3.42898 4.68614 3.47238 4.62796 3.51562C4.57316 3.55602 4.51788 3.59618 4.46667 3.64062C4.37484 3.72134 4.28734 3.81332 4.20861 3.90625C4.15308 3.97138 4.09589 4.03889 4.04732 4.10938C4.03437 4.12857 4.02747 4.15231 4.01506 4.17188C3.98163 4.22339 3.94784 4.27413 3.91828 4.32812C3.86615 4.42548 3.81213 4.53598 3.77312 4.64062C3.76901 4.65153 3.76095 4.6609 3.75699 4.67188C3.74057 4.71785 3.73851 4.76529 3.72474 4.8125C3.70908 4.86581 3.68841 4.91402 3.67635 4.96875C3.63873 5.13951 3.61183 5.31785 3.61183 5.5V6.5V40.5V41.5C3.61183 42.8909 4.75668 44 6.19248 44H7.22474H42.3215H43.3538C44.7896 44 45.9344 42.8909 45.9344 41.5V40.5V6.5V5.5C45.9344 5.31785 45.9075 5.13951 45.8699 4.96875C45.8471 4.8653 45.8243 4.76992 45.7893 4.67188C45.7853 4.6609 45.7772 4.65153 45.7731 4.64062C45.7407 4.55376 45.7017 4.4569 45.6602 4.375C45.6388 4.3336 45.6194 4.29002 45.5957 4.25C45.5675 4.2014 45.5303 4.15583 45.4989 4.10938C45.4504 4.03889 45.3932 3.97138 45.3376 3.90625C45.2637 3.81903 45.1812 3.73275 45.0957 3.65625C45.0899 3.65115 45.0854 3.64567 45.0796 3.64062C45.0081 3.57785 44.9324 3.52341 44.8538 3.46875C44.8008 3.43217 44.7483 3.39207 44.6925 3.35938C44.6887 3.35713 44.6802 3.36157 44.6763 3.35938C44.5566 3.29001 44.4376 3.22199 44.3054 3.17188C44.461 3.22027 44.6132 3.27394 44.757 3.34375C45.0445 3.48336 45.3041 3.6766 45.5312 3.89062C45.6447 3.99764 45.7425 4.11156 45.8376 4.23438C45.9328 4.35719 46.0211 4.48825 46.0957 4.625C46.168 4.75752 46.2382 4.88736 46.2893 5.03125C46.2946 5.04664 46.3003 5.06262 46.3054 5.07812C46.3521 5.21717 46.377 5.36783 46.4022 5.51562C46.4292 5.67465 46.4505 5.83264 46.4505 6V7V41V42C46.4505 43.662 45.0694 45 43.3538 45H6.19248Z" fill="url(#paint2_linear_10200_41107)"/>
<path d="M9.58954 7.53921C8.75765 7.52535 8.0336 7.82874 7.65565 8.71919C7.01993 10.2195 8.60566 11.6831 9.17256 12.4432C9.57003 12.9764 10.0784 13.5754 10.3629 14.1753C10.5498 14.5693 10.5827 14.9663 10.7429 15.3832C11.1362 16.4109 11.4782 17.5262 11.9876 18.4764C12.2454 18.9569 12.5288 19.4653 12.8544 19.8941C13.0536 20.1578 13.3956 20.2742 13.4501 20.6811C13.1153 21.1348 13.0968 21.8362 12.9088 22.4103C12.0626 24.9951 12.381 28.2087 13.6123 30.1219C13.9903 30.7089 14.8807 31.9685 16.1039 31.485C17.174 31.0631 16.9358 29.7548 17.2418 28.5997C17.3107 28.338 17.2674 28.146 17.4031 27.9709V28.0236C17.7276 28.6534 18.0532 29.2812 18.3787 29.911C19.1007 31.0362 20.3804 32.2142 21.47 33.0081C22.0328 33.42 22.4765 34.1314 23.2036 34.3712V34.3184H23.1492C23.0085 34.1055 22.7887 34.016 22.6079 33.8448C22.1838 33.4429 21.7114 32.9425 21.3611 32.4818C20.3742 31.1844 19.5033 29.7647 18.7084 28.2862C18.3284 27.5799 17.9987 26.8018 17.6814 26.0835C17.5581 25.8069 17.5602 25.387 17.3034 25.2438C16.9532 25.7701 16.4356 26.1959 16.1655 26.8177C15.7321 27.8117 15.6766 29.0225 15.5164 30.2791C15.4209 30.312 15.4642 30.2911 15.4076 30.3318C14.6537 30.1557 14.3888 29.4035 14.1084 28.7578C13.3987 27.1261 13.2672 24.4986 13.8906 22.6201C14.0519 22.1346 14.7811 20.6034 14.4863 20.1538C14.3456 19.706 13.8804 19.4483 13.6195 19.1061C13.297 18.6833 12.9756 18.1261 12.7527 17.6376C12.1725 16.3651 11.9013 14.9364 11.2903 13.648C10.9986 13.0331 10.5056 12.4103 10.1 11.8641C9.65114 11.2582 9.14689 10.8125 8.79873 10.0802C8.67444 9.81953 8.5091 9.40463 8.69191 9.13801C8.7505 8.95792 8.83159 8.88131 9.01541 8.82261C9.32969 8.58781 10.2047 8.90123 10.5313 9.03255C11.4001 9.38176 12.1242 9.71406 12.8606 10.1857C13.2138 10.4125 13.5723 10.8513 13.9985 10.9726H14.4853C15.2473 11.1428 16.1018 11.0264 16.8146 11.2353C18.0737 11.6064 19.2024 12.1825 20.2273 12.8093C23.3495 14.7185 25.9006 17.4366 27.6465 20.6791C27.9279 21.2014 28.0491 21.6989 28.2966 22.253C28.7957 23.3693 29.4253 24.5175 29.9213 25.6089C30.4174 26.6983 30.9001 27.7977 31.6005 28.7041C31.9692 29.1807 33.3916 29.4374 34.0376 29.699C34.4905 29.8851 35.233 30.0781 35.6623 30.3278C36.4819 30.8074 37.2768 31.3774 38.046 31.9018C38.4301 32.1644 39.6122 32.7385 39.6708 33.2131C37.7656 33.1633 36.3114 33.3344 35.0677 33.8419C34.7144 33.9861 34.1495 33.9911 34.092 34.4209C34.2861 34.6179 34.318 34.9124 34.472 35.1552C34.7688 35.6208 35.269 36.2436 35.7168 36.5709C36.2056 36.9281 36.7088 37.3111 37.2337 37.6206C38.1662 38.1708 39.2055 38.4852 40.1031 39.0363C40.632 39.3617 41.1579 39.7696 41.6734 40.1367C41.9281 40.3178 42.0996 40.5993 42.4314 40.7128V40.6622C42.2568 40.4472 42.2137 40.1498 42.0534 39.9259L41.3499 39.2444C40.6618 38.3589 39.7868 37.5819 38.8584 36.9362C38.1179 36.4208 36.4583 35.7263 36.1491 34.8906C36.1307 34.8727 36.1133 34.8558 36.0947 34.8379C36.6195 34.7802 37.2368 34.5971 37.7215 34.4718C38.5359 34.2598 39.262 34.3136 40.1021 34.1036C40.4811 33.9992 40.8611 33.8947 41.2401 33.7902V33.5803C40.8149 33.1574 40.5109 32.5993 40.0477 32.2172C38.8348 31.2124 37.511 30.2174 36.1481 29.3827C35.3922 28.92 34.4597 28.6216 33.6586 28.2296C33.3895 28.0982 32.9161 28.0286 32.7374 27.8087C32.3163 27.2894 32.0863 26.6317 31.7617 26.0268C31.0818 24.7583 30.4153 23.3734 29.8135 22.0372C29.4027 21.1278 29.1326 20.2294 28.6211 19.4136C26.1614 15.4976 23.5148 13.1327 19.4139 10.8095C18.541 10.315 17.4914 10.122 16.3811 9.86732C15.7855 9.83249 15.1888 9.79672 14.5931 9.76186C14.2295 9.61461 13.8506 9.18381 13.5086 8.9749C12.6592 8.45555 10.9801 7.55415 9.59361 7.53125M15.4589 13.2232C15.0614 13.2155 14.78 13.266 14.4832 13.3287V13.3814H14.5376C14.7266 13.7584 15.0614 14.0012 15.2956 14.3265C15.4763 14.6937 15.6561 15.0598 15.8368 15.4269C15.8542 15.4101 15.8727 15.3941 15.8912 15.3763C16.2271 15.1475 16.3822 14.7803 16.3801 14.2212C16.2456 14.0839 16.225 13.9137 16.109 13.7496C15.9539 13.5317 15.655 13.4063 15.4599 13.2233L15.4589 13.2232Z" fill="#DEF2FE"/>
<path d="M9.58954 7.53921C8.75765 7.52535 8.0336 7.82874 7.65565 8.71919C7.01993 10.2195 8.60566 11.6831 9.17256 12.4432C9.57003 12.9764 10.0784 13.5754 10.3629 14.1753C10.5498 14.5693 10.5827 14.9663 10.7429 15.3832C11.1362 16.4109 11.4782 17.5262 11.9876 18.4764C12.2454 18.9569 12.5288 19.4653 12.8544 19.8941C13.0536 20.1578 13.3956 20.2742 13.4501 20.6811C13.1153 21.1348 13.0968 21.8362 12.9088 22.4103C12.0626 24.9951 12.381 28.2087 13.6123 30.1219C13.9903 30.7089 14.8807 31.9685 16.1039 31.485C17.174 31.0631 16.9358 29.7548 17.2418 28.5997C17.3107 28.338 17.2674 28.146 17.4031 27.9709V28.0236C17.7276 28.6534 18.0532 29.2812 18.3787 29.911C19.1007 31.0362 20.3804 32.2142 21.47 33.0081C22.0328 33.42 22.4765 34.1314 23.2036 34.3712V34.3184H23.1492C23.0085 34.1055 22.7887 34.016 22.6079 33.8448C22.1838 33.4429 21.7114 32.9425 21.3611 32.4818C20.3742 31.1844 19.5033 29.7647 18.7084 28.2862C18.3284 27.5799 17.9987 26.8018 17.6814 26.0835C17.5581 25.8069 17.5602 25.387 17.3034 25.2438C16.9532 25.7701 16.4356 26.1959 16.1655 26.8177C15.7321 27.8117 15.6766 29.0225 15.5164 30.2791C15.4209 30.312 15.4642 30.2911 15.4076 30.3318C14.6537 30.1557 14.3888 29.4035 14.1084 28.7578C13.3987 27.1261 13.2672 24.4986 13.8906 22.6201C14.0519 22.1346 14.7811 20.6034 14.4863 20.1538C14.3456 19.706 13.8804 19.4483 13.6195 19.1061C13.297 18.6833 12.9756 18.1261 12.7527 17.6376C12.1725 16.3651 11.9013 14.9364 11.2903 13.648C10.9986 13.0331 10.5056 12.4103 10.1 11.8641C9.65114 11.2582 9.14689 10.8125 8.79873 10.0802C8.67444 9.81953 8.5091 9.40463 8.69191 9.13801C8.7505 8.95792 8.83159 8.88131 9.01541 8.82261C9.32969 8.58781 10.2047 8.90123 10.5313 9.03255C11.4001 9.38176 12.1242 9.71406 12.8606 10.1857C13.2138 10.4125 13.5723 10.8513 13.9985 10.9726H14.4853C15.2473 11.1428 16.1018 11.0264 16.8146 11.2353C18.0737 11.6064 19.2024 12.1825 20.2273 12.8093C23.3495 14.7185 25.9006 17.4366 27.6465 20.6791C27.9279 21.2014 28.0491 21.6989 28.2966 22.253C28.7957 23.3693 29.4253 24.5175 29.9213 25.6089C30.4174 26.6983 30.9001 27.7977 31.6005 28.7041C31.9692 29.1807 33.3916 29.4374 34.0376 29.699C34.4905 29.8851 35.233 30.0781 35.6623 30.3278C36.4819 30.8074 37.2768 31.3774 38.046 31.9018C38.4301 32.1644 39.6122 32.7385 39.6708 33.2131C37.7656 33.1633 36.3114 33.3344 35.0677 33.8419C34.7144 33.9861 34.1495 33.9911 34.092 34.4209C34.2861 34.6179 34.318 34.9124 34.472 35.1552C34.7688 35.6208 35.269 36.2436 35.7168 36.5709C36.2056 36.9281 36.7088 37.3111 37.2337 37.6206C38.1662 38.1708 39.2055 38.4852 40.1031 39.0363C40.632 39.3617 41.1579 39.7696 41.6734 40.1367C41.9281 40.3178 42.0996 40.5993 42.4314 40.7128V40.6622C42.2568 40.4472 42.2137 40.1498 42.0534 39.9259L41.3499 39.2444C40.6618 38.3589 39.7868 37.5819 38.8584 36.9362C38.1179 36.4208 36.4583 35.7263 36.1491 34.8906C36.1307 34.8727 36.1133 34.8558 36.0947 34.8379C36.6195 34.7802 37.2368 34.5971 37.7215 34.4718C38.5359 34.2598 39.262 34.3136 40.1021 34.1036C40.4811 33.9992 40.8611 33.8947 41.2401 33.7902V33.5803C40.8149 33.1574 40.5109 32.5993 40.0477 32.2172C38.8348 31.2124 37.511 30.2174 36.1481 29.3827C35.3922 28.92 34.4597 28.6216 33.6586 28.2296C33.3895 28.0982 32.9161 28.0286 32.7374 27.8087C32.3163 27.2894 32.0863 26.6317 31.7617 26.0268C31.0818 24.7583 30.4153 23.3734 29.8135 22.0372C29.4027 21.1278 29.1326 20.2294 28.6211 19.4136C26.1614 15.4976 23.5148 13.1327 19.4139 10.8095C18.541 10.315 17.4914 10.122 16.3811 9.86732C15.7855 9.83249 15.1888 9.79672 14.5931 9.76186C14.2295 9.61461 13.8506 9.18381 13.5086 8.9749C12.6592 8.45555 10.9801 7.55415 9.59361 7.53125M15.4589 13.2232C15.0614 13.2155 14.78 13.266 14.4832 13.3287V13.3814H14.5376C14.7266 13.7584 15.0614 14.0012 15.2956 14.3265C15.4763 14.6937 15.6561 15.0598 15.8368 15.4269C15.8542 15.4101 15.8727 15.3941 15.8912 15.3763C16.2271 15.1475 16.3822 14.7803 16.3801 14.2212C16.2456 14.0839 16.225 13.9137 16.109 13.7496C15.9539 13.5317 15.655 13.4063 15.4599 13.2233L15.4589 13.2232Z" stroke="#DEF2FE" stroke-width="0.410805" stroke-linecap="square" stroke-linejoin="bevel"/>
<defs>
<linearGradient id="paint0_linear_10200_41107" x1="24.7731" y1="45" x2="24.7731" y2="2.99386" gradientUnits="userSpaceOnUse">
<stop stop-color="#233D65"/>
<stop offset="1" stop-color="#396AA1"/>
</linearGradient>
<linearGradient id="paint1_linear_10200_41107" x1="18.7639" y1="3" x2="18.7639" y2="31.9466" gradientUnits="userSpaceOnUse">
<stop stop-color="#FEFEFE"/>
<stop offset="1" stop-color="#FEFEFE" stop-opacity="0"/>
</linearGradient>
<linearGradient id="paint2_linear_10200_41107" x1="3.0957" y1="24.0859" x2="46.4505" y2="24.0859" gradientUnits="userSpaceOnUse">
<stop stop-color="#06B5FF"/>
<stop offset="1" stop-color="#00FFFF" stop-opacity="0"/>
</linearGradient>
</defs>
</svg>
