<svg width="48" height="48" viewBox="0 0 48 48" fill="none" xmlns="http://www.w3.org/2000/svg">
<path fill-rule="evenodd" clip-rule="evenodd" d="M33.0152 16.0469C33.617 17.788 34.0505 19.5655 34.193 21.4079C34.37 23.6935 34.289 25.963 33.8072 28.2111C33.794 28.273 33.7663 28.3311 33.7457 28.3911C33.5945 28.3915 33.4404 28.3727 33.2927 28.3956C32.0443 28.5917 30.797 28.795 29.5498 28.9971C28.2605 29.206 26.9694 29.4066 25.6824 29.6297C25.2264 29.7085 24.662 29.6144 24.4779 30.2451C24.4727 30.2624 24.4202 30.2654 24.3898 30.2751L24.452 26.506C24.4307 23.4745 24.4097 20.443 24.3887 17.4115L24.9894 17.3084C25.9719 17.1475 26.9544 16.9844 27.9377 16.828C29.111 16.6416 30.2855 16.4605 31.4597 16.2786C31.9775 16.198 32.4962 16.1241 33.0152 16.0469Z" fill="#439934"/>
<path fill-rule="evenodd" clip-rule="evenodd" d="M23.149 41.2611C22.5153 40.7162 21.8594 40.1954 21.2519 39.6224C17.983 36.5391 15.592 32.9102 14.4145 28.5351C14.0901 27.331 13.8738 26.1074 13.8044 24.8631C13.7556 23.9924 13.6851 23.1137 13.7466 22.2475C13.9105 19.9435 14.2435 17.6616 14.9193 15.4424L14.9564 15.3906C15.022 15.478 15.1165 15.5552 15.1499 15.6539C15.8095 17.5964 16.4643 19.5404 17.1156 21.4855C19.1624 27.598 21.2065 33.712 23.2566 39.823C23.2968 39.9422 23.4006 40.0401 23.4753 40.1477L23.149 41.2611Z" fill="#45A538"/>
<path fill-rule="evenodd" clip-rule="evenodd" d="M33.0139 16.0443C32.4949 16.1215 31.9759 16.1954 31.458 16.2753C30.2839 16.4571 29.1094 16.6383 27.936 16.8246C26.9528 16.981 25.9703 17.1441 24.9878 17.305L24.387 17.4081L24.3825 17.0162C24.3626 16.6941 24.3285 16.3724 24.3248 16.0502C24.2989 13.996 24.2828 11.9417 24.2573 9.8875C24.2415 8.60162 24.2179 7.31612 24.1916 6.03062C24.1755 5.23187 24.1583 4.43275 24.1223 3.63512C24.1028 3.2065 24.0338 2.78013 24.0056 2.3515C23.9899 2.10513 24.0116 1.85688 24.0165 1.60938C24.3229 2.203 24.6225 2.80113 24.9375 3.39025C25.4351 4.32175 26.2279 5.008 26.9415 5.75687C29.7626 8.71637 31.7655 12.1574 33.0139 16.0443Z" fill="#46A037"/>
<path fill-rule="evenodd" clip-rule="evenodd" d="M24.3895 30.2817C24.4199 30.2719 24.4728 30.2689 24.4776 30.2517C24.6618 29.6209 25.2261 29.715 25.6821 29.6363C26.9691 29.4135 28.2603 29.2125 29.5495 29.0037C30.7968 28.8015 32.044 28.5983 33.2924 28.4022C33.4401 28.3789 33.5943 28.398 33.7454 28.3977C33.5121 29.2302 33.3284 30.0807 33.0325 30.8903C32.6965 31.8087 32.29 32.7049 31.8584 33.5835C31.2134 34.8972 30.4098 36.1223 29.476 37.2447C28.7564 38.1102 27.9543 38.91 27.1503 39.7002C26.7059 40.137 26.182 40.4929 25.6945 40.8855L25.5681 40.7993L25.1129 40.41L24.6419 39.3777C24.3175 38.169 24.1473 36.9387 24.1191 35.6884L24.1278 35.478L24.1919 34.5683C24.2133 34.2578 24.2418 33.9477 24.2549 33.6364C24.3033 32.5182 24.3453 31.3999 24.3895 30.2817Z" fill="#409433"/>
<path fill-rule="evenodd" clip-rule="evenodd" d="M24.3893 30.2765C24.3451 31.3947 24.3031 32.513 24.2555 33.6316C24.2423 33.9429 24.2138 34.253 24.1925 34.5635L23.9056 34.6719C23.2685 32.7961 22.631 30.9402 22.0073 29.0795C20.9761 26.0011 19.9572 22.9179 18.9275 19.8387C18.0961 17.3532 17.258 14.8704 16.415 12.3886C16.3756 12.2724 16.2623 12.1816 16.1836 12.0789L18.0196 8.70312C18.0826 8.81262 18.1658 8.915 18.2056 9.03275C19.055 11.5464 19.9028 14.0604 20.7436 16.577C21.8371 19.8507 22.9238 23.1271 24.0166 26.4012C24.0601 26.5321 24.1321 26.6529 24.2007 26.7995L24.452 26.507C24.431 27.7636 24.41 29.0199 24.3893 30.2765Z" fill="#4FAA41"/>
<path fill-rule="evenodd" clip-rule="evenodd" d="M16.184 12.0781C16.2628 12.1809 16.3757 12.2716 16.4154 12.3879C17.2584 14.8696 18.0965 17.3525 18.9279 19.838C19.9577 22.9171 20.9765 26.0004 22.0078 29.0787C22.631 30.9391 23.2685 32.7954 23.906 34.6711L24.1929 34.5627L24.1288 35.4725L24.0707 35.6821C23.9709 36.6781 23.8869 37.6764 23.7654 38.6701C23.7043 39.1681 23.5745 39.6571 23.4759 40.1502C23.4017 40.0426 23.2974 39.9447 23.2573 39.8255C21.2072 33.7141 19.163 27.6005 17.1163 21.488C16.4649 19.5429 15.8102 17.5989 15.1505 15.6564C15.1172 15.5577 15.023 15.4805 14.957 15.3931C15.3658 14.288 15.7749 13.1829 16.184 12.0781Z" fill="#4AA73C"/>
<path fill-rule="evenodd" clip-rule="evenodd" d="M24.4519 26.5095L24.2007 26.802C24.132 26.6554 24.06 26.5342 24.0165 26.4037C22.9242 23.1296 21.837 19.8532 20.7435 16.5795C19.9028 14.0629 19.0549 11.5489 18.2055 9.03525C18.1662 8.9175 18.0829 8.81475 18.0195 8.70563L20.2902 5.71875C20.3618 5.81437 20.4638 5.8995 20.5009 6.00712C21.1313 7.8525 21.756 9.70012 22.377 11.5489C22.9572 13.2754 23.5287 15.0045 24.1155 16.7287C24.1549 16.8442 24.2918 16.926 24.3833 17.0235L24.3878 17.4154C24.4095 20.4461 24.4309 23.478 24.4519 26.5095Z" fill="#57AE47"/>
<path fill-rule="evenodd" clip-rule="evenodd" d="M24.3841 17.022C24.2926 16.9245 24.1558 16.8427 24.1164 16.7272C23.5295 15.003 22.958 13.2739 22.3779 11.5474C21.7569 9.69862 21.1321 7.85138 20.5018 6.00563C20.4646 5.898 20.3626 5.81288 20.291 5.71725C21.0294 4.99425 21.7449 4.24538 22.5129 3.55575C23.1958 2.943 23.7448 2.286 23.7699 1.31775C23.771 1.27762 23.792 1.2375 23.8243 1.125L24.0189 1.61475C24.014 1.86262 23.9919 2.1105 24.008 2.35687C24.0361 2.7855 24.1051 3.21188 24.1246 3.6405C24.1606 4.43813 24.1779 5.23725 24.194 6.036C24.2199 7.3215 24.2435 8.607 24.2596 9.89288C24.2848 11.9471 24.3013 14.0014 24.3271 16.0556C24.3301 16.3785 24.3639 16.6999 24.3841 17.022Z" fill="#60B24F"/>
<path fill-rule="evenodd" clip-rule="evenodd" d="M23.4747 40.1516C23.5733 39.6584 23.7031 39.1691 23.7642 38.6714C23.8861 37.6781 23.9697 36.6794 24.0694 35.6834L24.0942 35.6797L24.1189 35.6838C24.1471 36.9341 24.3173 38.1644 24.6417 39.3731C24.5757 39.4601 24.4823 39.5377 24.4474 39.6359C24.1748 40.4047 23.9179 41.1794 23.6438 41.9482C23.6063 42.0532 23.5021 42.1349 23.4286 42.2272L23.1484 41.2649L23.4747 40.1516Z" fill="#A9AA88"/>
<path fill-rule="evenodd" clip-rule="evenodd" d="M23.4297 42.2291C23.5032 42.1369 23.6078 42.0551 23.6449 41.9501C23.9191 41.1814 24.1763 40.407 24.4486 39.6379C24.4834 39.5396 24.5764 39.462 24.6428 39.375L25.1134 40.4077C25.0204 40.5397 24.8922 40.6586 24.8404 40.8056L23.9389 43.4528C23.9018 43.5589 23.7751 43.6339 23.6903 43.7235L23.4297 42.2291Z" fill="#B6B598"/>
<path fill-rule="evenodd" clip-rule="evenodd" d="M23.6895 43.722C23.7746 43.6328 23.901 43.5574 23.9381 43.4513L24.8396 40.8041C24.891 40.6575 25.0196 40.5382 25.1126 40.4062L25.5682 40.7951C25.3481 41.0126 25.2258 41.2639 25.2993 41.5815L25.161 42.0345C25.098 42.1121 25.0068 42.1796 24.9757 42.2685C24.6611 43.1696 24.3607 44.0756 24.0438 44.9767C24.0037 45.0911 23.8923 45.1807 23.8136 45.2812C23.7727 44.7611 23.7311 44.2421 23.6895 43.722Z" fill="#C2C1A7"/>
<path fill-rule="evenodd" clip-rule="evenodd" d="M23.814 45.278C23.8924 45.1771 24.0038 45.0875 24.0443 44.9735C24.3612 44.0727 24.6615 43.1667 24.9762 42.2652C25.0073 42.1767 25.098 42.1089 25.1614 42.0312L24.9705 44.1106C24.9195 44.1695 24.8457 44.2209 24.8213 44.2895C24.6057 44.8947 24.4024 45.5045 24.186 46.1097C24.1414 46.2346 24.0559 46.3449 23.9892 46.4615C23.9299 46.3839 23.8238 46.3089 23.8189 46.2279C23.7998 45.9125 23.8129 45.5949 23.814 45.278Z" fill="#CECDB7"/>
<path fill-rule="evenodd" clip-rule="evenodd" d="M23.9883 46.4681C24.055 46.3511 24.1405 46.2408 24.1852 46.1163C24.4019 45.5114 24.6048 44.9017 24.8204 44.2961C24.8448 44.2274 24.919 44.1764 24.9697 44.1172L24.9742 45.4822L24.5174 46.6537L23.9883 46.4681Z" fill="#DBDAC7"/>
<path fill-rule="evenodd" clip-rule="evenodd" d="M24.5176 46.6559L24.9743 45.4844L25.0685 46.8704L24.5176 46.6559Z" fill="#EBE9DC"/>
<path fill-rule="evenodd" clip-rule="evenodd" d="M25.2988 41.5833C25.2253 41.2656 25.3472 41.014 25.5677 40.7969L25.694 40.8831L25.2988 41.5833Z" fill="#CECDB7"/>
<path fill-rule="evenodd" clip-rule="evenodd" d="M24.1198 35.6866L24.0951 35.6824L24.0703 35.6862L24.1284 35.4766L24.1198 35.6866Z" fill="#4FAA41"/>
</svg>
