<svg width="48" height="48" viewBox="0 0 48 48" fill="none" xmlns="http://www.w3.org/2000/svg">
<path d="M38.2875 0.75H9.7125C7.2375 0.75 5.25 2.7375 5.25 5.2125V42.825C5.25 45.3 7.2375 47.2875 9.7125 47.2875H38.325C40.8 47.2875 42.7875 45.3 42.7875 42.825V5.2125C42.75 2.7375 40.7625 0.75 38.2875 0.75ZM13.875 40.7625V30.1875L19.1625 35.475L13.875 40.7625ZM33.75 40.875H28.8375L28.875 40.8V22.275C28.875 22.275 30.0375 17.85 13.9875 24.075C13.95 24.15 13.9125 6.9375 13.9125 6.9375L19.125 6.9V17.925C19.125 17.925 33.75 12.15 33.75 22.3125V40.875ZM31.8 13.5H26.25C28.2375 11.25 30.075 7.125 30.075 7.125H35.8125C35.8125 7.125 34.8375 9.75 31.8 13.5Z" fill="#6762A6"/>
</svg>
