<svg width="36" height="48" viewBox="0 0 36 48" fill="none" xmlns="http://www.w3.org/2000/svg">
<g clip-path="url(#clip0_10200_41134)">
<path d="M11.4536 37.1094C11.4536 37.1094 9.62264 38.1742 12.7567 38.5345C16.5535 38.9676 18.494 38.9055 22.6781 38.1136C22.6781 38.1136 23.7782 38.8033 25.3145 39.4008C15.9348 43.4207 4.08639 39.1679 11.4536 37.1094Z" fill="#5382A1"/>
<path d="M10.3073 31.8594C10.3073 31.8594 8.25366 33.3795 11.39 33.7039C15.4459 34.1224 18.6489 34.1566 24.1914 33.0893C24.1914 33.0893 24.958 33.8665 26.1634 34.2915C14.8228 37.6077 2.1914 34.553 10.3073 31.8594Z" fill="#5382A1"/>
<path d="M19.9694 22.9598C22.2806 25.6206 19.3622 28.0151 19.3622 28.0151C19.3622 28.0151 25.2306 24.9856 22.5355 21.192C20.0184 17.6543 18.0881 15.8965 28.538 9.83594C28.538 9.83594 12.1351 13.9326 19.9694 22.9598Z" fill="#E76F00"/>
<path d="M32.3748 40.9834C32.3748 40.9834 33.7297 42.0998 30.8825 42.9635C25.4684 44.6037 8.34852 45.0989 3.59269 43.0289C1.88308 42.2851 5.08907 41.253 6.09755 41.0365C7.1493 40.8084 7.75033 40.8509 7.75033 40.8509C5.84908 39.5115 -4.53857 43.4808 2.47392 44.6175C21.598 47.7189 37.3353 43.2209 32.3748 40.9834Z" fill="#5382A1"/>
<path d="M12.3334 26.4219C12.3334 26.4219 3.62511 28.4902 9.24957 29.2413C11.6244 29.5593 16.3585 29.4873 20.7683 29.1179C24.3721 28.8139 27.9909 28.1675 27.9909 28.1675C27.9909 28.1675 26.7201 28.7117 25.8007 29.3395C16.9576 31.6652 -0.125603 30.5833 4.79244 28.2043C8.95163 26.1938 12.3334 26.4219 12.3334 26.4219Z" fill="#5382A1"/>
<path d="M27.9561 35.1557C36.9455 30.4845 32.7891 25.9955 29.888 26.6003C29.177 26.7482 28.8599 26.8765 28.8599 26.8765C28.8599 26.8765 29.1239 26.463 29.6281 26.284C35.3673 24.2662 39.7812 32.235 27.7754 35.3912C27.7754 35.3913 27.9145 35.2669 27.9561 35.1557Z" fill="#5382A1"/>
<path d="M22.5347 0.0546875C22.5347 0.0546875 27.5132 5.03485 17.8129 12.6929C10.0342 18.836 16.0391 22.3386 17.8096 26.3405C13.2691 22.2439 9.93692 18.6375 12.1724 15.2811C15.4535 10.3541 24.5434 7.96537 22.5347 0.0546875Z" fill="#E76F00"/>
<path d="M13.2173 47.8112C21.846 48.3635 35.0964 47.5047 35.4102 43.4219C35.4102 43.4219 34.807 44.9697 28.2791 46.1988C20.9143 47.5848 11.8308 47.423 6.44336 46.5347C6.44349 46.5346 7.54624 47.4475 13.2173 47.8112Z" fill="#5382A1"/>
</g>
<defs>
<clipPath id="clip0_10200_41134">
<rect width="35.5145" height="48" fill="white"/>
</clipPath>
</defs>
</svg>
