<svg width="475" height="254" viewBox="0 0 475 254" fill="none" xmlns="http://www.w3.org/2000/svg">
<rect width="475" height="254" fill="white"/>
<path d="M47.2422 180.501C47.2422 139.836 80.2072 106.871 120.872 106.871H416.288V150.869C416.288 191.534 383.323 224.499 342.658 224.499H47.2422V180.501Z" fill="#AB91F1"/>
<path d="M53.1283 212.902C54.1276 212.547 55.1261 213.432 54.8933 214.467L50.6522 233.318C50.4269 234.317 49.2118 234.709 48.4448 234.03L34.4819 221.655C33.7149 220.975 33.9582 219.722 34.9236 219.378L53.1283 212.902Z" stroke="#0F2C5C" stroke-width="2.69376"/>
<path d="M419.377 41.4406C418.358 41.7353 417.415 40.7918 417.709 39.773L423.078 21.2114C423.363 20.2272 424.599 19.9089 425.324 20.6334L438.517 33.8261C439.241 34.5508 438.923 35.7874 437.939 36.0724L419.377 41.4406Z" stroke="#0F2C5C" stroke-width="2.69376"/>
<path d="M136.137 56.5873C136.137 46.6692 144.177 38.6289 154.095 38.6289H398.33C408.248 38.6289 416.288 46.6692 416.288 56.5873V106.871H136.137V56.5873Z" fill="#0F2C5C"/>
<path d="M113.034 75.3984C113.662 74.544 114.985 74.7175 115.372 75.7051L122.421 93.6955C122.795 94.6497 122.008 95.6554 120.992 95.5222L102.493 93.0959C101.477 92.9626 100.976 91.788 101.583 90.9623L113.034 75.3984Z" stroke="#AB91F1" stroke-width="2.69376"/>
<circle cx="415.392" cy="199.357" r="9.42817" stroke="#0F2C5C" stroke-width="2.69376"/>
<rect x="69.6914" y="231.684" width="147.259" height="4.4896" rx="2.2448" fill="#AB91F1"/>
<rect x="211.562" y="240.66" width="147.259" height="4.4896" rx="2.2448" fill="#0F2C5C"/>
<rect x="364.211" y="224.5" width="55.6711" height="3.59168" rx="1.79584" fill="#AB91F1"/>
<path d="M173.062 61.3968L174.826 51.3758H192.284L184.406 96.0605H173.188L179.301 61.3968H173.062ZM230.665 59.443H211.001L209.489 68.1404C210.497 67.2161 211.8 66.4598 213.396 65.8715C214.993 65.2833 216.674 64.9892 218.438 64.9892C222.388 64.9892 225.287 66.0606 227.136 68.2035C229.027 70.3463 229.972 73.1194 229.972 76.5228C229.972 77.5312 229.867 78.7076 229.657 80.0522C228.774 84.9681 226.695 88.8757 223.417 91.7748C220.14 94.632 215.98 96.0605 210.938 96.0605C206.317 96.0605 202.766 95.0101 200.287 92.9093C197.808 90.7664 196.569 87.9093 196.569 84.3379C196.569 83.9597 196.611 83.3085 196.695 82.3841H207.157C207.199 83.6866 207.64 84.7791 208.48 85.6614C209.321 86.5017 210.56 86.9219 212.199 86.9219C214.174 86.9219 215.749 86.2917 216.926 85.0312C218.102 83.7707 218.901 82.09 219.321 79.9892C219.405 79.569 219.447 79.0018 219.447 78.2875C219.447 75.1782 217.787 73.6236 214.468 73.6236C213.039 73.6236 211.8 73.9808 210.749 74.6951C209.741 75.3673 208.985 76.2707 208.48 77.4051H198.081L202.871 49.9892H232.304L230.665 59.443ZM248.423 96.0605L255.086 62.7477H269.553C273.043 62.7477 276.026 63.3188 278.5 64.4609C281.007 65.6031 282.926 67.2211 284.259 69.3151C285.591 71.3773 286.257 73.852 286.257 76.7391C286.257 79.6897 285.75 82.3547 284.734 84.7342C283.719 87.0819 282.292 89.1124 280.451 90.8257C278.611 92.5072 276.422 93.808 273.884 94.728C271.346 95.6164 268.538 96.0605 265.461 96.0605H248.423ZM259.369 88.5414H265.746C268.126 88.5414 270.124 88.0496 271.742 87.0661C273.361 86.0826 274.598 84.75 275.454 83.0685C276.311 81.3553 276.739 79.4358 276.739 77.3102C276.739 75.819 276.422 74.55 275.788 73.503C275.185 72.456 274.265 71.6628 273.027 71.1235C271.822 70.5524 270.315 70.2669 268.506 70.2669H262.986L259.369 88.5414ZM283.279 96.0605L304.646 62.7477H313.926L321.969 96.0605H312.594L306.645 67.2211H310.357L293.225 96.0605H283.279ZM292.606 89.5883L296.413 82.6402H312.689L313.736 89.5883H292.606ZM331.02 96.0605L333.828 81.9264L334.875 87.6847L324.929 62.7477H334.399L341.537 80.8318L335.731 80.8794L350.294 62.7477H359.859L340.062 87.6847L343.251 81.9264L340.443 96.0605H331.02ZM367.317 96.7268C365.414 96.7268 363.589 96.5682 361.844 96.2509C360.099 95.9654 358.513 95.5529 357.085 95.0136C355.658 94.4425 354.436 93.8238 353.421 93.1576L357.133 86.1143C358.275 86.8123 359.449 87.4151 360.655 87.9227C361.892 88.3986 363.145 88.7634 364.414 89.0173C365.683 89.2711 366.952 89.398 368.221 89.398C369.427 89.398 370.458 89.2869 371.315 89.0648C372.171 88.811 372.822 88.462 373.266 88.0179C373.71 87.5737 373.932 87.0502 373.932 86.4474C373.932 85.7812 373.631 85.2577 373.028 84.8769C372.457 84.4645 371.696 84.1155 370.744 83.83C369.792 83.5444 368.729 83.2589 367.555 82.9734C366.413 82.6561 365.255 82.2912 364.081 81.8788C362.939 81.4346 361.892 80.8953 360.94 80.2607C359.988 79.5945 359.211 78.7537 358.608 77.7385C358.037 76.7232 357.752 75.47 357.752 73.9789C357.752 71.5677 358.402 69.4737 359.703 67.697C361.004 65.9203 362.844 64.5402 365.223 63.5567C367.635 62.5732 370.474 62.0814 373.742 62.0814C376.121 62.0814 378.342 62.3352 380.404 62.8429C382.467 63.3188 384.243 64.0168 385.735 64.9368L382.308 71.9325C381.007 71.1076 379.564 70.489 377.977 70.0765C376.423 69.6323 374.821 69.4103 373.171 69.4103C371.902 69.4103 370.807 69.553 369.887 69.8386C368.999 70.1241 368.317 70.5207 367.841 71.0283C367.397 71.5042 367.175 72.0436 367.175 72.6464C367.175 73.2809 367.46 73.8044 368.031 74.2168C368.602 74.6293 369.364 74.9783 370.315 75.2638C371.299 75.5493 372.362 75.8507 373.504 76.168C374.678 76.4536 375.836 76.8025 376.978 77.215C378.12 77.5957 379.183 78.1192 380.167 78.7855C381.15 79.42 381.927 80.229 382.498 81.2125C383.069 82.1961 383.355 83.4175 383.355 84.8769C383.355 87.2564 382.705 89.3345 381.404 91.1112C380.103 92.8879 378.247 94.268 375.836 95.2515C373.425 96.235 370.585 96.7268 367.317 96.7268Z" fill="white"/>
<path d="M80.523 184.912L87.0278 145.73H112.971L111.823 152.56H94.164L92.6334 161.897H108.57L107.422 168.727H91.4855L88.8071 184.912H80.523ZM112.038 184.912L118.543 145.73H134.001C136.96 145.73 139.396 146.253 141.31 147.299C143.236 148.345 144.588 149.831 145.366 151.757C146.156 153.67 146.341 155.927 145.92 158.529C145.487 161.131 144.549 163.363 143.108 165.225C141.679 167.088 139.817 168.523 137.522 169.53C135.238 170.525 132.592 171.022 129.582 171.022H119.231L120.379 164.365H129.371C130.953 164.365 132.305 164.148 133.427 163.714C134.55 163.28 135.436 162.63 136.087 161.763C136.75 160.895 137.184 159.818 137.388 158.529C137.604 157.216 137.528 156.119 137.158 155.239C136.788 154.346 136.119 153.67 135.149 153.211C134.18 152.739 132.904 152.503 131.323 152.503H125.736L120.322 184.912H112.038ZM136.144 167.081L142.936 184.912H133.791L127.209 167.081H136.144ZM147.709 184.912L154.214 145.73H180.616L179.468 152.56H161.35L159.82 161.897H176.579L175.431 168.727H158.672L157.141 178.082H175.336L174.188 184.912H147.709ZM180.697 184.912L187.202 145.73H213.604L212.456 152.56H194.338L192.808 161.897H209.567L208.419 168.727H191.66L190.129 178.082H208.324L207.176 184.912H180.697ZM230.019 152.56L231.167 145.73H263.347L262.199 152.56H250.203L244.846 184.912H236.658L242.015 152.56H230.019ZM262.141 184.912L268.646 145.73H284.105C287.064 145.73 289.5 146.253 291.413 147.299C293.339 148.345 294.691 149.831 295.469 151.757C296.26 153.67 296.445 155.927 296.024 158.529C295.59 161.131 294.653 163.363 293.212 165.225C291.783 167.088 289.921 168.523 287.625 169.53C285.342 170.525 282.695 171.022 279.685 171.022H269.335L270.483 164.365H279.475C281.056 164.365 282.408 164.148 283.531 163.714C284.653 163.28 285.54 162.63 286.19 161.763C286.853 160.895 287.287 159.818 287.491 158.529C287.708 157.216 287.631 156.119 287.262 155.239C286.892 154.346 286.222 153.67 285.253 153.211C284.283 152.739 283.008 152.503 281.426 152.503H275.84L270.426 184.912H262.141ZM286.248 167.081L293.039 184.912H283.894L277.313 167.081H286.248ZM312.602 145.73L306.097 184.912H297.813L304.318 145.73H312.602ZM319.666 184.912H310.789L330.82 145.73H341.496L348.498 184.912H339.621L334.857 154.684H334.551L319.666 184.912ZM321.694 169.511H342.663L341.553 175.978H320.584L321.694 169.511ZM353.214 184.912L359.719 145.73H368.003L362.646 178.082H379.444L378.296 184.912H353.214Z" fill="white"/>
</svg>
