<svg width="26" height="27" viewBox="0 0 26 27" fill="none" xmlns="http://www.w3.org/2000/svg">
<g id="Handshake" clip-path="url(#clip0_4068_4922)">
<path id="Vector" d="M10.1278 13.5721C10.0248 13.507 9.93775 13.4195 9.87313 13.3161C9.80851 13.2128 9.76796 13.0962 9.7545 12.9751C9.74104 12.854 9.75501 12.7313 9.79537 12.6163C9.83573 12.5013 9.90145 12.3969 9.98766 12.3107L14.625 7.8125H18.6469L18.6184 7.67336L13 6.1875L7.38156 7.67336L4.0625 14.3125L9.75 18.375L16.25 20L20.3125 15.9375L16.25 12.6875C14.3203 14.6304 11.9062 14.7086 10.1278 13.5721Z" fill="#FFB68B"/>
<path id="Vector_2" d="M20.3125 15.9375L16.25 20L9.75 18.375L4.0625 14.3125" stroke="#CD6F40" stroke-width="1.625" stroke-linecap="round" stroke-linejoin="round"/>
<path id="Vector_3" d="M7.38153 7.67336L13 6.1875L18.6184 7.67336" stroke="#CD6F40" stroke-width="1.625" stroke-linecap="round" stroke-linejoin="round"/>
<path id="Vector_4" d="M3.49098 6.63629L0.899102 11.8221C0.802777 12.0147 0.786859 12.2377 0.854845 12.442C0.922832 12.6463 1.06916 12.8153 1.26168 12.9118L4.06277 14.3124L7.38184 7.67325L4.58176 6.27371C4.48634 6.22586 4.38242 6.19728 4.27595 6.1896C4.16948 6.18193 4.06254 6.19531 3.96124 6.22898C3.85994 6.26265 3.76627 6.31596 3.68558 6.38584C3.60489 6.45573 3.53876 6.54084 3.49098 6.63629Z" stroke="#CD6F40" stroke-width="1.625" stroke-linecap="round" stroke-linejoin="round"/>
<path id="Vector_5" d="M21.9375 14.3124L24.7386 12.9118C24.9311 12.8153 25.0775 12.6463 25.1455 12.442C25.2134 12.2377 25.1975 12.0147 25.1012 11.8221L22.5093 6.63629C22.4615 6.54084 22.3954 6.45573 22.3147 6.38584C22.234 6.31596 22.1404 6.26265 22.0391 6.22898C21.9378 6.19531 21.8308 6.18193 21.7244 6.1896C21.6179 6.19728 21.514 6.22586 21.4185 6.27371L18.6185 7.67325L21.9375 14.3124Z" stroke="#CD6F40" stroke-width="1.625" stroke-linecap="round" stroke-linejoin="round"/>
<path id="Vector_6" d="M18.6872 7.8125H14.6247L9.98733 12.3107C9.90112 12.3969 9.8354 12.5013 9.79504 12.6163C9.75468 12.7313 9.74072 12.854 9.75418 12.9751C9.76764 13.0962 9.80818 13.2128 9.8728 13.3161C9.93742 13.4195 10.0245 13.507 10.1275 13.5721C11.9058 14.7086 14.32 14.6304 16.2497 12.6875L20.3122 15.9375L21.9372 14.3125" stroke="#CD6F40" stroke-width="1.625" stroke-linecap="round" stroke-linejoin="round"/>
<path id="Vector_7" d="M12.5998 22.4375L8.36266 21.3782L5.6875 19.4668" stroke="#CD6F40" stroke-width="1.625" stroke-linecap="round" stroke-linejoin="round"/>
</g>
<defs>
<clipPath id="clip0_4068_4922">
<rect width="26" height="26" fill="white" transform="translate(0 0.5)"/>
</clipPath>
</defs>
</svg>
