<svg xmlns="http://www.w3.org/2000/svg" width="430" height="480" fill="none" xmlns:v="https://vecta.io/nano"><style><![CDATA[.B{fill:#fff}.C{fill:#283897}.D{fill:#e7e9f7}.E{fill:#2a295c}]]></style><rect width="430" height="480" rx="12" fill="url(#A)"/><rect x="192.5" y="8" width="44" height="4" rx="2" fill="#767d92"/><path d="M153.402 235.108c-.343.267-.711.499-1.1.693-3.209-1.552 2.188-5.395 3.378-7.63.766-1.438-.543-2.4-.586-3.681-.049-1.46 1.292-3.013 2.4-4.237.92-1.02 3.523-4.729 5.256-4.328 1.165.27 1.43 1.392.647 2.373-1.46 1.826-3.986 3.545-4.625 5.675-.77 2.568 4.015 1.938-5.37 11.135zm-16.132-4.478c-2.487-2.548 3.9-4.326 5.773-6.024 1.211-1.094.3-2.441.7-3.666.453-1.391 2.228-2.4 3.682-3.172 1.216-.648 4.92-3.246 6.412-2.282 1 .648.882 1.795-.19 2.449-1.993 1.217-4.956 1.988-6.275 3.765-.759 1.021-.093 1.94-.487 2.959-.709 1.833-3.554 3.299-5.515 4.312l-2.837 1.385a5.63 5.63 0 0 1-1.263.274z" class="C"/><path d="M141.301 203.793a4.15 4.15 0 0 1 1.258 1.225 4.16 4.16 0 0 1 .642 1.635c.137.364.174.758.107 1.141-.114.281-.747-.3-.86-.373-1.953-1.338-2.292-1.736-2.6-1.514-.4.447-.723.959-.951 1.514-.012.175.274.4.373.51.44.51.924.98 1.445 1.407.213.174.993.653.9 1.034-.062.251-.5.3-.684.32a4.5 4.5 0 0 1-2.115-.32 4.1 4.1 0 0 1-1.423-.758 4.09 4.09 0 0 1-1.018-1.25 18.54 18.54 0 0 0-.586-1.825 7.81 7.81 0 0 0-2.153-2.138c-1.25-1.046-2.637-1.916-4.122-2.586-.852-.312-1.613.227-2.48.152-1.711-.147-4.039-2.662-3.491-4.738 0 0-.133-.1 1.308.935.924.664 1.586 1.3 2.7.936.213-.071.494-.115.632-.32s0-.487-.069-.677c-.313-.587-.782-1.077-1.354-1.415-.21-.152-.048-.042-1.08-.806-.092-.068-1.021-.648-.791-.837 1.163-.953 3.074-.366 4.107.48 1.059.866 1.2 2.266 2.062 3.248a15.37 15.37 0 0 0 2.731 2.069l3.6 2.586c.684.395 1.233.114 1.94.038a3.65 3.65 0 0 1 1.972.327z" class="D"/><path d="M200.13 159.799c5.973 5.139 13.3 6.509 20.233 9.789 2.368 1.13 4.593 2.54 6.626 4.2 3.931-3.716 3.261-3.483 3.354-3.583.877.201 1.733.487 2.556.852 4.046 2.191 6.245 6.123 9.1 9.5-2.35 3.411-5.208 6.443-8.474 8.991-1.23.967-2.693 2.338-4.3 2.556-1.407.015-2.789-.361-3.993-1.088-5.005-2.38-9.738-5.292-14.118-8.686-10.34-7.691-11.115-9.969-14.924-13.131-1.225-1.019-2.64-.827-3.963-1.536-1.5-.8-2.586-2.313-4.016-3.256-1.874-1.236-5.191-2.55-6.655-3.963a9.68 9.68 0 0 1-2.057-2.922c-.611-1.326-.738-2.73.67-3.369l.418-.16a3.96 3.96 0 0 1-.167-2.716 2.25 2.25 0 0 1 2.1-1.49l.4-.16c-.677-1.719-.814-4.016 1-4.845l.031-.031a3.54 3.54 0 0 1-1.074-1.012 3.52 3.52 0 0 1-.569-1.361c-.08-1.316 2.084-1.879 3.05-1.635 3 .993 4.3 3.035 6.891 5.111l.358.061c.729-.837.786-1.052 1.5-1.963.793.609 3.336 1.739 3.735 3.712.59 2.92-2.378 5.742-1.453 8.573.518 1.589 2.548 2.532 3.741 3.562z" class="B"/><path fill-rule="evenodd" d="M193.712 143.649a.5.5 0 0 1 .701-.092c.143.11.36.243.649.423l.076.048 1.063.703c.739.537 1.544 1.263 1.943 2.219.698 1.671.109 3.286-.46 4.704l-.116.286c-.553 1.37-1.037 2.568-.795 3.785.16.808.675 1.414 1.382 1.988l1.057.775.083.058 1.164.876c2.925 2.517 6.192 4.12 9.617 5.506 1.183.48 2.394.935 3.616 1.396 2.289.862 4.619 1.74 6.887 2.813h.001a33.22 33.22 0 0 1 6.727 4.265.5.5 0 0 1 .133.149c.033.059.055.123.063.19s.002.134-.016.199a.51.51 0 0 1-.248.303c-.06.032-.125.051-.192.056a.49.49 0 0 1-.198-.024.51.51 0 0 1-.174-.099 32.22 32.22 0 0 0-6.524-4.135c-2.236-1.058-4.493-1.908-6.754-2.759l-3.696-1.427c-3.465-1.403-6.848-3.054-9.895-5.676-.347-.289-.708-.561-1.083-.813l-.09-.062c-.379-.258-.748-.53-1.108-.814-.779-.632-1.506-1.425-1.733-2.57-.303-1.526.298-3.001.827-4.3l.137-.339c.582-1.451.987-2.697.465-3.946-.29-.697-.912-1.29-1.608-1.795a15.52 15.52 0 0 0-1.003-.663l-.089-.055c-.245-.147-.484-.304-.716-.472a.5.5 0 0 1-.128-.147.49.49 0 0 1-.063-.185.49.49 0 0 1 .012-.194c.017-.064.046-.123.086-.175z" class="E"/><path d="M303.144 233.884c-.17-2.589.678-7.794-2.328-9.181l.031-.076c1.133 0 2.837-.168 3.8.525a2.95 2.95 0 0 1 .829 1.871 27.78 27.78 0 0 1 .586 6.944 1.5 1.5 0 0 1-.274.86 7.31 7.31 0 0 1-2.4.745c-.124-.555-.205-1.12-.244-1.688z" class="B"/><path d="M297.35 250.062c.137.922-1.514 1.049-2.1 1.149-8.737 1.5-6.385 1.6-7.941 1.362a2.95 2.95 0 0 0 1.1-1.423c.061-.365-.525-.494-.745-.639l.631-.023c-.023-.022.875-.365.913-.38l1.833-.548c1.536-.541 3.166-.763 4.792-.654.619.094 1.412.457 1.517 1.156zm-10.443-3.62l.167.015a7.72 7.72 0 0 1 1.879-1.346c1.569-1.139 3.28-2.07 5.089-2.769.5-.188 3.047-.572 2.594.776-.322.957-2.122 1.576-2.914 2-2.279 1.222-5.035 2.374-6.853 4.283l-.19.053c-.617-1.282.134-2.067.228-3.012z" class="C"/><path d="M286.498 245.323c-.926-.925-1.963-1.731-3.088-2.4 0-4.807-4.944-13.17-1.43-18.97 4.969.371 9.106 1.042 12.931.783 1.826-.124 4.5-.888 6.184.122 2.675 1.608 1.878 6.466 2.046 9.029.291 4.456 3.2 7.476 4.548 15.327.382 2.224.6 5.113-1.019 6.937-1.428 1.606-3.993 1.985-5.9 2.776-4.275 1.772-8.269 4.414-12.87 5.324-1.871.371-4.35.6-5.925-.73-3.149-2.662.687-6.836 2.723-8.686l1.529-1.385c.251-.228.677-.532 1.08-.874 1.519.236-.761.132 7.941-1.362.586-.1 2.237-.227 2.1-1.149-.1-.7-.9-1.058-1.514-1.156-1.625-.109-3.256.113-4.792.654-.616.169-1.232.35-1.833.548-.038.015-.936.358-.913.38l-.631.023a2.69 2.69 0 0 1-.989-1.057l.19-.053c1.818-1.909 4.574-3.061 6.853-4.283.792-.424 2.592-1.043 2.914-2 .453-1.348-2.089-.964-2.594-.776-1.809.699-3.52 1.63-5.089 2.769-.691.351-1.324.805-1.879 1.346l-.167-.015a1.27 1.27 0 0 0-.064-.611c-.07-.196-.188-.371-.342-.511z" class="B"/><path d="M269.647 129.246c-5.842 0-11.388 3.134-17.114 6.51-3.181 1.852-6.233 3.919-9.135 6.185l-.175-.206c-1.765-2.213-1.164-3.43-.9-4.45.417-.855.994-1.621 1.7-2.258 4.687-4.87 17.75-14.643 22.674-9.721a24.1 24.1 0 0 1 3.051 3.62l-.101.32z" class="C"/><path d="M265.18 90.99c1.995 3.133 3.184 6.408 2.3 10.147-1.293 5.5-5.174 5.36-10.679 3.841-8.579-2.366-17.028-7.57-24.1-13.083-2.305-1.723-4.486-3.606-6.526-5.636-.392-.4-1.574-1.354-1.4-2.57.275-1.925 4.793-1.144 7.257-.039 1.826.82 2.525 1.75 3.27 1.613 1.248-.229 2.626-1.6 3.735-2.19 9.282-4.932 20.762-.53 26.143 7.917z" class="D"/><path d="M271.365 267.299c-.009.47-.055.938-.137 1.4a2.4 2.4 0 0 1-.762 1.168c-.365.304-.812.494-1.284.544-3.026.592-6.133.633-9.173.121l-.2-.563c2.945-1.046 5.25-2.416 8.732-2.4.92.006 2.015.335 2.784-.327l.04.057z" class="B"/><g class="D"><path d="M271.859 245.241c.129-1.042.116-2.096-.038-3.134-1.033-3.591-3.5-6.771-5.8-9.63-1.217-1.508-2.544-2.924-3.971-4.236-2.008-1.849-4.986-3.338-5.6-6.177-.866-4.019-1.248-3.538-.882-3.712 0 .039.19.008.274.016 1.616.242 4.5.378 6.176.654l.084-.228c3.588 1.319 7.226 2.497 10.907 3.529 2.981.833 6.074 1.187 9.166 1.05l.007.266c-3.661 5.29.759 13.378 1.217 18.955.057.59-.019 1.187-.222 1.745a4.01 4.01 0 0 1-4.189 2.613c-1.915-.072-3.522-1.6-5.926-1.734-.245-.017-.998.16-1.203.023z"/><path d="M272.019 246.351c.451 1.315 2.581 1.255 2.556 3.073-.024 1.73-1.938 2.749-3.59 3.293-6.509 2.143-14.429 1.933-21.146 1.232-2.67-.278-6.075-.605-8.162-2.3-3.585-2.906 2.145-6.786.251-9.713-.776-1.2-2.555-1.857-3.689-2.662-2.016-1.432-3.827-3.131-5.385-5.051-5.535-6.825-9.731-15.168-13.41-23.131a72.99 72.99 0 0 0-4.655-8.238 48.2 48.2 0 0 1-5.21-10.55c-.685-2.39-3.119-6.427 1.232-9.584l.3-.395a77.29 77.29 0 0 0 14.118 8.686c1.204.726 2.587 1.102 3.993 1.088 1.612-.218 3.075-1.589 4.3-2.556a41.14 41.14 0 0 0 6.321-6.138c.213.462 8.564 3.379 10.657 4.145a27.15 27.15 0 0 0 3.522 1.324c.616-1.864 1.735-3.788 2.251-5.7.6-2.228.091-4.137.107-6.328-.121-.094.318-.461-3.34 3.8-1.22 1.419-2.692 3.514-4.586 4.077-2.1.623-3.981-1.527-5.279-2.86-3.426-3.519-5.664-8.312-10.276-10.81a16.1 16.1 0 0 0-2.556-.851c-1.96-.5-4.174-1.2-4.648-2.51-.507-1.408 1.248-3 2.077-3.88a33.15 33.15 0 0 0 6.306-8.4c2.144-4.532 3.465-8.793 9.318-13.47a77.89 77.89 0 0 1 9.135-6.184c5.412-3.192 11.114-6.561 17.221-6.511 5.732.046 10.594 2.993 14.231 7.309 9.036 10.722 12.95 24.963 17.35 37.94 1.287 3.801 5.4 7.121 5.819 11.061.479 4.5-3.927 7.385-4.739 11.478-.724 3.65 1.275 7.278.327 11.029-2.5 9.916-11.211 14.878-20.484 15.312h-.083a29.24 29.24 0 0 1-9.166-1.05 120.73 120.73 0 0 1-21.321-8.025l-.106.145a16.86 16.86 0 0 1 2.693 2.213c1.261 1.307 1.683 3.126 2.175 5.408.612 2.839 3.59 4.328 5.6 6.177 1.426 1.312 2.754 2.728 3.971 4.236 2.306 2.859 4.771 6.039 5.8 9.63.416 1.435-.241 2.952.2 4.241z"/></g><path d="M224.472 102.719c.946-3.659 3.978-9.561 8.032-10.573l.2-.251 3.24 2.412c-.228.322-.154.151-.159.47.057.658.169 1.309.334 1.948 1.513 6.1 4.247 12.86 9.98 15.4l.175.242c1.46-1.17 3.676-1.63 5.1-.114 2.049 2.189 1.061 5.48-.852 7.349-.562.547-1.918 1.116-2.259 1.81-.191.388.165 1.013.3 1.362.402.997.859 1.972 1.369 2.92.167.313.381.822.738.965.449.184 1.345-.4 1.727-.561 1.498-.65 2.982-1.332 4.45-2.046 1.178-.572 2.472-1.058 3.712-1.628l.015.038c.449.483.839 1.016 1.164 1.59-5.926.927-14.164 7.294-17.708 10.976l-.426-.32c-1.035-1.422-2.537-2.435-4.244-2.86-3.8-.594-8.277 2.055-11.836-.023-2.267-1.324-2.2-4.447-3.21-6.595-.313-.669-2.1-2.1-1.9-3.56l-.266-.091c.472-.608.9-1.192 1.156-1.133 1.375.313 1.667 2.96 3.583 2.243 1.75-.652.607-3.165 1.643-4 .615-.5 3.036 2.839 3.552.708.382-1.575-1.363-3.086-2.556-3.69-3.487-1.764-6 .434-8.975.587-1.028.052-2.637.03-3.012-1.195-.772-2.519 3.857-4.327 5.02-5.933 1.328-1.845 1.36-4.31 1.913-6.448v.001z" class="B"/><path d="M240.199 254.611c.71-.16 1.378-.466 1.962-.9.964 1.338 2.018 1.949 2.974 3.088.906 1.079 2.151 2.464 2.351 3.94.09.669-.517 1.947-1.354 1.407-2.283-1.832-2.131-3.388-5.842-7.066l-.091-.469z" class="C"/><path d="M241.929 241.942c.255.472.391 1 .394 1.538s-.127 1.067-.378 1.542l-.107-.038c-1.701.251-3.428.274-5.134.069-1.932-.35-3.667-1.261-5.644-1.438-8.086-.723-16.221 0-23.291-4.959-5.221-3.662-8.305-12.041-4.32-17.67 3.187-4.5 10.238-8.169 15.517-9.66l.479-.228c3.758 7.926 7.875 16.306 13.41 23.131a27.25 27.25 0 0 0 5.385 5.051c1.134.805 2.913 1.461 3.689 2.662z" class="D"/><path d="M240.293 255.086c3.817 3.783 3.5 5.184 5.842 7.066.837.54 1.444-.738 1.354-1.407-.2-1.476-1.445-2.861-2.351-3.94-.924-1.1-2.024-1.769-2.974-3.088.225-.154.441-.321.647-.5l.19-.738a20.93 20.93 0 0 0 6.838 1.468c6.452.673 15.632.993 21.9-1.513l.1.243c1.384 3.986 3.058 11.143-.449 14.513a.22.22 0 0 1-.068.053c-1.135.978-2.429-.268-6.321.807-2.806.774-5.124 2.2-7.9 2.639-5.2.819-10.9-.169-16.149-.19-4.183-.017-8.443-.016-12.6-.426-1.932-.191-4.33-.4-5.865-1.734-2.443-2.121-1.588-5.8.593-7.736 3.159-2.812 7.584-2.373 11.128-4.123l1.316.054c1.856 1.734 3 4.215 4.29 6.366.342.571 1.048 2.112 1.94 1.514 1.8-1.207-.352-3.88-1.673-5.606-1.047-1.368-1.971-2.357-2.807-3.377-.055-.067-.13-.236-.19-.274l-.061-.251c1.065-.289 2.092-.092 3.187-.3l.083.48z" class="B"/><path d="M240.072 258.808c1.323 1.729 3.471 4.4 1.673 5.606-.892.6-1.6-.943-1.94-1.514-1.287-2.151-2.434-4.632-4.29-6.366l-1.316-.054c1.5-.724 1.619-1.25 2.815-1.574l.061.251c.06.038.135.207.19.274l2.807 3.377z" class="C"/><path d="M235.94 94.309c6.359 4.563 13.386 8.609 20.865 10.67 2.213.612 5.21 1.378 7.469.534l.951.023c5.621 3.194 2.2 12.035-1.75 15.167-2 1.584-4.085 2.11-6.632 3.347-1.469.713-2.948 1.4-4.45 2.046-.382.164-1.278.745-1.727.562-.357-.144-.571-.653-.738-.966-.51-.948-.967-1.922-1.369-2.92-.139-.35-.5-.974-.3-1.362.341-.693 1.7-1.262 2.259-1.81 1.913-1.868 2.9-5.16.852-7.348-1.42-1.516-3.636-1.057-5.1.114l-.175-.243c-4.488-1.986-6.944-6.337-8.588-10.81-.542-1.473-1.734-5.19-1.734-6.77l.167-.234zm-6.417 21.39c1.193.6 2.938 2.115 2.556 3.689-.516 2.131-2.937-1.2-3.552-.707-1.036.835.107 3.348-1.643 4-1.916.716-2.208-1.93-3.583-2.244-.521-.119-1.643 2.225-2.5 2.411-1.883.409-2.426-3.435-.069-6.168l-.045-.411c3.17-.3 5.47-2.27 8.836-.57z" class="E"/><path d="M212.158 206.334c-.584 1.068-1.364 2.015-2.3 2.792-.252.211-.608.669-.935.768-1.678-1.056-2.019-1.847-.685-3.339 1.231-1.383 2.475-1.065 3.92-.221z" class="B"/><path d="M212.079 111.291l-2.54 1.057c-.046.592-.146 1.177-.3 1.75l2.016 1.863c-.425 1.072-1.004 2.077-1.719 2.982l-2.624-.822c-.416.423-.872.805-1.362 1.141l.342 2.723c-1.011.554-2.101.952-3.232 1.18l-1.484-2.3a9.79 9.79 0 0 1-1.779 0l-1.484 2.3c-1.133-.227-2.226-.625-3.24-1.18l.35-2.723c-.492-.331-.948-.713-1.362-1.14l-2.624.821a11.7 11.7 0 0 1-1.726-2.982l2.018-1.862a9.1 9.1 0 0 1-.312-1.749l-2.533-1.057c.03-1.154.23-2.297.593-3.393l2.746-.129a9.72 9.72 0 0 1 .89-1.537l-1.262-2.44c.77-.864 1.662-1.61 2.647-2.217l2.183 1.666c.537-.257 1.097-.46 1.673-.608l.6-2.678c1.143-.167 2.304-.167 3.446 0l.608 2.678c.574.15 1.132.353 1.666.608l2.191-1.666c.98.609 1.87 1.354 2.639 2.214l-1.263 2.441c.344.484.642.998.89 1.537l2.746.13c.364 1.095.566 2.238.602 3.392zm-6.321.327a5.48 5.48 0 0 0-5.481-5.481 5.48 5.48 0 0 0-5.481 5.481 5.48 5.48 0 0 0 5.481 5.481 5.48 5.48 0 0 0 5.481-5.481z" class="D"/><path d="M200.945 199.753l-.243.007c.054 2.275-1.179 3.134-2.389 2.86-3.168-.717-2.921-6.076-1.331-8.5 1.656-2.519 5.767-1.312 8.253-1.186a10.76 10.76 0 0 0 4.42-.388c1.28 3.634 3.005 7.095 5.134 10.306-.35.45-.678.917-.981 1.4-.254-.292-.54-.555-.852-.784-.254-.161.875.513-2.206-1.361a8.32 8.32 0 0 1-4.929.636c-1.669-.295-3.208-1.093-4.412-2.287-.03-.027-.464-.528-.464-.703z" class="B"/><path d="M207.655 131.328c.2.9-.661 2.084-1.027 2.845-.736 1.529-1.523 3.852-3.263 4.5-1.416.529-2.761-.244-4.153.015-.79.225-1.48.71-1.962 1.377-1.868 2.1-4.159 5.3-4.64 5.849l-.358-.061c-.989-.791-2.076-1.91-3.24-2.913l.555-.084 3.811-5.286c.639-.741 1.157-1.578 1.536-2.48.229-.822-.491-1.692-.646-2.48-.214-1.259.058-2.553.761-3.62.966-1.551 3.04-4.95 5.111-2.96.694.668-.021 1.652-.388 2.3-.855 1.525-2.324 4.412-.19 5.592.355.195.741.33 1.141.4 2.875.5 3.231-2.413 4.921-3.887.646-.561 1.867.139 2.031.893z" class="C"/><path d="M204.579 208.373c1.951 2.413-.47 6.236-3.316 5.241-.586-.205-2.6-2.092-1.392-2.739l.007-.03c1.734.255 4.009-.585 4.268-2.525l.433.053z" class="B"/><path d="M210.75 202.114l2.206 1.361a5.55 5.55 0 0 1 .852.784c.916 1.029 1.939 2.647.274 2.928-.722.122-1.666-.767-1.925-.852-1.445-.844-2.689-1.162-3.925.221-1.33 1.488-1 2.292.685 3.339.807.5 2.092 1.148 1.818 1.947-.792 2.31-4.261.172-5.583-.524a3.19 3.19 0 0 0 .081-1.543 3.18 3.18 0 0 0-.652-1.401l-.433-.053a3.29 3.29 0 0 0 .01-1.3 3.28 3.28 0 0 0-.497-1.2l-.472-.061c.6-.783.856-1.748-.144-2.4a7.9 7.9 0 0 0-3.393-.632l.008-.312a2.22 2.22 0 0 0 .9-1.331 5.21 5.21 0 0 0 .145-1.316l.243-.007c0 .175.434.676.464.707 1.204 1.192 2.744 1.988 4.412 2.282a8.32 8.32 0 0 0 4.926-.637z" class="C"/><g class="B"><path d="M199.654 202.719c1.164-.041 2.322.175 3.393.632 1 .655.746 1.62.144 2.4a4.24 4.24 0 0 1-1.407 1.194c-1.488.776-3.525 1.221-4.975.525-1.988-.954-1.711-4.427-.372-5.849l.19-.137a2.38 2.38 0 0 0 3.035.92l-.008.315z"/><path d="M198.353 210.235c-.327-.22-1.872-1.81-1.476-2.4l.114-.289c.797.231 1.633.297 2.457.195a6.13 6.13 0 0 0 2.335-.789 4.27 4.27 0 0 0 1.407-1.194l.472.061a3.26 3.26 0 0 1 .552 2.103c-.063.744-.379 1.443-.895 1.982-.684.577-1.535.921-2.429.981s-1.782-.169-2.537-.65z"/></g><path d="M196.083 196.34c-.411 1.741-.381 3.848.54 5.149l-.19.137c-1.5-.62-7-4.239-9.265-5.469a9.37 9.37 0 0 0-2.632-1.263c-.836-.137-1.621.665-2.4.906-1.229.348-2.544.218-3.681-.366-1.647-.794-5.239-2.485-3.484-4.761.586-.76 1.636-.161 2.328.137 1.6.69 4.632 1.843 5.583-.411.154-.373.244-.768.266-1.171.18-2.914-2.742-2.964-4.389-4.481-.63-.579-.068-1.87.669-2.114.868-.288 2.146.433 2.936.715 1.6.569 3.995 1.1 4.831 2.761.677 1.346.053 2.769.456 4.13.309.759.863 1.393 1.574 1.8 1.545 1.095 4.99 3.248 6.6 4.237l.258.064z" class="C"/><path d="M183.361 102.109l-3.194 1.346c-.061.748-.19 1.489-.388 2.213l2.548 2.366c-.536 1.36-1.27 2.633-2.176 3.78l-3.308-1.034c-.525.536-1.1 1.02-1.719 1.445l.441 3.461a14.87 14.87 0 0 1-4.085 1.491l-1.871-2.929a12.19 12.19 0 0 1-2.244 0l-1.871 2.929a14.7 14.7 0 0 1-4.085-1.491l.441-3.461c-.618-.425-1.194-.909-1.719-1.445l-3.308 1.034c-.906-1.147-1.639-2.42-2.176-3.78l2.548-2.366a12.21 12.21 0 0 1-.388-2.213l-3.194-1.346c.037-1.465.29-2.916.753-4.306l3.461-.159c.31-.685.685-1.34 1.118-1.955l-1.59-3.1a15.1 15.1 0 0 1 3.332-2.807l2.753 2.116c.679-.326 1.387-.586 2.115-.776l.76-3.392c1.44-.213 2.904-.213 4.344 0l.76 3.392c.726.189 1.432.449 2.107.776l2.761-2.115c1.24.77 2.36 1.719 3.324 2.815l-1.589 3.1a11.61 11.61 0 0 1 1.125 1.955l3.461.159c.458 1.388.712 2.836.753 4.297zm-7.964.418a6.91 6.91 0 0 0-4.289-6.359 6.91 6.91 0 0 0-7.518 1.518 6.91 6.91 0 0 0-1.484 7.525 6.91 6.91 0 0 0 6.377 4.26c.912.002 1.814-.177 2.656-.526s1.607-.86 2.25-1.506a6.91 6.91 0 0 0 1.498-2.255 6.92 6.92 0 0 0 .515-2.658h-.005z" class="D"/><path d="M177.745 166.079a9.29 9.29 0 0 0-1.636 2.412c-.266.806.4 1.711.54 2.51.159 1.266-.17 2.544-.92 3.575-.989 1.536-3.24 4.815-5.225 2.738-.662-.692.083-1.65.479-2.282.928-1.483 2.515-4.3.433-5.583a3.6 3.6 0 0 0-1.118-.44c-2.854-.618-3.344 2.267-5.089 3.665-.671.538-1.859-.212-1.992-.973-.157-.9.754-2.053 1.156-2.8.8-1.489 1.681-3.78 3.445-4.358 1.438-.47 2.746.365 4.154.167.8-.189 1.51-.645 2.015-1.293 1.316-1.354 2.526-2.822 3.743-4.267a12.91 12.91 0 0 1 1.148-1.377l.616-.25a9.19 9.19 0 0 0 2.442 3.24l-4.191 5.316zm-6.93-25.805l-5.24 2.153c-.099 1.204-.313 2.396-.639 3.559l4.176 3.78c-.883 2.188-2.085 4.234-3.568 6.07l-5.423-1.665c-.86.866-1.803 1.647-2.815 2.33l.723 5.539c-2.104 1.119-4.358 1.928-6.694 2.4l-3.065-4.7a19.85 19.85 0 0 1-3.681 0l-3.066 4.7c-2.335-.472-4.59-1.281-6.693-2.4l.722-5.538a18.84 18.84 0 0 1-2.814-2.327l-5.424 1.666a23.91 23.91 0 0 1-3.567-6.07l4.176-3.781a18.96 18.96 0 0 1-.639-3.56l-5.241-2.156a23.77 23.77 0 0 1 1.24-6.9l5.674-.26a18.77 18.77 0 0 1 1.842-3.124l-2.61-4.96c1.588-1.762 3.429-3.279 5.462-4.5l4.518 3.386a18.81 18.81 0 0 1 3.453-1.24l1.248-5.446c2.361-.343 4.758-.343 7.119 0l1.248 5.446a18.81 18.81 0 0 1 3.453 1.24l4.518-3.385a23.96 23.96 0 0 1 5.461 4.5l-2.609 4.959a18.68 18.68 0 0 1 1.839 3.126l5.675.259c.753 2.225 1.171 4.55 1.241 6.899zm-13.06.67a11.33 11.33 0 0 0-6.858-10.601 11.32 11.32 0 0 0-6.559-.723c-2.21.415-4.246 1.478-5.849 3.055s-2.702 3.594-3.154 5.796a11.33 11.33 0 0 0 .611 6.571c.852 2.081 2.303 3.861 4.17 5.114a11.33 11.33 0 0 0 6.313 1.923 11.35 11.35 0 0 0 7.937-3.255c2.117-2.082 3.334-4.911 3.389-7.88z" class="C"/><path d="M255.46 146.235a77.61 77.61 0 0 1 6.931-3.569.52.52 0 0 0 .166-.111c.047-.048.084-.105.109-.168a.49.49 0 0 0 .035-.196c-.002-.067-.017-.133-.044-.195a.47.47 0 0 0-.118-.161.5.5 0 0 0-.171-.103.49.49 0 0 0-.197-.028.5.5 0 0 0-.193.052 86.83 86.83 0 0 0-9.507 5.08c-.4.263-1.319.445-1.419.953-5.532-3.25-7.591-2.949-8.415-3.119-.098-.041-.206-.05-.309-.025a.51.51 0 0 0-.265.164.5.5 0 0 0-.041.589c.15.237.178.242 1.648.418 5.692.682 15.562 7.608 18.243 16.117a.5.5 0 0 0 .246.293c.117.061.255.073.381.034a.5.5 0 0 0 .293-.246c.062-.118.074-.255.034-.381-1.594-5.058-5.608-9.918-10.9-13.284.302-.27 3.281-1.991 3.493-2.114zm30.538 50.764a.5.5 0 0 0 .6-.367 64.59 64.59 0 0 0 1.741-7.648c.014-.306.055-.609.124-.907.024-.097.018-.199-.016-.293a.5.5 0 0 0-.177-.234.52.52 0 0 0-.376-.087.49.49 0 0 0-.184.07.5.5 0 0 0-.142.137c-.038.055-.065.116-.079.181a5.84 5.84 0 0 0-.146 1.046c-.424 2.532-.997 5.036-1.716 7.5-.015.064-.018.13-.007.195a.5.5 0 0 0 .201.325c.053.039.113.067.177.082zm5.176-.226c.122.049.259.048.382-.003a.5.5 0 0 0 .269-.27c.833-2.01 1.443-4.105 1.819-6.247.355-2.139-1.339-1.441-.965-.688.009 1.614-1.165 5.052-1.78 6.556a.5.5 0 0 0 .275.652zm6.356-.772a18.62 18.62 0 0 0 1.734-6.907c0-.479-1.061-2.228-1 0a16.71 16.71 0 0 1-1.645 6.494c-.041.09-.054.19-.038.287s.061.189.128.261c.056.06.127.105.205.132a.51.51 0 0 0 .242.02c.081-.013.158-.047.223-.097a.5.5 0 0 0 .151-.19zm-30.594 30.823l-2.147-3.706c-.001-.114-.041-.224-.113-.313a.51.51 0 0 0-.285-.173.5.5 0 0 0-.33.043c-.102.052-.183.136-.231.24a.51.51 0 0 0-.041.191c-.012.52.517 1.13.664 1.4a141.99 141.99 0 0 0 8.693 13.654c.036.057.084.106.14.144a.5.5 0 0 0 .185.075c.067.013.135.012.201-.002s.128-.042.183-.081a.5.5 0 0 0 .181-.236c.035-.096.039-.199.013-.298a.51.51 0 0 0-.088-.18c-2.863-4.032-5.103-7.447-7.025-10.758zm4.051 5.069a.49.49 0 0 0 .183.229.5.5 0 0 0 .28.088.49.49 0 0 0 .282-.083.5.5 0 0 0 .184-.229c.025-.062.037-.127.036-.194a.51.51 0 0 0-.041-.193c-.949-2.368-1.661-4.824-2.124-7.333a.52.52 0 0 0-.077-.232c-.045-.069-.105-.127-.177-.167a.49.49 0 0 0-.236-.064.49.49 0 0 0-.237.055c-.089.045-.162.115-.21.202s-.071.185-.063.284c.465 2.615 1.202 5.175 2.2 7.637zm37.199 17.229c-.544-2.961-1.396-5.856-2.544-8.638-.647-1.472-1.192-2.987-1.631-4.534a4.4 4.4 0 0 0 2.19-.834 1.94 1.94 0 0 0 .363-1.1c.115-2.357-.081-4.719-.584-7.024a3.47 3.47 0 0 0-1.037-2.246c-1.089-.563-2.324-.782-3.54-.627l-.645.017c-1.8-.677-4.245-.011-5.877.1-3.8.259-8.267-.443-12.141-.729a.5.5 0 0 0 .01-.228c-.015-.076-.046-.147-.093-.208a.52.52 0 0 0-.176-.146.5.5 0 0 0-.222-.051h-.107c-3.039.135-6.079-.213-9.008-1.031-5.288-1.463-10.479-3.256-15.542-5.369-6.868-2.9-7.1-3.245-7.978-4.873.035-.038.063-.082.085-.129a13.13 13.13 0 0 0 .752-8.6c-.075-.292-.166-.58-.272-.863l-.941.337a7.91 7.91 0 0 0 .232.721c.614 2.41.481 4.949-.382 7.28-.8-2.411-1.209-5.242-2.137-6.982-.544-1.021-.878-.96-1.03-.935-.075.013-.147.042-.209.086s-.114.102-.15.169a.52.52 0 0 0-.063.217c-.004.076.009.152.038.223a.5.5 0 0 0 .192.229c1.205 1.53 1.464 4.673 2.56 7.747a7.73 7.73 0 0 0 3 3.759c.94.622 1.813 1.339 2.606 2.139a5.11 5.11 0 0 1 1.049 1.6 21.52 21.52 0 0 1 1.008 3.583c.646 2.986 3.642 4.491 5.745 6.427a39.07 39.07 0 0 1 3.921 4.183c2.451 3.041 4.732 6.053 5.712 9.453.367 1.28-.275 2.79.208 4.276.544 1.51 2.545 1.459 2.526 2.9-.019 1.261-1.385 2.087-2.523 2.555-6.139 2.458-15.1 2.166-21.661 1.481-2.578-.269-5.881-.559-7.9-2.188-3.2-2.607 2.457-6.35.355-9.6-.855-1.325-2.71-2.01-3.821-2.8a26.62 26.62 0 0 1-5.286-4.958c-5.391-6.644-9.417-14.672-13.342-23.021-2.892-6.152-8.182-12.769-9.842-18.726-.768-2.555-2.954-6.134 1.046-9.036.04-.028.075-.061.105-.1 4.341 3.331 9.026 6.188 13.975 8.522a7.41 7.41 0 0 0 4.1 1.049c1.713-.226 3.177-1.57 4.546-2.656 2.222-1.745 4.266-3.707 6.1-5.856 2.126 1.015 13.01 4.976 13.47 5.122-.549 1.962-.619 4.368 2.338 6.485a10.73 10.73 0 0 0 2.609 1.332.51.51 0 0 0 .193.028c.066-.004.13-.02.19-.049s.112-.069.156-.118.077-.107.098-.169a.51.51 0 0 0 .028-.194.5.5 0 0 0-.049-.189c-.029-.059-.069-.112-.118-.156s-.107-.077-.169-.098a9.69 9.69 0 0 1-2.361-1.2c-4.632-3.317-.745-7.183.443-11.566.628-2.33.116-4.223.124-6.408 1.907-2.249 6.456-7.717 8.69-9.51.102-.084.167-.205.181-.336a.51.51 0 0 0-.107-.366.5.5 0 0 0-.335-.184c-.131-.014-.263.024-.366.106-1.555 1.377-3.011 2.861-4.359 4.44-1.429 1.622-8.3 9.714-8.491 9.95-1.086 1.317-2.316 2.808-3.782 3.243-1.681.5-3.333-1.224-4.54-2.482-3.87-4.033-5.943-8.607-10.67-11.164-.848-.365-1.726-.659-2.623-.877-5.653-1.44-5.085-2.677-2.341-5.565 5-5.266 5.65-6.867 7.278-10.458a32.04 32.04 0 0 1 3.807-6.854 29.62 29.62 0 0 1 4.483-4.514c2.875-2.267 5.911-4.322 9.084-6.149 5.291-3.2 10.957-6.438 16.962-6.438.6 0 .569-.87.416-1.1-.911-1.327-1.949-2.562-3.1-3.687a5.73 5.73 0 0 0-2.336-1.337c-.873-.254-1.795-.296-2.688-.123-.354-.502-.74-.98-1.155-1.433-.051-.041-.11-.072-.173-.09s-.129-.025-.195-.018a.49.49 0 0 0-.186.059c-.058.032-.109.074-.15.125a.5.5 0 0 0-.09.174.51.51 0 0 0-.017.194c.007.065.027.129.058.186s.075.109.126.15a4.56 4.56 0 0 1 .656.846c-6.175 1.351-13.814 7.523-16.942 10.673a7.9 7.9 0 0 0-4.538-3.017c-3.893-.6-8.306 1.994-11.66.04-2.045-1.2-1.982-4.2-3.009-6.374-.345-.744-2.02-2.095-1.859-3.282a.49.49 0 0 0-.04-.273 4.49 4.49 0 0 1 .435-.5c.992.4 1.534 3.017 3.758 2.19 1.976-.739 1.122-3.229 1.7-3.99.7.33 1.978 1.761 3.024 1.383.209-.091.391-.234.529-.415s.226-.396.257-.622c.448-1.855-1.439-3.56-2.815-4.253-3.557-1.81-6.036.223-9.113.52-.948.088-2.348.077-2.623-.83-.64-2.072 3.744-3.833 4.947-5.492 1.414-1.955 1.444-4.487 2-6.61.949-3.684 3.957-9.287 7.669-10.213a.5.5 0 0 0 .247-.15c.066-.073.109-.164.124-.262s0-.197-.042-.286a.5.5 0 0 0-.192-.216.51.51 0 0 0-.379-.057c-4.342 1.084-7.454 7.282-8.395 10.933-.555 2.135-.593 4.554-1.838 6.274-1.1 1.517-6 3.44-5.094 6.372.226.741.936 1.544 2.935 1.572-.953 1.277-1.414 2.855-1.3 4.444a2.08 2.08 0 0 0 1.837 2.126 1.87 1.87 0 0 0 .825-.237 1.86 1.86 0 0 0 .63-.582 6.34 6.34 0 0 0 1.368 2.213c.186.206.354.428.5.664 1.008 2.136.919 5.358 3.41 6.814 3.774 2.2 8.3-.486 12.009.084 1.59.412 2.986 1.367 3.947 2.7.012.013.024.025.037.037-.583.614-1.063 1.318-1.423 2.085l-.079.284a4.31 4.31 0 0 0-.16 2.347c.164.782.543 1.503 1.093 2.083-5.635 4.718-6.748 8.435-9.068 13.325-1.687 3.19-3.882 6.084-6.5 8.568-.979 1.016-2.464 2.546-1.9 4.1.5 1.4 2.487 2.1 4.319 2.633-.617.908-1.39 1.699-2.284 2.336-.619.226-.867 1.117-.491 1.415 1.8 1.421 3.52 2.963 5.132 4.421.061.054.135.093.214.113a.51.51 0 0 0 .243-.001.5.5 0 0 0 .35-.315c.033-.093.037-.194.013-.29a.5.5 0 0 0-.149-.249c-1.526-1.38-3.153-2.835-4.852-4.2a5.97 5.97 0 0 0 1.052-.8c.647-.682 1.259-1.396 1.834-2.14.703.182 1.39.42 2.055.711 3.794 2.055 5.888 5.66 8.638 9.006-1.659 1.842-1.311 3.144-8.6 9.067-3.084 2.507-3.961 2.559-7.091 1.077-2.234-1.024-4.404-2.18-6.5-3.462a118.61 118.61 0 0 1-16.109-12.1c-2.223-1.983-4.175-4.344-6.493-6.27-1.361-1.134-2.766-.91-4.046-1.594-1.379-.742-2.546-2.288-3.978-3.233-3.35-2.207-6.587-2.54-8.536-6.67-.885-1.962-.037-2.493.35-2.678.147.351.31.695.488 1.027a.5.5 0 1 0 .881-.473c-.242-.452-.452-.919-.629-1.4-.325-.74-.38-1.57-.155-2.346.122-.337.344-.628.636-.835a1.76 1.76 0 0 1 .998-.325.52.52 0 0 0 .124-.017c.17.37.376.722.615 1.051a.5.5 0 0 0 .324.189c.129.018.26-.014.365-.09s.176-.191.199-.319a.5.5 0 0 0-.079-.367c-1.076-1.484-1.78-4.4-.15-5.385.407.333.725.76.927 1.245.023.063.059.12.106.169s.101.088.163.114a.5.5 0 0 0 .195.042c.067.001.134-.012.196-.037a.49.49 0 0 0 .165-.112c.047-.048.084-.105.109-.167a.51.51 0 0 0 .034-.197.5.5 0 0 0-.045-.194 4.14 4.14 0 0 0-1.5-1.849c-.726-.6-1.411-1.174-1.459-2.016-.054-.819 1.658-1.315 2.393-1.129 2.878.955 4.336 3.11 6.737 5.028.051.045.11.079.174.1a.5.5 0 0 0 .392-.035.49.49 0 0 0 .155-.128c.042-.053.073-.114.091-.179a.5.5 0 0 0 .014-.2c-.009-.067-.032-.132-.067-.19a.49.49 0 0 0-.135-.148c-2.518-2.015-3.817-4.127-7.081-5.208-.522-.092-1.058-.077-1.574.046a3.89 3.89 0 0 0-1.426.665c-.221.167-.398.385-.515.636a1.69 1.69 0 0 0-.158.804c.05.448.191.882.414 1.274a3.31 3.31 0 0 0 .886 1.006c-1.361 1.044-1.352 2.987-.839 4.611a2.77 2.77 0 0 0-2.336 1.836c-.25.839-.248 1.732.007 2.57-.848.39-2.074 1.43-.9 4.03 2.132 4.523 5.571 4.9 8.894 7.088 1.407.93 2.466 2.424 4.056 3.28 1.375.735 2.774.56 3.879 1.48 2.257 1.876 4.23 4.254 6.468 6.25 2.591 2.303 5.276 4.498 8.048 6.581-3.871 2.908-2.547 6.533-1.667 8.941l.339.964c-1.26.167-2.532.207-3.8.119-2.638-.114-6.851-1.391-8.7 1.42-.355.551-.629 1.15-.812 1.779-1.708-1.053-4.8-2.989-6.268-4.03a3.16 3.16 0 0 1-1.343-1.512c-.372-1.253.261-2.718-.49-4.213-1.026-2.034-3.881-2.479-5.665-3.231-.818-.468-1.77-.644-2.7-.5-1.1.364-1.772 2.116-.853 2.956 1.707 1.581 4.394 1.566 4.23 4.085a3.12 3.12 0 0 1-.226 1c-.775 1.787-3.38.843-5.159.047-.722-.323-1.926-.869-2.689.12a2.35 2.35 0 0 0-.503.966 2.34 2.34 0 0 0-.01 1.088c.392 1.575 2.464 2.638 4.164 3.458 1.257.645 2.712.786 4.07.394.7-.216 1.573-.978 2.093-.9a9.08 9.08 0 0 1 2.537 1.223c1.828.992 6.748 4.156 8.721 5.232-1.141 1.806-1.154 4.885.694 5.971-.329 1.145 1.7 2.836 1.725 2.852.3.203.624.368.965.489-.318 1.118 1.327 2.688 2.063 2.946a3.48 3.48 0 0 0 2.573-.172c.804-.384 1.431-1.061 1.751-1.893 2.029 1.382 5 2.2 5.785-.021.315-.945-.545-1.616-1.391-2.142a12.17 12.17 0 0 0 2.512-2.825 2.67 2.67 0 0 0 1.834.646c.27-.014.53-.105.75-.262a1.41 1.41 0 0 0 .489-.627c.274-.791-.327-1.777-.879-2.464.071-.129.192-.366.269-.532 1.833 2.9 3.6 6.209 3.988 7.063-5.3 1.508-12.474 5.222-15.742 9.838-4.055 5.728-1.167 14.427 4.442 18.369 5.759 4.03 12.308 4.383 18.642 4.724 5.436.295 5.545.286 7.986 1.071 1.562.599 3.228.882 4.9.831.722 0 1.444-.039 2.162-.119l-.225.5c-.828 1.834-1.86 4.117.414 5.968.363.293.753.549 1.167.764-2.447 2.1-3.615 1.068-5.647 1.62-1.26.342-1.535.945-2.905 1.609-3.5 1.727-7.957 1.271-11.239 4.2-2.5 2.219-3.2 6.216-.588 8.487 1.626 1.409 4.036 1.647 6.142 1.854 4 .393 8.393.419 12.651.428 5.971.013 13.4 1.342 18.569-.4.015.105.062.203.137.279a.5.5 0 0 0 .275.144c3.085.522 6.239.482 9.309-.119a2.89 2.89 0 0 0 2.486-2.121c.079-.449.126-.903.141-1.359 3.677-3.747 1.648-11.388.511-14.724 1.75-.825 2.682-1.95 2.7-3.272-.013-.499-.169-.983-.451-1.395a2.59 2.59 0 0 0-1.136-.927c-.75-.466-.981-.634-1.092-1.325.148-.012.627-.067.627-.067 2.611.2 3.893 1.739 6.166 1.739 1.101.058 2.185-.289 3.047-.977s1.441-1.668 1.629-2.754c.7.63 1.577 1.239 2.3 1.97.781.708-.557 1.854-.144 3.444.215.748.704 1.388 1.37 1.792.136.09.334.161.473.235-.285.621-.669.874-1.438 1.475-.49.384-.275.2-2.064 1.821-3.054 2.767-5.851 6.784-2.71 9.439 1.668 1.41 4.2 1.268 6.345.839 4.68-.921 8.722-3.595 12.965-5.353 1.92-.8 4.536-1.168 6.085-2.906 1.749-1.955 1.532-4.951 1.146-7.353zm-87.491-126.757a.58.58 0 0 1-.255.011c-.084-.015-.165-.05-.234-.1a1.57 1.57 0 0 1-.367-.499 1.56 1.56 0 0 1-.146-.601 5.68 5.68 0 0 1 .288-2.225c.243-.715.627-1.374 1.128-1.939a.49.49 0 0 0 .121-.3c3-.446 5.07-2.087 8.069-.56 1.129.567 2.587 1.912 2.294 3.123-.06.248-.134.325-.155.333-.227.084-.971-.472-1.331-.737-.7-.516-1.359-1.006-1.895-.573-1.272 1.028-.14 3.411-1.5 3.921-1.451.54-1.694-1.909-3.293-2.263-.548-.127-.974.417-1.559 1.175-.514.664-.942 1.184-1.165 1.234zm22.028 15.352l.051-.214a6.98 6.98 0 0 1 1.615-2.132c4.526-4.7 17.369-14.3 21.97-9.7a24.1 24.1 0 0 1 2.671 3.09c-5.755.2-11.212 3.221-16.747 6.565a76.28 76.28 0 0 0-8.808 5.922 3.35 3.35 0 0 1-.894-1.655c-.133-.626-.084-1.277.142-1.876zm-.748 43.579c.485.556.707.774 1.076 1.159 1.536 1.6 3.385 3.389 5.547 2.749 1.758-.523 3.15-2.21 4.269-3.565l3.049-3.6c.242 1.664.201 3.357-.123 5.007-.46 1.694-1.447 3.482-2.082 5.208-1.035-.329-2.05-.721-3.037-1.173l-7.157-2.607c-1.92-.738-2.909-1.189-2.93-1.2a22.78 22.78 0 0 0 1.388-1.973v-.005zm-45.4 15.147c.785-3.716 3.155-3.615 6.869-3.173a23.16 23.16 0 0 0 4.715.152c.535-.049.96-.089 1.151-.312a46.84 46.84 0 0 0 4.824 9.633s-.173.482-.326.794a8.47 8.47 0 0 0-2.073-1.35c.2-.108.394-.223.581-.346.055-.035.103-.081.14-.136a.5.5 0 0 0 .077-.179.51.51 0 0 0 .003-.195.52.52 0 0 0-.071-.182.48.48 0 0 0-.137-.14.49.49 0 0 0-.179-.077c-.064-.014-.131-.015-.196-.004a.5.5 0 0 0-.181.073c-1.389.903-3.017 1.367-4.673 1.332a8.24 8.24 0 0 1-4.611-1.532c-1.757-1.381-1.084-2.262-2.089-4.53-.024-.064-.06-.123-.107-.173a.51.51 0 0 0-.167-.116.5.5 0 0 0-.198-.041c-.069 0-.136.014-.199.041a.5.5 0 0 0-.165.118c-.047.051-.083.11-.106.174a.49.49 0 0 0-.027.201.48.48 0 0 0 .055.196c.673 1.522 1.24 4.435-.09 5.308a1.9 1.9 0 0 1-1.327.047c-.434-.144-.801-.44-1.034-.833-.874-1.228-.811-3.254-.459-4.75zm-9.119-.7c-.867-.597-1.825-1.051-2.836-1.344-1.085-.174-1.969.716-2.613.918-1.116.317-2.31.195-3.339-.34-1.97-.95-4.624-2.278-3.294-4 .238-.307.686-.177 1.485.18 2.471 1.106 5.419 1.9 6.493-.569.173-.423.274-.873.3-1.329.215-3.3-2.988-3.435-4.55-4.881-.308-.282.07-1.133.49-1.272.643-.216 1.884.453 2.61.712 1.55.555 3.815 1.058 4.551 2.515.585 1.164-.005 2.609.44 4.093.343.85.958 1.561 1.748 2.023 1.538 1.091 4.925 3.208 6.564 4.214a8.25 8.25 0 0 0 .164 4.027c-1.757-1.005-6.728-4.145-8.213-4.945v-.002zm9.131 6.486c.346.361.778.629 1.255.78s.984.18 1.475.084a.51.51 0 0 0 .336.126 7.5 7.5 0 0 1 3.116.548c.109.061.205.143.28.243s.13.214.159.336a1.55 1.55 0 0 1-.414 1.1c-.333.435-.754.794-1.236 1.053-.654.387-1.379.637-2.132.736a5.62 5.62 0 0 1-2.25-.161c-1.733-.673-1.548-3.488-.589-4.843v-.002zm.742 5.945c1.607.29 3.265.012 4.69-.785.514-.275.974-.64 1.359-1.078a2.78 2.78 0 0 1-.374 3.2 3.74 3.74 0 0 1-2.136.865 3.73 3.73 0 0 1-2.236-.556 5.07 5.07 0 0 1-1.303-1.644v-.002zm4.1 4.966c-.454-.159-1.7-1.5-1.4-1.775a4.95 4.95 0 0 0 3.621-1.1 3.11 3.11 0 0 0 .81-1.178c1.106 2.029-.798 4.831-3.029 4.055l-.002-.002zm8.1-4.4c-.186.157-.389.394-.594.565-.886-.594-1.157-1.014-.963-1.468a3.39 3.39 0 0 1 .638-.959c.775-.893 1.546-1.012 2.857-.357-.517.845-1.171 1.597-1.937 2.224l-.001-.005zm4.929-2.281c-.048.14-.309.2-.46.229-.888.143-3.666-3.314-6.134-.476-.339.361-.613.778-.811 1.232-.6 1.412.724 2.339 1.92 3.065.307.186 1.4.821 1.29 1.161-.039.134-.107.258-.201.362s-.21.185-.339.238c-.905.178-1.844.021-2.642-.441-1.191-.574-1.233-.795-1.333-.884.079-.509.051-1.03-.083-1.527a3.7 3.7 0 0 0-.695-1.363c-.067-.082-.159-.141-.261-.168a3.62 3.62 0 0 0-.731-2.46 2.08 2.08 0 0 0 .215-1.247c-.249-1.495-2.142-1.812-3.652-1.924a2.9 2.9 0 0 0 .571-1.385c1.232 1.187 2.781 1.994 4.46 2.321s3.418.163 5.006-.474a22.83 22.83 0 0 1 2.082 1.156c.285.21.546.451.778.718.794.873 1.114 1.602 1.021 1.872l-.001-.005zm22.334 38.1c-1.906-.345-3.63-1.261-5.688-1.444-8.215-.743-16.1-.01-23.048-4.87-5.141-3.611-7.941-11.69-4.2-16.972 3.137-4.432 10.1-8.015 15.245-9.468a.57.57 0 0 0 .105-.044c3.915 8.241 7.9 16.172 13.259 22.781a27.64 27.64 0 0 0 5.484 5.143c1.1.781 2.871 1.46 3.56 2.526.195.349.305.74.32 1.14s-.066.797-.235 1.16c-1.592.222-3.205.238-4.801.048h-.001zm32.294 25.361c-2.74.538-5.551.614-8.316.223 2.95-1.139 4.567-2.015 7.761-2.07a7.99 7.99 0 0 0 2.285-.01 8.77 8.77 0 0 1-.068.5 1.91 1.91 0 0 1-1.661 1.357h-.001zm1.971-3.1c-.022.014-.043.029-.063.046-.521.308-1.142.398-1.728.251-3.818-.331-6.791 1.372-9.638 2.383-5.1 1.912-12.441.512-19.132.5-4.242-.008-8.1-.031-12.208-.433-1.824-.179-4.093-.4-5.481-1.6-2.141-1.861-1.441-5.173.6-6.985 3.486-3.107 8.712-2.061 12.563-5 2.108-1.642 3.935.41 7.17-2.382a.5.5 0 0 0 .137-.194c.03-.075.041-.155.033-.235 1.99.704 4.07 1.124 6.177 1.247 6.829.707 15.48 1.069 21.963-1.33 1.084 3.202 2.991 10.391-.392 13.733l-.001-.001zm33.934-39.694c.49 2.246.682 4.545.574 6.84.002.181-.045.358-.134.514-.517.263-1.076.432-1.651.5-.5-2.859.578-7.456-1.607-9.867a4.08 4.08 0 0 1 2.119.392c.42.44.669 1.015.7 1.622l-.001-.001zm-50.365-10.825c-.246-.255-.081.064 4.543 1.909-2.7-.223-3.073-.351-3.4-.342-.021-.008-.041-.015-.062-.021-.281-.567-.645-1.088-1.081-1.546zm24.38 30.152c-1.834-.067-3.317-1.593-5.927-1.734a6.58 6.58 0 0 0-.7.067 8.49 8.49 0 0 0-.072-2.818c-1.032-3.579-3.377-6.68-5.895-9.8a40.19 40.19 0 0 0-4.021-4.291c-2.043-1.881-4.895-3.351-5.446-5.9a26.8 26.8 0 0 0-.812-3.065c4.569.473 4.6.409 5.807.609a.5.5 0 0 0 .4-.1 146.98 146.98 0 0 0 10.542 3.393c2.785.781 5.67 1.149 8.563 1.092-2.256 3.962-.932 8.829.238 13.131.593 1.927 1.008 3.905 1.24 5.908.006.498-.094.992-.295 1.448s-.496.864-.867 1.196-.809.581-1.284.73a3.49 3.49 0 0 1-1.471.134zm27.3 9.363c-1.317 1.478-3.811 1.856-5.721 2.647-4.267 1.769-8.269 4.409-12.776 5.3-2.6.518-4.4.315-5.5-.622a2.59 2.59 0 0 1-.737-.884c-.177-.346-.273-.728-.282-1.116-.046-2.688 3.467-5.67 5.284-7.319.932-.845 1.831-1.137 2.34-2.584.11-.653-.536-.943-.811-1.066a2.1 2.1 0 0 1-.966-.93c-.5-1.035.147-1.667.273-2.725a1.81 1.81 0 0 0-.086-.835c-.094-.267-.251-.509-.456-.704-.819-.831-2.112-1.731-2.611-2.275-.097-.122-.222-.218-.365-.278-.6-5.663-4.549-12.71-1.6-17.981.056.027.117.043.18.047 3.906.276 8.508 1.016 12.49.746 1.673-.113 4.159-.784 5.66-.075 2.124.987 2.046 4.511 2.018 6.854a14.16 14.16 0 0 0 .279 3.691c1.12 4.579 3.009 6.567 4.295 13.588.335 2.17.548 4.876-.913 6.521h.005zM228.158 98.11a2.17 2.17 0 0 0-.235.077.52.52 0 0 0-.23.093.51.51 0 0 0-.208.433.5.5 0 0 0 .342.452.49.49 0 0 0 .346-.016c.175-.054.065-.07.746-.082 1.085-.031 2.152.276 3.055.877a5.24 5.24 0 0 1 1.988 2.481.5.5 0 0 0 .178.228c.08.058.176.09.274.093a.5.5 0 0 0 .28-.075c.084-.051.151-.127.192-.216a.52.52 0 0 0 .045-.19c.002-.065-.009-.131-.032-.192-.514-1.323-1.459-2.433-2.682-3.152a6.31 6.31 0 0 0-4.059-.811zm.065 5.945c-1.018.265-.893 2.326-.564 3.343.518 1.268 1.925.633 1.876-1.622-.019-.873-.462-1.936-1.312-1.72v-.001zm8.816-2.567c1.352 3.678 3.74 8.83 8.854 11.093.06.027.124.041.19.043a.5.5 0 0 0 .357-.138.48.48 0 0 0 .112-.159.5.5 0 0 0 .043-.191c.002-.065-.01-.131-.033-.192a.49.49 0 0 0-.105-.165.51.51 0 0 0-.159-.112c-3.629-1.606-6.272-4.95-8.321-10.525-.753-1.991-1.314-4.05-1.676-6.148a.51.51 0 0 0-.11-.257c-.061-.073-.141-.128-.231-.158a.5.5 0 0 0-.52.135.48.48 0 0 0-.112.375c.355 2.185.928 4.329 1.711 6.399zm9.543 17.258c.066.091.161.157.27.188s.224.024.328-.02a.5.5 0 0 0 .302-.542 3.07 3.07 0 0 1 .536-1.114.96.96 0 0 1 .073.035c1.018.5 1.022.7 1.33.7.079 0 .157-.02.228-.056a.51.51 0 0 0 .266-.372c.011-.078.004-.159-.021-.234-.035-.1-.1-.187-.187-.248-.347-.242-.711-.459-1.089-.65a3.63 3.63 0 0 1 1.66-1.04c.113-.048.204-.135.257-.245a.5.5 0 0 0 .03-.355c-.035-.117-.112-.218-.216-.283a.5.5 0 0 0-.348-.07c-2.518.739-3.883 3.688-3.419 4.306z" class="E"/><path d="M133.602 332.012c-.821 0-1.555.148-2.204.445-.64.297-1.183.727-1.628 1.289-.446.555-.786 1.231-1.02 2.027-.234.789-.352 1.68-.352 2.672 0 1.328.188 2.473.563 3.434.375.953.945 1.687 1.711 2.203.766.508 1.734.762 2.906.762.727 0 1.434-.071 2.121-.211a19.01 19.01 0 0 0 2.133-.574v2.39a10.87 10.87 0 0 1-2.109.598c-.711.125-1.532.187-2.461.187-1.75 0-3.203-.363-4.36-1.089-1.148-.727-2.007-1.75-2.578-3.071-.562-1.32-.844-2.867-.844-4.64 0-1.297.18-2.485.54-3.563s.882-2.008 1.57-2.789c.687-.789 1.535-1.394 2.543-1.816 1.015-.43 2.176-.645 3.48-.645.86 0 1.703.098 2.532.293.835.188 1.609.457 2.32.809l-.985 2.32a14.49 14.49 0 0 0-1.863-.727 6.7 6.7 0 0 0-2.015-.304zm12.714 1.769c1.641 0 2.879.364 3.715 1.09.844.727 1.266 1.859 1.266 3.399V347h-1.957l-.528-1.84h-.093c-.367.469-.746.856-1.137 1.16s-.844.532-1.359.68c-.508.156-1.129.234-1.864.234-.773 0-1.464-.14-2.074-.422a3.29 3.29 0 0 1-1.441-1.312c-.352-.586-.528-1.328-.528-2.227 0-1.335.496-2.339 1.489-3.011 1-.672 2.507-1.043 4.523-1.114l2.25-.082v-.679c0-.899-.211-1.539-.633-1.922-.414-.383-1-.574-1.757-.574a6.36 6.36 0 0 0-1.887.281c-.61.187-1.203.418-1.781.691l-.891-1.945c.633-.336 1.351-.609 2.156-.82a10.03 10.03 0 0 1 2.531-.317zm2.25 7.02l-1.675.058c-1.375.047-2.34.282-2.895.703s-.832 1-.832 1.735c0 .641.191 1.109.574 1.406.383.289.887.434 1.512.434.953 0 1.742-.27 2.367-.809.633-.547.949-1.348.949-2.402v-1.125zm9.352 6.199h-2.766v-18.234h2.766V347zm6.703 0h-2.766v-18.234h2.766V347zm17.754-14.988c-.82 0-1.555.148-2.203.445-.641.297-1.184.727-1.629 1.289-.445.555-.785 1.231-1.02 2.027-.234.789-.351 1.68-.351 2.672 0 1.328.187 2.473.562 3.434.375.953.946 1.687 1.711 2.203.766.508 1.735.762 2.907.762a10.61 10.61 0 0 0 2.121-.211c.687-.141 1.398-.332 2.132-.574v2.39a10.87 10.87 0 0 1-2.109.598c-.711.125-1.531.187-2.461.187-1.75 0-3.203-.363-4.359-1.089-1.149-.727-2.008-1.75-2.578-3.071-.563-1.32-.844-2.867-.844-4.64 0-1.297.18-2.485.539-3.563s.883-2.008 1.57-2.789c.688-.789 1.535-1.394 2.543-1.816 1.016-.43 2.176-.645 3.481-.645.859 0 1.703.098 2.531.293a10.3 10.3 0 0 1 2.32.809l-.984 2.32c-.594-.281-1.215-.523-1.863-.727s-1.321-.304-2.016-.304zm19.113 8.472c0 1.078-.14 2.036-.422 2.871s-.691 1.543-1.23 2.122c-.539.57-1.188 1.007-1.945 1.312-.758.297-1.614.445-2.567.445-.89 0-1.707-.148-2.449-.445a5.6 5.6 0 0 1-1.934-1.312c-.539-.579-.957-1.286-1.253-2.122s-.446-1.793-.446-2.871c0-1.429.246-2.64.738-3.632.5-1 1.211-1.762 2.133-2.286s2.02-.785 3.293-.785c1.196 0 2.25.262 3.164.785s1.629 1.286 2.145 2.286.773 2.21.773 3.632zm-9.41 0c0 .946.113 1.754.34 2.426.234.672.594 1.188 1.078 1.547.484.352 1.109.527 1.875.527s1.391-.175 1.875-.527c.484-.359.84-.875 1.066-1.547s.34-1.48.34-2.426-.113-1.746-.34-2.402c-.226-.664-.582-1.168-1.066-1.512-.484-.351-1.113-.527-1.887-.527-1.14 0-1.972.383-2.496 1.148s-.785 1.864-.785 3.293zm27.234-6.703c1.454 0 2.547.375 3.282 1.125.742.75 1.113 1.953 1.113 3.61V347h-2.754v-7.992c0-.985-.191-1.727-.574-2.227s-.965-.75-1.746-.75c-1.094 0-1.883.352-2.367 1.055-.477.695-.715 1.707-.715 3.035V347h-2.754v-7.992c0-.656-.086-1.203-.258-1.641-.164-.445-.418-.777-.762-.996-.343-.226-.777-.34-1.3-.34-.758 0-1.364.172-1.817.516-.445.344-.765.851-.961 1.523-.195.664-.293 1.481-.293 2.45V347h-2.754v-12.973h2.145l.387 1.746h.152c.266-.453.594-.824.984-1.113.399-.297.84-.515 1.325-.656.484-.149.988-.223 1.511-.223.969 0 1.785.172 2.449.516.665.336 1.161.851 1.489 1.547h.211c.406-.703.972-1.223 1.699-1.559a5.43 5.43 0 0 1 2.308-.504zm14.895 0c1.539 0 2.773.563 3.703 1.688.938 1.125 1.406 2.797 1.406 5.015 0 1.469-.218 2.707-.656 3.715-.43 1-1.035 1.758-1.816 2.274-.774.507-1.676.761-2.707.761-.657 0-1.227-.086-1.711-.257s-.899-.395-1.242-.668a4.8 4.8 0 0 1-.868-.914h-.164l.106 1.043.058 1.031v5.285h-2.765v-18.727h2.25l.387 1.793h.128c.243-.367.536-.707.879-1.019.352-.313.774-.559 1.266-.739.5-.187 1.082-.281 1.746-.281zm-.738 2.25c-.758 0-1.367.153-1.828.457-.453.297-.786.746-.996 1.348-.204.602-.313 1.355-.329 2.262v.386c0 .961.098 1.778.293 2.45.203.664.536 1.171.996 1.523.469.344 1.102.516 1.899.516.672 0 1.226-.184 1.664-.551.445-.367.777-.891.996-1.57s.328-1.481.328-2.403c0-1.398-.25-2.484-.75-3.258-.492-.773-1.25-1.16-2.273-1.16zM245.27 347h-2.766v-18.234h2.766V347zm9.105-13.219c1.156 0 2.148.239 2.977.715s1.464 1.152 1.91 2.027.668 1.922.668 3.141v1.477h-8.66c.031 1.257.367 2.226 1.007 2.906.649.68 1.555 1.019 2.719 1.019.828 0 1.57-.078 2.227-.234.664-.164 1.347-.402 2.05-.715v2.238c-.648.305-1.308.528-1.98.668s-1.477.211-2.414.211c-1.274 0-2.395-.246-3.363-.738-.961-.5-1.715-1.242-2.262-2.226-.539-.985-.809-2.208-.809-3.668 0-1.454.246-2.688.739-3.704s1.183-1.789 2.074-2.32 1.93-.797 3.117-.797zm0 2.074c-.867 0-1.57.282-2.109.844-.532.563-.844 1.387-.938 2.473h5.906c-.007-.649-.117-1.223-.328-1.723a2.5 2.5 0 0 0-.937-1.172c-.414-.281-.946-.422-1.594-.422zm13.488 9.153a6.04 6.04 0 0 0 1.067-.094c.351-.07.672-.152.961-.246v2.086c-.305.133-.7.246-1.184.34s-.988.14-1.512.14c-.734 0-1.394-.121-1.98-.363-.586-.25-1.051-.676-1.395-1.277s-.515-1.434-.515-2.496v-6.973h-1.77v-1.23l1.899-.973.902-2.777h1.734v2.882h3.715v2.098h-3.715v6.937c0 .657.164 1.145.492 1.465s.762.481 1.301.481zm9.832-11.227c1.157 0 2.149.239 2.977.715a4.79 4.79 0 0 1 1.91 2.027c.445.875.668 1.922.668 3.141v1.477h-8.66c.031 1.257.367 2.226 1.008 2.906.648.68 1.554 1.019 2.718 1.019.829 0 1.571-.078 2.227-.234.664-.164 1.348-.402 2.051-.715v2.238a8.93 8.93 0 0 1-1.981.668c-.672.141-1.476.211-2.414.211-1.273 0-2.394-.246-3.363-.738-.961-.5-1.715-1.242-2.262-2.226-.539-.985-.808-2.208-.808-3.668 0-1.454.246-2.688.738-3.704s1.184-1.789 2.074-2.32 1.93-.797 3.117-.797zm0 2.074c-.867 0-1.57.282-2.109.844-.531.563-.844 1.387-.938 2.473h5.907c-.008-.649-.117-1.223-.328-1.723-.204-.5-.516-.89-.938-1.172-.414-.281-.945-.422-1.594-.422zm13.02 11.379c-1.547 0-2.789-.562-3.727-1.687-.929-1.133-1.394-2.801-1.394-5.004 0-2.227.472-3.91 1.418-5.051.953-1.14 2.207-1.711 3.761-1.711.657 0 1.231.09 1.723.27.492.172.914.406 1.266.703.359.297.664.629.914.996h.129l-.141-1.043-.07-1.277v-4.664h2.765V347h-2.156l-.492-1.77h-.117a4.41 4.41 0 0 1-.891 1.02c-.351.297-.773.535-1.265.715-.485.18-1.059.269-1.723.269zm.773-2.238c1.18 0 2.012-.34 2.496-1.019s.735-1.7.75-3.059v-.363c0-1.453-.234-2.567-.703-3.34-.469-.781-1.324-1.172-2.566-1.172-.992 0-1.75.402-2.274 1.207-.515.797-.773 1.91-.773 3.34s.258 2.523.773 3.281c.524.75 1.289 1.125 2.297 1.125zm12.2-3.223h-2.075l-.562-11.906h3.199l-.562 11.906zm-2.778 3.774c0-.641.164-1.09.492-1.348.336-.265.746-.398 1.231-.398.476 0 .883.133 1.219.398.336.258.503.707.503 1.348 0 .625-.167 1.078-.503 1.359-.336.274-.743.41-1.219.41-.485 0-.895-.136-1.231-.41-.328-.281-.492-.734-.492-1.359z" class="B"/><path d="M96.953 370.273c0 .881-.112 1.683-.336 2.407-.224.718-.557 1.338-1 1.859a4.38 4.38 0 0 1-1.633 1.195c-.651.282-1.406.422-2.266.422-.886 0-1.659-.14-2.32-.422-.656-.281-1.203-.682-1.641-1.203-.432-.521-.758-1.143-.977-1.867-.213-.724-.32-1.526-.32-2.406 0-1.167.193-2.19.578-3.07s.969-1.566 1.75-2.055c.786-.49 1.771-.735 2.953-.735 1.13 0 2.081.243 2.852.727.776.484 1.362 1.167 1.758 2.047.401.875.602 1.909.602 3.101zm-9.094 0c0 .969.138 1.808.414 2.516s.698 1.255 1.266 1.641c.573.385 1.299.578 2.18.578.885 0 1.609-.193 2.172-.578.568-.386.987-.933 1.258-1.641s.406-1.547.406-2.516c0-1.474-.31-2.625-.93-3.453-.615-.833-1.576-1.25-2.883-1.25-.885 0-1.615.19-2.187.571s-1 .921-1.281 1.625c-.276.698-.414 1.533-.414 2.507zm15.336-2.992c.172 0 .352.011.539.031s.355.04.5.071l-.164 1.203c-.14-.037-.297-.065-.468-.086a4.01 4.01 0 0 0-.485-.031 2.31 2.31 0 0 0-.976.211c-.302.135-.568.333-.797.593s-.409.566-.539.93-.196.761-.196 1.203V376h-1.304v-8.562h1.078l.14 1.578h.055a4.21 4.21 0 0 1 .641-.868 2.89 2.89 0 0 1 .867-.632c.333-.157.703-.235 1.109-.235zm3.953.157V376h-1.296v-8.562h1.296zm-.632-3.204c.213 0 .395.071.546.211.157.136.235.349.235.641 0 .286-.078.5-.235.641-.151.14-.333.211-.546.211-.224 0-.412-.071-.563-.211s-.219-.355-.219-.641c0-.292.073-.505.219-.641s.339-.211.563-.211zm6.679 3.047c.729 0 1.354.162 1.875.485s.92.776 1.196 1.359c.276.578.414 1.255.414 2.031v.805h-5.914c.015 1.005.265 1.771.75 2.297s1.166.789 2.046.789c.542 0 1.021-.05 1.438-.149s.849-.244 1.297-.437v1.141c-.432.192-.862.333-1.289.421-.422.089-.922.133-1.5.133-.823 0-1.542-.166-2.156-.5s-1.084-.833-1.422-1.484-.508-1.448-.508-2.391c0-.922.154-1.719.461-2.39.312-.677.75-1.198 1.312-1.563.568-.364 1.235-.547 2-.547zm-.015 1.063c-.693 0-1.245.226-1.657.679s-.656 1.086-.734 1.899h4.531c-.005-.511-.086-.958-.242-1.344s-.383-.693-.695-.906c-.313-.219-.714-.328-1.203-.328zm9.758-1.063c1.015 0 1.783.25 2.304.75s.781 1.292.781 2.391V376h-1.281v-5.492c0-.714-.164-1.248-.492-1.602-.323-.354-.82-.531-1.492-.531-.948 0-1.615.268-2 .805s-.578 1.315-.578 2.336V376h-1.297v-8.562h1.047l.195 1.234h.07a2.55 2.55 0 0 1 .696-.758 3.03 3.03 0 0 1 .945-.469c.349-.109.716-.164 1.102-.164zm8.523 7.813c.213 0 .432-.018.656-.055a2.98 2.98 0 0 0 .547-.133v1.008c-.151.068-.362.125-.633.172a4.47 4.47 0 0 1-.781.07c-.453 0-.865-.078-1.234-.234-.37-.162-.667-.432-.891-.813s-.328-.906-.328-1.578v-5.078h-1.219v-.633l1.227-.508.515-1.859h.782v1.985h2.507v1.015h-2.507v5.039c0 .537.122.938.367 1.203s.58.399.992.399zm13.648.906h-6.359v-11.422h6.359v1.172h-5.031v3.695h4.742v1.157h-4.742v4.226h5.031V376zm3.641 0h-1.305v-12.156h1.305V376zm6.039-8.719c.729 0 1.354.162 1.875.485s.919.776 1.195 1.359c.276.578.414 1.255.414 2.031v.805h-5.914c.016 1.005.266 1.771.75 2.297s1.167.789 2.047.789c.542 0 1.021-.05 1.438-.149s.849-.244 1.297-.437v1.141c-.433.192-.862.333-1.289.421s-.922.133-1.5.133c-.823 0-1.542-.166-2.157-.5-.609-.338-1.083-.833-1.422-1.484s-.507-1.448-.507-2.391c0-.922.153-1.719.461-2.39.312-.677.75-1.198 1.312-1.563.568-.364 1.234-.547 2-.547zm-.016 1.063c-.692 0-1.244.226-1.656.679s-.656 1.086-.734 1.899h4.531c-.005-.511-.086-.958-.242-1.344s-.383-.693-.695-.906c-.313-.219-.714-.328-1.204-.328zm9.133 7.812c-.771 0-1.45-.159-2.039-.476s-1.047-.802-1.375-1.453-.492-1.472-.492-2.461c0-1.037.172-1.883.516-2.539.349-.662.828-1.151 1.437-1.469s1.302-.477 2.078-.477a5.68 5.68 0 0 1 1.235.133c.401.083.729.19.984.32l-.391 1.086a6.66 6.66 0 0 0-.906-.281 4.01 4.01 0 0 0-.953-.125c-.594 0-1.089.128-1.484.383s-.685.63-.883 1.125-.289 1.104-.289 1.828c0 .693.094 1.284.281 1.773.193.49.477.865.852 1.125s.854.383 1.421.383c.454 0 .862-.047 1.227-.14.365-.099.695-.214.992-.344v1.156a4 4 0 0 1-.961.336c-.349.078-.765.117-1.25.117zm7.008-1.062c.214 0 .432-.018.656-.055a2.96 2.96 0 0 0 .547-.133v1.008c-.151.068-.362.125-.633.172a4.47 4.47 0 0 1-.781.07c-.453 0-.864-.078-1.234-.234-.37-.162-.667-.432-.891-.813s-.328-.906-.328-1.578v-5.078h-1.219v-.633l1.227-.508.515-1.859h.782v1.985h2.507v1.015h-2.507v5.039c0 .537.122.938.367 1.203s.581.399.992.399zm6.828-7.813c.172 0 .352.011.539.031s.354.04.5.071l-.164 1.203a3.52 3.52 0 0 0-.469-.086c-.171-.021-.333-.031-.484-.031a2.31 2.31 0 0 0-.976.211c-.303.135-.568.333-.797.593s-.409.566-.539.93-.196.761-.196 1.203V376h-1.304v-8.562h1.078l.14 1.578h.055a4.21 4.21 0 0 1 .641-.868 2.89 2.89 0 0 1 .867-.632c.333-.157.703-.235 1.109-.235zm3.953.157V376h-1.297v-8.562h1.297zm-.633-3.204c.214 0 .396.071.547.211.157.136.235.349.235.641 0 .286-.078.5-.235.641-.151.14-.333.211-.547.211-.223 0-.411-.071-.562-.211-.146-.141-.219-.355-.219-.641 0-.292.073-.505.219-.641.151-.14.339-.211.562-.211zm6.813 11.922c-.771 0-1.451-.159-2.039-.476s-1.047-.802-1.375-1.453-.492-1.472-.492-2.461c0-1.037.172-1.883.515-2.539.349-.662.828-1.151 1.438-1.469s1.302-.477 2.078-.477c.427 0 .839.045 1.234.133.401.083.73.19.985.32l-.391 1.086a6.66 6.66 0 0 0-.906-.281c-.339-.083-.656-.125-.953-.125-.594 0-1.089.128-1.485.383-.39.255-.685.63-.882 1.125s-.29 1.104-.29 1.828c0 .693.094 1.284.282 1.773s.476.865.851 1.125c.381.256.854.383 1.422.383.453 0 .862-.047 1.227-.14a7.17 7.17 0 0 0 .992-.344v1.156c-.287.146-.607.258-.961.336-.349.078-.766.117-1.25.117zm11.578-11.578c1.474 0 2.55.289 3.227.867s1.023 1.396 1.023 2.469c0 .484-.081.945-.242 1.383a2.93 2.93 0 0 1-.766 1.148c-.354.328-.82.589-1.398.782-.573.187-1.276.281-2.109.281h-1.391V376h-1.328v-11.422h2.984zm-.125 1.133h-1.531v4.656h1.242c.729 0 1.336-.078 1.82-.234.49-.156.857-.409 1.102-.758s.367-.823.367-1.406c0-.761-.242-1.326-.726-1.696-.485-.375-1.243-.562-2.274-.562zm9.774 1.586c1.02 0 1.778.229 2.273.687s.742 1.19.742 2.196V376h-.945l-.25-1.266h-.063c-.239.313-.489.576-.75.789a2.76 2.76 0 0 1-.906.477c-.338.104-.755.156-1.25.156-.521 0-.984-.091-1.391-.273a2.17 2.17 0 0 1-.953-.828c-.229-.37-.343-.839-.343-1.407 0-.854.338-1.51 1.015-1.968s1.709-.709 3.094-.75l1.477-.063v-.523c0-.74-.159-1.258-.477-1.555s-.766-.445-1.344-.445c-.448 0-.875.065-1.281.195a8.73 8.73 0 0 0-1.156.461l-.399-.984c.386-.198.828-.368 1.328-.508a5.79 5.79 0 0 1 1.579-.211zm1.734 4.484l-1.305.055c-1.067.042-1.82.216-2.258.523s-.656.743-.656 1.305c0 .49.149.852.445 1.086s.691.352 1.18.352c.761 0 1.383-.211 1.867-.633s.727-1.055.727-1.899v-.789zm7.383 4.375c-.771 0-1.451-.159-2.039-.476s-1.047-.802-1.375-1.453-.493-1.472-.493-2.461c0-1.037.172-1.883.516-2.539.349-.662.828-1.151 1.438-1.469s1.302-.477 2.078-.477a5.67 5.67 0 0 1 1.234.133c.401.083.729.19.984.32l-.39 1.086a6.75 6.75 0 0 0-.906-.281c-.339-.083-.657-.125-.954-.125-.593 0-1.088.128-1.484.383-.39.255-.685.63-.883 1.125-.192.495-.289 1.104-.289 1.828 0 .693.094 1.284.282 1.773s.476.865.851 1.125c.38.256.854.383 1.422.383.453 0 .862-.047 1.227-.14a7.17 7.17 0 0 0 .992-.344v1.156c-.287.146-.607.258-.961.336-.349.078-.766.117-1.25.117zm5.539-8.718V376h-1.297v-8.562h1.297zm-.633-3.204c.214 0 .396.071.547.211s.234.349.234.641c0 .286-.078.5-.234.641s-.333.211-.547.211a.8.8 0 0 1-.563-.211c-.145-.141-.218-.355-.218-.641 0-.292.073-.505.218-.641a.8.8 0 0 1 .563-.211zm7.195 4.219h-2.132V376h-1.297v-7.547h-1.516v-.625l1.516-.43v-.57c0-.719.106-1.302.32-1.75s.523-.786.93-1 .901-.32 1.484-.32a4.29 4.29 0 0 1 .898.086c.276.057.519.122.727.195l-.336 1.023c-.177-.057-.378-.109-.602-.156-.218-.052-.442-.078-.671-.078-.495 0-.862.162-1.102.484-.234.318-.351.818-.351 1.5v.626h2.132v1.015zm2.868-1.015V376h-1.297v-8.562h1.297zm-.633-3.204c.213 0 .396.071.547.211s.234.349.234.641c0 .286-.078.5-.234.641s-.334.211-.547.211c-.224 0-.412-.071-.563-.211-.146-.141-.219-.355-.219-.641 0-.292.073-.505.219-.641.151-.14.339-.211.563-.211zm6.804 11.922c-.77 0-1.45-.159-2.039-.476s-1.047-.802-1.375-1.453-.492-1.472-.492-2.461c0-1.037.172-1.883.516-2.539.349-.662.828-1.151 1.437-1.469s1.302-.477 2.078-.477a5.68 5.68 0 0 1 1.235.133c.401.083.729.19.984.32l-.391 1.086a6.66 6.66 0 0 0-.906-.281 4.01 4.01 0 0 0-.953-.125c-.594 0-1.088.128-1.484.383-.391.255-.685.63-.883 1.125s-.289 1.104-.289 1.828c0 .693.094 1.284.281 1.773.193.49.477.865.852 1.125s.854.383 1.422.383a4.96 4.96 0 0 0 1.226-.14c.365-.099.695-.214.992-.344v1.156c-.286.146-.606.258-.961.336-.349.078-.765.117-1.25.117zm15.758-.156l-1.406-3.625h-4.578L247.734 376h-1.343l4.468-11.469h1.196L256.492 376h-1.375zm-1.805-4.805l-1.335-3.601-.157-.461-.211-.664-.179-.555-.172.641-.172.586-.148.453-1.36 3.601h3.734zm5.868-3.757V376h-1.297v-8.562h1.297zm-.633-3.204c.213 0 .396.071.547.211s.234.349.234.641c0 .286-.078.5-.234.641s-.334.211-.547.211c-.224 0-.412-.071-.563-.211-.145-.141-.218-.355-.218-.641 0-.292.073-.505.218-.641.151-.14.339-.211.563-.211zm7.273 3.047c.172 0 .352.011.539.031s.355.04.5.071l-.164 1.203c-.14-.037-.297-.065-.468-.086a4.01 4.01 0 0 0-.485-.031 2.31 2.31 0 0 0-.976.211c-.302.135-.568.333-.797.593s-.409.566-.539.93-.196.761-.196 1.203V376h-1.304v-8.562h1.078l.14 1.578h.055a4.21 4.21 0 0 1 .641-.868 2.89 2.89 0 0 1 .867-.632c.333-.157.703-.235 1.109-.235zm16.078 2.899c0 1.286-.234 2.362-.703 3.226s-1.148 1.508-2.039 1.946c-.885.432-1.961.648-3.226.648h-3.102v-11.422h3.445c1.162 0 2.162.214 3 .641s1.485 1.049 1.938 1.883c.458.828.687 1.854.687 3.078zm-1.398.047c0-1.026-.172-1.873-.516-2.539a3.23 3.23 0 0 0-1.5-1.485c-.656-.328-1.461-.492-2.414-.492h-1.914v9.148h1.617c1.573 0 2.753-.388 3.539-1.164.792-.776 1.188-1.932 1.188-3.468zm7.039-2.946c.729 0 1.354.162 1.875.485s.919.776 1.195 1.359c.276.578.414 1.255.414 2.031v.805h-5.914c.016 1.005.266 1.771.75 2.297s1.167.789 2.047.789c.542 0 1.021-.05 1.438-.149s.849-.244 1.297-.437v1.141c-.433.192-.862.333-1.289.421-.422.089-.922.133-1.5.133-.823 0-1.542-.166-2.157-.5-.609-.338-1.083-.833-1.422-1.484s-.507-1.448-.507-2.391c0-.922.153-1.719.461-2.39.312-.677.75-1.198 1.312-1.563.568-.364 1.234-.547 2-.547zm-.016 1.063c-.692 0-1.244.226-1.656.679s-.656 1.086-.734 1.899h4.531c-.005-.511-.086-.958-.242-1.344s-.383-.693-.695-.906c-.313-.219-.714-.328-1.204-.328zm9.133 7.812c-.771 0-1.45-.159-2.039-.476s-1.047-.802-1.375-1.453-.492-1.472-.492-2.461c0-1.037.172-1.883.516-2.539.349-.662.828-1.151 1.437-1.469s1.302-.477 2.078-.477a5.68 5.68 0 0 1 1.235.133c.401.083.729.19.984.32l-.391 1.086a6.66 6.66 0 0 0-.906-.281 4.01 4.01 0 0 0-.953-.125c-.594 0-1.089.128-1.484.383s-.685.63-.883 1.125c-.193.495-.289 1.104-.289 1.828 0 .693.094 1.284.281 1.773.193.49.477.865.852 1.125.38.256.854.383 1.421.383.454 0 .862-.047 1.227-.14.365-.099.695-.214.992-.344v1.156a4 4 0 0 1-.961.336c-.349.078-.765.117-1.25.117zm11.625-4.453c0 .703-.091 1.331-.273 1.883a3.86 3.86 0 0 1-.789 1.398 3.43 3.43 0 0 1-1.25.875c-.485.198-1.034.297-1.649.297-.573 0-1.099-.099-1.578-.297a3.55 3.55 0 0 1-1.234-.875c-.344-.38-.612-.846-.805-1.398-.187-.552-.281-1.18-.281-1.883 0-.937.159-1.734.476-2.391s.771-1.164 1.36-1.507c.594-.349 1.299-.524 2.117-.524.781 0 1.464.175 2.047.524s1.044.854 1.367 1.515c.328.657.492 1.451.492 2.383zm-6.515 0c0 .688.091 1.284.273 1.789s.464.896.844 1.172.87.414 1.469.414c.593 0 1.08-.138 1.46-.414.386-.276.67-.667.852-1.172s.274-1.101.274-1.789c0-.682-.092-1.271-.274-1.765-.182-.5-.463-.886-.844-1.157s-.872-.406-1.476-.406c-.891 0-1.545.294-1.961.883s-.617 1.403-.617 2.445zm12.648-4.422c.172 0 .352.011.539.031s.354.04.5.071l-.164 1.203a3.55 3.55 0 0 0-.469-.086c-.172-.021-.333-.031-.484-.031-.344 0-.669.07-.977.211-.302.135-.567.333-.797.593s-.408.566-.539.93-.195.761-.195 1.203V376h-1.305v-8.562h1.079l.14 1.578h.055a4.21 4.21 0 0 1 .641-.868 2.89 2.89 0 0 1 .867-.632c.333-.157.703-.235 1.109-.235zm10.242 8.875c-.771 0-1.45-.159-2.039-.476s-1.047-.802-1.375-1.453-.492-1.472-.492-2.461c0-1.037.172-1.883.516-2.539.349-.662.828-1.151 1.437-1.469s1.302-.477 2.078-.477a5.68 5.68 0 0 1 1.235.133c.401.083.729.19.984.32l-.391 1.086a6.66 6.66 0 0 0-.906-.281 4.01 4.01 0 0 0-.953-.125c-.594 0-1.089.128-1.484.383s-.685.63-.883 1.125c-.193.495-.289 1.104-.289 1.828 0 .693.094 1.284.281 1.773.193.49.477.865.852 1.125.38.256.854.383 1.421.383.454 0 .862-.047 1.227-.14.365-.099.695-.214.992-.344v1.156a4 4 0 0 1-.961.336c-.349.078-.765.117-1.25.117zm7.446-8.859c1.02 0 1.778.229 2.273.687s.742 1.19.742 2.196V376h-.945l-.25-1.266h-.063c-.239.313-.489.576-.75.789a2.76 2.76 0 0 1-.906.477c-.338.104-.755.156-1.25.156-.521 0-.984-.091-1.391-.273a2.17 2.17 0 0 1-.953-.828c-.229-.37-.343-.839-.343-1.407 0-.854.338-1.51 1.015-1.968s1.709-.709 3.094-.75l1.477-.063v-.523c0-.74-.159-1.258-.477-1.555s-.766-.445-1.344-.445c-.448 0-.875.065-1.281.195a8.73 8.73 0 0 0-1.156.461l-.399-.984c.386-.198.828-.368 1.328-.508a5.79 5.79 0 0 1 1.579-.211zm1.734 4.484l-1.305.055c-1.067.042-1.82.216-2.258.523s-.656.743-.656 1.305c0 .49.149.852.445 1.086s.691.352 1.18.352c.761 0 1.383-.211 1.867-.633s.727-1.055.727-1.899v-.789zm5.258 4.219h-1.305v-12.156h1.305V376zm4.047 0h-1.305v-12.156h1.305V376zm-163.055 20.156c-.771 0-1.451-.159-2.039-.476s-1.047-.802-1.375-1.453-.492-1.472-.492-2.461c0-1.037.172-1.883.515-2.539.349-.662.828-1.151 1.438-1.469s1.302-.477 2.078-.477a5.67 5.67 0 0 1 1.234.133 3.98 3.98 0 0 1 .985.32l-.391 1.086a6.66 6.66 0 0 0-.906-.281c-.339-.083-.656-.125-.953-.125-.594 0-1.089.128-1.485.383-.39.255-.685.63-.883 1.125-.192.495-.289 1.104-.289 1.828 0 .693.094 1.284.282 1.773s.476.865.851 1.125.854.383 1.422.383c.453 0 .862-.047 1.227-.14a7.17 7.17 0 0 0 .992-.344v1.156c-.287.146-.607.258-.961.336s-.766.117-1.25.117zm11.625-4.453c0 .703-.091 1.331-.273 1.883s-.446 1.018-.79 1.398-.76.672-1.25.875c-.484.198-1.033.297-1.648.297-.573 0-1.099-.099-1.578-.297a3.54 3.54 0 0 1-1.234-.875c-.344-.38-.612-.846-.805-1.398s-.281-1.18-.281-1.883c0-.937.158-1.734.476-2.391s.771-1.164 1.36-1.507c.593-.349 1.299-.524 2.117-.524.781 0 1.463.175 2.047.524s1.044.854 1.367 1.515.492 1.451.492 2.383zm-6.516 0c0 .688.091 1.284.274 1.789s.463.896.843 1.172.87.414 1.469.414c.594 0 1.081-.138 1.461-.414.386-.276.669-.667.852-1.172s.273-1.101.273-1.789c0-.682-.091-1.271-.273-1.765-.183-.5-.464-.886-.844-1.157s-.872-.406-1.477-.406c-.89 0-1.544.294-1.961.883-.411.588-.617 1.403-.617 2.445zm18.055-4.422c.943 0 1.654.248 2.133.742s.719 1.279.719 2.368V396h-1.282v-5.547c0-.693-.151-1.211-.453-1.555-.297-.349-.739-.523-1.328-.523-.828 0-1.43.24-1.805.719s-.562 1.185-.562 2.117V396h-1.289v-5.547c0-.463-.068-.849-.203-1.156s-.328-.537-.594-.688c-.26-.156-.591-.234-.992-.234-.568 0-1.024.117-1.367.352s-.594.583-.75 1.046-.227 1.024-.227 1.696V396h-1.297v-8.562H195l.195 1.21h.071c.172-.296.388-.546.648-.75s.552-.356.875-.46.667-.157 1.031-.157c.651 0 1.196.123 1.633.367.443.24.763.607.961 1.102h.07c.282-.495.667-.862 1.157-1.102s1.026-.367 1.609-.367zm9.539 0c1.068 0 1.919.367 2.555 1.102s.953 1.838.953 3.312c0 .974-.146 1.792-.438 2.453s-.703 1.162-1.234 1.5-1.148.508-1.867.508c-.453 0-.852-.06-1.196-.179s-.638-.282-.882-.485a3.16 3.16 0 0 1-.61-.664h-.093l.054.734.039.75v3.516h-1.304v-12.39h1.07l.172 1.265h.062c.167-.26.37-.497.61-.711s.531-.39.875-.515c.349-.131.76-.196 1.234-.196zm-.227 1.094c-.593 0-1.072.115-1.437.344-.359.229-.622.573-.789 1.031-.167.453-.255 1.023-.266 1.711v.25c0 .724.078 1.336.235 1.836s.424.88.789 1.141c.37.26.864.39 1.484.39.531 0 .974-.143 1.328-.43s.617-.684.789-1.195c.177-.515.266-1.107.266-1.773 0-1.011-.198-1.813-.594-2.407-.39-.599-.992-.898-1.805-.898zm7.305 7.625h-1.305v-12.156h1.305V396zm6.039-8.719c.729 0 1.354.162 1.875.485s.92.776 1.196 1.359c.276.578.414 1.255.414 2.031v.805h-5.914c.015 1.005.265 1.771.75 2.297s1.166.789 2.046.789c.542 0 1.021-.05 1.438-.149s.849-.244 1.297-.437v1.141c-.432.192-.862.333-1.289.421s-.922.133-1.5.133c-.823 0-1.542-.166-2.157-.5a3.49 3.49 0 0 1-1.421-1.484c-.339-.651-.508-1.448-.508-2.391 0-.922.153-1.719.461-2.39.312-.677.75-1.198 1.312-1.563.568-.364 1.235-.547 2-.547zm-.015 1.063c-.693 0-1.245.226-1.657.679s-.656 1.086-.734 1.899h4.531c-.005-.511-.086-.958-.242-1.344-.151-.39-.383-.693-.695-.906-.313-.219-.714-.328-1.203-.328zm8.468 6.75c.214 0 .433-.018.657-.055s.406-.081.546-.133v1.008c-.151.068-.361.125-.632.172a4.48 4.48 0 0 1-.782.07c-.453 0-.864-.078-1.234-.234-.37-.162-.667-.432-.891-.813-.218-.38-.328-.906-.328-1.578v-5.078h-1.218v-.633l1.226-.508.516-1.859H233v1.985h2.508v1.015H233v5.039c0 .537.122.938.367 1.203.25.266.581.399.992.399zm6.235-7.813c.729 0 1.354.162 1.875.485s.919.776 1.195 1.359c.276.578.414 1.255.414 2.031v.805h-5.914c.016 1.005.266 1.771.75 2.297s1.167.789 2.047.789a6.24 6.24 0 0 0 1.437-.149c.417-.099.849-.244 1.297-.437v1.141c-.432.192-.862.333-1.289.421s-.922.133-1.5.133c-.823 0-1.541-.166-2.156-.5-.609-.338-1.083-.833-1.422-1.484s-.508-1.448-.508-2.391c0-.922.154-1.719.461-2.39.313-.677.75-1.198 1.313-1.563s1.234-.547 2-.547zm-.016 1.063c-.693 0-1.245.226-1.656.679s-.656 1.086-.734 1.899h4.531c-.005-.511-.086-.958-.242-1.344s-.383-.693-.696-.906c-.312-.219-.713-.328-1.203-.328zm8.75 7.812c-1.083 0-1.943-.37-2.578-1.109s-.945-1.839-.945-3.297c0-1.474.323-2.586.968-3.336s1.506-1.133 2.579-1.133c.453 0 .849.06 1.187.18a2.84 2.84 0 0 1 .875.484 2.92 2.92 0 0 1 .617.68h.094l-.063-.664-.031-.688v-3.429h1.297V396h-1.047l-.195-1.219h-.055c-.161.255-.367.487-.617.696-.245.208-.539.375-.883.5-.338.119-.739.179-1.203.179zm.203-1.078c.917 0 1.565-.26 1.946-.781s.57-1.294.57-2.32v-.235c0-1.088-.182-1.924-.547-2.508-.359-.583-1.016-.875-1.969-.875-.797 0-1.393.308-1.789.922s-.594 1.443-.594 2.5.196 1.865.586 2.438c.396.573.995.859 1.797.859z" fill="#e1e3fa"/><defs><linearGradient id="A" x1="215" y1="0" x2="215" y2="480" gradientUnits="userSpaceOnUse"><stop stop-color="#081b33"/><stop offset="1" stop-color="#121212"/></linearGradient></defs></svg>