<svg xmlns="http://www.w3.org/2000/svg" width="430" height="480" fill="none" xmlns:v="https://vecta.io/nano"><g clip-path="url(#A)"><g fill="#f8f8f8"><rect width="430" height="480" rx="12"/><path d="M0 0h430v76H0z"/></g><rect x="192.5" y="8" width="44" height="4" rx="2" fill="#dedede"/><path d="M309.024 189.513c1.947 9.683-2.041 19.458-4.392 28.7-1.006 3.956-.806 8.54-2.534 12.275l-.029.228-22.585-2.656-.015-.021c.935-.796 1.928-1.522 2.971-2.171 4.3-2.107 10.465.744 12.9-13.181 2.66-15.235-3.375-16.286-4.084-22-.526-4.243.614-8.314.271-13.067l.15-.007c5.225.711 16.067 5.538 17.347 11.9z" fill="#283897"/><g fill="#fff"><path d="M243.564 228c-1.328-.05-4.686-.409-2.885-2.185 1.719-1.694 4.821-1.251 6.991-1.578a12.97 12.97 0 0 0 5.734-2.463l.535-.315-.243-.628c-.736-.569-1.359-1.271-1.835-2.071a1.14 1.14 0 0 0 .586-.185 15.71 15.71 0 0 1 5.948-1.157c4.392.029 6.3 2.774 11.525 2.271l.314-.229c.035.036.064.071.093.1a19.87 19.87 0 0 1 3.87 6.641 12.18 12.18 0 0 0 .771 1.806 19 19 0 0 1-5.77 2.114c-1.935.293-3.891.187-5.819.542-3.708.684-5.979 2.538-10.354 1.229-.3-.09-.821-.429-1.192-.507l.028-.307a12.32 12.32 0 0 1-3.256-.85c-.142-.058-.657-.443-.749-.443l.042-.335c-.392-.05-.785-.123-1.178-.208a17.9 17.9 0 0 1-2.492-.578 1.37 1.37 0 0 1-.664-.421V228z"/><path d="M251.834 231.387c.371.078.893.417 1.192.507 4.375 1.309 6.645-.545 10.354-1.229 1.928-.355 3.884-.249 5.819-.542v.014c5.541.371-6.589 5.7-9.961 7.062-2.787 1.117-5.544 2.308-8.268 3.57-1.949.909-4.049 2.133-6.277 2.035-2.813-.124-5.684-1.492-8.361-2.285l-2.321-.678c-.093-.027-.65-.271-.75-.214l-.257-.322c4.178-3.334 8.3-6.733 12.339-10.239l.022-.086c.288.064 2.031.407 2.534.472l-.042.335c.092 0 .607.385.749.443a12.39 12.39 0 0 0 3.256.85l-.028.307z"/></g><path d="M291.248 190.686c-.512-4.126.556-7.946.271-13.067-.37-6.68-3.568-13.59-9.646-16.336-3.8-1.719-6.678-.935-13.075-3.371-1.757-.67-2.114-.921-2.534-1.072l-.015-.006-.028-.022c-1.156 1.376-.763 4.147-2.742 6.106-.454.455-1.058.728-1.7.769l1.007.101a48.49 48.49 0 0 1-2.449 10.576c-.455 1.285-1.05 3.162-2.292 3.919-.714.435-1.178-.063-1.514-.699a28.02 28.02 0 0 0-1.556-2.956l-.05.036c-.143-.114-.045.378-.057.57-.854 12.731-4.389 28.972-2.421 43.344a15.67 15.67 0 0 1 5.948-1.157c4.288.028 6.368 2.768 11.525 2.271l.314-.23c1.755 1.961 3.103 4.252 3.965 6.739a14 14 0 0 0 .771 1.806c.144.291.352.547.607.749s.553.343.871.415a4.29 4.29 0 0 0 3.02-1.136 24.29 24.29 0 0 1 2.971-2.17c4.322-2.117 10.462.757 12.9-13.181 2.651-15.223-3.382-16.284-4.091-21.998z" fill="#e7e9f7"/><path d="M240.53 207.534c2.931-.037 4 1.657 5.606 3.928l5.726 7.3c.476.8 1.098 1.503 1.835 2.071l.243.628-.535.315c-1.682 1.275-3.651 2.121-5.734 2.463-2.17.327-5.272-.116-6.991 1.578-1.8 1.776 1.557 2.135 2.885 2.185v.243a1.36 1.36 0 0 0 .664.421l-.078.207c-2.688.638-5.463.824-8.212.55-3.862-.377-8.3-.63-11.853-2.356-2.026-1.138-3.851-2.602-5.4-4.335-3.64-3.655-7.084-7.118-10.254-9.718-2.868-2.352-6.566-3.775-8.9-6.719-.552-.7-1.823-1.92-1.6-2.913.2-.906 1.57-1.145 2.313-1.264 4.884-.786 12.286 1.873 23.749 3.656a37.16 37.16 0 0 0 11.325.407c1.52-.236 3.093-.857 4.427.171a4.14 4.14 0 0 1 .764.75l.02.432z" fill="#283897"/><path d="M245.341 229.065c-4.994 4.332-10.51 8.828-15.666 12.881-1.356 1.066-3.028 2.849-4.763 3.235-1.42.22-2.424-.524-3.027-.6.007-.007.007-.021.014-.036.478-1.313-2.251-2.424-3.063-2.827-.129-.064-1.093-.4-1.093-.586.007-.121.557-.028.614-.028 3.516.458 6.766 1.61 8.29.185.543-.507.086-1.156-.371-1.528-1.101-.758-2.353-1.269-3.67-1.5-1.257-.307-2.533-.519-3.806-.707-.207-.031-1.071-.043-1.207-.229.917-.054 1.836-.038 2.749.05 1.762.297 3.551.395 5.334.293.615-.089 1.528-.343 1.521-1.121s-.928-1.271-1.528-1.549a17.38 17.38 0 0 0-5.777-1.186c-.969-.027-1.935-.123-2.891-.285.057-.193 1.621-.164 1.792-.172a22.83 22.83 0 0 0 5.527-.442c.58-.174 1.629-.716 1.035-1.45-1.147-1.416-3.842-1.341-5.448-1.278a29.26 29.26 0 0 0-18.216 7.762l-.085-.093c-.111.129-4.886-1.927-10.554-3.356-.6-.151-2.076-.429-2.056-1.293.016-.721.98-1.223 1.521-1.492 1.789-.848 3.633-1.576 5.519-2.178 4.413-1.5 8.762-3.178 13.132-4.805 3.235-1.206 5.919-2.707 9.382-1.871l.136-.129a20.93 20.93 0 0 0 5.4 4.335c3.553 1.726 7.991 1.979 11.853 2.356 2.749.274 5.524.088 8.212-.55l.078-.207c1.236.435 1.16.209 1.112.401z" fill="#e7e9f7"/><g fill="#fff"><path d="M244.822 152.39c.314.257.156.677.007.985-.331.684-.907 1.55-1.714 1.685-.518.05-1.039-.037-1.514-.25a18.99 18.99 0 0 1-3.613-2.456c.241-.039.485-.055.729-.05a26.03 26.03 0 0 1 4.848-.229c.441-.02.878.09 1.257.316v-.001zm10.119 22.188c.011.018.024.031.035.05-.011-.019-.024-.028-.035-.05z"/><path d="M261.782 163.688a1.7 1.7 0 0 1-1.456-.857c-.286-.436-.564-1.565-1.25-1.492-.947.1-1.575 1.434-3.82 3.127-.045.48-.155.95-.328 1.4-2.1 6.67-6.96 9.412-9.769 14.345l-.071-.05c-.95-.478-1.793-2.221-2.321-3.306a17.36 17.36 0 0 1-1.588-7.44c.028-2.567.624-5.096 1.746-7.405l.513-.114c-.14-.334-.292-.663-.456-.986-.078-.15-.386-.492-.329-.492l.014-.115c-1.005-.101-1.961-.479-2.763-1.092a4.2 4.2 0 0 1-1.678 1.306l.6.036c-1.59 3.681-2.819 7.507-3.67 11.425-.159.768-.549 2.077-.207 2.842.236.528 1.092-.521 1.242-.686a8.14 8.14 0 0 1 2.963-2.485l.172.565c-2.094 8.4-.9 25.6.621 33.888l-.193.25c.289.213.546.465.764.75l.014.435c2.9-.036 3.958 1.6 5.606 3.928 2.5 3.543 5 6.284 5.726 7.3a1.14 1.14 0 0 0 .586-.185c-1.866-13.63 1.086-27.656 2.493-44a28.86 28.86 0 0 1 1.591 3c.336.636.8 1.135 1.514.7 1.242-.757 1.837-2.634 2.292-3.92 1.21-3.422 2.031-6.969 2.449-10.575l-1.007-.097z"/><path d="M252.19 164.143a5.9 5.9 0 0 1-.322-2.857c.129-.964.495-1.881 1.065-2.67a10.61 10.61 0 0 0 1.485-2.863c.373-2.27-.066-2.874.185-4.963.56-4.667 1.622-9.114.307-13.9a18.95 18.95 0 0 0-7.4-10.49c-.919-.611-1.973-.989-3.07-1.102a6.79 6.79 0 0 0-3.23.453c-5.373-.545-9.131 2.605-9.79 6.82-.338 2.587-.379 5.204-.121 7.8.155 3.524-1.663 6.555 1.371 11.281 1.382 1.844 2.934 3.556 4.634 5.113.802.88 1.669 1.698 2.592 2.45a5.37 5.37 0 0 0 2.682 1.077 7.26 7.26 0 0 1 .852 1.607l-.513.114c-1.123 2.309-1.719 4.838-1.746 7.405s.515 5.108 1.588 7.44c1.633 3.357 2.263 3.2 2.392 3.356 2.907-5.105 7.664-7.644 9.769-14.345.173-.45.283-.92.328-1.4-1.116.752-2.328 1.08-3.058-.326zm-14.2-11.789c.241-.039.485-.056.729-.05 1.605-.227 3.228-.304 4.848-.229a2.26 2.26 0 0 1 1.257.315c.314.257.156.677.007.985-.331.684-.907 1.55-1.714 1.685-.518.05-1.04-.036-1.514-.25-1.297-.676-2.51-1.5-3.616-2.456h.003z"/></g><path d="M239.326 172.212l-.172-.565c-1.175.575-2.192 1.428-2.963 2.485-.15.165-1.006 1.214-1.242.686-.342-.765.048-2.074.207-2.842.851-3.918 2.08-7.744 3.67-11.425l-.6-.036c-2.713 1.326-3.17-.457-4.313-.342-.664.066-1.136 1.134-1.692 1.45-.574.405-1.267.608-1.968.576a3.17 3.17 0 0 1-1.909-.748 3.34 3.34 0 0 1-.372.057c-2.225.81-5.692 4.4-7.055 9.254-1.632 5.819-.324 12.253-1.271 18.23-.794 5.019-3.627 9.561-3.263 14.78l-.121.586c2.571.528 5.144 1.01 7.74 1.414a37.16 37.16 0 0 0 11.325.407c1.4-.217 3.142-.866 4.427.171l.193-.25c-1.524-8.314-2.709-25.516-.621-33.888z" fill="#e7e9f7"/><path d="M267.721 150.542c-.823-1.583-1.371-3.295-1.62-5.061-.272-3.435.409-6.878.085-10.325-.529-5.637-2.843-10.958-6.605-15.188-2.056-2.282-4.82-3.806-7.847-4.327-3.649-.655-6.12.642-9.3 1.878a7.46 7.46 0 0 1-2.385.228c-6.61.385-12.755 7.649-14.338 14.68-1.3 5.777 1.345 10.587 1.849 16.388.487 5.605-1.4 8.629-.036 11.289a5.9 5.9 0 0 0 .822 1.35 3.16 3.16 0 0 0 3.877.17c.556-.314 1.028-1.382 1.692-1.448.81-.081 1.392.813 2.164.792a4.91 4.91 0 0 0 2.008-.387 4.92 4.92 0 0 0 1.676-1.169c.3-.424.3.258-2.449-2.65-2.419-2.56-5.949-5.11-6.373-10.141-.167-1.978.455-4.29.368-6.253-.258-2.596-.217-5.213.121-7.8.659-4.215 4.418-7.364 9.79-6.82a6.8 6.8 0 0 1 6.3.65c2.268 1.58 4.158 3.642 5.535 6.038a18.75 18.75 0 0 1 2.434 7.822c.364 4.824-1.129 9.579-.936 12.73a12.36 12.36 0 0 1-.128 2.765 10.61 10.61 0 0 1-1.485 2.863 5.91 5.91 0 0 0-1.065 2.67 5.9 5.9 0 0 0 .322 2.857c.73 1.406 1.942 1.078 3.063.32 2.248-1.694 2.871-3.026 3.82-3.126.685-.073.964 1.056 1.25 1.492.148.257.359.471.615.621s.545.231.841.236c.642-.042 1.246-.316 1.7-.771 1.88-1.861 1.473-4.095 2.663-6 .713-1.14 2.162-1.217 2.442-2.707.081-1.281-.222-2.557-.87-3.665v-.001z" fill="#2a295c"/><g fill="#fff"><path d="M227.2 236.55c0 .778-.905 1.032-1.52 1.121-1.784.101-3.573.002-5.334-.293-.914-.09-1.833-.106-2.749-.05.136.186 1 .2 1.207.229l3.806.707c1.317.229 2.569.74 3.669 1.5.457.372.915 1.021.372 1.528-1.515 1.416-4.706.282-8.29-.185-.057 0-.607-.093-.614.028 0 .186.963.522 1.092.586.812.4 3.542 1.514 3.064 2.827-.007.015-.007.029-.014.036-.337.786-1.457.88-2.157.793-1.871-.233-3.471-1.335-5.42-.943-4.092.823-8.454 4.335-12.717 2.528l-.464.093a21.22 21.22 0 0 1-.8-5.184 7.45 7.45 0 0 0-.143-2.278l.085-.029c-.114-.107.937-1.134 1-1.2a26.07 26.07 0 0 1 4.463-3.542c4.227-2.78 9.12-4.38 14.173-4.634 1.606-.063 4.301-.138 5.449 1.278.594.734-.456 1.276-1.036 1.45-1.817.369-3.673.518-5.527.442-.171.008-1.735-.021-1.792.172 1.452.4 4.7-.08 8.668 1.471.6.278 1.529.771 1.529 1.549z"/><path d="M163.992 184.832a30.08 30.08 0 0 1 4.455 3.042 27.73 27.73 0 0 1 9.39 19.029c.308 5.1-1.236 9.937-1.614 15.266-.2 2.828 1.17 6.143.472 9.818-.957 5.037-2.416 6.314-2.635 9.219l.393.021c1.065-.149 2.11-.42 3.113-.807a31.4 31.4 0 0 1 6.855-1.414c1.176-.085 2.356.1 3.448.543 1.065.421 1.921 1.008 3.121.843 2.635-.363 5.3-2.121 8.033-1.678.258.021.504.114.71.27a1.35 1.35 0 0 1 .454.608 7.42 7.42 0 0 1 .143 2.278c.103 2.346.538 4.666 1.292 6.89.3.949.866 2.23.071 3.078-1.888 2.017-5.284 1.384-7.547 2.62-1.528.835-2.378 2.421-4.006 3.228-2.906 1.441-6.234 1.983-9.347 2.849-6.292 1.752-12 3.61-18.586 2.67-1.931-.289-3.876-.47-5.827-.542-1.842-.055-4.02.044-5.405-1.393a5.3 5.3 0 0 1-1.22-2.049c-2.358.971-5.694 1.218-8.19 1.4-4.332.36-8.691.132-12.96-.679-2.463-.494-5.757-1.435-7.063-3.834-1.015-1.864.016-3.725.535-5.563 1.806-6.393-3.3-10.841-1.742-36.08.488-7.884 1.471-16.343 3.856-23.9a6.31 6.31 0 0 1 .6-1.75c1.8.393 3.992-.39 5.5-1.107.643-.306 1.944-1.355 2.706-1.135 1.09.314.182 4.117 1.785 5.634 1.284 1.215 3.187-.2 4.17-1.114.208-.192.887-1.089 1.243-.943.458.189.748 1.444.964 1.843.821 1.517 2.242 3.284 4.141 3.3 1.785.013.885-2.48.978-3.521.34-3.765 6.513-5.818 7.541-11.532.374-2.154.472-4.347.292-6.526l.193-.007c2.206.316 4.249 1.341 5.82 2.92a14.51 14.51 0 0 1 4.07 7.869l-.202.336z"/><path d="M197.224 216.602c.252.669-.829 1.123-1.506 1.357-1.323.457-5.892 1.341-5.8 1.649.05.178 1.621.092 1.771.093a11.97 11.97 0 0 1 4.27.771c.409.158 1.166.464 1.249.978.111.692-1.186.891-1.628.971-1.422.259-2.872.348-4.306.507-.35.039-1.39-.033-1.656.257a7.15 7.15 0 0 0 1.721.429c.75.167 4.015.8 3.456 2.17-.3.742-1.457.978-2.143 1.107-2.085.392-4.291 0-6.319.65-3.435 1.1-5.855 4.963-9.647 5.141l-.121-.028c.974-4.454-.558-7.348-.336-10.49.072-1.007.186-2.006.322-3.006l.078.007a35.89 35.89 0 0 1 4.7-3.52c3.241-2.049 8.361-5.062 12.4-4.084 1.535.371 1.08 1.559.05 2.256-1.44.975-3.217 1.271-4.763 2.028-.221.108-.992.526-.785.514a9.28 9.28 0 0 0 1.935-.35 12.62 12.62 0 0 1 5.262-.314c.573.09 1.56.279 1.796.907z"/></g><path d="M176.299 137.537c-4.4 7.784-16.489 16.393-20.206 22.293-4.167 6.615-.935 12.938-2.277 20.407-1.029 5.723-7.2 7.775-7.541 11.532-.093 1.041.807 3.534-.978 3.521-1.9-.015-3.32-1.782-4.141-3.3-.216-.4-.506-1.654-.964-1.843-.356-.146-1.035.751-1.243.943-.983.91-2.886 2.329-4.17 1.114-.965-.913-1.007-2.657-1.157-3.885-.054-.45-.048-1.582-.628-1.749-.762-.22-2.063.829-2.706 1.135-2.2 1.046-5.283 1.933-7.1.315-2.174-1.931.477-5.113.971-7.212.655-2.785-.205-5.727.307-8.555.653-3.605 2.692-6.69 4.07-10.025 2.034-4.92 1.51-10.067 2.192-15.23 1.054-7.969 5.318-15.849 12.453-19.915a24.38 24.38 0 0 1 18.394-2.464c2.922.79 5.455 2.694 8.4 3.356 1.593.358 3.129-.1 4.727-.05 1.725.079 3.39.657 4.792 1.664 5.133 3.6 5.246 11.313 3.391 16.652-.818 2.323-2.216 4.397-4.062 6.026l-.158.057c-1.507-3.71 1.313-5.55.393-10.8a5.89 5.89 0 0 0-.867-2.21 5.9 5.9 0 0 0-1.668-1.69l-.224-.087z" fill="#2a295c"/><path d="M180.02 154.698c.405.546 1.156 1.349.864 2.092-.491 1.253-2.212 1.475-3.085 2.442-.637.706-.542 1.914-1.57 2.278-.807.286-2.667-.4-3.185.3-.744 1.011 1.064 2.678 1.107 3.692.024.592-.886 1.063-1.207 1.492-.872 1.163-1 2.906-2.221 3.813-1.885 1.4-3.927-.136-5.884.228s-4.034 3.928-4.719 5.591c-1.568-1.583-3.613-2.609-5.82-2.92l-.193.007c-.214-4.741-.816-9.434 1.985-13.881 3.717-5.9 15.8-14.509 20.208-22.293l.221.086c.665.444 1.233 1.019 1.669 1.69s.73 1.422.866 2.21c1.09 6.222-3.097 7.69.964 13.173z" fill="#fff"/><g fill="#2a295c"><path d="M178.872 158.801c1.206 1.9.321 4.27-.029 5.362-.992 3.092-3.535 5.59-4.192 8.776-.664 3.227 2.665 5.448 2.621 8.661-.017 1.228-.55 3.278-1.956 3.621-1.114.271-2.07-.841-2.607-1.657-.088-.134-.55-.965-.807-.793-.37.249-.542 1.257-.735 1.65a3.94 3.94 0 0 1-2.97 2.449l-.393.471c-1.212-.924-2.486-1.764-3.813-2.513l.2-.336c-.497-2.985-1.921-5.738-4.07-7.869.685-1.663 2.763-5.22 4.72-5.591s4 1.172 5.883-.228c1.221-.907 1.35-2.65 2.221-3.813.321-.43 1.231-.9 1.207-1.492-.043-1.014-1.85-2.681-1.107-3.692.518-.7 2.378-.014 3.185-.3 1.028-.364.933-1.572 1.57-2.278.165-.18.352-.338.557-.471l.515.043zm76.397-19.029l-2.982.159c-.622-5.161-10-4.96-11.386-.27-.477-.358-1.051-.564-1.646-.591s-1.186.124-1.695.436l-.007-.02c-1.134-2.531-4.213-2.978-6.535-2.113-1.057.377-1.938 1.13-2.477 2.115a4.58 4.58 0 0 0-.443 3.228c.326 1.547 1.23 2.911 2.527 3.814a4.15 4.15 0 0 0 2.625.73 4.14 4.14 0 0 0 2.511-1.057 6.79 6.79 0 0 0 2.056-5.591c.151-.187.343-.334.563-.43s.458-.137.696-.12a2.15 2.15 0 0 1 .862.184c.271.121.515.296.714.516a.52.52 0 0 0 .094.082c.062.975.362 1.92.875 2.751s1.223 1.524 2.067 2.016c.92.57 1.989.852 3.07.811a5.43 5.43 0 0 0 2.998-1.041 6.84 6.84 0 0 0 2.5-4.448c.774-.056 2.371-.083 3.125-.17.132-.016.253-.083.335-.187a.5.5 0 0 0-.45-.808l.003.004zm-20.192 5.7c-2 1.872-5.244.358-6-2.981-.197-.857-.073-1.757.35-2.528s1.115-1.361 1.943-1.655c2.625-.98 5.015.19 5.429 2.038.149.93.069 1.882-.23 2.775a5.84 5.84 0 0 1-1.492 2.353v-.002zm14.074-.884c-3.911 2.805-8.8-1.968-7.05-5.235.721-1.35 2.634-2.256 4.767-2.256 3.037 0 4.492 1.752 4.445 3.313a5.85 5.85 0 0 1-.641 2.317 5.86 5.86 0 0 1-1.521 1.863v-.002zm-18.328-9.084c-.066-.462.374-.772.871-1.076a4.55 4.55 0 0 1 3.294-.674.5.5 0 0 1 .382.574.5.5 0 0 1-.552.412 3.46 3.46 0 0 0-2.518.49 4.02 4.02 0 0 0-.5.338.5.5 0 0 1-.515.366.49.49 0 0 1-.307-.133c-.085-.078-.139-.183-.155-.297z"/></g><g fill="#283897"><path d="M158.439 197.008c.266-.166.587-.22.892-.15a1.18 1.18 0 0 1 .736.525l4.714 7.532a1.18 1.18 0 0 1 .153.65 1.19 1.19 0 0 1-.224.629 1.18 1.18 0 0 1-.529.407 1.19 1.19 0 0 1-.666.056 1.18 1.18 0 0 1-.734-.489l-4.713-7.532c-.082-.132-.138-.278-.164-.431a1.17 1.17 0 0 1 .012-.46 1.2 1.2 0 0 1 .188-.421c.09-.126.204-.234.335-.316zm-33.569-.495c.128-.285.365-.508.658-.62.145-.055.299-.081.454-.076a1.19 1.19 0 0 1 .45.104l8.1 3.651a1.16 1.16 0 0 1 .376.267 1.17 1.17 0 0 1 .244.391c.082.219.098.457.045.684a1.19 1.19 0 0 1-.342.595c-.17.16-.384.266-.614.304s-.467.009-.68-.087l-8.1-3.651a1.18 1.18 0 0 1-.591-1.562zm22.955 9.985a1.18 1.18 0 0 1 .549.717c.081.302.039.624-.117.896l-4.442 7.7c-.159.267-.416.46-.717.539a1.18 1.18 0 0 1-1.438-.831c-.083-.299-.044-.619.108-.89l4.443-7.695a1.17 1.17 0 0 1 .499-.473c.21-.104.446-.142.678-.11a1.19 1.19 0 0 1 .437.147zm9.501-29.471c.153.021.301.072.435.15a1.18 1.18 0 0 1 .345.307c.094.123.162.264.202.414s.048.307.027.461l-1.213 8.8a1.18 1.18 0 0 1-2.099.533c-.19-.243-.276-.55-.242-.856l1.214-8.8a1.18 1.18 0 0 1 .287-.623c.155-.175.358-.3.584-.359a1.19 1.19 0 0 1 .46-.027zM120.05 220.46l5.36-2.1a1.17 1.17 0 0 1 .454-.082c.155.002.308.036.45.099a1.19 1.19 0 0 1 .627.652c.113.292.107.617-.019.904s-.36.512-.651.627l-6.267 2.453.046-2.553zm15.289 3.771c.271-.155.593-.197.896-.116s.56.278.718.548l4.443 7.695a1.19 1.19 0 0 1 .155.668c-.015.233-.099.457-.24.642a1.19 1.19 0 0 1-.558.399c-.221.075-.459.084-.685.024a1.18 1.18 0 0 1-.718-.551l-4.443-7.7c-.156-.27-.198-.592-.117-.893s.279-.559.549-.716zm42.527-15.407l-3.784 2.37c-.199.138-.434.213-.676.214s-.478-.071-.677-.208a1.18 1.18 0 0 1 .099-2.006l4.953-3.1.085 2.73zm-9.45 54.486l-2.656-5.569c-.067-.14-.106-.292-.114-.447a1.18 1.18 0 0 1 .671-1.128c.14-.067.292-.105.447-.114a1.18 1.18 0 0 1 .852.302 1.19 1.19 0 0 1 .276.369l2.989 6.268-2.465.319zm32.332-17.841l-5.061 1.981a1.18 1.18 0 0 1-1.514-1.573c.126-.287.36-.512.652-.627l5.57-2.18.353 2.399zm-42.471-19.079a1.19 1.19 0 0 1-.045-.459 1.18 1.18 0 0 1 .262-.633c.149-.181.347-.313.571-.381l8.505-2.574a1.18 1.18 0 0 1 1.443.798c.089.295.06.613-.082.887a1.18 1.18 0 0 1-.677.577l-8.505 2.573a1.18 1.18 0 0 1-1.472-.788zm-12.858 28.074c.068.224.068.462.001.686a1.18 1.18 0 0 1-.382.57c-.12.098-.259.172-.407.217l-8.5 2.577c-.148.045-.304.06-.459.045a1.18 1.18 0 0 1-1.065-1.06c-.027-.272.043-.546.195-.773a1.18 1.18 0 0 1 .644-.473l8.5-2.577a1.17 1.17 0 0 1 1.093.217c.18.148.313.347.38.571zm-10.363-8.742a1.19 1.19 0 0 1-.718.55c-.303.081-.625.039-.896-.117l-7.695-4.443c-.271-.157-.469-.415-.55-.717s-.039-.625.117-.897a1.17 1.17 0 0 1 .303-.346 1.18 1.18 0 0 1 .414-.204 1.19 1.19 0 0 1 .897.118l7.7 4.443c.134.078.251.182.345.305a1.18 1.18 0 0 1 .203.413 1.17 1.17 0 0 1 .029.46c-.021.153-.072.301-.149.435zm20.739 4.048c-.154-.021-.302-.072-.436-.15a1.16 1.16 0 0 1-.344-.307 1.15 1.15 0 0 1-.203-.414c-.04-.151-.049-.307-.027-.461l1.214-8.8a1.18 1.18 0 0 1 .465-.759c.248-.183.557-.262.863-.219a1.18 1.18 0 0 1 .771.444c.189.243.276.551.242.857l-1.214 8.8a1.17 1.17 0 0 1-.151.436c-.078.134-.182.251-.305.345a1.17 1.17 0 0 1-.415.201 1.19 1.19 0 0 1-.46.027zm21.378 3.631a1.18 1.18 0 0 1-.516-.451 1.19 1.19 0 0 1-.18-.662c.005-.155.04-.307.104-.449l3.651-8.1c.063-.141.154-.269.267-.376a1.19 1.19 0 0 1 .392-.244c.145-.054.3-.08.454-.076.313.012.608.146.823.374a1.19 1.19 0 0 1 .321.844 1.18 1.18 0 0 1-.103.449l-3.651 8.1c-.129.285-.366.508-.659.619a1.18 1.18 0 0 1-.903-.028z"/></g><path d="M197.799 112.76l-5.655-2.749.071-.157c-.336-.643-.86-1.468-.464-2.028.281-.4 8.976-3.234 11.118-3.892 1.021-.313 3.262-1.242 3.7-.678 1.134 1.465 4.19 9.961 5.113 13.688.372 1.5 1.108 3.44.628 4.913-.38 1.17-1.686 1.7-2.756 2.085-2.515.895-5.183 1.47-7.762 2.171-1.056.287-2.616.867-3.6.1a5.84 5.84 0 0 1-1.443-2.906c-.608-1.914-1.485-4.07-2.22-6.413l.028-.214c1.912.909 3.877 1.703 5.884 2.378.857.178 3.52-.065 3.592-.47.14-.787-1.014-2.693-1.77-3.3a41.02 41.02 0 0 0-4.464-2.528z" fill="#e7e9f7"/><path d="M197.798 112.762c1.539.749 3.03 1.593 4.463 2.528.757.608 1.911 2.514 1.771 3.3-.073.407-2.735.65-3.592.471-3.89-1.458-7.701-3.119-11.418-4.977-.085.15 1.71-4.621 2.471-4.355.648.224 5.681 2.724 6.305 3.033z" fill="#283897"/><g fill="#2a295c"><path d="M227.057 148.856c.483 5.545-1.434 8.64 0 11.45a6.13 6.13 0 0 0 .942 1.508 3.65 3.65 0 0 0 4.468.244c.309-.205.58-.462.8-.76.615-.736.691-.81 1.509-.308.221.142.456.262.7.358-2.028 4.227-3.573 8.669-4.606 13.242a49.26 49.26 0 0 0-.69 5.959c-.143 1.125.064 2.268.593 3.272a3.7 3.7 0 0 0 1.208.935c.464.223.969.348 1.483.365a9.29 9.29 0 0 1 1.213.262c.057.708-1.834 1.631-2.758 4.585-1 4.169 2.808 10.042 5.027 13.727a.52.52 0 0 0 .131.145c.053.039.113.068.177.084a.5.5 0 0 0 .379-.058.51.51 0 0 0 .146-.131c.039-.053.067-.113.083-.177s.019-.13.009-.195a.48.48 0 0 0-.067-.184c-2.054-3.419-5.809-9.223-4.922-12.945.884-2.818 2.9-3.567 2.792-4.931-.064-.8-.97-.969-1.405-1.051l-.107-.021c-.961-.191-2.056-.237-2.565-.977a4.7 4.7 0 0 1-.42-2.627 47.78 47.78 0 0 1 .679-5.866c1.036-4.584 2.593-9.033 4.643-13.261.007-.014.006-.03.012-.044a5.22 5.22 0 0 0 1.546-.337c-1.504 3.593-2.669 7.319-3.479 11.13a4.84 4.84 0 0 0-.092 2.775.74.74 0 0 0 .219.289c.096.076.21.127.331.147 1.294.168 2.72-3.454 4.991-3.454.066 0 .131-.012.192-.037s.116-.061.163-.108a.49.49 0 0 0 .109-.161c.026-.061.039-.126.039-.191a.51.51 0 0 0-.037-.192.49.49 0 0 0-.107-.163c-.046-.046-.101-.084-.162-.109a.48.48 0 0 0-.191-.039c-2.348.041-3.687 2.4-4.712 3.31a8.1 8.1 0 0 1 .318-2.237 63.34 63.34 0 0 1 3.642-11.332c.035-.091.043-.19.021-.284a4.89 4.89 0 0 0 .685-.592 5.89 5.89 0 0 0 2.259.866c.07.116.273.381.285.4.07.136.128.278.193.416-.113.045-.205.131-.258.241-1.155 2.38-1.768 4.988-1.793 7.634a17.86 17.86 0 0 0 1.65 7.666c.497 1.233 1.242 2.351 2.187 3.286-.42.779-.762 1.598-1.021 2.444a.51.51 0 0 0-.019.194.51.51 0 0 0 .058.187.49.49 0 0 0 .125.15c.051.042.11.072.173.091s.129.025.195.019.129-.026.187-.058a.49.49 0 0 0 .15-.125c.041-.051.072-.11.09-.173 1.882-6.348 8.476-9.2 10.941-17.064a5.77 5.77 0 0 0 .317-1.3c2.046-1.582 2.767-2.837 3.416-2.907.249.026.562.938.764 1.244.197.335.477.613.813.808a2.24 2.24 0 0 0 1.106.299c.143-.011.285-.032.425-.064-.435 3.518-1.257 6.978-2.453 10.316-.414 1.181-.981 2.8-2 3.417-.7.43-.679-.7-2.384-3.49a7.58 7.58 0 0 0-2.208-2.316c-.109-.068-.241-.091-.367-.064a.5.5 0 0 0-.39.572c.021.127.09.241.193.319a6.56 6.56 0 0 1 1.919 2.01 26.98 26.98 0 0 1 1.541 2.93c.64 1.211 1.474 1.345 2.216.893 1.361-.83 1.982-2.7 2.5-4.18 1.22-3.459 2.05-7.043 2.475-10.685a.46.46 0 0 0-.012-.139c.362-.22.674-.513.916-.86.062 3.465.445 2.658-.38 14.771a19.05 19.05 0 0 1-.964 5.715c-1.031 2.574-3.877 2.277-6.476 2.526-.256.018-.934.064-1.023.662-.107.718.8 1.361 1.9 2.068.545.35.214.162 1.382.929 1.462.96 3.118 2.049 3.5 3.614.44 1.813-.6 3.91-1.476 5.68-1.893 3.822-4.112 7.539-6.133 11.3a.5.5 0 0 0 .881.473c2.059-3.835 4.216-7.432 6.19-11.417.907-1.832 2.036-4.11 1.51-6.276-.581-2.39-3.193-3.644-4.978-4.928-.2-.144-1.078-.671-1.607-1.117 2.4-.24 5.963.085 7.256-3.147a19.76 19.76 0 0 0 1.032-6.02c.221-3.237.5-6.719.531-10.778.013-1.872-.254-3.789-.115-5.577a.5.5 0 0 0-.026-.2c.344-1.353.804-2.674 1.375-3.948.051-.085.075-.183.071-.281a.51.51 0 0 0-.093-.274c-.038-.054-.086-.099-.142-.133a.47.47 0 0 0-.184-.067.5.5 0 0 0-.287.039c-.09.041-.166.108-.218.193-1.259 2.053-.84 4.172-2.589 5.9-.357.363-.832.585-1.34.627a1.23 1.23 0 0 1-.607-.177 1.22 1.22 0 0 1-.439-.455c-.27-.41-.623-1.848-1.721-1.715-1.154.124-1.672 1.34-3.812 3.026a.49.49 0 0 0-.253.09.5.5 0 0 0-.17.21c-1.216.75-1.767.491-2.151-.25a5.43 5.43 0 0 1-.265-2.59c.123-.872.456-1.702.97-2.416.683-.936 1.213-1.973 1.572-3.073.145-.906.193-1.825.142-2.74a.5.5 0 0 0 .03-.195.5.5 0 0 0-.05-.19c-.118-2.812 1.3-7.8.947-12.489a19.24 19.24 0 0 0-2.492-8.027 19.26 19.26 0 0 0-5.675-6.201c-.925-.64-1.991-1.047-3.107-1.186s-2.25-.007-3.304.386c-.1.031-.173.057-.123.065-5.554-.572-9.621 2.684-10.334 7.24a36.23 36.23 0 0 0-.126 7.9c.081 1.861-.43 3.657-.4 5.745a11.63 11.63 0 0 0 1.849 5.785 22.78 22.78 0 0 0 3.317 3.8c1.906 1.883 2.356 2.491 3.607 3.544-.419.407-.917.723-1.463.93s-1.129.298-1.713.27c-.581-.073-1.176-.885-2.142-.787-.94.093-1.426 1.252-1.889 1.512-.6.34-2.119 1.008-3.259-.067-.3-.383-.551-.801-.747-1.246-.721-1.408-.412-3.149-.186-4.744a27.52 27.52 0 0 0-.8-12.228c-.925-3.756-1.57-6.9-.79-10.367 1.363-6.057 5.722-11.525 10.846-13.607.948-.386 1.951-.617 2.971-.685a8 8 0 0 0 2.55-.25.5.5 0 0 0 .124-.916c-.114-.067-.25-.086-.379-.052-.745.196-1.517.268-2.286.213-1.151.066-2.283.323-3.351.758-5.414 2.2-10.014 7.951-11.446 14.313-1.365 6.062 1.323 10.597 1.839 16.54zm26.885 6.743c-.328.976-.805 1.896-1.416 2.727-2.241 3.137-1.3 8.39 2.015 7.086-1.266 4.03-2.938 6.036-5.681 9.16-1.418 1.534-2.706 3.184-3.848 4.934a10.52 10.52 0 0 1-1.8-2.871c-1.008-2.19-1.533-4.572-1.538-6.983a16.8 16.8 0 0 1 1.507-6.99 16.35 16.35 0 0 1 .748 2.545.51.51 0 0 0 .215.316c.111.073.246.099.375.074.065-.013.126-.039.18-.076a.52.52 0 0 0 .138-.138.5.5 0 0 0 .073-.181c.013-.065.013-.131-.001-.195a16.76 16.76 0 0 0-1.418-4.179c3.511-.076 6.824-2.747 8.558-4.424.583-.56 1.352-1.235 2.006-1.95-.017.383-.055.765-.113 1.145zm-16.27.818c-2.583-2.734-6.061-5.175-6.268-10.389.007-.878.074-1.755.2-2.625a22.92 22.92 0 0 0 .085-5.589 25.17 25.17 0 0 1 .23-5.168c.621-3.968 4.125-6.914 9.245-6.4.576.053 3.142-1.484 6.062.561a18.26 18.26 0 0 1 5.388 5.878c1.341 2.332 2.15 4.932 2.369 7.614.351 4.637-1.1 9.534-.945 12.572a19.02 19.02 0 0 1-2.682 2.818c-1.412 1.365-5.081 4.5-8.638 4.118-.912-.089-1.781-.431-2.509-.989a23.39 23.39 0 0 1-2.537-2.4v-.001zm38.416 22.847c-.512 1.452-.94 2.931-1.284 4.431a14.85 14.85 0 0 1-.173 1.617.5.5 0 0 0 .089.373c.077.108.194.18.325.201a.5.5 0 0 0 .373-.088c.107-.078.18-.195.201-.326.089-.541.147-1.088.172-1.637.336-1.435.75-2.851 1.241-4.241 1.975-5.631 4.423-9.281 7.7-11.488.106-.075.179-.189.202-.317a.5.5 0 0 0-.078-.368c-.072-.108-.183-.184-.311-.211a.5.5 0 0 0-.37.066c-3.466 2.333-6.037 6.143-8.087 11.988zm-5.472-14.184c3.429 1.619 6.968 2.992 10.591 4.107a.47.47 0 0 0 .197.024c.067-.005.131-.023.191-.054a.5.5 0 0 0 .247-.3c.019-.064.025-.131.018-.197a.52.52 0 0 0-.06-.188.49.49 0 0 0-.128-.151.51.51 0 0 0-.176-.091 78 78 0 0 1-10.516-4.082.53.53 0 0 0-.396-.139.53.53 0 0 0-.206.06c-.064.033-.12.08-.165.136-.06.076-.098.168-.109.264-.037.397.32.531.512.61v.001zm-28.943-41.688a.5.5 0 0 0 .639.654c.122-.046.221-.137.277-.254.867-2.091 2.27-3.916 4.068-5.29.052-.04.096-.09.128-.147a.51.51 0 0 0 .063-.185.51.51 0 0 0-.014-.195c-.017-.064-.047-.123-.087-.175s-.09-.096-.147-.128a.49.49 0 0 0-.185-.062c-.065-.009-.132-.004-.195.013s-.123.047-.175.087c-1.929 1.479-3.436 3.438-4.372 5.682zm2.788 10.573a5.06 5.06 0 0 1 3.027.022c.983.315 1.846.924 2.473 1.744.083.1.201.165.329.18a.5.5 0 0 0 .362-.1c.103-.079.171-.194.191-.323a.49.49 0 0 0-.088-.364 6.04 6.04 0 0 0-6.535-2.13c-.191.046-.541.17-.59.513-.015.102.002.206.048.298a.51.51 0 0 0 .209.218.5.5 0 0 0 .296.06.5.5 0 0 0 .278-.118zm1.567 5.449c-.128-.074-.273-.111-.421-.109a.82.82 0 0 0-.718.435c-.07.13-.104.276-.099.424-.068.82.042 1.76.868 1.76 1.1 0 1.073-2.029.37-2.51zm-10.817.158c-.129-.071-.274-.106-.421-.103s-.291.045-.416.121-.23.184-.3.313a.85.85 0 0 0-.104.421c-.069.825.045 1.762.87 1.762 1.106 0 1.076-2.042.371-2.514zm4.854 10.557a.51.51 0 0 0 .186-.058c.057-.031.108-.074.149-.125s.072-.11.091-.173a.51.51 0 0 0 .017-.194.5.5 0 0 0-.112-.268c-.063-.077-.148-.132-.243-.16-.063-.018-.13-.023-.195-.015a3.41 3.41 0 0 1-2.461-.7 1.02 1.02 0 0 1-.46-.945c.129-.616.915-1.064 1.406-1.758.402-.643.665-1.363.772-2.113a5.44 5.44 0 0 0-.151-2.245c-.022-.08-.063-.153-.12-.212s-.128-.105-.206-.131-.163-.031-.244-.016-.158.05-.222.101c-.078.061-.136.145-.166.239a.49.49 0 0 0-.004.291 4.44 4.44 0 0 1 .125 1.817c-.084.607-.294 1.191-.615 1.713-.428.6-1.342 1.09-1.56 2.15-.048.369.007.744.16 1.083a2.01 2.01 0 0 0 .703.839c.897.69 2.026 1.005 3.15.88zm3.133 5.428c.475-.145.909-.398 1.27-.738a3.21 3.21 0 0 0 .811-1.223c.339-.7.292-1.235-.2-1.632a2.75 2.75 0 0 0-1.486-.383 25.59 25.59 0 0 0-4.862.227 4.35 4.35 0 0 0-.821.057.5.5 0 0 0-.251.12c-.071.063-.122.145-.148.237s-.025.187.002.278a.5.5 0 0 0 .15.235 19.47 19.47 0 0 0 3.735 2.535 3.53 3.53 0 0 0 1.8.287zm.39-2.978c.316-.011.63.054.914.192.049.207-.7 1.669-1.435 1.795-.421.041-.846-.026-1.234-.195-.904-.472-1.767-1.018-2.58-1.633a26.36 26.36 0 0 1 4.333-.16h.002v.001zm-.071 3.677c-.455.137-.94.133-1.394-.01a.5.5 0 0 0-.616.331c-.039.125-.028.26.032.376a.5.5 0 0 0 .285.247 3.38 3.38 0 0 0 1.977.015.48.48 0 0 0 .173-.091.49.49 0 0 0 .125-.15c.031-.057.051-.121.058-.186a.49.49 0 0 0-.018-.194c-.019-.063-.05-.122-.091-.173s-.092-.093-.15-.125a.51.51 0 0 0-.186-.058c-.066-.006-.132 0-.195.018zm-43.344 45.369c-.792.128-2.439.391-2.722 1.648s1.022 2.486 1.695 3.333c2.405 3.038 6.126 4.462 8.972 6.8 2.5 2.052 4.847 4.341 7.119 6.6l-18.163-2.13a1.19 1.19 0 0 0 .58-.605c.114-.265.127-.562.038-.836-.352-.937-1.639-1.139-2.19-1.225-1.046-.161-2.108-.193-3.162-.093a8.84 8.84 0 0 0 1.716-.877c1.562-1.057 1.606-2.716-.213-3.156-3.97-.956-8.692 1.557-12.787 4.147a36.11 36.11 0 0 0-4.765 3.57.5.5 0 0 0 .305.872.51.51 0 0 0 .361-.126c1.446-1.283 2.996-2.444 4.633-3.471 2.371-1.5 7.922-5.022 12.018-4.021.353.085.58.225.606.375.04.213-.2.629-.718.981a11.41 11.41 0 0 1-2.7 1.2 10.29 10.29 0 0 0-3 1.424c-.489-.131-1.001-.154-1.5-.065-2.643.531-5.135 1.643-7.295 3.255-.119.033-.225.102-.305.197a.61.61 0 0 0-.14.335.51.51 0 0 0 .327.501c.1.039.209.046.313.02a.52.52 0 0 0 .267-.164c.372-.175-.232.063 2.328-1.426 1.429-.868 3.011-1.455 4.661-1.728.28-.042 1.21-.14 1.468.3.164.281-.108.78-.45 1.151-.548.527-1.183.955-1.877 1.266-2.1 1.1-2.633 1.618-3.64 4.456a8.94 8.94 0 0 1-1.186 2.521.49.49 0 0 0-.097.268.5.5 0 0 0 .065.278c.049.084.121.152.208.196s.184.062.281.051a.5.5 0 0 0 .331-.178c1.352-1.728 1.474-4.459 2.9-5.707 1.07-.933 2.633-1.269 3.745-2.473.326-.27.559-.634.667-1.043a2.02 2.02 0 0 0-.067-1.235c1.563-.2 3.407-1.11 6.55-.616 1.042.163 1.34.41 1.408.589.006.016.038.172-.72.519-1.645.759-6.119 1.289-6.552 2.032a.57.57 0 0 0-.054.415c.3 1.078 2.642-.233 6.343 1.2.808.311.924.516.94.577-.222.435-3.742.739-4.227.786a15.61 15.61 0 0 1-1.6.142c-.737.016-1.327.056-1.646.4-.06.067-.101.148-.12.235a.53.53 0 0 0 .01.265c.133.411.514.409 2.222.778.746.162 3.256.759 2.971 1.466-.369.9-3.443.985-4.417 1.01-3.5.091-4.536.387-7.92 2.961-1.7 1.3-3.317 2.52-5.332 2.616-.066.001-.13.015-.191.042a.51.51 0 0 0-.159.112c-.046.048-.081.104-.105.165a.5.5 0 0 0-.034.192c.002.066.016.13.043.191a.48.48 0 0 0 .112.159c.047.046.103.081.165.105a.5.5 0 0 0 .192.034c3.678 0 6.563-4.124 9.8-5.165 1.878-.6 4.207-.248 6.26-.635.68-.128 2.1-.394 2.511-1.409a1.26 1.26 0 0 0 .101-.545c-.008-.187-.058-.37-.146-.534-.418-.793-1.67-1.257-2.9-1.569 1.177-.111 2.32-.223 3.42-.422.59-.106 2.158-.384 1.974-1.532-.13-.816-1.136-1.2-1.564-1.366a12.07 12.07 0 0 0-3.4-.761c.816-.19 1.714-.376 2.724-.687.2.216-1.172.181 20.879 2.576.1.011-.112-.168 2 1.948 4.317 4.317 6.1 5.756 16.349 6.721a26.58 26.58 0 0 0 9.585-.447.5.5 0 0 0 .193-.1c.959.25 1.93.451 2.91.6.014.093.055.181.117.252a.5.5 0 0 0 .236.148c.137.073.517.352.695.425a12.55 12.55 0 0 0 8.368.421.52.52 0 0 0 .247-.152.51.51 0 0 0 .121-.264c.014-.097-.001-.197-.044-.286a.49.49 0 0 0-.195-.214.5.5 0 0 0-.379-.053c-1.51.401-3.075.549-4.633.437a10.72 10.72 0 0 1-2.161-.475c2.665.138 5.336-.079 7.944-.644a.51.51 0 0 0 .315-.218c.072-.111.097-.247.07-.376a.5.5 0 0 0-.218-.315c-.111-.072-.246-.097-.376-.07-3.498.783-7.116.876-10.65.272-.166-.036-.377-.072-.839-.161a11.33 11.33 0 0 0 3.246-.163c2.432-.568 4.584-1.943 6.977-2.255.065-.009.128-.03.185-.062a.49.49 0 0 0 .147-.129c.04-.052.069-.111.086-.175a.49.49 0 0 0 .013-.194c-.008-.066-.029-.129-.061-.187a.48.48 0 0 0-.13-.146c-.052-.041-.112-.07-.175-.087s-.13-.021-.195-.012c-2.675.351-4.6 1.7-7.074 2.273-1.594.37-3.472.058-5.166.051-.071 0-.154 0-.25-.006-1.979-.1-2.833-.5-2.924-.738-.024-.063.026-.259.365-.592 1.557-1.535 4.532-1.109 6.714-1.44a13.48 13.48 0 0 0 5.931-2.538 8.78 8.78 0 0 0 2.444-1.715c.089-.098.137-.227.132-.359a.5.5 0 0 0-.159-.348c-.048-.045-.105-.08-.166-.103a.49.49 0 0 0-.193-.03.48.48 0 0 0-.19.045c-.06.027-.113.066-.158.115-.353.368-.757.684-1.2.939-.021-.119-.085-.226-.18-.3a6.95 6.95 0 0 1-1.735-1.968c-.842-1.165-3.164-3.65-5.724-7.293-1.633-2.323-2.718-3.954-5.538-4.111a.49.49 0 0 0-.092-.267c-.37-.477-.832-.873-1.359-1.165-2.043-1.023-3.458.506-8.836.317-4.777-4.895-3.79-12.343-3.138-15.329.33-1.515 1.569-4.787 2.123-6.288.045-.125.04-.262-.016-.383a.5.5 0 0 0-.923.037c-.828 2.102-1.549 4.245-2.161 6.421-.654 3-1.615 10.254 2.71 15.469-11.201-.752-23.222-5.197-29.15-4.245zm30.24 5.32c6.232.3 7.533-1.736 9.428.148-3.715.271-6.392 1.638-22.972.2-4.52-.394-9.307-.919-13.77-2.6a.5.5 0 0 0-.382.012.49.49 0 0 0-.191.15c-.051.065-.084.142-.098.224a.51.51 0 0 0 .02.242c.027.078.073.148.133.205.048.045.105.08.166.103 4.582 1.723 9.445 2.258 14.035 2.658 18.1 1.577 19.721-.128 23.764-.248.557-.019 1.112.061 1.642.234 1.566.49 2.541 2.061 3.54 3.481 2.662 3.782 4.772 5.994 5.706 7.265a7.86 7.86 0 0 0 1.943 2.195c-.093.054-.192.111-.269.161a12.55 12.55 0 0 1-5.511 2.371c-2.155.322-5.39-.133-7.266 1.716-.593.585-.794 1.142-.6 1.66.285.75 1.435 1.2 3.4 1.349.013.029.029.057.048.084-2.767.542-5.605.628-8.4.257-10.035-.939-11.593-2.291-15.732-6.432-3.7-3.706-6.914-6.983-10.29-9.751-2.873-2.357-6.56-3.788-8.823-6.644-.462-.586-1.664-1.781-1.5-2.492.135-.6 1.421-.8 1.906-.881 5.748-.919 18.784 3.834 30.073 4.333zm-56.012-60.64c.913-1.177 2.095-2.384 3.523-1.925a.49.49 0 0 0 .296.014.5.5 0 0 0 .314-.719.49.49 0 0 0-.126-.153c-.052-.043-.112-.074-.176-.093-1.713-.554-3.232.525-4.36 1.94-.3.374-.634.694-.36 1.067.055.075.129.133.214.168a.51.51 0 0 0 .27.034c.091-.013.177-.051.249-.11a.51.51 0 0 0 .157-.222l-.001-.001zm2.085 2.774c-.545-.07-.924.58-1.01.755-.387.67-.542 1.449-.443 2.215.181.672.964.832 1.522-.129.528-.91.965-2.704-.069-2.842v.001zm-18.013 17.075c.993.929 2.04 1.8 3.133 2.608.053.044.114.076.18.095a.5.5 0 0 0 .203.017.51.51 0 0 0 .193-.067.49.49 0 0 0 .233-.323c.015-.067.016-.136.003-.203a.49.49 0 0 0-.079-.188c-.039-.057-.089-.105-.147-.141-.982-.711-1.915-1.487-2.793-2.322a6.65 6.65 0 0 1-.915-.844c-.037-.128-.123-.235-.24-.299a.5.5 0 0 0-.679.198c-.063.117-.078.253-.041.381.206.445.536.823.949 1.088zm16.642 77.842c1 1.073 1.85 2.275 2.528 3.575a.49.49 0 0 0 .122.153.48.48 0 0 0 .172.093c.063.021.129.028.194.022a.49.49 0 0 0 .187-.056c.059-.03.11-.072.152-.122a.48.48 0 0 0 .094-.171.49.49 0 0 0 .021-.194c-.006-.066-.024-.129-.055-.188a17.22 17.22 0 0 0-2.74-3.848c-1.148-.983-1.166-.983-1.38-.983a.5.5 0 0 0-.308.107c-.088.069-.151.165-.177.274a.5.5 0 0 0 .253.562c.08.053.35.276.937.776zm19.784 8.51a1.4 1.4 0 0 0 1.056-.441 1.39 1.39 0 0 0 .3-.502c.063-.186.085-.384.066-.581-.027-.218-.106-.427-.231-.609a1.36 1.36 0 0 0-.486-.434c-.194-.104-.411-.159-.631-.162s-.438.049-.635.148c-.263.134-.476.35-.607.614-.084.206-.119.428-.102.648a1.44 1.44 0 0 0 .652 1.099c.186.12.398.196.618.22zm3.578-1.236a1.41 1.41 0 0 0 .577-.108 1.39 1.39 0 0 0 .481-.336c.135-.144.237-.316.3-.504s.085-.386.065-.582c-.034-.296-.163-.572-.367-.788s-.474-.359-.767-.409-.595-.003-.859.133-.477.355-.607.623a1.43 1.43 0 0 0-.1.65 1.44 1.44 0 0 0 .199.628c.114.19.271.352.458.473a1.45 1.45 0 0 0 .62.22z"/><path d="M227.7 236.548c0-1.16-1.32-1.772-1.846-2.015a17.8 17.8 0 0 0-2.815-.843c1.049-.139 2.637-.476 2.949-1.488.054-.181.06-.373.017-.557a1.1 1.1 0 0 0-.258-.495c-1.327-1.64-4.274-1.524-5.857-1.464a29.76 29.76 0 0 0-18.54 7.9 22.56 22.56 0 0 0-1.143 1.168 1.78 1.78 0 0 0-1.1-.536 10.85 10.85 0 0 0-5.224.867c-3.2 1.09-3.543 1.011-5.121.3-1.355-.678-2.866-.982-4.378-.88a31.58 31.58 0 0 0-6.994 1.446c-.967.372-1.974.633-3 .778-.066.007-.131.028-.189.06a.48.48 0 0 0-.149.131c-.061.08-.097.176-.103.276s.018.2.069.286a.48.48 0 0 0 .133.147c.054.04.115.068.18.083a.49.49 0 0 0 .198.007 14.49 14.49 0 0 0 3.2-.825 30.52 30.52 0 0 1 6.745-1.392c2.689-.219 3.995 1.144 5.642 1.372a12.37 12.37 0 0 0 .305 2.55c.243 1.846.664 3.663 1.256 5.428a.5.5 0 0 0 .251.289c.119.059.257.069.383.027s.229-.133.288-.252a.5.5 0 0 0 .027-.382c-.577-1.718-.986-3.489-1.222-5.286a11.7 11.7 0 0 1-.288-2.373c2.68-.384 5.26-2.084 7.879-1.666a.87.87 0 0 1 .424.147.86.86 0 0 1 .292.341 7.15 7.15 0 0 1 .131 2.184 25.67 25.67 0 0 0 1.433 7.389c.325.993.526 1.732.065 2.223-1.7 1.814-5.134 1.273-7.422 2.524-1.549.846-2.5 2.48-3.988 3.218-2.836 1.407-6.166 1.952-9.259 2.815-6.271 1.749-11.971 3.575-18.394 2.659-2.123-.326-4.265-.513-6.412-.561-1.681-.038-3.419-.073-4.531-1.227-.472-.503-.833-1.101-1.058-1.754-.005-.056-.019-.11-.041-.162-1.81-4.1 1.727-16.45 1.868-25.055.02-2.638-.166-5.273-.555-7.882a.52.52 0 0 0-.061-.188c-.033-.058-.077-.109-.13-.15s-.113-.07-.177-.088a.49.49 0 0 0-.198-.011c-.066.009-.13.031-.187.065a.52.52 0 0 0-.147.134c-.039.053-.067.114-.083.179a.51.51 0 0 0-.007.198c.382 2.557.564 5.141.545 7.727-.139 8.46-3.458 19.462-1.951 24.97a30.88 30.88 0 0 1-7.625 1.216c-4.286.363-8.6.138-12.825-.67-2.3-.46-5.5-1.333-6.721-3.583-1.383-2.542 1.507-4.533.914-9.693-.45-3.92-1.428-7.789-1.835-11.677-1.279-12.262-.233-31.488 3.625-43.857.075-.447.218-.879.424-1.282a10.64 10.64 0 0 0 6.069-1.587c.465-.286 1.333-.813 1.677-.72.2.113.247 1.077.33 1.854.13 1.224.285 2.749 1.251 3.664 1.165 1.1 2.889.708 4.854-1.11.242-.273.498-.531.769-.775.243.351.471 1.2.658 1.546 2.055 3.8 4.9 4.06 5.771 3.093.82-.912.216-2.731.286-3.508.097-.839.453-1.627 1.018-2.254 2.446-2.867 5.757-5.008 6.517-9.233a27.22 27.22 0 0 0 .321-6.055c4.926.91 8.286 5.6 9.069 10.3a.51.51 0 0 0 .066.188c.034.057.079.107.133.147a.5.5 0 0 0 .279.097c.1.003.2-.023.285-.077s.151-.133.191-.225a.5.5 0 0 0 .032-.294c-.498-2.97-1.884-5.719-3.975-7.887.787-1.751 2.652-4.706 4.223-5 1.821-.328 4.008 1.228 6.09-.318 1.375-1.022 1.5-2.813 2.323-3.915.3-.4 1.343-.915 1.306-1.813-.044-1.071-1.662-2.751-1.2-3.375.139-.187.917-.116 1.382-.075a3.88 3.88 0 0 0 1.566-.05c1.284-.454 1.237-1.817 1.775-2.413.791-.878 2.6-1.128 3.18-2.595.357-.912-.321-1.782-.766-2.36a10.52 10.52 0 0 1-1.458-2.475c-.7-1.7-.427-2.875.037-4.657.98-3.762.989-7.865-2.2-10.146.348-.648.65-1.321.9-2.013.039-.108.038-.227 0-.336a.5.5 0 0 0-.542-.326c-.114.016-.219.071-.297.156a.5.5 0 0 0-.099.168c-2.952 8.32-17.055 17.914-21.258 24.585-4.229 6.712-1.056 13.407-2.347 20.586-.7 3.872-3.788 5.831-6.293 8.761a5.05 5.05 0 0 0-1.254 2.814c-.069.776.378 2.471-.033 2.929a.55.55 0 0 1-.206.118.56.56 0 0 1-.237.019c-1.8-.014-3.095-1.909-3.706-3.037-.221-.412-.486-1.768-1.214-2.068-.754-.313-1.515.8-1.771 1.039-.882.817-2.508 2.047-3.487 1.117-.7-.66-.835-1.98-.945-3.041l-.08-.762c-.053-.64-.141-1.71-.966-1.948-.771-.225-1.719.361-2.48.829-1.465.9-4.02 1.759-5.761 1.4-.51-.102-.984-.336-1.376-.678-1.2-1.06-.62-2.6.321-4.655.848-1.854 1.213-2.592 1.015-6.679-.169-3.461-.188-4.868 2.656-10.684 2.187-4.471 2.87-6.057 3.308-13.666.093-1.606.188-3.267.4-4.9 1.13-8.54 5.692-15.847 12.2-19.546.061-.03.115-.073.159-.125s.077-.112.097-.177a.49.49 0 0 0 .019-.201c-.007-.068-.029-.134-.062-.193a.5.5 0 0 0-.134-.152c-.054-.041-.116-.071-.182-.087a.51.51 0 0 0-.202-.008c-.067.012-.132.036-.189.073-6.775 3.858-11.522 11.445-12.693 20.293-.221 1.667-.317 3.348-.411 4.973-.428 7.413-1.031 8.83-3.208 13.282-2.925 5.98-2.935 7.545-2.757 11.173.191 3.92-.145 4.512-.925 6.213-.853 1.865-1.916 4.186-.076 5.82a3.92 3.92 0 0 0 1.262.742 5.1 5.1 0 0 0-.4 1.276c-3.842 12.193-4.954 31.677-3.648 44.186.412 3.95 1.388 7.788 1.836 11.688.211 1.756-.011 3.538-.647 5.188-.5 1.491-1.071 3.183-.152 4.869 1.425 2.618 4.907 3.585 7.4 4.085a48.36 48.36 0 0 0 13.1.688c2.665-.093 5.307-.519 7.866-1.27.27.655.66 1.254 1.149 1.767 1.483 1.54 3.652 1.489 5.75 1.546 3.865.1 6.3.795 9.429.795 5.182 0 10.029-1.515 15.134-2.942 3.125-.874 6.47-1.412 9.434-2.882 1.725-.856 2.578-2.446 4.024-3.237 2.174-1.187 5.632-.537 7.672-2.718.948-1.011.429-2.348.042-3.567-.111-.349-.2-.7-.3-1.046 4.425 1.566 8.606-1.837 12.611-2.643 1.783-.355 3.357.714 5.26.949 1.06.127 2.326-.129 2.7-1.154.442-1.214-.839-2.167-2-2.8 1.961.33 5.039 1.21 6.616-.265.745-.7.387-1.648-.429-2.306a9.8 9.8 0 0 0-2.1-1.1c1.439.008 3.239-.255 3.239-1.696v-.001zm-71.182-76.45c3.587-5.691 15.272-14.13 19.945-21.876a5.41 5.41 0 0 1 2.1 3.389c1.066 6.083-3.287 7.756 1.231 13.616.326.422.775 1 .625 1.382-.311.793-1.437 1.137-2.339 1.736-.614.386-1.065.984-1.268 1.68-.445 1.143-.646 1.12-1.891 1.012-.845-.077-1.806-.164-2.28.477-.99 1.345.974 3.16 1.01 4.009.01.238-.826.8-1.108 1.172-.911 1.218-1.049 2.917-2.118 3.712-1.657 1.229-3.6-.246-5.677.139-2.055.382-3.965 3.528-4.8 5.245-1.518-1.332-3.378-2.213-5.371-2.541-.3-4.815-.651-9.04 1.941-13.151v-.001zm61.991 76.688c-.351-.03-.704-.01-1.049.061-.078.022-.149.062-.208.118a.49.49 0 0 0-.129.2c-.027.077-.034.158-.022.238s.043.156.091.221c.312.428 1.2.373 1.537.428 1.128.166 2.457.379 3.793.705a8.81 8.81 0 0 1 3.441 1.394 1.08 1.08 0 0 1 .433.61c0 .027 0 .08-.088.165-1.3 1.212-4.42.121-7.969-.325a1.16 1.16 0 0 0-.462-.031c-.155.021-.304.073-.438.152a.58.58 0 0 0-.14.186.57.57 0 0 0-.054.226c0 .463.471.675 1.24.981l.445.2c.81.383 2.8 1.3 2.489 2.085-.2.473-1.082.546-1.627.478-1.849-.23-3.464-1.363-5.58-.937-4.141.833-8.419 4.255-12.423 2.558-.091-.037-.191-.045-.286-.023-.387-1.492-.614-3.021-.675-4.562a7.91 7.91 0 0 0-.121-2.15c.397-.525.842-1.012 1.33-1.453a28.75 28.75 0 0 1 17.891-7.625c1.305-.056 4.028-.157 5.04 1.093.013.016.074.094.063.129-.215.269-.516.455-.852.526-1.828.384-3.699.527-5.564.424-1.5.027-1.959.077-2.092.528-.432 1.463 3.911.1 8.938 2.066 1.506.7 1.737 1.49.145 1.722-1.939.283-3.706-.296-7.097-.39v.002zm50.722-7.149a.51.51 0 0 0-.532.466.51.51 0 0 0 .123.363.5.5 0 0 0 .343.169c.324.011.646.063.957.155-.245.97-6 3.9-11.072 5.944-2.862 1.156-6.406 2.661-9.183 4.007-3.866 1.877-4.887 2.246-10.974.1-1.975-.694-1.873-.644-4.838-1.522-.472-.181-.774-.286-1.041-.132a.51.51 0 0 0-.218.254c-.042.108-.045.226-.011.335a.5.5 0 0 0 .204.266.49.49 0 0 0 .325.077c.1.025.3.1.382.133.2.076-.03 0 2.493.742 2.675.786 5.57 2.176 8.481 2.305a12.05 12.05 0 0 0 5.633-1.662c2.714-1.319 6.311-2.845 9.121-3.979s12.013-5.014 11.692-7.028c-.14-.875-1.408-.96-1.885-.993zm40.826 1.506l-29.358-3.446 1.956-1.383c4.194-2.056 10.661.747 13.168-13.544.021-.13-.01-.262-.087-.369a.51.51 0 0 0-.226-.181.5.5 0 0 0-.289-.023c-.097.021-.185.071-.253.142a.5.5 0 0 0-.13.259c-2.388 13.619-8.123 10.605-12.667 12.842a25.16 25.16 0 0 0-3 2.193c-.704.676-1.643 1.052-2.619 1.049a1.67 1.67 0 0 1-.671-.32 1.68 1.68 0 0 1-.465-.58c-.288-.563-.537-1.145-.744-1.743-.902-2.629-2.342-5.041-4.23-7.082-.411-.412-1.5-1.5-1.228-1.986.5-.879 3-.872 4.066-1.164a13.11 13.11 0 0 0 5.186-3.315c2.858-2.552 6.244-5.242 10.364-4.9.132.01.263-.032.364-.117s.165-.207.177-.339a.5.5 0 0 0-.456-.54c-1.62-.124-3.247.141-4.745.772a8.15 8.15 0 0 1 2.6-2.524.49.49 0 0 0 .246-.308c.018-.065.022-.134.013-.201s-.032-.132-.067-.19c-.052-.088-.13-.158-.224-.2a.49.49 0 0 0-.298-.033c-.066.013-.13.039-.186.077-2.135 1.287-3.451 3.425-3.5 4.052-4.477 2.442-6.268 5.852-9.742 6.8-1.1.3-3.855.2-4.673 1.634-.651 1.143.626 2.422 1.389 3.187 1.789 1.927 3.149 4.21 3.992 6.7.222.642.49 1.267.8 1.871a2.59 2.59 0 0 0 .928 1.051 2.58 2.58 0 0 0 1.339.414c1.022-.083 1.995-.476 2.787-1.126l30.366 3.566a.49.49 0 0 0 .195-.015c.064-.017.123-.048.174-.088a.5.5 0 0 0 .127-.15.49.49 0 0 0 .059-.186c.008-.065.003-.132-.015-.195s-.048-.122-.089-.174a.48.48 0 0 0-.149-.127.5.5 0 0 0-.186-.059l.001-.001zm-13.1-34.124c.123.05.26.05.383-.001a.5.5 0 0 0 .27-.269c.428-1.031 6.312-7.431 9.078-7.554a.5.5 0 0 0 .347-.162c.09-.098.137-.227.131-.359 0-.067-.015-.132-.043-.192-.041-.091-.108-.167-.194-.218s-.185-.075-.285-.067c-3.394.15-9.507 7.084-9.958 8.169a.5.5 0 0 0 .271.653zM188.8 114.533a109 109 0 0 0 11.54 5.014 8.21 8.21 0 0 0 3.871-.426c.441.24.166-.054 5.087-1.555a.5.5 0 0 0-.292-.957 60.01 60.01 0 0 0-4.5 1.528c-.103-.507-.29-.993-.553-1.438l4.627-1.516c.098-.026.185-.08.251-.155a.5.5 0 0 0-.142-.768.48.48 0 0 0-.188-.058.49.49 0 0 0-.197.02l-4.908 1.61c-.31-.506-.745-.925-1.262-1.216l5.506-1.936a.5.5 0 0 0-.3-.955l-6.294 2.226-1.992-1.107 7.632-2.562a.5.5 0 0 0-.3-.955 427.76 427.76 0 0 0-8.569 2.89l-1.717-.848 9.823-3.393c.064-.019.123-.05.174-.092a.48.48 0 0 0 .125-.151.49.49 0 0 0 .057-.187c.007-.065 0-.132-.019-.195a.5.5 0 0 0-.092-.173c-.042-.051-.094-.093-.152-.124s-.122-.05-.188-.056-.132.001-.195.021c-1.4.425-10.479 3.559-10.738 3.759-.39-.192-2.839-1.386-3.247-1.524-.5-.18-1.163-.07-2.643 3.46-.564 1.384-.653 1.596-.204 1.819h-.001zm13.371 2.5a1.17 1.17 0 0 0 .065-.782c-.021-.105-.027-.211-.018-.317.623.688 1.076 1.512 1.324 2.407a9.2 9.2 0 0 1-2.248.282 2.3 2.3 0 0 1-.175-1s.027-.057.367-.141c.141-.019.276-.069.395-.146s.219-.18.293-.3l-.003-.003zm-.765-1.7a1.56 1.56 0 0 0-.184.575c-.023.202-.006.407.05.603-1.059.216-1.342.893-1.065 1.933a74.68 74.68 0 0 1-7.207-3.03c.295-.767.64-1.513 1.031-2.235.061-.116.073-.251.035-.376a.5.5 0 0 0-.613-.336.5.5 0 0 0-.299.232c-.4.743-.752 1.51-1.054 2.299l-.54-.251c.476-1.261 1.062-2.476 1.751-3.633a83.59 83.59 0 0 1 8.098 4.22l-.003-.001zm-9.952-5.085a90.86 90.86 0 0 1 .945.43c-.686 1.161-1.272 2.379-1.753 3.64l-1.008-.487a15.47 15.47 0 0 1 1.82-3.582l-.004-.001z"/></g><g fill="#e7e9f7"><path d="M179.437 101.649c.457.877.857 1.928.214 2.456-.706.58-1.871.107-2.592-.857-1.121-1.5-1.444-3.483-2.863-4.834-1.809-1.72-3.225 1.051-5.834-3.292a43.17 43.17 0 0 1-2.8-6.2c.292-.093 1.401-.287 1.722-.336 2.568-.385 2.692 4.047 4.261 5.563 1.108 1.07 2.435.25 3.642.971a6.13 6.13 0 0 1 1.849 2.192l2.401 4.337zm2.357 11.019c.674.726 1.341 1.627.857 2.314-.523.74-1.773.6-2.721-.13-1.487-1.145-2.326-2.978-4.055-3.9-2.191-1.164-2.869 1.864-6.5-1.606-1.593-1.622-3.052-3.37-4.363-5.227.257-.171 1.271-.657 1.564-.785 2.385-1.05 3.683 3.179 5.6 4.22 1.356.737 2.413-.414 3.77-.043a6.12 6.12 0 0 1 2.371 1.62l3.477 3.537z"/></g><g fill="#2a295c" fill-rule="evenodd"><path d="M252.678 219.022c-.241.147-.516.229-.799.238a.5.5 0 0 1-.489-.485c-.004-.128.041-.253.126-.349a.5.5 0 0 1 .331-.166c.117-.003.231-.039.328-.103.028-.018.056-.033.086-.045 1.949-.793 4.034-1.198 6.137-1.194h.002c2.063.014 3.614.604 5.103 1.17l.519.197c1.62.604 3.288 1.128 5.717.919l.202-.148a.5.5 0 0 1 .654.055l.058.064.003.002c.016.019.023.025.027.029l.021.023c1.753 1.99 3.101 4.303 3.968 6.809l.001.004c.2.597.447 1.176.74 1.732a.5.5 0 0 1-.197.669 19.51 19.51 0 0 1-5.922 2.169l-.019.003c-.922.14-1.847.191-2.744.241l-.215.012-2.844.287c-.897.165-1.712.402-2.509.65l-.449.141-1.941.565c-1.646.402-3.4.545-5.689-.14h-.001a4.04 4.04 0 0 1-.564-.248l-.083-.041c-.223-.11-.39-.184-.504-.208-.126-.031-.235-.11-.304-.219s-.092-.243-.066-.37a.5.5 0 0 1 .21-.311c.107-.073.239-.101.366-.078.258.054.536.189.741.29l.099.049.393.178c2.085.624 3.655.495 5.165.126l1.864-.543.466-.146 2.624-.679h.001c.998-.184 1.998-.247 2.969-.301l.206-.012 2.65-.23c1.812-.348 3.562-.964 5.191-1.828a12.6 12.6 0 0 1-.581-1.438 19.36 19.36 0 0 0-3.566-6.233c-.059.031-.123.051-.19.058-2.722.262-4.589-.328-6.298-.966l-.522-.197c-1.495-.567-2.882-1.093-4.755-1.106a15.2 15.2 0 0 0-5.717 1.104zm-98.349-45.819l.045.007c2.312.331 4.454 1.405 6.103 3.061 2.217 2.208 3.689 5.054 4.21 8.139l.03.183-.034.055c1.435.833 2.8 1.782 4.081 2.837l.006.005.006.005c5.628 4.935 9.067 11.904 9.559 19.373v.002c.15 2.485-.13 4.899-.5 7.3l-.31 1.934c-.289 1.764-.578 3.532-.744 5.361-.142 1.552.061 3.092.272 4.695l.063.478c.227 1.753.423 3.58.07 5.44-.488 2.563-1.104 4.174-1.62 5.497l-.03.075c-.5 1.281-.877 2.249-.978 3.591-.013.13-.076.251-.176.335a.5.5 0 0 1-.821-.41c.112-1.493.538-2.584 1.029-3.84l.044-.114c.508-1.301 1.099-2.847 1.569-5.321.32-1.687.149-3.369-.079-5.125l-.064-.486c-.21-1.585-.427-3.236-.275-4.905.17-1.869.468-3.688.758-5.463l.304-1.894c.366-2.383.633-4.711.49-7.086-.475-7.202-3.79-13.92-9.215-18.68-1.367-1.124-2.831-2.123-4.375-2.986l-.45-.252.371-.618a14.02 14.02 0 0 0-3.898-7.417l-.001-.002c-1.485-1.491-3.412-2.463-5.493-2.771l-.148.005c-.133.005-.262-.043-.359-.134s-.155-.215-.159-.348a.5.5 0 0 1 .133-.359c.091-.097.216-.154.349-.159l.238-.008h-.001z"/></g><path d="M128.211 347h-3.457l-8.391-13.676h-.105l.082 1.465.07 1.594.059 1.664V347h-2.555v-17.133h3.434l8.379 13.582h.082l-.059-1.371-.07-1.594-.035-1.605v-9.012h2.566V347zm9.387-13.219c1.156 0 2.148.239 2.976.715a4.79 4.79 0 0 1 1.91 2.027c.446.875.668 1.922.668 3.141v1.477h-8.66c.031 1.257.367 2.226 1.008 2.906.648.68 1.555 1.019 2.719 1.019.828 0 1.57-.078 2.226-.234.664-.164 1.348-.402 2.051-.715v2.238a8.92 8.92 0 0 1-1.98.668c-.672.141-1.477.211-2.414.211-1.274 0-2.395-.246-3.364-.738-.961-.5-1.715-1.242-2.261-2.226-.54-.985-.809-2.208-.809-3.668 0-1.454.246-2.688.738-3.704s1.184-1.789 2.074-2.32 1.93-.797 3.118-.797zm0 2.074c-.868 0-1.571.282-2.11.844-.531.563-.843 1.387-.937 2.473h5.906c-.008-.649-.117-1.223-.328-1.723-.203-.5-.516-.89-.938-1.172-.414-.281-.945-.422-1.593-.422zm19.265 11.133l-1.64-6.035-.282-1.078-.328-1.301-.304-1.254-.2-.89h-.093l-.188.89-.293 1.254-.328 1.324-.281 1.102-1.723 5.988h-3.023l-3.633-12.972h2.789l1.687 6.445.317 1.418.281 1.453.176 1.137h.094l.129-.797.187-1.02.211-1.007.199-.774 1.992-6.855h3.012l1.91 6.855.281 1.125.27 1.348.164 1.113h.094l.164-1.078.293-1.465.34-1.453 1.722-6.445h2.743l-3.657 12.972h-3.082zm15.481.012v-17.133h2.812v14.742h7.278V347h-10.09zm17.941-13.219c1.156 0 2.149.239 2.977.715a4.79 4.79 0 0 1 1.91 2.027c.445.875.668 1.922.668 3.141v1.477h-8.66c.031 1.257.367 2.226 1.007 2.906.649.68 1.555 1.019 2.719 1.019.828 0 1.571-.078 2.227-.234.664-.164 1.347-.402 2.051-.715v2.238a8.93 8.93 0 0 1-1.981.668c-.672.141-1.476.211-2.414.211-1.273 0-2.394-.246-3.363-.738-.961-.5-1.715-1.242-2.262-2.226-.539-.985-.809-2.208-.809-3.668 0-1.454.247-2.688.739-3.704s1.183-1.789 2.074-2.32 1.93-.797 3.117-.797zm0 2.074c-.867 0-1.57.282-2.109.844-.531.563-.844 1.387-.938 2.473h5.907c-.008-.649-.118-1.223-.329-1.723a2.5 2.5 0 0 0-.937-1.172c-.414-.281-.945-.422-1.594-.422zm13.746-2.074c1.641 0 2.879.364 3.715 1.09.844.727 1.266 1.859 1.266 3.399V347h-1.957l-.528-1.84h-.093c-.368.469-.747.856-1.137 1.16a3.96 3.96 0 0 1-1.36.68c-.507.156-1.128.234-1.863.234-.773 0-1.465-.14-2.074-.422a3.29 3.29 0 0 1-1.441-1.312c-.352-.586-.528-1.328-.528-2.227 0-1.336.496-2.339 1.489-3.011 1-.672 2.507-1.043 4.523-1.114l2.25-.082v-.679c0-.899-.211-1.539-.633-1.922-.414-.383-1-.574-1.758-.574a6.36 6.36 0 0 0-1.886.281 13.29 13.29 0 0 0-1.782.691l-.89-1.945c.633-.336 1.351-.609 2.156-.82.812-.211 1.656-.317 2.531-.317zm2.25 7.02l-1.676.058c-1.375.047-2.339.282-2.894.703s-.832 1-.832 1.735c0 .64.191 1.109.574 1.406.383.289.887.434 1.512.434.953 0 1.742-.27 2.367-.809.633-.547.949-1.348.949-2.402v-1.125zm9.551 6.199l-4.934-12.973h2.918l2.672 7.618a17.1 17.1 0 0 1 .469 1.57l.293 1.418h.094c.054-.399.16-.875.316-1.43l.481-1.558 2.671-7.618h2.907L218.785 347h-2.953zm15.023-13.219c1.157 0 2.149.239 2.977.715a4.79 4.79 0 0 1 1.91 2.027c.445.875.668 1.922.668 3.141v1.477h-8.66c.031 1.257.367 2.226 1.008 2.906.648.68 1.554 1.019 2.719 1.019.828 0 1.57-.078 2.226-.234.664-.164 1.348-.402 2.051-.715v2.238a8.93 8.93 0 0 1-1.981.668c-.671.141-1.476.211-2.414.211-1.273 0-2.394-.246-3.363-.738-.961-.5-1.715-1.242-2.262-2.226-.539-.985-.808-2.208-.808-3.668 0-1.454.246-2.688.738-3.704s1.184-1.789 2.074-2.32 1.93-.797 3.117-.797zm0 2.074c-.867 0-1.57.282-2.109.844-.531.563-.844 1.387-.937 2.473h5.906c-.008-.649-.117-1.223-.328-1.723-.203-.5-.516-.89-.938-1.172-.414-.281-.945-.422-1.594-.422zM256.648 347l-1.675-4.758h-6.551L246.746 347h-2.965l6.375-17.203h3.117L259.637 347h-2.989zm-2.402-7.172l-1.629-4.687-.269-.856-.352-1.137-.293-.984-.293 1.078-.328 1.102-.234.797-1.641 4.687h5.039zm11.731 7.406c-1.547 0-2.79-.562-3.727-1.687-.93-1.133-1.395-2.801-1.395-5.004 0-2.227.473-3.91 1.418-5.051.954-1.14 2.207-1.711 3.762-1.711.656 0 1.231.09 1.723.27.492.172.914.406 1.265.703a4.77 4.77 0 0 1 .914.996h.129l-.14-1.043-.071-1.277v-4.664h2.766V347h-2.156l-.492-1.77h-.118a4.38 4.38 0 0 1-.89 1.02c-.352.297-.774.535-1.266.715-.484.18-1.058.269-1.722.269zm.773-2.238c1.18 0 2.012-.34 2.496-1.019s.734-1.7.75-3.059v-.363c0-1.453-.234-2.567-.703-3.34-.469-.781-1.324-1.172-2.566-1.172-.993 0-1.75.402-2.274 1.207-.516.797-.773 1.91-.773 3.34s.257 2.523.773 3.281c.524.75 1.289 1.125 2.297 1.125zm14.18 2.238c-1.547 0-2.789-.562-3.727-1.687-.93-1.133-1.394-2.801-1.394-5.004 0-2.227.472-3.91 1.418-5.051.953-1.14 2.207-1.711 3.761-1.711.657 0 1.231.09 1.723.27.492.172.914.406 1.266.703.359.297.664.629.914.996h.129l-.141-1.043-.07-1.277v-4.664h2.765V347h-2.156l-.492-1.77h-.117a4.41 4.41 0 0 1-.891 1.02c-.352.297-.773.535-1.266.715-.484.18-1.058.269-1.722.269zm.773-2.238c1.18 0 2.012-.34 2.496-1.019s.735-1.7.75-3.059v-.363c0-1.453-.234-2.567-.703-3.34-.469-.781-1.324-1.172-2.566-1.172-.993 0-1.75.402-2.274 1.207-.515.797-.773 1.91-.773 3.34s.258 2.523.773 3.281c.524.75 1.289 1.125 2.297 1.125zm14.988-11.215c1.157 0 2.149.239 2.977.715a4.79 4.79 0 0 1 1.91 2.027c.445.875.668 1.922.668 3.141v1.477h-8.66c.031 1.257.367 2.226 1.008 2.906.648.68 1.554 1.019 2.718 1.019.829 0 1.571-.078 2.227-.234.664-.164 1.348-.402 2.051-.715v2.238a8.93 8.93 0 0 1-1.981.668c-.672.141-1.476.211-2.414.211-1.273 0-2.394-.246-3.363-.738-.961-.5-1.715-1.242-2.262-2.226-.539-.985-.808-2.208-.808-3.668 0-1.454.246-2.688.738-3.704s1.184-1.789 2.074-2.32 1.93-.797 3.117-.797zm0 2.074c-.867 0-1.57.282-2.109.844-.531.563-.844 1.387-.937 2.473h5.906c-.008-.649-.117-1.223-.328-1.723-.203-.5-.516-.89-.938-1.172-.414-.281-.945-.422-1.594-.422zm13.02 11.379c-1.547 0-2.789-.562-3.727-1.687-.929-1.133-1.394-2.801-1.394-5.004 0-2.227.472-3.91 1.418-5.051.953-1.14 2.207-1.711 3.762-1.711.656 0 1.23.09 1.722.27.492.172.914.406 1.266.703.359.297.664.629.914.996h.129l-.141-1.043-.07-1.277v-4.664h2.765V347h-2.156l-.492-1.77h-.117c-.235.375-.531.715-.891 1.02-.351.297-.773.535-1.265.715-.485.18-1.059.269-1.723.269zm.773-2.238c1.18 0 2.012-.34 2.496-1.019s.735-1.7.75-3.059v-.363c0-1.453-.234-2.567-.703-3.34-.468-.781-1.324-1.172-2.566-1.172-.992 0-1.75.402-2.274 1.207-.515.797-.773 1.91-.773 3.34s.258 2.523.773 3.281c.524.75 1.29 1.125 2.297 1.125zm-156.515 25.34c0 1.016-.25 1.891-.75 2.625-.492.734-1.203 1.297-2.133 1.687-.922.391-2.024.586-3.305.586a14.73 14.73 0 0 1-1.793-.105c-.57-.07-1.109-.172-1.617-.305-.5-.14-.957-.308-1.371-.504v-2.648c.695.305 1.473.582 2.332.832.859.242 1.734.363 2.625.363.727 0 1.328-.094 1.805-.281.484-.195.843-.469 1.078-.82.234-.36.351-.778.351-1.254 0-.508-.136-.938-.41-1.289s-.687-.672-1.242-.961c-.547-.297-1.234-.614-2.062-.95-.563-.226-1.102-.484-1.618-.773-.507-.289-.961-.629-1.359-1.019s-.715-.852-.949-1.383c-.227-.539-.34-1.172-.34-1.899 0-.968.23-1.797.691-2.484.469-.688 1.125-1.215 1.969-1.582.852-.367 1.844-.551 2.977-.551.898 0 1.742.094 2.531.281.797.188 1.578.453 2.344.797l-.891 2.262a15.72 15.72 0 0 0-2.051-.691c-.656-.172-1.328-.258-2.015-.258-.594 0-1.098.09-1.512.269s-.731.434-.949.762c-.211.32-.317.703-.317 1.148 0 .5.121.922.364 1.266.25.336.632.645 1.148.926.523.281 1.195.594 2.016.937.945.391 1.746.801 2.402 1.231.664.429 1.172.945 1.523 1.547.352.593.528 1.339.528 2.238zm14.332-8.309V375h-2.168l-.375-1.746h-.153c-.273.445-.621.816-1.043 1.113-.421.289-.89.504-1.406.645a5.87 5.87 0 0 1-1.629.222c-.976 0-1.812-.164-2.507-.492-.688-.336-1.215-.851-1.583-1.547s-.55-1.593-.55-2.695v-8.473h2.765v7.957c0 1.008.203 1.762.61 2.262.414.5 1.054.75 1.922.75.836 0 1.5-.172 1.992-.516s.84-.851 1.043-1.523c.211-.672.316-1.496.316-2.473v-6.457h2.766zm9.176 13.207c-1.227 0-2.29-.238-3.188-.714s-1.59-1.208-2.074-2.192-.727-2.234-.727-3.75c0-1.578.266-2.867.797-3.867s1.266-1.738 2.203-2.215c.946-.476 2.028-.715 3.246-.715.774 0 1.473.078 2.098.235.633.148 1.168.332 1.605.55l-.82 2.204c-.476-.196-.965-.36-1.465-.493s-.98-.199-1.441-.199c-.758 0-1.391.168-1.899.504-.5.336-.875.836-1.125 1.5-.242.664-.363 1.488-.363 2.473 0 .953.125 1.757.375 2.414.25.648.621 1.14 1.113 1.476.493.328 1.098.492 1.817.492.711 0 1.348-.085 1.91-.257s1.094-.395 1.594-.668v2.39a5.86 5.86 0 0 1-1.582.621c-.563.141-1.254.211-2.074.211zm11.929 0c-1.226 0-2.289-.238-3.187-.714s-1.59-1.208-2.074-2.192-.727-2.234-.727-3.75c0-1.578.266-2.867.797-3.867s1.265-1.738 2.203-2.215c.945-.476 2.027-.715 3.246-.715.773 0 1.473.078 2.098.235.633.148 1.168.332 1.605.55l-.82 2.204a11.89 11.89 0 0 0-1.465-.493c-.5-.132-.98-.199-1.441-.199-.758 0-1.391.168-1.899.504-.5.336-.875.836-1.125 1.5-.242.664-.363 1.488-.363 2.473 0 .953.125 1.757.375 2.414.25.648.621 1.14 1.113 1.476.492.328 1.098.492 1.817.492.711 0 1.347-.085 1.91-.257s1.093-.395 1.593-.668v2.39c-.492.282-1.019.489-1.582.621-.562.141-1.253.211-2.074.211zm11.871-13.453c1.157 0 2.149.239 2.977.715a4.79 4.79 0 0 1 1.91 2.027c.445.875.668 1.922.668 3.141v1.477h-8.66c.031 1.257.367 2.226 1.008 2.906.648.68 1.554 1.019 2.718 1.019.829 0 1.571-.078 2.227-.234.664-.164 1.348-.402 2.051-.715v2.238a8.93 8.93 0 0 1-1.981.668c-.672.141-1.476.211-2.414.211-1.273 0-2.394-.246-3.363-.738-.961-.5-1.715-1.242-2.262-2.226-.539-.985-.808-2.208-.808-3.668 0-1.454.246-2.688.738-3.704s1.184-1.789 2.074-2.32 1.93-.797 3.117-.797zm0 2.074c-.867 0-1.57.282-2.109.844-.531.563-.844 1.387-.938 2.473h5.907c-.008-.649-.117-1.223-.328-1.723-.204-.5-.516-.89-.938-1.172-.414-.281-.945-.422-1.594-.422zm17.379 7.442c0 .851-.207 1.57-.621 2.156s-1.019 1.031-1.816 1.336c-.789.297-1.758.445-2.907.445-.906 0-1.687-.066-2.343-.199a8 8 0 0 1-1.84-.586v-2.379c.617.289 1.308.539 2.074.75.774.211 1.504.317 2.192.317.906 0 1.558-.141 1.957-.422a1.35 1.35 0 0 0 .597-1.149 1.22 1.22 0 0 0-.246-.75c-.156-.226-.453-.457-.891-.691-.429-.242-1.062-.531-1.898-.867-.82-.328-1.512-.656-2.074-.985s-.988-.722-1.278-1.183c-.289-.469-.433-1.067-.433-1.793 0-1.149.453-2.02 1.359-2.613.914-.602 2.121-.903 3.621-.903.797 0 1.547.082 2.25.246.711.157 1.407.387 2.086.692l-.867 2.074c-.586-.258-1.176-.469-1.769-.633-.586-.172-1.184-.258-1.793-.258-.711 0-1.254.11-1.629.328-.367.219-.551.532-.551.938 0 .305.09.562.269.773s.489.422.926.633l1.852.785c.773.297 1.441.61 2.004.938.57.32 1.008.715 1.312 1.183s.457 1.075.457 1.817zm11.696 0c0 .851-.207 1.57-.622 2.156s-1.019 1.031-1.816 1.336c-.789.297-1.758.445-2.906.445-.906 0-1.688-.066-2.344-.199-.648-.125-1.262-.32-1.84-.586v-2.379c.617.289 1.309.539 2.074.75.774.211 1.504.317 2.192.317.906 0 1.558-.141 1.957-.422.398-.289.598-.672.598-1.149a1.22 1.22 0 0 0-.247-.75c-.156-.226-.453-.457-.89-.691-.43-.242-1.063-.531-1.899-.867-.82-.328-1.511-.656-2.074-.985s-.988-.722-1.277-1.183c-.289-.469-.434-1.067-.434-1.793 0-1.149.453-2.02 1.36-2.613.914-.602 2.121-.903 3.621-.903.797 0 1.547.082 2.25.246.711.157 1.406.387 2.086.692l-.868 2.074a12.92 12.92 0 0 0-1.769-.633c-.586-.172-1.184-.258-1.793-.258-.711 0-1.254.11-1.629.328-.367.219-.551.532-.551.938 0 .305.09.562.27.773s.488.422.926.633l1.851.785c.774.297 1.442.61 2.004.938.57.32 1.008.715 1.313 1.183s.457 1.075.457 1.817zm9.457-7.172h-3.153V375h-2.754v-10.875h-2.121v-1.324l2.121-.809v-.902c0-1.102.172-1.977.516-2.625a3.06 3.06 0 0 1 1.5-1.395c.656-.289 1.437-.433 2.344-.433.593 0 1.136.05 1.629.152.492.094.906.203 1.242.328l-.715 2.086c-.266-.086-.563-.164-.891-.234-.328-.078-.679-.117-1.054-.117-.625 0-1.086.195-1.383.585-.289.391-.434.961-.434 1.711v.879h3.153v2.098zm13.523-2.098V375h-2.168l-.375-1.746h-.152c-.274.445-.621.816-1.043 1.113a4.63 4.63 0 0 1-1.407.645c-.515.148-1.058.222-1.628.222-.977 0-1.813-.164-2.508-.492-.688-.336-1.215-.851-1.582-1.547s-.551-1.593-.551-2.695v-8.473h2.766v7.957c0 1.008.203 1.762.609 2.262.414.5 1.055.75 1.922.75.836 0 1.5-.172 1.992-.516s.84-.851 1.043-1.523c.211-.672.316-1.496.316-2.473v-6.457h2.766zM260.047 375h-2.766v-18.234h2.766V375zm6.703 0h-2.766v-18.234h2.766V375zm1.98-12.973h3l2.661 7.407.316.996.258.949.187.937h.071l.328-1.359.492-1.523 2.555-7.407h2.964l-5.566 14.754c-.32.844-.715 1.563-1.184 2.156-.46.602-1.007 1.055-1.64 1.36-.633.312-1.356.469-2.168.469-.391 0-.731-.024-1.02-.071l-.738-.129v-2.203c.164.039.371.074.621.106s.508.047.774.047c.492 0 .918-.098 1.277-.293a2.66 2.66 0 0 0 .914-.832c.25-.352.457-.754.621-1.207l.457-1.219-5.18-12.938zm17.18 7.746h-2.074l-.563-11.906h3.2l-.563 11.906zm-2.777 3.774c0-.641.164-1.09.492-1.348.336-.265.746-.398 1.23-.398.477 0 .883.133 1.219.398.336.258.504.707.504 1.348 0 .625-.168 1.078-.504 1.359-.336.274-.742.41-1.219.41-.484 0-.894-.136-1.23-.41-.328-.281-.492-.734-.492-1.359z" fill="#000"/><path d="M83.789 393.586c-.63 0-1.198.109-1.703.328-.5.214-.927.526-1.281.938-.349.406-.617.898-.805 1.476s-.281 1.229-.281 1.953c0 .959.148 1.792.445 2.5.302.703.75 1.248 1.344 1.633.599.385 1.346.578 2.242.578a7.8 7.8 0 0 0 1.438-.125c.453-.088.893-.198 1.32-.328v1.156a6.7 6.7 0 0 1-1.312.344c-.458.078-1.003.117-1.633.117-1.162 0-2.133-.239-2.914-.719-.776-.484-1.359-1.166-1.75-2.046-.385-.881-.578-1.92-.578-3.118 0-.864.12-1.653.359-2.367.245-.719.599-1.338 1.063-1.859a4.7 4.7 0 0 1 1.719-1.203c.682-.287 1.464-.43 2.344-.43.578 0 1.135.057 1.672.172s1.021.279 1.453.492l-.531 1.125a7.91 7.91 0 0 0-1.203-.43c-.432-.125-.901-.187-1.406-.187zm8.203 1.711c1.021 0 1.779.229 2.273.687s.742 1.19.742 2.196V404h-.945l-.25-1.266h-.062c-.24.313-.49.576-.75.789a2.77 2.77 0 0 1-.906.477c-.338.104-.755.156-1.25.156-.521 0-.984-.091-1.391-.273a2.17 2.17 0 0 1-.953-.828c-.229-.37-.344-.839-.344-1.407 0-.854.339-1.51 1.016-1.968s1.708-.709 3.094-.75l1.477-.063v-.523c0-.74-.159-1.258-.477-1.555s-.766-.445-1.344-.445a4.18 4.18 0 0 0-1.281.195c-.406.13-.792.284-1.156.461l-.398-.984c.386-.198.828-.368 1.328-.508s1.026-.211 1.578-.211zm1.734 4.484l-1.305.055c-1.068.042-1.82.216-2.258.523s-.656.743-.656 1.305c0 .49.148.852.445 1.086s.69.352 1.18.352c.76 0 1.383-.211 1.867-.633s.727-1.055.727-1.899v-.789zm9.492 1.875c0 .547-.138 1.008-.414 1.383s-.662.648-1.172.836c-.505.187-1.11.281-1.813.281-.599 0-1.117-.047-1.555-.14s-.82-.227-1.148-.399v-1.195c.349.172.766.328 1.25.469a5.32 5.32 0 0 0 1.484.211c.739 0 1.276-.12 1.609-.36a1.14 1.14 0 0 0 .5-.976c0-.235-.068-.44-.203-.618-.13-.182-.352-.356-.664-.523-.313-.172-.745-.359-1.297-.563l-1.422-.617c-.396-.208-.703-.461-.922-.758-.214-.296-.32-.682-.32-1.156 0-.724.292-1.278.875-1.664.589-.39 1.359-.586 2.312-.586.516 0 .998.052 1.446.156s.875.235 1.265.407l-.437 1.039a8.01 8.01 0 0 0-1.133-.383 4.87 4.87 0 0 0-1.227-.156c-.599 0-1.059.099-1.382.297-.318.198-.477.468-.477.812 0 .266.073.484.219.656.151.172.391.334.719.485l1.296.531c.537.198 1 .404 1.391.617s.69.464.898.766c.214.297.321.679.321 1.148zm9.156-6.219V404h-1.063l-.187-1.203h-.07a2.49 2.49 0 0 1-.688.75c-.281.203-.599.354-.953.453a3.89 3.89 0 0 1-1.117.156c-.677 0-1.245-.109-1.703-.328a2.2 2.2 0 0 1-1.039-1.016c-.229-.458-.344-1.046-.344-1.765v-5.61h1.312v5.516c0 .714.162 1.248.485 1.602s.815.523 1.476.523c.636 0 1.141-.12 1.516-.359s.654-.591.82-1.055.25-1.042.25-1.719v-4.508h1.305zm5.945-.14c1.021 0 1.779.229 2.274.687s.742 1.19.742 2.196V404h-.945l-.25-1.266h-.063c-.239.313-.489.576-.75.789a2.76 2.76 0 0 1-.906.477c-.339.104-.755.156-1.25.156-.521 0-.985-.091-1.391-.273s-.719-.459-.953-.828-.344-.839-.344-1.407c0-.854.339-1.51 1.016-1.968s1.708-.709 3.094-.75l1.476-.063v-.523c0-.74-.159-1.258-.476-1.555s-.766-.445-1.344-.445c-.448 0-.875.065-1.281.195s-.792.284-1.157.461l-.398-.984c.385-.198.828-.368 1.328-.508s1.026-.211 1.578-.211zm1.735 4.484l-1.305.055c-1.068.042-1.82.216-2.258.523s-.656.743-.656 1.305c0 .49.148.852.445 1.086s.69.352 1.18.352c.76 0 1.383-.211 1.867-.633s.727-1.055.727-1.899v-.789zm5.257 4.219h-1.304v-12.156h1.304V404zm7.094 0v-11.422h1.328v10.234h5.071V404h-6.399zm11.461-8.719c.729 0 1.354.162 1.875.485s.919.776 1.195 1.359c.277.578.415 1.255.415 2.031v.805h-5.915c.016 1.005.266 1.771.75 2.297s1.167.789 2.047.789c.542 0 1.021-.05 1.438-.149s.849-.244 1.297-.437v1.141c-.433.192-.862.333-1.289.421s-.922.133-1.5.133c-.823 0-1.542-.166-2.157-.5a3.49 3.49 0 0 1-1.421-1.484c-.339-.651-.508-1.448-.508-2.391 0-.922.153-1.719.461-2.39.312-.677.75-1.198 1.312-1.563.568-.364 1.235-.547 2-.547zm-.015 1.063c-.693 0-1.245.226-1.657.679s-.656 1.086-.734 1.899h4.531c-.005-.511-.086-.958-.242-1.344s-.383-.693-.695-.906c-.313-.219-.714-.328-1.203-.328zm8.906-1.047c1.021 0 1.778.229 2.273.687s.742 1.19.742 2.196V404h-.945l-.25-1.266h-.062c-.24.313-.49.576-.75.789s-.563.368-.907.477c-.338.104-.755.156-1.25.156-.52 0-.984-.091-1.39-.273-.401-.182-.719-.459-.953-.828s-.344-.839-.344-1.407c0-.854.338-1.51 1.015-1.968s1.709-.709 3.094-.75l1.477-.063v-.523c0-.74-.159-1.258-.477-1.555s-.765-.445-1.344-.445a4.18 4.18 0 0 0-1.281.195c-.406.13-.791.284-1.156.461l-.398-.984c.385-.198.828-.368 1.328-.508s1.026-.211 1.578-.211zm1.734 4.484l-1.305.055c-1.067.042-1.82.216-2.257.523a1.5 1.5 0 0 0-.657 1.305c0 .49.149.852.446 1.086s.69.352 1.179.352c.761 0 1.383-.211 1.868-.633s.726-1.055.726-1.899v-.789zm5.836 4.219l-3.25-8.563h1.391l1.883 5.18.398 1.172.281 1.031h.055a12.25 12.25 0 0 1 .312-1.031l.399-1.172 1.883-5.18h1.39L161.812 404h-1.484zm9.414-8.719c.729 0 1.354.162 1.875.485s.919.776 1.195 1.359c.277.578.415 1.255.415 2.031v.805h-5.915c.016 1.005.266 1.771.75 2.297s1.167.789 2.047.789c.542 0 1.021-.05 1.438-.149s.849-.244 1.297-.437v1.141c-.433.192-.862.333-1.289.421s-.922.133-1.5.133c-.823 0-1.542-.166-2.157-.5a3.49 3.49 0 0 1-1.421-1.484c-.339-.651-.508-1.448-.508-2.391 0-.922.153-1.719.461-2.39.312-.677.75-1.198 1.312-1.563.568-.364 1.235-.547 2-.547zm-.015 1.063c-.693 0-1.245.226-1.657.679s-.656 1.086-.734 1.899h4.531c-.005-.511-.086-.958-.242-1.344s-.383-.693-.695-.906c-.313-.219-.714-.328-1.203-.328zm13.671.109h-2.132V404h-1.297v-7.547h-1.516v-.625l1.516-.43v-.57c0-.719.107-1.302.32-1.75s.523-.786.93-1 .901-.32 1.484-.32c.328 0 .628.028.899.086s.518.122.726.195l-.336 1.023a5.97 5.97 0 0 0-.601-.156 2.9 2.9 0 0 0-.672-.078c-.495 0-.862.162-1.102.484-.234.318-.351.818-.351 1.5v.625h2.132v1.016zm8.961 3.25c0 .703-.091 1.331-.273 1.883s-.445 1.018-.789 1.398a3.43 3.43 0 0 1-1.25.875c-.485.198-1.034.297-1.649.297-.572 0-1.099-.099-1.578-.297a3.55 3.55 0 0 1-1.234-.875c-.344-.38-.612-.846-.805-1.398-.187-.552-.281-1.18-.281-1.883 0-.937.159-1.734.477-2.391s.77-1.164 1.359-1.507c.594-.349 1.299-.524 2.117-.524.781 0 1.464.175 2.047.524.589.349 1.044.854 1.367 1.515.328.657.492 1.451.492 2.383zm-6.515 0c0 .688.091 1.284.273 1.789s.464.896.844 1.172.87.414 1.469.414c.593 0 1.08-.138 1.461-.414s.669-.667.851-1.172.274-1.101.274-1.789c0-.682-.092-1.271-.274-1.766s-.463-.885-.844-1.156-.872-.406-1.476-.406c-.891 0-1.544.294-1.961.883s-.617 1.403-.617 2.445zm12.648-4.422c.172 0 .352.011.539.031s.354.04.5.071l-.164 1.203a3.52 3.52 0 0 0-.469-.086c-.171-.021-.333-.031-.484-.031-.344 0-.669.07-.977.211a2.31 2.31 0 0 0-.796.593c-.23.256-.409.566-.539.93s-.196.761-.196 1.203V404h-1.304v-8.563h1.078l.14 1.579h.055a4.21 4.21 0 0 1 .641-.868 2.89 2.89 0 0 1 .867-.632c.333-.157.703-.235 1.109-.235zm13.781 2.992c0 .928-.07 1.756-.211 2.485s-.361 1.346-.664 1.851-.692.891-1.171 1.157c-.48.26-1.055.39-1.727.39-.849 0-1.552-.232-2.109-.695-.552-.464-.967-1.133-1.243-2.008-.27-.88-.406-1.94-.406-3.18 0-1.218.123-2.265.367-3.14.25-.88.651-1.555 1.203-2.024s1.282-.711 2.188-.711c.859 0 1.568.235 2.125.704.557.463.971 1.135 1.242 2.015s.406 1.927.406 3.156zm-6.226 0c0 1.063.081 1.948.242 2.657s.422 1.239.781 1.593c.365.349.841.524 1.43.524s1.062-.175 1.422-.524.627-.877.789-1.586.25-1.596.25-2.664c0-1.046-.081-1.921-.242-2.625s-.422-1.239-.782-1.593c-.359-.36-.838-.539-1.437-.539s-1.078.179-1.438.539c-.359.354-.619.885-.781 1.593-.156.704-.234 1.579-.234 2.625zm14.898-3.031c0 .511-.099.953-.297 1.328s-.474.683-.828.922a3.41 3.41 0 0 1-1.25.492v.063c.907.114 1.586.406 2.039.875.459.469.688 1.083.688 1.844 0 .661-.156 1.247-.469 1.757-.307.511-.781.912-1.422 1.204-.635.286-1.45.429-2.445.429-.604 0-1.164-.049-1.68-.148a5.86 5.86 0 0 1-1.469-.477v-1.219a7.39 7.39 0 0 0 1.547.555c.558.13 1.097.195 1.618.195 1.041 0 1.794-.205 2.257-.617s.696-.984.696-1.703c0-.495-.131-.893-.391-1.195-.255-.307-.625-.531-1.109-.672s-1.058-.219-1.735-.219h-1.14v-1.109h1.148c.62 0 1.146-.091 1.578-.274s.761-.437.985-.765c.229-.334.343-.727.343-1.18 0-.578-.192-1.023-.578-1.336-.385-.318-.909-.476-1.57-.476a4.54 4.54 0 0 0-1.109.125 4.59 4.59 0 0 0-.938.343 8.4 8.4 0 0 0-.875.508l-.656-.89c.416-.323.924-.602 1.523-.836s1.279-.352 2.039-.352c1.167 0 2.042.266 2.625.797s.875 1.208.875 2.031zM232.992 404l-3.836-10.109h-.062l.054.781.039 1.008.016 1.101V404h-1.234v-11.422h1.968l3.618 9.5h.054l3.672-9.5h1.953V404h-1.312v-7.313l.015-1.015.04-.969.046-.797h-.062L234.078 404h-1.086zm12.375-8.703c1.021 0 1.779.229 2.274.687s.742 1.19.742 2.196V404h-.946l-.25-1.266h-.062c-.24.313-.49.576-.75.789a2.77 2.77 0 0 1-.906.477c-.339.104-.755.156-1.25.156-.521 0-.985-.091-1.391-.273s-.719-.459-.953-.828-.344-.839-.344-1.407c0-.854.339-1.51 1.016-1.968s1.708-.709 3.094-.75l1.476-.063v-.523c0-.74-.159-1.258-.476-1.555s-.766-.445-1.344-.445c-.448 0-.875.065-1.281.195s-.792.284-1.157.461l-.398-.984c.385-.198.828-.368 1.328-.508s1.026-.211 1.578-.211zm1.735 4.484l-1.305.055c-1.068.042-1.82.216-2.258.523s-.656.743-.656 1.305c0 .49.148.852.445 1.086s.69.352 1.18.352c.76 0 1.383-.211 1.867-.633s.727-1.055.727-1.899v-.789zm7.843-4.5c.172 0 .352.011.539.031s.355.04.5.071l-.164 1.203c-.14-.037-.297-.065-.468-.086a4.01 4.01 0 0 0-.485-.031 2.31 2.31 0 0 0-.976.211c-.302.135-.568.333-.797.593s-.409.566-.539.93-.196.761-.196 1.203V404h-1.304v-8.563h1.078l.14 1.579h.055a4.21 4.21 0 0 1 .641-.868 2.89 2.89 0 0 1 .867-.632c.333-.157.703-.235 1.109-.235zm4.141 6.86l.101.179-.359 1.219-.469 1.297-.507 1.226h-.969l.32-1.32.281-1.359.211-1.242h1.391zm9.562 1.859h-7.484v-1.086l3.055-3.102 1.429-1.531c.391-.448.688-.888.891-1.32.203-.438.305-.917.305-1.438 0-.645-.193-1.138-.578-1.476-.381-.344-.883-.516-1.508-.516-.547 0-1.031.094-1.453.281s-.854.454-1.297.797l-.696-.875a6.3 6.3 0 0 1 .985-.679c.359-.198.742-.354 1.148-.469a4.86 4.86 0 0 1 1.313-.172c.703 0 1.31.122 1.82.367a2.72 2.72 0 0 1 1.18 1.047c.281.453.422.992.422 1.617 0 .604-.12 1.167-.36 1.688-.239.515-.575 1.028-1.008 1.539l-1.515 1.609-2.485 2.477v.054h5.836V404zm9.219-5.727c0 .928-.07 1.756-.211 2.485s-.362 1.346-.664 1.851-.693.891-1.172 1.157c-.479.26-1.054.39-1.726.39-.849 0-1.552-.232-2.11-.695-.552-.464-.966-1.133-1.242-2.008s-.406-1.94-.406-3.18c0-1.218.122-2.265.367-3.14.25-.88.651-1.555 1.203-2.024s1.281-.711 2.188-.711c.859 0 1.567.235 2.125.704.557.463.971 1.135 1.242 2.015s.406 1.927.406 3.156zm-6.226 0c0 1.063.08 1.948.242 2.657s.422 1.239.781 1.593c.365.349.841.524 1.43.524s1.062-.175 1.422-.524.627-.877.789-1.586.25-1.596.25-2.664c0-1.046-.081-1.921-.243-2.625s-.421-1.239-.781-1.593c-.359-.36-.838-.539-1.437-.539s-1.078.179-1.438.539c-.359.354-.62.885-.781 1.593s-.234 1.579-.234 2.625zm15.32 5.727h-7.484v-1.086l3.054-3.102 1.43-1.531c.391-.448.687-.888.891-1.32.203-.438.304-.917.304-1.438 0-.645-.192-1.138-.578-1.476-.38-.344-.883-.516-1.508-.516-.547 0-1.031.094-1.453.281s-.854.454-1.297.797l-.695-.875c.302-.255.63-.481.984-.679.36-.198.743-.354 1.149-.469s.849-.172 1.312-.172c.703 0 1.31.122 1.821.367s.903.594 1.179 1.047c.282.453.422.992.422 1.617a4 4 0 0 1-.359 1.688c-.24.515-.576 1.028-1.008 1.539l-1.516 1.609-2.484 2.477v.054h5.836V404zm9.726-2.648h-1.71V404h-1.266v-2.648h-5.524v-1.094l5.438-7.742h1.352v7.664h1.71v1.172zm-2.976-1.172v-3.735l.008-.773.023-.649.024-.578.023-.539h-.062l-.344.664a6.05 6.05 0 0 1-.383.617l-3.523 4.993h4.234zm12.016-4.883c1.02 0 1.778.229 2.273.687s.742 1.19.742 2.196V404h-.945l-.25-1.266h-.063c-.239.313-.489.576-.75.789a2.76 2.76 0 0 1-.906.477c-.338.104-.755.156-1.25.156-.521 0-.984-.091-1.391-.273a2.17 2.17 0 0 1-.953-.828c-.229-.37-.343-.839-.343-1.407 0-.854.338-1.51 1.015-1.968s1.709-.709 3.094-.75l1.477-.063v-.523c0-.74-.159-1.258-.477-1.555s-.766-.445-1.344-.445c-.448 0-.875.065-1.281.195a8.73 8.73 0 0 0-1.156.461l-.399-.984c.386-.198.828-.368 1.328-.508a5.79 5.79 0 0 1 1.579-.211zm1.734 4.484l-1.305.055c-1.067.042-1.82.216-2.258.523s-.656.743-.656 1.305c0 .49.149.852.445 1.086s.691.352 1.18.352c.761 0 1.383-.211 1.867-.633s.727-1.055.727-1.899v-.789zm7 4.375c-1.083 0-1.943-.37-2.578-1.109s-.946-1.839-.946-3.297c0-1.474.323-2.586.969-3.336s1.505-1.133 2.578-1.133c.453 0 .849.06 1.188.18s.63.281.875.484.45.425.617.68h.094l-.063-.664-.031-.688v-3.429h1.297V404h-1.047l-.195-1.219h-.055c-.161.255-.367.487-.617.696s-.539.375-.883.5c-.338.119-.74.179-1.203.179zm.203-1.078c.917 0 1.565-.26 1.945-.781s.571-1.294.571-2.32v-.235c0-1.088-.183-1.924-.547-2.508s-1.016-.875-1.969-.875c-.797 0-1.393.308-1.789.922s-.594 1.443-.594 2.5.196 1.865.586 2.438c.396.573.995.859 1.797.859zm9.594 1.078c-1.084 0-1.943-.37-2.578-1.109s-.946-1.839-.946-3.297c0-1.474.323-2.586.969-3.336s1.505-1.133 2.578-1.133c.453 0 .849.06 1.188.18s.63.281.875.484.45.425.617.68h.094l-.063-.664-.031-.688v-3.429h1.297V404h-1.047l-.195-1.219h-.055a3.01 3.01 0 0 1-.617.696c-.245.208-.539.375-.883.5-.339.119-.74.179-1.203.179zm.203-1.078c.917 0 1.565-.26 1.945-.781s.571-1.294.571-2.32v-.235c0-1.088-.183-1.924-.547-2.508s-1.016-.875-1.969-.875c-.797 0-1.393.308-1.789.922s-.594 1.443-.594 2.5.195 1.865.586 2.438c.396.573.995.859 1.797.859zm9.844-7.797c.729 0 1.354.162 1.875.485s.919.776 1.195 1.359c.276.578.414 1.255.414 2.031v.805h-5.914c.016 1.005.266 1.771.75 2.297s1.167.789 2.047.789a6.24 6.24 0 0 0 1.437-.149c.417-.099.849-.244 1.297-.437v1.141c-.432.192-.862.333-1.289.421s-.922.133-1.5.133c-.823 0-1.541-.166-2.156-.5-.609-.338-1.083-.833-1.422-1.484s-.508-1.448-.508-2.391c0-.922.154-1.719.461-2.39.313-.677.75-1.198 1.313-1.563s1.234-.547 2-.547zm-.016 1.063c-.693 0-1.245.226-1.656.679s-.656 1.086-.735 1.899h4.532c-.006-.511-.086-.958-.243-1.344-.151-.391-.382-.693-.695-.906-.312-.219-.713-.328-1.203-.328zm8.75 7.812c-1.083 0-1.943-.37-2.578-1.109s-.945-1.839-.945-3.297c0-1.474.323-2.586.968-3.336s1.506-1.133 2.578-1.133c.454 0 .849.06 1.188.18a2.84 2.84 0 0 1 .875.484 2.92 2.92 0 0 1 .617.68h.094l-.063-.664-.031-.688v-3.429h1.297V404h-1.047l-.195-1.219h-.055c-.161.255-.367.487-.617.696s-.539.375-.883.5c-.338.119-.739.179-1.203.179zm.203-1.078c.917 0 1.565-.26 1.945-.781s.571-1.294.571-2.32v-.235c0-1.088-.182-1.924-.547-2.508-.359-.583-1.016-.875-1.969-.875-.797 0-1.393.308-1.789.922s-.594 1.443-.594 2.5.196 1.865.586 2.438c.396.573.995.859 1.797.859zm7.719-2.25h-.852l-.359-8.25h1.57l-.359 8.25zm-1.367 2.359c0-.364.088-.622.265-.773s.399-.234.664-.234.48.078.657.234.273.409.273.773-.091.623-.273.79a.94.94 0 0 1-.657.242.95.95 0 0 1-.664-.242c-.177-.167-.265-.43-.265-.79z" fill="#121212"/></g><defs><clipPath id="A"><rect width="430" height="480" rx="12" fill="#fff"/></clipPath></defs></svg>