<svg width="17" height="17" viewBox="0 0 17 17" fill="none" xmlns="http://www.w3.org/2000/svg">
<g id="Note" clip-path="url(#clip0_4068_4962)">
<path id="Vector" d="M10.5303 14.4998H3.34605C3.2058 14.4998 3.07131 14.444 2.97214 14.3449C2.87297 14.2457 2.81726 14.1112 2.81726 13.971V3.39524C2.81726 3.255 2.87297 3.1205 2.97214 3.02133C3.07131 2.92217 3.2058 2.86646 3.34605 2.86646H13.9218C14.062 2.86646 14.1965 2.92217 14.2957 3.02133C14.3949 3.1205 14.4506 3.255 14.4506 3.39524V10.5795C14.4505 10.7195 14.3949 10.8538 14.2959 10.9529L10.9037 14.3451C10.8046 14.4441 10.6703 14.4997 10.5303 14.4998Z" fill="#B48CEF" stroke="#3B2F87" stroke-width="1.05757" stroke-linecap="round" stroke-linejoin="round"/>
<path id="Vector_2" d="M14.4505 10.7981H10.749V14.4996L14.4505 10.7981Z" fill="#3B2F87"/>
<path id="Vector_3" d="M6.51837 6.56812H10.7487" stroke="#3B2F87" stroke-width="1.05757" stroke-linecap="round" stroke-linejoin="round"/>
<path id="Vector_4" d="M6.51837 8.68286H10.7487" stroke="#3B2F87" stroke-width="1.05757" stroke-linecap="round" stroke-linejoin="round"/>
<path id="Vector_5" d="M6.51837 10.7981H8.63352" stroke="#3B2F87" stroke-width="1.05757" stroke-linecap="round" stroke-linejoin="round"/>
<path id="Vector_6" d="M14.3897 10.4998H10.9999V13.8902" stroke="#3B2F87" stroke-width="0.981132" stroke-linecap="round" stroke-linejoin="round"/>
</g>
<defs>
<clipPath id="clip0_4068_4962">
<rect width="15.6981" height="15.6981" fill="white" transform="translate(0.364136 0.413818)"/>
</clipPath>
</defs>
</svg>
