<svg width="46" height="45" viewBox="0 0 46 45" fill="none" xmlns="http://www.w3.org/2000/svg">
<g id="Frame 19 82" clip-path="url(#clip0_1471_43613)">
<path id="Vector" d="M22.6271 2.82465C22.3491 2.54658 21.8982 2.54658 21.6202 2.82465C21.3421 3.10271 21.3421 3.55354 21.6202 3.8316L23.9004 6.11183C24.1785 6.38989 24.6293 6.38989 24.9074 6.11183C25.1854 5.83376 25.1854 5.38294 24.9074 5.10487L22.6271 2.82465Z" fill="#343434"/>
<path id="Vector_2" d="M29.5237 0.712025C29.5237 0.318785 29.2049 0 28.8116 0C28.4184 0 28.0996 0.318785 28.0996 0.712025V3.93675C28.0996 4.32999 28.4184 4.64878 28.8116 4.64878C29.2049 4.64878 29.5237 4.32999 29.5237 3.93675V0.712025Z" fill="#343434"/>
<path id="Vector_3" d="M35.9722 3.78875C36.2503 3.51069 36.2503 3.05986 35.9722 2.7818C35.6942 2.50374 35.2433 2.50374 34.9653 2.7818L32.685 5.06202C32.407 5.34009 32.407 5.79092 32.685 6.06898C32.9631 6.34704 33.4139 6.34704 33.692 6.06898L35.9722 3.78875Z" fill="#343434"/>
<path id="Vector_4" d="M13.6164 26.1073L7.86685 29.2917C7.63514 29.42 7.55329 29.7131 7.68501 29.9429L11.6647 36.8862C11.7977 37.1183 12.0957 37.1882 12.3508 37.1081C12.8777 36.9426 13.3582 37.0332 13.5689 37.12L24.5341 40.063C26.8506 40.5187 28.379 39.8731 28.8537 39.4934L32.6987 37.12L43.474 30.5219C44.4075 29.8098 46.0942 28.063 45.3727 26.7719C44.6512 25.4807 42.2556 26.2339 41.148 26.7719L36.1639 29.6674C34.2126 30.762 30.3132 32.9494 30.3252 32.9427C28.9582 33.7022 25.8948 33.1326 24.5341 32.7529L19.8966 31.559C19.795 31.5329 19.7026 31.474 19.6441 31.3867C19.0605 30.5155 19.7741 30.1252 20.3018 30.0176C20.369 30.0038 20.4383 30.0099 20.5041 30.0295L23.5847 30.9491C25.7113 31.6706 26.7809 31.6295 27.0499 31.5187C28.4774 31.0429 28.285 29.7645 27.9858 29.1201C27.9642 29.0733 27.9495 29.0239 27.9353 28.9743C27.7374 28.2833 26.3211 27.9839 25.5745 27.9149C25.5452 27.9122 25.5166 27.9071 25.4882 27.8993L22.7778 27.1516L19.7732 26.1188C19.751 26.1112 19.7289 26.1016 19.708 26.0909C16.9488 24.6707 14.499 25.5083 13.6164 26.1073Z" fill="#343434"/>
<path id="Vector_5" fill-rule="evenodd" clip-rule="evenodd" d="M19.7876 20.4334V11.2728C19.7876 10.9354 19.9666 10.6234 20.258 10.4531L28.329 5.73803C28.6241 5.56558 28.9892 5.56516 29.2849 5.73694L31.7773 7.18546C31.8365 7.21984 31.8058 7.3682 31.7467 7.40262L23.2514 12.347C23.1053 12.432 23.0154 12.5883 23.0154 12.7573V16.3885C23.0154 16.5576 23.1053 16.7138 23.2514 16.7988L24.9128 17.7655C25.2293 17.9495 25.6262 17.7213 25.6262 17.3551V14.3707C25.6262 14.202 25.7157 14.0459 25.8615 13.9608L33.9467 9.23734C34.0803 9.15925 34.654 8.85723 34.7879 8.93503L37.4006 10.4535C37.693 10.6235 37.873 10.9361 37.873 11.2743V20.4377C37.873 20.7744 37.6948 21.0859 37.4044 21.2564L29.3785 25.97C29.0837 26.1431 28.7186 26.1444 28.4226 25.9733L20.2618 21.2553C19.9684 21.0857 19.7876 20.7724 19.7876 20.4334Z" fill="#666666"/>
<path id="Vector_6" fill-rule="evenodd" clip-rule="evenodd" d="M0.474833 30.1166C0.0207777 30.3788 -0.134816 30.9593 0.12735 31.4134L7.66854 44.4752C7.9307 44.9293 8.51133 45.0849 8.96542 44.8227L11.9339 43.1088C12.388 42.8467 12.5436 42.266 12.2814 41.8119L4.74022 28.7503C4.47805 28.2962 3.89742 28.1406 3.44336 28.4027L0.474833 30.1166ZM2.74631 31.2344C3.08712 31.2344 3.3634 30.9581 3.3634 30.6173C3.3634 30.2765 3.08712 30.0002 2.74631 30.0002C2.40551 30.0002 2.12922 30.2765 2.12922 30.6173C2.12922 30.9581 2.40551 31.2344 2.74631 31.2344Z" fill="#666666"/>
</g>
<defs>
<clipPath id="clip0_1471_43613">
<rect width="45.5696" height="45" fill="white"/>
</clipPath>
</defs>
</svg>
